<svg xmlns="http://www.w3.org/2000/svg" xmlns:xlink="http://www.w3.org/1999/xlink" width="451.826" height="319.416" viewBox="0 0 451.826 319.416">
  <defs>
    <clipPath id="clip-path">
      <rect id="Rectángulo_5277" data-name="Rectángulo 5277" width="361.637" height="242.189" fill="none"/>
    </clipPath>
    <clipPath id="clip-path-3">
      <rect id="Rectángulo_5254" data-name="Rectángulo 5254" width="94.8" height="128.272" fill="none"/>
    </clipPath>
    <clipPath id="clip-path-4">
      <rect id="Rectángulo_5255" data-name="Rectángulo 5255" width="94.345" height="119.71" fill="none"/>
    </clipPath>
    <clipPath id="clip-path-5">
      <rect id="Rectángulo_5256" data-name="Rectángulo 5256" width="118.186" height="70.698" fill="none"/>
    </clipPath>
    <clipPath id="clip-path-6">
      <rect id="Rectángulo_5257" data-name="Rectángulo 5257" width="51.323" height="48.604" fill="none"/>
    </clipPath>
    <clipPath id="clip-path-7">
      <rect id="Rectángulo_5258" data-name="Rectángulo 5258" width="29.269" height="19.276" fill="none"/>
    </clipPath>
    <clipPath id="clip-path-8">
      <path id="Trazado_104105" data-name="Trazado 104105" d="M522.506,205.84s-2.8,1.255-3.239,6.337c-.328,3.774,1.4,13.146,1.8,22.908a72.806,72.806,0,0,1-.2,10.084s.053.031.15.084c1.463.8,13.336,6.8,24.654-1.754,0,0-.517-31.95-12.263-39.206a8.881,8.881,0,0,0-4.7-1.463,8.52,8.52,0,0,0-6.2,3.009" transform="translate(-519.226 -202.831)" fill="none"/>
    </clipPath>
    <linearGradient id="linear-gradient" x1="-8.089" y1="2.272" x2="-8.074" y2="2.272" gradientUnits="objectBoundingBox">
      <stop offset="0" stop-color="#c7e2e2"/>
      <stop offset="1" stop-color="#e1efef"/>
    </linearGradient>
    <clipPath id="clip-path-10">
      <rect id="Rectángulo_5261" data-name="Rectángulo 5261" width="21.322" height="34.256" fill="none"/>
    </clipPath>
    <clipPath id="clip-path-11">
      <path id="Trazado_104108" data-name="Trazado 104108" d="M537.062,212.518c-1.3,1.9-.706,5.41-.484,8.927.244,3.854.188,7.645.188,7.645,2.282,3.093,11.859,3.314,11.859,3.314s.565-5.309-1.841-13.331c-1.76-5.869-4.268-8.588-6.552-8.587a3.968,3.968,0,0,0-3.17,2.032" transform="translate(-536.248 -210.486)" fill="none"/>
    </clipPath>
    <linearGradient id="linear-gradient-2" x1="-17.411" y1="4.79" x2="-17.378" y2="4.79" xlink:href="#linear-gradient"/>
    <clipPath id="clip-path-13">
      <path id="Trazado_104118" data-name="Trazado 104118" d="M383.969,360.663c-2.417.047-5.434.557-7.856.373v6.8a18.83,18.83,0,0,1,5.075.236c.807.147,1.719.3,2.616.373,2.294.2,4.527-.1,4.9-2.338.514-3.111-.392-5.014-2.951-5.367a10.18,10.18,0,0,0-1.4-.085c-.125,0-.25,0-.378,0" transform="translate(-376.113 -360.658)" fill="none"/>
    </clipPath>
    <linearGradient id="linear-gradient-3" x1="-17.203" y1="3.264" x2="-17.157" y2="3.264" gradientUnits="objectBoundingBox">
      <stop offset="0" stop-color="#e85e38"/>
      <stop offset="1" stop-color="#f3734a"/>
    </linearGradient>
    <clipPath id="clip-path-15">
      <path id="Trazado_104121" data-name="Trazado 104121" d="M301.532,294.907c-1.865,4.451-5.547,11.248-5.547,11.248l-11.96,15.187s1.652,3.327,4.249,3.777c0,0,13.317-11.96,14.409-14.242s4.047-6.846,4.047-6.846V289.836a1.38,1.38,0,0,0-.365-.04c-.823,0-2.9.507-4.833,5.111" transform="translate(-284.025 -289.796)" fill="none"/>
    </clipPath>
    <linearGradient id="linear-gradient-4" x1="-3.894" y1="1.75" x2="-3.879" y2="1.75" xlink:href="#linear-gradient-3"/>
    <clipPath id="clip-path-17">
      <path id="Trazado_104132" data-name="Trazado 104132" d="M318.7,285.508a27.212,27.212,0,0,0-1.572,3.244l-.028.071c-.005.019-.014.038-.019.057a22.632,22.632,0,0,0-1.846,10.245c.571,6.02,3.305,5.438,5.288,9.451.146.3.288.619.425.968.089.236.18.486.269.751,1.968,5.981,0,8.261,0,8.261s2.767,5.118,12.242,1.653a26.524,26.524,0,0,1,9.263-1.747s.014,0,.019,0a14.08,14.08,0,0,1,5.7,1.038s-1.577-8.574-8.815-13.847c0,0-1.449-12.4-6.171-18.464-1.98-2.542-5.106-4.733-8.445-4.733a8.515,8.515,0,0,0-6.313,3.052" transform="translate(-315.163 -282.456)" fill="none"/>
    </clipPath>
    <linearGradient id="linear-gradient-5" x1="-5.523" y1="1.757" x2="-5.505" y2="1.757" xlink:href="#linear-gradient-3"/>
    <clipPath id="clip-path-19">
      <rect id="Rectángulo_5271" data-name="Rectángulo 5271" width="22.199" height="28.979" fill="none"/>
    </clipPath>
    <clipPath id="clip-path-20">
      <rect id="Rectángulo_5272" data-name="Rectángulo 5272" width="8.094" height="20.665" fill="none"/>
    </clipPath>
    <clipPath id="clip-path-21">
      <path id="Trazado_104136" data-name="Trazado 104136" d="M314.042,305.8c-2.635,4.8-5.513,10.622-5.513,10.622l-15.575,12.353s0,2.518,3.934,4.957c0,0,15.659-6.924,19.278-11.96s11.489-16.839,7.082-22.111a3.113,3.113,0,0,0-2.365-1.334c-2.563,0-5.045,4.2-6.842,7.472" transform="translate(-292.954 -298.326)" fill="none"/>
    </clipPath>
    <linearGradient id="linear-gradient-6" x1="-3.476" y1="1.438" x2="-3.464" y2="1.438" xlink:href="#linear-gradient-3"/>
    <clipPath id="clip-path-23">
      <rect id="Rectángulo_5275" data-name="Rectángulo 5275" width="12.937" height="17.327" fill="none"/>
    </clipPath>
  </defs>
  <g id="Grupo_78633" data-name="Grupo 78633" transform="translate(-285 -4953.574)">
    <rect id="BG" width="451.826" height="319.416" transform="translate(285 4953.574)" fill="#e8e8e8" opacity="0.949"/>
    <g id="Grupo_78398" data-name="Grupo 78398" transform="translate(323.363 4993.479)">
      <g id="Grupo_60977" data-name="Grupo 60977" clip-path="url(#clip-path)">
        <g id="Grupo_60940" data-name="Grupo 60940">
          <g id="Grupo_60939" data-name="Grupo 60939" clip-path="url(#clip-path)">
            <path id="Trazado_104020" data-name="Trazado 104020" d="M361.637,357.054c0-5.508-40.022-9.973-89.392-9.973-5.545,0-10.97.056-16.236.164,8.211-1.508,12.939-3.278,12.939-5.171,0-5.508-40.022-9.973-89.392-9.973-44.23,0-80.951,3.584-88.119,8.29-23.064,1.171-38.36,3.224-38.36,5.561,0,.64,1.153,1.259,3.294,1.844C23.6,349.147,0,352.931,0,357.387,0,362.975,37.115,367.5,82.9,367.5c10.105,0,19.786-.221,28.741-.625,6.723,4.766,43.692,8.41,88.3,8.41,44.643,0,81.64-3.651,88.316-8.423,41.731-.842,73.384-4.915,73.384-9.813" transform="translate(0 -133.101)" fill="#e6efd9"/>
            <path id="Trazado_104021" data-name="Trazado 104021" d="M127.29,371.87c0,2.873-23.34,5.2-52.132,5.2s-52.132-2.329-52.132-5.2,23.34-5.2,52.132-5.2,52.132,2.329,52.132,5.2" transform="translate(-9.228 -146.955)" fill="#cad6b6"/>
            <path id="Trazado_104022" data-name="Trazado 104022" d="M337.881,365.537c0,4.488-23.34,8.125-52.132,8.125s-52.132-3.637-52.132-8.125,23.34-8.125,52.132-8.125,52.132,3.637,52.132,8.125" transform="translate(-93.63 -143.245)" fill="#cad6b6"/>
            <path id="Trazado_104023" data-name="Trazado 104023" d="M522.681,369.467c0,4.031-23.34,7.3-52.132,7.3s-52.132-3.268-52.132-7.3,23.34-7.3,52.132-7.3,52.132,3.268,52.132,7.3" transform="translate(-167.695 -145.151)" fill="#cad6b6"/>
            <path id="Trazado_104024" data-name="Trazado 104024" d="M313.418,351.741c0,2.873-30.419,5.2-67.942,5.2s-67.942-2.329-67.942-5.2,30.419-5.2,67.942-5.2,67.942,2.329,67.942,5.2" transform="translate(-71.153 -138.888)" fill="#cad6b6"/>
            <path id="Trazado_104025" data-name="Trazado 104025" d="M228.018,381.611c0,.69-1.341,1.249-3,1.249s-3-.559-3-1.249,1.342-1.249,3-1.249,3,.559,3,1.249" transform="translate(-88.984 -152.443)" fill="#cad6b6"/>
            <path id="Trazado_104026" data-name="Trazado 104026" d="M265.612,388.376c0,1.02-4.683,1.847-10.459,1.847s-10.459-.827-10.459-1.847,4.683-1.847,10.459-1.847,10.459.827,10.459,1.847" transform="translate(-98.069 -154.914)" fill="#cad6b6"/>
            <path id="Trazado_104027" data-name="Trazado 104027" d="M387.087,387.977c0,.8-2.028,1.448-4.531,1.448s-4.531-.648-4.531-1.448,2.028-1.448,4.531-1.448,4.531.648,4.531,1.448" transform="translate(-151.507 -154.914)" fill="#cad6b6"/>
            <path id="Trazado_104028" data-name="Trazado 104028" d="M473.184,163.172h-4.015v-4.015a1.911,1.911,0,0,0-1.911-1.911h-1.1a1.911,1.911,0,0,0-1.911,1.911v4.015h-4.015a1.911,1.911,0,0,0-1.911,1.911v1.1a1.911,1.911,0,0,0,1.911,1.911h4.015v4.015a1.911,1.911,0,0,0,1.911,1.911h1.1a1.911,1.911,0,0,0,1.911-1.911V168.1h4.015a1.911,1.911,0,0,0,1.911-1.911v-1.1a1.911,1.911,0,0,0-1.911-1.911" transform="translate(-183.686 -63.022)" fill="#e6efd9"/>
            <path id="Trazado_104029" data-name="Trazado 104029" d="M144.276,35.473h-4.015V31.458a1.911,1.911,0,0,0-1.911-1.911h-1.1a1.911,1.911,0,0,0-1.911,1.911v4.015H131.32a1.911,1.911,0,0,0-1.911,1.911v1.1A1.911,1.911,0,0,0,131.32,40.4h4.015v4.015a1.911,1.911,0,0,0,1.911,1.911h1.1a1.911,1.911,0,0,0,1.911-1.911V40.4h4.015a1.911,1.911,0,0,0,1.911-1.912v-1.1a1.911,1.911,0,0,0-1.911-1.911" transform="translate(-51.865 -11.842)" fill="#e6efd9"/>
            <path id="Trazado_104030" data-name="Trazado 104030" d="M32.976,134.6H28.961v-4.014a1.911,1.911,0,0,0-1.912-1.911h-1.1a1.911,1.911,0,0,0-1.911,1.911V134.6H20.021a1.912,1.912,0,0,0-1.912,1.911v1.1a1.911,1.911,0,0,0,1.912,1.911h4.015v4.015a1.911,1.911,0,0,0,1.911,1.911h1.1a1.911,1.911,0,0,0,1.912-1.911v-4.015h4.015a1.911,1.911,0,0,0,1.912-1.911v-1.1a1.912,1.912,0,0,0-1.912-1.911" transform="translate(-7.258 -51.57)" fill="#e6efd9"/>
            <path id="Trazado_104031" data-name="Trazado 104031" d="M286.974,66.989h-4.015V62.974a1.911,1.911,0,0,0-1.911-1.911h-1.1a1.911,1.911,0,0,0-1.911,1.911v4.015h-4.015a1.911,1.911,0,0,0-1.911,1.911V70a1.911,1.911,0,0,0,1.911,1.911h4.015V75.93a1.911,1.911,0,0,0,1.911,1.911h1.1a1.911,1.911,0,0,0,1.911-1.911V71.915h4.015A1.911,1.911,0,0,0,288.885,70V68.9a1.911,1.911,0,0,0-1.911-1.911" transform="translate(-109.056 -24.473)" fill="#e6efd9"/>
            <path id="Trazado_104032" data-name="Trazado 104032" d="M366.97,30.7h-4.015V26.681a1.911,1.911,0,0,0-1.912-1.911h-1.1a1.911,1.911,0,0,0-1.911,1.911V30.7h-4.015a1.911,1.911,0,0,0-1.911,1.911v1.1a1.911,1.911,0,0,0,1.911,1.911h4.015v4.015a1.912,1.912,0,0,0,1.911,1.912h1.1a1.912,1.912,0,0,0,1.912-1.912V35.621h4.015a1.911,1.911,0,0,0,1.911-1.911v-1.1A1.911,1.911,0,0,0,366.97,30.7" transform="translate(-141.117 -9.927)" fill="#e6efd9"/>
            <path id="Trazado_104033" data-name="Trazado 104033" d="M326.614,59.937a2.39,2.39,0,1,1-2.39-2.39,2.39,2.39,0,0,1,2.39,2.39" transform="translate(-128.986 -23.064)" fill="#e6efd9"/>
            <path id="Trazado_104034" data-name="Trazado 104034" d="M57.782,60.621a2.39,2.39,0,1,1-2.39-2.39,2.39,2.39,0,0,1,2.39,2.39" transform="translate(-21.242 -23.338)" fill="#e6efd9"/>
            <path id="Trazado_104035" data-name="Trazado 104035" d="M506.915,147.783a2.39,2.39,0,1,1-2.39-2.39,2.39,2.39,0,0,1,2.39,2.39" transform="translate(-201.247 -58.271)" fill="#e6efd9"/>
            <path id="Trazado_104036" data-name="Trazado 104036" d="M376.9,129.886a2.39,2.39,0,1,1-2.39-2.39,2.39,2.39,0,0,1,2.39,2.39" transform="translate(-149.141 -51.098)" fill="#e6efd9"/>
            <path id="Trazado_104037" data-name="Trazado 104037" d="M407.94,63.925a2.39,2.39,0,1,1-2.39-2.39,2.39,2.39,0,0,1,2.39,2.39" transform="translate(-161.579 -24.662)" fill="#e6efd9"/>
            <path id="Trazado_104038" data-name="Trazado 104038" d="M140.375,102.657a2.39,2.39,0,1,1-2.39-2.39,2.39,2.39,0,0,1,2.39,2.39" transform="translate(-54.344 -40.185)" fill="#e6efd9"/>
            <path id="Trazado_104039" data-name="Trazado 104039" d="M441.331,103.216a6.388,6.388,0,1,1-6.388-6.388,6.388,6.388,0,0,1,6.388,6.388" transform="translate(-171.758 -38.807)" fill="#e6efd9"/>
            <path id="Trazado_104040" data-name="Trazado 104040" d="M229.571,6.387A6.388,6.388,0,1,1,223.184,0a6.388,6.388,0,0,1,6.388,6.387" transform="translate(-86.888)" fill="#e6efd9"/>
            <path id="Trazado_104041" data-name="Trazado 104041" d="M357.861,199.05s8.233-10.977,10.882-22.9a16.009,16.009,0,0,0,6.908-16.087,30.882,30.882,0,0,1,3.028-18.987s-26.318,9.973-12.691,35.075c0,0,2.016,5.464-9.737,21.883Z" transform="translate(-142.78 -56.541)" fill="#537e39"/>
            <path id="Trazado_104042" data-name="Trazado 104042" d="M276.129,110.222a65.935,65.935,0,1,1-25.28-26.294,65.822,65.822,0,0,1,25.28,26.294" transform="translate(-60.858 -30.076)" fill="#a8bc8b"/>
            <path id="Trazado_104043" data-name="Trazado 104043" d="M282.294,281.24a12.559,12.559,0,0,0-1.941.486c-.52-.038-.928-.309-.808.114s.295.52-.037.587-.614.067-.183.267.757-.048,1.124-.3.937-1.041.508-.386-.989.962-.136.6.38-.439,1.165-.57,1-.022,1.061-.171-.318-.255-.41-.482,1.022-.3-.342-.141" transform="translate(-111.861 -112.681)" fill="#537e39"/>
            <path id="Trazado_104044" data-name="Trazado 104044" d="M222.176,152.489c.288.047,1.018-.191,3.427-.493s1.325-.289,1.022-.586-.808-.167-1.319-.514-.179-.415-.593-.357a6.718,6.718,0,0,1-1.626-.409c-.664-.146-.47.086-1.232-.466s-.155-.239-1.6-.213-1.067-.29-1.067-.29l-1.806-.124-1.663.457s-1.585.446-1.793.816a1.2,1.2,0,0,1-.783.712c-.3.124-.046.247.337.252s.425.02.9-.609.352-.21,1.191-.529.315-.325.819-.457.923.129.565.3-.375.194.363.289.38.126.946.006.459.115.988.159.538.245,1.357.068.413-.059.613.354.668,1.589.956,1.633" transform="translate(-85.371 -59.731)" fill="#537e39"/>
            <path id="Trazado_104045" data-name="Trazado 104045" d="M252.969,155.244c-.629-.023-.312.029-.766.071-.766.071-.569.825-.026.717s.264-.052.91.253.219-.158.5-.288.931-.395.9-.413-.412-.092-.841-.241-.049-.076-.677-.1" transform="translate(-100.876 -62.217)" fill="#537e39"/>
            <path id="Trazado_104046" data-name="Trazado 104046" d="M227.351,145.152c.3-.022.512-.213.387-.676s-.663-1.268-.97-1.164c-.683.231-1.429-.158-.423.841s.708,1.021,1.006,1" transform="translate(-90.519 -57.433)" fill="#537e39"/>
            <path id="Trazado_104047" data-name="Trazado 104047" d="M230.61,86.627c-.073-.37-.359,0-.359,0l-.186.031c.372.132.6.222.545-.034" transform="translate(-92.206 -34.653)" fill="#537e39"/>
            <path id="Trazado_104048" data-name="Trazado 104048" d="M228.548,86.469c-.552-.126-.534.349-.827.391l.37-.053,1.032-.168a5.186,5.186,0,0,0-.575-.17" transform="translate(-91.267 -34.647)" fill="#537e39"/>
            <path id="Trazado_104049" data-name="Trazado 104049" d="M225.989,87.5s-.416.186-.092.2.19.061.775-.2c.125-.056.207-.14.286-.151l-.1.015c-.768.109-.865.138-.865.138" transform="translate(-90.486 -35.008)" fill="#537e39"/>
            <path id="Trazado_104050" data-name="Trazado 104050" d="M228.212,87.33a1.4,1.4,0,0,1-.745.41s.18.557.3.54l.788-.112a2.724,2.724,0,0,0,0-.578c-.039-.164-.343-.261-.343-.261" transform="translate(-91.165 -35)" fill="#537e39"/>
            <path id="Trazado_104051" data-name="Trazado 104051" d="M231,87.8c.116-.177-.067-.471-.067-.471l-.377.174-.108.376s.436.1.552-.078" transform="translate(-92.361 -35.002)" fill="#537e39"/>
            <path id="Trazado_104052" data-name="Trazado 104052" d="M261,98.271c.344.191.333.328.7.021a1.623,1.623,0,0,0,.413-.586.362.362,0,0,0,.463-.14c.1-.164-.053-.158.171-.28s.357-.246.363-.307.266-.143-.048-.339-.8.069-.546-.343,1.173-.332.163-.549-.952-.225-1.393-.148.166.322-.7.16-1.144-.093-.88-.461.7-.9.6-1.048-.245-.235-.576-.128a2.544,2.544,0,0,0-.694.415,5.381,5.381,0,0,1-.149.757l-.394.838-.212.631s.122.013-.11.181-.908.189-.435.227.876-.095.411.242-1.129.566-.463.517,2.092-.3,2.092-.3l.481-.114.57.295a5.113,5.113,0,0,1,.789-.277l.093-.016a.357.357,0,0,1-.11.319c-.325.361-.946.238-.6.43" transform="translate(-103.163 -37.704)" fill="#537e39"/>
            <path id="Trazado_104053" data-name="Trazado 104053" d="M256.179,102.4a2.252,2.252,0,0,0,.313.3c.116.074,0,0,.4-.147s.316-.21.346-.32-.39.01-.62-.122-.089-.092-.292-.785-.241-.1-.241-.1l-.572.745a2.581,2.581,0,0,0-.048.62c0,.287.342.282.529.225s0,0,.022-.168a.353.353,0,0,1,.161-.248" transform="translate(-102.387 -40.474)" fill="#537e39"/>
            <path id="Trazado_104054" data-name="Trazado 104054" d="M266.694,99.815c.017.118.321-.376.405-.058s.167.367.167.367l.539-.237.279-.48.041-.35s-.048-.445-.289-.336-.188.164-.378.31-.125.288-.19.146a4.035,4.035,0,0,1-.137-.642c-.359.231-.372.459-.372.459a.309.309,0,0,0-.186.386,1.68,1.68,0,0,1,.122.434" transform="translate(-106.829 -39.492)" fill="#537e39"/>
            <path id="Trazado_104055" data-name="Trazado 104055" d="M244.663,76.77a7.942,7.942,0,0,0,2.153-.266l1.469.292c1.468.292.256.1.956.224s.315-.044.847-.12.284.16-.051.208-.324.126-.8.294.082.149.737.236.74-.306.74-.306a.344.344,0,0,1,.05.354c-.1.174-.107.1-.321.426s0,0,.45.339a13.869,13.869,0,0,0,1.44.795,24.161,24.161,0,0,0,2.638.887l1.615-.089a4.665,4.665,0,0,1,1.441.1c.729.177.424.3.6.275a9.121,9.121,0,0,0,1.359-.053c.049-.087-.478-.673-.753-1.055s-.089-.488-.089-.488l-.143-.3s-.385-.586-.173-.793.351-.073,1.477-.213.408-.1.054-.468-.073-.23.124-.258.411.062.532-.076.259-.156.751-.227.913-.087.373-.492-2.11-.137-7.259-.487a29.814,29.814,0,0,0-8.2.372c-.28.04-1.391.286-1.654.344a17.176,17.176,0,0,1-1.756.376,8.03,8.03,0,0,1-1.257.172,3.583,3.583,0,0,0-1.035.253,2.509,2.509,0,0,0-.4.149,9.972,9.972,0,0,1,1.406-.038c2.383.082.946-.275,2.682-.361" transform="translate(-96.418 -30.221)" fill="#537e39"/>
            <path id="Trazado_104056" data-name="Trazado 104056" d="M284.984,78.906c.941-.059,1.186.282,1.585.015A15.678,15.678,0,0,0,283.9,78.1a9.756,9.756,0,0,0-1.359.194l.4.724s1.093-.05,2.034-.109" transform="translate(-113.239 -31.3)" fill="#537e39"/>
            <path id="Trazado_104057" data-name="Trazado 104057" d="M310.392,89.15s.823-.147.866-.273a.9.9,0,0,0-.13-.913,23.275,23.275,0,0,0-2.8-1.255.369.369,0,0,0-.338.379l.8,1.389Z" transform="translate(-123.437 -34.752)" fill="#537e39"/>
            <path id="Trazado_104058" data-name="Trazado 104058" d="M324.592,99.494a3.5,3.5,0,0,0,.82,1.687,5.858,5.858,0,0,0,.753.774c.315.236,2.061,1.49,2.589,1.385s.784.851.739-.1.258-.729-.176-1.237-.7-.893-1.053-1.263-.814-.425-.915-1.133a6.572,6.572,0,0,1-.108-1.186c-.008-.48-6.651-5-6.651-5-1.123.159-2.422-.708-1.123.159a13.371,13.371,0,0,1,1.477,1.052l1.2.821s2.134,1.229,2.117,1.743-2.351-.207-2.069.294,2.294,1.106,2.4,2.013" transform="translate(-127.819 -37.345)" fill="#537e39"/>
            <path id="Trazado_104059" data-name="Trazado 104059" d="M333.206,145.723c-.182-.11-.413.059-.413.059-.1.284-.1.375.153.444s.325-.046.325-.046.117-.347-.065-.457" transform="translate(-133.354 -58.389)" fill="#537e39"/>
            <path id="Trazado_104060" data-name="Trazado 104060" d="M334.417,146.352c-.243.2-.277.28-.146.351a3.391,3.391,0,0,0,.369.158l.184-.3Z" transform="translate(-133.94 -58.655)" fill="#537e39"/>
            <path id="Trazado_104061" data-name="Trazado 104061" d="M335.473,145.635l.289.123.226-.107-.289-.335c-.272.2-.226.319-.226.319" transform="translate(-134.451 -58.24)" fill="#537e39"/>
            <path id="Trazado_104062" data-name="Trazado 104062" d="M336.084,146.9l.376.2.234-.153-.4-.408a.393.393,0,0,0-.206.36" transform="translate(-134.697 -58.73)" fill="#537e39"/>
            <path id="Trazado_104063" data-name="Trazado 104063" d="M336.331,148.36c.2.107.2.377.344.192l.14-.185-.523-.286c-.074.116-.156.173.04.28" transform="translate(-134.747 -59.348)" fill="#537e39"/>
            <path id="Trazado_104064" data-name="Trazado 104064" d="M335.372,148.915a.491.491,0,0,0,.268.292.319.319,0,0,0,.251-.035s-.187-.349-.209-.406-.31.149-.31.149" transform="translate(-134.412 -59.619)" fill="#537e39"/>
            <path id="Trazado_104065" data-name="Trazado 104065" d="M333.963,148.978l.379.247.123-.318-.323-.255Z" transform="translate(-133.847 -59.577)" fill="#537e39"/>
            <path id="Trazado_104066" data-name="Trazado 104066" d="M310.124,279.143c-.478.028-1.038.047-1.038.047a.35.35,0,0,0-.15.5l.543.283s.762.272.979.1.8.087.285-.4-.14-.561-.618-.533" transform="translate(-123.795 -111.874)" fill="#537e39"/>
            <path id="Trazado_104067" data-name="Trazado 104067" d="M258.429,284.4c-.021-.077-.2-.087-.2-.087s-.108.16.011.083c.041-.026.09,0,.138.046.037-.01.059-.023.053-.043" transform="translate(-103.475 -113.948)" fill="#537e39"/>
            <path id="Trazado_104068" data-name="Trazado 104068" d="M259.043,284.914v-.006l0,.007Z" transform="translate(-103.818 -114.186)" fill="#537e39"/>
            <path id="Trazado_104069" data-name="Trazado 104069" d="M257.817,284.664c-.1.028-.466.006-.517.065a2.4,2.4,0,0,1-.543.224l.032.226.59.037.438-.04a1.435,1.435,0,0,1,.33-.2l-.133.019a1.284,1.284,0,0,0-.2-.333" transform="translate(-102.904 -114.089)" fill="#537e39"/>
            <path id="Trazado_104070" data-name="Trazado 104070" d="M239.563,156.434c.315-.185.443-.7.786-1.073s.414.182,1.121-.219.1-.295,1.109.023.838.241,1.07-.392-1.178-.654-1.994-1.019a3.17,3.17,0,0,0-2.152-.435c-1.444.025-.549.379-1.255.078s-.808-.127-1.576.224c-.5.227-.014.463.616.373s.464.155.517.528-.212.351-.569.524a5.546,5.546,0,0,1-1.777.651c-1.112.238.067.472.067.472a5.29,5.29,0,0,0,1.756-.089c1.056-.21.665-.415,1.669-.277l.049.008c.931.153.255.808.564.626" transform="translate(-94.177 -61.417)" fill="#537e39"/>
            <path id="Trazado_104071" data-name="Trazado 104071" d="M353.915,134.019a65.178,65.178,0,0,0-13.466-23.2l-1.061-.844c-1.093-.265-1.388-.434-1.625-.19s-.57.652-.545.829.9-.008.025.177-1,.383-1.212.173-.771-1.183-.645-.72.851,1.321.8,1.78a6.444,6.444,0,0,0,.045,1.376,11.885,11.885,0,0,0,.856,2.192.9.9,0,0,1,.719,1.04c-.082.913-.065,1.031-.129,1.431-.053.331-.356.2-.388.651a9.728,9.728,0,0,1,2.257-.016s.416.273,1.076.751l.008-.019a1.478,1.478,0,0,0-.1.81c.1.427-.046.808-.448.665s-1.566-.979-1.089-.165,1.209,1.15.8,1.689-.911-.471-.406.539,1.59,2.138.926,2.272c-.481.1-1.65-.043-2.516.106a5.14,5.14,0,0,0,.889,1.318c.358.4-.21.641.512,1.339a2.868,2.868,0,0,1,.763,1.975,2.6,2.6,0,0,0,.265.974c.047.1.1.2.165.307.333.554-.047.989-.062,1.311s-.02.143.548.884.9.373.708,1.162a1.318,1.318,0,0,0,.66,1.529c.5.39.576-.042.694.643a.992.992,0,0,0,.493.682c.215.133.425.189.461.224.07.07,1.1.805,1.152,1.459.052.635.636,1.669,1.976,2.995l.114.114c1.423,1.381,1.828,3.106,2.5,2.188a5.484,5.484,0,0,1,1.634-1.374c.141-.14.079-.432.507-.533s.645-.132.527-.536a1.339,1.339,0,0,1,.271-1.061s-.7-3.967-.608-4.3a3.967,3.967,0,0,0-.589-2,.317.317,0,0,0-.19-.12.3.3,0,0,1,.218.117,3.952,3.952,0,0,1,.575,2c-.1.334.6,4.3.6,4.3.138-.16.543-.538.784.59s.109,1.206.422,1.142.728-.384.941.547c.089.386-.114-3.347-.382-7.846q-.209-.682-.43-1.357m-10.053-1.7v0c.019.025.036.053.054.08-.019-.027-.036-.055-.055-.081m-1.251-11.355h0c-.016.012-.031.02-.047.031.016-.011.031-.02.047-.032m2,14.435a1.748,1.748,0,0,0,.245.1,1.7,1.7,0,0,1-.245-.1m5.359-4.726a3.838,3.838,0,0,1,.094.493,4.231,4.231,0,0,0-.092-.48,18.036,18.036,0,0,0-1.675-3.583,17.863,17.863,0,0,1,1.674,3.57m-2.931,9.052h0l.006,0-.008,0m1.784-2.353h-.014s0,0-.006.007a.251.251,0,0,0,.014-.128.316.316,0,0,1,.005.121m.942.246v0l.059.032-.06-.029m-.38-1.031c.052.183.342.409.39.753-.057-.342-.347-.568-.39-.753m-1.034-2.456a6.4,6.4,0,0,0,.046,1.6,6.446,6.446,0,0,1-.07-1.742c.113-1.338-.215-1.669.656-2.326a1.153,1.153,0,0,1,.642-.254.762.762,0,0,0,.068.569c-.167.011-.42-.212-.662-.03-.872.657-.567.845-.681,2.183m2.707.451a.908.908,0,0,0-.081.637c.064.446.059.608-.546.823.481-.2.093-.309.031-.745-.029-.2-.486-.315-.5-.433h0c.325-1.1-.729-1.976-.439-2.822.25.536.936,1.177,1.247,1.805a1.745,1.745,0,0,1,.291.735" transform="translate(-134.41 -43.952)" fill="#537e39"/>
            <path id="Trazado_104072" data-name="Trazado 104072" d="M264.13,148.188c-.823.147-.859.182-2.346-.809s-2.261-.92-2.771-.828-1.5.354-1.6.168-.326-.174-.49.089-.391.076-1.238-.225-.757.048-1.14.463-.806.976-.814.917,0-.261-.016-.4a1.969,1.969,0,0,1,.15-.783c.138-.44-.109-.626-.3-.819s-.627-.171-1.013-.056-.065-.312-.292-.5-1.14-.1-2.06-.348-1.094-.065-1.488.272-.3.985-.612,1.209-.7.62-.69.519-.349-.191.026-.385.3-.264.668-.675.133-.48.237-1.016-.047-.194-.63-.191a4.892,4.892,0,0,1-1.82-.642c-.6-.276-.44.583-.44.583a1.946,1.946,0,0,0-.833.639,2.9,2.9,0,0,0-.435,1.184c-.062.409-.493.351-.419.019s.321-.566.764-1.551.237-.174.579-.453.249-.156.271-.429.633-1.132.588-1.446-.3.042-.521.014-.63-.472-1.057-1.212-.5-1.612-1.206-1.632c-.345-.01-.967.01-.981-.087s.37-.292.081-.446c-.565-.3-.254-.054-.65-.509s-.411-.362-.808-.4a5.325,5.325,0,0,1-1-.228c0-.008,0-.015.007-.023-.161-.046-.339-.1-.536-.162-.789-.248-.857.122-.857.122s-.911-.051-1.242.386-.426-.029-1.342.1c-.52.074-.654.055-.727-.035a2.072,2.072,0,0,0-.2-.315,2.591,2.591,0,0,0-1.825-.362c-.6.085-.1-.166-.093-.548s-.087-.188-.458-.536a2.666,2.666,0,0,0-1.132-.472c-.108-.033-.221-.072-.339-.12-.619-.253-.591-.056-.81-.186-.2-.116-.188-.263-.4-.669-.023-.046-.049-.092-.078-.144a1.055,1.055,0,0,0-.931-.431c-.159-.008-.3-.005-.385-.018a9.253,9.253,0,0,1-1.375-.24c-.18-.095-.232-.463-.461-.806s-.251.036-1.382.137-.863.077-.836.374.025.282-.509.658-.484.309-1.1.246a3.932,3.932,0,0,1-1.511-.762c-.329-.194-.4.042-.808.355a1.658,1.658,0,0,1-1.265.33c-.6,0-.375-.2-.427-.781s-.582-.488-1.979-.455-1.02.566-1.8.8-.548.063-.49.475.634,1.172.716,1.641-.026.455-.394.627-.439.407-.46.155-.257-.324-.5-.665.077-.311.113-.587.2-.194.336-.5-.117-.509-.2-.768-.217-.255-.529-.646.011-.242.418-.45.309-.269.421-.751-.411-.348-1.076-.043-.227.844-.56.726-.542-.209-.554.349a.534.534,0,0,1-.693.534c-.188-.049-.658-.177-.728-.032s-.062.52-.465.442-.28.04-.8.385-.413,1.126-.308,1.862-.49-.051-.753.648-.874.215-.752,1.068-.159.369-.222.242a.9.9,0,0,0-.161-.213,4.01,4.01,0,0,0-.419-.366c-.373-.292-.469-.114-1.048-.692s-1.771.161-2.556.363a8.316,8.316,0,0,0-1.718.85c-.6.276-.778-.1-1-.449s-.209-.061-.191.207-.138.02-.28.01-.227-.108-.189-.413c.029-.244-.074-.208-.286-.225a1.1,1.1,0,0,1-.182-.029c-.334-.083-.419-.261-.571-.48a3.218,3.218,0,0,1-.381-.667,2.476,2.476,0,0,0-.3-.529s-.189-.273-.368-.578-.147-.295.108-.511-.015-.1-.135-.522.066-.28.385-.581-.092-.578-.165-.949.006-.241.13-.639a7.862,7.862,0,0,1,.353-.841.349.349,0,0,0-.357-.5c-.116.032-.473.173-.737.225s.249-.156.414-.375.357-.141.511-.328.074-.221-.137-.221-.394-.125-.8-.337-.8-.007-1.043-.228-.665.3-.975.138-.362.071-.813.3a2.322,2.322,0,0,1-1.5.033c-.518-.107-.507.253-.706.12s-.093-.087-.456.045-.337-.112-.554-.081c-.071.01-.065-.023-.012-.087.11-.133.428-.4.722-.714.437-.463.237-.875.227-1.375s.173-.485.451-.645c.146-.084.086-.1.076-.252a1.819,1.819,0,0,1,.282-.9c.55-1.08.3-.6.266-.959a1.31,1.31,0,0,1,.1-.836c.144-.261.66-.875.865-1.265s.189-.648-.373-.508-.645.412-.943.154-1.289.123-2,.325-.732.505-.806,1.257a5.633,5.633,0,0,1-.517,1.877c-.206.389-.465.547-1.481.751s-.194.188-.735.345-.445.123-1.137.623-.777-.09-1.049-.452-.676.2-1.064-.129-.208-.721-.252-1.136-.506-.379-.651-1.079a15.736,15.736,0,0,1-.5-1.913c-.146-1.031-.092-.648.28-1.843s.04-1,.336-1.46a1.269,1.269,0,0,0,.185-.511,4.193,4.193,0,0,0-.028-.924c-.035-.461-.042-.294.138-.621a.856.856,0,0,0,.151-.742c-.053-.368.074-.431.383-.805s.407-.313.518-.6.09-.1.563-.17.23-.078.41-.3.116-.032.435-.122.224-.122.252-.351-.118-.3.062-.625.15.2.98-.215.323-.271.937-.088.458.04.937-.193.238.191.5.2a2.268,2.268,0,0,1,.692.1.468.468,0,0,0,.64-.271c.131-.244.223-.017.47.129s.12-.213-.166-.533,0-.3-.019-.659-.132.019-.458.065-.3-.063-.12-.313.452,0,1.213-.053.659-.243.756-.407.08.034.137.326.18-.041.814-.251.267-.309,1.249-.087.008.585.923.665.7-.425,1.235-.5.532.065.847.44.7.081.866.6-.19.628-.162,1.1.22,1.131.475,1.095.1.266.266.443.86,1.1,1.043,1.114.532.2.966-.418a1.829,1.829,0,0,0-.071-2.054c-.4-.385-.157-.539-.114-.946s-.152-.359-.443-.858a5.5,5.5,0,0,1-.514-1.209c-.138-.4-.332-.354-.114-.805a6.464,6.464,0,0,1,.662-1.426,13.866,13.866,0,0,1,1.158-.976,13.016,13.016,0,0,0,1.242-1.228c.422-.421,1.045-.389,1.13-.642s.215-.221.841-.55a5.5,5.5,0,0,0,.915-.561c.5-.331.757-.824.224-1.079s-.028-.191.754-.422-.139-.236-.419-.406-.27-.412-.24-.732a1.529,1.529,0,0,0,.016-.844c-.124-.448.032-.621.351-1.026s.019.132.006.57.056.292.379.442.293.153.325-.152a5.023,5.023,0,0,1,.062-.835c.078-.3.084-.042.471.129s.165-.114.484-.52.228-.3.3-.735c0,0-.449-.191.131-.349s.059-.219.321-.5.156-.067.973-.153.8-.084.959-.467.119-.017.576.128.589-.52.471-.608-.452-.1-.464-.505-.052-.473.7-1.136.513-.208.889-.532.262-.277.638-.286.433-.137.7-.189.265-.223.774-.315.276-.18.223-.482.041-.136.648-.252a6.23,6.23,0,0,0,1.521-.607c.548-.248.026.186.053.232a7.872,7.872,0,0,0,.8-.043c.582,0,.031.146-.013.262s-.252.136-.507.112-.263-.083-.477.038-.846.41-.846.41a4.757,4.757,0,0,1-.174.476,1.115,1.115,0,0,0-.148.512c-.011.2.3.378.464.365a3.4,3.4,0,0,0,.805-.345,3.211,3.211,0,0,0,.605-.546c.179-.156-.011-.149.089-.363s.305.1.305.1a.792.792,0,0,0,.364-.2c.206-.179.119-.077.452-.144s.415-.049.585-.263.105-.105.732-.295.254-.266.063-.479-.148.021-.412-.142-.016-.108-.2.049-.231,0-.841.089-.919-.029-.973-.2.017-.2-.576-.234-.277-.141-.335-.554-.013-.088-.367-.038-.082-.049.064-.4.186-.282.252-.457-.333-.013-.576.187-.421.165-.584-.029-.208-.135-.553-.124-.1-.047,0-.09a1.036,1.036,0,0,1,.4-.109.82.82,0,0,1,.436.043l.558-.155a5.343,5.343,0,0,0,.731-.261c.448-.192.416-.255.076-.372a1.786,1.786,0,0,0-1.145-.193,10.181,10.181,0,0,0-1.935.566s-.691.3-1.038.468a3.6,3.6,0,0,0-.944.715c-.327.317-.487.039-.286-.25s.545-.481.967-.954.506-.1,1.029-.131.4-.147.71-.732.33-.227.756-.407a4.985,4.985,0,0,1,1.359-.194s1.076-.063,2.685-.2.744-.286,1.647-.925.439-.593,1.388-.769.647-.182.647-.182a1.205,1.205,0,0,0,.589-.455c.343-.409-.229-.092-.206-.457s-.139-.341-.525-.511-.471.082-.551-.162.057-.128-.771-.01a2.549,2.549,0,0,0-1.282.527.92.92,0,0,1-.6.16c-.228-.013.2-.269.2-.269a2.707,2.707,0,0,0,.828-.223,5.046,5.046,0,0,1,.644-.347c.422-.21.454-.2.182-.312s.114-.256-.49-.05-.68.1-.821-.154-.089.013-.555.124-.5.071-.612-.274-.633,0-1.017.055-.255-.2-.1-.587-.074-.1-.133-.4-.128-.162-.88-.356a3.912,3.912,0,0,1-1.609-.823c-.588-.427-.234.048-.281.145s-.334.618-.457.816-.34.049-.942.479-.547.183-.547.183a4.551,4.551,0,0,0-.85-.465c-.447-.177,0,0-.413-.256s-.034-.236-.046-.85,0,0-.591.189-.367.067-.481-.2-.441-.133-.973-.373-.312.029-.911.055a12.486,12.486,0,0,0-1.77.281c-.911.16-.169.295-.342.56s-.659.244-.322.707-.246.606-1,.8-.19.147.966.644.177.606.007,1.11-.866.694-1.74.908-1.14.252-.633.421.108,1.187.108,1.187l-.037,1.65s-.3,1.087-.682,1.142l-.164.023-.019,0-.083.012c-.266.038-.661-1.041-.661-1.041a7.3,7.3,0,0,1-.674-1.133,1.537,1.537,0,0,1-.129-.911,4.324,4.324,0,0,1,.367-1.028c.228-.514-.421.008-.8.122a6.913,6.913,0,0,1-1.118.193c-.473.067-.4-.076-1.23-.379s-.668-.032-1.385-.41-1.46.194-2.03.425-.035-.247-.061-.714-.1-.458-.347-.6.18-.427,1.251-1.24.965-.848,1.9-1.022.607-.467,1.339-.832,1.741.083,1.959-.288.458-.386.953-.787a2.372,2.372,0,0,0,.592-.557c.136-.173.81-.043,1.148-.211s.946-.415,1.6-.749.065-.389-.08-.85,1.633.038,2.045-.04c.34-.065.322-.711.382-.719l.147-.021c-.1.015-.047.215-.006.605.059.552,0-.015.333-.062s.342,0,.764.144-.006.1-.08.228a2.961,2.961,0,0,1-.8.372s-.645.271-.284.264a3.692,3.692,0,0,0,.926-.132c.409-.095.25-.221.523-.56s.163.017.6-.165.43.059.444.157-.209.23-.582.427a1.531,1.531,0,0,0-.549.375,4.286,4.286,0,0,1-1.028.407,13.022,13.022,0,0,0-1.509.515c-.159.123.4.3,1.006.183s.77-.235,1.464-.354.479.173,1.013.4.377.247.6.146a2.363,2.363,0,0,1,.583-.137l1.818-.077a3.632,3.632,0,0,0,1.086-.282c.294-.191-.973.084-.973.084a4.844,4.844,0,0,1-1.153-.334c-.329-.194,1.2-.07,1.2-.07l1.109.023a1.528,1.528,0,0,0,.483-.424c.11-.21-.08-.275-.576-.377s-.823.149-1.166,0-.208-.331-.177-.4a13.328,13.328,0,0,1,1.635.328.98.98,0,0,0,.748-.246c.358-.312.626-.55.766-.69s-1.615-.05-1.615-.05l-1.177.067-1.074-.207a3.171,3.171,0,0,0,.591-.365c.419-.3-.433-.078-.433-.078l-.923.011-1.094.076-1.156-.376.715-.379a6.385,6.385,0,0,1,.806-.459,4.308,4.308,0,0,0-1.82.6c-.243.09-.7.308-1.185.5-.043-.111-.269.022-.822.084a8.223,8.223,0,0,0-1.389.2c-.583.143-.385.791-.476.473s-.245-.13-.882.05-.733.675-.343.665.6-.055.526.3-.659.354-.973.479-.422.17-.413.309-.167.274-.353.24,0,0-.09-.212.154-.188.414-.375-.027-.3-.47-.234-.87.56-1.52.652.192-.448.548-.92-.6-.094-1.02.145a1.863,1.863,0,0,0-.942,1.111c-.047.412-.543.423-1.031.492a5.543,5.543,0,0,0-1.843.608c-.946.45-1.085.215-1.355.117s.1-.255.454-.305a1.582,1.582,0,0,0,.921-.311,6.061,6.061,0,0,1,.69-.443c.191-.147-.357-.07-1.089-.026a7,7,0,0,0-2.259.967c-.577.292.069.276-.025.68s-.412.389-1,.354-.325.046-.961.347c-.583.276-.452.134-.578-.137q-2.865,1.6-5.539,3.459c-1.925,1.379-3.982,2.991-5.5,4.274q-.921.8-1.811,1.627c-1.639,1.587-2.837,3.067-3.316,3.574-.524.555-.119.578-.448.945s.075.671-.246.957a1.356,1.356,0,0,0-.259.356,9.4,9.4,0,0,1-.646,1.195,10.423,10.423,0,0,1-1.353,2.076,7.123,7.123,0,0,0-1.793,3.08,5.5,5.5,0,0,1-1.32,2.311,1.2,1.2,0,0,0-.342,1.27,1.569,1.569,0,0,1-.235,1.316c-.248.235.1.267-.125,1.1s-.192.909.429,1.181.442.138.379.828a4.173,4.173,0,0,0,.141,1.1,1.857,1.857,0,0,1-.035.631c-.17.786.009,1.621-.152,2.185s.419.4.471,1.195-.224.974-.716,1.044.022.578.551,1.043.79.328.651,1.05a2.143,2.143,0,0,0,.6,1.938c.52.547.37,1.049.483.712s.31-.365.232-.914-.123-.443-.4-.443-.042-.435-.111-.926-.216-.39-.162-.858a1.855,1.855,0,0,0-.484-1.514c-.467-.555-.128-.242-.162-1.139s.1-1.036-.158-1.58-.15-1.061.326-1.81.161-.283.245-.255a1.41,1.41,0,0,1,.5.671c.106.325-.06.429-.128.8s.025.738-.122.979.236.388.312.777.152.36.419.542.168.2.2.593.355.31.191.714a1.445,1.445,0,0,0,.5,1.372,1.349,1.349,0,0,1,.5,1.092c.053.513.582.418.741,1.537s.553,1.064.71,1.321a1.19,1.19,0,0,1-.071,1.052,1.865,1.865,0,0,0-.193,1.33c.152.5,1.112.894,1.194,1.152a1.289,1.289,0,0,0,1.322.714c.826-.027.289.019.652.343a5.016,5.016,0,0,0,1.133.756c.322.149.724.107,1.62.37s.325.375.656.373a4.108,4.108,0,0,1,1.08.177c.776.161.49.051.884-.246s.533-.917,1.36-.929.04.174.823.168.089-.013.382.246c.234.206.846.78,1.418,1.36.145.147.288.295.421.437.657.7.992.295,1.68.152.173-.036.287-.058.361-.065.222-.019.1.11.149.473.069.486.238.3.854.494s.722-.013,1.287-.468.248.129.134.491.034.341.629.707.709,1.176,1.529,1.12-.089-.423.059-.865,1.012.653,1.307.926-.1.135-.574.2-.207.029-.545.3.067.472.124.869.206.706.907.547.825.288.825.288l.447.387a2.079,2.079,0,0,1,.318.646c.035.25-.008.257.569.611a.6.6,0,0,0,.874-.109,12.344,12.344,0,0,0,1.551.2c.3-.028.167.006.683.248s.238.4.406.844.161-.038.554-.244.45-.439.45-.439l-.179-.41-.51-.514s.561-.185.832-.3.325-.572.627-.78,1.425.053,1.527.459a6.117,6.117,0,0,0,.261.985c.133.3.605.44.719.709s.535.69.43.9.4.409.164.728.288,1.176.058,1.675.267.713.336,1.2a1.705,1.705,0,0,1-.576,1.254c-.156.067-1.023.221-1.043.719s-.374.549-.374.549a.52.52,0,0,0,.02.358c.085.168.061.217-.161.564s-.279.16-1.157.345-.245.08.208.617-.1.24-.274.4-.142.486-.3.883-.3.1-.188.478a1.583,1.583,0,0,1,.015,1.275c-.239.545-.034.4.242.642s.294-.057.973.267.225.735-.174.791,0,0-.386.356-.15.216-.715,1.123-.068.37.518.993.248.791-.033.936.57.295,1.692.871.382.141.647.629.156.249.822.695,1.433,2.125,1.874,2.469a1.953,1.953,0,0,1,.754,1.17c.072.4.034.446.418.391s.787.655,1.366,1.128.673.6.74.962-.043.547.121.854.7.5,1.719,1.063a9.211,9.211,0,0,0,3.531,1.3c2.112.436.445.267,1.312.535s.1.3.31.482.728.032,1.213.263a2.993,2.993,0,0,1,.382.2c.088.064.1.125.156.3.1.3.183.439.472,1.3a6.209,6.209,0,0,1,.324,1.321c.178.831-.011.452-.013,1.4s.125,1.3-.176,1.624-.2.367.047.542.145.385.394,1.071.3.964.212,1.278.231.463.022.9-.113.482-.007.9.022.688-.274,1.361.149.625.27,1.374-.351.711-.143,1.222a13.354,13.354,0,0,1,.512,1.265c.166.532.062.547.013,1.05s-.143,1.433-.215,1.774a10.507,10.507,0,0,1-.212,1.157c-.168.624-.342.244-.288.627s-.014.213-.241.425-.173.16.014.524a10.161,10.161,0,0,0,.491.907,2.82,2.82,0,0,1,.242.431s-.065.174-.165.429a1.634,1.634,0,0,1-.264.473c-.173.265-.038.471.094.768s.015.1.1.512a.868.868,0,0,1-.034.606,1.381,1.381,0,0,1-.292.6c-.186.282-.04.141.04.28s.238-.019.549-.063.11-.076.162-.129a3.319,3.319,0,0,0,.157-.593,2.538,2.538,0,0,1,.225-.859c.207-.45.517-.073.517-.073l.044.624s-.083.267-.18.642-.068.265.018.659.036.606.1,1.087-.087.514-.2.519-.215-.1-.374-.3-.132-.292-.285-.521-.023.123-.164.334-.21.221-.243.485-.2.318-.548.388-.64.091-1.359.194.287.039.786.089a1.629,1.629,0,0,0,1.146-.213c.292-.2.179-.016.281,0a3.163,3.163,0,0,0,.577-.042c.287-.031.121.213-.059.289s-.192.138-.24.295.222.219.222.219-.034.255-.155.252-.206-.031-.357-.039a.782.782,0,0,0-.439.232c-.071.07.222.289.222.289A1.686,1.686,0,0,1,222.8,201c.19-.077.212.5.348.54s.171.545.173.579c.005-.008.012-.017.016-.024a.52.52,0,0,1,.132-.179,1.474,1.474,0,0,1,.361.049l.025.167s-.132.089-.307.2-.021.114.026.167.367-.042.367-.042a1.307,1.307,0,0,1,.507.1c.165.1.581.268.581.268s.011.359-.152.342-.194-.092-.276-.1.023.157-.059.289a.187.187,0,0,0,.034.236l.723.138.717.238.543-.137.369-.233.222.149a1.769,1.769,0,0,0-.034.325c.011.079.754.213.754.213a5.878,5.878,0,0,1,.647.023c.183.029.569-.193.913-.166h.008a3.37,3.37,0,0,0,.917-.131l1.078-.253a1.073,1.073,0,0,0,.3-.162c.107-.1-.394-.084-.585-.157a7.834,7.834,0,0,0-.777-.229c-.167-.037-.315.206-.455.065s-.367-.286-.443-.4a3.235,3.235,0,0,0-.646-.666c-.267-.183-.433-.413-.215-.683.132-.164.149-.192.738-.29s.382-.175.378-.52,0-.345.524-.66.611-.267,1.04-1.17-.1-.286-.181-.215-.486.294-1.252,0-.27-.412-.081-.785.716-.477,1.3-.591.089-.223.355-.471.152-.1.191-.463-.076-.425.457-.711-.35-.341-.295-.589-.274-.021-.231-.568-.367-.038-.219-.69.713.139,2.136-.033.98-.53.98-.53-.7-.472-.328-.825-.062-.442-.108-.977.3-.012.967.013,1.444-.025,3.5-1.068,1.859-1.977,1.5-1.986-.561.08-.308-.257-.037-.475-.215-.66-1.156-.5-1.2-.611-.046-.324.195-.328,1.612.312,1.612.312,1.177.013,1.92-.063.815-.206,1.33-.82c.2-.243.416-.537.65-.858a14.057,14.057,0,0,1,1.294-1.582c.415-.425.511-.51.609-.554a1.71,1.71,0,0,0,.014-.361c-.025-.177.2-.43.2-.43l.357-.775a.573.573,0,0,1,.325-.046c.126.042.315.2.2.348a5.7,5.7,0,0,0-.615.763.694.694,0,0,0-.111.344c.1-.052.227-.126.4-.234,1.037-.659.7-1.062,1.2-1.794a3.178,3.178,0,0,1,1.473-1.371c.822-.437.342-.71.388-1.518a3.682,3.682,0,0,1,.285-1.668c.318-.842.457-.5,1.107-1.119s.788-1.028,1.561-1.529.609-.808,1.234-.866.35-.08.781-.652,1.052-.45,2.246-.53.3-.433.769-.74a1.057,1.057,0,0,0,.613-.989,1.715,1.715,0,0,1,.732-1.216,1.519,1.519,0,0,0,.621-.93c.149-.442.427-.6.618-1.17s.209-1.292.389-1.077.026-.454.453-1.266a5.732,5.732,0,0,0,.391-2.339c.093-.825.061-1.9.167-2.638s.4-.6.579-.173.22-.572.808-1.527.842-1.5,1.032-1.859.461-.576.838-1.321.461-1.418.977-2.453-.081-2.272-.249-3.03-.683-.775-1.506-.627M211.917,91.322c0-.2.066-.19.434-.282,0,0,.422.14.374.367s0,0-.537.156-.271-.041-.271-.241m-2.613-.791a1.756,1.756,0,0,1,.543-.418,1.69,1.69,0,0,1,0,.822c-.107.516-.259.718-.394.617s-.684-.564-.684-.564Zm-.835,1.9c.259-.155.3.014.354.368l-.338.168s-.386-.025-.391-.2.116-.177.375-.331m-1.715-3.866a2.848,2.848,0,0,1,.819-.317,1.656,1.656,0,0,1-.4.878c-.335.328-.231.213-.315.044s-.132-.222-.535-.365,0,0,.428-.241m5.561-6.738s-.365.134-.421.06.022-.274.022-.274l.285-.116a.361.361,0,0,1,.227.058Zm-.1-1.07a1.583,1.583,0,0,1,.316-.045c.1-.014.59.2.495.23a3.465,3.465,0,0,1-.454.065s-.2-.011-.149.221-.292.062-.3.042-.008-.479.087-.513m-8.146,16.785,1.044-.008.656-.474.419-.3.376.1.167.044a5.861,5.861,0,0,1-.307.805c-.172.345-1.047.268-1.047.268s-.549.1-1.162.165-.339.44-.339.44l-.857.472a5.03,5.03,0,0,0-1.808,1.133c-.753.782-1.064.151-1.064.151s-.434-.513-.127-.894.349-.373.47-.371.036.4.256.244c0,0,.422-.14.909-.25a3.064,3.064,0,0,0,.727-.256,4.344,4.344,0,0,0,.675-.343c.431-.222.237-.314.237-.314l.065-.41Zm-7.617-4.527c.18-.566,0,0,.377-.174a2.439,2.439,0,0,1,.433.78c.067.331-.183.126-.921.308s-.07-.348.111-.914m-2.707.185c0-.541,0,0,.433-.061l.841.261-.31.365s-.968-.023-.964-.564m-.367,2.937,1.892-.97,1.867-.866s.983-.721,1.32-.188a6.423,6.423,0,0,0,.611.767,2.9,2.9,0,0,1,.406.731s-.671.656.748.455,1.442-.746,2.148-.306.689.043.748.6.339.834-.164.684-.88-.255-1.052-.051a4.56,4.56,0,0,0-.421.862s-.18.706-.389.8-.574.2-.574.2-.05-.774-.247-.887-.467.387-.751.367.47-.508.541-1a.608.608,0,0,0-.7-.7c-.354.05-.2-.272-.605.126s-.908.95-.908.95-.86.322-.9.889.233.648.019,1.119-.449.946-.449.946-.425.4-.614.207a7.571,7.571,0,0,1-.1-2.009l.277-1.3,1.079-.753s.648-.252.958-.337a1.965,1.965,0,0,1,.723-.143c.166.037.388-.1,0-.4s-1.22.174-1.22.174c-.21.09.046.194-.533.076s.05-.307-.776-.13a7.2,7.2,0,0,0-1.467.489l-.782-.005a2.77,2.77,0,0,1-.611.087c-.223-.012-.068-.475-.068-.475m-1.265-.982c-.225.112,0,0-.461-.215s-.034-.156.448-.585a3.087,3.087,0,0,1,.351.491c.062.152-.113.2-.338.309m-1.361-5.616c.091-.774-.137-.261.384-.836l.526.588a9.184,9.184,0,0,1-.8,1.053c-.417.46-.2-.031-.114-.805m.1,2.59c-.041-.535.16-.324.617-.648l.146.319a2.711,2.711,0,0,1-.04,1.148,7.391,7.391,0,0,1-.448,1.125c-.083.032,0-.18.059-.769s-.292-.64-.333-1.175m-1.986-2.5a1.761,1.761,0,0,1-.865.123c-.295-.1-.372-.228.8-.576Zm1.22,3.722c.212.359.017.831.056,1.246s-.38.154-.38.154.065-.39.153-.763-.349-.612-.349-.612a2.3,2.3,0,0,0,.153-.763c0-.4-.056-.393.28-.721a3.64,3.64,0,0,0,.087,1.459M187.814,88.8c.625-.269.5-.432,1.172-.948l.484.292a7.7,7.7,0,0,1-.924.853c-.56.44-.723.283-1.284.3s-.073-.23.552-.5m3.014,39.962.031.017.043.029c-.023-.016-.048-.031-.074-.047m30.628,33.483.01,0a.259.259,0,0,0-.1-.006l.087,0m-2.541-8.756.011.008.012.013-.023-.02m13.146-9.905c-.388-.606-.514-.859-.18-1.267s.577-.473.253-.907a3.668,3.668,0,0,0-.908-1.064,3.668,3.668,0,0,1,.908,1.064c.324.434.08.5-.253.907s-.208.661.18,1.267.472.985.934,1.219a1.612,1.612,0,0,0,.823.212,1.608,1.608,0,0,1-.824-.212c-.461-.235-.545-.614-.933-1.219m5.8-.546a1.488,1.488,0,0,0,.21-.029,1.385,1.385,0,0,1-.24.033c-.077,0-.14.01-.192.017.058-.009.13-.016.222-.022m-1.608.405.076.132c.454.017,1.07.265,1.333.232-.253.041-.88-.228-1.342-.246l-.068-.118h0m6.576,33.773.032-.023.032-.021-.064.044m-2.867-34.248a3.408,3.408,0,0,0-.838-.384.339.339,0,0,0-.1,0,.137.137,0,0,1,.1,0,2.941,2.941,0,0,1,.833.382v0s.215-.023.461-.056c-.339.051-.457.055-.457.055m1.093-.153.092-.016a.828.828,0,0,1,.3-.016c-.072.077-.128.009-.395.032" transform="translate(-68.095 -31.402)" fill="#537e39"/>
            <path id="Trazado_104073" data-name="Trazado 104073" d="M294.928,187.161a3.076,3.076,0,0,0-2.563-2.993c-1-.138-2.073.225-2.994-.182-.877-.388-1.416-1.4-2.353-1.6-.759-.164-1.584.261-2.308-.018-.558-.215-.886-.784-1.346-1.166a2.412,2.412,0,0,0-3.415.519c-.216.332-.524.79-.882.62-.2-.1-.263-.349-.366-.549a1.153,1.153,0,0,0-1.923-.041c-1.381-1.232-1.313-3.387-2.1-5.062a5.161,5.161,0,0,0-7.543-2.1,3.213,3.213,0,0,1-1.482.749c-1.453.087-2.376-2.3-3.754-1.828-.325.111-.591.378-.931.424-.591.081-1.027-.5-1.406-.963a5.66,5.66,0,0,0-5.981-1.735,5.68,5.68,0,0,1-1.455.409,5.623,5.623,0,0,1-2.011-.545,1.924,1.924,0,0,0-1.977.209c-.158.161-.276.375-.482.466-.552.246-1-.54-1.569-.735-.856-.292-1.533.825-1.549,1.729s.206,1.931-.379,2.623a4.163,4.163,0,0,0-.5.561,1.576,1.576,0,0,0-.053,1.111,12.226,12.226,0,0,0,4.29,6.932,23.507,23.507,0,0,0,3.628,2.245q2.154,1.154,4.317,2.291a26.776,26.776,0,0,0,15.531,4.321l6.455.176c1.932.053,3.864.105,5.8.1a11.886,11.886,0,0,0,4.319-.59c2.342-.922,4.2-3.239,6.712-3.251" transform="translate(-97.601 -68.505)" fill="#537e39"/>
            <path id="Trazado_104074" data-name="Trazado 104074" d="M216.623,100.788c1,.1,1.866-.636,2.75-1.12s2.236-.6,2.682.305a1.466,1.466,0,0,0,.218.4c.232.235.624.14.937.031a2.717,2.717,0,0,1,2.477-.007,1.373,1.373,0,0,1,.2,1.95,1.284,1.284,0,0,1-1.919-.129,6.72,6.72,0,0,1-1.167,2.742,2.3,2.3,0,0,1-2.682.74c-.224-1.043,1.63-1.6,1.5-2.663-.1-.772-1.251-.95-1.864-.472a4.538,4.538,0,0,0-1.134,2.006c-.295.721-.8,1.479-1.574,1.568a3.47,3.47,0,0,0-.98.076c-.6.253-.587,1.1-.405,1.728s.409,1.374-.022,1.861c-.482.544-1.362.3-2.075.438a1.9,1.9,0,0,0-1.476,1.985,1.9,1.9,0,0,1,.02.946c-.237.548-1.062.5-1.494.909-.656.624-.09,1.922-.765,2.525a2.045,2.045,0,0,1-.872.354,5.045,5.045,0,0,0-3.622,4.782,13.973,13.973,0,0,1,.11,2.806c-.179.922-1.11,1.812-1.982,1.464-.786-.315-.941-1.325-1.195-2.134s-1.161-1.654-1.833-1.139c-.215.164-.342.44-.59.549-.528.231-.982-.439-1.174-.982l-.927,1.2c-.571-.168-.773-1.063-1.368-1.064-.742,0-.633,1.133-.834,1.847a2.2,2.2,0,0,1-2.347,1.259c-.959-.059-1.891-.422-2.852-.4s-2.035.659-2.039,1.62c0,.437.216.9.035,1.293-.227.5-.947.6-1.207,1.077-.213.4-.033.88-.054,1.329-.058,1.252-1.666,2.252-1.234,3.428a2.246,2.246,0,0,0,.771.9l2.061,1.671c.523.424,1.53.7,1.67.046.056-.264-.1-.555.01-.8.261-.564,1.079.1,1.7.1.7,0,1.011-.911.944-1.611s-.282-1.479.125-2.054c.993-1.4,3.773.561,4.788-.828.614.3.389,1.262-.1,1.734s-1.182.813-1.386,1.463c-.229.73.268,1.475.376,2.233a2.287,2.287,0,0,1-1.524,2.421c.635.852,1.938.811,2.935.443a9.5,9.5,0,0,1,3.007-.993,1.345,1.345,0,0,1,.821.212,1.332,1.332,0,0,1,.463.868c.2,1.164-.383,2.378-.092,3.524.383,1.505,2.207,2.678,1.762,4.167a2.87,2.87,0,0,1-3.037-.283,14.051,14.051,0,0,0-2.739-1.691,6.077,6.077,0,0,1-1.683-.585c-.748-.533-.907-1.565-1.4-2.338a3.035,3.035,0,0,0-3.8-1.026,2.188,2.188,0,0,1-.953.371,2.609,2.609,0,0,1-.943-.346c-1.249-.526-2.624.279-3.966.465a4.492,4.492,0,0,1-4.831-3.371,3.434,3.434,0,0,0-.395-1.3c-.261-.369-.716-.58-.929-.979a2.007,2.007,0,0,1-.13-1.086q.247-3.76.495-7.519a9.961,9.961,0,0,1,.645-3.458c.926-2.064,3.116-3.239,5.241-4.014s4.4-1.34,6.151-2.776c1.418-1.165,2.52-2.913,4.314-3.307,1.261-.277,2.557.2,3.849.224s2.833-.789,2.735-2.077a6.182,6.182,0,0,0-.6-1.6,2.923,2.923,0,0,1,.385-2.7,7.937,7.937,0,0,0,4.849-2.932,2.827,2.827,0,0,1,.665-.71c1.248-.791,2.958,1.043,4.258.34a3.009,3.009,0,0,0,.891-.959,7.458,7.458,0,0,1,4.169-2.808" transform="translate(-71.889 -39.797)" fill="#537e39"/>
            <path id="Trazado_104075" data-name="Trazado 104075" d="M335.872,111.709c.042,1.315,1.133,2.668.488,3.814a8.392,8.392,0,0,0-.542.817,1.8,1.8,0,0,0,.821,1.944,6.808,6.808,0,0,1,1.738,1.441.562.562,0,1,0,.1,1.06l-1.58.856a4.15,4.15,0,0,0,1.792.134,4.22,4.22,0,0,1-.1,1.621c-.061.543.1,1.212.627,1.37a10.556,10.556,0,0,0-1.783.776,1.591,1.591,0,0,0-.621.509c-.395.64.186,1.454.828,1.846s1.432.671,1.763,1.346c.481.984-.306,2.209.075,3.236.418,1.126,2.011,1.452,2.437,2.574.345.909-.232,1.923-.092,2.885.23,1.584,2.108,2.214,3.4,3.158a11.109,11.109,0,0,1,1.3,1.182l2.842,2.87a2.668,2.668,0,0,0,.854.654,1.793,1.793,0,0,0,1.723-.352,5.026,5.026,0,0,0,1.125-1.445,5.89,5.89,0,0,0,.817-1.856,2.121,2.121,0,0,0-.48-1.9c-1-.993-2.756-.283-4.069-.8-1.335-.529-1.838-2.147-1.988-3.576s-.156-2.989-1.058-4.108a30.163,30.163,0,0,0,.988,4.257,3.638,3.638,0,0,0,3.258,2.491.654.654,0,0,0,.375-.112.724.724,0,0,0,.207-.383A7.666,7.666,0,0,0,349,130.429c-1.093-1.009-2.468-1.677-3.546-2.7-1.939-1.849-2.666-4.588-3.635-7.085s-2.536-5.108-5.128-5.788" transform="translate(-134.557 -44.771)" fill="#537e39"/>
            <path id="Trazado_104076" data-name="Trazado 104076" d="M341.891,128.3a4.319,4.319,0,0,1-2.565-1.248,7.394,7.394,0,0,1-1.442-2.873,1.434,1.434,0,0,1,.319-1.795,2.279,2.279,0,0,1,1.544-1,1.891,1.891,0,0,1,1.078.431A5.784,5.784,0,0,1,343,124.953a2.3,2.3,0,0,1,.1.814,1.619,1.619,0,0,1-1.079,1.324,2.014,2.014,0,0,1-1.725-.24" transform="translate(-135.35 -48.647)" fill="#537e39"/>
            <path id="Trazado_104077" data-name="Trazado 104077" d="M302.383,201.932,300.2,206.19a2.024,2.024,0,0,0-.322,1.171c.16,1.113,2,1.478,1.95,2.6l-3.11.5a.907.907,0,0,0-.558.228.828.828,0,0,0-.077.757c.389,1.5,1.611,2.838,1.385,4.37-.367,2.489-4.167,3.277-4.558,5.762a3.535,3.535,0,0,1-.285,1.436c-.672,1.027-2.328.177-3.483.594a3.226,3.226,0,0,0-1.583,2.016l-1.53,3.731a5.173,5.173,0,0,1-.549,1.088,6.477,6.477,0,0,1-1.233,1.149,13.289,13.289,0,0,0-2.852,3.234,6.072,6.072,0,0,1-.211-2.479c-1.191.542-.454,2.471-1.145,3.583a2.708,2.708,0,0,1-1.246.93,13.319,13.319,0,0,1-4.778,1.166,2.051,2.051,0,0,1-.026,3.045,3.556,3.556,0,0,1-3.292.582,1.742,1.742,0,0,0-1.066-.086c-.909.36-.348,1.721-.455,2.693-.182,1.644-2.493,2.164-3.146,3.683-.239.556-.228,1.2-.469,1.75s-.94,1.01-1.44.669a1.243,1.243,0,0,1-.424-.733c-.519-1.916.005-3.942.529-5.856l1.916-7.011,1.834-6.714a15.235,15.235,0,0,1,6.654-10.173l4.269-3.514a10.139,10.139,0,0,1,2.7-1.775,8.77,8.77,0,0,1,3.289-.431c4.347.06,8.915.958,12.9-.79" transform="translate(-106.403 -80.931)" fill="#537e39"/>
            <g id="Grupo_60926" data-name="Grupo 60926" transform="translate(90.986 44.963)" opacity="0.21" style="mix-blend-mode: overlay;isolation: isolate">
              <g id="Grupo_60925" data-name="Grupo 60925">
                <g id="Grupo_60924" data-name="Grupo 60924" clip-path="url(#clip-path-3)">
                  <path id="Trazado_104078" data-name="Trazado 104078" d="M164.123,169.223A65.943,65.943,0,0,1,246.641,81.7a65.943,65.943,0,1,0-50.42,121.614,65.7,65.7,0,0,1-32.1-34.086" transform="translate(-151.841 -75.037)" fill="#fff"/>
                </g>
              </g>
            </g>
            <g id="Grupo_60929" data-name="Grupo 60929" transform="translate(128.57 57.178)" opacity="0.6" style="mix-blend-mode: multiply;isolation: isolate">
              <g id="Grupo_60928" data-name="Grupo 60928">
                <g id="Grupo_60927" data-name="Grupo 60927" clip-path="url(#clip-path-4)">
                  <path id="Trazado_104079" data-name="Trazado 104079" d="M303.879,123.954a65.945,65.945,0,0,1-89.316,84.738c77.054-6.4,85.329-93.381,66.59-113.27a65.561,65.561,0,0,1,22.727,28.533" transform="translate(-214.563 -95.421)" fill="#c7dee0"/>
                </g>
              </g>
            </g>
            <g id="Grupo_60932" data-name="Grupo 60932" transform="translate(104.724 106.19)" opacity="0.6" style="mix-blend-mode: multiply;isolation: isolate">
              <g id="Grupo_60931" data-name="Grupo 60931">
                <g id="Grupo_60930" data-name="Grupo 60930" clip-path="url(#clip-path-5)">
                  <path id="Trazado_104080" data-name="Trazado 104080" d="M292.784,177.214a65.979,65.979,0,0,1-118.016,45.032c26.992,7.007,80.728,11.728,118.016-45.032" transform="translate(-174.768 -177.214)" fill="#c7dee0"/>
                </g>
              </g>
            </g>
            <path id="Trazado_104081" data-name="Trazado 104081" d="M182.3,105.151s-5.516-13.844-1.746-22.991c.192-13.419,9.286-12.886,11.666-19.941,0,0,5.847,18.37-9.286,21.039,0,0-5.464,5.09.663,21.794Z" transform="translate(-71.837 -24.936)" fill="#a8bc8b"/>
            <path id="Trazado_104082" data-name="Trazado 104082" d="M166.179,97.094s-.346-15.628-19.6-13.222c5.363,4.573,4.842,13.514,17.679,9.506a41.187,41.187,0,0,1,2.228,9.629Z" transform="translate(-58.745 -33.514)" fill="#537e39"/>
            <path id="Trazado_104083" data-name="Trazado 104083" d="M352.267,227.728s7.871-9.352,11.545-11.812c6.324-15.757,21.575-7.654,28.957-9.16a28.249,28.249,0,0,1-26.875,10.579s-7.088,4.365-15.355,15.258Z" transform="translate(-140.49 -82.555)" fill="#a8bc8b"/>
            <path id="Trazado_104084" data-name="Trazado 104084" d="M331.18,239.344s13.927-11.381,14.5-25.066c0,0-8.259-5.9-7.962-21.574,0,0,16.3,7.962,11.423,22.829,0,0-6.052,15.477-17.8,25.359Z" transform="translate(-132.731 -77.233)" fill="#537e39"/>
            <path id="Trazado_104085" data-name="Trazado 104085" d="M565.295,362.4s1.885,5.413.454,8.722c0,0-9.427,1.591-16.612.006,0,0-.411-4.9,7.292-5.532l-.618-3.491Z" transform="translate(-220.083 -145.125)" fill="#f1a67e"/>
            <path id="Trazado_104086" data-name="Trazado 104086" d="M537.421,287.4l13.147,38.887s9.066,1.547,11.023-1.491c0,0-2.406-16.259-7.046-22.813,0,0-.552-25.162-3.314-34.763Z" transform="translate(-215.389 -107.097)" fill="#99ac7f"/>
            <path id="Trazado_104087" data-name="Trazado 104087" d="M496.593,362.789s.352,4.417-.589,6.632c0,0-9.485,1.2-16.6-.687,0,0-.206-4.915,7.517-5.223l1.036-3.4Z" transform="translate(-192.138 -144.325)" fill="#f1a67e"/>
            <path id="Trazado_104088" data-name="Trazado 104088" d="M534.269,268.45s.11,12.042-20.438,27.177l-11.6,32.59s-6.3-.11-10.164-3.093c0,0,7.07-30.933,9.611-35.463s9.5-19.664,9.5-19.664Z" transform="translate(-197.212 -107.59)" fill="#a8bc8b"/>
            <path id="Trazado_104089" data-name="Trazado 104089" d="M504.591,257.99l-.445-1.865a4.724,4.724,0,0,0-5.2-3.589c-1.784.23-7.639,1.188-7.587,1.306.074.168.857,2.381.857,2.381L499.036,255a2.455,2.455,0,0,1,2.779,1.777l.551,2.024Z" transform="translate(-196.928 -101.196)" fill="#758989"/>
            <path id="Trazado_104090" data-name="Trazado 104090" d="M417.97,314.023l13.31,6.191a6.771,6.771,0,0,0,8.768-2.828l25.325-45.14.914-1.635-34.619-17.72-16.717,51.155-.566,1.732a6.775,6.775,0,0,0,3.584,8.246" transform="translate(-165.944 -101.354)" fill="#899d7b"/>
            <g id="Grupo_60935" data-name="Grupo 60935" transform="translate(248.106 170.891)" opacity="0.35" style="mix-blend-mode: multiply;isolation: isolate">
              <g id="Grupo_60934" data-name="Grupo 60934">
                <g id="Grupo_60933" data-name="Grupo 60933" clip-path="url(#clip-path-6)">
                  <path id="Trazado_104091" data-name="Trazado 104091" d="M417.97,326.968l13.31,6.191a6.771,6.771,0,0,0,8.768-2.828l25.325-45.14-21.8,21.923a34.4,34.4,0,0,1-28.622,9.876l-.566,1.732a6.775,6.775,0,0,0,3.584,8.246" transform="translate(-414.05 -285.19)" fill="#537e39"/>
                </g>
              </g>
            </g>
            <path id="Trazado_104092" data-name="Trazado 104092" d="M418.706,359.98a6.145,6.145,0,1,0,6.145-6.145,6.145,6.145,0,0,0-6.145,6.145" transform="translate(-167.81 -141.811)" fill="#697777"/>
            <path id="Trazado_104093" data-name="Trazado 104093" d="M424.527,362.313a2.657,2.657,0,1,0,2.657-2.657,2.657,2.657,0,0,0-2.657,2.657" transform="translate(-170.143 -144.144)" fill="#b1c8c9"/>
            <path id="Trazado_104094" data-name="Trazado 104094" d="M479.507,263.26a6.139,6.139,0,0,1-.222,1.629l-.2.738-9.981-4.985L439.711,245.96l.715-.949a3.8,3.8,0,0,1,4.366-1.26l2.249-1.766a7.171,7.171,0,0,1,7.319-.926l19.759,8.665a6.905,6.905,0,0,1,2.447,1.669,6.987,6.987,0,0,1,1.919,4.815v3.673a6.068,6.068,0,0,1,1.022,3.378" transform="translate(-176.229 -96.369)" fill="#c7dee0"/>
            <g id="Grupo_60938" data-name="Grupo 60938" transform="translate(274.009 149.982)" opacity="0.35" style="mix-blend-mode: multiply;isolation: isolate">
              <g id="Grupo_60937" data-name="Grupo 60937">
                <g id="Grupo_60936" data-name="Grupo 60936" clip-path="url(#clip-path-7)">
                  <path id="Trazado_104095" data-name="Trazado 104095" d="M486.547,267.206a6.139,6.139,0,0,1-.222,1.629l-.2.738-9.981-4.985a5.514,5.514,0,0,0,.13-3.413c-.795-1.613-16.818-9.771-18.992-10.879,1.9.931,14.263,6.95,20.423,8.892,4.741,1.5,5.729-1.811,5.905-3.85a6.987,6.987,0,0,1,1.919,4.815v3.673a6.067,6.067,0,0,1,1.022,3.378" transform="translate(-457.278 -250.297)" fill="#b1c8c9"/>
                </g>
              </g>
            </g>
            <path id="Trazado_104096" data-name="Trazado 104096" d="M478.885,269.31l-.464.7a2.127,2.127,0,0,1-2.743.716l-35.3-18.109a2.128,2.128,0,0,1-.863-2.971Z" transform="translate(-176.031 -100.054)" fill="#93a3a2"/>
            <path id="Trazado_104097" data-name="Trazado 104097" d="M448.218,308.438a1.457,1.457,0,0,1-.267-1.119,3.129,3.129,0,0,1,1.279-1.04l2.53,1.328-1.083,2.061Z" transform="translate(-179.514 -122.752)" fill="#e8e8e8"/>
            <path id="Trazado_104098" data-name="Trazado 104098" d="M447.012,300.644a1.341,1.341,0,0,1,.618-.82,9.151,9.151,0,0,0,1.055-.6l.182-.122-.248-.721,2,1.17.028,2.034-.191-.306-.215.076a9.166,9.166,0,0,0-3.109,1.795c-.046-.991-.1-2.253-.117-2.5" transform="translate(-179.155 -119.586)" fill="#e8e8e8"/>
            <path id="Trazado_104099" data-name="Trazado 104099" d="M463.427,308.034a4.341,4.341,0,0,1-1.376-.345l-.608-2.789,2.275-.5.638,2.674c-.081.264-.316.8-.685.925a.786.786,0,0,1-.244.032" transform="translate(-184.939 -122)" fill="#e8e8e8"/>
            <path id="Trazado_104100" data-name="Trazado 104100" d="M456.032,310.591l1.539-1.327-.113.343.2.116a9.517,9.517,0,0,0,3.373,1.227l-1.841,1.7a1.658,1.658,0,0,1-.624.138.917.917,0,0,1-.4-.085,8.848,8.848,0,0,0-1.141-.421l-.211-.062-.39.653Z" transform="translate(-182.77 -123.948)" fill="#e8e8e8"/>
            <path id="Trazado_104101" data-name="Trazado 104101" d="M453.513,295.485l2.268-1.551c.035,0,.084,0,.141,0a1.355,1.355,0,0,1,.969.313,3.151,3.151,0,0,1,.288,1.623l-2.389,1.568Z" transform="translate(-181.761 -117.802)" fill="#e8e8e8"/>
            <path id="Trazado_104102" data-name="Trazado 104102" d="M460.423,298.426l.361-.018.038-.225a9.158,9.158,0,0,0-.059-3.589l2.246,1.114a1.338,1.338,0,0,1,.417.938,8.578,8.578,0,0,0,.014,1.217l.017.218.75.132-1.992,1.178Z" transform="translate(-184.53 -118.069)" fill="#e8e8e8"/>
            <path id="Trazado_104103" data-name="Trazado 104103" d="M509.161,237.937l-.221,1.683a27.242,27.242,0,0,0-3.418,3.786,12.219,12.219,0,0,1-4.3,3.537l4.3,1.986a20.609,20.609,0,0,0,6.489-2.762c2.878-1.989,5.159-7.623,5.159-7.623Z" transform="translate(-200.884 -95.361)" fill="#f49987"/>
            <path id="Trazado_104104" data-name="Trazado 104104" d="M518.755,229.541s-4.713-.829-5.762-2.983c0,0,1.989-16.848,7.236-16.737s-1.474,19.72-1.474,19.72" transform="translate(-205.599 -84.093)" fill="#b7cecd"/>
          </g>
        </g>
        <g id="Grupo_60942" data-name="Grupo 60942" transform="translate(311.129 121.54)">
          <g id="Grupo_60941" data-name="Grupo 60941" clip-path="url(#clip-path-8)">
            <rect id="Rectángulo_5260" data-name="Rectángulo 5260" width="37.745" height="54.194" transform="translate(-11.736 2.824) rotate(-13.861)" fill="url(#linear-gradient)"/>
          </g>
        </g>
        <g id="Grupo_60947" data-name="Grupo 60947">
          <g id="Grupo_60946" data-name="Grupo 60946" clip-path="url(#clip-path)">
            <g id="Grupo_60945" data-name="Grupo 60945" transform="translate(312.494 129.706)" opacity="0.35" style="mix-blend-mode: multiply;isolation: isolate">
              <g id="Grupo_60944" data-name="Grupo 60944">
                <g id="Grupo_60943" data-name="Grupo 60943" clip-path="url(#clip-path-10)">
                  <path id="Trazado_104106" data-name="Trazado 104106" d="M521.78,250.631s.053.031.15.084c4.534-.866,13.611-3.2,18.06-8.626,6.076-7.4.5-21.821.5-21.821l-9.633-3.809-.778,5.24c-.692,4.66-8.574,11.888-8.574,11.888l.294,3.641.219,1.6s.084,8.539-.238,11.8" transform="translate(-521.505 -216.459)" fill="#c7dee0"/>
                </g>
              </g>
            </g>
            <path id="Trazado_104107" data-name="Trazado 104107" d="M524.409,241.173l-12.666,8.249s-5.156,1.179-5.966,3.241,0,2.578,0,2.578l1.563-.916s2.156,1.321,3.666.916,2.983-2.541,2.983-2.541,18.007-3.573,19.848-8.728-9.429-2.8-9.429-2.8" transform="translate(-202.563 -96.443)" fill="#feb19e"/>
          </g>
        </g>
        <g id="Grupo_60949" data-name="Grupo 60949" transform="translate(321.329 126.127)">
          <g id="Grupo_60948" data-name="Grupo 60948" clip-path="url(#clip-path-11)">
            <rect id="Rectángulo_5263" data-name="Rectángulo 5263" width="18.288" height="24.497" transform="translate(-5.585 1.257) rotate(-13.861)" fill="url(#linear-gradient-2)"/>
          </g>
        </g>
        <g id="Grupo_60951" data-name="Grupo 60951">
          <g id="Grupo_60950" data-name="Grupo 60950" clip-path="url(#clip-path)">
            <path id="Trazado_104109" data-name="Trazado 104109" d="M502.095,263.479l-1.923.993-6.721.8a1.27,1.27,0,0,0,.286,2.524l6.165-.664a6.5,6.5,0,0,0,2.887-1.039l2.192-1.447Z" transform="translate(-197.318 -105.598)" fill="#758989"/>
            <path id="Trazado_104110" data-name="Trazado 104110" d="M522.331,187.5s2.331-8.181.453-10.647-3.426-2.136-3.426-2.136-.06-3.6-3.35-3.867c-3.13-.258-8.359,2.982-8.764,1.068,0,0-1.51,1.731-.479,3.388,0,0-2.5-.074-3.02-1.1,0,0-.92,5.192,3.13,5.45,0,0-.884,4.051,3.83,5.45a101.731,101.731,0,0,0,11.625,2.4" transform="translate(-201.857 -68.468)" fill="#332012"/>
            <path id="Trazado_104111" data-name="Trazado 104111" d="M522.682,198.425a25.794,25.794,0,0,1,.813,5.67,8.743,8.743,0,0,0,7.8-5.228l-3.257-7.159-.017-.035s-6.151,3.508-5.343,6.752" transform="translate(-209.453 -76.819)" fill="#feb19e"/>
            <path id="Trazado_104112" data-name="Trazado 104112" d="M522.682,198.425a25.794,25.794,0,0,1,.813,5.67s6.2-3.363,4.6-12.1c-.017-.1-.035-.19-.057-.283l-.017-.035s-6.151,3.508-5.343,6.752" transform="translate(-209.453 -76.819)" fill="#ff856a"/>
            <path id="Trazado_104113" data-name="Trazado 104113" d="M511.7,186.292s2.32,9.833,5.3,10.882,5.579-2.154,6.463-4.308a7.446,7.446,0,0,0,.184-4.466s1.584-2.072-.184-2.825c-1.878-.8-1.878,1.933-1.878,1.933a3.417,3.417,0,0,1-2.679-4,5.9,5.9,0,0,1-7.209,2.789" transform="translate(-205.082 -73.545)" fill="#feb19e"/>
            <path id="Trazado_104114" data-name="Trazado 104114" d="M504.554,252.225s-3.239-.633-2.3,2.005a1.49,1.49,0,0,1-1.8,0s-.109.561-1.272.293c0,0-.943.8-1.384-.825s.765-3.3,1.553-3.181,1.717-.674,3.148-.331a2.4,2.4,0,0,1,2.051,2.04" transform="translate(-199.473 -100.235)" fill="#feb19e"/>
            <path id="Trazado_104115" data-name="Trazado 104115" d="M317.239,359.791h-6.8c-3.335,0-10.239-3.584-5.4-12.436l13.81-8.557,5.193,8.2Z" transform="translate(-121.585 -135.784)" fill="#456c3a"/>
            <path id="Trazado_104116" data-name="Trazado 104116" d="M318.217,354.269s-.148-4.474,8.468-12.56l18.059-2.42,4.92,2.988A7.593,7.593,0,0,1,342.8,350.5c-7.554,1.121-24.579,3.766-24.579,3.766" transform="translate(-127.536 -135.982)" fill="#537e39"/>
            <path id="Trazado_104117" data-name="Trazado 104117" d="M351.211,357.712v8.734s-24.89,3.328-30.8-1.417c-5-4.013-1.775-9.944,10.619-9.811s20.183,2.493,20.183,2.493" transform="translate(-127.511 -142.365)" fill="#537e39"/>
          </g>
        </g>
        <g id="Grupo_60953" data-name="Grupo 60953" transform="translate(225.373 216.112)">
          <g id="Grupo_60952" data-name="Grupo 60952" clip-path="url(#clip-path-13)">
            <rect id="Rectángulo_5265" data-name="Rectángulo 5265" width="13.101" height="7.988" transform="translate(0)" fill="url(#linear-gradient-3)"/>
          </g>
        </g>
        <g id="Grupo_60955" data-name="Grupo 60955">
          <g id="Grupo_60954" data-name="Grupo 60954" clip-path="url(#clip-path)">
            <path id="Trazado_104119" data-name="Trazado 104119" d="M393.843,366.111c-.369,2.233-2.6,2.535-4.9,2.337l1.28-1a6.714,6.714,0,0,1,0-5.939l-1.115-.845a11.205,11.205,0,0,1,1.78.08c2.559.354,3.465,2.257,2.951,5.368" transform="translate(-155.884 -144.546)" fill="#f9ded7"/>
            <rect id="Rectángulo_5266" data-name="Rectángulo 5266" width="1.674" height="6.078" transform="translate(223.699 216.793)" fill="#feb19e"/>
            <path id="Trazado_104120" data-name="Trazado 104120" d="M280.509,343.361l-.943,1.219s-4.014,3.59-5,5.887,5.626-.34,5.626-.34,2.591-1.4,2.714-2.744l1.377-1.562Z" transform="translate(-110.003 -137.613)" fill="#f49987"/>
          </g>
        </g>
        <g id="Grupo_60957" data-name="Grupo 60957" transform="translate(170.192 173.651)">
          <g id="Grupo_60956" data-name="Grupo 60956" clip-path="url(#clip-path-15)">
            <rect id="Rectángulo_5268" data-name="Rectángulo 5268" width="41.32" height="40.694" transform="translate(-17.618 18.9) rotate(-47.01)" fill="url(#linear-gradient-4)"/>
          </g>
        </g>
        <g id="Grupo_60959" data-name="Grupo 60959">
          <g id="Grupo_60958" data-name="Grupo 60958" clip-path="url(#clip-path)">
            <path id="Trazado_104122" data-name="Trazado 104122" d="M268.638,313.543a4.142,4.142,0,0,0-.857-4.266c-1.829-2.024-5.858-2.472-5.858-2.472s2.186,5.968,6.715,6.739" transform="translate(-104.974 -122.962)" fill="#16b596"/>
            <path id="Trazado_104123" data-name="Trazado 104123" d="M279.725,321.28s-.859-3.4,1.974-5.135a42.662,42.662,0,0,0,3.619-2.361s.733,6.493-5.594,7.5" transform="translate(-112.06 -125.759)" fill="#16b596"/>
            <path id="Trazado_104124" data-name="Trazado 104124" d="M270.051,346.435a2.831,2.831,0,0,0-2.439-2.882c-2.6-.551-4.485.276-5.39-.354,0,0,2.754,5.881,7.829,3.236" transform="translate(-105.094 -137.549)" fill="#16b596"/>
            <path id="Trazado_104125" data-name="Trazado 104125" d="M278.678,315.262a.355.355,0,0,0-.5-.053c-2.738,2.2-4,5.66-4.573,8.172-.048-.457-.1-.9-.162-1.336-1.113-7.926-5.07-10.894-5.238-11.017a.354.354,0,1,0-.418.572c.039.029,3.882,2.912,4.954,10.544a76.482,76.482,0,0,1,.453,11.485,9.419,9.419,0,0,0-2.809-1.772.354.354,0,1,0-.262.659c.7.277,2.517,1.191,3.04,2.24-.129,4.282-.419,7.625-.425,7.689a.355.355,0,0,0,.322.384h.032a.355.355,0,0,0,.352-.323c.005-.064.284-3.282.418-7.458a.346.346,0,0,0,.056-.318c-.011-.035-.03-.069-.044-.1.074-2.535.091-5.385-.038-8.085v0c0-.072.412-7.26,4.783-10.779a.354.354,0,0,0,.053-.5" transform="translate(-107.268 -124.627)" fill="#07514c"/>
            <path id="Trazado_104126" data-name="Trazado 104126" d="M284.09,366.652H251.434S250.961,363,253.482,363c0,0,.236-2.361,1.728-1.889,0,0,.708-5.193,4.8-4.41,0,0,1.416-3.281,4.013-1.756a8.328,8.328,0,0,1,4.117-1.879c2.375-.312,5.42.6,8.158,5.449,0,0,2.044-1.049,2.2,1.954,0,0,2.125-.382,2.833,2.607,0,0,3.4.854,2.753,3.574" transform="translate(-100.756 -141.482)" fill="#332012"/>
            <path id="Trazado_104127" data-name="Trazado 104127" d="M269.633,363.679c-1.053,3.158-9.9-1.426-13.031,2.965h-5.169s-.472-3.649,2.049-3.649c0,0,.236-2.361,1.728-1.889,0,0,.708-5.193,4.8-4.41,0,0,1.416-3.281,4.013-1.756a8.328,8.328,0,0,1,4.117-1.879c.439.482,3.215,3.909-3.408,6.657,0,0,6.019.6,4.9,3.961" transform="translate(-100.756 -141.501)" fill="#4c321c"/>
            <path id="Trazado_104128" data-name="Trazado 104128" d="M265.412,367.023c0,.2-.375.354-.838.354s-.838-.159-.838-.354.375-.354.838-.354.838.159.838.354" transform="translate(-105.701 -146.955)" fill="#332012"/>
            <path id="Trazado_104129" data-name="Trazado 104129" d="M276.327,368.94c0,.348-.687.63-1.535.63s-1.534-.282-1.534-.63.687-.63,1.534-.63,1.535.282,1.535.63" transform="translate(-109.517 -147.613)" fill="#332012"/>
            <path id="Trazado_104130" data-name="Trazado 104130" d="M271.1,361.212c0,.25-.5.452-1.121.452s-1.121-.2-1.121-.452.5-.452,1.121-.452,1.121.2,1.121.452" transform="translate(-107.754 -144.587)" fill="#332012"/>
            <path id="Trazado_104131" data-name="Trazado 104131" d="M294.316,368.94c0,.348-.819.63-1.829.63s-1.829-.282-1.829-.63.819-.63,1.829-.63,1.829.282,1.829.63" transform="translate(-116.491 -147.613)" fill="#4c321c"/>
          </g>
        </g>
        <g id="Grupo_60961" data-name="Grupo 60961" transform="translate(188.851 169.252)">
          <g id="Grupo_60960" data-name="Grupo 60960" clip-path="url(#clip-path-17)">
            <rect id="Rectángulo_5270" data-name="Rectángulo 5270" width="34.093" height="41.645" transform="translate(-0.819 0.007) rotate(-0.734)" fill="url(#linear-gradient-5)"/>
          </g>
        </g>
        <g id="Grupo_60969" data-name="Grupo 60969">
          <g id="Grupo_60968" data-name="Grupo 60968" clip-path="url(#clip-path)">
            <g id="Grupo_60964" data-name="Grupo 60964" transform="translate(194.206 179.23)" opacity="0.35" style="mix-blend-mode: multiply;isolation: isolate">
              <g id="Grupo_60963" data-name="Grupo 60963">
                <g id="Grupo_60962" data-name="Grupo 60962" clip-path="url(#clip-path-19)">
                  <path id="Trazado_104133" data-name="Trazado 104133" d="M346.3,325.135a26.512,26.512,0,0,0-9.263,1.747c-9.475,3.465-12.242-1.652-12.242-1.652s1.969-2.281,0-8.263a13.2,13.2,0,0,0-.694-1.719l10.7-16.142s6.345,2.715,0,19.357c-4.953,12.988,1.87,5.486,11.5,6.671" transform="translate(-324.1 -299.107)" fill="#d64136"/>
                </g>
              </g>
            </g>
            <g id="Grupo_60967" data-name="Grupo 60967" transform="translate(188.851 175.675)" opacity="0.35" style="mix-blend-mode: multiply;isolation: isolate">
              <g id="Grupo_60966" data-name="Grupo 60966">
                <g id="Grupo_60965" data-name="Grupo 60965" clip-path="url(#clip-path-20)">
                  <path id="Trazado_104134" data-name="Trazado 104134" d="M323.257,305.463l-2.314,8.375c-.137-.349-.279-.671-.425-.968-1.983-4.013-4.716-3.432-5.288-9.452a22.619,22.619,0,0,1,1.846-10.245c-.321.883-2.068,6.143-.27,10.953,1.964,5.269,6.449,1.336,6.449,1.336" transform="translate(-315.163 -293.174)" fill="#d64136"/>
                </g>
              </g>
            </g>
            <path id="Trazado_104135" data-name="Trazado 104135" d="M286.512,350.025,283.68,351.8s-3.541,1.947-6.315,2.065-1.534,2.184-1.534,2.184h5.2c2,0,4.476.826,4.948-.826l4.013-1.711Z" transform="translate(-110.438 -140.284)" fill="#feb19e"/>
          </g>
        </g>
        <g id="Grupo_60971" data-name="Grupo 60971" transform="translate(175.543 178.762)">
          <g id="Grupo_60970" data-name="Grupo 60970" clip-path="url(#clip-path-21)">
            <rect id="Rectángulo_5274" data-name="Rectángulo 5274" width="48.512" height="48.707" transform="translate(-16.341 10.894) rotate(-33.69)" fill="url(#linear-gradient-6)"/>
          </g>
        </g>
        <g id="Grupo_60976" data-name="Grupo 60976">
          <g id="Grupo_60975" data-name="Grupo 60975" clip-path="url(#clip-path)">
            <path id="Trazado_104137" data-name="Trazado 104137" d="M315.239,251.374s.81-7.141,7.588-6.2c6.515.907,6.38,8.924,3.963,13.868,0,0,1.652-1.534,2.951,0s-2.125,7.79-6.433,3.659-8.069-11.331-8.069-11.331" transform="translate(-126.343 -98.229)" fill="#28190f"/>
            <path id="Trazado_104138" data-name="Trazado 104138" d="M315.239,253.645s5.788-3.3,6.752,3.367-6.752-3.367-6.752-3.367" transform="translate(-126.343 -101.329)" fill="#f16e46"/>
            <path id="Trazado_104139" data-name="Trazado 104139" d="M307.161,269.345a6.551,6.551,0,0,1-4.371-5.6c-.236-3.694,1.653-3.659,1.653-3.659s.582-6.374,7.077-5.9,10.769,7.943,7.036,15.475-11.395-.31-11.395-.31" transform="translate(-121.345 -101.861)" fill="#332012"/>
            <path id="Trazado_104140" data-name="Trazado 104140" d="M327.927,281.252s-1.34,6.563-5.51,6.69a1.327,1.327,0,0,1-1.239-1.322,11.326,11.326,0,0,1,.033-1.507l-1.862-2.01,4.664-5.963s0,0,0,.01a11.482,11.482,0,0,0,3.909,4.1" transform="translate(-127.99 -111.073)" fill="#feb19e"/>
            <path id="Trazado_104141" data-name="Trazado 104141" d="M321.178,286.621a11.326,11.326,0,0,1,.033-1.507l-1.862-2.01,4.664-5.963s0,0,0,.01a7.772,7.772,0,0,1-2.84,9.471" transform="translate(-127.99 -111.074)" fill="#ff856a"/>
            <path id="Trazado_104142" data-name="Trazado 104142" d="M306.841,270.645s3.366,11.485,7.2,11.8c3.088.256,6.276-5.9,4.957-7.908,0,0,1.082-1.633-.059-2.852s-2.479-.158-1.259,1.967c0,0-2.479-.2-2.794-2.164,0,0-5.193,3.462-8.046-.846" transform="translate(-122.977 -108.47)" fill="#feb19e"/>
            <path id="Trazado_104143" data-name="Trazado 104143" d="M105.259,150.807s5.084-.444,6.313,1.385-8.686,2.7-8.686,2.7Z" transform="translate(-41.235 -60.422)" fill="#899d7b"/>
            <path id="Trazado_104144" data-name="Trazado 104144" d="M60.878,141.5l6.61,5.6,16.839-.874.787,7.551s-15.107,2.356-18.885,2.4-15.344-5.308-15.344-5.308Z" transform="translate(-20.394 -56.709)" fill="#899d7b"/>
            <path id="Trazado_104145" data-name="Trazado 104145" d="M71.234,270.051l-1.145,6.02s-2.986,0-3.5-3.816,1.731-5.154,1.731-5.154L71,268.674Z" transform="translate(-26.658 -107.049)" fill="#537e39"/>
            <path id="Trazado_104146" data-name="Trazado 104146" d="M66.272,182.007s9.722,18.059,11.138,23.37-.241,11.546-8.295,30.57c0,0-6.341.02-7.285-3.944s-4.839-48.461-4.839-48.461Z" transform="translate(-22.841 -72.945)" fill="#d9936e"/>
            <path id="Trazado_104147" data-name="Trazado 104147" d="M51.441,288.767s-1.417,4.957-.768,7.908a53.222,53.222,0,0,0,14.1,1.357s1.239-3.29-2.065-4.064-3.6-2.6-3.6-2.6l-.472-2.6Z" transform="translate(-20.241 -115.733)" fill="#537e39"/>
            <path id="Trazado_104148" data-name="Trazado 104148" d="M34.587,184.174s-.472,4.249,2.99,14.006,6.609,17,6.609,17V247.6s1.731,1.417,9.128,0c0,0,4.407-30.058,3.934-35.409s-3.62-28.012-3.62-28.012Z" transform="translate(-13.853 -73.814)" fill="#f1a67e"/>
            <path id="Trazado_104149" data-name="Trazado 104149" d="M69.529,100.422A2.489,2.489,0,0,0,72.5,97.894s3.895.768,3.363-4.6a5.186,5.186,0,0,1-3.142,0s1.136-.177,1.254-1.829c0,0-2.42,1.653-5.842-1.711s-9.5-4.485-11.1,1.475a5.105,5.105,0,0,0-1.475,6.256c1.74,3.934.9,5.146.9,5.146Z" transform="translate(-22.062 -34.864)" fill="#332012"/>
            <path id="Trazado_104150" data-name="Trazado 104150" d="M63.433,115.254l-3.46,3.4-.08.08s-5.958-5.075-4.778-6.256A31.2,31.2,0,0,0,58,108.517c.4-.609.657-1.029.657-1.029Z" transform="translate(-22.027 -43.079)" fill="#feb19e"/>
            <path id="Trazado_104151" data-name="Trazado 104151" d="M65.244,115.254l-3.46,3.4c-.047-.085-.095-.18-.137-.274,0,0-3.182-3.565-1.837-9.867.4-.609.657-1.029.657-1.029Z" transform="translate(-23.838 -43.079)" fill="#ff856a"/>
            <path id="Trazado_104152" data-name="Trazado 104152" d="M72.388,104.48s-4,9.661-7.554,9.679c-2.6.013-6.059-5.744-4.249-8.734,0,0-1.771-1.535-.079-2.715,1.487-1.037,2.2.276,1.417,1.967a1.892,1.892,0,0,0,2.321-1.849s4.171,2.872,7.986-.118a5.774,5.774,0,0,1-3.973,2.007,5.4,5.4,0,0,0,4.131-.236" transform="translate(-23.957 -41.017)" fill="#feb19e"/>
            <path id="Trazado_104153" data-name="Trazado 104153" d="M78.139,153.151h4.61L54,287.724h-4.61Z" transform="translate(-19.793 -61.38)" fill="#c7dee0"/>
            <path id="Trazado_104154" data-name="Trazado 104154" d="M129.194,153.151h-4.61l28.753,134.573h4.61Z" transform="translate(-49.931 -61.38)" fill="#c7dee0"/>
            <path id="Trazado_104155" data-name="Trazado 104155" d="M117.78,159.229H93.5a1.511,1.511,0,0,1-1.511-1.511v-3.057a1.511,1.511,0,0,1,1.511-1.511H117.78a1.511,1.511,0,0,1,1.511,1.511v3.057a1.511,1.511,0,0,1-1.511,1.511" transform="translate(-36.866 -61.38)" fill="#98aeaf"/>
            <path id="Trazado_104156" data-name="Trazado 104156" d="M120.093,256.892H80.317a1.888,1.888,0,1,1,0-3.777h39.776a1.888,1.888,0,1,1,0,3.777" transform="translate(-31.433 -101.444)" fill="#98aeaf"/>
            <path id="Trazado_104157" data-name="Trazado 104157" d="M81.925,255.634a.944.944,0,1,1-.944-.944.945.945,0,0,1,.944.944" transform="translate(-32.077 -102.076)" fill="#c7dee0"/>
            <path id="Trazado_104158" data-name="Trazado 104158" d="M148.207,255.634a.944.944,0,1,1-.944-.944.945.945,0,0,1,.944.944" transform="translate(-58.642 -102.076)" fill="#c7dee0"/>
            <path id="Trazado_104159" data-name="Trazado 104159" d="M57.443,156.3c-14.475,9.051-25.334,2.205-25.334,2.205a141.855,141.855,0,0,1,4.014-24.867c3.616-15.028,7.865-18.059,7.865-18.059s-.156-2.006,1.1-1.926,6.529,8.262,6.529,8.262l2.484,9.159,1.293,2.25c-.165,2.871-.141,8.033-.009,10.4A51.6,51.6,0,0,0,57.443,156.3" transform="translate(-12.869 -45.551)" fill="#a8bc8b"/>
            <g id="Grupo_60974" data-name="Grupo 60974" transform="translate(29.593 80.848)" opacity="0.17" style="mix-blend-mode: multiply;isolation: isolate">
              <g id="Grupo_60973" data-name="Grupo 60973">
                <g id="Grupo_60972" data-name="Grupo 60972" clip-path="url(#clip-path-23)">
                  <path id="Trazado_104160" data-name="Trazado 104160" d="M62.313,152.25c-14.485-3.5-12.875-17.327-12.875-17.327L61.029,139.6l1.294,1.306c-.165,2.87-.142,8.977-.01,11.342" transform="translate(-49.385 -134.923)" fill="#107a7a"/>
                </g>
              </g>
            </g>
            <path id="Trazado_104161" data-name="Trazado 104161" d="M122.221,135.02s-1.97,2.362-4.12,12.631a2.909,2.909,0,0,0,1.769,3.292c3.269,1.316,9.726,3.355,16.552,2.372a2.9,2.9,0,0,0,2.468-2.527c.391-3.308,1-10.092-.044-13.427Z" transform="translate(-47.308 -54.114)" fill="#f9b858"/>
            <path id="Trazado_104162" data-name="Trazado 104162" d="M141.643,137.05c-.089.63-3.882.617-8.474-.029s-8.24-1.681-8.152-2.311,3.882-.617,8.473.029,8.241,1.681,8.152,2.311" transform="translate(-50.105 -53.804)" fill="#f9c467"/>
            <path id="Trazado_104163" data-name="Trazado 104163" d="M141.064,136.228c-.046.329-2.85.206-6.263-.274s-6.142-1.137-6.1-1.466,2.85-.206,6.263.274,6.142,1.137,6.1,1.466" transform="translate(-51.583 -53.827)" fill="#ea9949"/>
            <path id="Trazado_104164" data-name="Trazado 104164" d="M167.7,144.436a.681.681,0,0,1-.455.422c-1.137.214-2.3-2.53-2.3-2.53l-14.229,4.6s-1.833-2.072-.54-5.945l15.257-1.71c.1-.009.2-.013.29-.013a2.339,2.339,0,0,1,2.3,2.11,6.692,6.692,0,0,1-.314,3.061" transform="translate(-60.002 -55.815)" fill="#f9b858"/>
            <path id="Trazado_104165" data-name="Trazado 104165" d="M178.337,144.436a4.982,4.982,0,0,1-1.982-5.172,2.339,2.339,0,0,1,2.3,2.11,6.691,6.691,0,0,1-.314,3.061" transform="translate(-70.636 -55.815)" fill="#ffd9a6"/>
            <path id="Trazado_104166" data-name="Trazado 104166" d="M141.507,131.581a.354.354,0,0,1-.06-.009.33.33,0,0,1-.243-.4c.01-.041.972-4.179-.878-7.05a6.607,6.607,0,0,0-8.8-1.733c-3.161,2.146-4.12,7.018-4.129,7.067a.327.327,0,0,1-.385.262.33.33,0,0,1-.262-.385c.04-.211,1.021-5.191,4.407-7.489a7.263,7.263,0,0,1,9.726,1.924c2,3.111,1.007,7.378.963,7.558a.329.329,0,0,1-.337.252" transform="translate(-50.797 -48.385)" fill="#ea9949"/>
            <path id="Trazado_104167" data-name="Trazado 104167" d="M184.9,150.432a1.512,1.512,0,0,1,.9-.066,2.292,2.292,0,0,1,.8.319,2.161,2.161,0,0,1,1,1.388,3.2,3.2,0,0,1-.813-.268,4.81,4.81,0,0,1-.665-.362,6.359,6.359,0,0,1-1.219-1.012" transform="translate(-74.105 -60.249)" fill="#fff"/>
            <path id="Trazado_104168" data-name="Trazado 104168" d="M191,148.379a2.153,2.153,0,0,1,1.028.059,2.97,2.97,0,0,1,.913.427,2.71,2.71,0,0,1,.72.723,1.874,1.874,0,0,1,.349.983,9.017,9.017,0,0,1-.842-.485c-.261-.152-.495-.318-.739-.482A7.863,7.863,0,0,1,191,148.379" transform="translate(-76.551 -59.452)" fill="#fff"/>
            <path id="Trazado_104169" data-name="Trazado 104169" d="M186.026,141.518a1.7,1.7,0,0,1,.936-.2,2.28,2.28,0,0,1,.913.229,1.914,1.914,0,0,1,1.134,1.471c-.331-.108-.571-.233-.82-.337s-.471-.216-.7-.324a10.016,10.016,0,0,1-1.458-.837" transform="translate(-74.556 -56.636)" fill="#fff"/>
            <path id="Trazado_104170" data-name="Trazado 104170" d="M200.774,154.295a3.3,3.3,0,0,1,1.086.526,4.811,4.811,0,0,1,.875.782,4.558,4.558,0,0,1,.666.97,3.182,3.182,0,0,1,.369,1.152,5.955,5.955,0,0,1-.928-.729,10.205,10.205,0,0,1-.781-.8,9.494,9.494,0,0,1-.693-.88,5.737,5.737,0,0,1-.594-1.022" transform="translate(-80.467 -61.839)" fill="#fff"/>
            <path id="Trazado_104171" data-name="Trazado 104171" d="M201.456,147.39a2.339,2.339,0,0,1,1.127.138,3.19,3.19,0,0,1,.979.554,2.866,2.866,0,0,1,.726.875,2.089,2.089,0,0,1,.281,1.11c-.328-.234-.567-.464-.829-.672l-.75-.62a16.831,16.831,0,0,1-1.533-1.385" transform="translate(-80.74 -59.063)" fill="#fff"/>
            <path id="Trazado_104172" data-name="Trazado 104172" d="M196.026,159.487a3.071,3.071,0,0,1,1.178.8,4.334,4.334,0,0,1,.816,1.164,4.272,4.272,0,0,1,.412,1.361,3.356,3.356,0,0,1-.084,1.419c-.241-.427-.4-.834-.591-1.228l-.545-1.158c-.366-.769-.766-1.5-1.186-2.358" transform="translate(-78.564 -63.92)" fill="#fff"/>
            <path id="Trazado_104173" data-name="Trazado 104173" d="M208.9,163.295a1.9,1.9,0,0,1,.947.412,2.675,2.675,0,0,1,.68.751,2.439,2.439,0,0,1,.32,1.974,6.049,6.049,0,0,1-.6-.767c-.172-.247-.33-.488-.481-.734a12.225,12.225,0,0,1-.863-1.635" transform="translate(-83.724 -65.446)" fill="#fff"/>
            <path id="Trazado_104174" data-name="Trazado 104174" d="M123.262,119.226l2.967-2.021s1.059-1.765,4.15-.777,3.665,1.6,3.254,2.609c0,0,2,1.352,1.663,2.3s-1.565,1.2-1.633,1.806a1.829,1.829,0,0,1-1.44,1.53c-.866.168-1.154.867-2.247.594a11.375,11.375,0,0,1-3.037-1.985l-2.214.632Z" transform="translate(-49.401 -46.542)" fill="#feb19e"/>
            <path id="Trazado_104175" data-name="Trazado 104175" d="M50.443,131.1c1.476,2.483,5.128,3.969,8,4.295,4.906.556,13.529,1.69,19.68-.363,8.545-2.85,18.213-9.576,18.213-9.576a8.608,8.608,0,0,0-3.076-6.548s-14.44,6.824-16.568,6.828a127.309,127.309,0,0,1-19.244-3.514c-3.588-1.164-10.56,2.9-7,8.879" transform="translate(-19.822 -47.656)" fill="#a8bc8b"/>
          </g>
        </g>
      </g>
    </g>
  </g>
</svg>
