<svg id="Grupo_60989" data-name="Grupo 60989" xmlns="http://www.w3.org/2000/svg" xmlns:xlink="http://www.w3.org/1999/xlink" width="275.173" height="264.197" viewBox="0 0 275.173 264.197">
  <defs>
    <clipPath id="clip-path">
      <rect id="Rectángulo_5336" data-name="Rectángulo 5336" width="275.173" height="264.197" fill="none"/>
    </clipPath>
    <clipPath id="clip-path-3">
      <rect id="Rectángulo_5328" data-name="Rectángulo 5328" width="3.658" height="9.455" transform="translate(145.032 27.899)" fill="none"/>
    </clipPath>
    <clipPath id="clip-path-4">
      <rect id="Rectángulo_5329" data-name="Rectángulo 5329" width="3.091" height="2.379" transform="translate(61.684 260.135)" fill="none"/>
    </clipPath>
    <clipPath id="clip-path-5">
      <rect id="Rectángulo_5330" data-name="Rectángulo 5330" width="14.237" height="1.529" transform="translate(61.713 261.264)" fill="none"/>
    </clipPath>
    <clipPath id="clip-path-6">
      <rect id="Rectángulo_5331" data-name="Rectángulo 5331" width="2.702" height="3.81" transform="translate(32.587 253.224)" fill="none"/>
    </clipPath>
    <clipPath id="clip-path-7">
      <rect id="Rectángulo_5332" data-name="Rectángulo 5332" width="11.049" height="9.209" transform="translate(32.504 254.988)" fill="none"/>
    </clipPath>
    <clipPath id="clip-path-8">
      <rect id="Rectángulo_5333" data-name="Rectángulo 5333" width="9.137" height="18.467" transform="translate(43 125.408)" fill="none"/>
    </clipPath>
    <clipPath id="clip-path-9">
      <rect id="Rectángulo_5334" data-name="Rectángulo 5334" width="40.506" height="46.32" transform="translate(45.817 118.72)" fill="none"/>
    </clipPath>
  </defs>
  <g id="Grupo_61012" data-name="Grupo 61012" clip-path="url(#clip-path)">
    <g id="Grupo_61011" data-name="Grupo 61011">
      <g id="Grupo_61010" data-name="Grupo 61010" clip-path="url(#clip-path)">
        <path id="Trazado_104221" data-name="Trazado 104221" d="M75.945,65.253S60.779,48.914,61.1,34.118c-6.973-18.827,6-22.99,5.517-34.118,0,0,18.07,22.475-1.6,34.365,0,0-4.878,10.05,12.684,30.051Z" fill="#a8bc8b"/>
        <path id="Trazado_104222" data-name="Trazado 104222" d="M62.736,43.681s-8.915-21.618-34.485-7.87C38.2,39.3,42.3,52.053,58.047,39.535a61.571,61.571,0,0,1,8.3,12.233Z" fill="#537e39"/>
        <path id="Trazado_104223" data-name="Trazado 104223" d="M211.33,184.91s16.471-14.231,24.608-31.817a25.4,25.4,0,0,0,16.145-22.6A48.987,48.987,0,0,1,263.2,102.087s-44.163,6.563-31.527,50.075c0,0,1.279,9.152-22.488,30.628Z" fill="#537e39"/>
        <path id="Trazado_104224" data-name="Trazado 104224" d="M205.308,187.921s15.361-11.835,21.887-14.406c15.128-22.286,36.029-4.571,47.978-4.41a44.816,44.816,0,0,1-45.231,7.314s-12.461,4.37-28.958,18.458Z" fill="#a8bc8b"/>
        <path id="Trazado_104225" data-name="Trazado 104225" d="M178.923,209.671s25.434-12.932,30.94-33.952c0,0-10.806-11.935-5.048-36.13,0,0,22.579,17.852,9.989,39.247,0,0-14.613,21.941-36.168,33.287Z" fill="#537e39"/>
        <path id="Trazado_104226" data-name="Trazado 104226" d="M2.818,248.172v14.722h3.4a20.679,20.679,0,0,1,0-4.668c.326-1.737,4.017-6.212,3.909-10.054Z" fill="#e3ebd7"/>
        <path id="Trazado_104227" data-name="Trazado 104227" d="M30.019,248.172v14.722h3.4a20.68,20.68,0,0,1,0-4.668c.326-1.737,4.017-6.212,3.909-10.054Z" fill="#d8e0cd"/>
        <path id="Trazado_104228" data-name="Trazado 104228" d="M56.642,248.172v14.722h-3.4a20.679,20.679,0,0,0,0-4.668c-.326-1.737-4.017-6.212-3.909-10.054Z" fill="#e3ebd7"/>
        <path id="Trazado_104229" data-name="Trazado 104229" d="M80.187,248.172v14.722h-3.4a20.68,20.68,0,0,0,0-4.668c-.326-1.737-4.017-6.212-3.909-10.054Z" fill="#d8e0cd"/>
        <rect id="Rectángulo_5323" data-name="Rectángulo 5323" width="81.464" height="73.157" transform="translate(0.506 175.491)" fill="#edf5e0"/>
        <path id="Trazado_104230" data-name="Trazado 104230" d="M60.023,175.491l.606,73.157H81.97v-73.16Z" fill="#d8e0cd"/>
        <rect id="Rectángulo_5324" data-name="Rectángulo 5324" width="52.302" height="18.615" transform="translate(4.172 180.872)" fill="#e3ebd7"/>
        <rect id="Rectángulo_5325" data-name="Rectángulo 5325" width="52.302" height="18.615" transform="translate(4.172 203.198)" fill="#e3ebd7"/>
        <rect id="Rectángulo_5326" data-name="Rectángulo 5326" width="52.302" height="18.615" transform="translate(4.172 225.525)" fill="#e3ebd7"/>
        <path id="Trazado_104231" data-name="Trazado 104231" d="M24.221,154.469,21.965,175.4h28.9l2.4-20.935Z" fill="#d8e0cd"/>
        <path id="Trazado_104232" data-name="Trazado 104232" d="M25.409,155.972l-2.2,18.319H49.3l2.111-18.319Z" fill="#fff"/>
        <path id="Trazado_104233" data-name="Trazado 104233" d="M29.8,159.054l-1.351,12.157H44.91l.845-12.157Z" fill="#e3ebd7"/>
        <path id="Trazado_104234" data-name="Trazado 104234" d="M52.234,163.485l5.97,12-7.335-.084Z" fill="#e3ebd7"/>
        <path id="Trazado_104235" data-name="Trazado 104235" d="M32.236,191.153a1.913,1.913,0,1,1-1.913-1.913,1.913,1.913,0,0,1,1.913,1.913" fill="#d8e0cd"/>
        <path id="Trazado_104236" data-name="Trazado 104236" d="M32.236,213.7a1.913,1.913,0,1,1-1.913-1.913,1.913,1.913,0,0,1,1.913,1.913" fill="#d8e0cd"/>
        <path id="Trazado_104237" data-name="Trazado 104237" d="M32.236,236.248a1.913,1.913,0,1,1-1.913-1.913,1.913,1.913,0,0,1,1.913,1.913" fill="#d8e0cd"/>
        <path id="Trazado_104238" data-name="Trazado 104238" d="M56.392,56.566,10.2,56.117l1.29,60.2,46.186.17Z" fill="#d8e0cd"/>
        <path id="Trazado_104239" data-name="Trazado 104239" d="M53.412,59.251,12.977,58.2l1.17,54.6,40.423.5Z" fill="#f2fae5"/>
        <path id="Trazado_104240" data-name="Trazado 104240" d="M46.51,67.407l-26.828-.446.818,38.16,26.806-.574Z" fill="#e3ebd7"/>
        <path id="Trazado_104241" data-name="Trazado 104241" d="M20.5,105.121,46.886,84.942l-27.2-17.981Z" fill="#edf5e0"/>
        <path id="Trazado_104242" data-name="Trazado 104242" d="M255.151,25.19,214.628,24.8,215.76,77.6l40.517.149Z" fill="#d8e0cd"/>
        <path id="Trazado_104243" data-name="Trazado 104243" d="M252.537,27.545l-35.472-.922,1.026,47.9,35.462.436Z" fill="#f2fae5"/>
        <path id="Trazado_104244" data-name="Trazado 104244" d="M246.482,34.7l-23.535-.391.717,33.476,23.516-.5Z" fill="#e3ebd7"/>
        <path id="Trazado_104245" data-name="Trazado 104245" d="M223.664,67.785l23.147-17.7L222.947,34.309Z" fill="#edf5e0"/>
        <path id="Trazado_104246" data-name="Trazado 104246" d="M209.758,223.745c-.173.518,5.873,23.492,5.873,23.492l4.146-.864-5.7-22.628Z" fill="#e3ebd7"/>
        <path id="Trazado_104247" data-name="Trazado 104247" d="M241.886,220.463,233.6,247.237h4.836l7.946-24.874Z" fill="#edf5e0"/>
        <path id="Trazado_104248" data-name="Trazado 104248" d="M249.487,216.317l-9.5,30.92h4.836l9.155-29.02Z" fill="#e3ebd7"/>
        <path id="Trazado_104249" data-name="Trazado 104249" d="M212.694,245.336l4.837,16.755h24.355l4.491-16.755Z" fill="#d8e0cd"/>
        <path id="Trazado_104250" data-name="Trazado 104250" d="M225.258,245.336a.829.829,0,0,1-.054-.172l-.128-.512c-.112-.472-.268-1.134-.468-1.979-.4-1.743-.969-4.235-1.674-7.318-1.392-6.216-3.317-14.808-5.466-24.4l.149.12h-4.265l.149-.187c2.162,9.6,4.1,18.2,5.5,24.422.681,3.091,1.233,5.59,1.618,7.338l.424,1.991c.043.215.076.386.1.518a.854.854,0,0,1,.025.179.783.783,0,0,1-.055-.172c-.033-.131-.077-.3-.131-.512l-.478-1.979c-.408-1.743-.991-4.235-1.711-7.317-1.425-6.216-3.394-14.808-5.593-24.4l-.043-.187h4.58l.026.12c2.112,9.6,4,18.2,5.374,24.421.665,3.091,1.2,5.59,1.58,7.338.177.85.315,1.517.414,1.991.041.215.074.386.1.518a.8.8,0,0,1,.024.179" fill="#d8e0cd"/>
        <path id="Trazado_104251" data-name="Trazado 104251" d="M249.057,262.792c0,.084-55.758.153-124.522.153C55.746,262.945,0,262.876,0,262.792s55.746-.153,124.535-.153c68.764,0,124.522.069,124.522.153" fill="#263238"/>
        <rect id="Rectángulo_5327" data-name="Rectángulo 5327" width="142.418" height="195.153" transform="translate(62.952 43.387)" fill="#455a64"/>
        <path id="Trazado_104252" data-name="Trazado 104252" d="M199.741,226.933H74.811V51.275h124.93V226.933Z" fill="#e0e0e0"/>
        <path id="Trazado_104253" data-name="Trazado 104253" d="M197.767,223.675H73.963V48.952h123.8V223.675Z" fill="#ebebeb"/>
        <path id="Trazado_104254" data-name="Trazado 104254" d="M184.464,210.077,170.2,221.688H71.652V49.4h124.93V200.254Z" fill="#fafafa"/>
        <path id="Trazado_104255" data-name="Trazado 104255" d="M184.464,210.077s.252-.216.761-.634l2.285-1.867,9.041-7.36-.018.038c-.015-24.781-.047-79.844-.089-150.859l.138.138-123.84.015h-1.09l.153-.153c-.012,64.774-.022,124.528-.031,172.293l-.122-.122,98.552.07-.033.012,10.709-8.687,2.683-2.168c.6-.481.9-.716.9-.716s-.292.249-.883.737-1.484,1.217-2.667,2.189l-10.677,8.726-.014.011H170.2l-98.552.071h-.123v-.123c-.008-47.765-.019-107.519-.03-172.293v-.153h1.243l123.84.015h.138V49.4c-.042,71.015-.075,126.078-.089,150.859v.023l-.019.015-9.071,7.323-2.3,1.848c-.514.412-.777.614-.777.614" fill="#263238"/>
        <path id="Trazado_104256" data-name="Trazado 104256" d="M159.726,54.882H108.6V52.111a14.757,14.757,0,0,1,14.757-14.757h22.219a14.154,14.154,0,0,1,14.154,14.154Z" fill="#a8bc8b"/>
        <path id="Trazado_104257" data-name="Trazado 104257" d="M121.119,37.354,119.25,27.9h29.439l-1.635,9.455Z" fill="#a8bc8b"/>
        <path id="Trazado_104258" data-name="Trazado 104258" d="M105.766,97.892H84.719V76.845h21.047ZM85.306,97.3h19.873V77.431H85.306Z" fill="#b1c5a5"/>
        <path id="Trazado_104259" data-name="Trazado 104259" d="M180.14,81.927c0,.085-14.65.153-32.718.153s-32.722-.068-32.722-.153,14.647-.153,32.722-.153,32.718.069,32.718.153" fill="#263238"/>
        <path id="Trazado_104260" data-name="Trazado 104260" d="M180.14,86.3c0,.085-14.65.153-32.718.153S114.7,86.386,114.7,86.3s14.647-.153,32.722-.153,32.718.069,32.718.153" fill="#263238"/>
        <path id="Trazado_104261" data-name="Trazado 104261" d="M180.14,90.674c0,.085-14.65.153-32.718.153s-32.722-.068-32.722-.153,14.647-.153,32.722-.153,32.718.069,32.718.153" fill="#263238"/>
        <path id="Trazado_104262" data-name="Trazado 104262" d="M180.14,95.048c0,.084-14.65.153-32.718.153s-32.722-.069-32.722-.153,14.647-.153,32.722-.153,32.718.069,32.718.153" fill="#263238"/>
        <path id="Trazado_104263" data-name="Trazado 104263" d="M105.766,130.328H84.719V109.281h21.047Zm-20.46-.587h19.873V109.869H85.306Z" fill="#b1c5a5"/>
        <path id="Trazado_104264" data-name="Trazado 104264" d="M88.9,120.238l2.794-3,4.657,3.725,10.659-10.348,2.553,3.009L96.148,126.861Z" fill="#b1c5a5"/>
        <path id="Trazado_104265" data-name="Trazado 104265" d="M180.14,114.364c0,.084-14.65.153-32.718.153s-32.722-.069-32.722-.153,14.647-.153,32.722-.153,32.718.069,32.718.153" fill="#263238"/>
        <path id="Trazado_104266" data-name="Trazado 104266" d="M180.14,118.738c0,.084-14.65.153-32.718.153s-32.722-.069-32.722-.153,14.647-.153,32.722-.153,32.718.069,32.718.153" fill="#263238"/>
        <path id="Trazado_104267" data-name="Trazado 104267" d="M180.14,123.111c0,.084-14.65.153-32.718.153s-32.722-.069-32.722-.153,14.647-.153,32.722-.153,32.718.069,32.718.153" fill="#263238"/>
        <path id="Trazado_104268" data-name="Trazado 104268" d="M180.14,127.485c0,.084-14.65.153-32.718.153s-32.722-.069-32.722-.153,14.647-.153,32.722-.153,32.718.069,32.718.153" fill="#263238"/>
        <path id="Trazado_104269" data-name="Trazado 104269" d="M105.766,161.717H84.719V140.67h21.047Zm-20.46-.587h19.873V141.257H85.306Z" fill="#b1c5a5"/>
        <path id="Trazado_104270" data-name="Trazado 104270" d="M88.9,151.627l2.794-3,4.657,3.725L107.014,142l2.553,3.009L96.148,158.25Z" fill="#b1c5a5"/>
        <path id="Trazado_104271" data-name="Trazado 104271" d="M180.14,145.753c0,.084-14.65.153-32.718.153s-32.722-.069-32.722-.153,14.647-.153,32.722-.153,32.718.069,32.718.153" fill="#263238"/>
        <path id="Trazado_104272" data-name="Trazado 104272" d="M180.14,150.126c0,.084-14.65.153-32.718.153s-32.722-.069-32.722-.153,14.647-.153,32.722-.153,32.718.069,32.718.153" fill="#263238"/>
        <path id="Trazado_104273" data-name="Trazado 104273" d="M180.14,154.5c0,.085-14.65.153-32.718.153s-32.722-.068-32.722-.153,14.647-.153,32.722-.153,32.718.069,32.718.153" fill="#263238"/>
        <path id="Trazado_104274" data-name="Trazado 104274" d="M180.14,158.873c0,.085-14.65.153-32.718.153s-32.722-.068-32.722-.153,14.647-.153,32.722-.153,32.718.069,32.718.153" fill="#263238"/>
        <path id="Trazado_104275" data-name="Trazado 104275" d="M105.766,192.024H84.719V170.977h21.047Zm-20.46-.588h19.873V171.563H85.306Z" fill="#b1c5a5"/>
        <path id="Trazado_104276" data-name="Trazado 104276" d="M88.9,181.934l2.794-3,4.657,3.725,10.659-10.348,2.553,3.009L96.148,188.556Z" fill="#b1c5a5"/>
        <path id="Trazado_104277" data-name="Trazado 104277" d="M180.14,176.059c0,.084-14.65.153-32.718.153s-32.722-.069-32.722-.153,14.647-.153,32.722-.153,32.718.069,32.718.153" fill="#263238"/>
        <path id="Trazado_104278" data-name="Trazado 104278" d="M180.14,180.433c0,.084-14.65.153-32.718.153s-32.722-.069-32.722-.153,14.647-.153,32.722-.153,32.718.069,32.718.153" fill="#263238"/>
        <path id="Trazado_104279" data-name="Trazado 104279" d="M180.14,184.806c0,.084-14.65.153-32.718.153s-32.722-.069-32.722-.153,14.647-.153,32.722-.153,32.718.069,32.718.153" fill="#263238"/>
        <path id="Trazado_104280" data-name="Trazado 104280" d="M180.14,189.18c0,.084-14.65.153-32.718.153s-32.722-.069-32.722-.153,14.647-.153,32.722-.153,32.718.069,32.718.153" fill="#263238"/>
        <path id="Trazado_104281" data-name="Trazado 104281" d="M174.122,193.163l-13.7,28.366H170.2Z" fill="#e0e0e0"/>
        <path id="Trazado_104282" data-name="Trazado 104282" d="M170.2,221.689l3.918-28.366,22.459,6.932Z" fill="#fafafa"/>
        <path id="Trazado_104283" data-name="Trazado 104283" d="M170.2,221.689l7.553-6.217,18.73-15.333.05.258-8.671-2.672-13.787-4.264.185-.118c-1.174,8.239-2.179,15.3-2.894,20.315-.708,4.877-1.074,7.395-1.166,8.031a1.049,1.049,0,0,1,.013-.126c.012-.1.029-.23.049-.392.048-.368.116-.884.2-1.545.182-1.378.443-3.359.772-5.847.676-5.057,1.628-12.171,2.739-20.475l.022-.169.163.051,13.792,4.247,8.669,2.679.269.083-.218.176-18.958,15.291-5.535,4.448-1.477,1.184-.378.3a1.507,1.507,0,0,1-.124.094" fill="#263238"/>
        <g id="Grupo_60991" data-name="Grupo 60991" opacity="0.3">
          <g id="Grupo_60990" data-name="Grupo 60990">
            <g id="Grupo_60989-2" data-name="Grupo 60989" clip-path="url(#clip-path-3)">
              <path id="Trazado_104284" data-name="Trazado 104284" d="M146.656,27.9l-1.623,9.455h2.021L148.69,27.9h-2.575"/>
            </g>
          </g>
        </g>
        <path id="Trazado_104285" data-name="Trazado 104285" d="M60.424,127.621h0a5.284,5.284,0,0,0,5.683-5.065c.111-2.876.207-5.783.207-5.783s4.358-.409,4.674-4.721.172-14.269.172-14.269a15.028,15.028,0,0,0-15.188.976l.269,15.179V122.1c.028,2.739,1.452,5.308,4.183,5.518" fill="#ffc09d"/>
        <path id="Trazado_104286" data-name="Trazado 104286" d="M66.689,106.787a2.21,2.21,0,0,0-2.947-.643,2.506,2.506,0,0,0-.835,3.134,3.3,3.3,0,0,0,2.116,1.6,1.656,1.656,0,0,1,1.3,1.784,5.52,5.52,0,0,1-1.514,3,7.958,7.958,0,0,1-4.992,2.365c-1.837.217-3.941-.165-5.009-1.675a6.848,6.848,0,0,1-.862-3.88q-.1-4.77-.2-9.539a13.652,13.652,0,0,1,.217-3.423,4.6,4.6,0,0,1,1.8-2.831c1.049-.69,2.378-.749,3.573-1.135a29.508,29.508,0,0,0,4.16-2.189,5.113,5.113,0,0,1,4.513-.438c1.007.505,1.683,1.51,2.662,2.068,1.394.793,3.292.613,3.969,2.663a3.471,3.471,0,0,1-.023,2.193,5.068,5.068,0,0,1-6.89,2.709,6.82,6.82,0,0,1-.081,3.017c-.159.477-.215,1.2-.961,1.218" fill="#263238"/>
        <path id="Trazado_104287" data-name="Trazado 104287" d="M54.788,97.909a14.693,14.693,0,0,0,1.386-4.332,4.963,4.963,0,0,0-1.36-4.187,4.087,4.087,0,0,0-2.843-1.006,4.807,4.807,0,0,0-4.333,3.434,5.175,5.175,0,0,0,1.743,5.305,5.612,5.612,0,0,0,5.587.729" fill="#263238"/>
        <path id="Trazado_104288" data-name="Trazado 104288" d="M55.635,96.337a2.123,2.123,0,0,1-2.044,2c-.02-.087.632-.26,1.194-.822s.763-1.2.85-1.174" fill="#ff4f5b"/>
        <path id="Trazado_104289" data-name="Trazado 104289" d="M54.217,97.39a4.069,4.069,0,0,1-1.171.856,3.391,3.391,0,0,1-1.543.438,2.152,2.152,0,0,1-1.8-.808,2.4,2.4,0,0,1-.319-1.95,3.8,3.8,0,0,1,.726-1.428,4.509,4.509,0,0,1,1.02-1.029,13.417,13.417,0,0,1-.846,1.156,3.911,3.911,0,0,0-.625,1.362,2.179,2.179,0,0,0,.291,1.708A1.91,1.91,0,0,0,51.5,98.4a3.4,3.4,0,0,0,1.448-.349c.785-.38,1.238-.709,1.267-.663" fill="#263238"/>
        <path id="Trazado_104290" data-name="Trazado 104290" d="M46.886,102.262a1.854,1.854,0,0,1,.21.478,4.964,4.964,0,0,0,.635,1.229,1.783,1.783,0,0,0,1.689.776,2.316,2.316,0,0,0,1.625-1.636,16.69,16.69,0,0,0,.442-2.505,3.873,3.873,0,0,1,.823-1.976,2.12,2.12,0,0,1,1.256-.716.821.821,0,0,1,.528.045c0,.029-.191-.009-.506.072a2.137,2.137,0,0,0-1.114.739,3.815,3.815,0,0,0-.709,1.881,14.97,14.97,0,0,1-.43,2.559,2.566,2.566,0,0,1-1.865,1.815A1.718,1.718,0,0,1,48.3,104.8a2.426,2.426,0,0,1-.744-.7,4.261,4.261,0,0,1-.574-1.32,1.62,1.62,0,0,1-.1-.515" fill="#263238"/>
        <path id="Trazado_104291" data-name="Trazado 104291" d="M44.767,138.492s-2.2,16.1,0,18.144A4.6,4.6,0,0,0,49.081,158l4.186-3.5.824-16.008Z" fill="#ffc09d"/>
        <path id="Trazado_104292" data-name="Trazado 104292" d="M90.255,93.287l2.794-3,4.657,3.725,10.659-10.348,2.553,3.01L97.5,99.91Z" fill="#a8bc8b"/>
        <path id="Trazado_104293" data-name="Trazado 104293" d="M103.384,94.1l-4.052,2.6c-.183-1.6-1.406-3.19-1.343-2.385S98,99.3,98,99.3L90.77,114.5a7.2,7.2,0,0,1-4.459,4.281l-6.745,2.006,2.637,8.917,9.375-3.108a8.083,8.083,0,0,0,5.138-5.153l6.463-19.688a30.445,30.445,0,0,0,1.044-3.879,7.391,7.391,0,0,0-.839-3.776" fill="#ffc09d"/>
        <path id="Trazado_104294" data-name="Trazado 104294" d="M70.183,260.4l-.1-4.509-8.447.135.078,6.6.524.025c2.333.093,11.869.305,13.419-.193,1.73-.555-5.473-2.056-5.473-2.056" fill="#ff4f5b"/>
        <g id="Grupo_60994" data-name="Grupo 60994" opacity="0.5">
          <g id="Grupo_60993" data-name="Grupo 60993">
            <g id="Grupo_60992" data-name="Grupo 60992" clip-path="url(#clip-path-4)">
              <path id="Trazado_104295" data-name="Trazado 104295" d="M64.775,262.514a2.935,2.935,0,0,0-1.107-1.784,2.845,2.845,0,0,0-1.984-.582l.036,2.361Z" fill="#fff"/>
            </g>
          </g>
        </g>
        <g id="Grupo_60997" data-name="Grupo 60997" opacity="0.4">
          <g id="Grupo_60996" data-name="Grupo 60996">
            <g id="Grupo_60995" data-name="Grupo 60995" clip-path="url(#clip-path-5)">
              <path id="Trazado_104296" data-name="Trazado 104296" d="M73.705,261.264s2.527.685,2.22,1.1-9.952.567-14.211.261l.01-.189,11.251-.078s.239-1.071.73-1.1" fill="#fff"/>
            </g>
          </g>
        </g>
        <path id="Trazado_104297" data-name="Trazado 104297" d="M61.591,262.437a.757.757,0,0,0,.145.014l.418.018,1.536.043c1.3.026,3.091.04,5.071.011s3.772-.1,5.068-.159l1.534-.088.417-.031a.7.7,0,0,0,.145-.018.855.855,0,0,0-.146,0l-.418.011-1.535.055c-1.3.046-3.088.1-5.067.13s-3.771.027-5.068.018l-1.536-.01h-.418a.713.713,0,0,0-.146.007" fill="#263238"/>
        <path id="Trazado_104298" data-name="Trazado 104298" d="M72.974,262.494a2.226,2.226,0,0,1,.79-1.333,1.364,1.364,0,0,0-.79,1.333" fill="#263238"/>
        <path id="Trazado_104299" data-name="Trazado 104299" d="M70.463,261.268c.024.015.141-.132.261-.328s.2-.367.174-.382-.141.132-.261.328-.2.367-.174.382" fill="#263238"/>
        <path id="Trazado_104300" data-name="Trazado 104300" d="M69.773,260.917c.019.021.151-.07.295-.2s.244-.258.225-.279-.151.071-.295.2-.244.257-.225.278" fill="#263238"/>
        <path id="Trazado_104301" data-name="Trazado 104301" d="M69.328,260.126a1,1,0,0,0,.442.049.986.986,0,0,0,.441-.053,1.936,1.936,0,0,0-.883,0" fill="#263238"/>
        <path id="Trazado_104302" data-name="Trazado 104302" d="M69.171,259.566a1.248,1.248,0,0,0,1,.06,2.791,2.791,0,0,0-.5-.027,2.762,2.762,0,0,0-.5-.033" fill="#263238"/>
        <path id="Trazado_104303" data-name="Trazado 104303" d="M70.738,260.527a1.571,1.571,0,0,0,.543-.012,3.117,3.117,0,0,0,.576-.136,1.567,1.567,0,0,0,.328-.141.292.292,0,0,0,.132-.171.216.216,0,0,0-.085-.216,1.005,1.005,0,0,0-1.4.675.3.3,0,0,0-.011.147,1.524,1.524,0,0,1,.24-.467.973.973,0,0,1,.459-.308.836.836,0,0,1,.647.034c.088.062.056.164-.039.223a1.647,1.647,0,0,1-.3.135,3.7,3.7,0,0,1-.557.154c-.324.063-.531.066-.531.083" fill="#263238"/>
        <path id="Trazado_104304" data-name="Trazado 104304" d="M70.879,260.552a.533.533,0,0,0,.057-.378.891.891,0,0,0-.154-.394.547.547,0,0,0-.457-.27.216.216,0,0,0-.163.253.581.581,0,0,0,.1.241,1.665,1.665,0,0,0,.261.325.79.79,0,0,0,.314.215c.01-.013-.109-.1-.262-.265a1.944,1.944,0,0,1-.232-.323c-.076-.113-.13-.318.005-.345s.277.118.361.225a.874.874,0,0,1,.159.35,1.985,1.985,0,0,1,.015.366" fill="#263238"/>
        <path id="Trazado_104305" data-name="Trazado 104305" d="M61.728,260.123c0,.019.242-.027.624.012a2.651,2.651,0,0,1,2.24,1.73c.134.36.15.6.169.6a.448.448,0,0,0,0-.17,2.209,2.209,0,0,0-.1-.454,2.569,2.569,0,0,0-2.3-1.778,2.323,2.323,0,0,0-.465.019.481.481,0,0,0-.165.041" fill="#263238"/>
        <path id="Trazado_104306" data-name="Trazado 104306" d="M62.549,256.594a29.285,29.285,0,0,0,.009,3.472,14.649,14.649,0,0,0,.047-1.736,14.926,14.926,0,0,0-.056-1.736" fill="#263238"/>
        <path id="Trazado_104307" data-name="Trazado 104307" d="M65.825,261.674a4.783,4.783,0,0,0,1.235.1,4.844,4.844,0,0,0,1.234-.117c0-.03-.554.012-1.235.015s-1.231-.031-1.234,0" fill="#263238"/>
        <path id="Trazado_104308" data-name="Trazado 104308" d="M64.17,261.7c-.021.021.046.116.1.242s.092.237.121.235.042-.134-.027-.279-.18-.219-.2-.2" fill="#263238"/>
        <path id="Trazado_104309" data-name="Trazado 104309" d="M63.534,260.93c-.02.02.036.107.125.2s.177.141.2.121-.036-.107-.124-.2-.177-.141-.2-.121" fill="#263238"/>
        <path id="Trazado_104310" data-name="Trazado 104310" d="M62.636,260.589c0,.029.119.026.242.068s.215.106.238.087-.051-.135-.206-.185-.284,0-.274.03" fill="#263238"/>
        <path id="Trazado_104311" data-name="Trazado 104311" d="M62,260.431c-.01.027.039.069.11.1s.135.026.145,0-.039-.069-.11-.1-.135-.025-.145,0" fill="#263238"/>
        <path id="Trazado_104312" data-name="Trazado 104312" d="M40.375,258.963l2.864-3.484-6.491-5.406L32.5,255.125l.381.361c1.708,1.591,8.8,7.971,10.3,8.605,1.673.708-2.808-5.128-2.808-5.128" fill="#ff4f5b"/>
        <g id="Grupo_61000" data-name="Grupo 61000" opacity="0.5">
          <g id="Grupo_60999" data-name="Grupo 60999">
            <g id="Grupo_60998" data-name="Grupo 60998" clip-path="url(#clip-path-6)">
              <path id="Trazado_104313" data-name="Trazado 104313" d="M34.9,257.034a2.931,2.931,0,0,0,.324-2.074,2.849,2.849,0,0,0-1.124-1.736l-1.512,1.813Z" fill="#fff"/>
            </g>
          </g>
        </g>
        <g id="Grupo_61003" data-name="Grupo 61003" opacity="0.4">
          <g id="Grupo_61002" data-name="Grupo 61002">
            <g id="Grupo_61001" data-name="Grupo 61001" clip-path="url(#clip-path-7)">
              <path id="Trazado_104314" data-name="Trazado 104314" d="M42.484,261.91s1.469,2.168.962,2.285-7.914-6.06-10.943-9.07l.131-.137,8.58,7.279s.879-.656,1.27-.357" fill="#fff"/>
            </g>
          </g>
        </g>
        <path id="Trazado_104315" data-name="Trazado 104315" d="M32.536,254.9a.8.8,0,0,0,.1.1l.305.287,1.137,1.034c.966.866,2.316,2.045,3.836,3.315s2.922,2.389,3.946,3.185l1.22.934.336.249a1,1,0,0,0,.122.081.786.786,0,0,0-.109-.1l-.324-.263-1.2-.96c-1.013-.81-2.406-1.938-3.925-3.207s-2.877-2.438-3.855-3.29l-1.158-1.01-.317-.272a.726.726,0,0,0-.115-.09" fill="#263238"/>
        <path id="Trazado_104316" data-name="Trazado 104316" d="M41.128,262.367a2.233,2.233,0,0,1,1.468-.495,1.365,1.365,0,0,0-1.468.495" fill="#263238"/>
        <path id="Trazado_104317" data-name="Trazado 104317" d="M40.024,259.8a.889.889,0,0,0,.412-.078c.219-.071.39-.149.381-.176a.889.889,0,0,0-.412.078c-.219.07-.39.149-.381.176" fill="#263238"/>
        <path id="Trazado_104318" data-name="Trazado 104318" d="M39.73,259.083c0,.028.161.045.356.038s.353-.036.352-.064-.16-.045-.356-.038-.353.036-.352.064" fill="#263238"/>
        <path id="Trazado_104319" data-name="Trazado 104319" d="M39.909,258.194c-.018.022.117.167.3.325s.35.269.369.248-.118-.167-.3-.325-.351-.269-.369-.248" fill="#263238"/>
        <path id="Trazado_104320" data-name="Trazado 104320" d="M40.155,257.667a1.238,1.238,0,0,0,.72.7c.015-.025-.167-.156-.363-.347s-.332-.367-.357-.351" fill="#263238"/>
        <path id="Trazado_104321" data-name="Trazado 104321" d="M40.716,259.417a1.582,1.582,0,0,0,.419.345,3.114,3.114,0,0,0,.526.272,1.606,1.606,0,0,0,.341.108.3.3,0,0,0,.211-.044.213.213,0,0,0,.076-.219,1,1,0,0,0-1.132-.565.97.97,0,0,0-.368.165c-.076.057-.109.1-.105.1a1.553,1.553,0,0,1,.487-.2.978.978,0,0,1,.549.066.845.845,0,0,1,.469.448c.025.1-.066.16-.176.143a1.573,1.573,0,0,1-.318-.1,3.679,3.679,0,0,1-.522-.246c-.287-.164-.446-.3-.457-.283" fill="#263238"/>
        <path id="Trazado_104322" data-name="Trazado 104322" d="M40.807,259.527c0,.01.152-.046.289-.249a.9.9,0,0,0,.141-.4.547.547,0,0,0-.17-.5.217.217,0,0,0-.289.085.594.594,0,0,0-.085.246,1.612,1.612,0,0,0-.013.416.766.766,0,0,0,.1.368c.015,0-.021-.144-.026-.372a1.942,1.942,0,0,1,.034-.4c.016-.136.109-.326.23-.258a.489.489,0,0,1,.127.406.891.891,0,0,1-.109.369,1.911,1.911,0,0,1-.227.287" fill="#263238"/>
        <path id="Trazado_104323" data-name="Trazado 104323" d="M34.149,253.234c-.011.016.2.137.465.416a2.651,2.651,0,0,1,.57,2.772c-.133.361-.279.556-.263.566s.046-.041.109-.131a2.218,2.218,0,0,0,.221-.409,2.565,2.565,0,0,0-.585-2.848,2.2,2.2,0,0,0-.365-.289.486.486,0,0,0-.152-.077" fill="#263238"/>
        <path id="Trazado_104324" data-name="Trazado 104324" d="M37.073,251.1a14.841,14.841,0,0,0-1.167,1.286,14.557,14.557,0,0,0-1.09,1.352,14.845,14.845,0,0,0,1.167-1.286,14.764,14.764,0,0,0,1.09-1.352" fill="#263238"/>
        <path id="Trazado_104325" data-name="Trazado 104325" d="M36.243,257.082a6.938,6.938,0,0,0,1.881,1.6c.017-.024-.428-.352-.946-.793s-.914-.827-.935-.806" fill="#263238"/>
        <path id="Trazado_104326" data-name="Trazado 104326" d="M34.974,256.02c-.029,0-.04.119-.078.252s-.086.239-.062.256.118-.074.161-.229.006-.283-.021-.279" fill="#263238"/>
        <path id="Trazado_104327" data-name="Trazado 104327" d="M34.992,255.024c-.028,0-.043.1-.032.229s.041.222.07.22.042-.105.032-.229-.042-.222-.07-.22" fill="#263238"/>
        <path id="Trazado_104328" data-name="Trazado 104328" d="M34.533,254.18c-.014.026.073.1.14.21s.094.221.123.22.05-.135-.035-.273-.218-.183-.228-.157" fill="#263238"/>
        <path id="Trazado_104329" data-name="Trazado 104329" d="M34.152,253.644c-.025.014-.015.078.021.144s.086.108.111.094.015-.078-.021-.144-.086-.108-.111-.094" fill="#263238"/>
        <path id="Trazado_104330" data-name="Trazado 104330" d="M57.954,164.6s-2.812,11.9-2.017,14.254,5.949,3.715,5.949,3.715l-.174,32.586-28.5,35.225,10.524,8.609s30.849-35.29,33.569-41.681-1.733-53.235-1.733-53.235Z" fill="#263238"/>
        <path id="Trazado_104331" data-name="Trazado 104331" d="M72.509,159.747,73.9,258.718l-14.5.073-7.275-80.606c-1.538-1.468-3.7-3.982-3.4-9.588l.353-6.514Z" fill="#263238"/>
        <path id="Trazado_104332" data-name="Trazado 104332" d="M57.223,220.663a.558.558,0,0,1,.084-.147l.275-.406,1.078-1.524,3.933-5.445-.025.075c-.315-3.435-.7-7.6-1.111-12.093-.526-5.886-.952-11.22-1.2-15.085-.128-1.932-.212-3.5-.259-4.579-.017-.517-.032-.931-.042-1.246a2.211,2.211,0,0,1,.006-.436,2.433,2.433,0,0,1,.055.432c.025.314.059.727.1,1.243.087,1.113.207,2.666.356,4.571.305,3.859.766,9.188,1.292,15.073.4,4.508.8,8.666,1.058,12.119l0,.038-.028.037-4.019,5.381-1.133,1.484-.305.384c-.071.086-.11.128-.115.124" fill="#455a64"/>
        <path id="Trazado_104333" data-name="Trazado 104333" d="M61.674,179.777a19.816,19.816,0,0,1-3.839-.571,19.914,19.914,0,0,1-3.745-1.021,32.515,32.515,0,0,1,3.807.721,32.994,32.994,0,0,1,3.777.871" fill="#455a64"/>
        <path id="Trazado_104334" data-name="Trazado 104334" d="M71.6,213.568a14.8,14.8,0,0,0-3.915-1.02,14.786,14.786,0,0,0-4.027.39,3.322,3.322,0,0,1,1.13-.442,8.9,8.9,0,0,1,5.766.457,3.3,3.3,0,0,1,1.046.615" fill="#455a64"/>
        <path id="Trazado_104335" data-name="Trazado 104335" d="M76.716,218.154c.067.051-4.011,5.525-9.107,12.224s-9.284,12.091-9.352,12.039,4.01-5.523,9.108-12.224,9.284-12.09,9.351-12.039" fill="#455a64"/>
        <path id="Trazado_104336" data-name="Trazado 104336" d="M74.753,167.1a2.461,2.461,0,0,1-.816,1.077,4.039,4.039,0,0,1-5.91-.624,2.423,2.423,0,0,1-.573-1.223,12.694,12.694,0,0,0,.741,1.087,4.026,4.026,0,0,0,5.605.591,13.034,13.034,0,0,0,.953-.908" fill="#455a64"/>
        <path id="Trazado_104337" data-name="Trazado 104337" d="M54.944,116.176a12.642,12.642,0,0,1-.686-17.632" fill="#263238"/>
        <path id="Trazado_104338" data-name="Trazado 104338" d="M46.8,125.408s-3.15,3.558-3.8,17.166c0,0,8.969,1.7,9.133,1.212S46.8,125.408,46.8,125.408" fill="#456c3a"/>
        <g id="Grupo_61006" data-name="Grupo 61006" opacity="0.3">
          <g id="Grupo_61005" data-name="Grupo 61005">
            <g id="Grupo_61004" data-name="Grupo 61004" clip-path="url(#clip-path-8)">
              <path id="Trazado_104339" data-name="Trazado 104339" d="M46.8,125.408s-3.15,3.558-3.8,17.166c0,0,8.969,1.7,9.133,1.212S46.8,125.408,46.8,125.408" fill="#53763e"/>
            </g>
          </g>
        </g>
        <path id="Trazado_104340" data-name="Trazado 104340" d="M48.255,165.04H75.791l-.444-4.3s-3.147-16.365-3.124-16.581l.5-1.042a10.382,10.382,0,0,0,.121-8.66l13.483-4.61-3.3-11.126C76.9,119.753,67.655,120.9,67.655,120.9l-1.377.116s-9.547.5-9.751.522c-3.993.483-8.64.79-10.338,5.064-.909,2.285-.046,5.716,1.437,9.253l3.53,10.863c1.409,5.971-.84,5.687-2.075,11.7-.187.909-.844,5.787-.826,6.621" fill="#537e39"/>
        <g id="Grupo_61009" data-name="Grupo 61009" opacity="0.3">
          <g id="Grupo_61008" data-name="Grupo 61008">
            <g id="Grupo_61007" data-name="Grupo 61007" clip-path="url(#clip-path-9)">
              <path id="Trazado_104341" data-name="Trazado 104341" d="M48.255,165.04H75.791l-.444-4.3s-3.147-16.365-3.124-16.581l.5-1.042a10.382,10.382,0,0,0,.121-8.66l13.483-4.61-3.3-11.126C76.9,119.753,67.655,120.9,67.655,120.9l-1.377.116s-9.547.5-9.751.522c-3.993.483-8.64.79-10.338,5.064-.909,2.285-.046,5.716,1.437,9.253l3.53,10.863c1.409,5.971-.84,5.687-2.075,11.7-.187.909-.844,5.787-.826,6.621" fill="#537e39"/>
            </g>
          </g>
        </g>
        <path id="Trazado_104342" data-name="Trazado 104342" d="M86.2,130.026a2.665,2.665,0,0,1-.6.252c-.392.142-.961.34-1.666.577-1.41.476-3.368,1.107-5.529,1.8s-4.093,1.379-5.465,1.946c-.689.277-1.236.525-1.619.688a2.693,2.693,0,0,1-.6.238,2.618,2.618,0,0,1,.551-.345c.368-.2.9-.475,1.585-.78a52.146,52.146,0,0,1,5.457-2.038c2.165-.692,4.131-1.289,5.558-1.713.713-.211,1.293-.377,1.7-.485a2.66,2.66,0,0,1,.634-.138" fill="#263238"/>
        <path id="Trazado_104343" data-name="Trazado 104343" d="M84.6,124.1c0,.084-8.141.153-18.182.153s-18.183-.069-18.183-.153,8.139-.153,18.183-.153,18.182.069,18.182.153" fill="#fafafa"/>
        <path id="Trazado_104344" data-name="Trazado 104344" d="M85.435,129.51c0,.085-9.06.154-20.233.154s-20.235-.069-20.235-.154,9.058-.153,20.235-.153,20.233.069,20.233.153" fill="#fafafa"/>
        <path id="Trazado_104345" data-name="Trazado 104345" d="M47.221,135.665a4.765,4.765,0,0,1-1.686.153,4.76,4.76,0,0,1-1.686-.153,4.788,4.788,0,0,1,1.686-.153,4.792,4.792,0,0,1,1.686.153" fill="#fafafa"/>
        <path id="Trazado_104346" data-name="Trazado 104346" d="M73.687,135.851c0,.084-5.925.153-13.232.153s-13.234-.069-13.234-.153,5.924-.153,13.234-.153,13.232.069,13.232.153" fill="#fafafa"/>
        <path id="Trazado_104347" data-name="Trazado 104347" d="M73.1,142.192c0,.085-5.318.153-11.876.153s-11.877-.068-11.877-.153,5.316-.153,11.877-.153,11.876.069,11.876.153" fill="#fafafa"/>
        <path id="Trazado_104348" data-name="Trazado 104348" d="M72.931,148.066c0,.084-4.82.153-10.764.153S51.4,148.15,51.4,148.066s4.819-.153,10.766-.153,10.764.069,10.764.153" fill="#fafafa"/>
        <path id="Trazado_104349" data-name="Trazado 104349" d="M73.873,152.822c0,.085-5.156.153-11.515.153s-11.516-.068-11.516-.153,5.155-.153,11.516-.153,11.515.069,11.515.153" fill="#fafafa"/>
        <path id="Trazado_104350" data-name="Trazado 104350" d="M75.365,158.882c0,.085-5.866.153-13.1.153s-13.1-.068-13.1-.153,5.865-.153,13.1-.153,13.1.069,13.1.153" fill="#fafafa"/>
        <path id="Trazado_104351" data-name="Trazado 104351" d="M50.991,146.214a2.214,2.214,0,0,1-.243-.54q-.243-.63-.579-1.5c-.485-1.27-1.167-3.021-1.876-4.973s-1.3-3.741-1.668-5.054c-.185-.655-.323-1.189-.4-1.564a2.249,2.249,0,0,1-.1-.586,21.856,21.856,0,0,1,.705,2.088c.421,1.291,1.036,3.063,1.748,5.012s1.359,3.713,1.792,5c.218.646.384,1.171.488,1.538a2.2,2.2,0,0,1,.131.579" fill="#263238"/>
      </g>
    </g>
  </g>
</svg>
