<svg id="Grupo_61024" data-name="Grupo 61024" xmlns="http://www.w3.org/2000/svg" xmlns:xlink="http://www.w3.org/1999/xlink" width="161.407" height="161.414" viewBox="0 0 161.407 161.414">
  <defs>
    <clipPath id="clip-path">
      <rect id="Rectángulo_5392" data-name="Rectángulo 5392" width="161.407" height="161.414" fill="none"/>
    </clipPath>
  </defs>
  <g id="Grupo_61023" data-name="Grupo 61023" transform="translate(0 0)" clip-path="url(#clip-path)">
    <path id="Trazado_104375" data-name="Trazado 104375" d="M128.481,145.266V13.451A13.452,13.452,0,0,0,115.03,0H7.425A13.452,13.452,0,0,1,20.876,13.451V144.589a16.588,16.588,0,0,0,15.643,16.818,16.142,16.142,0,0,0,16.632-15.636c0-.168.007-.337.007-.505Z" transform="translate(6.024 0)" fill="#fbecdf"/>
    <rect id="Rectángulo_5387" data-name="Rectángulo 5387" width="68.479" height="19.022" transform="translate(86.084 104.914) rotate(-45)" fill="#f1a67e"/>
    <path id="Trazado_104376" data-name="Trazado 104376" d="M65.795,71.372,52.344,57.921,41.584,82.133Z" transform="translate(33.739 46.993)" fill="#fadfb2"/>
    <path id="Trazado_104377" data-name="Trazado 104377" d="M56.482,71.337l-8.274-8.274-6.624,14.9Z" transform="translate(33.739 51.165)" fill="#474747"/>
    <rect id="Rectángulo_5388" data-name="Rectángulo 5388" width="11.413" height="19.019" transform="translate(134.483 56.499) rotate(-45)" fill="#d9936e"/>
    <path id="Trazado_104378" data-name="Trazado 104378" d="M78.713,29.143,92.164,42.594l2.6-2.6A9.51,9.51,0,0,0,81.309,26.547Z" transform="translate(63.863 19.28)" fill="#ccc"/>
    <path id="Trazado_104379" data-name="Trazado 104379" d="M26.9,45.733H5.38A5.379,5.379,0,0,1,0,40.353v-26.9a13.45,13.45,0,1,1,26.9,0Z" transform="translate(0 0)" fill="#f6d4b9"/>
    <path id="Trazado_104380" data-name="Trazado 104380" d="M23.488,96.339A16.139,16.139,0,0,0,40.118,80.7c.005-.168.009-.337.009-.505h86.082A16.14,16.14,0,0,1,110.07,96.339Z" transform="translate(19.057 65.068)" fill="#f6d4b9"/>
    <rect id="Rectángulo_5389" data-name="Rectángulo 5389" width="26.9" height="26.9" transform="translate(37.661 43.041)" fill="#f6d4b9"/>
    <path id="Trazado_104381" data-name="Trazado 104381" d="M34.171,48.548a2.682,2.682,0,0,1-1.9-.786L24.2,39.692,28,35.885l6.168,6.164L56.478,19.74l3.806,3.806-24.21,24.21a2.687,2.687,0,0,1-1.9.792" transform="translate(19.631 16.016)" fill="#f1a67e"/>
    <rect id="Rectángulo_5390" data-name="Rectángulo 5390" width="26.9" height="26.9" transform="translate(37.661 86.084)" fill="#f6d4b9"/>
    <path id="Trazado_104382" data-name="Trazado 104382" d="M34.171,72.31a2.682,2.682,0,0,1-1.9-.786L24.2,63.454,28,59.647l6.168,6.164L56.478,43.5l3.806,3.806-24.21,24.21a2.687,2.687,0,0,1-1.9.792" transform="translate(19.631 35.295)" fill="#f1a67e"/>
    <path id="Trazado_104383" data-name="Trazado 104383" d="M31.833,5.941H91.015a8.07,8.07,0,1,1,0,16.141H31.833a8.07,8.07,0,0,1,0-16.141" transform="translate(19.28 4.82)" fill="#c38c71"/>
    <path id="Trazado_104384" data-name="Trazado 104384" d="M87.317,43.434H41.584V32.673H98.078" transform="translate(33.739 26.509)" fill="#c38c71"/>
    <rect id="Rectángulo_5391" data-name="Rectángulo 5391" width="21.519" height="5.378" transform="translate(104.911 131.813)" fill="#f1a67e"/>
    <path id="Trazado_104385" data-name="Trazado 104385" d="M31.833,5.941a8.07,8.07,0,0,0,0,16.141H78.178a49.654,49.654,0,0,0,11.7-16.141Z" transform="translate(19.28 4.82)" fill="#f1a67e"/>
  </g>
</svg>
