<svg id="Grupo_61028" data-name="Grupo 61028" xmlns="http://www.w3.org/2000/svg" xmlns:xlink="http://www.w3.org/1999/xlink" width="160.633" height="161.415" viewBox="0 0 160.633 161.415">
  <defs>
    <clipPath id="clip-path">
      <rect id="Rectángulo_5402" data-name="Rectángulo 5402" width="160.633" height="161.415" fill="none"/>
    </clipPath>
  </defs>
  <rect id="Rectángulo_5394" data-name="Rectángulo 5394" width="25.908" height="51.818" transform="translate(119.178 107.008)" fill="#f1a67e"/>
  <rect id="Rectángulo_5395" data-name="Rectángulo 5395" width="25.908" height="36.272" transform="translate(82.908 122.553)" fill="#f1a67e"/>
  <path id="Trazado_104386" data-name="Trazado 104386" d="M38.493,75.627H51.447V96.354H25.539V75.627Z" transform="translate(21.096 62.47)" fill="#f1a67e"/>
  <g id="Grupo_61027" data-name="Grupo 61027" transform="translate(0 0)">
    <g id="Grupo_61026" data-name="Grupo 61026" clip-path="url(#clip-path)">
      <path id="Trazado_104387" data-name="Trazado 104387" d="M119.365,14.8V42.73A55.886,55.886,0,0,1,85.5,94.08l-2.41,1.037L80.684,94.08A55.886,55.886,0,0,1,46.822,42.73V41.357l2.332-1.452A6.111,6.111,0,0,0,52,34.75v-.933a6.055,6.055,0,0,0-5.18-5.984V14.8h.491A55.9,55.9,0,0,0,83.093,1.847a55.865,55.865,0,0,0,16.763,9.612A55.444,55.444,0,0,0,118.872,14.8Z" transform="translate(38.677 1.526)" fill="#e6e9ed"/>
      <path id="Trazado_104388" data-name="Trazado 104388" d="M53.3,59.032v31.09a7.773,7.773,0,0,1-15.545,0V66.805a2.6,2.6,0,0,0-2.591-2.591H17.026V48.669h25.91A10.36,10.36,0,0,1,53.3,59.032" transform="translate(14.064 40.202)" fill="#f6d4b9"/>
      <path id="Trazado_104389" data-name="Trazado 104389" d="M24.058,64.214v46.635a7.773,7.773,0,0,1-15.545,0V48.669H24.058V64.214Z" transform="translate(7.032 40.202)" fill="#f6d4b9"/>
      <path id="Trazado_104390" data-name="Trazado 104390" d="M18.933,38.161v.026L29.918,52.307l12.1-15.571A26.162,26.162,0,0,0,54.3,32.928L80.284,16.943a5.9,5.9,0,0,1,3.161-.908,4.945,4.945,0,0,1,.88.079A6.055,6.055,0,0,1,89.507,22.1v.933a6.109,6.109,0,0,1-2.85,5.155l-2.332,1.452-31.4,19.639a10.346,10.346,0,0,0-4.87,8.783V75.624H14.373V93.76H11.782A10.36,10.36,0,0,1,1.419,83.4V62.67A25.9,25.9,0,0,1,18.933,38.161Z" transform="translate(1.172 13.246)" fill="#fbecdf"/>
      <path id="Trazado_104391" data-name="Trazado 104391" d="M24.587,27.4H32.8c.44,0,.855,0,1.295-.026L22,42.943,11.01,28.822V28.8A25.856,25.856,0,0,1,19.4,27.4h5.182Z" transform="translate(9.095 22.61)" fill="#f0d0b4"/>
      <path id="Trazado_104392" data-name="Trazado 104392" d="M24.058,10.36A15.545,15.545,0,1,1,8.513,25.905,15.544,15.544,0,0,1,24.058,10.36" transform="translate(7.032 8.558)" fill="#f0d0b4"/>
      <path id="Trazado_104393" data-name="Trazado 104393" d="M104.314,33.924V44.288l-3.5,1.218a21.766,21.766,0,0,1-2.047,4.921l1.632,3.343L93.069,61.1,89.727,59.47A21.745,21.745,0,0,1,84.8,61.517l-1.218,3.5H73.223l-1.218-3.5a21.78,21.78,0,0,1-4.923-2.047L63.741,61.1l-7.332-7.332,1.632-3.343a21.6,21.6,0,0,1-2.047-4.921l-3.5-1.218V33.924l3.5-1.218a21.6,21.6,0,0,1,2.047-4.921l-1.632-3.343,7.332-7.332,3.342,1.632a21.78,21.78,0,0,1,4.923-2.047l1.218-3.5H83.586l1.218,3.5a21.746,21.746,0,0,1,4.923,2.047l3.342-1.632,7.333,7.332L98.77,27.784a21.766,21.766,0,0,1,2.047,4.921ZM88.768,39.106A10.364,10.364,0,1,0,78.406,49.469,10.36,10.36,0,0,0,88.768,39.106" transform="translate(43.364 10.902)" fill="#f1a67e"/>
      <path id="Trazado_104394" data-name="Trazado 104394" d="M72.545,46.2A12.955,12.955,0,1,0,59.591,33.248,12.969,12.969,0,0,0,72.545,46.2m0-20.727a7.773,7.773,0,1,1-7.773,7.773,7.783,7.783,0,0,1,7.773-7.773" transform="translate(49.224 16.762)" fill="#c38c71"/>
      <path id="Trazado_104395" data-name="Trazado 104395" d="M55.088,31.858l-4.01,1.4V47.3l4.01,1.4A26.5,26.5,0,0,0,56.3,51.647L54.46,55.469,64.39,65.4l3.818-1.844a25.82,25.82,0,0,0,2.944,1.214l1.4,4.01H86.6L88,64.765a25.618,25.618,0,0,0,2.944-1.216l3.818,1.844,9.93-9.928-1.842-3.82a26.164,26.164,0,0,0,1.214-2.949l4.012-1.4V33.257l-4.01-1.4a26.644,26.644,0,0,0-1.212-2.949l1.842-3.82-9.932-9.928L90.944,17A25.928,25.928,0,0,0,88,15.789l-1.4-4.01H72.556l-1.4,4.014a25.653,25.653,0,0,0-2.947,1.212L64.39,15.163l-9.93,9.928L56.3,28.913a26.3,26.3,0,0,0-1.212,2.945m4.576,2.728a20.459,20.459,0,0,1,1.8-4.368l.656-1.176-1.393-2.889,4.728-4.726,2.887,1.391,1.176-.654a20.638,20.638,0,0,1,4.368-1.8L75.178,20l1.057-3.037h6.683L83.98,20l1.293.369a20.716,20.716,0,0,1,4.37,1.8l1.174.654L93.7,21.428l4.728,4.726-1.393,2.889.656,1.176a20.61,20.61,0,0,1,1.8,4.368l.371,1.293,3.031,1.057V43.62l-3.035,1.057L99.49,45.97a20.46,20.46,0,0,1-1.8,4.368l-.656,1.178,1.4,2.889L93.7,59.13l-2.887-1.4-1.176.654a20.482,20.482,0,0,1-4.368,1.8l-1.293.371L82.919,63.6H76.235L75.176,60.56l-1.293-.371a20.459,20.459,0,0,1-4.37-1.8l-1.176-.654-2.885,1.4L60.727,54.4l1.393-2.889-.656-1.178a20.42,20.42,0,0,1-1.8-4.368l-.371-1.293L56.26,43.62V36.936l3.033-1.057Z" transform="translate(42.192 9.73)" fill="#c38c71"/>
      <path id="Trazado_104396" data-name="Trazado 104396" d="M55.47,64.706,83.028,47.482A58.383,58.383,0,0,0,118.353,98l3.417,1.466L125.188,98a58.417,58.417,0,0,0,35.445-53.753V13.737h-3.084A53.387,53.387,0,0,1,123.427,1.38L121.769,0l-1.658,1.38A53.384,53.384,0,0,1,85.99,13.737H82.908V26.883a8.642,8.642,0,0,0-2.818,1.09L54.115,43.96a23.292,23.292,0,0,1-10.2,3.318,18.145,18.145,0,1,0-23.974,1.459A28.546,28.546,0,0,0,0,75.918V96.643A12.969,12.969,0,0,0,12.954,109.6v41.453a10.364,10.364,0,0,0,20.727,0V107.008H49.226v23.317a10.261,10.261,0,0,0,1.441,5.182H44.044v20.727h-5.18v5.18h114v-5.18h-5.182V104.417h-31.09v51.818h-5.18V119.962H80.316v36.272H75.134V135.507H68.513a10.261,10.261,0,0,0,1.441-5.182V99.234A12.97,12.97,0,0,0,57,86.28H51.814l0-14.983a7.725,7.725,0,0,1,3.652-6.59Zm66.3-58.011a58.605,58.605,0,0,0,33.681,12.185V44.245a53.238,53.238,0,0,1-32.3,48.989l-1.377.592-1.375-.592a53.24,53.24,0,0,1-32.3-48.918l1.114-.694a8.6,8.6,0,0,0,4.065-7.335v-.948a8.655,8.655,0,0,0-5.182-7.91v-8.55A58.605,58.605,0,0,0,121.769,6.694M28.5,52.6h9.384L31.09,61.333l-6.513-8.376A23.346,23.346,0,0,1,28.5,52.6M18.136,34.463A12.954,12.954,0,1,1,31.09,47.419,12.969,12.969,0,0,1,18.136,34.463M121.769,109.6H142.5v46.635H121.769ZM85.5,125.144h20.727v31.09H85.5Zm-15.545,31.09H49.225V140.689H69.952ZM57,91.463a7.783,7.783,0,0,1,7.773,7.772v31.09a5.181,5.181,0,1,1-10.363,0V107.008a5.188,5.188,0,0,0-5.182-5.182H28.5v49.226a5.181,5.181,0,1,1-10.363,0V91.463H57ZM46.635,71.3l0,14.983h-28.5V65.553H12.954v38.864a7.781,7.781,0,0,1-7.772-7.773V75.918A23.343,23.343,0,0,1,19.234,54.529L31.09,69.775l13.5-17.362a28.415,28.415,0,0,0,12.234-4.041L82.8,32.387a3.469,3.469,0,0,1,5.285,2.953v.948a3.446,3.446,0,0,1-1.629,2.942L52.723,60.316A12.865,12.865,0,0,0,46.635,71.3Z" transform="translate(0 0)" fill="#c38c71"/>
      <rect id="Rectángulo_5396" data-name="Rectángulo 5396" width="5.182" height="5.182" transform="translate(132.132 114.779)" fill="#fff"/>
      <rect id="Rectángulo_5397" data-name="Rectángulo 5397" width="5.182" height="5.182" transform="translate(132.132 125.142)" fill="#fff"/>
      <rect id="Rectángulo_5398" data-name="Rectángulo 5398" width="5.182" height="5.182" transform="translate(132.132 135.507)" fill="#fff"/>
      <rect id="Rectángulo_5399" data-name="Rectángulo 5399" width="5.182" height="5.182" transform="translate(95.862 130.324)" fill="#fff"/>
      <rect id="Rectángulo_5400" data-name="Rectángulo 5400" width="5.182" height="5.182" transform="translate(95.862 140.687)" fill="#fff"/>
      <rect id="Rectángulo_5401" data-name="Rectángulo 5401" width="5.182" height="5.182" transform="translate(59.589 145.869)" fill="#fff"/>
    </g>
  </g>
</svg>
