<svg id="Grupo_61017" data-name="Grupo 61017" xmlns="http://www.w3.org/2000/svg" xmlns:xlink="http://www.w3.org/1999/xlink" width="161.415" height="160.482" viewBox="0 0 161.415 160.482">
  <defs>
    <clipPath id="clip-path">
      <rect id="Rectángulo_5368" data-name="Rectángulo 5368" width="161.415" height="160.482" fill="none"/>
    </clipPath>
  </defs>
  <g id="Grupo_61016" data-name="Grupo 61016" clip-path="url(#clip-path)">
    <path id="Trazado_104353" data-name="Trazado 104353" d="M135.821,25.33V141.54a11.068,11.068,0,0,1-11.068,11.068H30.678a11.079,11.079,0,0,1-6.641-2.213,10.439,10.439,0,0,1-2.019-1.965,11.14,11.14,0,0,1-2.407-6.89V25.33A11.068,11.068,0,0,1,30.678,14.262h94.075A11.068,11.068,0,0,1,135.821,25.33" transform="translate(10.826 7.874)" fill="#c38c71"/>
    <path id="Trazado_104354" data-name="Trazado 104354" d="M120.816,24.16v91.308h-16.6A5.552,5.552,0,0,0,98.681,121v16.6H29.508a2.767,2.767,0,0,1-2.767-2.767V24.16a2.767,2.767,0,0,1,2.767-2.767h88.541a2.767,2.767,0,0,1,2.767,2.767" transform="translate(14.763 11.81)" fill="#e6e7e8"/>
    <path id="Trazado_104355" data-name="Trazado 104355" d="M67.231,85.171l-1.965,9.8L59.4,100.831a5.537,5.537,0,0,0,7.825,7.835l0,0L73.1,102.8l9.8-1.965,1.937-1.963,18.844-18.844V48.758Z" transform="translate(31.907 26.917)" fill="#d8d7da"/>
    <path id="Trazado_104356" data-name="Trazado 104356" d="M98.422,41.627,87.354,52.689V83.961L98.422,72.894Z" transform="translate(48.225 22.981)" fill="#8b5e3c"/>
    <path id="Trazado_104357" data-name="Trazado 104357" d="M53.525,103.417a27.14,27.14,0,0,1-3.016,7.25l3.956,5.285H29.508a2.767,2.767,0,0,1-2.767-2.767V60.613h5.535l1.3,9.187a27.068,27.068,0,0,1,7.25,3.016l7.444-5.589,7.83,7.83L50.509,82.5a27.109,27.109,0,0,1,3.016,7.248l9.187,1.3v11.068Z" transform="translate(14.763 33.462)" fill="#d8d7da"/>
    <path id="Trazado_104358" data-name="Trazado 104358" d="M108.859,38.315a11.04,11.04,0,0,0-7.8-3.266,10.6,10.6,0,0,0-3.708.664,10.839,10.839,0,0,0-4.122,2.6l-3.93,3.9,8.052,8.051,7.608,7.61,3.9-3.93a11.006,11.006,0,0,0,.067-15.566c-.022-.022-.043-.045-.067-.067" transform="translate(49.298 19.349)" fill="#c7b0a0"/>
    <path id="Trazado_104359" data-name="Trazado 104359" d="M99.435,47.718l-8.052-8.052-3.016,3.016v.028l-2.85,2.823,2.85,2.85,4.981,4.981,6.087,6.087,1.743,1.743,5.867-5.865Z" transform="translate(47.211 21.898)" fill="#f9d7c5"/>
    <path id="Trazado_104360" data-name="Trazado 104360" d="M95.228,82.006,73.092,104.142v-16.6a5.551,5.551,0,0,1,5.535-5.533Z" transform="translate(40.351 45.272)" fill="#d1d3d4"/>
    <path id="Trazado_104361" data-name="Trazado 104361" d="M95.228,82.006v19.368a2.767,2.767,0,0,1-2.767,2.767H73.092Z" transform="translate(40.351 45.272)" fill="#e6e7e8"/>
    <path id="Trazado_104362" data-name="Trazado 104362" d="M69.532,82.8,63.667,88.66a5.537,5.537,0,0,1-7.832-7.83L61.7,74.965Z" transform="translate(29.938 41.385)" fill="#787680"/>
    <path id="Trazado_104363" data-name="Trazado 104363" d="M78.606,83.038,76.669,85l-9.8,1.963-7.83-7.83,1.965-9.8,1.965-1.935,7.8,7.83H70.8Z" transform="translate(32.596 37.212)" fill="#898890"/>
    <path id="Trazado_104364" data-name="Trazado 104364" d="M101.585,46.3l-2.85-2.85L61.576,80.633l7.8,7.83h.028l32.179-32.207,4.981-4.981Z" transform="translate(33.994 23.985)" fill="#899d7b"/>
    <path id="Trazado_104365" data-name="Trazado 104365" d="M109.868,54.578l-6.087-6.087L98.8,53.471,66.621,85.678l7.8,7.8L98.8,69.1l11.068-11.068,1.743-1.715Z" transform="translate(36.779 26.77)" fill="#b1c5a5"/>
    <path id="Trazado_104366" data-name="Trazado 104366" d="M57.588,43.98a11.068,11.068,0,1,1-9.075-4.759,11.069,11.069,0,0,1,9.075,4.759" transform="translate(20.661 21.652)" fill="#f6d4b9"/>
    <rect id="Rectángulo_5354" data-name="Rectángulo 5354" width="60.872" height="8.3" transform="translate(58.105 35.971)" fill="#f9d7c5"/>
    <path id="Trazado_104367" data-name="Trazado 104367" d="M94.547,22.136a11.075,11.075,0,0,0-7.3-2.767h-8.3v-8.3a11.068,11.068,0,1,0-22.136,0v8.3H48.5A11.094,11.094,0,0,0,37.437,30.436v5.535H98.31V30.436a11.024,11.024,0,0,0-3.764-8.3" transform="translate(20.668 0)" fill="#f1a67e"/>
    <path id="Trazado_104368" data-name="Trazado 104368" d="M60.035,118.11l-3.376,3.376L52.2,125.94l-5.921-4.454-1.523-1.135a22.554,22.554,0,0,1-2.129,1.135,26.293,26.293,0,0,1-5.119,1.881l-.526,3.652H30.678a11.061,11.061,0,0,1-6.64-2.213l-.194-1.439c-.608-.166-1.245-.332-1.827-.526a11.136,11.136,0,0,1-2.407-6.89V71.294A24.761,24.761,0,0,1,23.844,69.8l1.3-9.185h5.533v52.571a2.766,2.766,0,0,0,2.767,2.766H58.4Z" transform="translate(10.826 33.463)" fill="#8b5e3c"/>
    <path id="Trazado_104369" data-name="Trazado 104369" d="M62.753,99.852a27.139,27.139,0,0,1-3.016,7.25l5.589,7.442-3.376,3.376L57.5,122.374l-5.921-4.454-1.523-1.135a22.56,22.56,0,0,1-2.129,1.135A26.276,26.276,0,0,1,42.8,119.8l-1.3,9.185H30.436l-1.3-9.185a27.123,27.123,0,0,1-7.25-3.017l-7.444,5.589-7.83-7.83L12.2,107.1a27.19,27.19,0,0,1-3.016-7.25L0,98.552V87.484l9.185-1.3A27.159,27.159,0,0,1,12.2,78.935L6.612,71.491l7.83-7.83,7.444,5.589a27.068,27.068,0,0,1,7.25-3.016l1.3-9.187H41.5l1.3,9.187a27.068,27.068,0,0,1,7.25,3.016L57.5,63.661l7.83,7.83-5.589,7.444a27.109,27.109,0,0,1,3.016,7.248l9.187,1.3V98.552Z" transform="translate(0 31.494)" fill="#f1a67e"/>
    <path id="Trazado_104370" data-name="Trazado 104370" d="M33.632,72.445a14.059,14.059,0,0,0-11.068,0,13.865,13.865,0,0,0,0,25.4,14.072,14.072,0,0,0,11.068,0,13.865,13.865,0,0,0,0-25.4" transform="translate(7.872 39.367)" fill="#f6d4b9"/>
    <rect id="Rectángulo_5355" data-name="Rectángulo 5355" width="5.533" height="5.533" transform="translate(85.775 8.302)" fill="#cc7400"/>
    <rect id="Rectángulo_5356" data-name="Rectángulo 5356" width="5.533" height="5.533" transform="translate(33.203 96.843)" fill="#f9d7c5"/>
    <rect id="Rectángulo_5357" data-name="Rectángulo 5357" width="5.533" height="5.533" transform="translate(14.433 106.895) rotate(-45)" fill="#f9d7c5"/>
    <rect id="Rectángulo_5358" data-name="Rectángulo 5358" width="5.533" height="5.533" transform="translate(8.3 121.745)" fill="#f9d7c5"/>
    <rect id="Rectángulo_5359" data-name="Rectángulo 5359" width="5.533" height="5.533" transform="translate(14.43 142.109) rotate(-45)" fill="#f9d7c5"/>
    <rect id="Rectángulo_5360" data-name="Rectángulo 5360" width="5.533" height="5.533" transform="translate(33.203 146.647)" fill="#f9d7c5"/>
    <rect id="Rectángulo_5361" data-name="Rectángulo 5361" width="5.533" height="5.533" transform="translate(49.643 142.112) rotate(-45)" fill="#f9d7c5"/>
    <rect id="Rectángulo_5362" data-name="Rectángulo 5362" width="5.533" height="5.533" transform="translate(58.105 121.745)" fill="#f9d7c5"/>
    <rect id="Rectángulo_5363" data-name="Rectángulo 5363" width="5.533" height="5.533" transform="translate(49.647 106.898) rotate(-45)" fill="#f9d7c5"/>
    <rect id="Rectángulo_5364" data-name="Rectángulo 5364" width="19.561" height="5.533" transform="translate(67.2 72.751) rotate(-45)" fill="#f1a67e"/>
    <rect id="Rectángulo_5365" data-name="Rectángulo 5365" width="5.533" height="5.533" transform="translate(88.542 63.639)" fill="#c6c5ca"/>
    <rect id="Rectángulo_5366" data-name="Rectángulo 5366" width="11.068" height="5.533" transform="translate(99.61 63.639)" fill="#c6c5ca"/>
    <rect id="Rectángulo_5367" data-name="Rectángulo 5367" width="16.601" height="5.533" transform="translate(88.542 74.707)" fill="#c6c5ca"/>
  </g>
</svg>
