<svg xmlns="http://www.w3.org/2000/svg" xmlns:xlink="http://www.w3.org/1999/xlink" width="145.705" height="191.284" viewBox="0 0 145.705 191.284">
  <defs>
    <clipPath id="clip-path">
      <rect id="Rectángulo_5408" data-name="Rectángulo 5408" width="145.705" height="191.284" fill="none"/>
    </clipPath>
  </defs>
  <g id="Grupo_61034" data-name="Grupo 61034" transform="translate(0 0)">
    <g id="Grupo_61033" data-name="Grupo 61033" transform="translate(0 0)" clip-path="url(#clip-path)">
      <path id="Trazado_104414" data-name="Trazado 104414" d="M85.7,63.059v28.02a11.242,11.242,0,0,1-11.207,11.21c-6.164,0-22.417-5.045-22.417-11.21V57.454h28.02a5.55,5.55,0,0,1,5.6,5.6" transform="translate(60.008 66.208)" fill="#e6cfcf"/>
      <path id="Trazado_104415" data-name="Trazado 104415" d="M123.288,157.287V5.6a5.605,5.605,0,0,0-5.6-5.6H5.6A5.6,5.6,0,0,0,0,5.6V151.682a16.812,16.812,0,0,0,16.812,16.812H134.5a11.24,11.24,0,0,1-11.207-11.207" transform="translate(0 -0.001)" fill="#fbecdf"/>
      <path id="Trazado_104416" data-name="Trazado 104416" d="M90.284,157.287V5.6a5.605,5.605,0,0,0-5.6-5.6H28.64V168.494h72.851a11.24,11.24,0,0,1-11.207-11.207" transform="translate(33.004 -0.001)" fill="#f6d4b9"/>
      <path id="Trazado_104417" data-name="Trazado 104417" d="M37.641,69.079H20.829v37a5.6,5.6,0,0,0,11.207,0,5.6,5.6,0,1,1,11.21,0,5.6,5.6,0,0,0,11.207,0v-37Z" transform="translate(24.003 79.604)" fill="#f1a67e"/>
      <path id="Trazado_104418" data-name="Trazado 104418" d="M34.245,106.076a5.6,5.6,0,1,0,11.207,0v-37H28.64v31.392a5.608,5.608,0,0,1,5.6,5.6" transform="translate(33.004 79.604)" fill="#ed8e64"/>
      <path id="Trazado_104419" data-name="Trazado 104419" d="M43.642,47.039a28.021,28.021,0,1,1-28.02,28.02,28.019,28.019,0,0,1,28.02-28.02" transform="translate(18.002 54.206)" fill="#fd3"/>
      <path id="Trazado_104420" data-name="Trazado 104420" d="M56.66,75.06A28.052,28.052,0,0,0,28.64,47.04v56.039A28.052,28.052,0,0,0,56.66,75.06" transform="translate(33.004 54.207)" fill="#fb3"/>
      <path id="Trazado_104421" data-name="Trazado 104421" d="M21.227,43.419a5.6,5.6,0,0,1-5.6-5.6V26.607a5.6,5.6,0,0,1,11.21,0V37.814a5.6,5.6,0,0,1-5.6,5.6" transform="translate(18.002 24.201)" fill="#f1a67e"/>
      <path id="Trazado_104422" data-name="Trazado 104422" d="M36.848,33a5.6,5.6,0,0,1-5.6-5.6V16.193a5.6,5.6,0,1,1,11.21,0V27.4a5.6,5.6,0,0,1-5.6,5.6" transform="translate(36.004 12.201)" fill="#c38c71"/>
      <path id="Trazado_104423" data-name="Trazado 104423" d="M26.434,33a5.6,5.6,0,0,1-5.6-5.6V16.193a5.6,5.6,0,0,1,11.21,0V27.4a5.6,5.6,0,0,1-5.6,5.6" transform="translate(24.003 12.201)" fill="#f1a67e"/>
      <path id="Trazado_104424" data-name="Trazado 104424" d="M42.056,43.419a5.6,5.6,0,0,1-5.6-5.6V26.607a5.6,5.6,0,0,1,11.21,0V37.814a5.6,5.6,0,0,1-5.6,5.6" transform="translate(42.005 24.201)" fill="#c38c71"/>
      <path id="Trazado_104425" data-name="Trazado 104425" d="M31.641,57.454a5.6,5.6,0,1,1-5.6,5.6,5.605,5.605,0,0,1,5.6-5.6" transform="translate(30.003 66.208)" fill="#fb3"/>
      <path id="Trazado_104426" data-name="Trazado 104426" d="M34.245,63.058a5.605,5.605,0,0,0-5.6-5.6v11.21a5.605,5.605,0,0,0,5.6-5.6" transform="translate(33.004 66.207)" fill="#f93"/>
      <path id="Trazado_104427" data-name="Trazado 104427" d="M83.266,36.625H16.018a5.6,5.6,0,0,0,0,11.207H83.266a5.6,5.6,0,1,0,0-11.207" transform="translate(12.002 42.205)" fill="#f1a67e"/>
      <path id="Trazado_104428" data-name="Trazado 104428" d="M67.869,42.229a5.6,5.6,0,0,0-5.6-5.6H28.64v11.21H62.264a5.6,5.6,0,0,0,5.6-5.6" transform="translate(33.004 42.204)" fill="#c38c71"/>
      <path id="Trazado_104429" data-name="Trazado 104429" d="M31.641,21a5.6,5.6,0,0,0-5.6,5.6V37.815a5.6,5.6,0,1,0,11.21,0V26.608a5.6,5.6,0,0,0-5.6-5.6" transform="translate(30.003 24.203)" fill="#f1a67e"/>
      <path id="Trazado_104430" data-name="Trazado 104430" d="M34.245,37.815V26.608a5.6,5.6,0,0,0-5.6-5.6V43.42a5.6,5.6,0,0,0,5.6-5.6" transform="translate(33.004 24.203)" fill="#c38c71"/>
    </g>
  </g>
</svg>
