<svg xmlns="http://www.w3.org/2000/svg" xmlns:xlink="http://www.w3.org/1999/xlink" width="1003.15" height="366.503" viewBox="0 0 1003.15 366.503">
  <defs>
    <clipPath id="clip-path">
      <rect id="Rectángulo_5194" data-name="Rectángulo 5194" width="1003.15" height="360.503" fill="none"/>
    </clipPath>
  </defs>
  <g id="Grupo_60921" data-name="Grupo 60921" transform="translate(0 6)">
    <g id="Grupo_60914" data-name="Grupo 60914" transform="translate(0 -6)">
      <g id="Grupo_60913" data-name="Grupo 60913" clip-path="url(#clip-path)">
        <path id="Trazado_103987" data-name="Trazado 103987" d="M0,188.467V323.436c0,11.176,10.225,20.238,22.845,20.238h411.9c12.619,0,22.845-9.063,22.845-20.239V188.467Z" transform="translate(0 16.829)" fill="#a8bc8b"/>
        <path id="Trazado_103988" data-name="Trazado 103988" d="M436.379,157.624V22.33C436.379,10,427.2,0,415.874,0H38.5c-11.326,0-20.5,10-20.5,22.326V182.114h0V317.409c0,12.33,9.177,22.328,20.506,22.328H415.876c11.326,0,20.5-10,20.5-22.327V157.624Z" transform="translate(1.607 0)" fill="#ededed"/>
        <path id="Trazado_103989" data-name="Trazado 103989" d="M500.841,188.467V323.436c0,11.176,10.225,20.238,22.845,20.238h411.9c12.619,0,22.845-9.063,22.845-20.239V188.467Z" transform="translate(44.721 16.829)" fill="#f1a67e"/>
        <path id="Trazado_103990" data-name="Trazado 103990" d="M937.22,157.624V22.33C937.22,10,928.044,0,916.715,0H539.338c-11.326,0-20.5,10-20.5,22.326V182.114h0V317.409c0,12.33,9.177,22.328,20.506,22.328H916.717c11.326,0,20.5-10,20.5-22.327V157.624Z" transform="translate(46.328 0)" fill="#ededed"/>
      </g>
    </g>
    <text id="Autorizaciones_ambientales" data-name="Autorizaciones ambientales" transform="translate(60.095 215.576)" fill="#456c3a" font-size="14" font-family="Roboto-Bold, Roboto" font-weight="700"><tspan x="0" y="0">Autorizaciones ambientales</tspan></text>
    <g id="Grupo_60916" data-name="Grupo 60916">
      <g id="Grupo_60915" data-name="Grupo 60915" clip-path="url(#clip-path)">
        <path id="Trazado_103991" data-name="Trazado 103991" d="M69.272,222.663a5.74,5.74,0,0,0-.5-1.137.213.213,0,0,0-.225-.1,5.739,5.739,0,0,0-1.163.435,3.342,3.342,0,0,0-1.668,1.589,3.082,3.082,0,0,0-.1,1.87,5.983,5.983,0,0,0-1.12-.975,8.706,8.706,0,0,0-.973-1.491.21.21,0,0,0-.326.266,8.288,8.288,0,0,1,.774,1.139l-1.912-.374-1.817-2.478a2.91,2.91,0,0,1,.529.054,3.611,3.611,0,0,1,1.639.845.21.21,0,0,0,.272-.32,4.042,4.042,0,0,0-1.831-.937,4.823,4.823,0,0,0-3.245.715,8.441,8.441,0,0,0-1.467,1.048.221.221,0,0,0-.025.289,8.593,8.593,0,0,0,.941,1.478,6.557,6.557,0,0,0,.992,1.02c-.1.083-.193.168-.285.258a4.853,4.853,0,0,0,1.571,7.966.21.21,0,0,0,.158-.389,4.457,4.457,0,0,1-.908-.5,2.37,2.37,0,0,0-.356-1.657c-.066-.1.133-.51.252-.754a4.048,4.048,0,0,0,.308-.753.577.577,0,0,0-.2-.63,1.539,1.539,0,0,0-.5-.221,1.073,1.073,0,0,1-.274-.108,2.787,2.787,0,0,1-.355-.578,3.65,3.65,0,0,0-.383-.631,4.459,4.459,0,0,1,1.325-1.746,3.67,3.67,0,0,0,1.769.658,1.581,1.581,0,0,0-.638,2.014c.4.824,1.225.692,1.952.576.126-.021.256-.041.381-.057.047-.007.061.007.071.015.159.142.154.818.15,1.313a3.049,3.049,0,0,0,.246,1.66.638.638,0,0,0,.527.256,1.066,1.066,0,0,0,.414-.094,1.955,1.955,0,0,0,1.192-1.733,2.285,2.285,0,0,1-.01-1.239,2.226,2.226,0,0,1,1.036-.864,4.468,4.468,0,0,1,.1,1.01,4.4,4.4,0,0,1-1.332,3.12,4.459,4.459,0,0,1-3.59,1.236.211.211,0,0,0-.046.418,4.881,4.881,0,0,0,3.929-1.355,4.851,4.851,0,0,0-.746-7.534c.277-.2.484-.368.6-.467a5.574,5.574,0,1,1-8.744,3.625.21.21,0,0,0-.414-.069,5.993,5.993,0,0,0,4.936,6.889,6.091,6.091,0,0,0,.99.081,6,6,0,0,0,5.483-8.384,6.116,6.116,0,0,0,.967-.381,2.9,2.9,0,0,0,1.646-3.894m-12.185,5.772a2.6,2.6,0,0,0,.458.7,1.212,1.212,0,0,0,.42.186c.41.126.458.188.418.351a3.583,3.583,0,0,1-.278.668c-.217.443-.422.863-.228,1.166a2,2,0,0,1,.318,1.113A4.475,4.475,0,0,1,56.9,228.1c.062.106.127.229.185.339m10.158-4.125-.6-1.447a3.93,3.93,0,0,1,.914-.62,5.757,5.757,0,0,1,.663-.279Zm1.367-2.183a5.438,5.438,0,0,1,.263.672,3.962,3.962,0,0,1,.191,1.012l-1.4.576Zm-2.51,1.491a1.989,1.989,0,0,1,.234-.408l.68,1.646-.61,1.457a5.656,5.656,0,0,1-.271-.691,3,3,0,0,1-.033-2m1.345,2.559a5.6,5.6,0,0,1-.643.271l.633-1.512,1.61-.664a2.084,2.084,0,0,1-.141.532,3.006,3.006,0,0,1-1.46,1.374m-7.571-.12c-.074-.014-.147-.033-.219-.052l2.323-1.7,1.913.374c-.7.549-2.393,1.7-4.017,1.382m-2.123-1.314a8.15,8.15,0,0,1-1.071-1.475l2.435.475Zm.429-2.8,1.02,1.389-2.451-.477a8.223,8.223,0,0,1,1.431-.912m1.626,1.508-1.234-1.684a4.647,4.647,0,0,1,1.173-.325l1.708,2.33Zm-.131.4,1.742.34-2.235,1.638a4.348,4.348,0,0,1-1.132-.785Zm5.7,4.1a2.643,2.643,0,0,0-1.3,1.107,2.546,2.546,0,0,0-.024,1.476,1.557,1.557,0,0,1-.941,1.282c-.21.09-.359.08-.444-.031a3.21,3.21,0,0,1-.158-1.4c0-.73.009-1.361-.292-1.628a.5.5,0,0,0-.4-.119c-.133.016-.267.038-.4.059-.772.123-1.258.172-1.51-.345-.407-.838.418-1.459.792-1.686a1.314,1.314,0,0,0,.212-.161,6.1,6.1,0,0,0,2.516-.981,4.457,4.457,0,0,1,1.948,2.431" transform="translate(4.926 19.733)" fill="#456c3a"/>
        <path id="Trazado_103992" data-name="Trazado 103992" d="M69.272,256.223a5.739,5.739,0,0,0-.5-1.137.213.213,0,0,0-.225-.1,5.738,5.738,0,0,0-1.163.435,3.342,3.342,0,0,0-1.668,1.589,3.082,3.082,0,0,0-.1,1.87,5.982,5.982,0,0,0-1.12-.975,8.7,8.7,0,0,0-.973-1.491.21.21,0,0,0-.326.266,8.292,8.292,0,0,1,.774,1.139l-1.912-.374-1.817-2.478a2.91,2.91,0,0,1,.529.055,3.611,3.611,0,0,1,1.639.845.21.21,0,0,0,.272-.32,4.042,4.042,0,0,0-1.831-.937,4.823,4.823,0,0,0-3.245.715,8.443,8.443,0,0,0-1.467,1.048.221.221,0,0,0-.025.289,8.591,8.591,0,0,0,.941,1.478,6.556,6.556,0,0,0,.992,1.02c-.1.083-.193.168-.285.258a4.853,4.853,0,0,0,1.571,7.966A.21.21,0,0,0,59.5,267a4.459,4.459,0,0,1-.908-.5,2.37,2.37,0,0,0-.356-1.657c-.066-.1.133-.51.252-.754a4.049,4.049,0,0,0,.308-.753.577.577,0,0,0-.2-.63,1.539,1.539,0,0,0-.5-.221,1.073,1.073,0,0,1-.274-.108,2.788,2.788,0,0,1-.355-.578,3.649,3.649,0,0,0-.383-.631,4.458,4.458,0,0,1,1.325-1.746,3.671,3.671,0,0,0,1.769.658,1.581,1.581,0,0,0-.638,2.014c.4.823,1.225.692,1.952.576.126-.021.256-.041.381-.057.047-.007.061.007.071.015.159.142.154.818.15,1.313a3.049,3.049,0,0,0,.246,1.66.638.638,0,0,0,.527.256,1.066,1.066,0,0,0,.414-.094,1.955,1.955,0,0,0,1.192-1.733,2.285,2.285,0,0,1-.01-1.239,2.226,2.226,0,0,1,1.036-.864,4.468,4.468,0,0,1,.1,1.01,4.4,4.4,0,0,1-1.332,3.12,4.459,4.459,0,0,1-3.59,1.236.211.211,0,0,0-.046.418,4.881,4.881,0,0,0,3.929-1.355,4.851,4.851,0,0,0-.746-7.534c.277-.2.484-.368.6-.467a5.574,5.574,0,1,1-8.744,3.625.21.21,0,0,0-.414-.069,5.993,5.993,0,0,0,4.936,6.889,6.092,6.092,0,0,0,.99.081,6,6,0,0,0,5.483-8.384,6.115,6.115,0,0,0,.967-.381,2.9,2.9,0,0,0,1.646-3.894M57.087,262a2.6,2.6,0,0,0,.458.7,1.212,1.212,0,0,0,.42.186c.41.126.458.188.418.351a3.583,3.583,0,0,1-.278.668c-.217.443-.422.863-.228,1.166a2,2,0,0,1,.318,1.113,4.476,4.476,0,0,1-1.294-4.527c.062.106.127.229.185.339m10.158-4.125-.6-1.447a3.93,3.93,0,0,1,.914-.62,5.748,5.748,0,0,1,.663-.279Zm1.367-2.183a5.441,5.441,0,0,1,.263.672,3.962,3.962,0,0,1,.191,1.012l-1.4.576Zm-2.51,1.491a1.987,1.987,0,0,1,.234-.408l.68,1.646-.61,1.457a5.659,5.659,0,0,1-.271-.691,3,3,0,0,1-.033-2m1.345,2.559a5.6,5.6,0,0,1-.643.271l.633-1.512,1.61-.664a2.084,2.084,0,0,1-.141.532,3.007,3.007,0,0,1-1.46,1.374m-7.571-.12c-.074-.014-.147-.033-.219-.052l2.323-1.7,1.913.374c-.7.549-2.393,1.7-4.017,1.382M57.754,258.3a8.15,8.15,0,0,1-1.071-1.475l2.435.475Zm.429-2.8,1.02,1.389-2.451-.477a8.221,8.221,0,0,1,1.431-.912m1.626,1.508-1.234-1.684A4.647,4.647,0,0,1,59.748,255l1.708,2.33Zm-.131.4,1.742.34-2.235,1.638a4.348,4.348,0,0,1-1.132-.785Zm5.7,4.1a2.643,2.643,0,0,0-1.3,1.107,2.546,2.546,0,0,0-.024,1.476,1.557,1.557,0,0,1-.941,1.282c-.21.09-.359.08-.444-.03a3.21,3.21,0,0,1-.158-1.4c0-.73.009-1.361-.292-1.629a.5.5,0,0,0-.4-.119c-.133.016-.267.038-.4.059-.772.123-1.258.172-1.51-.345-.407-.838.418-1.459.792-1.686a1.314,1.314,0,0,0,.212-.161,6.1,6.1,0,0,0,2.516-.981,4.457,4.457,0,0,1,1.948,2.431" transform="translate(4.926 22.73)" fill="#456c3a"/>
      </g>
    </g>
    <text id="Introducir_elementos_ambientales._" data-name="Introducir elementos ambientales. " transform="translate(78.459 253.395)" fill="#456c3a" font-size="14" font-family="Roboto-Regular, Roboto"><tspan x="0" y="0">Int</tspan><tspan y="0" letter-spacing="-0.009em">r</tspan><tspan y="0">oducir elementos ambientales. </tspan></text>
    <text id="Derecho_del_uso_de_los_recursos_" data-name="Derecho del uso de los recursos " transform="translate(78.459 289.995)" fill="#456c3a" font-size="14" font-family="Roboto-Regular, Roboto"><tspan x="0" y="0">De</tspan><tspan y="0" letter-spacing="-0.009em">r</tspan><tspan y="0">echo del uso de los </tspan><tspan y="0" letter-spacing="-0.01em">r</tspan><tspan y="0">ecursos </tspan></text>
    <text id="naturales." transform="translate(77.459 308.296)" fill="#456c3a" font-size="14" font-family="Roboto-Regular, Roboto"><tspan x="0" y="0">naturales.</tspan></text>
    <text id="Trámites_ambientales." data-name="Trámites ambientales." transform="translate(625.464 215.575)" fill="#d9936e" font-size="14" font-family="Roboto-Bold, Roboto" font-weight="700"><tspan x="0" y="0" letter-spacing="-0.037em">T</tspan><tspan y="0">rámites ambientales.</tspan></text>
    <g id="Grupo_60918" data-name="Grupo 60918">
      <g id="Grupo_60917" data-name="Grupo 60917" clip-path="url(#clip-path)">
        <path id="Trazado_103993" data-name="Trazado 103993" d="M588.3,222.663a5.745,5.745,0,0,0-.5-1.137.213.213,0,0,0-.225-.1,5.74,5.74,0,0,0-1.163.435,3.342,3.342,0,0,0-1.668,1.589,3.083,3.083,0,0,0-.1,1.87,5.983,5.983,0,0,0-1.12-.975,8.708,8.708,0,0,0-.973-1.491.21.21,0,0,0-.326.266,8.279,8.279,0,0,1,.775,1.139l-1.912-.374-1.817-2.478a2.911,2.911,0,0,1,.529.054,3.611,3.611,0,0,1,1.639.845.21.21,0,0,0,.272-.32,4.042,4.042,0,0,0-1.831-.937,4.823,4.823,0,0,0-3.245.715,8.435,8.435,0,0,0-1.467,1.048.221.221,0,0,0-.025.289,8.588,8.588,0,0,0,.941,1.478,6.552,6.552,0,0,0,.992,1.02c-.1.083-.193.168-.286.258a4.853,4.853,0,0,0,1.571,7.966.21.21,0,0,0,.158-.389,4.456,4.456,0,0,1-.908-.5,2.371,2.371,0,0,0-.356-1.657c-.067-.1.133-.51.252-.754a4.045,4.045,0,0,0,.308-.753.576.576,0,0,0-.2-.63,1.539,1.539,0,0,0-.5-.221,1.072,1.072,0,0,1-.275-.108,2.782,2.782,0,0,1-.355-.578,3.653,3.653,0,0,0-.383-.631,4.458,4.458,0,0,1,1.325-1.746,3.67,3.67,0,0,0,1.769.658,1.582,1.582,0,0,0-.638,2.014c.4.824,1.225.692,1.952.576.126-.021.256-.041.381-.057.047-.007.061.007.071.015.159.142.154.818.15,1.313a3.049,3.049,0,0,0,.246,1.66.638.638,0,0,0,.527.256,1.066,1.066,0,0,0,.414-.094,1.955,1.955,0,0,0,1.192-1.733,2.284,2.284,0,0,1-.01-1.239,2.226,2.226,0,0,1,1.036-.864,4.466,4.466,0,0,1,.1,1.01,4.4,4.4,0,0,1-1.332,3.12,4.461,4.461,0,0,1-3.59,1.236.211.211,0,0,0-.046.418,4.881,4.881,0,0,0,3.929-1.355,4.851,4.851,0,0,0-.746-7.534c.277-.2.484-.368.6-.467a5.574,5.574,0,1,1-8.744,3.625.21.21,0,0,0-.414-.069,5.993,5.993,0,0,0,4.936,6.889,6.092,6.092,0,0,0,.99.081,6,6,0,0,0,5.484-8.384,6.12,6.12,0,0,0,.967-.381,2.895,2.895,0,0,0,1.646-3.894m-12.185,5.772a2.608,2.608,0,0,0,.457.7,1.213,1.213,0,0,0,.421.186c.41.126.457.188.418.351a3.586,3.586,0,0,1-.278.668c-.217.443-.422.863-.228,1.166a2,2,0,0,1,.318,1.113,4.476,4.476,0,0,1-1.294-4.527c.062.106.127.229.185.339m10.158-4.125-.6-1.447a3.931,3.931,0,0,1,.914-.62,5.767,5.767,0,0,1,.663-.279Zm1.367-2.183a5.435,5.435,0,0,1,.263.672,3.955,3.955,0,0,1,.191,1.012l-1.4.576Zm-2.51,1.491a1.989,1.989,0,0,1,.234-.408l.68,1.646-.61,1.457a5.637,5.637,0,0,1-.271-.691,3,3,0,0,1-.033-2m1.345,2.559a5.6,5.6,0,0,1-.643.271l.633-1.512,1.61-.664a2.082,2.082,0,0,1-.141.532,3.006,3.006,0,0,1-1.46,1.374m-7.571-.12c-.074-.014-.147-.033-.219-.052l2.323-1.7,1.913.374c-.7.549-2.393,1.7-4.017,1.382m-2.123-1.314a8.149,8.149,0,0,1-1.071-1.475l2.435.475Zm.429-2.8,1.02,1.389-2.451-.477a8.227,8.227,0,0,1,1.431-.912m1.626,1.508-1.234-1.684a4.647,4.647,0,0,1,1.173-.325l1.708,2.33Zm-.131.4,1.742.34-2.235,1.638a4.343,4.343,0,0,1-1.132-.785Zm5.7,4.1a2.643,2.643,0,0,0-1.3,1.107,2.547,2.547,0,0,0-.024,1.476,1.557,1.557,0,0,1-.941,1.282c-.21.09-.359.08-.444-.031a3.212,3.212,0,0,1-.158-1.4c0-.73.009-1.361-.292-1.628a.5.5,0,0,0-.4-.119c-.133.016-.267.038-.4.059-.772.123-1.258.172-1.51-.345-.407-.838.418-1.459.792-1.686a1.316,1.316,0,0,0,.212-.161,6.094,6.094,0,0,0,2.516-.981,4.457,4.457,0,0,1,1.948,2.431" transform="translate(51.272 19.733)" fill="#c38c71"/>
      </g>
    </g>
    <text id="Obtener_licencias_o_permisos." data-name="Obtener licencias o permisos." transform="translate(643.834 253.396)" fill="#c38c71" font-size="14" font-family="Roboto-Regular, Roboto"><tspan x="0" y="0">Obtener licencias o permisos.</tspan></text>
    <g id="Grupo_60920" data-name="Grupo 60920">
      <g id="Grupo_60919" data-name="Grupo 60919" clip-path="url(#clip-path)">
        <path id="Trazado_103994" data-name="Trazado 103994" d="M153.223,136.989v-9.978a41.724,41.724,0,0,0-3.372-16.434l-.206-.483A41.688,41.688,0,0,1,146.27,93.66V91.217c0-7.614,5.869-14.253,13.477-14.483a13.91,13.91,0,0,1,14.335,13.9V93.66a41.724,41.724,0,0,1-3.372,16.434l-.206.483a41.707,41.707,0,0,0-3.375,16.434v9.978" transform="translate(13.061 6.851)" fill="#899d7b"/>
        <path id="Trazado_103995" data-name="Trazado 103995" d="M169.446,94.89a13.907,13.907,0,0,0-14.335-13.9,13.291,13.291,0,0,0-6.591,1.988,14.876,14.876,0,0,0-2.25,7.86v2.443a41.728,41.728,0,0,0,3.372,16.434l.206.481a41.674,41.674,0,0,1,3.375,16.433v9.978h9.271v-5.343a41.724,41.724,0,0,1,3.372-16.434l.206-.483a41.688,41.688,0,0,0,3.375-16.434Z" transform="translate(13.061 7.231)" fill="#a8bc8b"/>
        <path id="Trazado_103996" data-name="Trazado 103996" d="M135.631,141.32a9.272,9.272,0,0,1,9.271-9.271H177.35a9.271,9.271,0,0,1,9.27,9.271" transform="translate(12.111 11.791)" fill="#ba9c90"/>
        <path id="Trazado_103997" data-name="Trazado 103997" d="M177.244,136.3H144.8a9.225,9.225,0,0,0-7.983,4.635h48.418a9.234,9.234,0,0,0-7.987-4.635" transform="translate(12.216 12.171)" fill="#edd0c4"/>
        <rect id="Rectángulo_5197" data-name="Rectángulo 5197" width="60.26" height="13.906" transform="translate(143.107 153.111)" fill="#876b60"/>
        <rect id="Rectángulo_5198" data-name="Rectángulo 5198" width="60.26" height="9.271" transform="translate(143.107 157.746)" fill="#ba9c90"/>
        <path id="Trazado_103998" data-name="Trazado 103998" d="M256.606,39.57V25.664H182.441V132.277h9.27" transform="translate(16.291 2.292)" fill="#717171"/>
        <path id="Trazado_103999" data-name="Trazado 103999" d="M190.951,140.788h74.166V48.081H251.211V34.175h-60.26Z" transform="translate(17.05 3.052)" fill="#a6a6a6"/>
        <path id="Trazado_104000" data-name="Trazado 104000" d="M260.177,48.081,246.272,34.175V48.081Z" transform="translate(21.99 3.052)" fill="#717171"/>
        <rect id="Rectángulo_5199" data-name="Rectángulo 5199" width="41.719" height="13.906" transform="translate(217.272 46.496)" fill="#f1f1f1"/>
        <rect id="Rectángulo_5200" data-name="Rectángulo 5200" width="60.26" height="4.635" transform="translate(214.954 67.356)" fill="#f1f1f1"/>
        <rect id="Rectángulo_5201" data-name="Rectángulo 5201" width="60.26" height="4.635" transform="translate(214.954 76.626)" fill="#f1f1f1"/>
        <path id="Trazado_104001" data-name="Trazado 104001" d="M240.426,97.329c-.041,0-.082,0-.125,0a2.316,2.316,0,0,1-1.8-1.028l-4.636-6.954,3.857-2.571,2.913,4.371,9.6-11.521,3.563,2.967L242.208,96.5a2.321,2.321,0,0,1-1.782.832" transform="translate(20.882 7.11)" fill="#f1f1f1"/>
        <path id="Trazado_104002" data-name="Trazado 104002" d="M240.426,112.223c-.041,0-.082,0-.125,0a2.316,2.316,0,0,1-1.8-1.028l-4.636-6.954,3.857-2.571,2.913,4.371,9.6-11.521,3.563,2.967-11.589,13.906a2.321,2.321,0,0,1-1.782.832" transform="translate(20.882 8.44)" fill="#f1f1f1"/>
        <path id="Trazado_104003" data-name="Trazado 104003" d="M240.426,127.117c-.041,0-.082,0-.125,0a2.316,2.316,0,0,1-1.8-1.028l-4.636-6.954,3.857-2.571,2.913,4.371,9.6-11.521,3.563,2.967-11.589,13.906a2.321,2.321,0,0,1-1.782.832" transform="translate(20.882 9.77)" fill="#f1f1f1"/>
        <rect id="Rectángulo_5202" data-name="Rectángulo 5202" width="37.083" height="4.635" transform="translate(214.954 132.251)" fill="#f1f1f1"/>
        <rect id="Rectángulo_5203" data-name="Rectángulo 5203" width="37.083" height="4.635" transform="translate(214.954 116.027)" fill="#f1f1f1"/>
        <rect id="Rectángulo_5204" data-name="Rectángulo 5204" width="37.083" height="4.635" transform="translate(214.954 99.804)" fill="#f1f1f1"/>
        <path id="Trazado_104004" data-name="Trazado 104004" d="M762.56,46.23v-.159a2.744,2.744,0,0,0-.755-1.892l-.065-.075a2.723,2.723,0,0,1,.83,1.967A.813.813,0,0,1,762.56,46.23Z" transform="translate(68.018 3.938)" fill="#3d4753"/>
        <path id="Trazado_104005" data-name="Trazado 104005" d="M765.771,102.924V50.478H750.113a2.75,2.75,0,0,1-2.75-2.75V31.166H669.776v130.9h95.995V139.722l5.5-5.492v30.6a2.75,2.75,0,0,1-2.752,2.752h-101.5a2.75,2.75,0,0,1-2.75-2.752V28.414a2.75,2.75,0,0,1,2.75-2.75h83.3l.2.027a2.677,2.677,0,0,1,.271.057c.009,0,.009,0,.018.009a.835.835,0,0,1,.121.038.692.692,0,0,1,.131.046c.047.019.084.028.131.047s.084.037.121.057a2.519,2.519,0,0,1,.224.121l.084.056c.009.01.027.019.037.028s.028.019.037.028.028.019.037.027.01.01.018.01c.038.027.065.056.1.084s.065.056.1.084c.018.009.028.028.047.037s.027.028.037.037.009.01.018.019l.037.038,18.344,19.238.065.074a2.764,2.764,0,0,1,.755,1.893v49.7Z" transform="translate(59.315 2.292)" fill="#3d4753"/>
        <path id="Trazado_104006" data-name="Trazado 104006" d="M743.471,25.691c-.074-.009-.139-.019-.2-.027.074.009.139.019.2.027" transform="translate(66.368 2.292)" fill="#3d4753"/>
        <path id="Trazado_104007" data-name="Trazado 104007" d="M732.7,58.544h-35.3a2.751,2.751,0,1,1,0-5.5h35.3a2.751,2.751,0,1,1,0,5.5" transform="translate(62.027 4.736)" fill="#3d4753"/>
        <path id="Trazado_104008" data-name="Trazado 104008" d="M727.083,48.467H702.176a2.751,2.751,0,1,1,0-5.5h24.908a2.751,2.751,0,0,1,0,5.5" transform="translate(62.453 3.836)" fill="#3d4753"/>
        <path id="Trazado_104009" data-name="Trazado 104009" d="M692.873,68.134H680.079a2.75,2.75,0,0,0-2.752,2.752V83.671a2.75,2.75,0,0,0,2.752,2.75h12.785a2.75,2.75,0,0,0,2.752-2.75V70.886a2.737,2.737,0,0,0-2.743-2.752m.076,6.743-6.808,6.817a1.419,1.419,0,0,1-1.007.419,1.4,1.4,0,0,1-.962-.373l-4.131-3.777a1.423,1.423,0,0,1,1.913-2.108l3.123,2.854,5.856-5.857a1.428,1.428,0,0,1,2.015,2.024" transform="translate(60.48 6.084)" fill="#f1a67e"/>
        <path id="Trazado_104010" data-name="Trazado 104010" d="M751.079,84.535H703a2.751,2.751,0,1,1,0-5.5h48.081a2.751,2.751,0,0,1,0,5.5" transform="translate(62.527 7.057)" fill="#3d4753"/>
        <path id="Trazado_104011" data-name="Trazado 104011" d="M751.079,74.476H703a2.751,2.751,0,1,1,0-5.5h48.081a2.751,2.751,0,0,1,0,5.5" transform="translate(62.527 6.159)" fill="#3d4753"/>
        <path id="Trazado_104012" data-name="Trazado 104012" d="M692.873,94.981H680.079a2.75,2.75,0,0,0-2.752,2.752v12.785a2.75,2.75,0,0,0,2.752,2.75h12.785a2.75,2.75,0,0,0,2.752-2.75V97.733a2.737,2.737,0,0,0-2.743-2.752m.076,6.743-6.818,6.817a1.418,1.418,0,0,1-1.008.419,1.4,1.4,0,0,1-.96-.373l-4.132-3.777a1.423,1.423,0,0,1,1.912-2.108l3.125,2.854,5.855-5.857a1.432,1.432,0,0,1,2.025,2.024" transform="translate(60.48 8.481)" fill="#f1a67e"/>
        <path id="Trazado_104013" data-name="Trazado 104013" d="M739.1,111.382H703a2.751,2.751,0,1,1,0-5.5h36.1a2.751,2.751,0,0,1,0,5.5" transform="translate(62.527 9.454)" fill="#3d4753"/>
        <path id="Trazado_104014" data-name="Trazado 104014" d="M751.079,101.323H703a2.751,2.751,0,1,1,0-5.5h48.081a2.751,2.751,0,0,1,0,5.5" transform="translate(62.527 8.556)" fill="#3d4753"/>
        <path id="Trazado_104015" data-name="Trazado 104015" d="M692.873,121.828H680.079a2.75,2.75,0,0,0-2.752,2.752v12.785a2.75,2.75,0,0,0,2.752,2.75h12.785a2.75,2.75,0,0,0,2.752-2.75V124.58a2.737,2.737,0,0,0-2.743-2.752m.076,6.743-6.818,6.817a1.418,1.418,0,0,1-1.008.419,1.4,1.4,0,0,1-.96-.373l-4.132-3.777a1.423,1.423,0,1,1,1.912-2.108l3.125,2.854,5.855-5.857a1.432,1.432,0,0,1,2.025,2.024Z" transform="translate(60.48 10.878)" fill="#f1a67e"/>
        <path id="Trazado_104016" data-name="Trazado 104016" d="M727.132,138.229H703a2.751,2.751,0,0,1,0-5.5h24.134a2.751,2.751,0,1,1,0,5.5" transform="translate(62.527 11.851)" fill="#3d4753"/>
        <path id="Trazado_104017" data-name="Trazado 104017" d="M723.8,128.17H703a2.751,2.751,0,0,1,0-5.5H723.8a2.751,2.751,0,0,1,0,5.5" transform="translate(62.527 10.953)" fill="#3d4753"/>
        <path id="Trazado_104018" data-name="Trazado 104018" d="M797.521,81.578a6.41,6.41,0,0,0-10.939-4.533l-1.008,1.008-.064-.065a2.077,2.077,0,0,0-2.938,0l-6.426,6.426,2.938,2.937,6.248,6.248,2.938,2.938,6.425-6.426a2.095,2.095,0,0,0,0-2.947l-.065-.065,1.008-1.008a6.25,6.25,0,0,0,1.883-4.513" transform="translate(69.304 6.712)" fill="#f1a67e"/>
        <path id="Trazado_104019" data-name="Trazado 104019" d="M780,89.29l-2.938-2.938L743.423,119.98a.409.409,0,0,0-.065.075.427.427,0,0,0-.057.064c-.009.01-.02.028-.028.038-.017.027-.037.056-.055.084s-.028.047-.048.065c0,.009-.009.009-.009.019s-.01.019-.02.027l-7.9,12.609a2.087,2.087,0,0,0,.288,2.574l.765.765-2.536,2.536a2.077,2.077,0,0,0,2.937,2.938l2.538-2.537L740,140a2.087,2.087,0,0,0,2.575.29l12.569-7.871.037-.019a.233.233,0,0,0,.048-.027l.083-.057a.622.622,0,0,0,.122-.1l.057-.056c.017-.019.037-.028.054-.047l.02-.019,33.618-33.609-2.937-2.938Zm-38.233,46.6-1.063-1.063-.011-.009-.009-.01-1.063-1.063,5.633-8.99,5.492,5.5Z" transform="translate(65.465 7.711)" fill="#f1a67e"/>
      </g>
    </g>
  </g>
</svg>
