<svg id="Grupo_60911" data-name="Grupo 60911" xmlns="http://www.w3.org/2000/svg" xmlns:xlink="http://www.w3.org/1999/xlink" width="1044.661" height="505.783" viewBox="0 0 1044.661 505.783">
  <defs>
    <clipPath id="clip-path">
      <rect id="Rectángulo_5183" data-name="Rectángulo 5183" width="1044.661" height="505.783" fill="none"/>
    </clipPath>
  </defs>
  <g id="Grupo_60902" data-name="Grupo 60902">
    <g id="Grupo_60901" data-name="Grupo 60901" clip-path="url(#clip-path)">
      <path id="Trazado_103930" data-name="Trazado 103930" d="M492.158,183.755H411.369a4.521,4.521,0,0,1-4.522-4.521v-20.2a4.521,4.521,0,0,1,4.522-4.521h80.789a4.52,4.52,0,0,1,4.521,4.521v20.2a4.52,4.52,0,0,1-4.521,4.521" transform="translate(73.249 27.819)" fill="#537e39"/>
      <path id="Trazado_103931" data-name="Trazado 103931" d="M448.627,252.392V24.828h-3.21V252.392c.533-.04,1.066,0,1.6,0s1.071-.04,1.606,0" transform="translate(80.193 4.47)" fill="#537e39"/>
      <path id="Trazado_103932" data-name="Trazado 103932" d="M511.75,62.451A56.372,56.372,0,1,1,455.377,6.079,56.373,56.373,0,0,1,511.75,62.451" transform="translate(71.837 1.094)" fill="#537e39"/>
      <path id="Trazado_103933" data-name="Trazado 103933" d="M456.472,127.09a63.545,63.545,0,1,1,63.544-63.544,63.617,63.617,0,0,1-63.544,63.544m0-123.881a60.336,60.336,0,1,0,60.334,60.337A60.405,60.405,0,0,0,456.472,3.21" transform="translate(70.742 0)" fill="#537e39"/>
      <path id="Trazado_103934" data-name="Trazado 103934" d="M912.3,255.462v-19.08c0-12.036-9.289-20.123-23.113-20.123H88.827c-19.467,0-22.092,10.172-22.092,20.123v18.251h3.209V236.382c0-10.442,3.159-16.913,18.883-16.913H889.185c11.9,0,19.9,6.8,19.9,16.913v19c.105,0,.21-.008.315-.008.972,0,1.935.037,2.895.093" transform="translate(12.015 38.935)" fill="#899d7b"/>
    </g>
  </g>
  <text id="Servicios_eco_" data-name="Servicios eco " transform="translate(617.32 61.427)" fill="#456c3a" font-size="15" font-family="Roboto-Bold, Roboto" font-weight="700"><tspan x="0" y="0">Se</tspan><tspan y="0" letter-spacing="0.014em">r</tspan><tspan y="0">vicios eco </tspan></text>
  <text id="sistémicos" transform="translate(626.604 81.251)" fill="#456c3a" font-size="15" font-family="Roboto-Bold, Roboto" font-weight="700"><tspan x="0" y="0">sistémicos</tspan></text>
  <text id="Servicios_de_" data-name="Servicios de " transform="translate(33.219 429.917)" fill="#456c3a" font-size="15" font-family="Roboto-Bold, Roboto" font-weight="700"><tspan x="0" y="0">Se</tspan><tspan y="0" letter-spacing="0.014em">r</tspan><tspan y="0">vicios de </tspan></text>
  <text id="aprovisionamiento:_" data-name="aprovisionamiento: " transform="translate(7.232 449.743)" fill="#456c3a" font-size="15" font-family="Roboto-Bold, Roboto" font-weight="700"><tspan x="0" y="0">apr</tspan><tspan y="0" letter-spacing="-0.007em">o</tspan><tspan y="0">visionamiento: </tspan></text>
  <text id="Comida_y_agua." data-name="Comida y agua." transform="translate(21.341 469.567)" fill="#456c3a" font-size="15" font-family="Roboto-Regular, Roboto"><tspan x="0" y="0">Comida y agua.</tspan></text>
  <text id="Servicios_de_regulación:_" data-name="Servicios de regulación: " transform="translate(264.143 429.917)" fill="#456c3a" font-size="15" font-family="Roboto-Bold, Roboto" font-weight="700"><tspan x="0" y="0">Se</tspan><tspan y="0" letter-spacing="0.014em">r</tspan><tspan y="0">vicios de regulación: </tspan></text>
  <text id="regulación_de_inundaciones_" data-name="regulación de inundaciones, " transform="translate(249.391 449.743)" fill="#456c3a" font-size="15" font-family="Roboto-Regular, Roboto"><tspan x="0" y="0" letter-spacing="-0.009em">r</tspan><tspan y="0">egulación de inundaciones, </tspan></text>
  <text id="seguías_degradaciones_del_" data-name="seguías, degradaciones del " transform="translate(252.315 469.567)" fill="#456c3a" font-size="15" font-family="Roboto-Regular, Roboto"><tspan x="0" y="0">seguías, degradaciones del </tspan></text>
  <text id="terreno_y_enfermedades." data-name="terreno y enfermedades." transform="translate(262.855 489.391)" fill="#456c3a" font-size="15" font-family="Roboto-Regular, Roboto"><tspan x="0" y="0">ter</tspan><tspan y="0" letter-spacing="-0.009em">r</tspan><tspan y="0">eno y en</tspan><tspan y="0" letter-spacing="-0.012em">f</tspan><tspan y="0">ermedades.</tspan></text>
  <g id="Grupo_60904" data-name="Grupo 60904">
    <g id="Grupo_60903" data-name="Grupo 60903" clip-path="url(#clip-path)">
      <path id="Trazado_103935" data-name="Trazado 103935" d="M491.278,71.307l-.031-.031-5.536-6.364c.046-.689.061-1.395.061-2.085a32.726,32.726,0,0,0-4.11-15.916A8.88,8.88,0,0,0,469.2,34.261a32.847,32.847,0,0,0-16.254-4.34c.031-.322.061-.66.061-1a8.882,8.882,0,0,0-16.913-3.788,7.158,7.158,0,0,0-1.166,10.12,33.3,33.3,0,0,0-7.13,6.3l-.276.276V41.9a35.071,35.071,0,0,0-3.19,4.584,32.866,32.866,0,0,0-4.339,16.346c0,.675.015,1.35.061,2.024l-5.566,6.395-.046.061a6.836,6.836,0,0,0-1.227,5.858,7.293,7.293,0,0,0,3.036,4.462l2.99,1.5,1.78,6.915a5.793,5.793,0,0,0,5,4.31l.337.031c.2.015.4.031.6.031a6.221,6.221,0,0,0,1.5-.2l3.879,2.5.061.031a5.292,5.292,0,0,0,2.24.505c.214,0,.413-.015.612-.031l3.236,2.086.061.031a4.8,4.8,0,0,0,5.152-.675l1.718.951.092.031a3.84,3.84,0,0,0,1.165.184,3.992,3.992,0,0,0,3.635-2.347l.8-1.778q.9.046,1.794.046c.568,0,1.149-.015,1.732-.046l.8,1.778a3.975,3.975,0,0,0,3.635,2.347,3.851,3.851,0,0,0,1.165-.184l.077-.015,1.826-.89a4.8,4.8,0,0,0,5.075.614l.046-.031,3.234-2.086a4.112,4.112,0,0,0,.614.031,5.063,5.063,0,0,0,2.239-.505l.061-.031,3.88-2.5a6.121,6.121,0,0,0,1.5.2c.2,0,.4-.015.6-.031l.337-.031a5.8,5.8,0,0,0,5-4.31l1.78-6.915,2.989-1.5a7.223,7.223,0,0,0,3.036-4.462,7.02,7.02,0,0,0-1.241-5.873m-7.636-12.819-2.714,1.318L477.8,66.324l-9.139,2.254-4.124-5.351,5.244-7.283-1.212-2.668,3.466-3.665a6.954,6.954,0,0,0,1.487-.215v8.787h1.841V49.5h.031a9.622,9.622,0,0,0,4.815-1.425A30.962,30.962,0,0,1,483.642,58.488ZM468.967,37.8A7.035,7.035,0,1,1,480.5,45.484a8.8,8.8,0,0,1-5.091,2.178h-.031V46.573l3.863-3.343-1.2-1.395-2.668,2.3v-3.45h-1.841v1.2l-1.487-.8-.874,1.625,2.361,1.273v3.512a.448.448,0,0,0-.138.031,4.868,4.868,0,0,1-1.625.261c-.506-.031-1.058-.107-1.074-.107a5.306,5.306,0,0,1-2.039-9.492,1.03,1.03,0,0,0,.307-.384M437.38,26.485a1.007,1.007,0,0,0,.306-.367,7.036,7.036,0,1,1,6.441,9.859H444.1V34.889l3.865-3.342-1.2-1.4-2.668,2.3V29h-1.84v1.2l-1.488-.8-.873,1.611,2.361,1.272v3.527a.448.448,0,0,0-.138.031,5.309,5.309,0,0,1-4.738-9.354m-1.074,10.075a7.089,7.089,0,0,0,4.186,1.364,6.875,6.875,0,0,0,1.764-.23v8.787h1.84V37.8h.031a8.9,8.9,0,0,0,8.418-6.041h.353a34.638,34.638,0,0,1,3.573.2l-3.4,8.649,3.771,8.4-.428,6.41L450.322,57.8l-2.1-4.845-6.548.568-2.453-5.612-.184-.138a48.931,48.931,0,0,0-6.93-4.524,17.661,17.661,0,0,1-2.316-1.226,31.692,31.692,0,0,1,6.517-5.459M417.077,79.986a5.628,5.628,0,0,1-2.07-3.251,5.1,5.1,0,0,1,.889-4.324l4.34-4.984c.092.828.23,1.749.384,2.454a21.709,21.709,0,0,0,1.027,3.25,5.45,5.45,0,0,0,1.166,1.5l2.637,2.285.092.077a3.161,3.161,0,0,1,1.12,4.032,3.3,3.3,0,0,1-4.448,1.519Zm9.462,12.573-.338-.031a3.963,3.963,0,0,1-3.4-2.929l-1.381-5.367a5.127,5.127,0,0,0,2.255.537,5.325,5.325,0,0,0,1.686-.276,3.814,3.814,0,0,0,.445-.169l1.318.92,2.622-3.727a2.848,2.848,0,0,1,1.933-1.18,2.909,2.909,0,0,1,2.193.6l.046.046a2.871,2.871,0,0,1,.552,3.88l-4.294,6.072a4.036,4.036,0,0,1-3.633,1.625m6.685,2.545-2.837-1.824a5.413,5.413,0,0,0,1.273-1.3l4.293-6.071a4.829,4.829,0,0,0,.629-1.258l.43-.8a2.739,2.739,0,0,1,1.61-1.272,1.745,1.745,0,0,1,1.365.184l.858.506a2.206,2.206,0,0,1,.813,2.944l-1.135,2.1-.031.046-2.852,5.321a3.471,3.471,0,0,1-4.416,1.425m9.936,1.35a2.98,2.98,0,0,1-3.787,1.226l-1.916-1.241a5.39,5.39,0,0,0,1.809-1.856l2.883-5.382.8-1.379a2.166,2.166,0,0,1,1.287-1.074,1.357,1.357,0,0,1,1.058.153l.751.445a1.856,1.856,0,0,1,.69,2.469Zm6.747-2.622L448.619,96.7a2.146,2.146,0,0,1-2.5,1.18l-1.257-.689,3.481-6.5a3.709,3.709,0,0,0,.229-.522l.077.046a2.784,2.784,0,0,1,1.258,3.619m-.46-5.275-.767-.4a3.742,3.742,0,0,0-1.165-1.978c-.2-1.657-.552-4.77-.552-4.8l-.046-.476-2.085-1.165-1.993-5.259-4.693-1.519,1.5-6.716,5.382-1.916c.522-.061,2.729-.291,3.664-.46,1.872-.322,5.352.322,6.655.583l1.7,5.488-2.039,1.918-2.469,5.858L451.716,86Zm4.417,5.305c-.675.015-1.35.015-2.04,0a4.66,4.66,0,0,0-.95-4.171l2.591-2.914.873-8.6,2.209-5.244,2.591-2.438-2.362-7.621-.52-.123c-.215-.046-5.2-1.18-7.882-.721-.982.169-3.634.445-3.65.445l-.107.015-6.563,2.331-2.085,9.354,5.444,1.763L443.329,81l1.841,1.028c.077.644.215,1.855.337,2.96a3.133,3.133,0,0,0-1.764-.046,4.049,4.049,0,0,0-1.978-3.3l-.859-.506a3.641,3.641,0,0,0-2.775-.382,4.341,4.341,0,0,0-1.61.827,4.621,4.621,0,0,0-1.488-2.085l-.046-.046a4.758,4.758,0,0,0-3.6-1,4.691,4.691,0,0,0-2.591,1.258,4.992,4.992,0,0,0-2.208-4.248l-3.1-2.668c-.031-.077-.077-.168-.123-.29a31.2,31.2,0,0,1,5.229-29.058,20.391,20.391,0,0,0,2.76,1.488,43.762,43.762,0,0,1,6.378,4.17l2.791,6.379,6.548-.568,2.269,5.259,8.817-3.435.537-8.035-3.635-8.112,3.266-8.342a30.79,30.79,0,0,1,9.69,3.45,9.06,9.06,0,0,0-.643,1.135,7.131,7.131,0,0,0,2.039,12.374,2.37,2.37,0,0,0,.353.107l-3.389,3.573,1.287,2.837-5.428,7.529,5.689,7.375,11.148-2.745,3.22-6.716,1.534-.752q.09,1.2.091,2.392a31,31,0,0,1-1.855,10.6l-2.96,2.054a5.015,5.015,0,0,0-2.254,4.279,4.7,4.7,0,0,0-6.18-.276l-.046.046a4.7,4.7,0,0,0-1.395,1.855,4.1,4.1,0,0,0-1.381-.658,3.99,3.99,0,0,0-3.1.444l-.859.506a4.069,4.069,0,0,0-1.978,3.251,3.32,3.32,0,0,0-2.454.414l-.75.46a3.683,3.683,0,0,0-1.718,2.377l-.827.445A4.665,4.665,0,0,0,453.864,93.863ZM459.6,97.88a2.133,2.133,0,0,1-2.515-1.18L455.8,93.833a2.78,2.78,0,0,1,1.257-3.619l.077-.046a3.167,3.167,0,0,0,.23.522l3.512,6.562Zm6.732-.2a2.982,2.982,0,0,1-3.788-1.226l-3.557-6.625a1.843,1.843,0,0,1,.689-2.469l.752-.445a1.445,1.445,0,0,1,1.166-.184,1.922,1.922,0,0,1,1.149.951l.782,1.456,2.914,5.428.015.015a5.132,5.132,0,0,0,1.809,1.856Zm6.149-2.576a3.481,3.481,0,0,1-4.432-1.425l-4-7.483a2.221,2.221,0,0,1,.812-2.944l.859-.506A2.175,2.175,0,0,1,467.4,82.5a2.138,2.138,0,0,1,1.318.982l.276.766a4.994,4.994,0,0,0,.736,1.657l4.293,6.071a5.715,5.715,0,0,0,1.273,1.3Zm10.427-5.52a3.963,3.963,0,0,1-3.4,2.929l-.338.031a3.938,3.938,0,0,1-3.618-1.64l-4.294-6.072a2.146,2.146,0,0,1-.153-.245l-.307-.844a2.867,2.867,0,0,1,1.012-2.791l.061-.046a2.812,2.812,0,0,1,2.193-.6,2.847,2.847,0,0,1,1.932,1.18l2.622,3.727,1.319-.92a3.822,3.822,0,0,0,.445.169,5.32,5.32,0,0,0,1.686.276,5.118,5.118,0,0,0,2.254-.537Zm7.8-12.849a5.628,5.628,0,0,1-2.07,3.251L483.5,82.562a3.3,3.3,0,0,1-4.448-1.519,3.172,3.172,0,0,1,1.12-4.032l3.174-2.208.52-1.1a22.771,22.771,0,0,0,1.611-6.257l4.354,4.984a5.147,5.147,0,0,1,.874,4.308" transform="translate(74.357 3.609)" fill="#fff"/>
      <path id="Trazado_103936" data-name="Trazado 103936" d="M422,55.5l5.658,4.339h2.775v-6.7l-4.661-2.177Zm6.594-1.2v3.681h-.322l-3.634-2.791,1.641-1.979Z" transform="translate(75.977 9.175)" fill="#fff"/>
      <path id="Trazado_103937" data-name="Trazado 103937" d="M356.868,302.418A59.064,59.064,0,1,1,297.8,243.353a59.065,59.065,0,0,1,59.065,59.065" transform="translate(42.983 43.813)" fill="#fff"/>
      <path id="Trazado_103938" data-name="Trazado 103938" d="M298.181,365.165a61.532,61.532,0,1,1,61.531-61.532,61.6,61.6,0,0,1-61.531,61.532m0-119.855A58.323,58.323,0,1,0,356.5,303.633a58.39,58.39,0,0,0-58.321-58.323" transform="translate(42.606 43.588)" fill="#899d7b"/>
      <path id="Trazado_103939" data-name="Trazado 103939" d="M297.83,252.162c-.535-.018-1.067-.041-1.6-.041s-1.07.024-1.6.041a48.717,48.717,0,1,0,3.21,0" transform="translate(44.561 45.392)" fill="#899d7b"/>
      <path id="Trazado_103940" data-name="Trazado 103940" d="M137.389,300.538a59.064,59.064,0,1,1-59.065-59.065,59.065,59.065,0,0,1,59.065,59.065" transform="translate(3.468 43.475)" fill="#fff"/>
      <path id="Trazado_103941" data-name="Trazado 103941" d="M78.7,362.446a61.533,61.533,0,1,1,61.532-61.532A61.6,61.6,0,0,1,78.7,362.446m0-119.855a58.323,58.323,0,1,0,58.322,58.323A58.391,58.391,0,0,0,78.7,242.591" transform="translate(3.091 43.098)" fill="#899d7b"/>
      <path id="Trazado_103942" data-name="Trazado 103942" d="M126.313,298.232a49.454,49.454,0,1,1-49.454-49.455,49.453,49.453,0,0,1,49.454,49.455" transform="translate(4.934 44.79)" fill="#899d7b"/>
      <path id="Trazado_103943" data-name="Trazado 103943" d="M851.366,300.538A59.064,59.064,0,1,1,792.3,241.473a59.064,59.064,0,0,1,59.065,59.065" transform="translate(132.012 43.475)" fill="#fff"/>
      <path id="Trazado_103944" data-name="Trazado 103944" d="M792.677,362.446a61.533,61.533,0,1,1,61.533-61.532,61.6,61.6,0,0,1-61.533,61.532m0-119.855A58.323,58.323,0,1,0,851,300.914a58.389,58.389,0,0,0-58.325-58.323" transform="translate(131.635 43.098)" fill="#899d7b"/>
      <path id="Trazado_103945" data-name="Trazado 103945" d="M793.618,249.5c-.959-.057-1.922-.093-2.9-.093-.1,0-.209.008-.314.008a48.715,48.715,0,1,0,3.21.085" transform="translate(133.59 44.902)" fill="#899d7b"/>
    </g>
  </g>
  <text id="Incluye" transform="translate(495.522 199.184)" fill="#fff" font-size="16" font-family="Roboto-Bold, Roboto" font-weight="700"><tspan x="0" y="0">Inclu</tspan><tspan y="0" letter-spacing="-0.007em">y</tspan><tspan y="0">e</tspan></text>
  <g id="Grupo_60906" data-name="Grupo 60906">
    <g id="Grupo_60905" data-name="Grupo 60905" clip-path="url(#clip-path)">
      <line id="Línea_137" data-name="Línea 137" y2="29.169" transform="translate(342.048 257.339)" fill="none" stroke="#899d7b" stroke-miterlimit="10" stroke-width="2"/>
      <path id="Trazado_103946" data-name="Trazado 103946" d="M97.243,283.387a.916.916,0,0,0-.679-.3H76.148c.244-5.16-2.991-9.724-8.515-9.6v-2.4h.647a1.532,1.532,0,0,0,1.531-1.531v-4.127a2.915,2.915,0,0,0-2.912-2.912H57.983a2.915,2.915,0,0,0-2.912,2.912v4.127a1.531,1.531,0,0,0,1.529,1.531h.647v2.4a9.012,9.012,0,0,0-3.665.681.919.919,0,0,0,.739,1.683,6.2,6.2,0,0,1,2.515-.525h1.331a.92.92,0,0,0,.919-.919v-3.319H65.8v3.319a.919.919,0,0,0,.918.919h1.332a6.277,6.277,0,0,1,6.268,6.272v1.326a1.539,1.539,0,0,1-1.538,1.538H52.1a1.538,1.538,0,0,1-1.536-1.538V281.6a6.249,6.249,0,0,1,1.054-3.483.919.919,0,0,0-1.527-1.021,8.069,8.069,0,0,0-1.364,4.5v1.326a3.368,3.368,0,0,0,1.063,2.457,3.367,3.367,0,0,0-1.063,2.457V296a3.375,3.375,0,0,0,1.062,2.46,3.448,3.448,0,0,0-.045,5,3.447,3.447,0,0,0,.057,5.015,4.166,4.166,0,0,0-1.074,3.052v5.608a8.118,8.118,0,0,0,8.106,8.11h11.21a8.105,8.105,0,0,0,6.7-3.557l.006.063a3.834,3.834,0,0,0,3.835,3.494H90.137a3.835,3.835,0,0,0,3.836-3.494l.287-3.081a.92.92,0,0,0-1.83-.171l-.287,3.082a2,2,0,0,1-2.006,1.826H78.59a2,2,0,0,1-2-1.826l-.422-4.534c0-.027-.007-.054-.012-.081v-5.44A4.19,4.19,0,0,0,75.1,308.5a3.445,3.445,0,0,0,.085-5.041,3.446,3.446,0,0,0-.071-5.029A3.375,3.375,0,0,0,76.151,296v-.384h18.41l-1.7,18.234a.92.92,0,0,0,1.83.17l2.786-29.928a.917.917,0,0,0-.236-.7M56.908,269.25v-3.819a1.077,1.077,0,0,1,1.075-1.075H66.9a1.077,1.077,0,0,1,1.075,1.075v3.819ZM72.776,286.3a1.539,1.539,0,0,1,1.538,1.538V296a1.551,1.551,0,0,1-1.549,1.549H52.116A1.551,1.551,0,0,1,50.567,296v-8.159A1.539,1.539,0,0,1,52.1,286.3Zm1.538,30.836a6.277,6.277,0,0,1-6.268,6.272H56.835a6.277,6.277,0,0,1-6.268-6.272V311.53a2.217,2.217,0,0,1,.721-1.9,1.59,1.59,0,0,1,.752-.284H67.191a.919.919,0,0,0,0-1.837H52.02a1.565,1.565,0,0,1,0-3.126.919.919,0,0,0,0-1.837,1.564,1.564,0,0,1,0-3.125H72.914a1.564,1.564,0,0,1,0,3.125H57.055a.919.919,0,0,0,0,1.837h15.86a1.565,1.565,0,0,1,0,3.126.92.92,0,0,0-.03,1.837c.059,0,1.429.07,1.429,2.185Zm1.837-23.36v-5.938a3.364,3.364,0,0,0-1.064-2.457,3.413,3.413,0,0,0,.407-.458H95.556l-.824,8.853Z" transform="translate(8.767 47.264)" fill="#fff"/>
      <path id="Trazado_103947" data-name="Trazado 103947" d="M273.3,313.432h-.031a1.1,1.1,0,0,0,0,2.19h.031a1.1,1.1,0,0,0,0-2.19" transform="translate(49.003 56.43)" fill="#fff"/>
      <path id="Trazado_103948" data-name="Trazado 103948" d="M321.783,312.772v-7.7c0-.035,0-.072,0-.109,0-.014,0-.03-.007-.044a.54.54,0,0,0-.009-.063c0-.018-.008-.034-.012-.051s-.008-.035-.014-.053-.011-.033-.017-.05-.012-.034-.02-.052-.013-.03-.02-.044-.015-.037-.025-.053l-.025-.04c-.009-.018-.02-.035-.031-.052l-.032-.042c-.011-.014-.02-.029-.032-.044s-.04-.046-.063-.068l-.009-.011-.012-.011c-.022-.021-.045-.042-.068-.063l-.041-.031-.045-.033-.048-.03-.044-.026-.051-.024-.046-.022-.049-.018c-.018-.006-.034-.013-.052-.018l-.049-.013L320.9,304l-.058-.009-.048-.007a1.064,1.064,0,0,0-.107,0h0c-.035,0-.072,0-.107,0l-.048.007-.058.009-.053.013a.354.354,0,0,0-.051.013c-.018,0-.034.012-.051.018l-.051.018-.046.022a.409.409,0,0,0-.051.025c-.015.007-.029.017-.044.025s-.033.019-.048.03l-.046.034c-.013.009-.027.019-.04.03s-.054.047-.079.072h0a4.349,4.349,0,0,1-6.149,0,1.1,1.1,0,0,0-1.549,0,4.35,4.35,0,0,1-5.541.506l.689-1.193a4.516,4.516,0,0,0,1.265.182,4.586,4.586,0,0,0,3.974-2.288c.882-1.527,2.095-6.172,2.4-9.2a2.284,2.284,0,0,0-1.02-2.323,2.431,2.431,0,0,0-2.7.374,32.754,32.754,0,0,0-6.621,6.573,4.536,4.536,0,0,0,.792,5.6l-1.121,1.94a4.346,4.346,0,0,1-5.973-.164,1.09,1.09,0,0,0-.9-.313l-.608-2.269a8.9,8.9,0,0,0,3.686-2.574,5.222,5.222,0,0,0,1.221-4.715,10.757,10.757,0,0,0-1.175-2.487,3.649,3.649,0,0,0-.007-1.822c-.576-2.15-4.537-6.717-7.376-8.946a3.511,3.511,0,0,0-3.132-.62,3.787,3.787,0,0,0-2.525,2.333c-1.292,3.358-2.4,9.11-1.835,11.216a3.733,3.733,0,0,0,.913,1.607,10.6,10.6,0,0,0,.218,2.715c.663,2.475,3.225,3.99,6.317,3.99a9.847,9.847,0,0,0,1.579-.13l.779,2.908a4.349,4.349,0,0,1-4.852-.893h0a1.208,1.208,0,0,0-.142-.118A1.1,1.1,0,0,0,290.1,304l-.038,0-.066-.009a1.092,1.092,0,0,0-.819.261c-.02.018-.041.035-.06.054h0a4.347,4.347,0,0,1-6.148,0h0a1.094,1.094,0,0,0-1.451-.085l-.014.011h0c-.027.024-.054.047-.08.073h0a4.348,4.348,0,0,1-5.689.4l.314-1.172a4.124,4.124,0,0,0,3.946-3.053,28.062,28.062,0,0,0-.048-8.309,2.123,2.123,0,0,0-1.482-1.835,2.276,2.276,0,0,0-2.325.968,28.587,28.587,0,0,0-4.1,7.046,4.073,4.073,0,0,0,1.889,4.617l-.408,1.526a4.345,4.345,0,0,1-5.947-.189c-.026-.025-.052-.05-.08-.072l-.04-.031-.045-.033c-.017-.011-.033-.02-.051-.03s-.027-.018-.041-.026l-.052-.025-.046-.021-.051-.018a.417.417,0,0,0-.049-.018c-.017-.006-.034-.009-.051-.014s-.035-.009-.053-.012a.5.5,0,0,0-.059-.009l-.047-.007a1.027,1.027,0,0,0-.1,0h-.014a.885.885,0,0,0-.1,0l-.053.008c-.018,0-.035,0-.053.007l-.058.014-.046.012-.056.02-.046.017c-.018.007-.034.015-.051.024l-.046.022c-.016.008-.032.018-.047.027s-.031.018-.045.028-.032.024-.048.035-.026.018-.039.028-.047.041-.07.064l-.009.008-.011.012c-.022.022-.042.045-.063.068l-.032.044-.032.042c-.011.017-.02.034-.031.051s-.017.027-.024.041-.018.034-.026.052l-.021.045c-.006.017-.012.034-.019.052s-.012.033-.016.05-.009.035-.014.052l-.012.052a.534.534,0,0,0-.009.063l-.007.044c0,.037,0,.073,0,.109v7.7h0v7.7a1.1,1.1,0,0,0,1.1,1.1h4.495a1.1,1.1,0,0,0,0-2.191h-3.4v-4.518a6.553,6.553,0,0,0,6.6-.647,6.543,6.543,0,0,0,7.7,0,6.543,6.543,0,0,0,7.7,0,6.543,6.543,0,0,0,7.7,0,6.55,6.55,0,0,0,5.541,1.03,1.1,1.1,0,1,0-.566-2.116,4.367,4.367,0,0,1-1.126.148A4.318,4.318,0,0,1,298.368,312a1.132,1.132,0,0,0-.245-.184l-.02-.012c-.022-.012-.045-.021-.067-.031l-.031-.014a1.094,1.094,0,0,0-1.186.241h0a4.349,4.349,0,0,1-6.148,0,1.1,1.1,0,0,0-1.549,0,4.349,4.349,0,0,1-6.149,0,1.1,1.1,0,0,0-1.549,0,4.35,4.35,0,0,1-6.149,0h0a1.1,1.1,0,0,0-1.549,0,4.352,4.352,0,0,1-5.829.292v-5.131a6.553,6.553,0,0,0,6.6-.647,6.543,6.543,0,0,0,7.7,0,6.543,6.543,0,0,0,7.7,0,6.545,6.545,0,0,0,7.7,0,6.543,6.543,0,0,0,7.7,0,6.543,6.543,0,0,0,7.7,0,6.553,6.553,0,0,0,6.6.647v5.131a4.35,4.35,0,0,1-5.828-.292h0a1.1,1.1,0,0,0-1.549,0,4.316,4.316,0,0,1-3.074,1.273,1.1,1.1,0,1,0,0,2.19,6.487,6.487,0,0,0,3.849-1.252,6.553,6.553,0,0,0,6.6.647v4.518H278.846a1.1,1.1,0,0,0,0,2.191h41.842a1.1,1.1,0,0,0,1.1-1.1v-7.7Zm-47.445-12.387a1.912,1.912,0,0,1-.184-1.474,27.317,27.317,0,0,1,3.656-6.2,26.713,26.713,0,0,1,.065,7.195,1.917,1.917,0,0,1-.9,1.169,2.024,2.024,0,0,1-.314.144l.372-1.388a1.1,1.1,0,1,0-2.117-.566l-.375,1.4a1.967,1.967,0,0,1-.2-.283m14.624-2.525a9.676,9.676,0,0,1-.132-2.578,1.094,1.094,0,0,0-.41-.892,1.637,1.637,0,0,1-.59-.852c-.321-1.2.355-6.2,1.764-9.863a1.615,1.615,0,0,1,1.063-1.008,1.432,1.432,0,0,1,.376-.052,1.321,1.321,0,0,1,.82.282c2.844,2.234,6.245,6.415,6.613,7.789a1.589,1.589,0,0,1-.09,1,1.1,1.1,0,0,0,.09.979A9.773,9.773,0,0,1,299.65,295c.446,1.666-1.043,3.61-3.364,4.589l-2.143-8,.562-2.1a1.1,1.1,0,1,0-2.116-.566l-.354,1.323-.707-.189a1.095,1.095,0,1,0-.566,2.115l1.153.31.826,3.081-.408-.11a1.1,1.1,0,0,0-.566,2.116l1.63.437.576,2.151c-2.528.33-4.753-.6-5.209-2.3m17.354,1.988a2.374,2.374,0,0,1,.251-1.826,31.8,31.8,0,0,1,6.025-5.906,1.442,1.442,0,0,1,.241-.147,1.024,1.024,0,0,1-.007.112,31.078,31.078,0,0,1-2.122,8.33,2.39,2.39,0,0,1-2.181,1.191l.976-1.691a1.095,1.095,0,1,0-1.9-1.1l-.982,1.7a2.289,2.289,0,0,1-.306-.668" transform="translate(47.837 50.487)" fill="#fff"/>
      <path id="Trazado_103949" data-name="Trazado 103949" d="M289.632,272.145a1.1,1.1,0,0,0,1.1-1.1v-2.191a1.1,1.1,0,0,0-2.19,0v2.191a1.1,1.1,0,0,0,1.1,1.1" transform="translate(51.948 48.208)" fill="#fff"/>
      <path id="Trazado_103950" data-name="Trazado 103950" d="M283.923,275.579a1.1,1.1,0,0,0,1.1-1.1v-2.191a1.1,1.1,0,1,0-2.19,0v2.191a1.1,1.1,0,0,0,1.1,1.1" transform="translate(50.92 48.826)" fill="#fff"/>
      <path id="Trazado_103951" data-name="Trazado 103951" d="M278.215,272.145a1.1,1.1,0,0,0,1.1-1.1v-2.191a1.1,1.1,0,0,0-2.19,0v2.191a1.1,1.1,0,0,0,1.1,1.1" transform="translate(49.893 48.208)" fill="#fff"/>
      <path id="Trazado_103952" data-name="Trazado 103952" d="M278.215,279.57a1.1,1.1,0,0,0,1.1-1.1v-2.191a1.1,1.1,0,0,0-2.19,0v2.191a1.1,1.1,0,0,0,1.1,1.1" transform="translate(49.893 49.545)" fill="#fff"/>
      <path id="Trazado_103953" data-name="Trazado 103953" d="M272.506,275.579a1.1,1.1,0,0,0,1.1-1.1v-2.191a1.1,1.1,0,1,0-2.19,0v2.191a1.1,1.1,0,0,0,1.1,1.1" transform="translate(48.865 48.826)" fill="#fff"/>
      <path id="Trazado_103954" data-name="Trazado 103954" d="M272.506,286.717a1.1,1.1,0,0,0,1.1-1.1v-2.191a1.1,1.1,0,1,0-2.19,0v2.191a1.1,1.1,0,0,0,1.1,1.1" transform="translate(48.865 50.832)" fill="#fff"/>
      <path id="Trazado_103955" data-name="Trazado 103955" d="M266.8,281.426a1.1,1.1,0,0,0,1.1-1.1V278.14a1.1,1.1,0,0,0-2.19,0v2.191a1.1,1.1,0,0,0,1.1,1.1" transform="translate(47.837 49.879)" fill="#fff"/>
      <path id="Trazado_103956" data-name="Trazado 103956" d="M266.8,274a1.1,1.1,0,0,0,1.1-1.1v-2.191a1.1,1.1,0,1,0-2.19,0v2.191a1.1,1.1,0,0,0,1.1,1.1" transform="translate(47.837 48.542)" fill="#fff"/>
      <path id="Trazado_103957" data-name="Trazado 103957" d="M266.8,288.852a1.1,1.1,0,0,0,1.1-1.1v-2.191a1.1,1.1,0,0,0-2.19,0v2.191a1.1,1.1,0,0,0,1.1,1.1" transform="translate(47.837 51.216)" fill="#fff"/>
      <path id="Trazado_103958" data-name="Trazado 103958" d="M295.316,275.579a1.1,1.1,0,0,0,1.1-1.1v-2.191a1.1,1.1,0,1,0-2.19,0v2.191a1.1,1.1,0,0,0,1.1,1.1" transform="translate(52.971 48.826)" fill="#fff"/>
      <path id="Trazado_103959" data-name="Trazado 103959" d="M312.466,288.852a1.1,1.1,0,0,0,1.1-1.1v-2.191a1.1,1.1,0,1,0-2.19,0v2.191a1.1,1.1,0,0,0,1.1,1.1" transform="translate(56.059 51.216)" fill="#fff"/>
      <path id="Trazado_103960" data-name="Trazado 103960" d="M312.466,274a1.1,1.1,0,0,0,1.1-1.1v-2.191a1.1,1.1,0,1,0-2.19,0v2.191a1.1,1.1,0,0,0,1.1,1.1" transform="translate(56.059 48.542)" fill="#fff"/>
      <path id="Trazado_103961" data-name="Trazado 103961" d="M312.466,281.426a1.1,1.1,0,0,0,1.1-1.1V278.14a1.1,1.1,0,0,0-2.19,0v2.191a1.1,1.1,0,0,0,1.1,1.1" transform="translate(56.059 49.879)" fill="#fff"/>
      <path id="Trazado_103962" data-name="Trazado 103962" d="M300.513,308a1.1,1.1,0,1,0-1.1,1.1,1.1,1.1,0,0,0,1.1-1.1" transform="translate(53.71 55.256)" fill="#fff"/>
      <path id="Trazado_103963" data-name="Trazado 103963" d="M298.356,280.408l3.82,1.023-1.857,6.932a1.1,1.1,0,0,0,1.922.957l7.965-10.217a1.094,1.094,0,0,0-.579-1.731l-3.821-1.024,1.857-6.93a1.1,1.1,0,0,0-1.922-.957l-7.965,10.217a1.095,1.095,0,0,0,.581,1.731m5.794-6.345-.743,2.775a1.1,1.1,0,0,0,.774,1.342l3.282.879-3.631,4.658.743-2.775a1.1,1.1,0,0,0-.774-1.342l-3.282-.879Z" transform="translate(53.57 48.257)" fill="#fff"/>
    </g>
  </g>
  <text id="Servicios_de_sustento:_" data-name="Servicios de sustento: " transform="translate(550.135 429.912)" fill="#456c3a" font-size="15" font-family="Roboto-Bold, Roboto" font-weight="700"><tspan x="0" y="0">Se</tspan><tspan y="0" letter-spacing="0.014em">r</tspan><tspan y="0">vicios de sustento: </tspan></text>
  <text id="formación_del_sustrato_y_el_" data-name="formación del sustrato y el " transform="translate(533.648 449.737)" fill="#456c3a" font-size="15" font-family="Roboto-Regular, Roboto"><tspan x="0" y="0">formación del sustrato y el </tspan></text>
  <text id="reciclaje_de_nutrientes." data-name="reciclaje de nutrientes." transform="translate(548.466 469.561)" fill="#456c3a" font-size="15" font-family="Roboto-Regular, Roboto"><tspan x="0" y="0" letter-spacing="-0.009em">r</tspan><tspan y="0">eciclaje de nutrientes.</tspan></text>
  <text id="Servicios_culturales:_" data-name="Servicios culturales: " transform="translate(848.595 429.912)" fill="#456c3a" font-size="15" font-family="Roboto-Bold, Roboto" font-weight="700"><tspan x="0" y="0">Se</tspan><tspan y="0" letter-spacing="0.014em">r</tspan><tspan y="0">vicios culturales: </tspan></text>
  <text id="_" data-name=" " transform="translate(1004.119 428.912)" fill="#456c3a" font-size="14" font-family="Roboto-Regular, Roboto"><tspan x="0" y="0"> </tspan></text>
  <text id="recreacionales_espirituales_" data-name="recreacionales, espirituales, " transform="translate(821.418 449.737)" fill="#456c3a" font-size="15" font-family="Roboto-Regular, Roboto"><tspan x="0" y="0" letter-spacing="-0.009em">r</tspan><tspan y="0">ec</tspan><tspan y="0" letter-spacing="-0.009em">r</tspan><tspan y="0">eacionales, espirituales, </tspan></text>
  <g id="Grupo_60908" data-name="Grupo 60908">
    <g id="Grupo_60907" data-name="Grupo 60907" clip-path="url(#clip-path)">
      <text id="religiosos_o_otros_beneficios_no_" data-name="religiosos o otros beneficios no " transform="translate(808.072 469.562)" fill="#456c3a" font-size="15" font-family="Roboto-Regular, Roboto"><tspan x="0" y="0" letter-spacing="-0.009em">r</tspan><tspan y="0">eligiosos o ot</tspan><tspan y="0" letter-spacing="-0.009em">r</tspan><tspan y="0">os beneficios no </tspan></text>
    </g>
  </g>
  <text id="materiales." transform="translate(882.895 489.388)" fill="#456c3a" font-size="15" font-family="Roboto-Regular, Roboto"><tspan x="0" y="0">materiales.</tspan></text>
  <g id="Grupo_60910" data-name="Grupo 60910">
    <g id="Grupo_60909" data-name="Grupo 60909" clip-path="url(#clip-path)">
      <path id="Trazado_103964" data-name="Trazado 103964" d="M603.193,302.418a59.064,59.064,0,1,1-59.064-59.065,59.064,59.064,0,0,1,59.064,59.065" transform="translate(87.331 43.813)" fill="#fff"/>
      <path id="Trazado_103965" data-name="Trazado 103965" d="M544.506,365.165a61.532,61.532,0,1,1,61.532-61.532,61.6,61.6,0,0,1-61.532,61.532m0-119.855a58.323,58.323,0,1,0,58.322,58.323,58.39,58.39,0,0,0-58.322-58.323" transform="translate(86.954 43.588)" fill="#899d7b"/>
      <path id="Trazado_103966" data-name="Trazado 103966" d="M544.156,252.162c-.535-.018-1.067-.041-1.6-.041s-1.07.024-1.6.041a48.717,48.717,0,1,0,3.21,0" transform="translate(88.91 45.392)" fill="#899d7b"/>
      <line id="Línea_138" data-name="Línea 138" y2="29.169" transform="translate(632.721 257.339)" fill="none" stroke="#899d7b" stroke-miterlimit="10" stroke-width="2"/>
      <path id="Trazado_103967" data-name="Trazado 103967" d="M519.629,313.432H519.6a1.1,1.1,0,1,0,0,2.19h.029a1.1,1.1,0,1,0,0-2.19" transform="translate(93.351 56.43)" fill="#fff"/>
      <path id="Trazado_103968" data-name="Trazado 103968" d="M568.108,312.772v-7.7c0-.035,0-.072,0-.109,0-.014,0-.03-.007-.044a.528.528,0,0,0-.009-.063c0-.018-.008-.034-.012-.051s-.008-.035-.014-.053-.011-.033-.017-.05-.012-.034-.02-.052-.013-.03-.02-.044-.015-.037-.025-.053l-.025-.04c-.009-.018-.02-.035-.031-.052s-.021-.028-.032-.042-.02-.029-.032-.044-.04-.046-.062-.068l-.009-.011-.012-.011c-.022-.021-.045-.042-.068-.063l-.041-.031-.045-.033-.048-.03-.044-.026-.051-.024-.046-.022-.049-.018c-.018-.006-.034-.013-.052-.018l-.05-.013-.054-.013-.058-.009-.048-.007a1.065,1.065,0,0,0-.107,0h0c-.035,0-.072,0-.107,0l-.048.007L566.8,304l-.053.013a.353.353,0,0,0-.051.013c-.018,0-.034.012-.051.018l-.051.018-.046.022a.415.415,0,0,0-.051.025c-.015.007-.03.017-.044.025s-.033.019-.048.03l-.046.034c-.013.009-.027.019-.04.03s-.054.047-.079.072h0a4.349,4.349,0,0,1-6.149,0,1.1,1.1,0,0,0-1.549,0,4.35,4.35,0,0,1-5.542.506l.689-1.193a4.516,4.516,0,0,0,1.265.182,4.586,4.586,0,0,0,3.974-2.288c.882-1.527,2.095-6.172,2.4-9.2a2.284,2.284,0,0,0-1.02-2.323,2.431,2.431,0,0,0-2.7.374A32.755,32.755,0,0,0,551,296.927a4.536,4.536,0,0,0,.792,5.6l-1.121,1.94a4.346,4.346,0,0,1-5.973-.164,1.09,1.09,0,0,0-.9-.313l-.608-2.269a8.9,8.9,0,0,0,3.686-2.574,5.222,5.222,0,0,0,1.221-4.715,10.753,10.753,0,0,0-1.175-2.487,3.648,3.648,0,0,0-.007-1.822c-.576-2.15-4.537-6.717-7.376-8.946a3.511,3.511,0,0,0-3.132-.62,3.787,3.787,0,0,0-2.525,2.333c-1.292,3.358-2.4,9.11-1.835,11.216a3.735,3.735,0,0,0,.913,1.607,10.605,10.605,0,0,0,.218,2.715c.663,2.475,3.225,3.99,6.317,3.99a9.846,9.846,0,0,0,1.579-.13l.779,2.908a4.349,4.349,0,0,1-4.852-.893h0a1.209,1.209,0,0,0-.142-.118,1.1,1.1,0,0,0-.424-.183l-.038,0-.066-.009a1.092,1.092,0,0,0-.819.261c-.02.018-.041.035-.06.054h0a4.347,4.347,0,0,1-6.148,0h0a1.094,1.094,0,0,0-1.451-.085l-.014.011h0c-.027.024-.054.047-.08.073h0a4.348,4.348,0,0,1-5.689.4l.314-1.172a4.124,4.124,0,0,0,3.946-3.053,28.061,28.061,0,0,0-.048-8.309,2.123,2.123,0,0,0-1.482-1.835,2.276,2.276,0,0,0-2.325.968,28.582,28.582,0,0,0-4.1,7.046,4.073,4.073,0,0,0,1.889,4.617l-.408,1.526a4.345,4.345,0,0,1-5.947-.189c-.026-.025-.052-.05-.08-.072l-.04-.031-.045-.033-.051-.03c-.013-.009-.027-.018-.041-.026l-.052-.025-.046-.021-.051-.018a.414.414,0,0,0-.05-.018c-.017-.006-.034-.009-.051-.014s-.035-.009-.053-.012a.5.5,0,0,0-.059-.009l-.047-.007a1.024,1.024,0,0,0-.1,0h-.014a.886.886,0,0,0-.1,0l-.053.008c-.018,0-.035,0-.053.007l-.058.014-.046.012-.055.02-.046.017c-.018.007-.034.015-.051.024l-.046.022c-.016.008-.032.018-.047.027s-.031.018-.045.028-.032.024-.048.035-.026.018-.039.028-.047.041-.07.064l-.01.008-.011.012c-.022.022-.042.045-.063.068l-.032.044-.032.042c-.011.017-.02.034-.031.051s-.017.027-.024.041-.018.034-.026.052l-.021.045c-.006.017-.012.034-.019.052s-.012.033-.016.05-.009.035-.014.052l-.012.052a.528.528,0,0,0-.009.063l-.007.044c0,.037,0,.073,0,.109v7.7h0v7.7a1.1,1.1,0,0,0,1.1,1.1h4.495a1.1,1.1,0,0,0,0-2.191h-3.4v-4.518a6.553,6.553,0,0,0,6.6-.647,6.543,6.543,0,0,0,7.7,0,6.543,6.543,0,0,0,7.7,0,6.543,6.543,0,0,0,7.7,0,6.549,6.549,0,0,0,5.541,1.03,1.1,1.1,0,1,0-.566-2.116,4.367,4.367,0,0,1-1.126.148A4.319,4.319,0,0,1,544.693,312a1.13,1.13,0,0,0-.245-.184l-.02-.012c-.022-.012-.045-.021-.067-.031l-.031-.014a1.094,1.094,0,0,0-1.186.241h0a4.349,4.349,0,0,1-6.148,0,1.1,1.1,0,0,0-1.549,0,4.349,4.349,0,0,1-6.149,0,1.1,1.1,0,0,0-1.549,0,4.35,4.35,0,0,1-6.149,0h0a1.1,1.1,0,0,0-1.549,0,4.352,4.352,0,0,1-5.829.292v-5.131a6.553,6.553,0,0,0,6.6-.647,6.543,6.543,0,0,0,7.7,0,6.543,6.543,0,0,0,7.7,0,6.545,6.545,0,0,0,7.7,0,6.543,6.543,0,0,0,7.7,0,6.543,6.543,0,0,0,7.7,0,6.553,6.553,0,0,0,6.6.647v5.131a4.35,4.35,0,0,1-5.828-.292h0a1.1,1.1,0,0,0-1.549,0,4.316,4.316,0,0,1-3.074,1.273,1.1,1.1,0,0,0,0,2.19,6.488,6.488,0,0,0,3.849-1.252,6.553,6.553,0,0,0,6.6.647v4.518H525.171a1.1,1.1,0,0,0,0,2.191h41.842a1.1,1.1,0,0,0,1.1-1.1v-7.7Zm-47.445-12.387a1.912,1.912,0,0,1-.184-1.474,27.316,27.316,0,0,1,3.656-6.2,26.714,26.714,0,0,1,.065,7.195,1.916,1.916,0,0,1-.9,1.169,2.024,2.024,0,0,1-.314.144l.372-1.388a1.1,1.1,0,1,0-2.117-.566l-.375,1.4a1.959,1.959,0,0,1-.2-.283m14.624-2.525a9.675,9.675,0,0,1-.132-2.578,1.094,1.094,0,0,0-.409-.892,1.643,1.643,0,0,1-.59-.852c-.321-1.2.355-6.2,1.764-9.863a1.615,1.615,0,0,1,1.063-1.008,1.432,1.432,0,0,1,.376-.052,1.321,1.321,0,0,1,.82.282c2.844,2.234,6.245,6.415,6.613,7.789a1.589,1.589,0,0,1-.09,1,1.1,1.1,0,0,0,.09.979A9.779,9.779,0,0,1,545.975,295c.446,1.666-1.043,3.61-3.364,4.589l-2.143-8,.562-2.1a1.1,1.1,0,1,0-2.116-.566l-.354,1.323-.707-.189a1.095,1.095,0,1,0-.566,2.115l1.153.31.826,3.081-.408-.11a1.1,1.1,0,0,0-.566,2.116l1.63.437.576,2.151c-2.528.33-4.753-.6-5.209-2.3m17.354,1.988a2.374,2.374,0,0,1,.251-1.826,31.772,31.772,0,0,1,6.026-5.906,1.393,1.393,0,0,1,.24-.147,1.011,1.011,0,0,1-.007.112,31.077,31.077,0,0,1-2.122,8.33,2.39,2.39,0,0,1-2.181,1.191l.976-1.691a1.095,1.095,0,1,0-1.9-1.1l-.982,1.7a2.29,2.29,0,0,1-.306-.668" transform="translate(92.185 50.487)" fill="#fff"/>
      <path id="Trazado_103969" data-name="Trazado 103969" d="M535.957,272.145a1.1,1.1,0,0,0,1.1-1.1v-2.191a1.1,1.1,0,1,0-2.19,0v2.191a1.1,1.1,0,0,0,1.1,1.1" transform="translate(96.296 48.208)" fill="#fff"/>
      <path id="Trazado_103970" data-name="Trazado 103970" d="M530.249,275.579a1.1,1.1,0,0,0,1.1-1.1v-2.191a1.1,1.1,0,1,0-2.19,0v2.191a1.1,1.1,0,0,0,1.1,1.1" transform="translate(95.269 48.826)" fill="#fff"/>
      <path id="Trazado_103971" data-name="Trazado 103971" d="M524.54,272.145a1.1,1.1,0,0,0,1.1-1.1v-2.191a1.1,1.1,0,0,0-2.19,0v2.191a1.1,1.1,0,0,0,1.095,1.1" transform="translate(94.241 48.208)" fill="#fff"/>
      <path id="Trazado_103972" data-name="Trazado 103972" d="M524.54,279.57a1.1,1.1,0,0,0,1.1-1.1v-2.191a1.1,1.1,0,1,0-2.19,0v2.191a1.1,1.1,0,0,0,1.095,1.1" transform="translate(94.241 49.545)" fill="#fff"/>
      <path id="Trazado_103973" data-name="Trazado 103973" d="M518.832,275.579a1.1,1.1,0,0,0,1.1-1.1v-2.191a1.1,1.1,0,1,0-2.19,0v2.191a1.1,1.1,0,0,0,1.1,1.1" transform="translate(93.213 48.826)" fill="#fff"/>
      <path id="Trazado_103974" data-name="Trazado 103974" d="M518.832,286.717a1.1,1.1,0,0,0,1.1-1.1v-2.191a1.1,1.1,0,1,0-2.19,0v2.191a1.1,1.1,0,0,0,1.1,1.1" transform="translate(93.213 50.832)" fill="#fff"/>
      <path id="Trazado_103975" data-name="Trazado 103975" d="M513.123,281.426a1.1,1.1,0,0,0,1.1-1.1V278.14a1.1,1.1,0,0,0-2.19,0v2.191a1.1,1.1,0,0,0,1.1,1.1" transform="translate(92.185 49.879)" fill="#fff"/>
      <path id="Trazado_103976" data-name="Trazado 103976" d="M513.123,274a1.1,1.1,0,0,0,1.1-1.1v-2.191a1.1,1.1,0,1,0-2.19,0v2.191a1.1,1.1,0,0,0,1.1,1.1" transform="translate(92.185 48.542)" fill="#fff"/>
      <path id="Trazado_103977" data-name="Trazado 103977" d="M513.123,288.852a1.1,1.1,0,0,0,1.1-1.1v-2.191a1.1,1.1,0,1,0-2.19,0v2.191a1.1,1.1,0,0,0,1.1,1.1" transform="translate(92.185 51.216)" fill="#fff"/>
      <path id="Trazado_103978" data-name="Trazado 103978" d="M541.641,275.579a1.1,1.1,0,0,0,1.1-1.1v-2.191a1.1,1.1,0,1,0-2.19,0v2.191a1.1,1.1,0,0,0,1.095,1.1" transform="translate(97.32 48.826)" fill="#fff"/>
      <path id="Trazado_103979" data-name="Trazado 103979" d="M558.791,288.852a1.1,1.1,0,0,0,1.1-1.1v-2.191a1.1,1.1,0,0,0-2.19,0v2.191a1.1,1.1,0,0,0,1.1,1.1" transform="translate(100.407 51.216)" fill="#fff"/>
      <path id="Trazado_103980" data-name="Trazado 103980" d="M558.791,274a1.1,1.1,0,0,0,1.1-1.1v-2.191a1.1,1.1,0,1,0-2.19,0v2.191a1.1,1.1,0,0,0,1.1,1.1" transform="translate(100.407 48.542)" fill="#fff"/>
      <path id="Trazado_103981" data-name="Trazado 103981" d="M558.791,281.426a1.1,1.1,0,0,0,1.1-1.1V278.14a1.1,1.1,0,0,0-2.19,0v2.191a1.1,1.1,0,0,0,1.1,1.1" transform="translate(100.407 49.879)" fill="#fff"/>
      <path id="Trazado_103982" data-name="Trazado 103982" d="M546.839,308a1.1,1.1,0,1,0-1.1,1.1,1.1,1.1,0,0,0,1.1-1.1" transform="translate(98.058 55.256)" fill="#fff"/>
      <path id="Trazado_103983" data-name="Trazado 103983" d="M544.681,280.408l3.82,1.023-1.857,6.932a1.1,1.1,0,0,0,1.922.957l7.965-10.217a1.094,1.094,0,0,0-.58-1.731l-3.821-1.024,1.857-6.93a1.1,1.1,0,0,0-1.922-.957L544.1,278.677a1.095,1.095,0,0,0,.581,1.731m5.794-6.345-.743,2.775a1.1,1.1,0,0,0,.774,1.342l3.282.879-3.631,4.658.744-2.775a1.1,1.1,0,0,0-.774-1.342l-3.282-.879Z" transform="translate(97.918 48.257)" fill="#fff"/>
      <path id="Trazado_103984" data-name="Trazado 103984" d="M775.293,298.421l-3.627,3.627a5.154,5.154,0,0,0-1,1.415l-1.244-1.244V295.7a5.135,5.135,0,0,0-5.13-5.13h-5.132l.015,15.914,10.1,10.1v5.438h16.4V310.93a5.1,5.1,0,0,0-1.5-3.627Zm6.963,20.182H772.7v-3.434l-10.1-10.1-.011-11.077h1.709A1.712,1.712,0,0,1,766,295.7v7.938l8.2,8.2,2.418-2.418-2.53-2.53a1.711,1.711,0,0,1,0-2.418l1.21-1.208,6.462,6.462a1.7,1.7,0,0,1,.5,1.21Z" transform="translate(136.678 52.314)" fill="#fff"/>
      <path id="Trazado_103985" data-name="Trazado 103985" d="M807.535,290.568a5.135,5.135,0,0,0-5.13,5.13v6.521l-1.244,1.244a5.153,5.153,0,0,0-1-1.415l-3.627-3.626-8.881,8.88a5.1,5.1,0,0,0-1.5,3.627v11.094h16.4v-5.438l10.1-10.1.015-15.914Zm1.7,14.5-10.1,10.1V318.6h-9.561v-7.674a1.7,1.7,0,0,1,.5-1.208l6.463-6.463,1.208,1.21a1.709,1.709,0,0,1,0,2.419l-2.529,2.528,2.418,2.418,8.2-8.2V295.7a1.714,1.714,0,0,1,1.71-1.711h1.709Z" transform="translate(141.538 52.314)" fill="#fff"/>
      <path id="Trazado_103986" data-name="Trazado 103986" d="M781.01,306.293h10.259V286.688h9.62V276.429h-9.62v-8.665H781.01v8.665h-9.62v10.259h9.62Zm-6.2-23.025v-3.42h9.62v-8.665h3.42v8.665h9.62v3.42h-9.62v19.605h-3.42V283.269Z" transform="translate(138.881 48.208)" fill="#fff"/>
      <rect id="Rectángulo_5187" data-name="Rectángulo 5187" width="3.419" height="5.609" transform="matrix(0.662, -0.749, 0.749, 0.662, 943.723, 335.516)" fill="#fff"/>
      <rect id="Rectángulo_5188" data-name="Rectángulo 5188" width="7.045" height="3.42" transform="translate(944.877 328.056)" fill="#fff"/>
      <rect id="Rectángulo_5189" data-name="Rectángulo 5189" width="5.609" height="3.419" transform="matrix(0.749, -0.662, 0.662, 0.749, 943.734, 324.036)" fill="#fff"/>
      <rect id="Rectángulo_5190" data-name="Rectángulo 5190" width="3.419" height="5.609" transform="matrix(0.662, -0.749, 0.749, 0.662, 899.823, 322.864)" fill="#fff"/>
      <rect id="Rectángulo_5191" data-name="Rectángulo 5191" width="7.046" height="3.42" transform="translate(898.117 328.056)" fill="#fff"/>
      <rect id="Rectángulo_5192" data-name="Rectángulo 5192" width="5.609" height="3.419" transform="matrix(0.749, -0.662, 0.662, 0.749, 899.819, 336.666)" fill="#fff"/>
    </g>
  </g>
</svg>
