<svg id="Grupo_78448" data-name="Grupo 78448" xmlns="http://www.w3.org/2000/svg" xmlns:xlink="http://www.w3.org/1999/xlink" width="467.928" height="410.908" viewBox="0 0 467.928 410.908">
  <defs>
    <clipPath id="clip-path">
      <rect id="Rectángulo_5638" data-name="Rectángulo 5638" width="467.928" height="410.908" fill="none"/>
    </clipPath>
    <clipPath id="clip-path-3">
      <rect id="Rectángulo_5631" data-name="Rectángulo 5631" width="42.719" height="56.047" transform="translate(39.185 152.804)" fill="none"/>
    </clipPath>
    <clipPath id="clip-path-4">
      <rect id="Rectángulo_5632" data-name="Rectángulo 5632" width="32.556" height="42.713" transform="translate(379.182 132.571)" fill="none"/>
    </clipPath>
    <clipPath id="clip-path-5">
      <rect id="Rectángulo_5633" data-name="Rectángulo 5633" width="99.692" height="197.598" transform="translate(134.217 209.331)" fill="none"/>
    </clipPath>
    <clipPath id="clip-path-6">
      <rect id="Rectángulo_5634" data-name="Rectángulo 5634" width="152.364" height="201.235" transform="translate(315.15 209.331)" fill="none"/>
    </clipPath>
    <clipPath id="clip-path-7">
      <rect id="Rectángulo_5635" data-name="Rectángulo 5635" width="218.639" height="286.853" transform="translate(127.829 52.44)" fill="none"/>
    </clipPath>
    <clipPath id="clip-path-8">
      <rect id="Rectángulo_5636" data-name="Rectángulo 5636" width="91.513" height="34.569" transform="translate(188.407 221.058)" fill="none"/>
    </clipPath>
  </defs>
  <g id="Grupo_78447" data-name="Grupo 78447" clip-path="url(#clip-path)">
    <rect id="Rectángulo_5570" data-name="Rectángulo 5570" width="48.344" height="153.213" transform="translate(109.229 34.224)" fill="#f5f5f5"/>
    <rect id="Rectángulo_5571" data-name="Rectángulo 5571" width="24.172" height="152.791" transform="translate(133.401 34.224)" fill="#ebebeb"/>
    <rect id="Rectángulo_5572" data-name="Rectángulo 5572" width="17.071" height="15.042" transform="translate(114.75 19.182)" fill="#f5f5f5"/>
    <rect id="Rectángulo_5573" data-name="Rectángulo 5573" width="4.069" height="15.042" transform="translate(127.752 19.182)" fill="#ebebeb"/>
    <rect id="Rectángulo_5574" data-name="Rectángulo 5574" width="53.788" height="0.877" transform="translate(105.2 33.347)" fill="#e0e0e0"/>
    <rect id="Rectángulo_5575" data-name="Rectángulo 5575" width="4.092" height="8.628" transform="translate(118.772 40.785)" fill="#fafafa"/>
    <g id="Grupo_78446" data-name="Grupo 78446">
      <g id="Grupo_78445" data-name="Grupo 78445" clip-path="url(#clip-path)">
        <path id="Trazado_156567" data-name="Trazado 156567" d="M133.4,52.8c0,.091-5.412.165-12.085.165s-12.087-.074-12.087-.165,5.41-.165,12.087-.165,12.085.074,12.085.165" fill="#e0e0e0"/>
        <rect id="Rectángulo_5576" data-name="Rectángulo 5576" width="4.092" height="8.628" transform="translate(143.154 40.785)" fill="#e0e0e0"/>
        <path id="Trazado_156568" data-name="Trazado 156568" d="M157.783,52.8c0,.091-5.411.165-12.085.165s-12.087-.074-12.087-.165,5.41-.165,12.087-.165,12.085.074,12.085.165" fill="#e0e0e0"/>
        <rect id="Rectángulo_5577" data-name="Rectángulo 5577" width="4.092" height="8.629" transform="translate(143.154 57.915)" fill="#e0e0e0"/>
        <path id="Trazado_156569" data-name="Trazado 156569" d="M157.783,69.93c0,.091-5.411.165-12.085.165s-12.087-.074-12.087-.165,5.41-.165,12.087-.165,12.085.074,12.085.165" fill="#e0e0e0"/>
        <rect id="Rectángulo_5578" data-name="Rectángulo 5578" width="4.092" height="8.628" transform="translate(143.154 75.564)" fill="#e0e0e0"/>
        <path id="Trazado_156570" data-name="Trazado 156570" d="M157.783,87.578c0,.091-5.411.165-12.085.165s-12.087-.074-12.087-.165,5.41-.165,12.087-.165,12.085.074,12.085.165" fill="#e0e0e0"/>
        <rect id="Rectángulo_5579" data-name="Rectángulo 5579" width="4.092" height="8.628" transform="translate(143.154 93.212)" fill="#e0e0e0"/>
        <path id="Trazado_156571" data-name="Trazado 156571" d="M157.783,105.226c0,.091-5.411.165-12.085.165s-12.087-.074-12.087-.165,5.41-.165,12.087-.165,12.085.074,12.085.165" fill="#e0e0e0"/>
        <rect id="Rectángulo_5580" data-name="Rectángulo 5580" width="4.092" height="8.628" transform="translate(143.154 110.355)" fill="#e0e0e0"/>
        <path id="Trazado_156572" data-name="Trazado 156572" d="M157.783,122.369c0,.091-5.411.165-12.085.165s-12.087-.074-12.087-.165,5.41-.165,12.087-.165,12.085.074,12.085.165" fill="#e0e0e0"/>
        <rect id="Rectángulo_5581" data-name="Rectángulo 5581" width="4.092" height="8.628" transform="translate(143.154 127.567)" fill="#e0e0e0"/>
        <rect id="Rectángulo_5582" data-name="Rectángulo 5582" width="4.092" height="8.629" transform="translate(143.154 145.004)" fill="#e0e0e0"/>
        <path id="Trazado_156573" data-name="Trazado 156573" d="M157.783,139.582c0,.091-5.411.165-12.085.165s-12.087-.074-12.087-.165,5.41-.165,12.087-.165,12.085.074,12.085.165" fill="#e0e0e0"/>
        <rect id="Rectángulo_5583" data-name="Rectángulo 5583" width="4.092" height="8.628" transform="translate(118.772 58.177)" fill="#fafafa"/>
        <path id="Trazado_156574" data-name="Trazado 156574" d="M133.4,70.192c0,.091-5.412.165-12.085.165s-12.087-.074-12.087-.165,5.41-.165,12.087-.165,12.085.074,12.085.165" fill="#e0e0e0"/>
        <rect id="Rectángulo_5584" data-name="Rectángulo 5584" width="4.092" height="8.629" transform="translate(118.772 75.569)" fill="#fafafa"/>
        <path id="Trazado_156575" data-name="Trazado 156575" d="M133.4,87.584c0,.091-5.412.165-12.085.165s-12.087-.074-12.087-.165,5.41-.165,12.087-.165,12.085.074,12.085.165" fill="#e0e0e0"/>
        <rect id="Rectángulo_5585" data-name="Rectángulo 5585" width="4.092" height="8.629" transform="translate(118.772 92.961)" fill="#fafafa"/>
        <path id="Trazado_156576" data-name="Trazado 156576" d="M133.4,104.977c0,.091-5.412.165-12.085.165s-12.087-.074-12.087-.165,5.41-.165,12.087-.165,12.085.074,12.085.165" fill="#e0e0e0"/>
        <rect id="Rectángulo_5586" data-name="Rectángulo 5586" width="4.092" height="8.628" transform="translate(118.772 110.355)" fill="#fafafa"/>
        <path id="Trazado_156577" data-name="Trazado 156577" d="M133.4,122.369c0,.091-5.412.165-12.085.165s-12.087-.074-12.087-.165,5.41-.165,12.087-.165,12.085.074,12.085.165" fill="#e0e0e0"/>
        <rect id="Rectángulo_5587" data-name="Rectángulo 5587" width="4.092" height="8.629" transform="translate(118.772 127.747)" fill="#fafafa"/>
        <path id="Trazado_156578" data-name="Trazado 156578" d="M133.4,139.762c0,.091-5.412.165-12.085.165s-12.087-.074-12.087-.165,5.41-.165,12.087-.165,12.085.074,12.085.165" fill="#e0e0e0"/>
        <rect id="Rectángulo_5588" data-name="Rectángulo 5588" width="4.092" height="8.629" transform="translate(118.772 145.139)" fill="#fafafa"/>
        <rect id="Rectángulo_5589" data-name="Rectángulo 5589" width="48.344" height="153.213" transform="translate(286.276 66.71)" fill="#f5f5f5"/>
        <rect id="Rectángulo_5590" data-name="Rectángulo 5590" width="24.172" height="152.791" transform="translate(310.448 66.71)" fill="#ebebeb"/>
        <rect id="Rectángulo_5591" data-name="Rectángulo 5591" width="17.071" height="15.042" transform="translate(291.797 51.668)" fill="#f5f5f5"/>
        <rect id="Rectángulo_5592" data-name="Rectángulo 5592" width="4.069" height="15.042" transform="translate(304.799 51.668)" fill="#ebebeb"/>
        <path id="Trazado_156579" data-name="Trazado 156579" d="M282.248,66.71v-.877h53.788v.877" fill="#e0e0e0"/>
        <rect id="Rectángulo_5593" data-name="Rectángulo 5593" width="4.092" height="8.628" transform="translate(295.819 73.271)" fill="#fafafa"/>
        <path id="Trazado_156580" data-name="Trazado 156580" d="M310.448,85.285c0,.091-5.412.166-12.085.166s-12.087-.075-12.087-.166,5.41-.164,12.087-.164,12.085.074,12.085.164" fill="#e0e0e0"/>
        <rect id="Rectángulo_5594" data-name="Rectángulo 5594" width="4.092" height="8.628" transform="translate(320.202 73.271)" fill="#e0e0e0"/>
        <path id="Trazado_156581" data-name="Trazado 156581" d="M334.831,85.285c0,.091-5.411.166-12.085.166s-12.087-.075-12.087-.166,5.41-.164,12.087-.164,12.085.074,12.085.164" fill="#e0e0e0"/>
        <rect id="Rectángulo_5595" data-name="Rectángulo 5595" width="4.092" height="8.629" transform="translate(320.202 90.401)" fill="#e0e0e0"/>
        <path id="Trazado_156582" data-name="Trazado 156582" d="M334.831,102.417c0,.091-5.411.165-12.085.165s-12.087-.074-12.087-.165,5.41-.165,12.087-.165,12.085.074,12.085.165" fill="#e0e0e0"/>
        <rect id="Rectángulo_5596" data-name="Rectángulo 5596" width="4.092" height="8.628" transform="translate(320.202 108.05)" fill="#e0e0e0"/>
        <path id="Trazado_156583" data-name="Trazado 156583" d="M334.831,120.065c0,.091-5.411.165-12.085.165s-12.087-.074-12.087-.165,5.41-.165,12.087-.165,12.085.074,12.085.165" fill="#e0e0e0"/>
        <rect id="Rectángulo_5597" data-name="Rectángulo 5597" width="4.092" height="8.628" transform="translate(320.202 125.698)" fill="#e0e0e0"/>
        <path id="Trazado_156584" data-name="Trazado 156584" d="M334.831,137.712c0,.091-5.411.165-12.085.165s-12.087-.074-12.087-.165,5.41-.165,12.087-.165,12.085.074,12.085.165" fill="#e0e0e0"/>
        <rect id="Rectángulo_5598" data-name="Rectángulo 5598" width="4.092" height="8.628" transform="translate(320.202 142.841)" fill="#e0e0e0"/>
        <path id="Trazado_156585" data-name="Trazado 156585" d="M334.831,154.856c0,.091-5.411.165-12.085.165s-12.087-.074-12.087-.165,5.41-.165,12.087-.165,12.085.074,12.085.165" fill="#e0e0e0"/>
        <rect id="Rectángulo_5599" data-name="Rectángulo 5599" width="4.092" height="8.629" transform="translate(320.202 160.053)" fill="#e0e0e0"/>
        <rect id="Rectángulo_5600" data-name="Rectángulo 5600" width="4.092" height="8.629" transform="translate(320.202 177.491)" fill="#e0e0e0"/>
        <path id="Trazado_156586" data-name="Trazado 156586" d="M334.831,172.068c0,.091-5.411.165-12.085.165s-12.087-.074-12.087-.165,5.41-.165,12.087-.165,12.085.074,12.085.165" fill="#e0e0e0"/>
        <rect id="Rectángulo_5601" data-name="Rectángulo 5601" width="4.092" height="8.629" transform="translate(295.819 90.663)" fill="#fafafa"/>
        <path id="Trazado_156587" data-name="Trazado 156587" d="M310.448,102.678c0,.091-5.412.165-12.085.165s-12.087-.074-12.087-.165,5.41-.165,12.087-.165,12.085.074,12.085.165" fill="#e0e0e0"/>
        <rect id="Rectángulo_5602" data-name="Rectángulo 5602" width="4.092" height="8.629" transform="translate(295.819 108.055)" fill="#fafafa"/>
        <path id="Trazado_156588" data-name="Trazado 156588" d="M310.448,120.07c0,.091-5.412.166-12.085.166s-12.087-.075-12.087-.166,5.41-.164,12.087-.164,12.085.074,12.085.164" fill="#e0e0e0"/>
        <rect id="Rectángulo_5603" data-name="Rectángulo 5603" width="4.092" height="8.629" transform="translate(295.819 125.448)" fill="#fafafa"/>
        <path id="Trazado_156589" data-name="Trazado 156589" d="M310.448,137.463c0,.091-5.412.165-12.085.165s-12.087-.074-12.087-.165,5.41-.165,12.087-.165,12.085.074,12.085.165" fill="#e0e0e0"/>
        <rect id="Rectángulo_5604" data-name="Rectángulo 5604" width="4.092" height="8.628" transform="translate(295.819 142.841)" fill="#fafafa"/>
        <path id="Trazado_156590" data-name="Trazado 156590" d="M310.448,154.856c0,.091-5.412.165-12.085.165s-12.087-.074-12.087-.165,5.41-.165,12.087-.165,12.085.074,12.085.165" fill="#e0e0e0"/>
        <rect id="Rectángulo_5605" data-name="Rectángulo 5605" width="4.092" height="8.629" transform="translate(295.819 160.233)" fill="#fafafa"/>
        <path id="Trazado_156591" data-name="Trazado 156591" d="M310.448,172.248c0,.091-5.412.165-12.085.165s-12.087-.074-12.087-.165,5.41-.165,12.087-.165,12.085.074,12.085.165" fill="#e0e0e0"/>
        <rect id="Rectángulo_5606" data-name="Rectángulo 5606" width="4.092" height="8.629" transform="translate(295.819 177.625)" fill="#fafafa"/>
        <rect id="Rectángulo_5607" data-name="Rectángulo 5607" width="78.277" height="103.245" transform="translate(316.701 126.155)" fill="#ebebeb"/>
        <rect id="Rectángulo_5608" data-name="Rectángulo 5608" width="36.703" height="103.245" transform="translate(358.275 126.155)" fill="#e0e0e0"/>
        <rect id="Rectángulo_5609" data-name="Rectángulo 5609" width="7.038" height="17.1" transform="translate(333.114 140.133)" fill="#f5f5f5"/>
        <rect id="Rectángulo_5610" data-name="Rectángulo 5610" width="7.038" height="17.099" transform="translate(333.114 207.058)" fill="#f5f5f5"/>
        <path id="Trazado_156592" data-name="Trazado 156592" d="M358.275,163.944c0,.192-9.307.348-20.786.348s-20.788-.156-20.788-.348,9.305-.348,20.788-.348,20.786.156,20.786.348" fill="#f5f5f5"/>
        <rect id="Rectángulo_5611" data-name="Rectángulo 5611" width="7.038" height="17.1" transform="translate(333.114 173.849)" fill="#f5f5f5"/>
        <path id="Trazado_156593" data-name="Trazado 156593" d="M358.275,197.66c0,.192-9.307.348-20.786.348s-20.788-.156-20.788-.348,9.305-.348,20.788-.348,20.786.156,20.786.348" fill="#f5f5f5"/>
        <rect id="Rectángulo_5612" data-name="Rectángulo 5612" width="7.038" height="17.1" transform="translate(366.069 140.133)" fill="#f5f5f5"/>
        <rect id="Rectángulo_5613" data-name="Rectángulo 5613" width="7.038" height="17.1" transform="translate(381.339 140.133)" fill="#f5f5f5"/>
        <rect id="Rectángulo_5614" data-name="Rectángulo 5614" width="7.038" height="17.099" transform="translate(366.069 172.581)" fill="#f5f5f5"/>
        <rect id="Rectángulo_5615" data-name="Rectángulo 5615" width="7.038" height="17.099" transform="translate(381.339 172.581)" fill="#f5f5f5"/>
        <rect id="Rectángulo_5616" data-name="Rectángulo 5616" width="7.038" height="17.099" transform="translate(366.069 205.028)" fill="#f5f5f5"/>
        <rect id="Rectángulo_5617" data-name="Rectángulo 5617" width="7.038" height="17.099" transform="translate(381.339 205.028)" fill="#f5f5f5"/>
        <rect id="Rectángulo_5618" data-name="Rectángulo 5618" width="90.046" height="3.723" transform="translate(310.816 122.561)" fill="#e0e0e0"/>
        <path id="Trazado_156594" data-name="Trazado 156594" d="M395.525,126.635c0,.192-17.5.348-39.074.348s-39.076-.156-39.076-.348,17.492-.348,39.076-.348,39.074.156,39.074.348" fill="#ebebeb"/>
        <path id="Trazado_156595" data-name="Trazado 156595" d="M139.639,231.463H68.5l-.31-112.431h71.139Z" fill="#ebebeb"/>
        <rect id="Rectángulo_5619" data-name="Rectángulo 5619" width="35.57" height="112.431" transform="translate(103.759 119.032)" fill="#e0e0e0"/>
        <rect id="Rectángulo_5620" data-name="Rectángulo 5620" width="25.121" height="22.134" transform="translate(76.313 96.898)" fill="#ebebeb"/>
        <rect id="Rectángulo_5621" data-name="Rectángulo 5621" width="5.987" height="22.134" transform="translate(95.447 96.898)" fill="#e0e0e0"/>
        <rect id="Rectángulo_5622" data-name="Rectángulo 5622" width="79.15" height="1.291" transform="translate(62.261 117.741)" fill="#e0e0e0"/>
        <rect id="Rectángulo_5623" data-name="Rectángulo 5623" width="6.022" height="12.697" transform="translate(82.231 128.686)" fill="#fff"/>
        <path id="Trazado_156596" data-name="Trazado 156596" d="M103.759,146.366c0,.134-7.963.242-17.784.242s-17.785-.108-17.785-.242,7.961-.242,17.785-.242,17.784.108,17.784.242" fill="#e0e0e0"/>
        <rect id="Rectángulo_5624" data-name="Rectángulo 5624" width="6.022" height="12.697" transform="translate(118.111 128.686)" fill="#f5f5f5"/>
        <path id="Trazado_156597" data-name="Trazado 156597" d="M139.638,146.366c0,.134-7.963.242-17.784.242s-17.785-.108-17.785-.242,7.961-.242,17.785-.242,17.784.108,17.784.242" fill="#ebebeb"/>
        <rect id="Rectángulo_5625" data-name="Rectángulo 5625" width="6.022" height="12.697" transform="translate(118.111 153.894)" fill="#f5f5f5"/>
        <path id="Trazado_156598" data-name="Trazado 156598" d="M139.638,171.575c0,.134-7.963.243-17.784.243s-17.785-.109-17.785-.243,7.961-.242,17.785-.242,17.784.108,17.784.242" fill="#ebebeb"/>
        <rect id="Rectángulo_5626" data-name="Rectángulo 5626" width="6.022" height="12.697" transform="translate(118.111 179.864)" fill="#f5f5f5"/>
        <path id="Trazado_156599" data-name="Trazado 156599" d="M139.638,197.544c0,.134-7.963.243-17.784.243s-17.785-.109-17.785-.243,7.961-.242,17.785-.242,17.784.108,17.784.242" fill="#ebebeb"/>
        <rect id="Rectángulo_5627" data-name="Rectángulo 5627" width="6.022" height="12.697" transform="translate(118.111 205.833)" fill="#f5f5f5"/>
        <path id="Trazado_156600" data-name="Trazado 156600" d="M139.638,223.513c0,.134-7.963.244-17.784.244s-17.785-.11-17.785-.244,7.961-.242,17.785-.242,17.784.109,17.784.242" fill="#ebebeb"/>
        <rect id="Rectángulo_5628" data-name="Rectángulo 5628" width="6.022" height="12.697" transform="translate(82.231 154.279)" fill="#fff"/>
        <path id="Trazado_156601" data-name="Trazado 156601" d="M103.759,171.959c0,.134-7.963.243-17.784.243s-17.785-.109-17.785-.243,7.961-.242,17.785-.242,17.784.108,17.784.242" fill="#e0e0e0"/>
        <rect id="Rectángulo_5629" data-name="Rectángulo 5629" width="6.022" height="12.697" transform="translate(82.231 179.873)" fill="#fff"/>
        <path id="Trazado_156602" data-name="Trazado 156602" d="M103.759,197.553c0,.134-7.963.242-17.784.242s-17.785-.108-17.785-.242,7.961-.242,17.785-.242,17.784.108,17.784.242" fill="#e0e0e0"/>
        <rect id="Rectángulo_5630" data-name="Rectángulo 5630" width="6.022" height="12.697" transform="translate(82.231 205.466)" fill="#fff"/>
        <path id="Trazado_156603" data-name="Trazado 156603" d="M103.759,223.147c0,.134-7.963.242-17.784.242s-17.785-.108-17.785-.242,7.961-.242,17.785-.242,17.784.108,17.784.242" fill="#e0e0e0"/>
        <path id="Trazado_156604" data-name="Trazado 156604" d="M421.372,96.305c.376-2.732-3.481-4.981-6.379-5.214a16.45,16.45,0,0,1-4.126-.357c-2.837-.988-3.97-4.653-6.738-5.821-2.069-.871-4.452-.1-6.458.914s-3.988,2.281-6.23,2.424c-1.949.125-4.066-.6-5.772.354-1.271.71-1.937,2.175-3.108,3.038a7.4,7.4,0,0,1-4.063,1.1,11.457,11.457,0,0,0-4.189.685,3.311,3.311,0,0,0-2.1,3.36Z" fill="#f5f5f5"/>
        <path id="Trazado_156605" data-name="Trazado 156605" d="M301.021,18.423c.588-4.277-5.449-7.8-9.985-8.162-2.162-.174-4.41.157-6.459-.558-4.44-1.547-6.214-7.284-10.547-9.111-3.238-1.366-6.967-.15-10.108,1.43s-6.242,3.57-9.75,3.794c-3.052.2-6.367-.936-9.035.555-1.991,1.11-3.032,3.4-4.866,4.755-1.794,1.323-4.134,1.6-6.36,1.725s-4.53.143-6.557,1.071-3.7,3.071-3.283,5.26Z" fill="#ebebeb"/>
        <path id="Trazado_156606" data-name="Trazado 156606" d="M95.414,77.576c.469-3.41-4.343-6.215-7.96-6.507-1.724-.139-3.515.125-5.149-.445-3.54-1.233-4.954-5.806-8.408-7.263-2.582-1.089-5.555-.12-8.058,1.14s-4.978,2.846-7.774,3.025c-2.433.155-5.075-.747-7.2.442-1.586.885-2.417,2.713-3.879,3.791a9.255,9.255,0,0,1-5.07,1.375,14.27,14.27,0,0,0-5.228.854c-1.616.74-2.952,2.448-2.617,4.193Z" fill="#f5f5f5"/>
        <path id="Trazado_156607" data-name="Trazado 156607" d="M60.043,152.788a21.354,21.354,0,0,0-16.83,33.821l-.005,0,.208.283.029.04,15.124,20.571a3.247,3.247,0,0,0,5.31-.111l13.67-20.323c2.587-3.945,4.361-8.069,4.361-12.93a21.359,21.359,0,0,0-21.867-21.353m.508,36.886a16.058,16.058,0,1,1,16.058-16.058,16.057,16.057,0,0,1-16.058,16.058" fill="#537e39"/>
        <g id="Grupo_78429" data-name="Grupo 78429" opacity="0.3">
          <g id="Grupo_78428" data-name="Grupo 78428">
            <g id="Grupo_78427" data-name="Grupo 78427" clip-path="url(#clip-path-3)">
              <path id="Trazado_156608" data-name="Trazado 156608" d="M60.036,152.811a21.354,21.354,0,0,0-16.83,33.821l-.005,0,.208.283.029.04,15.124,20.571a3.247,3.247,0,0,0,5.31-.111l13.67-20.323c2.587-3.945,4.361-8.069,4.361-12.93a21.359,21.359,0,0,0-21.867-21.353m.508,36.886A16.059,16.059,0,1,1,76.6,173.639,16.057,16.057,0,0,1,60.544,189.7"/>
            </g>
          </g>
        </g>
        <path id="Trazado_156609" data-name="Trazado 156609" d="M58.777,152.788a21.354,21.354,0,0,0-16.83,33.821l0,0,.208.283.029.04L57.3,207.505a3.247,3.247,0,0,0,5.31-.111l13.67-20.323c2.587-3.945,4.361-8.069,4.361-12.93a21.359,21.359,0,0,0-21.867-21.353m.508,33.991a12.162,12.162,0,1,1,12.162-12.162,12.162,12.162,0,0,1-12.162,12.162" fill="#b1c5a5"/>
        <path id="Trazado_156610" data-name="Trazado 156610" d="M395.073,132.542a16.274,16.274,0,0,0-12.826,25.775h0l.158.216.023.031,11.526,15.677a2.473,2.473,0,0,0,4.046-.085l10.418-15.488a17.624,17.624,0,0,0,3.324-9.853,16.278,16.278,0,0,0-16.665-16.274m.387,28.111A12.238,12.238,0,1,1,407.7,148.415a12.238,12.238,0,0,1-12.238,12.238" fill="#537e39"/>
        <g id="Grupo_78432" data-name="Grupo 78432" opacity="0.3">
          <g id="Grupo_78431" data-name="Grupo 78431">
            <g id="Grupo_78430" data-name="Grupo 78430" clip-path="url(#clip-path-4)">
              <path id="Trazado_156611" data-name="Trazado 156611" d="M395.073,132.576a16.274,16.274,0,0,0-12.826,25.775h0l.158.216.023.031,11.526,15.677a2.473,2.473,0,0,0,4.046-.085L408.414,158.7a17.624,17.624,0,0,0,3.324-9.853,16.278,16.278,0,0,0-16.665-16.274m.387,28.111A12.238,12.238,0,1,1,407.7,148.449a12.238,12.238,0,0,1-12.238,12.238"/>
            </g>
          </g>
        </g>
        <path id="Trazado_156612" data-name="Trazado 156612" d="M394.108,132.542a16.274,16.274,0,0,0-12.826,25.775l0,0,.158.215.023.031,11.526,15.677a2.474,2.474,0,0,0,4.046-.084l10.418-15.488a17.63,17.63,0,0,0,3.324-9.854,16.279,16.279,0,0,0-16.665-16.274m.387,25.9a9.269,9.269,0,1,1,9.268-9.268,9.268,9.268,0,0,1-9.268,9.268" fill="#b1c5a5"/>
        <path id="Trazado_156613" data-name="Trazado 156613" d="M71.724,229.567.3,406.928l133.914-22.021,98.2,22.021,100.585-22.021,134.509,25.659-72.016-181-80.349-20.236-81.241,15.475-83.026-15.475Z" fill="#fff"/>
        <path id="Trazado_156614" data-name="Trazado 156614" d="M71.724,229.567s.437-.123,1.312-.352l3.909-1.016,15.319-3.95L150.849,209.2l.028-.007.029,0,83.035,15.427h-.066l81.235-15.505.046-.009.045.011,80.354,20.215.115.029.044.111,72.04,180.989.174.438-.463-.089-69.193-13.2-65.316-12.461h.1L232.474,407.172l-.054.012-.054-.012-98.2-22.039.089,0L.334,407.116,0,407.171l.127-.314C22.217,352.1,40.1,307.763,52.472,277.109c6.189-15.31,10.995-27.2,14.257-35.27l3.716-9.164c.84-2.062,1.279-3.108,1.279-3.108s-.415,1.074-1.242,3.15-2.063,5.16-3.678,9.2c-3.243,8.082-8.021,19.994-14.174,35.33L.48,407l-.207-.259,133.906-22.062.045-.008.044.01,98.207,22h-.108l100.582-22.03.052-.011.052.01,65.316,12.458,69.193,13.2-.289.35c-25.68-64.568-50-125.71-71.992-181.008l.16.14L315.1,209.536l.091,0-81.247,15.443-.033.006-.034-.006L150.858,209.46l.056,0L92.341,224.363,76.99,228.254l-3.931.988c-.882.22-1.335.325-1.335.325" fill="#263238"/>
        <path id="Trazado_156615" data-name="Trazado 156615" d="M75.89,234.329,12.8,398l120.82-19.64,100.286,23.211L333,377.766l123.2,23.806L391.331,234.329l-74.991-18.45-82.432,15.474-84.217-15.474Z" fill="#fff"/>
        <path id="Trazado_156616" data-name="Trazado 156616" d="M19.812,379.815l96.033-22.241L112.3,336.886l7.98-5.025-12.413-48.316L69.463,251Z" fill="#455a64"/>
        <path id="Trazado_156617" data-name="Trazado 156617" d="M12.8,398l4.682-12.147L178.5,348.444l8.746,24.071-2.836,4.86-30.243,5.741-20.546-4.756Z" fill="#ebebeb"/>
        <path id="Trazado_156618" data-name="Trazado 156618" d="M187.247,346.115l6.388,23.815,18.541,8.061,26.387-11.724,55.345-16.122-17.271-26.013Z" fill="#ebebeb"/>
        <path id="Trazado_156619" data-name="Trazado 156619" d="M122.928,354.935l29.919-6.491L146.878,329l-21.8,5.267-5.8,4.094Z" fill="#e0e0e0"/>
        <path id="Trazado_156620" data-name="Trazado 156620" d="M116.821,290.51l10.864,35.647,16.975-3.735-3.056-13.7,37.344-8.37Z" fill="#455a64"/>
        <path id="Trazado_156621" data-name="Trazado 156621" d="M72.288,243.673,119.28,281.4l62.384,11.827,66.541-16.542L217.831,228.4l-68.14-12.52-73.8,18.45Z" fill="#ebebeb"/>
        <path id="Trazado_156622" data-name="Trazado 156622" d="M226.917,230.068l97.556,149.747,8.532-2.05-94.42-147.29-4.676.878Z" fill="#ebebeb"/>
        <path id="Trazado_156623" data-name="Trazado 156623" d="M147.885,312.5l12.362,35.949L269.98,320.409l-20.308-34.573Z" fill="#e0e0e0"/>
        <path id="Trazado_156624" data-name="Trazado 156624" d="M208.932,395.791,210,394.2l7.208-10.714,17.3-5.5,11.894-8.961,51.576-14.094,16.016,27.4-80.081,19.239" fill="#e0e0e0"/>
        <path id="Trazado_156625" data-name="Trazado 156625" d="M300.287,218.892l25.849,28.751,65.195-13.314-74.991-18.45Z" fill="#e0e0e0"/>
        <path id="Trazado_156626" data-name="Trazado 156626" d="M405.053,269.7l-47.884,13.3-24.164-32,59.962-12.459Z" fill="#e0e0e0"/>
        <path id="Trazado_156627" data-name="Trazado 156627" d="M243.705,229.514l50.2,72.112L351.849,285l-57.941-64.91Z" fill="#ebebeb"/>
        <path id="Trazado_156628" data-name="Trazado 156628" d="M384.063,387.632,442,364.938l14.21,36.634Z" fill="#e0e0e0"/>
        <path id="Trazado_156629" data-name="Trazado 156629" d="M323.476,297.313l31.477-8.205,33.249,39.9-32.363,10.747Z" fill="#455a64"/>
        <path id="Trazado_156630" data-name="Trazado 156630" d="M362.046,285.836l35.023,40.157,26.385-8.853-17.347-44.722Z" fill="#e0e0e0"/>
        <path id="Trazado_156631" data-name="Trazado 156631" d="M388.2,378.253l-26.156-36.284,63.221-20.155,12.847,33.12-8.239,8.3Z" fill="#455a64"/>
        <path id="Trazado_156632" data-name="Trazado 156632" d="M296.986,306.93l48.06,72.885,29.594,6,5.583-2.556-60.9-83.058Z" fill="#e0e0e0"/>
        <path id="Trazado_156633" data-name="Trazado 156633" d="M100.025,361.237l-11.973-56.3-42.223,7.377-26.016,67.5Z" fill="#e0e0e0"/>
        <path id="Trazado_156634" data-name="Trazado 156634" d="M138.846,218.59v25.774l9.039,1.142,25.239,29.4,21.7-2.492,10.328,14.97-23.484,5.838L119.28,281.4,72.288,243.674l3.6-9.345Z" fill="#455a64"/>
        <path id="Trazado_156635" data-name="Trazado 156635" d="M270.8,224.646l35.45,51.732,30.535-8.25-42.882-48.039Z" fill="#e0e0e0"/>
        <path id="Trazado_156636" data-name="Trazado 156636" d="M374.87,278.088l-12.824-20.052,34.679-9.8,8.328,21.469Z" fill="#ebebeb"/>
        <path id="Trazado_156637" data-name="Trazado 156637" d="M323.476,347.1l16.786-5.8,32.558,44.14-27.774-5.627Z" fill="#ebebeb"/>
        <path id="Trazado_156638" data-name="Trazado 156638" d="M168.621,386.461l15.613-1.9,5.2-7.616,19.5,6.13-5.1,11.536Z" fill="#455a64"/>
        <path id="Trazado_156639" data-name="Trazado 156639" d="M75.89,234.329s1.644-.432,4.865-1.249l14.28-3.6,54.625-13.724.027-.007.028.005,84.226,15.423h-.066L316.3,215.668l.046-.009.045.012,75,18.43.119.029.044.114,64.9,167.235.17.436-.46-.089-61.813-11.942L332.955,378.02l.11,0-99.1,23.8-.057.013-.057-.013L133.57,378.584l.088,0-120.826,19.6-.324.053.118-.306c19.528-50.556,35.333-91.473,46.257-119.756,5.467-14.124,9.713-25.092,12.593-32.534l3.283-8.45c.742-1.9,1.131-2.865,1.131-2.865s-.365.991-1.094,2.906l-3.246,8.488c-2.861,7.455-7.079,18.443-12.51,32.593L12.977,398.069l-.2-.253,120.813-19.682.044-.007.044.01L233.964,401.33h-.114l99.094-23.816L333,377.5l.056.01,61.388,11.861,61.812,11.946-.29.348c-23.089-59.545-45.006-116.068-64.852-167.252l.163.143-74.987-18.47.091,0-82.437,15.442-.034.006-.033-.006-84.207-15.526h.055l-54.61,13.584L80.8,233.134c-3.235.8-4.91,1.195-4.91,1.195" fill="#263238"/>
        <g id="Grupo_78435" data-name="Grupo 78435" opacity="0.2">
          <g id="Grupo_78434" data-name="Grupo 78434">
            <g id="Grupo_78433" data-name="Grupo 78433" clip-path="url(#clip-path-5)">
              <path id="Trazado_156640" data-name="Trazado 156640" d="M232.421,406.929l1.488-182.123-83.027-15.474L134.218,384.908Z"/>
            </g>
          </g>
        </g>
        <g id="Grupo_78438" data-name="Grupo 78438" opacity="0.2">
          <g id="Grupo_78437" data-name="Grupo 78437">
            <g id="Grupo_78436" data-name="Grupo 78436" clip-path="url(#clip-path-6)">
              <path id="Trazado_156641" data-name="Trazado 156641" d="M315.15,209.331,333,384.907l134.509,25.658-72.016-181Z"/>
            </g>
          </g>
        </g>
        <path id="Trazado_156642" data-name="Trazado 156642" d="M234.55,52.471C176.541,53.816,129.241,101.094,127.86,159.1a108.826,108.826,0,0,0,20.551,66.468l-.028.009,1.065,1.449c.051.068.1.137.15.2L227,332.518a16.618,16.618,0,0,0,27.178-.568l69.965-104.015c13.239-20.192,22.321-41.3,22.321-66.175A109.32,109.32,0,0,0,234.55,52.471m2.6,188.787a82.188,82.188,0,1,1,82.188-82.188,82.188,82.188,0,0,1-82.188,82.188" fill="#537e39"/>
        <g id="Grupo_78441" data-name="Grupo 78441" opacity="0.3">
          <g id="Grupo_78440" data-name="Grupo 78440">
            <g id="Grupo_78439" data-name="Grupo 78439" clip-path="url(#clip-path-7)">
              <path id="Trazado_156643" data-name="Trazado 156643" d="M234.55,52.471C176.541,53.816,129.241,101.094,127.86,159.1a108.826,108.826,0,0,0,20.551,66.468l-.028.009,1.065,1.449c.051.068.1.137.15.2L227,332.518a16.618,16.618,0,0,0,27.178-.568l69.965-104.015c13.239-20.192,22.321-41.3,22.321-66.175A109.32,109.32,0,0,0,234.55,52.471m2.6,188.787a82.188,82.188,0,1,1,82.188-82.188,82.188,82.188,0,0,1-82.188,82.188"/>
            </g>
          </g>
        </g>
        <path id="Trazado_156644" data-name="Trazado 156644" d="M228.071,52.471c-58.009,1.345-105.309,48.623-106.69,106.632a108.826,108.826,0,0,0,20.551,66.468l-.028.009,1.065,1.449.15.2,77.406,105.284a16.618,16.618,0,0,0,27.178-.568l69.965-104.015c13.239-20.192,22.321-41.3,22.321-66.175A109.32,109.32,0,0,0,228.071,52.471m2.6,188.787a82.188,82.188,0,1,1,82.188-82.188,82.188,82.188,0,0,1-82.188,82.188" fill="#b1c5a5"/>
        <g id="Grupo_78444" data-name="Grupo 78444" opacity="0.3">
          <g id="Grupo_78443" data-name="Grupo 78443">
            <g id="Grupo_78442" data-name="Grupo 78442" clip-path="url(#clip-path-8)">
              <path id="Trazado_156645" data-name="Trazado 156645" d="M277.951,221.058c-1.316,1.489-88.228,24.437-89.543,25.926,16.668,5.083,37.03,9.508,54.426,8.5,9.809-.569,20.038-2.317,27.793-8.351s12.044-17.456,7.324-26.074"/>
            </g>
          </g>
        </g>
        <path id="Trazado_156646" data-name="Trazado 156646" d="M194.954,55.2a22.718,22.718,0,0,0-5.684,20.237c.762,3.461,2.286,7.32.384,10.31-1.882,2.96-6.318,3.5-8.1,6.528-2.093,3.56.7,8.03.353,12.145a8.177,8.177,0,0,1-7.768,7.223,31.91,31.91,0,0,0,16.619,4.6L194.355,110c-1.385,2.2-.5,5.281,1.388,7.068s4.529,2.536,7.1,2.971A40.486,40.486,0,0,0,237.177,109.4" fill="#263238"/>
        <path id="Trazado_156647" data-name="Trazado 156647" d="M265.076,76.9c-1.252-2.56-3.072-4.84-4.049-7.517-2.1-5.755-.145-12.837-3.771-17.774-2.581-3.513-7.206-4.762-11.51-5.455S236.862,45,233.36,42.4c-2.568-1.9-4.28-4.784-6.842-6.7-3.651-2.727-8.533-3.14-13.076-2.785-4.665.364-9.385,1.479-13.259,4.1s-6.791,6.942-6.891,11.62c-.049,2.281.552,4.58.15,6.826-.442,2.469-2.039,4.566-2.873,6.932a12,12,0,0,0,4.968,13.829l37.5,36.565c7.024,1.585,22.759-3.728,27.224-9.377s7.976-20.055,4.812-26.523" fill="#263238"/>
        <path id="Trazado_156648" data-name="Trazado 156648" d="M195.646,70.9c0-9.5,5.544-21.493,15.03-21.086l29.894,5.595a5.556,5.556,0,0,1,5.314,5.314l1.295,71.16.206.031s-5.4,20.446-25.247,15.594c-3.934-.963-5.968-5.066-7.014-9.355l-.2.038c-.041-.514-.079-.993-.117-1.485a46.542,46.542,0,0,1-.748-9.734c-.426-5.725-.572-8.075-.572-8.021,0,0-12.21-1.25-15.7-16.859-1.736-7.762-2.147-20.642-2.143-31.192" fill="#ffc09d"/>
        <path id="Trazado_156649" data-name="Trazado 156649" d="M223.033,80.632a2.027,2.027,0,0,0,2.077,1.919,1.94,1.94,0,0,0,1.971-1.955,2.028,2.028,0,0,0-2.076-1.919,1.941,1.941,0,0,0-1.972,1.955" fill="#263238"/>
        <path id="Trazado_156650" data-name="Trazado 156650" d="M202.382,82.209a2.026,2.026,0,0,0,2.077,1.918,1.938,1.938,0,0,0,1.971-1.954,2.028,2.028,0,0,0-2.076-1.919,1.939,1.939,0,0,0-1.972,1.955" fill="#263238"/>
        <path id="Trazado_156651" data-name="Trazado 156651" d="M198.046,77.736c.268.336,1.965-1.1,4.343-1.089,2.375-.027,4.1,1.4,4.36,1.063.129-.15-.141-.756-.89-1.4a5.368,5.368,0,0,0-6.946.02c-.742.651-1,1.258-.867,1.408" fill="#263238"/>
        <path id="Trazado_156652" data-name="Trazado 156652" d="M220.019,77.2c.322.3,1.968-1.287,4.488-1.531,2.516-.284,4.5.922,4.739.564.121-.16-.227-.722-1.1-1.27a6.131,6.131,0,0,0-3.832-.858,5.979,5.979,0,0,0-3.533,1.628c-.714.715-.923,1.334-.767,1.467" fill="#263238"/>
        <path id="Trazado_156653" data-name="Trazado 156653" d="M213.38,93.112a14.468,14.468,0,0,0-3.574-.416c-.559-.023-1.092-.1-1.209-.473a2.834,2.834,0,0,1,.267-1.671q.658-2.065,1.379-4.333c1.9-6.166,3.246-11.223,3-11.3s-2,4.863-3.9,11.029q-.684,2.28-1.307,4.355a3.217,3.217,0,0,0-.152,2.2,1.4,1.4,0,0,0,.965.756,3.831,3.831,0,0,0,.952.072,14.213,14.213,0,0,0,3.582-.22" fill="#263238"/>
        <path id="Trazado_156654" data-name="Trazado 156654" d="M213.49,118.953A40.187,40.187,0,0,0,234.252,112s-4.444,11.151-20.316,10.664Z" fill="#ff9b6c"/>
        <path id="Trazado_156655" data-name="Trazado 156655" d="M214.629,98.3a3.931,3.931,0,0,1,3.424-1.676,3.582,3.582,0,0,1,2.554,1.171,2.271,2.271,0,0,1,.335,2.582,2.633,2.633,0,0,1-2.807.9,8.253,8.253,0,0,1-2.885-1.485,2.394,2.394,0,0,1-.661-.605.728.728,0,0,1-.048-.81" fill="#ff725e"/>
        <path id="Trazado_156656" data-name="Trazado 156656" d="M219.878,94.216c-.355,0-.212,2.363-2.128,4.166s-4.447,1.7-4.445,2.032c-.023.151.59.424,1.654.386a5.884,5.884,0,0,0,3.718-1.562,5.126,5.126,0,0,0,1.633-3.484c.029-.993-.271-1.562-.432-1.538" fill="#263238"/>
        <path id="Trazado_156657" data-name="Trazado 156657" d="M219.2,69.836c.251.578,2.406.162,4.978.31,2.575.1,4.68.714,4.986.162.135-.263-.258-.8-1.127-1.318a8.67,8.67,0,0,0-7.591-.36c-.913.437-1.356.931-1.246,1.206" fill="#263238"/>
        <path id="Trazado_156658" data-name="Trazado 156658" d="M199.267,71.067c.468.467,2.149-.153,4.208-.307,2.053-.216,3.825.094,4.194-.448.16-.262-.146-.739-.937-1.16a6.469,6.469,0,0,0-3.474-.6,6.387,6.387,0,0,0-3.3,1.2c-.7.553-.9,1.077-.7,1.306" fill="#263238"/>
        <path id="Trazado_156659" data-name="Trazado 156659" d="M247.2,56.769c-1.751-2.015-4.5-2.793-7.1-3.4a145.164,145.164,0,0,0-34.246-3.787c-1.083,2.518.662,5.494,3.023,6.885s5.184,1.676,7.86,2.271,5.487,1.694,6.885,4.051c1.487,2.507.989,5.793,2.348,8.371,2.338,4.437,9.07,5.03,11.383,9.479,1.749,3.366.227,7.423.235,11.216a13.553,13.553,0,0,0,15.323,13.432q-1.658-20.274-3.316-40.548c-.23-2.815-.544-5.839-2.4-7.971" fill="#263238"/>
        <path id="Trazado_156660" data-name="Trazado 156660" d="M278.957,86.855c-2.383-1.6-5.268-2.87-6.493-5.467-1.784-3.783.741-8.876-1.809-12.191-2.326-3.023-7.8-2.087-10-5.2-1.722-2.431-.492-4.968-1.329-7.2s-4.387-3.79-6.691-3.187l-14.591,29.1c-.453,9.14-1.5,14.119,1.142,19.059,1.448,2.709,3.206,5.3,4.039,8.26s.542,6.481-1.673,8.61c11.067-.676,20.524-7.844,29.229-14.713l9.213-7.27a7.4,7.4,0,0,0,2.435-2.683c1.129-2.64-1.086-5.523-3.469-7.124" fill="#263238"/>
        <path id="Trazado_156661" data-name="Trazado 156661" d="M270.676,101.21a5.251,5.251,0,0,1-1.138.388,10.065,10.065,0,0,1-3.444.237,10.663,10.663,0,0,1-5.116-1.894,10.491,10.491,0,0,1-4.028-5.961,10.822,10.822,0,0,1-.23-4.249,17.287,17.287,0,0,1,1.463-4.353,16.3,16.3,0,0,0,1.506-4.516,5.5,5.5,0,0,0-1.237-4.56c-1.183-1.195-3.079-1.262-4.892-1.713a5.063,5.063,0,0,1-2.577-1.4,4.949,4.949,0,0,1-1.155-2.765c-.258-2.008.339-3.96.446-5.877a6.286,6.286,0,0,0-.375-2.8,3.939,3.939,0,0,0-1.891-2c-1.739-.907-3.781-.8-5.746-.7a11.984,11.984,0,0,1-5.875-.87,10.721,10.721,0,0,1-4.448-3.645,17.675,17.675,0,0,1-2.161-5.047,24.729,24.729,0,0,0-1.763-4.771,11.052,11.052,0,0,0-3.119-3.52,12.412,12.412,0,0,0-14.637-.005,15.116,15.116,0,0,0-3.767,3.8,19.963,19.963,0,0,0-2.083,4.1,1.06,1.06,0,0,1,.064-.3c.06-.192.124-.488.267-.856a14.519,14.519,0,0,1,1.544-3.085,15.043,15.043,0,0,1,3.766-3.956,12.963,12.963,0,0,1,6.764-2.525,13.18,13.18,0,0,1,8.4,2.39,11.57,11.57,0,0,1,3.3,3.681,25.166,25.166,0,0,1,1.834,4.87,17.217,17.217,0,0,0,2.1,4.869,10.129,10.129,0,0,0,4.2,3.419,11.368,11.368,0,0,0,5.592.806c1.945-.1,4.126-.235,6.072.773a4.6,4.6,0,0,1,2.186,2.32,6.891,6.891,0,0,1,.421,3.084c-.125,2.032-.7,3.921-.459,5.767a4.332,4.332,0,0,0,.991,2.421,4.448,4.448,0,0,0,2.271,1.225c.866.231,1.778.344,2.676.586a5.257,5.257,0,0,1,2.478,1.3,6.048,6.048,0,0,1,1.381,5.049,16.693,16.693,0,0,1-1.58,4.665,16.934,16.934,0,0,0-1.46,4.213,10.4,10.4,0,0,0,.181,4.061,10.152,10.152,0,0,0,3.8,5.78,10.555,10.555,0,0,0,4.933,1.937,11.941,11.941,0,0,0,4.554-.376" fill="#455a64"/>
        <path id="Trazado_156662" data-name="Trazado 156662" d="M282.635,80.3a2.323,2.323,0,0,1,.486.845,3.963,3.963,0,0,1-.089,2.78,4.208,4.208,0,0,1-1.2,1.669,4.4,4.4,0,0,1-2.251.951,5.52,5.52,0,0,1-5.222-2.373,7.39,7.39,0,0,1-1.248-3.228,10.3,10.3,0,0,1,.263-3.726c.537-2.491,1.79-5.02,1.436-7.794a5.108,5.108,0,0,0-1.8-3.585,5.582,5.582,0,0,0-4.154-.686,13.538,13.538,0,0,1-4.809.173,4.16,4.16,0,0,1-2.179-1.368,5.934,5.934,0,0,1-1.139-2.3,19.56,19.56,0,0,1-.287-4.924,10.808,10.808,0,0,0-.885-4.475,11.5,11.5,0,0,0-6.033-5.972c-2.573-1.1-5.34-.868-7.835-.67a22.621,22.621,0,0,1-7.083-.121,14.854,14.854,0,0,1-8.509-5.473,10.47,10.47,0,0,1-1.79-3.291,20.242,20.242,0,0,0,1.988,3.137,14.72,14.72,0,0,0,3.18,2.933,14.376,14.376,0,0,0,5.227,2.248,22.476,22.476,0,0,0,6.941.035c2.491-.217,5.356-.495,8.107.653A12.062,12.062,0,0,1,260.142,52a11.406,11.406,0,0,1,.948,4.723,19.21,19.21,0,0,0,.269,4.763,4.121,4.121,0,0,0,2.856,3.216,13.216,13.216,0,0,0,4.574-.179,6.16,6.16,0,0,1,4.6.82,5.687,5.687,0,0,1,2.019,4.009,10.856,10.856,0,0,1-.431,4.219c-.356,1.315-.787,2.55-1.075,3.764a9.861,9.861,0,0,0-.291,3.54,6.962,6.962,0,0,0,1.129,3.032,5.138,5.138,0,0,0,4.8,2.277,4.113,4.113,0,0,0,2.1-.832,4,4,0,0,0,1.156-1.526,3.946,3.946,0,0,0,.2-2.645c-.181-.6-.394-.866-.363-.885" fill="#263238"/>
        <path id="Trazado_156663" data-name="Trazado 156663" d="M168.168,103.009a4.379,4.379,0,0,0,.437,2.858,3.812,3.812,0,0,0,2.6,1.989,4,4,0,0,0,3.865-1.662,3.671,3.671,0,0,0,.62-2.424,7.624,7.624,0,0,0-.808-2.713c-.841-1.772-2.309-3.623-2.466-6.064a8.922,8.922,0,0,1,2.443-6.795,10.466,10.466,0,0,1,3.16-2.275,15.363,15.363,0,0,1,3.821-1.106,20.661,20.661,0,0,0,3.73-.927,5.078,5.078,0,0,0,2.689-2.244,6.247,6.247,0,0,0,.611-3.388,12.473,12.473,0,0,0-.756-3.338c-.755-2.125-1.709-4.159-1.88-6.267a9.814,9.814,0,0,1,1.21-5.594,12.641,12.641,0,0,1,3.146-3.514,23.778,23.778,0,0,0,2.576-2.37,7.385,7.385,0,0,0,1.471-2.557c.011,0,0,.069-.02.2a3.145,3.145,0,0,1-.143.567,5.93,5.93,0,0,1-1.116,1.952,21.958,21.958,0,0,1-2.532,2.481,12.532,12.532,0,0,0-2.982,3.461,9.4,9.4,0,0,0-1.078,5.325c.18,1.984,1.117,3.956,1.907,6.119a12.993,12.993,0,0,1,.811,3.491,6.839,6.839,0,0,1-.669,3.732,5.707,5.707,0,0,1-3.006,2.54,21,21,0,0,1-3.848.964,14.833,14.833,0,0,0-3.67,1.055,9.859,9.859,0,0,0-2.973,2.127,8.344,8.344,0,0,0-2.311,6.316c.116,2.237,1.486,4.018,2.358,5.881a8.087,8.087,0,0,1,.821,2.91,4.133,4.133,0,0,1-.745,2.72,4.372,4.372,0,0,1-4.305,1.751,4.213,4.213,0,0,1-3.17-4.441,2.314,2.314,0,0,1,.2-.759" fill="#263238"/>
        <path id="Trazado_156664" data-name="Trazado 156664" d="M171.863,163.984s1.68-13.444,8.162-20.166,33.6-15.139,33.6-15.139,1.121,9.59,7.614,11.9c6.889,2.454,14.67,1.532,19.715-4.32a31.53,31.53,0,0,0,6.3-12.934s32.386,2.98,37.668,11.863,12.112,43.287,12.112,43.287l-30.28,6.427,4.116,59.267H190.407l1.575-55.619-21.9,3.128Z" fill="#455a64"/>
        <path id="Trazado_156665" data-name="Trazado 156665" d="M260.744,186.862a5,5,0,0,1-.108-1.337c-.024-.86-.036-2.1-.035-3.64,0-3.073.049-7.317.146-12s.224-8.931.351-12c.063-1.536.127-2.779.186-3.638a4.984,4.984,0,0,1,.164-1.334,4.948,4.948,0,0,1,.107,1.335c.025.859.036,2.1.036,3.639,0,3.072-.05,7.318-.147,12.008s-.224,8.933-.351,12c-.063,1.536-.126,2.778-.186,3.637a4.976,4.976,0,0,1-.163,1.331" fill="#263238"/>
        <path id="Trazado_156666" data-name="Trazado 156666" d="M184.523,162.461c.185-.053,2.075,5.957,4.219,13.423s3.735,13.563,3.55,13.616-2.073-5.956-4.22-13.424-3.735-13.562-3.549-13.615" fill="#263238"/>
        <path id="Trazado_156667" data-name="Trazado 156667" d="M281.541,133.057c.024.124-1.436.392-3.646,1.233a26.306,26.306,0,0,0-13.623,11.848c-1.14,2.073-1.607,3.481-1.726,3.44a3.028,3.028,0,0,1,.228-1.021,16.727,16.727,0,0,1,1.06-2.647,24.015,24.015,0,0,1,13.895-12.085,16.655,16.655,0,0,1,2.768-.683,3.057,3.057,0,0,1,1.044-.085" fill="#263238"/>
        <path id="Trazado_156668" data-name="Trazado 156668" d="M179.537,146.533c.187-.047.823,1.822,1.421,4.174s.931,4.3.744,4.347-.822-1.822-1.42-4.175-.931-4.3-.745-4.346" fill="#263238"/>
        <path id="Trazado_156669" data-name="Trazado 156669" d="M291.649,179.622s-9.07,46.059-10.108,50-2.714,14.55-13.7,16.744c-14.827,2.961-73.06.894-73.06.894l10.984-13.906,50.95-14.287,6.964-33.51Z" fill="#ffc09d"/>
        <path id="Trazado_156670" data-name="Trazado 156670" d="M204.807,225.58a3.263,3.263,0,0,1,.435,1.061,15.16,15.16,0,0,1,.584,3.072,17.713,17.713,0,0,1-2.081,10.032,20.722,20.722,0,0,1-3.334,4.619,11.134,11.134,0,0,1-3.889,2.59,10.845,10.845,0,0,1-3.062.69,3.37,3.37,0,0,1-1.148-.038,23.4,23.4,0,0,0,4.021-1.107,11.3,11.3,0,0,0,3.619-2.584,21.7,21.7,0,0,0,3.183-4.507,18.538,18.538,0,0,0,2.2-9.662c-.117-2.584-.652-4.133-.527-4.166" fill="#ff9b6c"/>
        <path id="Trazado_156671" data-name="Trazado 156671" d="M156.048,171.068s8.21,27.628,11.617,39.566c3.62,12.685,11.528,41.488,28.391,36.371,12.826-3.893,9.051-20.515,9.051-20.515l-13.125-37.938-10.207,1.7-9.912-25.584Z" fill="#ffc09d"/>
        <path id="Trazado_156672" data-name="Trazado 156672" d="M200.623,227.684a14.3,14.3,0,0,0,.005-6.25,19.424,19.424,0,0,0-2.733-6.21,55.064,55.064,0,0,0-5.32-6.525,54.243,54.243,0,0,1-5.34-6.639,41.73,41.73,0,0,1-3.354-6.1,38,38,0,0,1-1.644-4.391,7.122,7.122,0,0,1-.4-1.673,9.578,9.578,0,0,1,.655,1.585c.4,1.025.981,2.506,1.834,4.272a46.213,46.213,0,0,0,3.44,5.952,58.537,58.537,0,0,0,5.326,6.532,51.311,51.311,0,0,1,5.34,6.642,19.068,19.068,0,0,1,2.677,6.457,12.144,12.144,0,0,1,.056,4.713,8.222,8.222,0,0,1-.352,1.234c-.1.274-.169.413-.192.4" fill="#ff9b6c"/>
        <path id="Trazado_156673" data-name="Trazado 156673" d="M171.863,164.672s.058-11.033-.912-14.144l-7.8-17.421s-2.008-1.231-2.967,2.243c-.944,3.419,2.083,7.045,2.083,7.045l.237,4.561-3.156-2.566-6.073-11.381s-4.183-8.286-5.27-6.971-.728,3.979,1.077,7.555l4.1,8.112s.617,1.439-1.532-.65-6.819-12.208-7.785-13.472-2.291-4.972-4.385-4.134.588,5.285.588,5.285l6.7,15.005s-3.882-5.683-4.585-6.641-2.316-4.212-3.589-5.868-2.661-2.3-3.584-1.9a1.869,1.869,0,0,0-1.159,2.287L141,144.023s3.576,5.566,3.57,5.988-3.117-1.839-3.117-1.839l-3-3.821s-3.243-5.724-4.946-5.412-1.392,1.579-1.392,1.579l6.026,10.42,8.738,11.239,9.345,9.284,5.4-1.74Z" fill="#ffc09d"/>
        <path id="Trazado_156674" data-name="Trazado 156674" d="M154.674,162.807a21.7,21.7,0,0,0,.559-3.477c.349-2.067,1.063-5.15,3.592-7.145a5.934,5.934,0,0,1,3.631-1.385h.447l-.031-.485c-.138-2.139-.061-4.175-.139-5.529-.043-1.378-.19-2.2-.3-2.185a11.411,11.411,0,0,0-.212,2.178,56.1,56.1,0,0,0-.173,5.669l.415-.484a6.55,6.55,0,0,0-4.193,1.521,9.086,9.086,0,0,0-2.825,3.945,14.441,14.441,0,0,0-.838,3.819,10.348,10.348,0,0,0,.067,3.557" fill="#ff9b6c"/>
      </g>
    </g>
  </g>
</svg>
