<svg id="Grupo_78344" data-name="Grupo 78344" xmlns="http://www.w3.org/2000/svg" width="1240" height="521.581" viewBox="0 0 1240 521.581">
  <line id="Línea_142" data-name="Línea 142" y2="65.878" transform="translate(187.032 69.471)" fill="none" stroke="#456c3a" stroke-miterlimit="10" stroke-width="2"/>
  <path id="Trazado_156327" data-name="Trazado 156327" d="M102.816,74.632l2.469-2.3L116.6,84.5l11.315-12.171,2.467,2.3L116.6,89.453Z" transform="translate(70.433 49.551)" fill="#456c3a"/>
  <line id="Línea_143" data-name="Línea 143" y2="65.878" transform="translate(620 69.471)" fill="none" stroke="#c38c71" stroke-miterlimit="10" stroke-width="2"/>
  <path id="Trazado_156328" data-name="Trazado 156328" d="M359.764,74.632l2.469-2.3L373.544,84.5l11.315-12.171,2.467,2.3L373.544,89.453Z" transform="translate(246.453 49.551)" fill="#c38c71"/>
  <line id="Línea_144" data-name="Línea 144" y2="65.878" transform="translate(1052.967 69.471)" fill="none" stroke="#53763e" stroke-miterlimit="10" stroke-width="2"/>
  <path id="Trazado_156329" data-name="Trazado 156329" d="M616.711,74.632l2.469-2.3L630.492,84.5l11.315-12.171,2.467,2.3L630.492,89.453Z" transform="translate(422.473 49.551)" fill="#53763e"/>
  <line id="Línea_145" data-name="Línea 145" y2="65.878" transform="translate(1052.967 217.143)" fill="none" stroke="#53763e" stroke-miterlimit="10" stroke-width="2"/>
  <path id="Trazado_156330" data-name="Trazado 156330" d="M616.711,162.269l2.469-2.3,11.312,12.171,11.315-12.171,2.467,2.3-13.782,14.822Z" transform="translate(422.473 109.587)" fill="#53763e"/>
  <line id="Línea_146" data-name="Línea 146" y2="65.88" transform="translate(620 217.274)" fill="none" stroke="#c38c71" stroke-miterlimit="10" stroke-width="2"/>
  <path id="Trazado_156331" data-name="Trazado 156331" d="M359.764,162.347l2.469-2.3,11.312,12.171,11.315-12.171,2.467,2.3-13.782,14.822Z" transform="translate(246.453 109.64)" fill="#c38c71"/>
  <line id="Línea_147" data-name="Línea 147" y2="65.878" transform="translate(187.032 217.143)" fill="none" stroke="#456c3a" stroke-miterlimit="10" stroke-width="2"/>
  <path id="Trazado_156332" data-name="Trazado 156332" d="M102.816,162.269l2.469-2.3L116.6,172.142l11.315-12.171,2.467,2.3L116.6,177.091Z" transform="translate(70.433 109.587)" fill="#456c3a"/>
  <line id="Línea_148" data-name="Línea 148" y2="65.88" transform="translate(187.032 362.993)" fill="none" stroke="#456c3a" stroke-miterlimit="10" stroke-width="2"/>
  <path id="Trazado_156333" data-name="Trazado 156333" d="M102.816,248.825l2.469-2.3L116.6,258.7l11.315-12.171,2.467,2.3L116.6,263.646Z" transform="translate(70.433 168.881)" fill="#456c3a"/>
  <rect id="Rectángulo_5530" data-name="Rectángulo 5530" width="374.064" height="83.782" fill="#537e39"/>
  <rect id="Rectángulo_5531" data-name="Rectángulo 5531" width="374.064" height="83.782" transform="translate(0 145.933)" fill="#6f9354"/>
  <rect id="Rectángulo_5532" data-name="Rectángulo 5532" width="374.064" height="83.782" transform="translate(0 291.866)" fill="#8ca770"/>
  <rect id="Rectángulo_5533" data-name="Rectángulo 5533" width="374.064" height="83.782" transform="translate(0 437.799)" fill="#a8bc8b"/>
  <rect id="Rectángulo_5534" data-name="Rectángulo 5534" width="374.066" height="83.782" transform="translate(433.056)" fill="#d9936e"/>
  <rect id="Rectángulo_5535" data-name="Rectángulo 5535" width="374.066" height="83.782" transform="translate(433.056 145.933)" fill="#e4aa8b"/>
  <rect id="Rectángulo_5536" data-name="Rectángulo 5536" width="374.066" height="83.782" transform="translate(433.056 291.866)" fill="#eec0a8"/>
  <rect id="Rectángulo_5537" data-name="Rectángulo 5537" width="374.064" height="83.782" transform="translate(865.936)" fill="#b1c5a5"/>
  <rect id="Rectángulo_5538" data-name="Rectángulo 5538" width="374.064" height="83.782" transform="translate(865.936 145.933)" fill="#c6d5bd"/>
  <rect id="Rectángulo_5539" data-name="Rectángulo 5539" width="374.064" height="83.782" transform="translate(865.936 291.866)" fill="#dce4d4"/>
  <text id="Para_usar_los_recursos_" data-name="Para usar los recursos " transform="translate(53.299 29.341)" fill="#fff" font-size="20" font-family="Roboto-Bold, Roboto" font-weight="700"><tspan x="0" y="0" letter-spacing="-0.005em">P</tspan><tspan y="0">ara usar los recursos </tspan></text>
  <text id="naturales_renovables" data-name="naturales renovables" transform="translate(53.299 60.795)" fill="#fff" font-size="20" font-family="Roboto-Bold, Roboto" font-weight="700"><tspan x="0" y="0">naturales ren</tspan><tspan y="0" letter-spacing="-0.008em">ov</tspan><tspan y="0">ables</tspan></text>
  <text id="Para_impactar_el_medio_" data-name="Para impactar el medio " transform="translate(919.825 29.341)" fill="#456c3a" font-size="20" font-family="Roboto-Bold, Roboto" font-weight="700"><tspan x="0" y="0" letter-spacing="-0.005em">P</tspan><tspan y="0">ara impactar el medio </tspan></text>
  <text id="ambiente" transform="translate(919.825 61.795)" fill="#456c3a" font-size="21" font-family="Roboto-Bold, Roboto" font-weight="700"><tspan x="0" y="0">ambiente</tspan></text>
  <text id="Por_licencia_ambiental_" data-name="Por licencia ambiental " transform="translate(919.825 176.754)" fill="#456c3a" font-size="20" font-family="Roboto-Bold, Roboto" font-weight="700"><tspan x="0" y="0" letter-spacing="-0.007em">P</tspan><tspan y="0">or licencia ambiental </tspan></text>
  <text id="puntual." transform="translate(919.825 209.208)" fill="#456c3a" font-size="21" font-family="Roboto-Bold, Roboto" font-weight="700"><tspan x="0" y="0">puntual.</tspan></text>
  <text id="Por_licencia_ambiental_2" data-name="Por licencia ambiental " transform="translate(919.825 320.787)" fill="#456c3a" font-size="20" font-family="Roboto-Bold, Roboto" font-weight="700"><tspan x="0" y="0" letter-spacing="-0.007em">P</tspan><tspan y="0">or licencia ambiental </tspan></text>
  <text id="global._" data-name="global. " transform="translate(919.825 352.24)" fill="#456c3a" font-size="20" font-family="Roboto-Bold, Roboto" font-weight="700"><tspan x="0" y="0">global. </tspan></text>
  <text id="Por_ministerio_-_la_ley." data-name="Por ministerio - la ley." transform="translate(485.002 188.943)" fill="#fff" font-size="20" font-family="Roboto-Bold, Roboto" font-weight="700"><tspan x="0" y="0" letter-spacing="-0.007em">P</tspan><tspan y="0">or ministerio - la l</tspan><tspan y="0" letter-spacing="-0.007em">e</tspan><tspan y="0" letter-spacing="-0.068em">y</tspan><tspan y="0">.</tspan></text>
  <text id="Por_permiso." data-name="Por permiso." transform="translate(544.686 336.308)" fill="#fff" font-size="21" font-family="Roboto-Bold, Roboto" font-weight="700"><tspan x="0" y="0" letter-spacing="-0.007em">P</tspan><tspan y="0">or permiso.</tspan></text>
  <text id="Para_introducir_elementos_" data-name="Para introducir elementos " transform="translate(445.161 29.341)" fill="#fff" font-size="20" font-family="Roboto-Bold, Roboto" font-weight="700"><tspan x="0" y="0" letter-spacing="-0.005em">P</tspan><tspan y="0">ara introducir elementos </tspan></text>
  <text id="ambientales" transform="translate(445.161 60.795)" fill="#fff" font-size="20" font-family="Roboto-Bold, Roboto" font-weight="700"><tspan x="0" y="0">ambientales</tspan></text>
  <text id="Por_reglamentación_de_los_" data-name="Por reglamentación de los " transform="translate(29.185 466.102)" fill="#fff" font-size="20" font-family="Roboto-Bold, Roboto" font-weight="700"><tspan x="0" y="0" letter-spacing="-0.007em">P</tspan><tspan y="0">or reglamentación de los </tspan></text>
  <text id="usos." transform="translate(29.185 497.557)" fill="#fff" font-size="20" font-family="Roboto-Bold, Roboto" font-weight="700"><tspan x="0" y="0">usos.</tspan></text>
  <text id="Por_permiso._" data-name="Por permiso. " transform="translate(110.939 335.308)" fill="#fff" font-size="20" font-family="Roboto-Bold, Roboto" font-weight="700"><tspan x="0" y="0" letter-spacing="-0.007em">P</tspan><tspan y="0">or permiso. </tspan></text>
  <text id="Por_ministerio-la_ley." data-name="Por ministerio-la ley." transform="translate(53.326 186.846)" fill="#fff" font-size="20" font-family="Roboto-Bold, Roboto" font-weight="700"><tspan x="0" y="0" letter-spacing="-0.007em">P</tspan><tspan y="0">or ministerio-la l</tspan><tspan y="0" letter-spacing="-0.007em">e</tspan><tspan y="0" letter-spacing="-0.068em">y</tspan><tspan y="0">.</tspan></text>
</svg>
