<svg xmlns="http://www.w3.org/2000/svg" xmlns:xlink="http://www.w3.org/1999/xlink" width="400.132" height="292.205" viewBox="0 0 400.132 292.205">
  <defs>
    <clipPath id="clip-path">
      <rect id="Rectángulo_5182" data-name="Rectángulo 5182" width="400.132" height="292.205" fill="none"/>
    </clipPath>
  </defs>
  <g id="Grupo_78636" data-name="Grupo 78636" transform="translate(-1019.868 -5125.397)">
    <g id="Grupo_78422" data-name="Grupo 78422" transform="translate(1019.868 5125.397)">
      <g id="Grupo_78308" data-name="Grupo 78308" clip-path="url(#clip-path)">
        <path id="Trazado_100631" data-name="Trazado 100631" d="M400.132,51.36V277.09c0,5.593-6.354,10.164-14.112,10.164H14.1c-7.758,0-14.1-4.57-14.1-10.164V51.36C0,45.768,6.343,41.2,14.1,41.2H386.02c7.758,0,14.112,4.572,14.112,10.164" transform="translate(0 4.951)" fill="#fdf2ec"/>
      </g>
    </g>
    <path id="Trazado_160518" data-name="Trazado 160518" transform="translate(1186.02 5369.329)" fill="#231f20"/>
    <g id="Grupo_78423" data-name="Grupo 78423" transform="translate(1090.491 5169.633)">
      <path id="Trazado_100647" data-name="Trazado 100647" d="M258.591,77.452H69.643c-14.434,0-26.134-9.334-26.134-20.846V28.748H284.725V56.605c0,11.513-11.7,20.846-26.134,20.846" transform="translate(-31.471 -28.748)" fill="#a8bc8b"/>
      <path id="Trazado_100648" data-name="Trazado 100648" d="M275.284,28.748l12.038,10.331H275.284Z" transform="translate(-22.031 -28.748)" fill="#537e39"/>
      <path id="Trazado_100649" data-name="Trazado 100649" d="M41.047,28.748,29.009,39.079H41.047Z" transform="translate(-29.009 -28.748)" fill="#537e39"/>
    </g>
    <path id="Trazado_156540" data-name="Trazado 156540" d="M249.084,73.521A73.52,73.52,0,1,1,175.564,0a73.52,73.52,0,0,1,73.521,73.52" transform="translate(1046.906 5125.398)" fill="#a8bc8b"/>
    <path id="Trazado_156541" data-name="Trazado 156541" d="M232.927,70.723a60.162,60.162,0,1,1-60.162-60.162,60.161,60.161,0,0,1,60.162,60.162" transform="translate(1050.276 5128.194)" fill="#fff"/>
    <path id="Trazado_160516" data-name="Trazado 160516" d="M16,0H209.061a16,16,0,0,1,16,16V59.521a16,16,0,0,1-16,16H16a16,16,0,0,1-16-16V16A16,16,0,0,1,16,0Z" transform="translate(1109.939 5296.713)" fill="#a8bc8b"/>
    <path id="Trazado_160517" data-name="Trazado 160517" d="M49.617,15.51H45.251L44.421,18H41.773l4.5-12.086H48.58L53.1,18H50.456Zm-3.694-2.017h3.021L47.426,8.969Zm7.8-.05a5.264,5.264,0,0,1,.984-3.329,3.187,3.187,0,0,1,2.652-1.262,2.8,2.8,0,0,1,2.3,1.013l.1-.847h2.175V17.7a3.839,3.839,0,0,1-.535,2.05,3.439,3.439,0,0,1-1.507,1.328,5.3,5.3,0,0,1-2.274.457,4.925,4.925,0,0,1-1.926-.394,3.418,3.418,0,0,1-1.419-1.017l1.063-1.461a2.81,2.81,0,0,0,2.175,1A2.057,2.057,0,0,0,59,19.158a1.915,1.915,0,0,0,.531-1.448v-.481a2.775,2.775,0,0,1-2.183.938A3.179,3.179,0,0,1,54.726,16.9a5.262,5.262,0,0,1-1-3.358Zm2.4.179a3.278,3.278,0,0,0,.49,1.916,1.558,1.558,0,0,0,1.345.694,1.666,1.666,0,0,0,1.569-.823V11.626a1.662,1.662,0,0,0-1.552-.823,1.568,1.568,0,0,0-1.357.707A3.694,3.694,0,0,0,56.125,13.621Zm12.7-2.353a6.517,6.517,0,0,0-.863-.066,1.757,1.757,0,0,0-1.785.921V18h-2.4V9.019h2.266l.066,1.071a2.223,2.223,0,0,1,2-1.237,2.514,2.514,0,0,1,.747.108ZM72.569,18h-2.4V9.019h2.4ZM71.863,5.375h2.615l-2.3,2.573H70.228Zm6.508,10.857a1.573,1.573,0,0,0,1.079-.365,1.28,1.28,0,0,0,.432-.971h2.25a3.077,3.077,0,0,1-.5,1.673,3.286,3.286,0,0,1-1.341,1.179,4.2,4.2,0,0,1-1.88.419,3.9,3.9,0,0,1-3.038-1.224,4.845,4.845,0,0,1-1.112-3.383V13.4a4.79,4.79,0,0,1,1.1-3.312A3.854,3.854,0,0,1,78.4,8.853a3.778,3.778,0,0,1,2.7.959,3.4,3.4,0,0,1,1.033,2.552h-2.25a1.648,1.648,0,0,0-.432-1.139,1.6,1.6,0,0,0-2.362.173,3.541,3.541,0,0,0-.427,1.983v.249a3.586,3.586,0,0,0,.423,2A1.463,1.463,0,0,0,78.371,16.232Zm4.756-2.806a5.326,5.326,0,0,1,.515-2.382,3.768,3.768,0,0,1,1.482-1.619,4.323,4.323,0,0,1,2.245-.573,4.09,4.09,0,0,1,2.968,1.112,4.464,4.464,0,0,1,1.282,3.021l.017.614a4.694,4.694,0,0,1-1.154,3.316,4.472,4.472,0,0,1-6.2,0,4.777,4.777,0,0,1-1.158-3.387Zm2.4.17a3.357,3.357,0,0,0,.481,1.958,1.73,1.73,0,0,0,2.739.008,3.674,3.674,0,0,0,.49-2.141,3.324,3.324,0,0,0-.49-1.945,1.592,1.592,0,0,0-1.378-.69,1.566,1.566,0,0,0-1.361.686A3.736,3.736,0,0,0,85.526,13.6ZM95.645,18H93.238V5.25h2.407Zm7.18,0a2.664,2.664,0,0,1-.241-.805,2.9,2.9,0,0,1-2.266.971,3.189,3.189,0,0,1-2.187-.764,2.456,2.456,0,0,1-.867-1.926,2.538,2.538,0,0,1,1.058-2.191,5.222,5.222,0,0,1,3.059-.772h1.1V12a1.48,1.48,0,0,0-.32-1,1.257,1.257,0,0,0-1.009-.374,1.429,1.429,0,0,0-.95.291.987.987,0,0,0-.344.8h-2.4a2.41,2.41,0,0,1,.481-1.444A3.182,3.182,0,0,1,99.306,9.23a4.961,4.961,0,0,1,1.976-.378,3.92,3.92,0,0,1,2.635.834,2.918,2.918,0,0,1,.975,2.345v3.893a4.294,4.294,0,0,0,.357,1.934V18Zm-1.984-1.668a2.066,2.066,0,0,0,.979-.237,1.554,1.554,0,0,0,.664-.635V13.916h-.9q-1.8,0-1.917,1.245l-.008.141a.96.96,0,0,0,.315.739A1.225,1.225,0,0,0,100.841,16.332Z" transform="translate(1148.462 5321.921)" fill="#fff"/>
    <path id="agricultura" d="M84.945,82.849A15.624,15.624,0,0,0,73.414,69.826V66.851A11.755,11.755,0,0,0,84.59,55.132v-.621a1.2,1.2,0,0,0-1.2-1.2h-.621a11.707,11.707,0,0,0-2.672.318,11.726,11.726,0,0,0,4.49-9.221V43.79a1.2,1.2,0,0,0-1.2-1.2h-.621a11.719,11.719,0,0,0-2.673.319,11.726,11.726,0,0,0,4.491-9.224v-.621a1.2,1.2,0,0,0-1.2-1.2h-.621a11.725,11.725,0,0,0-9.356,4.671V35.5l.541-.541a11.124,11.124,0,0,0,0-15.712h0l-.889-.889a1.2,1.2,0,0,0-1.693,0l-.889.889a11.123,11.123,0,0,0,0,15.712l.541.541V36.54a11.728,11.728,0,0,0-9.356-4.671h-.621a1.2,1.2,0,0,0-1.2,1.2v.621a11.726,11.726,0,0,0,4.491,9.222,11.714,11.714,0,0,0-2.673-.319h-.621a1.2,1.2,0,0,0-1.2,1.2v.621a11.726,11.726,0,0,0,4.483,9.219,11.706,11.706,0,0,0-2.672-.318h-.621a1.2,1.2,0,0,0-1.2,1.2v.626A11.755,11.755,0,0,0,71.02,66.854v2.572c-.414-.034-.83-.057-1.252-.057a14.828,14.828,0,0,0-7.7,2.151,18.681,18.681,0,0,0-14.862-9.3V59.6A11.759,11.759,0,0,0,58.777,47.854V46.836a1.2,1.2,0,0,0-1.2-1.2H56.563a11.69,11.69,0,0,0-2.1.2,11.73,11.73,0,0,0,4.309-9.085V35.735a1.2,1.2,0,0,0-1.2-1.2H56.563a11.739,11.739,0,0,0-2.095.2,11.731,11.731,0,0,0,4.309-9.085V24.634a1.2,1.2,0,0,0-1.2-1.2H56.563a11.727,11.727,0,0,0-9.356,4.671v-.976l.573-.573a11.462,11.462,0,0,0,0-16.212l-.923-.923a1.231,1.231,0,0,0-1.692,0l-.923.923a11.462,11.462,0,0,0,0,16.212l.573.573v.976a11.727,11.727,0,0,0-9.356-4.671H34.439a1.2,1.2,0,0,0-1.2,1.2V25.65a11.731,11.731,0,0,0,4.309,9.085,11.739,11.739,0,0,0-2.094-.2H34.439a1.2,1.2,0,0,0-1.2,1.2v1.017a11.73,11.73,0,0,0,4.31,9.086,11.69,11.69,0,0,0-2.1-.2H34.439a1.2,1.2,0,0,0-1.2,1.2v1.019A11.759,11.759,0,0,0,44.812,59.6v2.62a18.681,18.681,0,0,0-14.862,9.3,14.828,14.828,0,0,0-7.7-2.151c-.422,0-.838.023-1.252.057V66.852a11.755,11.755,0,0,0,11.175-11.72v-.621a1.2,1.2,0,0,0-1.2-1.2h-.621a11.707,11.707,0,0,0-2.672.318,11.726,11.726,0,0,0,4.49-9.221V43.79a1.2,1.2,0,0,0-1.2-1.2h-.621a11.714,11.714,0,0,0-2.673.319,11.726,11.726,0,0,0,4.491-9.224v-.621a1.2,1.2,0,0,0-1.2-1.2h-.621A11.728,11.728,0,0,0,21,36.54V35.5l.541-.541a11.123,11.123,0,0,0,0-15.712h0l-.889-.889a1.2,1.2,0,0,0-1.693,0l-.889.889a11.124,11.124,0,0,0,0,15.712l.541.541V36.54a11.725,11.725,0,0,0-9.356-4.671H8.629a1.2,1.2,0,0,0-1.2,1.2v.621a11.726,11.726,0,0,0,4.491,9.222A11.719,11.719,0,0,0,9.25,42.59H8.629a1.2,1.2,0,0,0-1.2,1.2v.621a11.726,11.726,0,0,0,4.49,9.219,11.706,11.706,0,0,0-2.672-.318H8.629a1.2,1.2,0,0,0-1.2,1.2v.626A11.755,11.755,0,0,0,18.605,66.851v2.975A15.624,15.624,0,0,0,7.074,82.849a1.2,1.2,0,0,0,1.184,1.376h75.5a1.2,1.2,0,0,0,1.184-1.376ZM73.432,64.467a9.371,9.371,0,0,1,8.743-8.743A9.371,9.371,0,0,1,73.432,64.467Zm-.018-6.485V56.129a11.754,11.754,0,0,0,2.1-.289A11.813,11.813,0,0,0,73.414,57.982Zm.018-4.236A9.371,9.371,0,0,1,82.175,45a9.371,9.371,0,0,1-8.743,8.743Zm-.018-6.485V45.407a11.714,11.714,0,0,0,2.1-.289A11.809,11.809,0,0,0,73.414,47.261Zm8.761-12.98a9.371,9.371,0,0,1-8.743,8.743,9.371,9.371,0,0,1,8.743-8.743Zm-10-13.347.046-.045.045.045a8.722,8.722,0,0,1,.369,11.918,1.139,1.139,0,0,0-.828,0A8.722,8.722,0,0,1,72.171,20.934ZM62.258,34.282A9.371,9.371,0,0,1,71,43.024,9.371,9.371,0,0,1,62.258,34.282ZM71.02,45.407v1.854a11.833,11.833,0,0,0-2.1-2.143,11.713,11.713,0,0,0,2.1.289ZM62.258,45A9.371,9.371,0,0,1,71,53.746,9.371,9.371,0,0,1,62.258,45ZM71.02,56.129v1.853a11.838,11.838,0,0,0-2.095-2.142,11.752,11.752,0,0,0,2.095.289Zm-8.762-.406A9.371,9.371,0,0,1,71,64.467a9.371,9.371,0,0,1-8.743-8.743ZM21.019,64.467a9.371,9.371,0,0,1,8.743-8.743A9.371,9.371,0,0,1,21.019,64.467ZM21,57.982V56.129a11.751,11.751,0,0,0,2.1-.289A11.838,11.838,0,0,0,21,57.982Zm.019-4.236A9.371,9.371,0,0,1,29.762,45a9.371,9.371,0,0,1-8.743,8.743ZM21,47.261V45.407a11.713,11.713,0,0,0,2.1-.289A11.834,11.834,0,0,0,21,47.261Zm8.762-12.98a9.371,9.371,0,0,1-8.743,8.743,9.371,9.371,0,0,1,8.743-8.743Zm-10-13.347.045-.045.046.045a8.722,8.722,0,0,1,.369,11.918,1.139,1.139,0,0,0-.828,0A8.722,8.722,0,0,1,19.757,20.934ZM9.844,34.282a9.371,9.371,0,0,1,8.743,8.743A9.371,9.371,0,0,1,9.844,34.282Zm8.761,11.126v1.854a11.809,11.809,0,0,0-2.1-2.143A11.714,11.714,0,0,0,18.605,45.407ZM9.844,45a9.371,9.371,0,0,1,8.743,8.743A9.371,9.371,0,0,1,9.844,45Zm8.761,11.127v1.853a11.812,11.812,0,0,0-2.1-2.142A11.754,11.754,0,0,0,18.605,56.129Zm-8.761-.406a9.371,9.371,0,0,1,8.743,8.743,9.371,9.371,0,0,1-8.743-8.743Zm37.364,1.485a9.367,9.367,0,0,1,9.172-9.173,9.367,9.367,0,0,1-9.172,9.173Zm0-6.9V48.493a11.77,11.77,0,0,0,1.915-.189,11.848,11.848,0,0,0-1.917,2.006Zm0-4.2a9.367,9.367,0,0,1,9.172-9.17,9.367,9.367,0,0,1-9.172,9.17Zm0-6.9V37.393a11.755,11.755,0,0,0,1.915-.189,11.862,11.862,0,0,0-1.917,2.006Zm9.172-13.377a9.371,9.371,0,0,1-9.172,9.174,9.367,9.367,0,0,1,9.172-9.174Zm-13.1-7.379a9.007,9.007,0,0,1,2.656-6.412l.077-.077.077.077a9.049,9.049,0,0,1,.367,12.419,1.178,1.178,0,0,0-.889,0A9,9,0,0,1,43.277,18.453Zm-7.639,7.379a9.367,9.367,0,0,1,9.172,9.174A9.371,9.371,0,0,1,35.638,25.832Zm9.174,11.56v1.817A11.863,11.863,0,0,0,42.9,37.2a11.754,11.754,0,0,0,1.915.189Zm-9.174-.456a9.367,9.367,0,0,1,9.172,9.17A9.367,9.367,0,0,1,35.638,36.936ZM44.812,48.5v1.817A11.848,11.848,0,0,0,42.9,48.308a11.771,11.771,0,0,0,1.915.185Zm-9.174-.458a9.367,9.367,0,0,1,9.172,9.173,9.367,9.367,0,0,1-9.172-9.176ZM9.713,81.834a13.117,13.117,0,0,1,10.3-9.875l.062-.012a12.533,12.533,0,0,1,9.6,2.257,1.2,1.2,0,0,0,1.779-.43,16.125,16.125,0,0,1,29.128,0,1.2,1.2,0,0,0,1.775.43,12.536,12.536,0,0,1,9.6-2.257l.049.012a13.116,13.116,0,0,1,10.3,9.873Z" transform="translate(1177.032 5152.261)"/>
  </g>
</svg>
