<svg xmlns="http://www.w3.org/2000/svg" width="196.546" height="196.688" viewBox="0 0 196.546 196.688">
  <g id="Layer_29" transform="translate(-0.023 0.005)">
    <g id="Grupo_60884" data-name="Grupo 60884" transform="translate(0.023 -0.005)">
      <circle id="Elipse_4052" data-name="Elipse 4052" cx="80.755" cy="80.755" r="80.755" transform="translate(17.605 24.894)" fill="#55bde3"/>
      <g id="Grupo_60882" data-name="Grupo 60882" transform="translate(27.787 24.931)">
        <path id="Trazado_103894" data-name="Trazado 103894" d="M376.256,198.948l-7.626,3.716-8.014,16.685-25.628,6.31L322.6,209.594l13.472-18.7-3.136-6.93,10.53-11.111h.31a17.258,17.258,0,0,0,4.839-.736l1.936.31a16.658,16.658,0,0,0,2.4.155,19.86,19.86,0,0,0,12.891-4.684,80.406,80.406,0,0,1,10.414,31.048Z" transform="translate(-225.508 -127.83)" fill="#2a8078"/>
        <path id="Trazado_103895" data-name="Trazado 103895" d="M159.289,88.979l9.33,20.866-1.2,18.234L148.6,135.4l-5.5-12.775-16.53,1.471-6.62-15.137s-10.762-8.323-17.034-11.149A45.22,45.22,0,0,1,94.6,93.083h.039a80.862,80.862,0,0,1,73.98-27.757Z" transform="translate(-85.773 -64.394)" fill="#2a8078"/>
        <path id="Trazado_103896" data-name="Trazado 103896" d="M94.6,93.083a80.967,80.967,0,0,1,74.019-27.757l-9.33,23.654,9.33,20.866-1.2,18.234L148.6,135.4l-5.5-12.775-16.53,1.471-6.62-15.137Z" transform="translate(-85.773 -64.394)" fill="#2a8078"/>
        <path id="Trazado_103897" data-name="Trazado 103897" d="M170.527,274.614s6.775-.7,9.369-1.123c6.388-1.123,19.008,1.781,19.008,1.781l5.149,16.53-5.884,5.5-5.884,14.053-2.168,21.292L177.96,346.272s-2.4-9.252-2.9-13.317-1.471-12.737-1.471-12.737l-4.955-2.787-4.917-13.008L150.9,300.281,155.429,280Z" transform="translate(-120.278 -192.385)" fill="#2a8078"/>
        <path id="Trazado_103898" data-name="Trazado 103898" d="M71.8,247.407l6.852-8.207,8.827,4.1v13.124h-3.91Z" transform="translate(-71.8 -171.527)" fill="#2a8078"/>
      </g>
      <path id="Trazado_103899" data-name="Trazado 103899" d="M286.784,462.35l-7.9,3.91a7.775,7.775,0,0,1-9.33-4.22l-3.252-7.239a9.418,9.418,0,0,1,4.181-12.156l4.3-2.245" transform="translate(-162.719 -269.906)" fill="#f9c19b"/>
      <path id="Trazado_103900" data-name="Trazado 103900" d="M318.249,448.483l-9.291,6a9.822,9.822,0,0,1-12.7-4.026l-8.981-16.724a7,7,0,0,1,2.594-9.33l1.9-1.161a7.024,7.024,0,0,1,9.639,2.478.038.038,0,0,0,.039.039l2.09,3.678" transform="translate(-175.562 -258.788)" fill="#f9c19b"/>
      <path id="Trazado_103901" data-name="Trazado 103901" d="M355.012,424.361l-10.453,6.775a11.079,11.079,0,0,1-14.362-4.529l-10.1-18.892a7.885,7.885,0,0,1,2.9-10.53l2.168-1.316A7.966,7.966,0,0,1,336,398.617a.142.142,0,0,1,.039.116l2.4,4.142" transform="translate(-195.601 -241.943)" fill="#f9c19b"/>
      <path id="Trazado_103902" data-name="Trazado 103902" d="M404.742,387.646l-5.033,19.511a12.222,12.222,0,0,1-10.607,9.136l-.852.077a12.168,12.168,0,0,1-11.265-5.11l-10.84-15.33a9.554,9.554,0,0,1,1.82-12.93l.155-.116a9.532,9.532,0,0,1,13.395,1.471l.348.465,6.62,9.407" transform="translate(-223.342 -233.373)" fill="#f9c19b"/>
      <path id="Trazado_103903" data-name="Trazado 103903" d="M434.188,288.5l14.556,16.724c7.626,10.491-.619,21.06-3.755,22.647l-12.969,6.5a10.714,10.714,0,0,1-14.362-4.839c0-.039-.039-.039-.039-.077a10.379,10.379,0,0,1,3.678-13.124l8.4-7.278a55,55,0,0,0,3.02-9.252A111.952,111.952,0,0,0,434.188,288.5Z" transform="translate(-255.344 -176.811)" fill="#ffc9a3"/>
      <path id="Trazado_103904" data-name="Trazado 103904" d="M187.2,462.35l7.936,3.91a7.75,7.75,0,0,0,9.291-4.22l3.252-7.239a9.418,9.418,0,0,0-4.181-12.156l-4.3-2.245" transform="translate(-114.738 -269.906)" fill="#f9c19b"/>
      <path id="Trazado_103905" data-name="Trazado 103905" d="M139.1,448.483l9.291,6a9.81,9.81,0,0,0,12.7-4.026l8.981-16.724a6.965,6.965,0,0,0-2.594-9.33l-1.9-1.161a7.024,7.024,0,0,0-9.64,2.478.038.038,0,0,1-.039.039l-2.09,3.678" transform="translate(-85.259 -258.788)" fill="#f9c19b"/>
      <path id="Trazado_103906" data-name="Trazado 103906" d="M95.9,424.336l10.452,6.775a11.079,11.079,0,0,0,14.362-4.529l10.143-18.892a7.934,7.934,0,0,0-2.942-10.53l-2.129-1.316a7.954,7.954,0,0,0-10.878,2.787c0,.039-.039.039-.039.077l-2.361,4.142" transform="translate(-58.783 -241.919)" fill="#f9c19b"/>
      <path id="Trazado_103907" data-name="Trazado 103907" d="M39.1,387.646l5.033,19.511a12.222,12.222,0,0,0,10.607,9.136l.852.077a12.168,12.168,0,0,0,11.265-5.11L77.7,395.93A9.554,9.554,0,0,0,75.877,383l-.155-.116a9.531,9.531,0,0,0-13.395,1.471l-.348.465-6.62,9.407" transform="translate(-23.972 -233.373)" fill="#f9c19b"/>
      <path id="Trazado_103908" data-name="Trazado 103908" d="M17.745,288.5,3.15,305.224c-7.588,10.491.619,21.06,3.794,22.647l12.969,6.5a10.67,10.67,0,0,0,14.324-4.839.135.135,0,0,1,.039-.077,10.323,10.323,0,0,0-3.639-13.124L22.2,309.057a54.993,54.993,0,0,1-3.02-9.252,107.661,107.661,0,0,1-1.432-11.3Z" transform="translate(-0.023 -176.811)" fill="#ffc9a3"/>
      <path id="Trazado_103909" data-name="Trazado 103909" d="M157.6,0a20.138,20.138,0,0,0-18.427,12.04,15.716,15.716,0,0,0,9.252,28.415,15.535,15.535,0,0,0,4.8-.736,20.73,20.73,0,0,0,4.375.465A20.093,20.093,0,1,0,157.6,0Z" transform="translate(-81.348 0.005)" fill="#719b29"/>
      <path id="Trazado_103910" data-name="Trazado 103910" d="M184.8,52.3h4.646V96.471H184.8Z" transform="translate(-113.268 -32.051)" fill="#9a5645"/>
      <path id="Trazado_103911" data-name="Trazado 103911" d="M0,0H13.975V4.646H0Z" transform="translate(72.282 32.274) rotate(-40.782)" fill="#9a5645"/>
      <path id="Trazado_103912" data-name="Trazado 103912" d="M0,0H4.646V8.168H0Z" transform="translate(65.555 25.266) rotate(-61.719)" fill="#9a5645"/>
      <path id="Trazado_103913" data-name="Trazado 103913" d="M381.68,96.226a20.074,20.074,0,0,1-20.092,20.092,16.66,16.66,0,0,1-2.4-.155l-1.936-.31a17.258,17.258,0,0,1-4.839.736h-.31a15.713,15.713,0,0,1-8.943-28.415,20.093,20.093,0,0,1,38.519,8.052Z" transform="translate(-206.359 -46.633)" fill="#719b29"/>
      <path id="Trazado_103914" data-name="Trazado 103914" d="M388.8,128.5h4.646v44.171H388.8Z" transform="translate(-238.293 -78.752)" fill="#9a5645"/>
      <path id="Trazado_103915" data-name="Trazado 103915" d="M0,0H13.975V4.646H0Z" transform="translate(151.241 61.746) rotate(-40.782)" fill="#9a5645"/>
      <path id="Trazado_103916" data-name="Trazado 103916" d="M0,0H4.646V8.168H0Z" transform="translate(144.536 54.725) rotate(-61.719)" fill="#9a5645"/>
      <g id="Grupo_60883" data-name="Grupo 60883" transform="translate(39.798 158.426)">
        <path id="Trazado_103917" data-name="Trazado 103917" d="M378.392,430.043l-13.162-18.079a2.349,2.349,0,0,0-3.252-.542,2.307,2.307,0,0,0-.5,3.252l13.162,18.118a2.257,2.257,0,0,0,3.174.542c.039,0,.039-.039.077-.039a2.378,2.378,0,0,0,.5-3.252Z" transform="translate(-261.064 -410.31)" fill="#f2b58c"/>
        <path id="Trazado_103918" data-name="Trazado 103918" d="M323.421,427.964a2.315,2.315,0,1,0-3.91,2.478l10.414,16.53a2.329,2.329,0,0,0,3.213.736,2.364,2.364,0,0,0,.736-3.213Z" transform="translate(-235.398 -420.039)" fill="#f2b58c"/>
        <path id="Trazado_103919" data-name="Trazado 103919" d="M287.057,450.388a2.324,2.324,0,0,0-4.1,2.168l7.82,14.866a2.354,2.354,0,0,0,3.136.968,2.268,2.268,0,0,0,1.007-3.058c0-.039-.039-.039-.039-.077Z" transform="translate(-213.087 -433.752)" fill="#f2b58c"/>
        <path id="Trazado_103920" data-name="Trazado 103920" d="M197.09,448.19a2.354,2.354,0,0,0-3.136.968l-7.665,14.556a2.344,2.344,0,0,0,.968,3.136,2.282,2.282,0,0,0,3.1-.89c0-.039.039-.039.039-.077l7.665-14.556A2.344,2.344,0,0,0,197.09,448.19Z" transform="translate(-153.82 -432.947)" fill="#f2b58c"/>
        <path id="Trazado_103921" data-name="Trazado 103921" d="M158.935,422.473a2.375,2.375,0,0,0-3.213.774l-11.149,18.776a2.275,2.275,0,0,0,.774,3.136l.039.039a2.275,2.275,0,0,0,3.136-.774l.039-.039,11.149-18.737A2.321,2.321,0,0,0,158.935,422.473Z" transform="translate(-128.208 -417.141)" fill="#f2b58c"/>
        <path id="Trazado_103922" data-name="Trazado 103922" d="M117.373,409.643a2.351,2.351,0,0,0-3.252.581l-10.878,15.717a2.336,2.336,0,1,0,3.833,2.671l10.878-15.717a2.351,2.351,0,0,0-.581-3.252Z" transform="translate(-102.827 -409.227)" fill="#f2b58c"/>
      </g>
    </g>
  </g>
</svg>
