<svg id="Grupo_78480" data-name="Grupo 78480" xmlns="http://www.w3.org/2000/svg" xmlns:xlink="http://www.w3.org/1999/xlink" width="1030" height="657.372" viewBox="0 0 1030 657.372">
  <defs>
    <clipPath id="clip-path">
      <rect id="Rectángulo_5655" data-name="Rectángulo 5655" width="1030" height="657.372" fill="none"/>
    </clipPath>
    <clipPath id="clip-path-3">
      <rect id="Rectángulo_5650" data-name="Rectángulo 5650" width="192.456" height="260.407" fill="none"/>
    </clipPath>
    <clipPath id="clip-path-4">
      <rect id="Rectángulo_5651" data-name="Rectángulo 5651" width="191.531" height="243.026" fill="none"/>
    </clipPath>
    <clipPath id="clip-path-5">
      <rect id="Rectángulo_5652" data-name="Rectángulo 5652" width="239.933" height="143.524" fill="none"/>
    </clipPath>
  </defs>
  <g id="Grupo_78479" data-name="Grupo 78479" clip-path="url(#clip-path)">
    <g id="Grupo_78476" data-name="Grupo 78476">
      <g id="Grupo_78475" data-name="Grupo 78475" clip-path="url(#clip-path)">
        <path id="Trazado_159902" data-name="Trazado 159902" d="M519.44,223.589s16.713-22.284,22.093-46.49a32.5,32.5,0,0,0,14.023-32.658,62.687,62.687,0,0,1,6.148-38.547S508.276,126.139,535.94,177.1c0,0,4.094,11.094-19.765,44.426Z" transform="translate(109.24 22.411)" fill="#537e39"/>
        <path id="Trazado_159903" data-name="Trazado 159903" d="M563.258,111.015a133.855,133.855,0,1,1-51.322-53.381,133.622,133.622,0,0,1,51.322,53.381" transform="translate(65.808 8.38)" fill="#a8bc8b"/>
        <path id="Trazado_159904" data-name="Trazado 159904" d="M445.191,246.708c-2.769.332-3.391,1.026-3.94.986-1.054-.076-1.884-.626-1.639.233s.6,1.054-.075,1.191-1.246.136-.372.54,1.536-.1,2.279-.608,1.9-2.113,1.031-.784-2.006,1.954-.276,1.213.772-.891,2.365-1.157,2.034-.046,2.154-.348-.645-.517-.832-.979,2.074-.619-.694-.287" transform="translate(92.848 52.174)" fill="#537e39"/>
        <path id="Trazado_159905" data-name="Trazado 159905" d="M390.967,120.9c.584.093,2.066-.389,6.957-1s2.691-.586,2.076-1.19-1.639-.337-2.679-1.043-.365-.843-1.2-.723-1.953-.536-3.3-.832-.955.177-2.5-.946-.314-.483-3.245-.433-2.164-.588-2.164-.588l-3.668-.252-3.377.928s-3.218.905-3.641,1.656a2.439,2.439,0,0,1-1.59,1.447c-.614.252-.092.5.685.513s.863.04,1.824-1.236.715-.426,2.418-1.076.64-.66,1.664-.928,1.873.263,1.146.609-.76.394.737.588.772.256,1.919.012.932.233,2.005.325,1.09.5,2.753.137.84-.119,1.246.718,1.356,3.223,1.94,3.316" transform="translate(78.804 24.102)" fill="#537e39"/>
        <path id="Trazado_159906" data-name="Trazado 159906" d="M413.784,120.125c-1.277-.047-.634.059-1.556.145-1.556.144-1.154,1.673-.053,1.456s.537-.107,1.849.513.443-.32,1.018-.585,1.89-.8,1.825-.838-.838-.187-1.707-.49-.1-.154-1.375-.2" transform="translate(87.024 25.42)" fill="#537e39"/>
        <path id="Trazado_159907" data-name="Trazado 159907" d="M388.294,111.885c.606-.046,1.041-.433.784-1.373s-1.345-2.574-1.968-2.364c-1.386.469-2.9-.319-.859,1.708s1.437,2.073,2.043,2.028" transform="translate(81.533 22.884)" fill="#537e39"/>
        <path id="Trazado_159908" data-name="Trazado 159908" d="M390.589,51.4c-.148-.751-.729,0-.729,0l-.377.064c.755.268,1.208.451,1.106-.069" transform="translate(82.428 10.807)" fill="#537e39"/>
        <path id="Trazado_159909" data-name="Trazado 159909" d="M388.808,51.092c-1.122-.257-1.083.71-1.679.794l.751-.107,2.1-.342a10.4,10.4,0,0,0-1.168-.345" transform="translate(81.93 10.804)" fill="#537e39"/>
        <path id="Trazado_159910" data-name="Trazado 159910" d="M385.611,52.261s-.843.38-.187.408.384.124,1.574-.412c.252-.113.42-.284.58-.305l-.212.03c-1.559.222-1.756.279-1.756.279" transform="translate(81.516 10.995)" fill="#537e39"/>
        <path id="Trazado_159911" data-name="Trazado 159911" d="M388.387,51.934a2.842,2.842,0,0,1-1.513.832s.365,1.133.6,1.1l1.6-.228a5.48,5.48,0,0,0,.006-1.175c-.079-.331-.7-.528-.7-.528" transform="translate(81.876 10.991)" fill="#537e39"/>
        <path id="Trazado_159912" data-name="Trazado 159912" d="M390.991,52.893c.235-.359-.136-.957-.136-.957l-.766.354-.218.762s.884.2,1.12-.159" transform="translate(82.51 10.991)" fill="#537e39"/>
        <path id="Trazado_159913" data-name="Trazado 159913" d="M424.228,67.224c.7.389.676.666,1.414.042a3.3,3.3,0,0,0,.839-1.189.738.738,0,0,0,.941-.284c.2-.333-.107-.321.348-.568s.725-.5.738-.624.539-.29-.1-.687-1.633.141-1.109-.7,2.382-.674.331-1.115-1.931-.458-2.828-.3.338.653-1.422.324-2.321-.188-1.786-.935,1.425-1.819,1.229-2.126-.5-.479-1.169-.262a5.16,5.16,0,0,0-1.41.842,10.887,10.887,0,0,1-.3,1.538l-.8,1.7-.43,1.282s.25.025-.223.367-1.843.384-.883.462,1.779-.193.835.491-2.292,1.15-.94,1.049,4.248-.6,4.248-.6l.977-.23,1.157.6a10.426,10.426,0,0,1,1.6-.563c.074-.011.133-.022.188-.031a.73.73,0,0,1-.223.648c-.662.733-1.92.485-1.223.874" transform="translate(88.236 12.424)" fill="#537e39"/>
        <path id="Trazado_159914" data-name="Trazado 159914" d="M416.431,68.508a4.478,4.478,0,0,0,.637.611c.236.15,0,0,.813-.3s.645-.428.705-.649-.792.021-1.259-.248-.181-.188-.594-1.593-.488-.2-.488-.2l-1.163,1.512a5.245,5.245,0,0,0-.1,1.26c.008.582.693.572,1.075.457s0,0,.044-.342a.719.719,0,0,1,.326-.5" transform="translate(87.825 13.893)" fill="#537e39"/>
        <path id="Trazado_159915" data-name="Trazado 159915" d="M426.406,65.782c.034.239.651-.763.821-.116s.339.744.339.744l1.094-.481.566-.974.082-.711s-.1-.9-.586-.682-.382.332-.768.63-.253.583-.385.3a8.114,8.114,0,0,1-.277-1.3c-.729.469-.755.931-.755.931a.627.627,0,0,0-.378.786,3.419,3.419,0,0,1,.247.88" transform="translate(90.18 13.372)" fill="#537e39"/>
        <path id="Trazado_159916" data-name="Trazado 159916" d="M408.334,42.733a16.144,16.144,0,0,0,4.37-.54l2.982.594c2.981.592.52.211,1.941.456s.641-.091,1.721-.245.577.325-.1.422-.658.256-1.63.6.166.3,1.5.479,1.5-.62,1.5-.62a.7.7,0,0,1,.1.718c-.2.353-.217.193-.652.865s0,0,.914.688a27.9,27.9,0,0,0,2.922,1.613,49.038,49.038,0,0,0,5.357,1.8l3.279-.182a9.458,9.458,0,0,1,2.925.194c1.479.36.862.611,1.221.559a18.617,18.617,0,0,0,2.76-.108c.1-.176-.97-1.367-1.529-2.141s-.182-.991-.182-.991l-.291-.609s-.781-1.19-.351-1.61.714-.149,3-.434.829-.2.11-.95-.148-.466.252-.523.834.126,1.08-.153.526-.317,1.525-.46,1.853-.178.756-1-4.283-.279-14.736-.989-16.084.672-16.654.754-2.826.58-3.359.7a35.009,35.009,0,0,1-3.565.763,16.372,16.372,0,0,1-2.552.348,7.257,7.257,0,0,0-2.1.515,4.849,4.849,0,0,0-.811.3,20.107,20.107,0,0,1,2.853-.079c4.838.166,1.92-.557,5.445-.733" transform="translate(84.661 8.457)" fill="#537e39"/>
        <path id="Trazado_159917" data-name="Trazado 159917" d="M447.124,44.306c1.911-.119,2.408.573,3.218.03,0,0-4.373-1.7-5.41-1.671a19.817,19.817,0,0,0-2.76.393l.822,1.47s2.22-.1,4.13-.222" transform="translate(93.578 9.029)" fill="#537e39"/>
        <path id="Trazado_159918" data-name="Trazado 159918" d="M472.6,56.267s1.671-.3,1.757-.555a1.834,1.834,0,0,0-.263-1.854c-.634-.58-5.687-2.547-5.687-2.547a.748.748,0,0,0-.686.768l1.625,2.819Z" transform="translate(98.985 10.859)" fill="#537e39"/>
        <path id="Trazado_159919" data-name="Trazado 159919" d="M490.205,70.625a7.108,7.108,0,0,0,1.664,3.424,12,12,0,0,0,1.529,1.573c.64.477,4.184,3.024,5.256,2.811s1.592,1.728,1.5-.212.525-1.479-.356-2.513-1.421-1.811-2.14-2.563-1.653-.864-1.856-2.3a13.089,13.089,0,0,1-.221-2.409c-.016-.974-13.5-10.161-13.5-10.161-2.28.325-4.917-1.436-2.28.325a26.9,26.9,0,0,1,3,2.136l2.439,1.666s4.334,2.5,4.3,3.538-4.771-.42-4.2.6,4.658,2.246,4.872,4.087" transform="translate(101.308 12.234)" fill="#537e39"/>
        <path id="Trazado_159920" data-name="Trazado 159920" d="M493.523,110.6c-.368-.222-.84.119-.84.119-.194.577-.2.761.311.9s.66-.093.66-.093.236-.705-.132-.927" transform="translate(104.243 23.39)" fill="#537e39"/>
        <path id="Trazado_159921" data-name="Trazado 159921" d="M494.479,111.192c-.493.406-.562.568-.3.714a6.906,6.906,0,0,0,.75.32l.373-.6Z" transform="translate(104.553 23.532)" fill="#537e39"/>
        <path id="Trazado_159922" data-name="Trazado 159922" d="M495.315,110.8l.586.251.459-.218-.586-.68c-.554.414-.459.647-.459.647" transform="translate(104.824 23.312)" fill="#537e39"/>
        <path id="Trazado_159923" data-name="Trazado 159923" d="M495.927,112.11l.763.411.475-.313-.822-.829a.8.8,0,0,0-.417.731" transform="translate(104.954 23.572)" fill="#537e39"/>
        <path id="Trazado_159924" data-name="Trazado 159924" d="M496.3,113.494c.4.219.414.765.7.389l.284-.376-1.063-.582c-.15.235-.317.35.081.568" transform="translate(104.981 23.899)" fill="#537e39"/>
        <path id="Trazado_159925" data-name="Trazado 159925" d="M495.211,113.927a1,1,0,0,0,.543.594.647.647,0,0,0,.51-.073s-.379-.709-.424-.824-.629.3-.629.3" transform="translate(104.803 24.043)" fill="#537e39"/>
        <path id="Trazado_159926" data-name="Trazado 159926" d="M493.8,114.163l.769.5.251-.646-.655-.516Z" transform="translate(104.504 24.021)" fill="#537e39"/>
        <path id="Trazado_159927" data-name="Trazado 159927" d="M471.135,244.52c-.971.057-2.108.1-2.108.1a.71.71,0,0,0-.3,1.02l1.1.574s1.547.554,1.987.206,1.616.177.578-.814-.284-1.139-1.255-1.082" transform="translate(99.175 51.746)" fill="#537e39"/>
        <path id="Trazado_159928" data-name="Trazado 159928" d="M418.216,249.88c-.044-.156-.413-.174-.413-.174s-.219.325.023.168c.082-.053.183,0,.281.093.074-.019.119-.046.109-.087" transform="translate(88.402 52.846)" fill="#537e39"/>
        <path id="Trazado_159929" data-name="Trazado 159929" d="M418.582,250.313V250.3l-.008.013Z" transform="translate(88.584 52.972)" fill="#537e39"/>
        <path id="Trazado_159930" data-name="Trazado 159930" d="M418.434,250.056c-.211.056-.946.012-1.049.133a4.92,4.92,0,0,1-1.1.454l.065.459,1.2.073.889-.081a2.9,2.9,0,0,1,.67-.4l-.27.039a2.6,2.6,0,0,0-.4-.676" transform="translate(88.099 52.92)" fill="#537e39"/>
        <path id="Trazado_159931" data-name="Trazado 159931" d="M403.721,124.59c.64-.376.9-1.429,1.594-2.179s.841.368,2.275-.446.2-.6,2.251.046,1.7.491,2.171-.8-2.392-1.328-4.047-2.068-1.439-.935-4.369-.884-1.116.768-2.548.159-1.641-.257-3.2.456c-1.011.46-.03.939,1.25.757s.941.314,1.049,1.071-.429.711-1.155,1.063a11.261,11.261,0,0,1-3.606,1.322c-2.257.483.136.957.136.957a10.728,10.728,0,0,0,3.565-.182c2.143-.426,1.35-.842,3.388-.562.035,0,.065.01.1.016,1.891.31.517,1.641,1.146,1.271" transform="translate(83.472 24.996)" fill="#537e39"/>
        <path id="Trazado_159932" data-name="Trazado 159932" d="M532.86,123.8a132.328,132.328,0,0,0-27.338-47.1l-2.153-1.712c-2.219-.539-2.818-.881-3.3-.385s-1.158,1.323-1.106,1.682,1.833-.016.051.36-2.032.777-2.46.349-1.565-2.4-1.31-1.461,1.728,2.684,1.615,3.614a12.97,12.97,0,0,0,.091,2.793,24.11,24.11,0,0,0,1.739,4.452,1.825,1.825,0,0,1,1.459,2.111c-.165,1.853-.131,2.092-.26,2.9-.107.671-.723.413-.788,1.322a19.749,19.749,0,0,1,4.582-.032s.844.555,2.186,1.525l.015-.038a3,3,0,0,0-.2,1.645c.2.865-.093,1.639-.91,1.349s-3.179-1.988-2.21-.336,2.454,2.335,1.63,3.428-1.85-.957-.824,1.094,3.229,4.34,1.88,4.613c-.978.2-3.351-.088-5.107.216a10.459,10.459,0,0,0,1.8,2.674c.728.812-.427,1.3,1.04,2.72a5.827,5.827,0,0,1,1.55,4.009,5.266,5.266,0,0,0,.539,1.977c.095.2.2.4.334.623.676,1.124-.1,2.006-.126,2.662s-.04.291,1.112,1.794,1.821.757,1.437,2.358.328,2.312,1.339,3.1,1.17-.086,1.409,1.3a2.011,2.011,0,0,0,1,1.385c.437.27.864.384.935.456.143.142,2.232,1.634,2.338,2.961.1,1.29,1.292,3.39,4.011,6.08.078.078.153.154.233.231,2.887,2.8,3.711,6.305,5.079,4.443a11.122,11.122,0,0,1,3.316-2.789c.286-.285.161-.877,1.03-1.082s1.309-.268,1.07-1.088a2.709,2.709,0,0,1,.55-2.152s-1.43-8.054-1.235-8.732a8.033,8.033,0,0,0-1.2-4.059.636.636,0,0,0-.385-.245.6.6,0,0,1,.441.236,8.019,8.019,0,0,1,1.168,4.064c-.2.679,1.221,8.733,1.221,8.733.28-.325,1.1-1.092,1.591,1.2s.222,2.45.857,2.319,1.478-.78,1.911,1.111c.179.785-.234-6.794-.778-15.929q-.422-1.383-.872-2.754m-20.409-3.441,0,0c.038.052.073.109.109.162-.036-.055-.073-.111-.112-.165m-2.538-23.053h0c-.033.024-.063.04-.1.063.033-.023.064-.039.1-.064m4.056,29.3a3.376,3.376,0,0,0,.5.2,3.3,3.3,0,0,1-.5-.2m10.879-9.594a7.637,7.637,0,0,1,.191,1,7.943,7.943,0,0,0-.188-.974c-.618-2.628-3.4-7.275-3.4-7.275s2.778,4.621,3.4,7.248M518.9,135.394h0l.011,0-.016,0m3.623-4.775h-.028c0,.006-.01.007-.012.013a.493.493,0,0,0,.029-.259.646.646,0,0,1,.011.246m1.912.5v-.007c.04.019.08.045.12.067-.04-.022-.08-.04-.121-.059m-.771-2.092c.105.372.693.83.79,1.527-.114-.694-.7-1.152-.79-1.527m-2.1-4.987a13.036,13.036,0,0,0,.093,3.248,13.139,13.139,0,0,1-.141-3.537c.23-2.716-.436-3.388,1.333-4.721a2.335,2.335,0,0,1,1.3-.516,1.546,1.546,0,0,0,.138,1.153c-.339.023-.853-.429-1.344-.059-1.769,1.332-1.151,1.714-1.381,4.431m5.495.916a1.838,1.838,0,0,0-.164,1.294c.128.905.12,1.233-1.11,1.67.975-.4.189-.626.063-1.512-.058-.411-.986-.64-1.02-.878h0c.66-2.227-1.481-4.01-.891-5.73.506,1.088,1.9,2.391,2.531,3.665a3.547,3.547,0,0,1,.591,1.493" transform="translate(104.803 15.737)" fill="#537e39"/>
        <path id="Trazado_159933" data-name="Trazado 159933" d="M520.371,184.7c-1.671.3-1.742.371-4.763-1.641s-4.59-1.87-5.624-1.682-3.04.717-3.257.342-.661-.354-.994.182-.795.154-2.513-.457-1.538.1-2.315.939-1.636,1.982-1.653,1.862.006-.53-.034-.808a4.01,4.01,0,0,1,.305-1.59c.28-.893-.222-1.27-.6-1.662s-1.273-.348-2.056-.115-.131-.631-.592-1.013-2.313-.2-4.181-.708-2.222-.132-3.022.551-.614,2-1.243,2.455-1.411,1.258-1.4,1.053-.708-.388.052-.78.618-.536,1.356-1.372.269-.974.482-2.062-.1-.393-1.279-.387a9.954,9.954,0,0,1-3.694-1.306c-1.221-.559-.893,1.185-.893,1.185a3.955,3.955,0,0,0-1.693,1.3,5.9,5.9,0,0,0-.882,2.4c-.126.831-1,.711-.851.039s.652-1.15,1.551-3.149.481-.353,1.175-.918.506-.316.55-.872,1.284-2.3,1.193-2.935-.6.085-1.057.028-1.278-.957-2.145-2.461-1.015-3.271-2.45-3.313c-.7-.019-1.963.022-1.991-.176s.751-.595.164-.906c-1.147-.609-.515-.109-1.319-1.032s-.834-.735-1.639-.8a10.783,10.783,0,0,1-2.039-.46c0-.017.011-.032.015-.048-.327-.095-.688-.2-1.089-.33-1.6-.5-1.74.247-1.74.247s-1.85-.1-2.52.785-.865-.059-2.725.2c-1.054.15-1.329.11-1.474-.07a4.253,4.253,0,0,0-.4-.639c-.582-.649-2.495-.906-3.705-.734s-.2-.338-.189-1.112-.176-.382-.929-1.088a5.41,5.41,0,0,0-2.3-.958c-.221-.068-.45-.145-.689-.244-1.256-.514-1.2-.114-1.644-.377-.4-.236-.382-.533-.812-1.359-.047-.091-.1-.188-.157-.292a2.145,2.145,0,0,0-1.889-.876c-.322-.017-.607-.011-.781-.035a18.87,18.87,0,0,1-2.793-.488c-.364-.193-.47-.939-.937-1.636s-.509.071-2.806.276-1.752.158-1.7.76.051.573-1.034,1.338-.983.628-2.225.5a8,8,0,0,1-3.067-1.547c-.668-.394-.813.085-1.642.721a3.358,3.358,0,0,1-2.566.67c-1.225-.008-.762-.41-.869-1.585s-1.181-.991-4.018-.923-2.069,1.149-3.656,1.618-1.115.128-1,.966,1.288,2.38,1.454,3.332-.053.922-.8,1.272-.893.829-.934.316-.522-.658-1.019-1.35.155-.632.229-1.192.4-.393.682-1.012-.239-1.034-.406-1.559-.44-.516-1.074-1.311.022-.492.849-.914.626-.548.854-1.525-.835-.705-2.185-.086-.46,1.713-1.138,1.473-1.1-.423-1.123.709a1.085,1.085,0,0,1-1.407,1.084c-.38-.1-1.336-.359-1.477-.064s-.126,1.055-.944.9-.571.081-1.633.782-.838,2.285-.626,3.78-.994-.1-1.527,1.315-1.774.435-1.527,2.17-.322.746-.451.491a1.82,1.82,0,0,0-.326-.433,8.206,8.206,0,0,0-.852-.743c-.757-.594-.95-.23-2.128-1.406s-3.595.328-5.189.738-2.261,1.166-3.487,1.725-1.58-.2-2.027-.911-.425-.122-.389.422-.28.04-.568.019-.46-.219-.385-.84c.059-.5-.15-.422-.58-.457a2.388,2.388,0,0,1-.37-.059c-.677-.168-.851-.529-1.16-.974a6.439,6.439,0,0,1-.773-1.353,5.02,5.02,0,0,0-.612-1.072s-.385-.556-.749-1.175-.3-.6.221-1.037-.03-.21-.274-1.06.133-.568.781-1.178-.188-1.174-.336-1.925.012-.49.265-1.3a15.657,15.657,0,0,1,.716-1.708.707.707,0,0,0-.725-1c-.236.064-.961.349-1.5.456s.506-.315.841-.76.725-.286,1.037-.665.151-.45-.277-.45-.8-.252-1.627-.683-1.624-.013-2.116-.462-1.351.619-1.98.281-.734.145-1.649.6a4.728,4.728,0,0,1-3.051.067c-1.05-.216-1.029.513-1.435.245s-.188-.176-.926.091-.685-.228-1.124-.165c-.143.021-.132-.047-.025-.178.224-.27.869-.818,1.467-1.45.886-.939.481-1.777.459-2.79s.35-.985.916-1.31c.3-.171.176-.2.154-.513a3.7,3.7,0,0,1,.574-1.828c1.116-2.192.6-1.224.539-1.947a2.661,2.661,0,0,1,.207-1.7c.292-.529,1.339-1.776,1.757-2.567s.384-1.316-.758-1.031-1.31.837-1.914.313-2.616.25-4.067.66-1.487,1.024-1.637,2.55a11.4,11.4,0,0,1-1.05,3.809c-.418.791-.944,1.111-3.006,1.525s-.395.382-1.492.7-.9.251-2.309,1.264-1.576-.183-2.13-.917-1.372.4-2.159-.263-.423-1.465-.511-2.306-1.027-.769-1.322-2.192a32.211,32.211,0,0,1-1.01-3.883c-.3-2.092-.187-1.315.569-3.742s.08-2.023.681-2.964a2.582,2.582,0,0,0,.376-1.037,8.465,8.465,0,0,0-.056-1.876c-.071-.935-.085-.6.28-1.26a1.74,1.74,0,0,0,.307-1.507c-.107-.748.15-.876.777-1.636s.828-.636,1.052-1.218.184-.208,1.144-.345.468-.158.832-.606.235-.064.882-.248.456-.247.511-.712-.24-.607.126-1.269.3.414,1.988-.435.655-.551,1.9-.179.929.081,1.9-.393.485.389,1.007.406a4.562,4.562,0,0,1,1.406.2.95.95,0,0,0,1.3-.551c.265-.5.454-.034.955.261s.245-.431-.337-1.081,0-.611-.038-1.336-.27.039-.929.132-.6-.128-.244-.636.916-.008,2.463-.107,1.338-.5,1.535-.828.162.068.277.662.366-.082,1.651-.509.543-.626,2.535-.178.016,1.187,1.876,1.351,1.427-.864,2.507-1.018,1.08.131,1.719.894,1.41.166,1.758,1.214-.384,1.275-.328,2.244.448,2.295.963,2.221.2.54.542.9,1.745,2.233,2.117,2.262,1.078.416,1.96-.848a3.713,3.713,0,0,0-.144-4.169c-.8-.78-.319-1.093-.231-1.919s-.308-.728-.9-1.742a11.206,11.206,0,0,1-1.042-2.455c-.28-.814-.674-.717-.233-1.634a13.239,13.239,0,0,1,1.343-2.9,28.4,28.4,0,0,1,2.351-1.981,26.389,26.389,0,0,0,2.521-2.494c.859-.854,2.123-.79,2.294-1.3s.436-.448,1.708-1.117a11.071,11.071,0,0,0,1.857-1.139c1.007-.671,1.538-1.672.454-2.189s-.056-.389,1.53-.858-.282-.479-.852-.825-.546-.837-.486-1.487a3.1,3.1,0,0,0,.031-1.712c-.252-.91.065-1.26.714-2.084s.038.269.011,1.157.115.594.771.9.595.313.66-.307a10.242,10.242,0,0,1,.126-1.7c.159-.6.172-.085.955.261s.334-.23.983-1.054.464-.616.614-1.49c0,0-.912-.389.267-.709s.12-.445.653-1.008.316-.137,1.975-.311,1.628-.171,1.946-.947.24-.034,1.169.26,1.2-1.055.957-1.235-.917-.2-.941-1.025-.105-.961,1.416-2.306,1.042-.423,1.805-1.081.532-.563,1.294-.58.88-.277,1.414-.384.538-.452,1.573-.64.56-.365.452-.98.084-.276,1.315-.511a12.674,12.674,0,0,0,3.088-1.232c1.112-.5.055.378.109.473s.436-.082,1.619-.088.063.3-.025.533-.513.275-1.029.228-.534-.168-.968.076-1.718.834-1.718.834a9.68,9.68,0,0,1-.353.966,2.259,2.259,0,0,0-.3,1.038c-.024.411.618.767.941.742a6.939,6.939,0,0,0,1.634-.7,6.556,6.556,0,0,0,1.23-1.11c.362-.316-.023-.3.18-.738s.619.2.619.2a1.605,1.605,0,0,0,.738-.41c.417-.365.242-.156.917-.293s.842-.1,1.189-.536.214-.213,1.485-.6.515-.54.127-.974-.3.044-.836-.287-.031-.219-.414.1-.469.006-1.708.182-1.865-.061-1.976-.411.034-.4-1.169-.474-.561-.286-.68-1.123-.025-.179-.745-.078-.167-.1.128-.812.378-.572.511-.927-.677-.025-1.17.38-.854.336-1.186-.061-.422-.275-1.122-.252-.2-.094-.011-.182a2.106,2.106,0,0,1,.811-.222,1.664,1.664,0,0,1,.884.088l1.133-.314a10.841,10.841,0,0,0,1.485-.532c.909-.388.844-.516.153-.754a3.63,3.63,0,0,0-2.325-.391,20.646,20.646,0,0,0-3.927,1.147s-1.4.607-2.109.951a7.344,7.344,0,0,0-1.916,1.452c-.663.643-.987.08-.582-.506s1.106-.975,1.964-1.937,1.026-.206,2.089-.265.814-.3,1.441-1.487.669-.462,1.535-.829a10.12,10.12,0,0,1,2.76-.391s2.185-.128,5.45-.41,1.508-.58,3.344-1.878.889-1.2,2.818-1.559,1.313-.371,1.313-.371a2.443,2.443,0,0,0,1.2-.922c.7-.831-.465-.188-.418-.927s-.282-.692-1.065-1.038-.956.167-1.118-.328.116-.26-1.564-.022a5.165,5.165,0,0,0-2.6,1.071,1.87,1.87,0,0,1-1.209.325c-.462-.027.413-.546.413-.546a5.5,5.5,0,0,0,1.679-.453,10.323,10.323,0,0,1,1.307-.7c.858-.428.922-.406.37-.632s.231-.521-.994-.1-1.38.2-1.667-.311-.179.025-1.127.251-1.02.145-1.242-.555-1.286,0-2.065.11-.519-.414-.2-1.191-.15-.193-.269-.817-.262-.328-1.786-.722a7.935,7.935,0,0,1-3.268-1.671c-1.193-.868-.475.1-.569.294s-.679,1.256-.928,1.658-.689.1-1.911.973-1.111.372-1.111.372a9.286,9.286,0,0,0-1.725-.945c-.908-.359,0,0-.839-.521s-.069-.479-.093-1.725,0,0-1.2.384-.746.137-.977-.411-.9-.269-1.974-.756-.635.059-1.851.11a25.534,25.534,0,0,0-3.591.572c-1.851.325-.343.6-.7,1.137s-1.338.494-.653,1.435-.5,1.23-2.032,1.631-.387.3,1.96,1.307.359,1.23.015,2.255-1.758,1.409-3.533,1.845-2.314.511-1.286.853.219,2.41.219,2.41l-.074,3.35s-.6,2.206-1.385,2.317l-.332.047-.039.006-.168.024c-.54.076-1.341-2.113-1.341-2.113a14.841,14.841,0,0,1-1.367-2.3,3.113,3.113,0,0,1-.263-1.849,8.768,8.768,0,0,1,.744-2.086c.464-1.043-.855.015-1.617.246a13.969,13.969,0,0,1-2.271.391c-.96.137-.818-.154-2.5-.769s-1.356-.064-2.812-.834-2.962.394-4.121.864-.07-.5-.124-1.45-.194-.929-.705-1.224.367-.865,2.54-2.517,1.958-1.723,3.866-2.076,1.232-.949,2.719-1.688,3.533.168,3.977-.586.929-.783,1.935-1.6a4.766,4.766,0,0,0,1.2-1.132c.277-.349,1.645-.086,2.332-.428s1.919-.842,3.252-1.519.132-.792-.165-1.725,3.316.078,4.151-.081c.691-.132.654-1.442.775-1.459l.3-.042c-.208.029-.1.435-.012,1.229.119,1.122,0-.03.676-.127s.694.007,1.551.292-.012.2-.164.463a6,6,0,0,1-1.621.756s-1.31.55-.577.536a7.515,7.515,0,0,0,1.879-.268c.83-.191.508-.447,1.063-1.137s.331.034,1.218-.336.874.12.9.319-.423.466-1.183.868a3.107,3.107,0,0,0-1.116.761,8.744,8.744,0,0,1-2.085.825,26.267,26.267,0,0,0-3.065,1.046c-.322.25.812.617,2.043.372s1.564-.479,2.973-.718.973.349,2.057.806.765.5,1.225.3A4.764,4.764,0,0,1,416.2,51.5l3.691-.156a7.385,7.385,0,0,0,2.2-.572c.6-.388-1.975.171-1.975.171a9.8,9.8,0,0,1-2.341-.68c-.668-.393,2.428-.142,2.428-.142l2.251.046a3.1,3.1,0,0,0,.979-.859c.225-.426-.161-.559-1.169-.766s-1.671.3-2.367,0-.422-.672-.359-.8a27.151,27.151,0,0,1,3.317.666,1.989,1.989,0,0,0,1.521-.5c.726-.631,1.27-1.116,1.556-1.4s-3.28-.1-3.28-.1l-2.388.136-2.181-.422a6.417,6.417,0,0,0,1.2-.74c.852-.608-.88-.16-.88-.16l-1.874.023-2.222.153-2.346-.765,1.452-.769a12.976,12.976,0,0,1,1.636-.932,8.742,8.742,0,0,0-3.693,1.219c-.494.183-1.418.626-2.408,1.018-.085-.227-.545.045-1.667.171a16.76,16.76,0,0,0-2.819.4c-1.184.29-.781,1.605-.966.961s-.5-.265-1.791.1-1.488,1.37-.7,1.35,1.208-.11,1.066.611-1.336.719-1.974.972-.859.347-.838.628-.339.557-.716.488,0,0-.184-.431.314-.379.841-.76-.056-.6-.955-.474-1.767,1.135-3.087,1.323.391-.91,1.112-1.867-1.22-.191-2.069.294a3.774,3.774,0,0,0-1.913,2.255c-.1.837-1.1.859-2.092,1a11.238,11.238,0,0,0-3.742,1.233c-1.92.914-2.2.435-2.75.239s.2-.517.921-.619a3.213,3.213,0,0,0,1.87-.632,12.356,12.356,0,0,1,1.4-.9c.386-.3-.725-.142-2.211-.052s-3.416,1.37-4.586,1.964.141.56-.05,1.379-.836.79-2.039.717-.66.095-1.951.7c-1.184.561-.918.271-1.173-.279q-5.819,3.242-11.246,7.023c-3.907,2.8-8.084,6.072-11.16,8.677q-1.87,1.619-3.677,3.305c-3.326,3.221-5.759,6.225-6.731,7.255-1.064,1.128-.241,1.173-.911,1.919s.153,1.361-.5,1.942a2.762,2.762,0,0,0-.526.722A19.332,19.332,0,0,1,339.83,89.2c-.79,1.047-1.037,2.466-2.747,4.213a14.462,14.462,0,0,0-3.641,6.252,11.174,11.174,0,0,1-2.679,4.693,2.436,2.436,0,0,0-.694,2.58,3.182,3.182,0,0,1-.476,2.67c-.5.479.2.542-.254,2.232s-.39,1.845.871,2.4.9.28.769,1.681a8.5,8.5,0,0,0,.285,2.227,3.749,3.749,0,0,1-.071,1.281c-.344,1.594.019,3.292-.308,4.437s.851.814.957,2.426-.454,1.976-1.454,2.119.045,1.173,1.117,2.118,1.6.666,1.323,2.13a4.348,4.348,0,0,0,1.213,3.935c1.055,1.111.751,2.131.98,1.447s.63-.739.471-1.856-.251-.9-.821-.9-.085-.883-.227-1.88-.44-.791-.33-1.742a3.773,3.773,0,0,0-.981-3.074c-.95-1.126-.26-.492-.328-2.312s.2-2.1-.32-3.208-.307-2.153.662-3.672.326-.576.5-.519a2.863,2.863,0,0,1,1.009,1.362c.217.66-.12.871-.258,1.622s.05,1.5-.248,1.987.479.786.633,1.578.308.729.849,1.1.343.4.4,1.2.721.629.389,1.449a2.934,2.934,0,0,0,1.007,2.786,2.734,2.734,0,0,1,1.009,2.215c.107,1.043,1.181.849,1.5,3.121s1.122,2.159,1.442,2.683a2.418,2.418,0,0,1-.145,2.136,3.788,3.788,0,0,0-.391,2.7c.308,1.014,2.257,1.814,2.423,2.34a2.62,2.62,0,0,0,2.685,1.449c1.676-.056.588.038,1.323.7a10.191,10.191,0,0,0,2.3,1.534c.655.3,1.47.218,3.291.752s.658.761,1.332.757a8.284,8.284,0,0,1,2.193.359c1.576.325.994.1,1.8-.5s1.082-1.862,2.761-1.888.081.355,1.671.343.179-.025.774.5c.475.419,1.717,1.584,2.879,2.763.293.3.583.6.853.887,1.335,1.426,2.014.6,3.411.308.351-.073.582-.119.733-.132.452-.038.2.223.3.961.139.986.483.6,1.734,1s1.465-.025,2.611-.951.5.264.271,1,.069.692,1.276,1.436,1.441,2.388,3.1,2.273-.179-.859.121-1.756,2.055,1.324,2.655,1.88-.206.273-1.166.41-.42.059-1.106.614.136.957.251,1.764.418,1.436,1.841,1.111,1.674.585,1.674.585l.908.786a4.229,4.229,0,0,1,.646,1.311c.071.509-.018.521,1.155,1.24a1.22,1.22,0,0,0,1.775-.222,24.882,24.882,0,0,0,3.148.406c.6-.055.339.013,1.387.505s.483.815.825,1.712.326-.076,1.123-.494.914-.893.914-.893l-.363-.832-1.035-1.043s1.14-.376,1.689-.606.66-1.162,1.273-1.584,2.892.107,3.1.932a12.485,12.485,0,0,0,.529,2c.269.6,1.229.893,1.459,1.439s1.087,1.4.872,1.828.822.829.333,1.478.584,2.387.115,3.4.543,1.448.683,2.434a3.467,3.467,0,0,1-1.168,2.546c-.317.137-2.079.447-2.118,1.46s-.76,1.115-.76,1.115a1.049,1.049,0,0,0,.041.726c.171.342.124.44-.327,1.145s-.566.325-2.348.7-.5.162.423,1.253-.206.486-.559.811-.287.986-.6,1.794-.613.208-.383.969a3.213,3.213,0,0,1,.031,2.588c-.486,1.106-.069.8.491,1.3s.6-.115,1.975.543.457,1.492-.354,1.607,0,0-.784.721-.305.44-1.452,2.28-.137.752,1.052,2.017.5,1.605-.065,1.9,1.156.6,3.434,1.769.774.287,1.313,1.278.316.5,1.67,1.409,2.908,4.315,3.8,5.011a3.969,3.969,0,0,1,1.53,2.375c.145.8.068.906.848.795s1.6,1.329,2.773,2.29,1.366,1.209,1.5,1.952-.086,1.111.247,1.735,1.43,1.017,3.49,2.157A18.693,18.693,0,0,0,426.244,228c4.288.886.9.543,2.663,1.086s.21.611.629.979,1.478.064,2.463.534a5.848,5.848,0,0,1,.774.4c.179.131.2.254.317.6.208.612.371.893.956,2.64a12.606,12.606,0,0,1,.657,2.683c.362,1.688-.022.918-.024,2.84s.254,2.649-.357,3.3-.414.746.1,1.1.294.781.8,2.175.614,1.956.429,2.592.471.94.046,1.825-.229.978-.016,1.832.046,1.4-.556,2.764.3,1.269.55,2.789-.712,1.443-.29,2.481a26.949,26.949,0,0,1,1.038,2.567c.337,1.081.127,1.11.027,2.131s-.29,2.908-.436,3.6a21.215,21.215,0,0,1-.431,2.349c-.339,1.269-.694.5-.584,1.272s-.03.431-.49.863-.351.325.029,1.064a20.717,20.717,0,0,0,1,1.842,5.628,5.628,0,0,1,.492.875s-.133.355-.336.872a3.348,3.348,0,0,1-.537.961c-.351.538-.078.956.191,1.558s.03.21.208,1.038a1.755,1.755,0,0,1-.069,1.23,2.808,2.808,0,0,1-.594,1.213c-.377.572-.081.286.081.568s.485-.039,1.115-.128.223-.153.33-.26a6.7,6.7,0,0,0,.319-1.2,5.159,5.159,0,0,1,.456-1.742c.422-.914,1.05-.149,1.05-.149l.088,1.269s-.167.543-.366,1.3-.138.538.038,1.338.073,1.23.211,2.206-.178,1.042-.4,1.053-.436-.2-.758-.6-.268-.592-.579-1.057-.046.251-.332.677-.427.447-.492.985-.4.647-1.112.789-1.3.185-2.76.393.583.08,1.6.179a3.3,3.3,0,0,0,2.325-.433c.595-.41.364-.03.572,0a6.477,6.477,0,0,0,1.17-.086c.583-.062.246.433-.12.586s-.389.28-.486.6.451.443.451.443-.069.519-.315.514-.417-.063-.726-.08a1.584,1.584,0,0,0-.892.473c-.143.142.451.586.451.586a3.437,3.437,0,0,1,.663-.359c.387-.156.43,1.014.708,1.1s.346,1.107.351,1.175l.031-.047a1.067,1.067,0,0,1,.269-.365,3.009,3.009,0,0,1,.732.1l.05.339s-.269.181-.624.414-.042.229.055.338.745-.086.745-.086a2.66,2.66,0,0,1,1.029.2c.334.2,1.18.545,1.18.545s.023.728-.309.694-.394-.188-.56-.2.046.319-.12.586a.38.38,0,0,0,.068.479l1.469.279,1.455.485,1.1-.279.749-.473.451.3a3.623,3.623,0,0,0-.069.66c.022.16,1.53.434,1.53.434a11.743,11.743,0,0,1,1.312.048c.373.058,1.155-.393,1.853-.338a.081.081,0,0,1,.017,0,6.851,6.851,0,0,0,1.863-.265l2.187-.514a2.186,2.186,0,0,0,.606-.331c.217-.193-.8-.17-1.189-.317a15.76,15.76,0,0,0-1.579-.466c-.337-.074-.638.418-.923.133a11.472,11.472,0,0,1-.9-.8,6.651,6.651,0,0,0-1.311-1.351c-.543-.371-.88-.838-.437-1.387.269-.332.3-.388,1.5-.589s.776-.354.768-1.054-.008-.7,1.064-1.341,1.24-.543,2.111-2.375-.2-.58-.368-.435-.985.6-2.541,0-.546-.837-.165-1.593,1.454-.969,2.645-1.2.181-.453.721-.957.309-.2.386-.939-.153-.863.927-1.444-.71-.692-.6-1.2-.556-.042-.47-1.153-.745-.076-.443-1.4,1.448.282,4.336-.068,1.988-1.075,1.988-1.075-1.421-.957-.666-1.674-.127-.9-.221-1.982.608-.025,1.963.025,2.931-.05,7.1-2.168,3.774-4.014,3.038-4.031-1.14.162-.625-.521-.076-.966-.435-1.341-2.347-1.009-2.441-1.24-.093-.658.4-.666,3.273.632,3.273.632,2.391.027,3.9-.127,1.654-.418,2.7-1.665c.414-.493.845-1.09,1.32-1.742a28.621,28.621,0,0,1,2.628-3.211c.843-.864,1.036-1.035,1.237-1.126a3.324,3.324,0,0,0,.029-.732c-.051-.36.4-.875.4-.875l.725-1.573a1.167,1.167,0,0,1,.66-.095c.257.086.638.4.406.705a11.7,11.7,0,0,0-1.248,1.55,1.418,1.418,0,0,0-.225.7c.2-.107.46-.256.808-.476,2.1-1.336,1.427-2.155,2.44-3.641a6.455,6.455,0,0,1,2.99-2.784c1.67-.888.693-1.441.786-3.081a7.487,7.487,0,0,1,.579-3.387c.645-1.708.927-1.017,2.248-2.272s1.6-2.089,3.17-3.1,1.236-1.641,2.5-1.759.711-.162,1.587-1.324,2.135-.914,4.559-1.075.609-.88,1.562-1.5A2.144,2.144,0,0,0,508.5,228.6a3.476,3.476,0,0,1,1.485-2.468,3.09,3.09,0,0,0,1.261-1.888c.3-.9.868-1.221,1.254-2.375s.423-2.622.791-2.187.052-.922.92-2.571.6-3.075.794-4.75.125-3.86.34-5.355.807-1.213,1.174-.35.447-1.162,1.641-3.1,1.708-3.048,2.095-3.775a31.638,31.638,0,0,0,1.7-2.681c.765-1.512.937-2.879,1.985-4.98s-.166-4.613-.506-6.15-1.387-1.573-3.058-1.275m-106-115.446c0-.406.133-.385.882-.573,0,0,.857.285.758.746s0,0-1.089.317-.55-.084-.551-.491m-5.3-1.6a3.537,3.537,0,0,1,1.1-.849,3.448,3.448,0,0,1-.007,1.67c-.218,1.047-.527,1.458-.8,1.252s-1.387-1.145-1.387-1.145Zm-1.7,3.865c.526-.315.617.029.718.748l-.686.34s-.783-.051-.794-.416.234-.359.761-.672m-3.482-7.848a5.8,5.8,0,0,1,1.662-.643,3.347,3.347,0,0,1-.807,1.782c-.681.666-.469.433-.64.091s-.268-.45-1.084-.74,0,0,.869-.489m11.291-13.679s-.742.274-.855.121.044-.555.044-.555l.578-.235a.733.733,0,0,1,.46.118Zm-.2-2.172a3.208,3.208,0,0,1,.64-.091c.2-.029,1.2.4,1.006.466a6.864,6.864,0,0,1-.921.131s-.411-.023-.3.451-.594.125-.6.085-.016-.974.178-1.042M398.444,81.886l2.119-.017,1.332-.962.852-.609.765.2.338.09a11.907,11.907,0,0,1-.624,1.634c-.35.7-2.126.544-2.126.544s-1.113.2-2.359.338-.689.893-.689.893l-1.741.957a10.221,10.221,0,0,0-3.671,2.3c-1.529,1.587-2.16.307-2.16.307s-.882-1.042-.258-1.815.709-.758.955-.752.073.8.519.5c0,0,.858-.285,1.847-.506a6.227,6.227,0,0,0,1.476-.522,8.79,8.79,0,0,0,1.37-.7c.874-.45.48-.637.48-.637l.132-.832ZM382.979,72.7c.367-1.15,0,0,.766-.353a4.95,4.95,0,0,1,.878,1.584c.136.671-.372.256-1.87.625s-.142-.705.225-1.856m-5.5.374c.007-1.1,0,0,.88-.125l1.707.531-.629.74s-1.965-.046-1.958-1.146m-.744,5.962,3.841-1.969,3.79-1.759s2-1.462,2.68-.38a13.024,13.024,0,0,0,1.241,1.558,5.851,5.851,0,0,1,.823,1.483s-1.361,1.333,1.519.923,2.926-1.515,4.359-.62,1.4.086,1.518,1.208.689,1.691-.333,1.39-1.787-.519-2.136-.1a9.26,9.26,0,0,0-.854,1.748s-.367,1.435-.79,1.616-1.166.41-1.166.41-.1-1.571-.5-1.8-.949.786-1.527.746.956-1.031,1.1-2.027a1.234,1.234,0,0,0-1.426-1.425c-.72.1-.4-.553-1.229.257s-1.844,1.929-1.844,1.929-1.746.655-1.827,1.805.473,1.316.038,2.273-.911,1.918-.911,1.918-.863.814-1.246.422-.212-4.077-.212-4.077l.562-2.646,2.189-1.528s1.315-.513,1.943-.683a3.989,3.989,0,0,1,1.469-.29c.337.074.789-.194.007-.814s-2.478.351-2.478.351c-.425.183.095.394-1.082.154s.1-.624-1.575-.264a14.648,14.648,0,0,0-2.978.994l-1.588-.012a5.558,5.558,0,0,1-1.24.176c-.452-.023-.137-.963-.137-.963m-2.569-1.993c-.457.228,0,0-.937-.436s-.068-.316.91-1.187a6.3,6.3,0,0,1,.714,1c.125.308-.229.4-.687.626m-2.763-11.4c.184-1.571-.28-.529.779-1.7l1.067,1.195a18.741,18.741,0,0,1-1.614,2.137c-.847.933-.418-.063-.233-1.636m.206,5.258c-.082-1.087.326-.657,1.252-1.317l.3.649a5.5,5.5,0,0,1-.081,2.33,15.123,15.123,0,0,1-.91,2.285c-.17.064,0-.367.12-1.563s-.593-1.3-.676-2.384m-4.031-5.08a3.571,3.571,0,0,1-1.757.25c-.6-.2-.755-.462,1.626-1.17Zm2.477,7.556c.429.728.035,1.685.114,2.529s-.772.313-.772.313.133-.791.31-1.548-.706-1.242-.706-1.242a4.659,4.659,0,0,0,.31-1.548c.006-.814-.114-.8.567-1.464,0,0-.253,2.232.177,2.961m-4.62-9.244c1.269-.546,1.018-.877,2.378-1.925l.983.594a15.627,15.627,0,0,1-1.876,1.73c-1.138.894-1.47.574-2.606.614s-.148-.466,1.121-1.013m6.119,81.127c.019.012.044.023.063.035s.057.04.087.059c-.047-.031-.1-.063-.15-.095m62.177,67.974c.007,0,.013.007.021.008a.522.522,0,0,0-.2-.012s.065,0,.177,0m-5.158-17.776.023.017c.01.007.016.016.026.024-.016-.013-.031-.028-.049-.041m26.689-20.108c-.788-1.23-1.043-1.742-.366-2.571s1.172-.96.515-1.843a7.435,7.435,0,0,0-1.844-2.159,7.435,7.435,0,0,1,1.844,2.159c.657.883.164,1.014-.514,1.843s-.422,1.341.365,2.571.957,2,1.895,2.475a3.276,3.276,0,0,0,1.671.43,3.256,3.256,0,0,1-1.672-.43c-.937-.476-1.107-1.246-1.894-2.475m11.77-1.109a2.833,2.833,0,0,0,.425-.059,2.936,2.936,0,0,1-.486.068c-.159.008-.285.021-.391.035a4.14,4.14,0,0,1,.452-.044m-3.265.822.154.269c.922.035,2.171.538,2.706.47-.514.082-1.787-.462-2.725-.5l-.141-.24h.006m13.351,68.563c.022-.015.045-.033.065-.047s.041-.028.063-.042c-.042.029-.085.058-.128.09M471.3,174.094a6.925,6.925,0,0,0-1.7-.779.622.622,0,0,0-.2,0,.268.268,0,0,1,.194,0,5.974,5.974,0,0,1,1.691.774v.006s.437-.046.938-.114c-.689.1-.927.113-.927.113m2.219-.311.187-.033a1.687,1.687,0,0,1,.614-.031c-.145.155-.258.018-.8.064" transform="translate(69.645 9.083)" fill="#537e39"/>
        <path id="Trazado_159934" data-name="Trazado 159934" d="M507.351,168.819a6.247,6.247,0,0,0-5.2-6.076c-2.027-.281-4.208.458-6.08-.37-1.779-.786-2.874-2.844-4.775-3.254-1.54-.332-3.214.531-4.685-.036-1.133-.436-1.8-1.591-2.733-2.368a4.9,4.9,0,0,0-6.933,1.054c-.439.674-1.064,1.6-1.791,1.259-.412-.2-.533-.709-.742-1.113a2.342,2.342,0,0,0-3.905-.084c-2.8-2.5-2.667-6.876-4.261-10.277a10.478,10.478,0,0,0-15.313-4.259,6.526,6.526,0,0,1-3.01,1.522c-2.949.176-4.825-4.664-7.621-3.711-.659.224-1.2.766-1.891.86-1.2.165-2.085-1.019-2.855-1.956a11.491,11.491,0,0,0-12.142-3.521,11.467,11.467,0,0,1-2.955.829c-1.419.069-2.737-.648-4.082-1.106s-3.017-.589-4.014.423c-.321.327-.561.761-.98.949-1.121.5-2.023-1.1-3.185-1.5-1.739-.594-3.113,1.674-3.144,3.511s.417,3.92-.768,5.323a8.486,8.486,0,0,0-1.025,1.139,3.2,3.2,0,0,0-.108,2.255,24.82,24.82,0,0,0,8.709,14.074,47.861,47.861,0,0,0,7.367,4.557q4.371,2.343,8.763,4.651c5.823,3.075,11.738,6.185,18.176,7.578a72.5,72.5,0,0,0,13.355,1.2q6.552.176,13.1.356c3.922.109,7.845.214,11.769.2a24.141,24.141,0,0,0,8.767-1.2c4.756-1.872,8.517-6.576,13.627-6.6" transform="translate(85.288 28.754)" fill="#537e39"/>
        <path id="Trazado_159935" data-name="Trazado 159935" d="M414.212,66.976c2.037.2,3.789-1.29,5.584-2.273s4.54-1.218,5.444.618a2.892,2.892,0,0,0,.442.82c.471.477,1.266.284,1.9.064,1.651-.573,3.625-1.058,5.028-.015a2.787,2.787,0,0,1,.408,3.958,2.607,2.607,0,0,1-3.9-.263,13.63,13.63,0,0,1-2.37,5.567c-1.316,1.552-3.643,2.45-5.444,1.5-.456-2.118,3.309-3.257,3.039-5.406-.2-1.567-2.54-1.93-3.785-.957s-1.706,2.61-2.3,4.072-1.625,3-3.2,3.183a7.065,7.065,0,0,0-1.988.154c-1.215.515-1.193,2.243-.824,3.509s.831,2.789-.044,3.777c-.978,1.105-2.764.611-4.213.889a3.853,3.853,0,0,0-3,4.031,3.873,3.873,0,0,1,.04,1.92c-.481,1.112-2.155,1.009-3.033,1.845-1.33,1.266-.183,3.9-1.552,5.126a4.167,4.167,0,0,1-1.77.719,10.242,10.242,0,0,0-7.353,9.708c.021,1.906.588,3.824.223,5.695s-2.252,3.68-4.023,2.972c-1.6-.637-1.911-2.691-2.427-4.332s-2.355-3.357-3.721-2.313c-.436.333-.694.894-1.2,1.115-1.072.469-1.992-.891-2.382-1.993l-1.882,2.444c-1.16-.34-1.57-2.158-2.778-2.159-1.506,0-1.284,2.3-1.691,3.748-.529,1.879-2.817,2.679-4.765,2.557s-3.838-.858-5.789-.8-4.13,1.336-4.139,3.288c0,.887.439,1.819.07,2.626-.462,1.01-1.923,1.209-2.45,2.187-.433.8-.068,1.787-.11,2.7-.118,2.541-3.382,4.572-2.5,6.958a4.564,4.564,0,0,0,1.565,1.819l4.184,3.393c1.061.86,3.105,1.43,3.39.092.115-.534-.211-1.126.019-1.622.531-1.146,2.192.2,3.454.2,1.427,0,2.051-1.848,1.916-3.269s-.571-3,.253-4.169c2.017-2.85,7.661,1.139,9.722-1.679,1.246.6.79,2.561-.208,3.52s-2.4,1.65-2.815,2.971c-.465,1.483.544,2.994.763,4.533a4.642,4.642,0,0,1-3.093,4.914c1.288,1.73,3.934,1.645,5.959.9s3.947-1.985,6.1-2.016a2.312,2.312,0,0,1,2.606,2.193c.411,2.365-.778,4.83-.185,7.155.778,3.056,4.479,5.438,3.576,8.458-1.8,1.242-4.3.574-6.165-.573s-3.487-2.741-5.56-3.433a12.318,12.318,0,0,1-3.416-1.189c-1.521-1.082-1.843-3.177-2.852-4.746a6.161,6.161,0,0,0-7.707-2.082,4.43,4.43,0,0,1-1.934.752,5.314,5.314,0,0,1-1.913-.7c-2.536-1.069-5.326.566-8.053.944a9.121,9.121,0,0,1-9.808-6.843,6.967,6.967,0,0,0-.8-2.632c-.53-.75-1.454-1.179-1.885-1.988a4.081,4.081,0,0,1-.264-2.206q.5-7.631,1-15.263a20.222,20.222,0,0,1,1.309-7.021c1.882-4.189,6.326-6.574,10.639-8.148s8.938-2.72,12.487-5.635c2.88-2.366,5.117-5.913,8.758-6.712,2.56-.563,5.192.411,7.813.453s5.752-1.6,5.554-4.216a12.56,12.56,0,0,0-1.224-3.24,5.935,5.935,0,0,1,.78-5.49,16.109,16.109,0,0,0,9.845-5.952,5.723,5.723,0,0,1,1.351-1.442c2.534-1.607,6,2.118,8.643.691a6.1,6.1,0,0,0,1.81-1.948,15.145,15.145,0,0,1,8.463-5.7" transform="translate(71.656 13.534)" fill="#537e39"/>
        <path id="Trazado_159936" data-name="Trazado 159936" d="M495.853,76.41c.086,2.668,2.3,5.416.992,7.744a16.708,16.708,0,0,0-1.1,1.658c-.59,1.42.451,3,1.666,3.948s2.695,1.632,3.528,2.925a1.141,1.141,0,1,0,.208,2.152l-3.206,1.739a8.419,8.419,0,0,0,3.639.271,8.575,8.575,0,0,1-.213,3.292c-.124,1.1.212,2.461,1.275,2.782a21.338,21.338,0,0,0-3.622,1.576,3.219,3.219,0,0,0-1.26,1.034c-.8,1.3.378,2.953,1.68,3.748s2.907,1.363,3.578,2.733c.978,2-.62,4.484.153,6.569.848,2.285,4.083,2.947,4.948,5.226.7,1.844-.471,3.9-.188,5.857.468,3.214,4.278,4.494,6.9,6.412a22.538,22.538,0,0,1,2.645,2.4l5.77,5.826a5.424,5.424,0,0,0,1.735,1.329,3.639,3.639,0,0,0,3.5-.715,10.18,10.18,0,0,0,2.284-2.932,11.969,11.969,0,0,0,1.659-3.769,4.309,4.309,0,0,0-.974-3.853c-2.039-2.015-5.6-.576-8.26-1.632-2.71-1.074-3.732-4.359-4.035-7.259s-.317-6.069-2.148-8.338c.722,2.873.875,5.9,2.008,8.643s3.654,5.233,6.612,5.056a1.342,1.342,0,0,0,.761-.228,1.471,1.471,0,0,0,.422-.777,15.563,15.563,0,0,0-4.3-15.412c-2.22-2.049-5.013-3.4-7.2-5.49-3.937-3.754-5.412-9.311-7.38-14.383s-5.149-10.368-10.41-11.75" transform="translate(104.881 16.171)" fill="#537e39"/>
        <path id="Trazado_159937" data-name="Trazado 159937" d="M506.044,100.161a8.757,8.757,0,0,1-5.208-2.535,15.022,15.022,0,0,1-2.929-5.83,2.912,2.912,0,0,1,.647-3.643c.842-.973,1.848-2.025,3.133-2.033a3.839,3.839,0,0,1,2.189.875,11.741,11.741,0,0,1,4.422,6.38,4.676,4.676,0,0,1,.2,1.653,3.285,3.285,0,0,1-2.189,2.687,4.089,4.089,0,0,1-3.5-.488" transform="translate(105.301 18.226)" fill="#537e39"/>
        <path id="Trazado_159938" data-name="Trazado 159938" d="M499.95,166.994q-2.214,4.322-4.426,8.644a4.109,4.109,0,0,0-.654,2.377c.326,2.26,4.066,3,3.958,5.282l-6.313,1.018a1.843,1.843,0,0,0-1.133.462,1.681,1.681,0,0,0-.156,1.538c.79,3.042,3.269,5.763,2.811,8.873-.745,5.051-8.46,6.652-9.253,11.7-.156.989-.03,2.077-.579,2.914-1.364,2.086-4.727.36-7.071,1.207-1.683.607-2.535,2.435-3.213,4.092l-3.105,7.574a10.64,10.64,0,0,1-1.115,2.209,13.158,13.158,0,0,1-2.5,2.332,26.919,26.919,0,0,0-5.79,6.566,12.338,12.338,0,0,1-.429-5.033c-2.418,1.1-.921,5.017-2.324,7.273a5.5,5.5,0,0,1-2.53,1.888,27.01,27.01,0,0,1-9.7,2.366c1.919,1.374,1.688,4.587-.053,6.182s-4.4,1.787-6.683,1.183a3.523,3.523,0,0,0-2.164-.173c-1.847.728-.705,3.493-.923,5.466-.368,3.337-5.061,4.395-6.387,7.478-.486,1.129-.462,2.427-.952,3.554s-1.907,2.051-2.921,1.357a2.521,2.521,0,0,1-.863-1.488c-1.053-3.889.012-8,1.073-11.889l3.889-14.233q1.863-6.815,3.725-13.631c1.06-3.878,2.147-7.821,4.283-11.228,2.346-3.742,5.816-6.617,9.225-9.423l8.666-7.134a20.609,20.609,0,0,1,5.477-3.6,17.828,17.828,0,0,1,6.677-.876c8.827.122,18.1,1.945,26.182-1.6" transform="translate(89.954 35.342)" fill="#537e39"/>
        <g id="Grupo_78468" data-name="Grupo 78468" transform="translate(376.753 47.971)" opacity="0.21" style="mix-blend-mode: overlay;isolation: isolate">
          <g id="Grupo_78467" data-name="Grupo 78467">
            <g id="Grupo_78466" data-name="Grupo 78466" clip-path="url(#clip-path-3)">
              <path id="Trazado_159939" data-name="Trazado 159939" d="M335.881,230.8A133.87,133.87,0,0,1,503.4,53.109,133.872,133.872,0,1,0,401.043,300a133.362,133.362,0,0,1-65.162-69.2" transform="translate(-310.946 -39.592)" fill="#fff"/>
            </g>
          </g>
        </g>
        <g id="Grupo_78471" data-name="Grupo 78471" transform="translate(453.053 72.767)" opacity="0.6" style="mix-blend-mode: multiply;isolation: isolate">
          <g id="Grupo_78470" data-name="Grupo 78470">
            <g id="Grupo_78469" data-name="Grupo 78469" clip-path="url(#clip-path-4)">
              <path id="Trazado_159940" data-name="Trazado 159940" d="M555.241,117.983A133.874,133.874,0,0,1,373.919,290.009c156.43-13,173.227-189.572,135.184-229.952a133.1,133.1,0,0,1,46.138,57.926" transform="translate(-373.919 -60.057)" fill="#c7dee0"/>
            </g>
          </g>
        </g>
        <g id="Grupo_78474" data-name="Grupo 78474" transform="translate(404.643 172.268)" opacity="0.6" style="mix-blend-mode: multiply;isolation: isolate">
          <g id="Grupo_78473" data-name="Grupo 78473">
            <g id="Grupo_78472" data-name="Grupo 78472" clip-path="url(#clip-path-5)">
              <path id="Trazado_159941" data-name="Trazado 159941" d="M573.551,142.177A133.945,133.945,0,0,1,333.965,233.6c54.8,14.226,163.887,23.809,239.586-91.421" transform="translate(-333.965 -142.178)" fill="#c7dee0"/>
            </g>
          </g>
        </g>
        <path id="Trazado_159942" data-name="Trazado 159942" d="M344.676,113.879s-11.2-28.105-3.544-46.673c.389-27.242,18.851-26.16,23.683-40.483,0,0,11.87,37.293-18.852,42.711,0,0-11.092,10.333,1.345,44.245Z" transform="translate(71.629 5.655)" fill="#a8bc8b"/>
        <path id="Trazado_159943" data-name="Trazado 159943" d="M345.456,75.563s-.7-31.725-39.8-26.841c10.888,9.285,9.83,27.434,35.891,19.3,0,0,3.8,10.149,4.523,19.547Z" transform="translate(64.688 10.203)" fill="#537e39"/>
        <path id="Trazado_159944" data-name="Trazado 159944" d="M513.947,215.2s15.979-18.985,23.438-23.981c12.837-31.988,43.8-15.539,58.785-18.595,0,0-18.731,26.988-54.559,21.477,0,0-14.388,8.862-31.174,30.974Z" transform="translate(108.026 36.202)" fill="#a8bc8b"/>
        <path id="Trazado_159945" data-name="Trazado 159945" d="M491,252.413s28.275-23.1,29.427-50.886c0,0-16.765-11.977-16.163-43.8,0,0,33.1,16.163,23.191,46.346,0,0-12.288,31.418-36.145,51.481Z" transform="translate(103.913 33.381)" fill="#537e39"/>
        <path id="Trazado_159946" data-name="Trazado 159946" d="M282.917,242.6a213.572,213.572,0,0,1-32.8-114.066" transform="translate(52.934 27.202)" fill="none" stroke="#a8bc8b" stroke-miterlimit="10" stroke-width="2"/>
        <path id="Trazado_159947" data-name="Trazado 159947" d="M372.4,305a215.438,215.438,0,0,1-95.207-82.328" transform="translate(58.663 47.125)" fill="none" stroke="#899d7b" stroke-miterlimit="10" stroke-width="3"/>
        <path id="Trazado_159948" data-name="Trazado 159948" d="M530.08,290.191a215.191,215.191,0,0,1-174.315.522" transform="translate(75.292 61.414)" fill="none" stroke="#456c3a" stroke-miterlimit="10" stroke-width="6"/>
        <path id="Trazado_159949" data-name="Trazado 159949" d="M591.978,224.856a215.445,215.445,0,0,1-92.345,79.162" transform="translate(105.739 47.587)" fill="none" stroke="#f1a67e" stroke-miterlimit="10" stroke-width="5"/>
        <path id="Trazado_159950" data-name="Trazado 159950" d="M610.333,128.532a213.576,213.576,0,0,1-34.485,116.709" transform="translate(121.869 27.202)" fill="none" stroke="#c38c71" stroke-miterlimit="10" stroke-width="1"/>
        <path id="Trazado_159951" data-name="Trazado 159951" d="M608.746,129.234a3.792,3.792,0,1,1-3.791-3.791,3.791,3.791,0,0,1,3.791,3.791" transform="translate(127.226 26.548)" fill="#fff"/>
        <path id="Trazado_159952" data-name="Trazado 159952" d="M608.746,129.234a3.792,3.792,0,1,1-3.791-3.791A3.791,3.791,0,0,1,608.746,129.234Z" transform="translate(127.226 26.548)" fill="none" stroke="#c38c71" stroke-miterlimit="10" stroke-width="1"/>
        <path id="Trazado_159953" data-name="Trazado 159953" d="M256.626,129.553a5.619,5.619,0,1,1-5.618-5.618,5.618,5.618,0,0,1,5.618,5.618" transform="translate(51.932 26.229)" fill="#a8bc8b"/>
        <path id="Trazado_159954" data-name="Trazado 159954" d="M584.877,226.217a7.649,7.649,0,1,1-7.649-7.649,7.648,7.648,0,0,1,7.649,7.649" transform="translate(120.542 46.256)" fill="#fff"/>
        <circle id="Elipse_4054" data-name="Elipse 4054" cx="7.649" cy="7.649" r="7.649" transform="translate(687.776 276.613) rotate(-67.5)" fill="none" stroke="#f1a67e" stroke-miterlimit="10" stroke-width="1"/>
        <path id="Trazado_159955" data-name="Trazado 159955" d="M286.307,226.9a6.424,6.424,0,1,1-6.424-6.424,6.424,6.424,0,0,1,6.424,6.424" transform="translate(57.873 46.66)" fill="#fff"/>
        <circle id="Elipse_4055" data-name="Elipse 4055" cx="6.424" cy="6.424" r="6.424" transform="matrix(0.924, -0.383, 0.383, 0.924, 329.363, 270.081)" fill="none" stroke="#99ac7f" stroke-miterlimit="10" stroke-width="1.5"/>
        <path id="Trazado_159956" data-name="Trazado 159956" d="M511.235,291.88a9.637,9.637,0,1,1-9.637-9.637,9.637,9.637,0,0,1,9.637,9.637" transform="translate(104.115 59.732)" fill="#fff"/>
        <circle id="Elipse_4056" data-name="Elipse 4056" cx="9.637" cy="9.637" r="9.637" transform="translate(593.121 346.396) rotate(-22.5)" fill="none" stroke="#456c3a" stroke-miterlimit="10" stroke-width="1.26"/>
        <path id="Trazado_159957" data-name="Trazado 159957" d="M365.057,291.564a7.828,7.828,0,1,1-7.827-7.827,7.827,7.827,0,0,1,7.827,7.827" transform="translate(73.945 60.048)" fill="#fff"/>
        <path id="Trazado_159958" data-name="Trazado 159958" d="M365.057,291.564a7.828,7.828,0,1,1-7.827-7.827A7.827,7.827,0,0,1,365.057,291.564Z" transform="translate(73.945 60.048)" fill="none" stroke="#899d7b" stroke-miterlimit="10" stroke-width="1.624"/>
        <path id="Trazado_159959" data-name="Trazado 159959" d="M398.339,349.926A285.05,285.05,0,0,1,340.131,327.5a24.253,24.253,0,0,0-31.024,7.815L205.667,484.437a24.293,24.293,0,0,0,7.673,34.854,516.3,516.3,0,0,0,262.047,69.322,24.29,24.29,0,0,0,23.9-26.5L483.12,381.347a24.254,24.254,0,0,0-23.1-22.133,285.067,285.067,0,0,1-61.681-9.288" transform="translate(42.605 68.742)" fill="#a8bc8b"/>
        <path id="Trazado_159960" data-name="Trazado 159960" d="M220.473,208.506,47.828,264.277a24.347,24.347,0,0,0-14.994,32.517,515.456,515.456,0,0,0,148.26,199.985,24.354,24.354,0,0,0,35.478-4.919L320.009,342.738a24.4,24.4,0,0,0-3.777-32,285.568,285.568,0,0,1-66.215-89.323,24.406,24.406,0,0,0-29.544-12.91" transform="translate(6.552 43.878)" fill="#a8bc8b"/>
        <path id="Trazado_159961" data-name="Trazado 159961" d="M459.076,382.384l16.169,180.764a24.352,24.352,0,0,0,28.4,21.818A515.456,515.456,0,0,0,731.405,484.451a24.348,24.348,0,0,0,3.046-35.677L611.967,314.93a24.405,24.405,0,0,0-32.063-3.389,285.556,285.556,0,0,1-101.721,44.9,24.4,24.4,0,0,0-19.106,25.946" transform="translate(97.135 64.984)" fill="#a8bc8b"/>
        <path id="Trazado_159962" data-name="Trazado 159962" d="M650.3,210.072a282.432,282.432,0,0,1-45.767,75.717,24.428,24.428,0,0,0,.5,32.294L727.525,451.942a24.322,24.322,0,0,0,35.725.206A510.348,510.348,0,0,0,871.221,273.6a24.348,24.348,0,0,0-16.739-31.616L679.107,195.586A24.388,24.388,0,0,0,650.3,210.072" transform="translate(126.701 41.221)" fill="#a8bc8b"/>
        <path id="Trazado_159963" data-name="Trazado 159963" d="M213.733,74.42,38.357,28.026a24.347,24.347,0,0,0-30.182,19.2,510.351,510.351,0,0,0,5.557,208.585A24.321,24.321,0,0,0,44.885,273.3l172.663-55.778a24.43,24.43,0,0,0,16.4-27.825,282.4,282.4,0,0,1-2.34-88.442A24.388,24.388,0,0,0,213.733,74.42" transform="translate(0 5.758)" fill="#a8bc8b"/>
        <path id="Trazado_159964" data-name="Trazado 159964" d="M399.694,344.806a285.051,285.051,0,0,1-58.208-22.427,24.253,24.253,0,0,0-31.024,7.815L207.022,479.317A24.293,24.293,0,0,0,214.7,514.17a516.3,516.3,0,0,0,262.047,69.322,24.29,24.29,0,0,0,23.9-26.5l-16.17-180.765a24.253,24.253,0,0,0-23.1-22.133,285.066,285.066,0,0,1-61.681-9.288" transform="translate(42.892 67.658)" fill="#f1f4ec"/>
        <path id="Trazado_159965" data-name="Trazado 159965" d="M399.694,344.806a285.051,285.051,0,0,1-58.208-22.427,24.253,24.253,0,0,0-31.024,7.815L207.022,479.317A24.293,24.293,0,0,0,214.7,514.17a516.3,516.3,0,0,0,262.047,69.322,24.29,24.29,0,0,0,23.9-26.5l-16.17-180.765a24.253,24.253,0,0,0-23.1-22.133A285.066,285.066,0,0,1,399.694,344.806Z" transform="translate(42.892 67.658)" fill="none" stroke="#e5ece1" stroke-miterlimit="10" stroke-width="1"/>
        <path id="Trazado_159966" data-name="Trazado 159966" d="M221.827,203.386,49.182,259.157a24.347,24.347,0,0,0-14.994,32.517,515.456,515.456,0,0,0,148.26,199.985,24.354,24.354,0,0,0,35.478-4.919L321.363,337.618a24.4,24.4,0,0,0-3.777-32A285.568,285.568,0,0,1,251.372,216.3a24.406,24.406,0,0,0-29.544-12.91" transform="translate(6.838 42.794)" fill="#f1f4ec"/>
        <path id="Trazado_159967" data-name="Trazado 159967" d="M221.827,203.386,49.182,259.157a24.347,24.347,0,0,0-14.994,32.517,515.456,515.456,0,0,0,148.26,199.985,24.354,24.354,0,0,0,35.478-4.919L321.363,337.618a24.4,24.4,0,0,0-3.777-32A285.568,285.568,0,0,1,251.372,216.3,24.406,24.406,0,0,0,221.827,203.386Z" transform="translate(6.838 42.794)" fill="none" stroke="#e5ece1" stroke-miterlimit="10" stroke-width="1"/>
        <path id="Trazado_159968" data-name="Trazado 159968" d="M460.431,377.264,476.6,558.028A24.352,24.352,0,0,0,505,579.846,515.456,515.456,0,0,0,732.76,479.331a24.347,24.347,0,0,0,3.046-35.677L613.322,309.81a24.4,24.4,0,0,0-32.063-3.389,285.557,285.557,0,0,1-101.722,44.9,24.4,24.4,0,0,0-19.106,25.946" transform="translate(97.422 63.9)" fill="#f1f4ec"/>
        <path id="Trazado_159969" data-name="Trazado 159969" d="M460.431,377.264,476.6,558.028A24.352,24.352,0,0,0,505,579.846,515.456,515.456,0,0,0,732.76,479.331a24.347,24.347,0,0,0,3.046-35.677L613.322,309.81a24.4,24.4,0,0,0-32.063-3.389,285.557,285.557,0,0,1-101.722,44.9A24.4,24.4,0,0,0,460.431,377.264Z" transform="translate(97.422 63.9)" fill="none" stroke="#e5ece1" stroke-miterlimit="10" stroke-width="1"/>
        <path id="Trazado_159970" data-name="Trazado 159970" d="M651.655,204.952a282.433,282.433,0,0,1-45.767,75.717,24.428,24.428,0,0,0,.5,32.294L728.879,446.822a24.322,24.322,0,0,0,35.725.206A510.348,510.348,0,0,0,872.575,268.475a24.348,24.348,0,0,0-16.739-31.616L680.461,190.466a24.388,24.388,0,0,0-28.805,14.486" transform="translate(126.988 40.137)" fill="#f1f4ec"/>
        <path id="Trazado_159971" data-name="Trazado 159971" d="M651.655,204.952a282.433,282.433,0,0,1-45.767,75.717,24.428,24.428,0,0,0,.5,32.294L728.879,446.822a24.322,24.322,0,0,0,35.725.206A510.348,510.348,0,0,0,872.575,268.475a24.348,24.348,0,0,0-16.739-31.616L680.461,190.466A24.388,24.388,0,0,0,651.655,204.952Z" transform="translate(126.988 40.137)" fill="none" stroke="#e5ece1" stroke-miterlimit="10" stroke-width="1"/>
        <path id="Trazado_159972" data-name="Trazado 159972" d="M652.766,106.225a282.412,282.412,0,0,1,9.768,87.933,24.431,24.431,0,0,0,20.048,25.323l178.664,31.66a24.322,24.322,0,0,0,28.472-21.58,510.339,510.339,0,0,0-23-207.387A24.346,24.346,0,0,0,834.2,7.275L666.806,77.2a24.389,24.389,0,0,0-14.039,29.026" transform="translate(137.96 1.14)" fill="#a8bc8b"/>
        <path id="Trazado_159973" data-name="Trazado 159973" d="M650.724,101.338a282.416,282.416,0,0,1,9.768,87.933,24.43,24.43,0,0,0,20.048,25.323L859.2,246.254a24.321,24.321,0,0,0,28.472-21.58,510.335,510.335,0,0,0-23-207.386,24.346,24.346,0,0,0-32.523-14.9L664.764,72.314a24.387,24.387,0,0,0-14.039,29.025" transform="translate(137.528 0.106)" fill="#f1f4ec"/>
        <path id="Trazado_159974" data-name="Trazado 159974" d="M650.724,101.338a282.416,282.416,0,0,1,9.768,87.933,24.43,24.43,0,0,0,20.048,25.323L859.2,246.254a24.321,24.321,0,0,0,28.472-21.58,510.335,510.335,0,0,0-23-207.386,24.346,24.346,0,0,0-32.523-14.9L664.764,72.314A24.387,24.387,0,0,0,650.724,101.338Z" transform="translate(137.528 0.106)" fill="none" stroke="#e5ece1" stroke-miterlimit="10" stroke-width="1"/>
        <path id="Trazado_159975" data-name="Trazado 159975" d="M215.088,69.3,39.712,22.906A24.347,24.347,0,0,0,9.53,42.109a510.351,510.351,0,0,0,5.557,208.585A24.321,24.321,0,0,0,46.24,268.18L218.9,212.4a24.43,24.43,0,0,0,16.4-27.825,282.4,282.4,0,0,1-2.34-88.442A24.388,24.388,0,0,0,215.088,69.3" transform="translate(0.287 4.675)" fill="#f1f4ec"/>
        <path id="Trazado_159976" data-name="Trazado 159976" d="M215.088,69.3,39.712,22.906A24.347,24.347,0,0,0,9.53,42.109a510.351,510.351,0,0,0,5.557,208.585A24.321,24.321,0,0,0,46.24,268.18L218.9,212.4a24.43,24.43,0,0,0,16.4-27.825,282.4,282.4,0,0,1-2.34-88.442A24.388,24.388,0,0,0,215.088,69.3Z" transform="translate(0.287 4.675)" fill="none" stroke="#e5ece1" stroke-miterlimit="10" stroke-width="1"/>
      </g>
    </g>
    <text id="Planificación_" data-name="Planificación " transform="translate(59.059 100.256)" fill="#456c3a" font-size="19" font-family="Roboto-Bold, Roboto" font-weight="700"><tspan x="0" y="0">Planificación </tspan></text>
    <text id="hidrológica" transform="translate(67.482 123.981)" fill="#456c3a" font-size="19" font-family="Roboto-Bold, Roboto" font-weight="700"><tspan x="0" y="0">hidrológica</tspan></text>
    <text id="Sector_salud" data-name="Sector salud" transform="translate(862.452 85.032)" fill="#456c3a" font-size="19" font-family="Roboto-Bold, Roboto" font-weight="700"><tspan x="0" y="0">Sector salud</tspan></text>
    <text id="Educación_e_" data-name="Educación e " transform="translate(799.976 290.65)" fill="#456c3a" font-size="19" font-family="Roboto-Bold, Roboto" font-weight="700"><tspan x="0" y="0" letter-spacing="-0.006em">E</tspan><tspan y="0">ducación e </tspan></text>
    <text id="investigación" transform="translate(794.361 314.375)" fill="#456c3a" font-size="19" font-family="Roboto-Bold, Roboto" font-weight="700"><tspan x="0" y="0">in</tspan><tspan y="0" letter-spacing="-0.007em">v</tspan><tspan y="0">estigación</tspan></text>
    <text id="Agricultura_y_" data-name="Agricultura y " transform="translate(139.152 317.914)" fill="#456c3a" font-size="19" font-family="Roboto-Bold, Roboto" font-weight="700"><tspan x="0" y="0">Agricultura y </tspan></text>
    <text id="medio_ambiente" data-name="medio ambiente" transform="translate(124.185 341.639)" fill="#456c3a" font-size="19" font-family="Roboto-Bold, Roboto" font-weight="700"><tspan x="0" y="0">medio ambiente</tspan></text>
    <text id="Planes_de_" data-name="Planes de " transform="translate(627.395 449.173)" fill="#456c3a" font-size="19" font-family="Roboto-Bold, Roboto" font-weight="700"><tspan x="0" y="0">Planes de </tspan></text>
    <text id="emergencia" transform="translate(619.032 472.898)" fill="#456c3a" font-size="19" font-family="Roboto-Bold, Roboto" font-weight="700"><tspan x="0" y="0">emergencia</tspan></text>
    <text id="Geomarketing" transform="translate(360.962 476.437)" fill="#456c3a" font-size="19" font-family="Roboto-Bold, Roboto" font-weight="700"><tspan x="0" y="0">Geomar</tspan><tspan y="0" letter-spacing="-0.011em">k</tspan><tspan y="0">eting</tspan></text>
    <g id="Grupo_78478" data-name="Grupo 78478">
      <g id="Grupo_78477" data-name="Grupo 78477" clip-path="url(#clip-path)">
        <path id="Trazado_159977" data-name="Trazado 159977" d="M122.645,170.636A31.4,31.4,0,1,1,66.387,157.1l0,0,25.271-37.515,16.195,24.04" transform="translate(12.754 25.307)" fill="#a3e0fb"/>
        <path id="Trazado_159978" data-name="Trazado 159978" d="M93.1,156.907a13.984,13.984,0,0,1,2.74-8.337v0l11.309-16.79,11.309,16.79v0A14.051,14.051,0,1,1,93.1,156.907Z" transform="translate(19.702 27.889)" fill="#4696e6"/>
        <path id="Trazado_159979" data-name="Trazado 159979" d="M83.206,188.975A20.918,20.918,0,0,1,72.589,156.6a1.735,1.735,0,0,0,.162-.264,1.784,1.784,0,0,0-3.051-1.83,24.483,24.483,0,0,0,.109,29.147,24.676,24.676,0,0,0,12.337,8.73,1.751,1.751,0,0,0,.529.081,1.784,1.784,0,0,0,.529-3.488" transform="translate(13.745 32.54)" fill="#045d8e"/>
        <path id="Trazado_159980" data-name="Trazado 159980" d="M130.241,159.8a15.709,15.709,0,0,0-3.062-9.36l-11.294-16.767a1.785,1.785,0,0,0-2.959,0l-4.759,7.065L93.453,118.9a1.783,1.783,0,0,0-2.959,0l-25.259,37.5a33.18,33.18,0,1,0,59.918,19.649,33.4,33.4,0,0,0-.287-4.364,15.8,15.8,0,0,0,5.375-11.876m-15.835-21.935,9.813,14.567c.021.03.041.061.063.09a12.267,12.267,0,1,1-19.751,0c.021-.028.04-.057.059-.086l5.053-7.5.028-.041Zm7.179,38.176a29.612,29.612,0,1,1-53.45-17.57c.022-.029.042-.059.063-.091l23.776-35.294,14.043,20.846-4.384,6.508a15.832,15.832,0,0,0,19.877,23.508c.05.7.075,1.395.075,2.092" transform="translate(12.443 24.996)" fill="#045d8e"/>
        <path id="Trazado_159981" data-name="Trazado 159981" d="M100.123,153.03a6.052,6.052,0,0,1,.523-2.479,1.784,1.784,0,1,0-3.261-1.45,9.688,9.688,0,0,0,3.471,11.979,1.784,1.784,0,1,0,1.985-2.965,6.111,6.111,0,0,1-2.719-5.085" transform="translate(20.434 31.331)" fill="#045d8e"/>
        <path id="Trazado_159982" data-name="Trazado 159982" d="M86.078,185.054a1.784,1.784,0,1,0-2,2.432,1.8,1.8,0,0,0,2-2.432" transform="translate(17.492 38.932)" fill="#045d8e"/>
        <path id="Trazado_159983" data-name="Trazado 159983" d="M104.053,160.716a1.784,1.784,0,1,0,0-2.967,1.792,1.792,0,0,0,0,2.967" transform="translate(21.855 33.321)" fill="#045d8e"/>
        <path id="Trazado_159984" data-name="Trazado 159984" d="M156.577,323.282H160.3v-3.721a8.94,8.94,0,0,0-8.941-8.941h-2.9a.825.825,0,0,0-.825.825v2.9a8.941,8.941,0,0,0,8.941,8.941" transform="translate(31.245 65.738)" fill="#b3e59f"/>
        <path id="Trazado_159985" data-name="Trazado 159985" d="M161.808,319.566h-3.721v-3.721a8.94,8.94,0,0,1,8.941-8.941h2.9a.825.825,0,0,1,.825.825v2.9a8.941,8.941,0,0,1-8.941,8.941" transform="translate(33.457 64.951)" fill="#b3e59f"/>
        <path id="Trazado_159986" data-name="Trazado 159986" d="M192.863,371.974l-11.026,2.389-1.666-7.691,11.025-2.389a3.935,3.935,0,1,1,1.667,7.691Z" transform="translate(38.13 77.075)" fill="#edbb87"/>
        <path id="Trazado_159987" data-name="Trazado 159987" d="M126.069,371.974l11.026,2.389,1.666-7.691-11.025-2.389a3.935,3.935,0,0,0-1.667,7.691Z" transform="translate(26.024 77.075)" fill="#edbb87"/>
        <path id="Trazado_159988" data-name="Trazado 159988" d="M164.719,325.732A37.969,37.969,0,1,1,126.75,363.7a37.969,37.969,0,0,1,37.969-37.969" transform="translate(26.825 68.936)" fill="#9dc6fb"/>
        <path id="Trazado_159989" data-name="Trazado 159989" d="M175.365,327.864A37.977,37.977,0,0,1,141.6,395.542a37.974,37.974,0,1,0,33.765-67.678" transform="translate(29.967 69.387)" fill="#80b4fb"/>
        <path id="Trazado_159990" data-name="Trazado 159990" d="M196.894,357.26a37.967,37.967,0,0,0-45.4-30.68c.759,3.05,1.53,6.631,2.227,10.857,1.138,6.911,1.615,12.771,4.908,13.832,3.207,1.032,5.813-3.54,10.263-2.678,3.732.725,4.255,4.4,7.585,7.139C181,359.444,189.494,360.454,196.894,357.26Z" transform="translate(32.062 68.936)" fill="#b3e59f"/>
        <path id="Trazado_159991" data-name="Trazado 159991" d="M187.415,358.439a23.447,23.447,0,0,0,5.676-1.631,38.031,38.031,0,0,0-23.618-28.94A37.947,37.947,0,0,1,187.415,358.439Z" transform="translate(35.866 69.388)" fill="#95d6a4"/>
        <path id="Trazado_159992" data-name="Trazado 159992" d="M142.516,348.378c-1.191-3.843-4.456-7.42-8.44-9.806a37.939,37.939,0,0,0,3.065,48.5c4.763-3.166,8.177-8.263,8.5-12.835.216-3.041-1.113-3.328-2.272-9.376-1.735-9.056.594-11.811-.853-16.479" transform="translate(26.825 71.653)" fill="#b3e59f"/>
        <path id="Trazado_159993" data-name="Trazado 159993" d="M147.457,391.3a37.993,37.993,0,0,0,41.123-10.355,55.714,55.714,0,0,0-8.531-9.234c-3-2.737-10.152-9.263-14.563-7.149-3.448,1.653-1.764,6.929-4.767,13.768-3.124,7.118-9.01,10.654-13.263,12.969" transform="translate(31.207 77.065)" fill="#b3e59f"/>
        <path id="Trazado_159994" data-name="Trazado 159994" d="M188.58,378.927a39.665,39.665,0,0,0-4.379-5.26,38.108,38.108,0,0,1-34.728,14.478c-.7.412-1.376.789-2.016,1.137,13.8,5.267,31.287,1.024,41.123-10.355" transform="translate(31.207 79.08)" fill="#95d6a4"/>
        <path id="Trazado_159995" data-name="Trazado 159995" d="M178.975,368.919a3.61,3.61,0,0,1,5.1,0l6.126,6.126a3.61,3.61,0,0,1-5.1,5.106l-6.126-6.126a3.61,3.61,0,0,1,0-5.106" transform="translate(37.653 77.852)" fill="#f1d0a4"/>
        <path id="Trazado_159996" data-name="Trazado 159996" d="M190.8,376.175a3.61,3.61,0,0,1-5.1,0l-6.127-6.126a3.588,3.588,0,0,1-.773-1.153,3.609,3.609,0,0,0,.177,4.91l6.126,6.126a3.609,3.609,0,0,0,5.879-3.952c-.057.067-.114.133-.177.2" transform="translate(37.653 78.071)" fill="#edbb87"/>
        <path id="Trazado_159997" data-name="Trazado 159997" d="M172.955,371.327a3.61,3.61,0,0,1,5.1,0l10.5,10.5a3.61,3.61,0,0,1-5.1,5.1l-10.5-10.5a3.61,3.61,0,0,1,0-5.1" transform="translate(36.379 78.361)" fill="#f1d0a4"/>
        <path id="Trazado_159998" data-name="Trazado 159998" d="M188.761,382.9a3.61,3.61,0,0,1-5.1,0l-10.5-10.5a3.593,3.593,0,0,1-.623-.836,3.608,3.608,0,0,0,.424,4.592l10.5,10.5a3.609,3.609,0,0,0,5.727-4.269,3.58,3.58,0,0,1-.423.513" transform="translate(36.38 78.636)" fill="#edbb87"/>
        <path id="Trazado_159999" data-name="Trazado 159999" d="M168.742,375.541a3.61,3.61,0,0,1,5.1,0l10.5,10.5a3.61,3.61,0,0,1-5.1,5.1l-10.5-10.5a3.61,3.61,0,0,1,0-5.1" transform="translate(35.488 79.253)" fill="#f1d0a4"/>
        <path id="Trazado_160000" data-name="Trazado 160000" d="M184.348,387.089a3.61,3.61,0,0,1-5.1,0l-10.5-10.5a3.611,3.611,0,0,1-.527-.675,3.609,3.609,0,0,0,.527,4.431l10.5,10.5a3.608,3.608,0,0,0,5.632-4.431,3.612,3.612,0,0,1-.527.675" transform="translate(35.488 79.556)" fill="#edbb87"/>
        <path id="Trazado_160001" data-name="Trazado 160001" d="M166.334,381.56a3.61,3.61,0,0,1,5.1,0l6.127,6.126a3.61,3.61,0,1,1-5.106,5.106l-6.126-6.127a3.61,3.61,0,0,1,0-5.1" transform="translate(34.978 80.527)" fill="#f1d0a4"/>
        <path id="Trazado_160002" data-name="Trazado 160002" d="M178.183,388.8a3.61,3.61,0,0,1-5.1,0l-6.127-6.126a3.61,3.61,0,0,1-.775-1.158,3.607,3.607,0,0,0,.158,4.93l6.126,6.126a3.609,3.609,0,0,0,5.881-3.948C178.29,388.687,178.239,388.748,178.183,388.8Z" transform="translate(34.978 80.742)" fill="#edbb87"/>
        <path id="Trazado_160003" data-name="Trazado 160003" d="M139.53,368.919a3.61,3.61,0,0,0-5.1,0l-6.127,6.126a3.61,3.61,0,0,0,5.106,5.106l6.126-6.126a3.612,3.612,0,0,0,0-5.106" transform="translate(26.929 77.852)" fill="#f1d0a4"/>
        <path id="Trazado_160004" data-name="Trazado 160004" d="M139.741,368.927a3.6,3.6,0,0,1-.522.669l-6.126,6.126a3.61,3.61,0,0,1-5.106,0c-.075-.075-.144-.154-.211-.235a3.608,3.608,0,0,0,5.627,4.437l6.127-6.126A3.608,3.608,0,0,0,139.741,368.927Z" transform="translate(26.929 78.077)" fill="#edbb87"/>
        <path id="Trazado_160005" data-name="Trazado 160005" d="M146.314,371.327a3.61,3.61,0,0,0-5.1,0l-10.5,10.5a3.61,3.61,0,0,0,5.1,5.1l10.5-10.5a3.61,3.61,0,0,0,0-5.1" transform="translate(27.438 78.361)" fill="#f1d0a4"/>
        <path id="Trazado_160006" data-name="Trazado 160006" d="M146.314,372.067l-10.5,10.5a3.6,3.6,0,0,1-5.524-.508,3.609,3.609,0,0,0,5.524,4.6l10.5-10.5a3.608,3.608,0,0,0,.419-4.6,3.733,3.733,0,0,1-.419.506" transform="translate(27.438 78.635)" fill="#edbb87"/>
        <path id="Trazado_160007" data-name="Trazado 160007" d="M150.527,375.541a3.61,3.61,0,0,0-5.1,0l-10.5,10.5a3.61,3.61,0,0,0,5.1,5.1l10.5-10.5a3.61,3.61,0,0,0,0-5.1" transform="translate(28.33 79.253)" fill="#f1d0a4"/>
        <path id="Trazado_160008" data-name="Trazado 160008" d="M150.583,375.407a3.564,3.564,0,0,1-.555.722l-10.5,10.5a3.61,3.61,0,0,1-5.1,0c-.021-.021-.038-.042-.057-.063a3.608,3.608,0,0,0,5.66,4.382l10.5-10.5a3.608,3.608,0,0,0,.057-5.043" transform="translate(28.33 79.449)" fill="#edbb87"/>
        <path id="Trazado_160009" data-name="Trazado 160009" d="M152.17,381.56a3.61,3.61,0,0,0-5.1,0l-6.127,6.126a3.61,3.61,0,1,0,5.106,5.106l6.126-6.127A3.608,3.608,0,0,0,152.17,381.56Z" transform="translate(29.604 80.527)" fill="#f1d0a4"/>
        <path id="Trazado_160010" data-name="Trazado 160010" d="M152.17,382.165l-6.126,6.126a3.583,3.583,0,0,1-5.469-.433,3.607,3.607,0,0,0,5.469,4.672l6.126-6.126a3.608,3.608,0,0,0,.365-4.672A3.707,3.707,0,0,1,152.17,382.165Z" transform="translate(29.604 80.787)" fill="#edbb87"/>
        <path id="Trazado_160011" data-name="Trazado 160011" d="M204.664,375.048a39.508,39.508,0,0,0-37.328-46.573v-7.092h2.175A10.5,10.5,0,0,0,180,310.9V308a2.374,2.374,0,0,0-2.372-2.372h-2.9a10.506,10.506,0,0,0-10.164,7.9,10.463,10.463,0,0,0-7.718-3.4h-2.9a2.375,2.375,0,0,0-2.372,2.372v2.9a10.5,10.5,0,0,0,10.488,10.488h2.175v2.588a39.4,39.4,0,0,0-37.328,46.573,5.482,5.482,0,0,0-.9,10.834l2.967.643a5.3,5.3,0,0,0-.6,7.89,5.123,5.123,0,0,0,2,1.239,5.157,5.157,0,0,0,4.515,7.563,5.152,5.152,0,0,0,7.557,4.512,5.263,5.263,0,0,0,4.889,3.509,5.142,5.142,0,0,0,3.647-1.508l3.808-3.808a39.732,39.732,0,0,0,21.985,0l3.808,3.808a5.161,5.161,0,0,0,8.536-2,5.152,5.152,0,0,0,7.557-4.512,5.118,5.118,0,0,0,3.6-1.51,5.226,5.226,0,0,0,.917-6.051,5.143,5.143,0,0,0,2-1.242,5.352,5.352,0,0,0-.6-7.891l2.967-.643a5.482,5.482,0,0,0-.9-10.833Zm-37.328-58.933a7.4,7.4,0,0,1,7.395-7.393H176.9V310.9a7.4,7.4,0,0,1-7.023,7.385l2.243-1.987a1.547,1.547,0,0,0-2.051-2.317l-2.737,2.423Zm-5.781,1.8a1.547,1.547,0,1,0-2.188,2.188l2.687,2.686a7.4,7.4,0,0,1-7.38-7.393v-2.175h2.174a7.4,7.4,0,0,1,7.393,7.38Zm-34.889,64.94a2.386,2.386,0,0,1,.955-4.676,39.6,39.6,0,0,0,1.816,5.277Zm3.9,9.37a2.08,2.08,0,0,1,0-2.916l6.126-6.126a2.063,2.063,0,0,1,2.918,2.916l-6.126,6.127A2.083,2.083,0,0,1,130.568,392.227Zm2.918,7.294a2.065,2.065,0,0,1,0-2.918l10.5-10.5a2.063,2.063,0,1,1,2.918,2.918l-10.5,10.5a2.083,2.083,0,0,1-2.916,0m8.022,5.1a2.063,2.063,0,1,1-2.918-2.918l10.5-10.5a2.063,2.063,0,1,1,2.918,2.916Zm13.419-3.208-6.126,6.126a2.063,2.063,0,0,1-2.918-2.916l6.126-6.127a2.063,2.063,0,0,1,2.918,2.918m2.188-5.106a5.156,5.156,0,0,0-2-1.242,5.152,5.152,0,0,0-4.512-7.557A5.158,5.158,0,0,0,143.038,383a5.12,5.12,0,0,0-1.238-2h0a5.158,5.158,0,0,0-7.293,0l-1.928,1.929a36.411,36.411,0,0,1,2.985-35.268,16.576,16.576,0,0,1,6.544,8.152,13.414,13.414,0,0,1,.3,5.484,36.19,36.19,0,0,0,.516,10.828,32.216,32.216,0,0,0,1.367,5.107,1.547,1.547,0,1,0,2.912-1.046,29.375,29.375,0,0,1-1.24-4.643,33.059,33.059,0,0,1-.47-10,16.2,16.2,0,0,0-.425-6.645,19.391,19.391,0,0,0-7.66-9.729,36.515,36.515,0,0,1,19.26-12.47c.889,3.752,1.621,7.785,2.234,11.721.989,6.348,1.77,11.36,5.567,12.583,2.181.7,4.048-.353,5.7-1.284,1.536-.868,2.987-1.688,4.746-1.346,2.686.521,4.443,4.8,6.9,6.815,3.608,2.966,8.882,4.144,14.162,3.708a1.547,1.547,0,1,0-.256-3.084c-4.708.389-9.171-.737-11.941-3.015-3.073-2.525-3.738-6.582-8.273-7.462-2.879-.559-5.085.688-6.858,1.69-1.448.818-2.377,1.306-3.225,1.034-1.982-.639-2.7-5.242-3.459-10.115-.622-3.987-1.368-8.089-2.266-11.889A36.431,36.431,0,0,1,199,382.926L197.072,381a5.155,5.155,0,0,0-8.532,2,5.154,5.154,0,0,0-2.589-.59c-3.481-3.156-10.6-9.294-15.68-6.859-2.672,1.281-3.08,3.933-3.553,7a28.2,28.2,0,0,1-1.963,7.539,21.809,21.809,0,0,1-6.4,8.226,5.1,5.1,0,0,0-1.239-2.006m17.349,0a5.163,5.163,0,0,0-.2,7.076,36.7,36.7,0,0,1-16.942,0,5.088,5.088,0,0,0,.67-.949,25.835,25.835,0,0,0,9.6-11.1,31.271,31.271,0,0,0,2.188-8.312c.426-2.776.682-4.134,1.831-4.684,2.842-1.362,8.066,2.687,11.123,5.347a5.13,5.13,0,0,0-1.754,3.825,5.154,5.154,0,0,0-4.511,7.558,5.156,5.156,0,0,0-2,1.242M185.7,407.544a2.067,2.067,0,0,1-2.918,0l-6.126-6.126a2.063,2.063,0,0,1,2.918-2.918l6.127,6.127a2.085,2.085,0,0,1,0,2.916m7.293-2.918a2.065,2.065,0,0,1-2.918,0l-10.5-10.5a2.062,2.062,0,0,1,2.916-2.916l10.5,10.5a2.064,2.064,0,0,1,0,2.916m5.1-5.1a2.083,2.083,0,0,1-2.916,0l-10.5-10.5a2.063,2.063,0,1,1,2.918-2.916c3.3,3.332,7.346,7.346,10.5,10.5a2.065,2.065,0,0,1,0,2.918m2.918-7.293a2.067,2.067,0,0,1-2.918,0l-6.126-6.127a2.063,2.063,0,0,1,2.918-2.916c1.2,1.2,4.85,4.862,6.126,6.126a2.084,2.084,0,0,1,0,2.918m3.9-9.371-2.771.6a39.6,39.6,0,0,0,1.816-5.277,2.386,2.386,0,0,1,.955,4.676" transform="translate(25.753 64.681)" fill="#456c3a"/>
        <path id="Trazado_160012" data-name="Trazado 160012" d="M329.905,455.921l13.535,23.443L323.9,490.642A13.534,13.534,0,1,1,310.37,467.2Z" transform="translate(64.252 96.488)" fill="#d8e1ca"/>
        <path id="Trazado_160013" data-name="Trazado 160013" d="M384.193,470.495a4.511,4.511,0,0,1-3.8,6.765l-2.537.5-.057-.287-29.038-50.3-.19-.149,1.625-2.068a4.51,4.51,0,0,1,7.757.092c45.069,78.057-11.788-20.421,26.238,45.446" transform="translate(73.77 89.477)" fill="#b1c5a5"/>
        <path id="Trazado_160014" data-name="Trazado 160014" d="M344.486,500.484a6.767,6.767,0,0,1-11.721,6.767L320.358,485.76l11.721-6.768c.108.188,12.389,21.459,12.407,21.492" transform="translate(67.799 101.371)" fill="#899d7b"/>
        <path id="Trazado_160015" data-name="Trazado 160015" d="M373.832,437.051l4.512,7.814-5.559,8.418-9.023-15.628Z" transform="translate(76.984 92.495)" fill="#e9eef0"/>
        <path id="Trazado_160016" data-name="Trazado 160016" d="M382.725,476.732l.057.286-43.936,8.617-13.534-23.443L353.5,426.286l.19.149Z" transform="translate(68.847 90.216)" fill="#a8bc8b"/>
        <path id="Trazado_160017" data-name="Trazado 160017" d="M327.831,474.891a2.256,2.256,0,1,0-3.081-.825,2.256,2.256,0,0,0,3.081.825" transform="translate(68.664 99.612)" fill="#456c3a"/>
        <path id="Trazado_160018" data-name="Trazado 160018" d="M323.392,500.988l11.36,19.677a9.023,9.023,0,1,0,15.629-9.022l-6.768-11.723,5.861-3.384a2.257,2.257,0,0,0,.826-3.081l-2.933-5.082c.349-.068,2.65-.519,43.207-8.474a6.767,6.767,0,0,0,5.485-10.14l-7.5-12.984,4.791-7.257a2.254,2.254,0,0,0,.071-2.371l-4.511-7.814a2.263,2.263,0,0,0-2.09-1.124l-8.678.521-8.323-14.416a6.712,6.712,0,0,0-5.776-3.383h-.087a6.708,6.708,0,0,0-5.7,3.12l-29.467,37.539-19.158,11.06a15.79,15.79,0,0,0,13.756,28.338M346.475,513.9a4.512,4.512,0,0,1-7.815,4.511L327.38,498.873l7.814-4.512c13.054,22.613,11.071,19.176,11.28,19.539m-5.117-17.887-2.256-3.906,3.906-2.256,2.256,3.908ZM385.7,442.8l3.118,5.4-2.78,4.21-5.374-9.308Zm-23.667-16.272a2.256,2.256,0,0,1,3.88.045l26.237,45.446a2.255,2.255,0,0,1-1.9,3.382,8.406,8.406,0,0,0-1.238.21l-27.754-48.072c.583-.749.658-.82.773-1.01m-3.774,4.836,26.076,45.165-39.354,7.719-11.966-20.726Zm-50.5,60.6a11.273,11.273,0,0,1,4.128-15.407l17.582-10.151,11.279,19.535-17.582,10.152a11.292,11.292,0,0,1-15.407-4.129" transform="translate(63.858 89.083)" fill="#456c3a"/>
        <path id="Trazado_160019" data-name="Trazado 160019" d="M323.966,475.533a2.255,2.255,0,0,0-3.081-.825l-3.907,2.255a2.257,2.257,0,0,1-3.081-.825,2.256,2.256,0,1,0-3.908,2.256,6.777,6.777,0,0,0,9.245,2.477l3.908-2.256a2.256,2.256,0,0,0,.825-3.081" transform="translate(65.54 100.4)" fill="#456c3a"/>
        <path id="Trazado_160020" data-name="Trazado 160020" d="M396.693,424.964l-12.569,6.995a2.256,2.256,0,1,0,2.194,3.943l12.568-6.995a2.256,2.256,0,1,0-2.193-3.943" transform="translate(81.048 89.876)" fill="#456c3a"/>
        <path id="Trazado_160021" data-name="Trazado 160021" d="M395.225,444.618l-8.715-2.335a2.255,2.255,0,1,0-1.168,4.357l8.716,2.335a2.255,2.255,0,1,0,1.167-4.357" transform="translate(81.197 93.586)" fill="#456c3a"/>
        <path id="Trazado_160022" data-name="Trazado 160022" d="M375.553,418.442l-2.337,8.716a2.256,2.256,0,1,0,4.358,1.168l2.336-8.716a2.255,2.255,0,0,0-4.357-1.168" transform="translate(78.969 88.203)" fill="#456c3a"/>
        <path id="Trazado_160023" data-name="Trazado 160023" d="M599.461,484.673v8.172H525.9v-8.172a4.086,4.086,0,0,1,4.087-4.087h65.383a4.086,4.086,0,0,1,4.087,4.087" transform="translate(111.299 101.708)" fill="#57555c"/>
        <path id="Trazado_160024" data-name="Trazado 160024" d="M582.833,450.18l6.951,38.971H532.7l6.952-38.971a12.26,12.26,0,0,1,12.062-10.067H570.77a12.262,12.262,0,0,1,12.063,10.067" transform="translate(112.738 93.143)" fill="#ed5151"/>
        <path id="Trazado_160025" data-name="Trazado 160025" d="M570.506,453.961A2.043,2.043,0,1,0,568.463,456a2.043,2.043,0,0,0,2.043-2.043" transform="translate(119.873 95.641)" fill="#a02b2b"/>
        <path id="Trazado_160026" data-name="Trazado 160026" d="M595.774,487.465h-2.441l-6.652-37.294a14.3,14.3,0,0,0-14.073-11.744H553.556a14.3,14.3,0,0,0-14.073,11.752l-6.652,37.287H530.39a6.136,6.136,0,0,0-6.13,6.13v8.172a2.043,2.043,0,0,0,2.043,2.044H599.86a2.044,2.044,0,0,0,2.044-2.044V493.6a6.137,6.137,0,0,0-6.13-6.13M543.506,450.9a10.209,10.209,0,0,1,10.051-8.388h19.052a10.213,10.213,0,0,1,10.052,8.382l6.522,36.57h-52.2Zm54.311,48.823h-69.47V493.6a2.045,2.045,0,0,1,2.043-2.043h65.385a2.045,2.045,0,0,1,2.043,2.043Z" transform="translate(110.951 92.786)" fill="#a02b2b"/>
        <path id="Trazado_160027" data-name="Trazado 160027" d="M574.774,476.714l-3-16.5a2.043,2.043,0,1,0-4.02.729l3,16.5a2.043,2.043,0,1,0,4.02-.731" transform="translate(120.149 97.042)" fill="#a02b2b"/>
        <path id="Trazado_160028" data-name="Trazado 160028" d="M601.211,451.918H583.639a2.043,2.043,0,0,0,0,4.087h17.572a2.043,2.043,0,0,0,0-4.087" transform="translate(123.085 95.641)" fill="#a02b2b"/>
        <path id="Trazado_160029" data-name="Trazado 160029" d="M513.13,453.961A2.043,2.043,0,0,0,515.173,456h17.572a2.043,2.043,0,1,0,0-4.086H515.173a2.043,2.043,0,0,0-2.043,2.043" transform="translate(108.596 95.641)" fill="#a02b2b"/>
        <path id="Trazado_160030" data-name="Trazado 160030" d="M588.74,423.9a2.045,2.045,0,0,0-2.89,0l-11.559,11.559a2.043,2.043,0,0,0,2.89,2.89l11.559-11.559a2.043,2.043,0,0,0,0-2.89" transform="translate(121.413 89.584)" fill="#a02b2b"/>
        <path id="Trazado_160031" data-name="Trazado 160031" d="M526.594,423.9a2.043,2.043,0,0,0,0,2.89l11.559,11.559a2.043,2.043,0,1,0,2.89-2.89L529.483,423.9a2.044,2.044,0,0,0-2.89,0" transform="translate(111.318 89.584)" fill="#a02b2b"/>
        <path id="Trazado_160032" data-name="Trazado 160032" d="M558.7,429.834V413.489a2.043,2.043,0,1,0-4.087,0v16.345a2.043,2.043,0,0,0,4.087,0" transform="translate(117.375 87.076)" fill="#a02b2b"/>
        <path id="Trazado_160033" data-name="Trazado 160033" d="M697.174,311.529a25.716,25.716,0,1,1,25.716,25.716,25.715,25.715,0,0,1-25.716-25.716m-7.347,0a32.928,32.928,0,0,0,7.23,20.638,33.291,33.291,0,0,0,5.2,5.2,33.065,33.065,0,1,0-12.425-25.833" transform="translate(145.991 58.933)" fill="#e6e6e6" fill-rule="evenodd"/>
        <path id="Trazado_160034" data-name="Trazado 160034" d="M721.607,284.53a25.716,25.716,0,1,1-25.716,25.716,25.715,25.715,0,0,1,25.716-25.716" transform="translate(147.274 60.216)" fill="#8eecf0" fill-rule="evenodd"/>
        <path id="Trazado_160035" data-name="Trazado 160035" d="M701.922,327.982a33.136,33.136,0,0,1-5.2-5.2l-5.34,5.34,5.2,5.2Z" transform="translate(146.321 68.312)" fill="gray" fill-rule="evenodd"/>
        <path id="Trazado_160036" data-name="Trazado 160036" d="M701.148,332.576l-5.2-5.2a3.685,3.685,0,0,0-5.2,0l-19.87,19.871a3.685,3.685,0,0,0,0,5.2l5.2,5.194a3.681,3.681,0,0,0,5.194,0l19.871-19.87a3.685,3.685,0,0,0,0-5.2" transform="translate(141.756 69.058)" fill="#ae5e3c" fill-rule="evenodd"/>
        <path id="Trazado_160037" data-name="Trazado 160037" d="M727.445,276.95a34.8,34.8,0,0,0-18.579,5.354,1.837,1.837,0,0,0,1.958,3.108,31.223,31.223,0,1,1-9.815,9.817,1.837,1.837,0,0,0-3.108-1.959,34.868,34.868,0,0,0,1.29,39.041l-3.141,3.141a5.52,5.52,0,0,0-6.27,1.076L669.909,356.4a5.516,5.516,0,0,0,0,7.793l5.194,5.194a5.52,5.52,0,0,0,7.793,0l19.871-19.87a5.537,5.537,0,0,0,1.076-6.273l3.141-3.139a34.894,34.894,0,1,0,20.461-63.154M700.17,346.918l-19.87,19.87a1.846,1.846,0,0,1-2.6,0l-5.2-5.194a1.839,1.839,0,0,1,0-2.6l19.87-19.871a1.84,1.84,0,0,1,2.6,0l5.2,5.2a1.849,1.849,0,0,1,0,2.6m1.3-6.494-2.6-2.6,2.645-2.644a35.006,35.006,0,0,0,2.6,2.6Z" transform="translate(141.434 58.612)" fill="#6b311d"/>
        <path id="Trazado_160038" data-name="Trazado 160038" d="M743.676,324.415a1.836,1.836,0,0,0,2.49-.74,27.535,27.535,0,1,0-11.13,11.131,1.837,1.837,0,0,0-1.751-3.23,23.865,23.865,0,1,1,9.651-9.651,1.837,1.837,0,0,0,.74,2.49" transform="translate(146.953 59.895)" fill="#6b311d"/>
        <path id="Trazado_160039" data-name="Trazado 160039" d="M698.141,288.616a1.837,1.837,0,1,0-1.236-3.2h0a1.836,1.836,0,0,0,1.236,3.2" transform="translate(147.361 60.303)" fill="#6b311d"/>
        <path id="Trazado_160040" data-name="Trazado 160040" d="M732.444,322.919a1.837,1.837,0,1,0-1.176-3.248h0a1.836,1.836,0,0,0,1.178,3.247" transform="translate(154.621 67.563)" fill="#6b311d"/>
        <path id="Trazado_160041" data-name="Trazado 160041" d="M734.352,156l-15-5.789a2.416,2.416,0,0,0-.5,1.5v.1a2.507,2.507,0,0,0,1.123,2.089l.954.637a34.316,34.316,0,0,0,12.041,5.056,38.185,38.185,0,0,1,15.778,7.442.7.7,0,0,1,.263.549v5.712a.7.7,0,0,0,.7.688h2.284c-.3-2.514,1.837-11.987,1.837-11.987Z" transform="translate(152.134 31.789)" fill="#ffbeaa"/>
        <path id="Trazado_160042" data-name="Trazado 160042" d="M760.065,173.555v-8.521a16.156,16.156,0,0,0-16.154-16.155h-2.267A2.623,2.623,0,0,0,739,151.325a2.577,2.577,0,0,0,2.446,2.7c.042,0,.084,0,.125,0h4.943a.716.716,0,0,1,.708.562.7.7,0,0,1-.543.835.721.721,0,0,1-.144.016h-5.857A32.378,32.378,0,0,1,722.85,150.1l-.224-.148a2.48,2.48,0,0,0-2.577-.13,2.451,2.451,0,0,0-.781.663,1.788,1.788,0,0,0,.682.847l1.264.845a34.306,34.306,0,0,0,12.041,5.057,45.176,45.176,0,0,1,16.042,6.662,3.632,3.632,0,0,1,1.5,2.536c.284,2.371.82,5.38,1.115,7.83h7.454a.7.7,0,0,0,.7-.7" transform="translate(152.221 31.508)" fill="#ffcdbe"/>
        <path id="Trazado_160043" data-name="Trazado 160043" d="M785.131,156l15-5.789a2.416,2.416,0,0,1,.5,1.5v.1a2.507,2.507,0,0,1-1.123,2.089l-.954.637a34.316,34.316,0,0,1-12.041,5.056,38.186,38.186,0,0,0-15.778,7.442.7.7,0,0,0-.263.549v5.712a.7.7,0,0,1-.7.688H767.49c.3-2.514-1.837-11.987-1.837-11.987Z" transform="translate(162.038 31.789)" fill="#ffbeaa"/>
        <path id="Trazado_160044" data-name="Trazado 160044" d="M760.436,173.555v-8.521a16.156,16.156,0,0,1,16.154-16.155h2.267a2.623,2.623,0,0,1,2.646,2.446,2.577,2.577,0,0,1-2.446,2.7c-.042,0-.084,0-.125,0h-4.943a.716.716,0,0,0-.708.562.7.7,0,0,0,.543.835.721.721,0,0,0,.144.016h5.857a32.387,32.387,0,0,0,17.836-5.346l.224-.148a2.485,2.485,0,0,1,3.359.533,1.8,1.8,0,0,1-.682.847l-1.264.845a34.307,34.307,0,0,1-12.041,5.057,45.239,45.239,0,0,0-16.042,6.662,3.638,3.638,0,0,0-1.5,2.536c-.282,2.371-.82,5.38-1.113,7.83h-7.464a.7.7,0,0,1-.7-.7" transform="translate(160.934 31.508)" fill="#ffcdbe"/>
        <path id="Trazado_160045" data-name="Trazado 160045" d="M796.415,99.134A18.165,18.165,0,0,0,788,94.5l-44.975,48.846L758.612,158.6a1.393,1.393,0,0,0,1.925,0l35.878-34.556A17.271,17.271,0,0,0,796.9,99.62q-.238-.247-.486-.486" transform="translate(157.249 19.999)" fill="#e54c7f"/>
        <path id="Trazado_160046" data-name="Trazado 160046" d="M789.86,94.589a18.8,18.8,0,0,0-4.413-.522,18.394,18.394,0,0,0-10.25,3.075L761.624,119.6l-27.376,13.426,10.637,10.408,7.391,2.226a13.307,13.307,0,0,0,13.037-3.1L789.56,119.2a17.269,17.269,0,0,0,.487-24.416c-.062-.065-.125-.13-.188-.193" transform="translate(155.392 19.908)" fill="#f36e90"/>
        <path id="Trazado_160047" data-name="Trazado 160047" d="M779.658,107.271a28.044,28.044,0,0,0-1.849-10.035,18.08,18.08,0,0,0-2.565,2.071l-11.172,10.6-11.206-11.14a18.556,18.556,0,0,0-25.659,0,17.272,17.272,0,0,0-.488,24.422c.16.166.322.328.488.49l9.651,9.443a30.291,30.291,0,0,0,13.111,2.965C766.372,136.086,779.658,123.185,779.658,107.271Z" transform="translate(152.779 19.813)" fill="#f58ba6"/>
        <path id="Trazado_160048" data-name="Trazado 160048" d="M764.286,161.592a1.4,1.4,0,0,1-1-.417l-37.024-37.307A18.72,18.72,0,1,1,752.744,97.4l11.564,11.833,11.53-11.262a18.721,18.721,0,0,1,26.468,26.484l-37.031,36.728a1.4,1.4,0,0,1-.989.41M739.514,94.726a15.9,15.9,0,0,0-11.252,27.158L764.286,158.2l36.019-35.733A15.909,15.909,0,0,0,777.812,99.97l-12.548,12.254a1.406,1.406,0,0,1-1.986-.023L750.749,99.375a15.838,15.838,0,0,0-11.234-4.649" transform="translate(152.542 19.452)" fill="#aa4864"/>
        <path id="Trazado_160049" data-name="Trazado 160049" d="M751.954,137.948a1.369,1.369,0,0,1-.3-.032,1.405,1.405,0,0,1-1.106-1.373V114.961l-3.894,7.788a1.406,1.406,0,0,1-1.256.777h-7.867a1.4,1.4,0,1,1,0-2.809h7l6.168-12.333a1.4,1.4,0,0,1,2.661.626v21.048l3.871-8.518a1.408,1.408,0,0,1,1.279-.824h4.94l6.165-12.333a1.4,1.4,0,0,1,2.662.626V128.57l2.519-6.929a1.4,1.4,0,0,1,1.321-.926H782.3a1.4,1.4,0,0,1,0,2.81h-5.2l-4.907,13.5a1.4,1.4,0,0,1-2.725-.477V114.961l-3.894,7.788a1.4,1.4,0,0,1-1.256.777h-4.9l-6.181,13.6a1.406,1.406,0,0,1-1.279.824" transform="translate(155.789 22.773)" fill="#aa4864"/>
        <path id="Trazado_160050" data-name="Trazado 160050" d="M761.222,176.132H748.673a1.4,1.4,0,0,1-1.4-1.4V172.48a1.4,1.4,0,1,1,2.809,0v.842h9.74v-7.959a15.47,15.47,0,0,0-15.452-15.452h-2.341a1.873,1.873,0,1,0,0,3.746h4.963a1.4,1.4,0,0,1,0,2.809h-5.857a33.071,33.071,0,0,1-18.211-5.449l-.224-.148a1.794,1.794,0,0,0-1.857-.1,1.721,1.721,0,0,0-.915,1.534v.1a1.81,1.81,0,0,0,.806,1.5l.954.636a33.557,33.557,0,0,0,11.8,4.948,38.319,38.319,0,0,1,14.038,6.073,1.4,1.4,0,1,1-1.55,2.343l-.052-.036a35.529,35.529,0,0,0-13.013-5.63,36.4,36.4,0,0,1-12.777-5.36l-.954-.631a4.606,4.606,0,0,1-2.061-3.841v-.1A4.5,4.5,0,0,1,719.5,148.3a4.563,4.563,0,0,1,4.73.222l.224.149a30.289,30.289,0,0,0,13.19,4.787,4.683,4.683,0,0,1,4.379-6.357h2.341a18.282,18.282,0,0,1,18.26,18.262v9.365A1.4,1.4,0,0,1,761.222,176.132Z" transform="translate(151.765 31.132)" fill="#aa4864"/>
        <path id="Trazado_160051" data-name="Trazado 160051" d="M772.65,176.132H760.1a1.4,1.4,0,0,1-1.4-1.4v-9.365A18.282,18.282,0,0,1,776.958,147.1H779.3a4.682,4.682,0,0,1,4.373,6.357,30.28,30.28,0,0,0,13.189-4.787l.223-.149a4.566,4.566,0,0,1,4.737-.222,4.494,4.494,0,0,1,2.388,4.006v.1a4.606,4.606,0,0,1-2.061,3.841l-.954.637a36.4,36.4,0,0,1-12.777,5.36,35.528,35.528,0,0,0-13.013,5.63,1.405,1.405,0,0,1-1.654-2.272l.052-.036a38.326,38.326,0,0,1,14.038-6.072,33.581,33.581,0,0,0,11.8-4.948l.954-.637a1.8,1.8,0,0,0,.806-1.5v-.1a1.716,1.716,0,0,0-.912-1.534,1.789,1.789,0,0,0-1.857.1l-.225.145a33.069,33.069,0,0,1-18.212,5.443h-5.857a1.4,1.4,0,0,1,0-2.81H779.3a1.873,1.873,0,0,0,0-3.745h-2.342a15.468,15.468,0,0,0-15.451,15.452v7.959h9.739v-.842a1.4,1.4,0,1,1,2.809,0v2.248a1.4,1.4,0,0,1-1.4,1.4" transform="translate(160.566 31.132)" fill="#aa4864"/>
        <path id="Trazado_160052" data-name="Trazado 160052" d="M779.114,118.31a1.4,1.4,0,1,1-1.4,1.4,1.4,1.4,0,0,1,1.4-1.4" transform="translate(164.59 25.038)" fill="#aa4864"/>
      </g>
    </g>
  </g>
</svg>
