<svg xmlns="http://www.w3.org/2000/svg" width="744.958" height="950.842" viewBox="0 0 744.958 950.842">
  <g id="Grupo_78636" data-name="Grupo 78636" transform="translate(-428 -2540)">
    <g id="Grupo_78632" data-name="Grupo 78632">
      <g id="Grupo_78574" data-name="Grupo 78574" transform="translate(428 2539.999)">
        <line id="Línea_162" data-name="Línea 162" y2="38.012" transform="translate(372.48 45.731)" fill="none" stroke="#53763e" stroke-miterlimit="10" stroke-width="3"/>
        <path id="Trazado_160438" data-name="Trazado 160438" d="M360.21,73.8l2.2-2.046,10.07,10.835,10.072-10.835,2.2,2.046L372.477,87Z" fill="#53763e"/>
        <line id="Línea_163" data-name="Línea 163" y2="38.012" transform="translate(372.48 135.909)" fill="none" stroke="#53763e" stroke-miterlimit="10" stroke-width="3"/>
        <path id="Trazado_160439" data-name="Trazado 160439" d="M360.21,163.981l2.2-2.046,10.07,10.835,10.072-10.835,2.2,2.046-12.269,13.194Z" fill="#53763e"/>
        <line id="Línea_164" data-name="Línea 164" y2="38.012" transform="translate(372.48 226.088)" fill="none" stroke="#53763e" stroke-miterlimit="10" stroke-width="3"/>
        <path id="Trazado_160440" data-name="Trazado 160440" d="M360.21,254.159l2.2-2.046,10.07,10.835,10.072-10.835,2.2,2.046-12.269,13.194Z" fill="#53763e"/>
        <line id="Línea_165" data-name="Línea 165" y2="38.012" transform="translate(372.48 316.266)" fill="none" stroke="#53763e" stroke-miterlimit="10" stroke-width="3"/>
        <path id="Trazado_160441" data-name="Trazado 160441" d="M360.21,344.337l2.2-2.046,10.07,10.835,10.072-10.835,2.2,2.046-12.269,13.194Z" fill="#53763e"/>
        <line id="Línea_166" data-name="Línea 166" y2="38.012" transform="translate(372.48 406.444)" fill="none" stroke="#53763e" stroke-miterlimit="10" stroke-width="3"/>
        <path id="Trazado_160442" data-name="Trazado 160442" d="M360.21,434.516l2.2-2.046,10.07,10.835,10.072-10.835,2.2,2.046L372.477,447.71Z" fill="#53763e"/>
        <line id="Línea_167" data-name="Línea 167" y2="38.012" transform="translate(372.48 496.622)" fill="none" stroke="#53763e" stroke-miterlimit="10" stroke-width="3"/>
        <path id="Trazado_160443" data-name="Trazado 160443" d="M360.21,524.694l2.2-2.046,10.07,10.835,10.072-10.835,2.2,2.046-12.269,13.194Z" fill="#53763e"/>
        <line id="Línea_168" data-name="Línea 168" y2="38.012" transform="translate(372.48 586.801)" fill="none" stroke="#53763e" stroke-miterlimit="10" stroke-width="3"/>
        <path id="Trazado_160444" data-name="Trazado 160444" d="M360.21,614.872l2.2-2.046,10.07,10.835,10.072-10.835,2.2,2.046-12.269,13.194Z" fill="#53763e"/>
        <line id="Línea_169" data-name="Línea 169" y2="38.012" transform="translate(372.48 676.978)" fill="none" stroke="#53763e" stroke-miterlimit="10" stroke-width="3"/>
        <path id="Trazado_160445" data-name="Trazado 160445" d="M360.21,705.05l2.2-2.046,10.07,10.835L382.549,703l2.2,2.046-12.269,13.194Z" fill="#53763e"/>
        <line id="Línea_170" data-name="Línea 170" y2="38.012" transform="translate(372.48 767.157)" fill="none" stroke="#53763e" stroke-miterlimit="10" stroke-width="3"/>
        <path id="Trazado_160446" data-name="Trazado 160446" d="M360.21,795.228l2.2-2.046,10.07,10.835,10.072-10.835,2.2,2.046-12.269,13.194Z" fill="#53763e"/>
        <line id="Línea_171" data-name="Línea 171" y2="38.012" transform="translate(372.48 857.335)" fill="none" stroke="#53763e" stroke-miterlimit="10" stroke-width="3"/>
        <path id="Trazado_160447" data-name="Trazado 160447" d="M360.21,885.407l2.2-2.046,10.07,10.835,10.072-10.835,2.2,2.046L372.477,898.6Z" fill="#53763e"/>
        <rect id="Rectángulo_5747" data-name="Rectángulo 5747" width="744.958" height="49.721" transform="translate(0 0.001)" fill="#537e39"/>
        <rect id="Rectángulo_5748" data-name="Rectángulo 5748" width="744.958" height="49.721" transform="translate(0 90.112)" fill="#5f8747"/>
        <rect id="Rectángulo_5749" data-name="Rectángulo 5749" width="744.958" height="49.721" transform="translate(0 180.225)" fill="#6c9155"/>
        <rect id="Rectángulo_5750" data-name="Rectángulo 5750" width="744.958" height="49.721" transform="translate(0 270.337)" fill="#789a63"/>
        <rect id="Rectángulo_5751" data-name="Rectángulo 5751" width="744.958" height="49.721" transform="translate(0 360.449)" fill="#85a371"/>
        <rect id="Rectángulo_5752" data-name="Rectángulo 5752" width="744.958" height="49.721" transform="translate(0 450.561)" fill="#91ac7f"/>
        <rect id="Rectángulo_5753" data-name="Rectángulo 5753" width="744.958" height="49.72" transform="translate(0 540.674)" fill="#9eb68e"/>
        <rect id="Rectángulo_5754" data-name="Rectángulo 5754" width="744.958" height="49.721" transform="translate(0 630.785)" fill="#aabf9c"/>
        <rect id="Rectángulo_5755" data-name="Rectángulo 5755" width="744.958" height="49.721" transform="translate(0 720.898)" fill="#b7c8aa"/>
        <rect id="Rectángulo_5756" data-name="Rectángulo 5756" width="744.958" height="49.721" transform="translate(0 811.009)" fill="#c3d1b8"/>
        <rect id="Rectángulo_5757" data-name="Rectángulo 5757" width="744.958" height="49.721" transform="translate(0 901.122)" fill="#d0dbc6"/>
      </g>
      <text id="What_do_you_mean_by" data-name="What do you mean by" transform="translate(453 2552)" fill="#fff" font-size="19" font-family="Roboto-Black, Roboto" font-weight="800"><tspan x="0" y="20">1. Registro Ventanilla Integral de Trámites en Línea – VITAL.</tspan></text>
      <text id="What_do_you_mean_by-2" data-name="What do you mean by" transform="translate(453 2640)" fill="#fff" font-size="19" font-family="Roboto-Black, Roboto" font-weight="800"><tspan x="0" y="20">2. Solicitar pronunciamiento sobre la necesidad de DAA.</tspan></text>
      <text id="What_do_you_mean_by-3" data-name="What do you mean by" transform="translate(453 2732)" fill="#fff" font-size="19" font-family="Roboto-Black, Roboto" font-weight="800"><tspan x="0" y="20">3. Realizar el Estudio Ambiental requerido.</tspan></text>
      <text id="What_do_you_mean_by-4" data-name="What do you mean by" transform="translate(453 2822)" fill="#fff" font-size="19" font-family="Roboto-Black, Roboto" font-weight="800"><tspan x="0" y="20">4. Solicitar liquidación del servicio de evaluación del trámite a realizar.</tspan></text>
      <text id="What_do_you_mean_by-5" data-name="What do you mean by" transform="translate(453 2912)" fill="#fff" font-size="19" font-family="Roboto-Black, Roboto" font-weight="800"><tspan x="0" y="20">5. Diligenciar los formularios requeridos.</tspan></text>
      <text id="What_do_you_mean_by-6" data-name="What do you mean by" transform="translate(453 3004)" fill="#fff" font-size="19" font-family="Roboto-Black, Roboto" font-weight="800"><tspan x="0" y="20">6. Ir a la reunión de la verificación preliminar de la documentación.</tspan></text>
      <text id="What_do_you_mean_by-7" data-name="What do you mean by" transform="translate(453 3181)" fill="#fff" font-size="19" font-family="Roboto-Black, Roboto" font-weight="800"><tspan x="0" y="20">8. Inicio de viabilidad ambiental del proyecto.</tspan></text>
      <text id="What_do_you_mean_by-8" data-name="What do you mean by" transform="translate(453 3271)" fill="#69785f" font-size="19" font-family="Roboto-Black, Roboto" font-weight="800"><tspan x="0" y="20">9. Reunión en caso de que se requiera para información adicional.</tspan></text>
      <text id="What_do_you_mean_by-9" data-name="What do you mean by" transform="translate(453 3361)" fill="#69785f" font-size="19" font-family="Roboto-Black, Roboto" font-weight="800"><tspan x="0" y="20">10. Ajustes pertinentes en caso que se requiera.</tspan></text>
      <text id="What_do_you_mean_by-10" data-name="What do you mean by" transform="translate(453 3453)" fill="#69785f" font-size="19" font-family="Roboto-Black, Roboto" font-weight="800"><tspan x="0" y="20">11. Notificar el acto administrativo sobre la decisión de la autoridad.</tspan></text>
      <text id="What_do_you_mean_by-11" data-name="What do you mean by" transform="translate(453 3083)" fill="#fff" font-size="19" font-family="Roboto-Black, Roboto" font-weight="800"><tspan x="0" y="20">7. Notificar el Auto del inicio del trámite de evaluación de la solicitud de </tspan><tspan x="0" y="39">licencia ambiental.</tspan></text>
    </g>
  </g>
</svg>
