<svg xmlns="http://www.w3.org/2000/svg" width="1240.077" height="149.75" viewBox="0 0 1240.077 149.75">
  <g id="Grupo_78633" data-name="Grupo 78633" transform="translate(-179.923 -6170)">
    <path id="Trazado_160081" data-name="Trazado 160081" d="M0,188.467v56.065c0,4.642,4.247,8.407,9.489,8.407h171.1c5.242,0,9.489-3.765,9.489-8.407V188.467Z" transform="translate(179.923 6066.811)" fill="#7e3f09"/>
    <path id="Trazado_160082" data-name="Trazado 160082" d="M191.786,65.476V9.276c0-5.12-3.812-9.275-8.518-9.275H26.51c-4.7,0-8.518,4.155-8.518,9.274V75.649h0v56.2c0,5.122,3.812,9.275,8.518,9.275H183.269c4.7,0,8.518-4.153,8.518-9.275V65.476Z" transform="translate(170.072 6170)" fill="#ededed"/>
    <path id="Trazado_160081-2" data-name="Trazado 160081" d="M0,188.467v56.065c0,4.642,4.247,8.407,9.489,8.407h171.1c5.242,0,9.489-3.765,9.489-8.407V188.467Z" transform="translate(390.923 6066.811)" fill="#0a0a0a"/>
    <path id="Trazado_160082-2" data-name="Trazado 160082" d="M191.786,65.476V9.276c0-5.12-3.812-9.275-8.518-9.275H26.51c-4.7,0-8.518,4.155-8.518,9.274V75.649h0v56.2c0,5.122,3.812,9.275,8.518,9.275H183.269c4.7,0,8.518-4.153,8.518-9.275V65.476Z" transform="translate(381.072 6170)" fill="#ededed"/>
    <path id="Trazado_160081-3" data-name="Trazado 160081" d="M0,188.467v56.065c0,4.642,4.247,8.407,9.489,8.407h171.1c5.242,0,9.489-3.765,9.489-8.407V188.467Z" transform="translate(600 6066.811)" fill="#0468eb"/>
    <path id="Trazado_160082-3" data-name="Trazado 160082" d="M191.786,65.476V9.276c0-5.12-3.812-9.275-8.518-9.275H26.51c-4.7,0-8.518,4.155-8.518,9.274V75.649h0v56.2c0,5.122,3.812,9.275,8.518,9.275H183.269c4.7,0,8.518-4.153,8.518-9.275V65.476Z" transform="translate(590.149 6170)" fill="#ededed"/>
    <path id="Trazado_160081-4" data-name="Trazado 160081" d="M0,188.467v56.065c0,4.642,4.247,8.407,9.489,8.407h171.1c5.242,0,9.489-3.765,9.489-8.407V188.467Z" transform="translate(810 6066.811)" fill="#b3e579"/>
    <path id="Trazado_160082-4" data-name="Trazado 160082" d="M191.786,65.476V9.276c0-5.12-3.812-9.275-8.518-9.275H26.51c-4.7,0-8.518,4.155-8.518,9.274V75.649h0v56.2c0,5.122,3.812,9.275,8.518,9.275H183.269c4.7,0,8.518-4.153,8.518-9.275V65.476Z" transform="translate(800.149 6170)" fill="#ededed"/>
    <path id="Trazado_160081-5" data-name="Trazado 160081" d="M0,188.467v56.065c0,4.642,4.247,8.407,9.489,8.407h171.1c5.242,0,9.489-3.765,9.489-8.407V188.467Z" transform="translate(1019.923 6066.811)" fill="#f6ef0e"/>
    <path id="Trazado_160082-5" data-name="Trazado 160082" d="M191.786,65.476V9.276c0-5.12-3.812-9.275-8.518-9.275H26.51c-4.7,0-8.518,4.155-8.518,9.274V75.649h0v56.2c0,5.122,3.812,9.275,8.518,9.275H183.269c4.7,0,8.518-4.153,8.518-9.275V65.476Z" transform="translate(1010.072 6170)" fill="#ededed"/>
    <path id="Trazado_160081-6" data-name="Trazado 160081" d="M0,188.467v56.065c0,4.642,4.247,8.407,9.489,8.407h171.1c5.242,0,9.489-3.765,9.489-8.407V188.467Z" transform="translate(1229.923 6066.811)" fill="#f63e0e"/>
    <path id="Trazado_160082-6" data-name="Trazado 160082" d="M191.786,65.476V9.276c0-5.12-3.812-9.275-8.518-9.275H26.51c-4.7,0-8.518,4.155-8.518,9.274V75.649h0v56.2c0,5.122,3.812,9.275,8.518,9.275H183.269c4.7,0,8.518-4.153,8.518-9.275V65.476Z" transform="translate(1220.072 6170)" fill="#ededed"/>
    <path id="Rectángulo_5719" data-name="Rectángulo 5719" d="M10,0H164a10,10,0,0,1,10,10V43a0,0,0,0,1,0,0H0a0,0,0,0,1,0,0V10A10,10,0,0,1,10,0Z" transform="translate(188 6170)" fill="#7e3f09"/>
    <path id="Rectángulo_5720" data-name="Rectángulo 5720" d="M10,0H164a10,10,0,0,1,10,10V43a0,0,0,0,1,0,0H0a0,0,0,0,1,0,0V10A10,10,0,0,1,10,0Z" transform="translate(399 6170)" fill="#010101"/>
    <path id="Rectángulo_5721" data-name="Rectángulo 5721" d="M10,0H164a10,10,0,0,1,10,10V43a0,0,0,0,1,0,0H0a0,0,0,0,1,0,0V10A10,10,0,0,1,10,0Z" transform="translate(608 6170)" fill="#0468eb"/>
    <path id="Rectángulo_5722" data-name="Rectángulo 5722" d="M10,0H164a10,10,0,0,1,10,10V43a0,0,0,0,1,0,0H0a0,0,0,0,1,0,0V10A10,10,0,0,1,10,0Z" transform="translate(818 6170)" fill="#b3e579"/>
    <path id="Rectángulo_5723" data-name="Rectángulo 5723" d="M10,0H164a10,10,0,0,1,10,10V43a0,0,0,0,1,0,0H0a0,0,0,0,1,0,0V10A10,10,0,0,1,10,0Z" transform="translate(1028 6170)" fill="#f6ef0e"/>
    <path id="Rectángulo_5724" data-name="Rectángulo 5724" d="M10,0H164a10,10,0,0,1,10,10V43a0,0,0,0,1,0,0H0a0,0,0,0,1,0,0V10A10,10,0,0,1,10,0Z" transform="translate(1238 6170)" fill="#f63e0e"/>
    <text id="What_do_you_mean_by" data-name="What do you mean by" transform="translate(211 6179)" fill="#fff" font-size="19" font-family="Roboto-Black, Roboto" font-weight="800"><tspan x="23.079" y="20">MARRÓN</tspan></text>
    <text id="What_do_you_mean_by-2" data-name="What do you mean by" transform="translate(421 6179)" fill="#fff" font-size="19" font-family="Roboto-Black, Roboto" font-weight="800"><tspan x="32.282" y="20">NEGRO</tspan></text>
    <text id="What_do_you_mean_by-3" data-name="What do you mean by" transform="translate(629 6179)" fill="#fff" font-size="19" font-family="Roboto-Black, Roboto" font-weight="800"><tspan x="39.773" y="20">AZUL</tspan></text>
    <text id="What_do_you_mean_by-4" data-name="What do you mean by" transform="translate(842 6179)" fill="#12263f" font-size="19" font-family="Roboto-Black, Roboto" font-weight="800"><tspan x="34.253" y="20">VERDE</tspan></text>
    <text id="What_do_you_mean_by-5" data-name="What do you mean by" transform="translate(1049 6179)" fill="#12263f" font-size="19" font-family="Roboto-Black, Roboto" font-weight="800"><tspan x="16.608" y="20">AMARILLO</tspan></text>
    <text id="What_do_you_mean_by-6" data-name="What do you mean by" transform="translate(1259 6179)" fill="#fff" font-size="19" font-family="Roboto-Black, Roboto" font-weight="800"><tspan x="38.845" y="20">ROJO</tspan></text>
    <text id="Formas_del_terreno" data-name="Formas del terreno" transform="translate(207 6222)" fill="#12263f" font-size="16" font-family="Roboto-Regular, Roboto"><tspan x="0" y="17">Formas del terreno</tspan></text>
    <text id="Rocas_y_escarpados._Construcciones_hechas_por_el_hombre" data-name="Rocas y escarpados. Construcciones hechas por el hombre" transform="translate(412 6215)" fill="#12263f" font-size="16" font-family="Roboto-Regular, Roboto"><tspan x="0" y="17">Rocas y escarpados. </tspan><tspan x="0" y="41">Construcciones </tspan><tspan x="0" y="65">hechas por el </tspan><tspan x="0" y="89">hombre</tspan></text>
    <text id="Agua_y_tierras_pantanosas" data-name="Agua y tierras pantanosas" transform="translate(620 6229)" fill="#12263f" font-size="16" font-family="Roboto-Regular, Roboto"><tspan x="0" y="17">Agua y tierras </tspan><tspan x="0" y="41">pantanosas</tspan></text>
    <text id="Vegetación" transform="translate(833 6221)" fill="#12263f" font-size="16" font-family="Roboto-Regular, Roboto"><tspan x="0" y="17">Vegetación</tspan></text>
    <text id="Zonas_sin_vegetación" data-name="Zonas sin vegetación" transform="translate(1040 6221)" fill="#12263f" font-size="16" font-family="Roboto-Regular, Roboto"><tspan x="0" y="17">Zonas sin </tspan><tspan x="0" y="41">vegetación</tspan></text>
    <text id="Carretera_y_detalles" data-name="Carretera y detalles" transform="translate(1250 6221)" fill="#12263f" font-size="16" font-family="Roboto-Regular, Roboto"><tspan x="0" y="17">Carretera y detalles</tspan></text>
  </g>
</svg>
