<svg xmlns="http://www.w3.org/2000/svg" xmlns:xlink="http://www.w3.org/1999/xlink" width="969.851" height="530.386" viewBox="0 0 969.851 530.386">
  <defs>
    <clipPath id="clip-path">
      <rect id="Rectángulo_5710" data-name="Rectángulo 5710" width="969.851" height="530.386" fill="none"/>
    </clipPath>
  </defs>
  <g id="Grupo_78634" data-name="Grupo 78634" transform="translate(-315.075 -5496.459)">
    <path id="Trazado_160068" data-name="Trazado 160068" d="M174.63.5H5.168V66.091H113.74V46.167H174.63Z" transform="translate(316.398 5496.587)" fill="#6a6865"/>
    <g id="Grupo_78529" data-name="Grupo 78529" transform="translate(315.075 5496.459)">
      <g id="Grupo_78528" data-name="Grupo 78528" clip-path="url(#clip-path)">
        <path id="Trazado_160069" data-name="Trazado 160069" d="M174.63.5H5.168V66.091H113.74V46.167H174.63Z" transform="translate(1.324 0.128)" fill="none" stroke="#000" stroke-miterlimit="10" stroke-width="1"/>
        <line id="Línea_149" data-name="Línea 149" x2="175.953" transform="translate(0 101.812)" fill="none" stroke="#000" stroke-miterlimit="10" stroke-width="2"/>
        <line id="Línea_150" data-name="Línea 150" x2="175.953" transform="translate(0 165.388)" fill="none" stroke="#000" stroke-miterlimit="10" stroke-width="2"/>
        <path id="Trazado_160070" data-name="Trazado 160070" d="M22.046,81.8a3.657,3.657,0,1,1-3.658-3.657A3.657,3.657,0,0,1,22.046,81.8" transform="translate(3.773 20.012)"/>
        <path id="Trazado_160071" data-name="Trazado 160071" d="M55.729,81.8a3.656,3.656,0,1,1-3.657-3.657A3.656,3.656,0,0,1,55.729,81.8" transform="translate(12.399 20.012)"/>
        <path id="Trazado_160072" data-name="Trazado 160072" d="M90.748,81.8a3.657,3.657,0,1,1-3.657-3.657A3.656,3.656,0,0,1,90.748,81.8" transform="translate(21.368 20.012)"/>
        <path id="Trazado_160073" data-name="Trazado 160073" d="M125.768,81.8a3.657,3.657,0,1,1-3.657-3.657,3.656,3.656,0,0,1,3.657,3.657" transform="translate(30.336 20.012)"/>
        <line id="Línea_151" data-name="Línea 151" y1="8.209" x2="6.268" transform="translate(17.61 165.388)" fill="none" stroke="#000" stroke-miterlimit="10" stroke-width="2"/>
        <line id="Línea_152" data-name="Línea 152" y1="8.209" x2="6.268" transform="translate(60.89 165.388)" fill="none" stroke="#000" stroke-miterlimit="10" stroke-width="2"/>
        <line id="Línea_153" data-name="Línea 153" y1="8.209" x2="6.268" transform="translate(104.169 165.388)" fill="none" stroke="#000" stroke-miterlimit="10" stroke-width="2"/>
        <line id="Línea_154" data-name="Línea 154" y1="8.209" x2="6.268" transform="translate(147.448 165.388)" fill="none" stroke="#000" stroke-miterlimit="10" stroke-width="2"/>
        <path id="Trazado_160074" data-name="Trazado 160074" d="M57.386,189.214a8.357,8.357,0,1,0,8.357-8.357A8.357,8.357,0,0,0,57.386,189.214Z" transform="translate(14.696 46.317)" fill="none" stroke="#51e070" stroke-miterlimit="10" stroke-width="3"/>
        <path id="Trazado_160075" data-name="Trazado 160075" d="M499.485,398.917a8.357,8.357,0,1,0,8.357-8.357A8.357,8.357,0,0,0,499.485,398.917Z" transform="translate(127.917 100.021)" fill="none" stroke="#000" stroke-miterlimit="10" stroke-width="3"/>
        <line id="Línea_155" data-name="Línea 155" x2="18.133" y2="18.804" transform="translate(77.455 291.085)" fill="none" stroke="#51e070" stroke-linecap="round" stroke-miterlimit="10" stroke-width="3"/>
        <line id="Línea_156" data-name="Línea 156" x1="18.133" y2="18.804" transform="translate(77.455 291.085)" fill="none" stroke="#51e070" stroke-linecap="round" stroke-miterlimit="10" stroke-width="3"/>
        <line id="Línea_157" data-name="Línea 157" x2="18.133" y2="18.804" transform="translate(568.005 486.245)" fill="none" stroke="#000" stroke-linecap="round" stroke-miterlimit="10" stroke-width="3"/>
        <line id="Línea_158" data-name="Línea 158" x1="18.133" y2="18.804" transform="translate(568.004 486.245)" fill="none" stroke="#000" stroke-linecap="round" stroke-miterlimit="10" stroke-width="3"/>
        <rect id="Rectángulo_5686" data-name="Rectángulo 5686" width="148.344" height="5.522" transform="translate(6.417 395.217)"/>
        <rect id="Rectángulo_5687" data-name="Rectángulo 5687" width="5.671" height="12.089" transform="translate(149.09 399.992)"/>
        <rect id="Rectángulo_5688" data-name="Rectángulo 5688" width="5.671" height="12.089" transform="translate(132.226 399.992)"/>
        <rect id="Rectángulo_5689" data-name="Rectángulo 5689" width="5.671" height="12.089" transform="translate(112.849 399.992)"/>
        <rect id="Rectángulo_5690" data-name="Rectángulo 5690" width="5.671" height="12.089" transform="translate(93.15 399.992)"/>
        <rect id="Rectángulo_5691" data-name="Rectángulo 5691" width="5.671" height="12.089" transform="translate(79.122 399.992)"/>
        <rect id="Rectángulo_5692" data-name="Rectángulo 5692" width="5.671" height="12.089" transform="translate(56.438 399.992)"/>
        <rect id="Rectángulo_5693" data-name="Rectángulo 5693" width="5.671" height="12.089" transform="translate(42.558 399.992)"/>
        <rect id="Rectángulo_5694" data-name="Rectángulo 5694" width="5.671" height="12.089" transform="translate(22.858 399.992)"/>
        <rect id="Rectángulo_5695" data-name="Rectángulo 5695" width="5.671" height="12.089" transform="translate(6.417 399.992)"/>
        <line id="Línea_159" data-name="Línea 159" x2="5.024" transform="translate(6.417 386.113)" fill="none" stroke="#a67c52" stroke-miterlimit="10" stroke-width="1"/>
        <line id="Línea_160" data-name="Línea 160" x2="122.338" transform="translate(22.08 386.113)" fill="none" stroke="#a67c52" stroke-miterlimit="10" stroke-width="1" stroke-dasharray="8.469 8.469"/>
        <line id="Línea_161" data-name="Línea 161" x2="5.024" transform="translate(149.737 386.113)" fill="none" stroke="#a67c52" stroke-miterlimit="10" stroke-width="1"/>
        <rect id="Rectángulo_5696" data-name="Rectángulo 5696" width="171.923" height="5.372" transform="translate(3.359 482.149)" fill="#ba8d6e"/>
        <rect id="Rectángulo_5697" data-name="Rectángulo 5697" width="5.671" height="12.462" transform="translate(140.658 486.477)" fill="#ba8d6e"/>
        <rect id="Rectángulo_5698" data-name="Rectángulo 5698" width="5.671" height="12.462" transform="translate(126.779 486.477)" fill="#ba8d6e"/>
        <rect id="Rectángulo_5699" data-name="Rectángulo 5699" width="5.671" height="12.462" transform="translate(112.825 486.477)" fill="#ba8d6e"/>
        <rect id="Rectángulo_5700" data-name="Rectángulo 5700" width="5.671" height="12.462" transform="translate(101.706 486.477)" fill="#ba8d6e"/>
        <rect id="Rectángulo_5701" data-name="Rectángulo 5701" width="5.671" height="12.462" transform="translate(87.455 486.477)" fill="#ba8d6e"/>
        <rect id="Rectángulo_5702" data-name="Rectángulo 5702" width="5.671" height="12.462" transform="translate(73.351 486.477)" fill="#ba8d6e"/>
        <rect id="Rectángulo_5703" data-name="Rectángulo 5703" width="5.671" height="12.462" transform="translate(59.471 486.477)" fill="#ba8d6e"/>
        <rect id="Rectángulo_5704" data-name="Rectángulo 5704" width="5.671" height="12.462" transform="translate(48.204 486.477)" fill="#ba8d6e"/>
        <rect id="Rectángulo_5705" data-name="Rectángulo 5705" width="5.671" height="12.462" transform="translate(34.101 486.477)" fill="#ba8d6e"/>
        <rect id="Rectángulo_5706" data-name="Rectángulo 5706" width="5.671" height="12.462" transform="translate(20.072 486.477)" fill="#ba8d6e"/>
        <rect id="Rectángulo_5707" data-name="Rectángulo 5707" width="5.671" height="12.462" transform="translate(6.044 486.477)" fill="#ba8d6e"/>
        <rect id="Rectángulo_5708" data-name="Rectángulo 5708" width="5.671" height="12.462" transform="translate(154.686 486.477)" fill="#ba8d6e"/>
        <rect id="Rectángulo_5709" data-name="Rectángulo 5709" width="5.671" height="12.462" transform="translate(169.611 486.477)" fill="#ba8d6e"/>
      </g>
    </g>
    <path id="Trazado_160512" data-name="Trazado 160512" d="M12.771-8.011H5.459V-3.06h8.582V0H1.65V-18.484H14.016V-15.4H5.459v4.405h7.313ZM15.307-6.97a8.278,8.278,0,0,1,1.441-5.116,4.675,4.675,0,0,1,3.942-1.9A4.207,4.207,0,0,1,24-12.492V-19.5h3.682V0H24.371l-.178-1.46A4.318,4.318,0,0,1,20.664.254a4.663,4.663,0,0,1-3.891-1.911A8.545,8.545,0,0,1,15.307-6.97Zm3.669.273a5.423,5.423,0,0,0,.673,2.963A2.192,2.192,0,0,0,21.6-2.7,2.455,2.455,0,0,0,24-4.141V-9.57a2.42,2.42,0,0,0-2.374-1.437Q18.976-11.007,18.976-6.7ZM34.4,0H30.719V-13.736H34.4ZM30.5-17.291a1.807,1.807,0,0,1,.552-1.358,2.075,2.075,0,0,1,1.5-.533,2.079,2.079,0,0,1,1.5.533,1.8,1.8,0,0,1,.559,1.358,1.8,1.8,0,0,1-.565,1.371,2.084,2.084,0,0,1-1.492.533,2.084,2.084,0,0,1-1.492-.533A1.8,1.8,0,0,1,30.5-17.291ZM38.311,0V-11.045H36.267v-2.691h2.044v-.635A5.151,5.151,0,0,1,39.9-18.364a6.41,6.41,0,0,1,4.424-1.4,14.675,14.675,0,0,1,4.164.749l-.533,3.034a16.247,16.247,0,0,0-1.93-.476,9.481,9.481,0,0,0-1.473-.108q-2.564,0-2.564,2.272v.559h2.7v2.691h-2.7V0Zm11.9,0H46.525V-13.736h3.682Zm8.747-2.7a2.406,2.406,0,0,0,1.65-.559,1.957,1.957,0,0,0,.66-1.485H64.7a4.706,4.706,0,0,1-.762,2.558,5.026,5.026,0,0,1-2.05,1.8,6.417,6.417,0,0,1-2.875.641A5.963,5.963,0,0,1,54.37-1.619a7.41,7.41,0,0,1-1.7-5.173v-.241A7.325,7.325,0,0,1,54.358-12.1a5.894,5.894,0,0,1,4.634-1.892,5.778,5.778,0,0,1,4.132,1.466A5.192,5.192,0,0,1,64.7-8.62h-3.44a2.521,2.521,0,0,0-.66-1.742,2.2,2.2,0,0,0-1.676-.67,2.21,2.21,0,0,0-1.936.934,5.416,5.416,0,0,0-.654,3.032v.381a5.485,5.485,0,0,0,.647,3.052A2.237,2.237,0,0,0,58.953-2.7ZM70.671,0H66.99V-13.736h3.682Zm-3.9-17.291a1.807,1.807,0,0,1,.552-1.358,2.075,2.075,0,0,1,1.5-.533,2.079,2.079,0,0,1,1.5.533,1.8,1.8,0,0,1,.559,1.358,1.8,1.8,0,0,1-.565,1.371,2.084,2.084,0,0,1-1.492.533,2.084,2.084,0,0,1-1.492-.533A1.8,1.8,0,0,1,66.774-17.291ZM73.121-7a8.146,8.146,0,0,1,.787-3.644,5.762,5.762,0,0,1,2.266-2.476,6.611,6.611,0,0,1,3.434-.876,6.255,6.255,0,0,1,4.539,1.7,6.827,6.827,0,0,1,1.961,4.621l.025.939a7.18,7.18,0,0,1-1.765,5.072A6.134,6.134,0,0,1,79.634.254a6.164,6.164,0,0,1-4.742-1.9,7.306,7.306,0,0,1-1.771-5.18Zm3.669.26a5.135,5.135,0,0,0,.736,2.994A2.429,2.429,0,0,0,79.634-2.7a2.435,2.435,0,0,0,2.082-1.024A5.618,5.618,0,0,0,82.465-7a5.083,5.083,0,0,0-.749-2.975,2.435,2.435,0,0,0-2.107-1.055,2.4,2.4,0,0,0-2.082,1.049A5.713,5.713,0,0,0,76.79-6.735Z" transform="translate(529.63 5528.504)"/>
    <path id="Trazado_160511" data-name="Trazado 160511" d="M15.564-15.4H9.9V0H6.094V-15.4H.508v-3.085H15.564ZM22.49.254A6.743,6.743,0,0,1,17.571-1.6a6.588,6.588,0,0,1-1.9-4.938v-.355a8.3,8.3,0,0,1,.8-3.7,5.87,5.87,0,0,1,2.266-2.514,6.36,6.36,0,0,1,3.345-.882,5.7,5.7,0,0,1,4.437,1.777,7.222,7.222,0,0,1,1.619,5.04v1.5H19.393a3.408,3.408,0,0,0,1.073,2.158,3.243,3.243,0,0,0,2.266.813A3.96,3.96,0,0,0,26.045-4.24l1.8,2.019A5.508,5.508,0,0,1,25.613-.4,7.331,7.331,0,0,1,22.49.254Zm-.419-11.286a2.293,2.293,0,0,0-1.771.74,3.83,3.83,0,0,0-.87,2.117h5.1v-.293a2.731,2.731,0,0,0-.66-1.894A2.365,2.365,0,0,0,22.071-11.032Zm15.869.736a9.968,9.968,0,0,0-1.32-.1,2.687,2.687,0,0,0-2.729,1.409V0H30.222V-13.736h3.466l.1,1.638a3.4,3.4,0,0,1,3.06-1.892,3.844,3.844,0,0,1,1.143.165Zm9.483,0a9.968,9.968,0,0,0-1.32-.1,2.687,2.687,0,0,0-2.729,1.409V0H39.705V-13.736h3.466l.1,1.638a3.4,3.4,0,0,1,3.06-1.892,3.844,3.844,0,0,1,1.143.165ZM55.511.254A6.743,6.743,0,0,1,50.591-1.6a6.588,6.588,0,0,1-1.9-4.938v-.355a8.3,8.3,0,0,1,.8-3.7,5.87,5.87,0,0,1,2.266-2.514A6.36,6.36,0,0,1,55.1-13.99a5.7,5.7,0,0,1,4.437,1.777,7.222,7.222,0,0,1,1.619,5.04v1.5H52.413a3.408,3.408,0,0,0,1.073,2.158,3.243,3.243,0,0,0,2.266.813A3.96,3.96,0,0,0,59.066-4.24l1.8,2.019A5.508,5.508,0,0,1,58.634-.4,7.331,7.331,0,0,1,55.511.254Zm-.419-11.286a2.293,2.293,0,0,0-1.771.74,3.83,3.83,0,0,0-.87,2.117h5.1v-.293a2.731,2.731,0,0,0-.66-1.894A2.365,2.365,0,0,0,55.092-11.032Zm11.527-2.7.114,1.587a4.8,4.8,0,0,1,3.948-1.841,3.986,3.986,0,0,1,3.25,1.282,5.983,5.983,0,0,1,1.092,3.834V0H71.355V-8.785a2.38,2.38,0,0,0-.508-1.695,2.273,2.273,0,0,0-1.688-.527,2.524,2.524,0,0,0-2.323,1.32V0H63.166V-13.736ZM77.233-7a8.146,8.146,0,0,1,.787-3.644,5.762,5.762,0,0,1,2.266-2.476,6.611,6.611,0,0,1,3.434-.876,6.255,6.255,0,0,1,4.539,1.7A6.827,6.827,0,0,1,90.22-7.668l.025.939a7.18,7.18,0,0,1-1.765,5.072A6.134,6.134,0,0,1,83.745.254,6.164,6.164,0,0,1,79-1.65a7.306,7.306,0,0,1-1.771-5.18Zm3.669.26a5.135,5.135,0,0,0,.736,2.994A2.429,2.429,0,0,0,83.745-2.7a2.435,2.435,0,0,0,2.082-1.024A5.618,5.618,0,0,0,86.576-7a5.083,5.083,0,0,0-.749-2.975,2.435,2.435,0,0,0-2.107-1.055,2.4,2.4,0,0,0-2.082,1.049A5.713,5.713,0,0,0,80.9-6.735ZM106.94,0a4.074,4.074,0,0,1-.368-1.231A4.439,4.439,0,0,1,103.106.254,4.877,4.877,0,0,1,99.76-.914a3.756,3.756,0,0,1-1.327-2.945,3.882,3.882,0,0,1,1.619-3.352,7.987,7.987,0,0,1,4.678-1.181h1.688v-.787a2.264,2.264,0,0,0-.489-1.523,1.923,1.923,0,0,0-1.542-.571,2.186,2.186,0,0,0-1.454.444,1.509,1.509,0,0,0-.527,1.219H98.738a3.686,3.686,0,0,1,.736-2.209,4.867,4.867,0,0,1,2.082-1.593,7.588,7.588,0,0,1,3.021-.578,6,6,0,0,1,4.031,1.276A4.463,4.463,0,0,1,110.1-9.128v5.954a6.567,6.567,0,0,0,.546,2.958V0Zm-3.034-2.552a3.16,3.16,0,0,0,1.5-.362,2.376,2.376,0,0,0,1.016-.971V-6.246h-1.371q-2.755,0-2.933,1.9l-.013.216A1.469,1.469,0,0,0,102.585-3,1.874,1.874,0,0,0,103.905-2.552ZM125.3-6.741a8.318,8.318,0,0,1-1.409,5.148A4.668,4.668,0,0,1,119.952.254a4.289,4.289,0,0,1-3.567-1.714L116.22,0h-3.3V-19.5h3.669v7a4.178,4.178,0,0,1,3.339-1.485,4.706,4.706,0,0,1,3.942,1.847,8.33,8.33,0,0,1,1.428,5.2Zm-3.669-.267a5.464,5.464,0,0,0-.66-3.041A2.232,2.232,0,0,0,119-11.007a2.42,2.42,0,0,0-2.412,1.435v5.421A2.453,2.453,0,0,0,119.026-2.7a2.265,2.265,0,0,0,2.336-1.752A9.038,9.038,0,0,0,121.628-7.008ZM131.429,0h-3.682V-13.736h3.682Zm-3.9-17.291a1.807,1.807,0,0,1,.552-1.358,2.075,2.075,0,0,1,1.5-.533,2.079,2.079,0,0,1,1.5.533,1.8,1.8,0,0,1,.559,1.358,1.8,1.8,0,0,1-.565,1.371,2.084,2.084,0,0,1-1.492.533,2.084,2.084,0,0,1-1.492-.533A1.8,1.8,0,0,1,127.531-17.291ZM140.773.254A6.743,6.743,0,0,1,135.853-1.6a6.588,6.588,0,0,1-1.9-4.938v-.355a8.3,8.3,0,0,1,.8-3.7,5.87,5.87,0,0,1,2.266-2.514,6.36,6.36,0,0,1,3.345-.882,5.7,5.7,0,0,1,4.437,1.777,7.222,7.222,0,0,1,1.619,5.04v1.5h-8.747a3.408,3.408,0,0,0,1.073,2.158,3.243,3.243,0,0,0,2.266.813,3.96,3.96,0,0,0,3.313-1.536l1.8,2.019A5.508,5.508,0,0,1,143.9-.4,7.331,7.331,0,0,1,140.773.254Zm-.419-11.286a2.293,2.293,0,0,0-1.771.74,3.83,3.83,0,0,0-.87,2.117h5.1v-.293a2.731,2.731,0,0,0-.66-1.894A2.365,2.365,0,0,0,140.354-11.032Zm15.869.736a9.968,9.968,0,0,0-1.32-.1,2.687,2.687,0,0,0-2.729,1.409V0H148.5V-13.736h3.466l.1,1.638a3.4,3.4,0,0,1,3.06-1.892,3.844,3.844,0,0,1,1.143.165Zm7.13-6.817v3.377H165.7v2.691h-2.349v6.855a1.637,1.637,0,0,0,.292,1.092,1.467,1.467,0,0,0,1.117.33,5.851,5.851,0,0,0,1.079-.089v2.78a7.553,7.553,0,0,1-2.222.33q-3.859,0-3.936-3.9v-7.4h-2.006v-2.691h2.006v-3.377ZM166.793-7a8.147,8.147,0,0,1,.787-3.644,5.762,5.762,0,0,1,2.266-2.476,6.611,6.611,0,0,1,3.434-.876,6.255,6.255,0,0,1,4.539,1.7,6.828,6.828,0,0,1,1.961,4.621l.025.939a7.18,7.18,0,0,1-1.765,5.072A6.134,6.134,0,0,1,173.306.254a6.164,6.164,0,0,1-4.742-1.9,7.306,7.306,0,0,1-1.771-5.18Zm3.669.26A5.135,5.135,0,0,0,171.2-3.74,2.429,2.429,0,0,0,173.306-2.7a2.435,2.435,0,0,0,2.082-1.024A5.618,5.618,0,0,0,176.137-7a5.083,5.083,0,0,0-.749-2.975,2.435,2.435,0,0,0-2.107-1.055A2.4,2.4,0,0,0,171.2-9.983,5.713,5.713,0,0,0,170.462-6.735Z" transform="translate(1029.175 5535.961)"/>
    <path id="Trazado_160506" data-name="Trazado 160506" d="M1.65,0V-18.484H8.125a8.5,8.5,0,0,1,5.1,1.289,4.406,4.406,0,0,1,1.739,3.777,4.176,4.176,0,0,1-.7,2.393,4.033,4.033,0,0,1-1.942,1.517,3.9,3.9,0,0,1,2.241,1.435,4.241,4.241,0,0,1,.819,2.641,4.878,4.878,0,0,1-1.7,4.037A7.658,7.658,0,0,1,8.836,0ZM5.459-8.049V-3.06H8.722a3.149,3.149,0,0,0,2.1-.641,2.2,2.2,0,0,0,.755-1.771q0-2.539-2.628-2.577Zm0-2.691H8.277q2.882-.051,2.882-2.3a2.123,2.123,0,0,0-.73-1.809,3.839,3.839,0,0,0-2.3-.552H5.459ZM17.431-7a8.146,8.146,0,0,1,.787-3.644,5.762,5.762,0,0,1,2.266-2.476,6.611,6.611,0,0,1,3.434-.876,6.255,6.255,0,0,1,4.539,1.7,6.827,6.827,0,0,1,1.961,4.621l.025.939a7.18,7.18,0,0,1-1.765,5.072A6.134,6.134,0,0,1,23.943.254,6.164,6.164,0,0,1,19.2-1.65a7.306,7.306,0,0,1-1.771-5.18Zm3.669.26a5.135,5.135,0,0,0,.736,2.994A2.429,2.429,0,0,0,23.943-2.7a2.435,2.435,0,0,0,2.082-1.024A5.618,5.618,0,0,0,26.774-7a5.083,5.083,0,0,0-.749-2.975,2.435,2.435,0,0,0-2.107-1.055,2.4,2.4,0,0,0-2.082,1.049A5.713,5.713,0,0,0,21.1-6.735ZM40.143-3.8a1.182,1.182,0,0,0-.667-1.06,7.571,7.571,0,0,0-2.139-.692q-4.9-1.028-4.9-4.164a3.774,3.774,0,0,1,1.517-3.053,6.12,6.12,0,0,1,3.967-1.225A6.587,6.587,0,0,1,42.1-12.759a3.881,3.881,0,0,1,1.568,3.2H40a1.775,1.775,0,0,0-.508-1.3,2.149,2.149,0,0,0-1.587-.514,2.2,2.2,0,0,0-1.435.419,1.322,1.322,0,0,0-.508,1.066,1.131,1.131,0,0,0,.578.984,5.942,5.942,0,0,0,1.949.647,15.917,15.917,0,0,1,2.311.616Q43.71-6.576,43.71-3.948A3.583,3.583,0,0,1,42.1-.908,6.955,6.955,0,0,1,37.934.254a7.264,7.264,0,0,1-3.066-.616,5.144,5.144,0,0,1-2.1-1.688A3.923,3.923,0,0,1,32-4.367h3.479a1.915,1.915,0,0,0,.724,1.5,2.87,2.87,0,0,0,1.8.521,2.657,2.657,0,0,0,1.593-.4A1.244,1.244,0,0,0,40.143-3.8ZM45.5-7a8.211,8.211,0,0,1,1.441-5.116A4.711,4.711,0,0,1,50.9-13.99,4.218,4.218,0,0,1,54.412-12.3l.241-1.435h3.225V5.281H54.2V-1.181A4.229,4.229,0,0,1,50.87.254a4.676,4.676,0,0,1-3.91-1.9A8.613,8.613,0,0,1,45.5-7Zm3.669.26a5.386,5.386,0,0,0,.692,3A2.215,2.215,0,0,0,51.81-2.7,2.467,2.467,0,0,0,54.2-4.052V-9.735a2.447,2.447,0,0,0-2.361-1.3A2.242,2.242,0,0,0,49.867-10,5.948,5.948,0,0,0,49.169-6.735ZM68.986-1.4A4.6,4.6,0,0,1,65.229.254a4.339,4.339,0,0,1-3.371-1.27,5.419,5.419,0,0,1-1.187-3.72v-9H64.34v8.884q0,2.148,1.955,2.148A2.649,2.649,0,0,0,68.859-4v-9.736h3.682V0H69.088ZM81.631.254A6.743,6.743,0,0,1,76.711-1.6a6.588,6.588,0,0,1-1.9-4.938v-.355a8.3,8.3,0,0,1,.8-3.7,5.87,5.87,0,0,1,2.266-2.514,6.36,6.36,0,0,1,3.345-.882,5.7,5.7,0,0,1,4.437,1.777,7.222,7.222,0,0,1,1.619,5.04v1.5H78.533a3.408,3.408,0,0,0,1.073,2.158,3.243,3.243,0,0,0,2.266.813A3.96,3.96,0,0,0,85.186-4.24l1.8,2.019A5.508,5.508,0,0,1,84.754-.4,7.331,7.331,0,0,1,81.631.254Zm-.419-11.286a2.293,2.293,0,0,0-1.771.74,3.83,3.83,0,0,0-.87,2.117h5.1v-.293a2.731,2.731,0,0,0-.66-1.894A2.365,2.365,0,0,0,81.212-11.032Z" transform="translate(1030.65 5670.564)"/>
    <path id="Trazado_160505" data-name="Trazado 160505" d="M6.627-18.484,11.375-5.078,16.1-18.484h5V0H17.278V-5.053l.381-8.722L12.67,0H10.055L5.078-13.762l.381,8.709V0H1.65V-18.484ZM32.145,0a4.074,4.074,0,0,1-.368-1.231A4.439,4.439,0,0,1,28.311.254,4.877,4.877,0,0,1,24.965-.914a3.756,3.756,0,0,1-1.327-2.945,3.882,3.882,0,0,1,1.619-3.352,7.987,7.987,0,0,1,4.678-1.181h1.688v-.787a2.264,2.264,0,0,0-.489-1.523,1.923,1.923,0,0,0-1.542-.571,2.186,2.186,0,0,0-1.454.444,1.509,1.509,0,0,0-.527,1.219H23.943a3.685,3.685,0,0,1,.736-2.209,4.867,4.867,0,0,1,2.082-1.593,7.588,7.588,0,0,1,3.021-.578,6,6,0,0,1,4.031,1.276,4.463,4.463,0,0,1,1.492,3.586v5.954a6.567,6.567,0,0,0,.546,2.958V0ZM29.11-2.552a3.16,3.16,0,0,0,1.5-.362,2.376,2.376,0,0,0,1.016-.971V-6.246H30.253q-2.755,0-2.933,1.9l-.013.216A1.469,1.469,0,0,0,27.79-3,1.874,1.874,0,0,0,29.11-2.552ZM42.517-17.113v3.377h2.349v2.691H42.517v6.855A1.637,1.637,0,0,0,42.809-3.1a1.467,1.467,0,0,0,1.117.33A5.851,5.851,0,0,0,45-2.856v2.78a7.553,7.553,0,0,1-2.222.33q-3.859,0-3.936-3.9v-7.4H36.842v-2.691h2.006v-3.377ZM45.957-7a8.146,8.146,0,0,1,.787-3.644,5.762,5.762,0,0,1,2.266-2.476,6.611,6.611,0,0,1,3.434-.876,6.255,6.255,0,0,1,4.539,1.7,6.827,6.827,0,0,1,1.961,4.621l.025.939a7.18,7.18,0,0,1-1.765,5.072A6.134,6.134,0,0,1,52.47.254a6.164,6.164,0,0,1-4.742-1.9,7.306,7.306,0,0,1-1.771-5.18Zm3.669.26a5.135,5.135,0,0,0,.736,2.994A2.429,2.429,0,0,0,52.47-2.7a2.435,2.435,0,0,0,2.082-1.024A5.618,5.618,0,0,0,55.3-7a5.083,5.083,0,0,0-.749-2.975,2.435,2.435,0,0,0-2.107-1.055,2.4,2.4,0,0,0-2.082,1.049A5.713,5.713,0,0,0,49.626-6.735ZM68.948-10.3a9.968,9.968,0,0,0-1.32-.1A2.687,2.687,0,0,0,64.9-8.988V0H61.229V-13.736H64.7l.1,1.638a3.4,3.4,0,0,1,3.06-1.892A3.844,3.844,0,0,1,69-13.825Zm9.483,0a9.968,9.968,0,0,0-1.32-.1,2.687,2.687,0,0,0-2.729,1.409V0H70.713V-13.736h3.466l.1,1.638a3.4,3.4,0,0,1,3.06-1.892,3.844,3.844,0,0,1,1.143.165ZM87.775,0a4.074,4.074,0,0,1-.368-1.231A4.439,4.439,0,0,1,83.941.254,4.877,4.877,0,0,1,80.6-.914,3.756,3.756,0,0,1,79.27-3.859a3.882,3.882,0,0,1,1.619-3.352,7.987,7.987,0,0,1,4.678-1.181h1.688v-.787a2.264,2.264,0,0,0-.489-1.523,1.923,1.923,0,0,0-1.542-.571,2.186,2.186,0,0,0-1.454.444,1.509,1.509,0,0,0-.527,1.219H79.574a3.686,3.686,0,0,1,.736-2.209,4.867,4.867,0,0,1,2.082-1.593,7.588,7.588,0,0,1,3.021-.578,6,6,0,0,1,4.031,1.276,4.463,4.463,0,0,1,1.492,3.586v5.954a6.567,6.567,0,0,0,.546,2.958V0ZM84.741-2.552a3.16,3.16,0,0,0,1.5-.362,2.376,2.376,0,0,0,1.016-.971V-6.246H85.884q-2.755,0-2.933,1.9l-.013.216A1.469,1.469,0,0,0,83.421-3,1.874,1.874,0,0,0,84.741-2.552ZM97.627,0H93.945V-19.5h3.682Zm9.344.254A6.743,6.743,0,0,1,102.051-1.6a6.588,6.588,0,0,1-1.9-4.938v-.355a8.3,8.3,0,0,1,.8-3.7,5.87,5.87,0,0,1,2.266-2.514,6.36,6.36,0,0,1,3.345-.882A5.7,5.7,0,0,1,111-12.213a7.222,7.222,0,0,1,1.619,5.04v1.5h-8.747a3.408,3.408,0,0,0,1.073,2.158,3.243,3.243,0,0,0,2.266.813,3.96,3.96,0,0,0,3.313-1.536l1.8,2.019A5.508,5.508,0,0,1,110.094-.4,7.331,7.331,0,0,1,106.971.254Zm-.419-11.286a2.293,2.293,0,0,0-1.771.74,3.83,3.83,0,0,0-.87,2.117h5.1v-.293a2.731,2.731,0,0,0-.66-1.894A2.365,2.365,0,0,0,106.552-11.032ZM122.142-3.8a1.182,1.182,0,0,0-.667-1.06,7.571,7.571,0,0,0-2.139-.692q-4.9-1.028-4.9-4.164a3.774,3.774,0,0,1,1.517-3.053,6.12,6.12,0,0,1,3.967-1.225,6.587,6.587,0,0,1,4.183,1.231,3.881,3.881,0,0,1,1.568,3.2H122a1.775,1.775,0,0,0-.508-1.3,2.149,2.149,0,0,0-1.587-.514,2.2,2.2,0,0,0-1.435.419,1.323,1.323,0,0,0-.508,1.066,1.13,1.13,0,0,0,.578.984,5.942,5.942,0,0,0,1.949.647,15.917,15.917,0,0,1,2.311.616q2.907,1.066,2.907,3.694A3.583,3.583,0,0,1,124.1-.908,6.955,6.955,0,0,1,119.933.254a7.264,7.264,0,0,1-3.066-.616,5.144,5.144,0,0,1-2.1-1.688A3.923,3.923,0,0,1,114-4.367h3.479a1.915,1.915,0,0,0,.724,1.5,2.87,2.87,0,0,0,1.8.521,2.657,2.657,0,0,0,1.593-.4A1.244,1.244,0,0,0,122.142-3.8ZM142.5,0a4.074,4.074,0,0,1-.368-1.231A4.439,4.439,0,0,1,138.671.254a4.877,4.877,0,0,1-3.345-1.168A3.756,3.756,0,0,1,134-3.859a3.882,3.882,0,0,1,1.619-3.352A7.987,7.987,0,0,1,140.3-8.392h1.688v-.787A2.264,2.264,0,0,0,141.5-10.7a1.923,1.923,0,0,0-1.542-.571,2.186,2.186,0,0,0-1.454.444,1.509,1.509,0,0,0-.527,1.219H134.3a3.685,3.685,0,0,1,.736-2.209,4.867,4.867,0,0,1,2.082-1.593,7.588,7.588,0,0,1,3.021-.578,6,6,0,0,1,4.031,1.276,4.463,4.463,0,0,1,1.492,3.586v5.954a6.567,6.567,0,0,0,.546,2.958V0Zm-3.034-2.552a3.16,3.16,0,0,0,1.5-.362,2.376,2.376,0,0,0,1.016-.971V-6.246h-1.371q-2.755,0-2.933,1.9l-.013.216A1.469,1.469,0,0,0,138.15-3,1.874,1.874,0,0,0,139.471-2.552ZM152.356,0h-3.682V-13.736h3.682Zm-3.9-17.291a1.807,1.807,0,0,1,.552-1.358,2.075,2.075,0,0,1,1.5-.533,2.079,2.079,0,0,1,1.5.533,1.8,1.8,0,0,1,.559,1.358,1.8,1.8,0,0,1-.565,1.371,2.084,2.084,0,0,1-1.492.533,2.084,2.084,0,0,1-1.492-.533A1.8,1.8,0,0,1,148.459-17.291ZM162.817-3.8a1.182,1.182,0,0,0-.667-1.06,7.571,7.571,0,0,0-2.139-.692q-4.9-1.028-4.9-4.164a3.774,3.774,0,0,1,1.517-3.053A6.12,6.12,0,0,1,160.6-13.99a6.587,6.587,0,0,1,4.183,1.231,3.881,3.881,0,0,1,1.568,3.2h-3.669a1.775,1.775,0,0,0-.508-1.3,2.149,2.149,0,0,0-1.587-.514,2.2,2.2,0,0,0-1.435.419,1.322,1.322,0,0,0-.508,1.066,1.131,1.131,0,0,0,.578.984,5.942,5.942,0,0,0,1.949.647,15.917,15.917,0,0,1,2.311.616q2.907,1.066,2.907,3.694a3.583,3.583,0,0,1-1.612,3.041A6.955,6.955,0,0,1,160.608.254a7.264,7.264,0,0,1-3.066-.616,5.144,5.144,0,0,1-2.1-1.688,3.923,3.923,0,0,1-.762-2.317h3.479a1.915,1.915,0,0,0,.724,1.5,2.87,2.87,0,0,0,1.8.521,2.657,2.657,0,0,0,1.593-.4A1.244,1.244,0,0,0,162.817-3.8Zm9.8,3.8h-3.682V-19.5h3.682ZM183.6,0a4.074,4.074,0,0,1-.368-1.231A4.439,4.439,0,0,1,179.766.254,4.877,4.877,0,0,1,176.42-.914a3.756,3.756,0,0,1-1.327-2.945,3.882,3.882,0,0,1,1.619-3.352,7.987,7.987,0,0,1,4.678-1.181h1.688v-.787a2.264,2.264,0,0,0-.489-1.523,1.923,1.923,0,0,0-1.542-.571,2.186,2.186,0,0,0-1.454.444,1.509,1.509,0,0,0-.527,1.219H175.4a3.685,3.685,0,0,1,.736-2.209,4.867,4.867,0,0,1,2.082-1.593,7.588,7.588,0,0,1,3.021-.578,6,6,0,0,1,4.031,1.276,4.463,4.463,0,0,1,1.492,3.586v5.954a6.567,6.567,0,0,0,.546,2.958V0Zm-3.034-2.552a3.16,3.16,0,0,0,1.5-.362,2.376,2.376,0,0,0,1.016-.971V-6.246h-1.371q-2.755,0-2.933,1.9l-.013.216A1.469,1.469,0,0,0,179.245-3,1.874,1.874,0,0,0,180.565-2.552Zm8.442-4.418a8.278,8.278,0,0,1,1.441-5.116,4.675,4.675,0,0,1,3.942-1.9,4.207,4.207,0,0,1,3.313,1.5V-19.5h3.682V0h-3.313l-.178-1.46A4.318,4.318,0,0,1,194.365.254a4.663,4.663,0,0,1-3.891-1.911A8.545,8.545,0,0,1,189.008-6.97Zm3.669.273a5.423,5.423,0,0,0,.673,2.963A2.192,2.192,0,0,0,195.3-2.7a2.455,2.455,0,0,0,2.4-1.437V-9.57a2.42,2.42,0,0,0-2.374-1.437Q192.677-11.007,192.677-6.7ZM203.658-7a8.147,8.147,0,0,1,.787-3.644,5.762,5.762,0,0,1,2.266-2.476,6.611,6.611,0,0,1,3.434-.876,6.255,6.255,0,0,1,4.539,1.7,6.828,6.828,0,0,1,1.961,4.621l.025.939a7.18,7.18,0,0,1-1.765,5.072A6.134,6.134,0,0,1,210.171.254a6.164,6.164,0,0,1-4.742-1.9,7.306,7.306,0,0,1-1.771-5.18Zm3.669.26a5.135,5.135,0,0,0,.736,2.994A2.429,2.429,0,0,0,210.171-2.7a2.435,2.435,0,0,0,2.082-1.024A5.618,5.618,0,0,0,213-7a5.083,5.083,0,0,0-.749-2.975,2.435,2.435,0,0,0-2.107-1.055,2.4,2.4,0,0,0-2.082,1.049A5.713,5.713,0,0,0,207.327-6.735ZM226.37-3.8a1.182,1.182,0,0,0-.667-1.06,7.571,7.571,0,0,0-2.139-.692q-4.9-1.028-4.9-4.164a3.774,3.774,0,0,1,1.517-3.053,6.12,6.12,0,0,1,3.967-1.225,6.587,6.587,0,0,1,4.183,1.231,3.881,3.881,0,0,1,1.568,3.2H226.23a1.775,1.775,0,0,0-.508-1.3,2.149,2.149,0,0,0-1.587-.514,2.2,2.2,0,0,0-1.435.419,1.322,1.322,0,0,0-.508,1.066,1.131,1.131,0,0,0,.578.984,5.942,5.942,0,0,0,1.949.647,15.917,15.917,0,0,1,2.311.616q2.907,1.066,2.907,3.694a3.583,3.583,0,0,1-1.612,3.041A6.955,6.955,0,0,1,224.161.254,7.264,7.264,0,0,1,221.1-.362a5.144,5.144,0,0,1-2.1-1.688,3.923,3.923,0,0,1-.762-2.317h3.479a1.915,1.915,0,0,0,.724,1.5,2.87,2.87,0,0,0,1.8.521,2.657,2.657,0,0,0,1.593-.4A1.244,1.244,0,0,0,226.37-3.8Z" transform="translate(1024.641 5727.268)"/>
    <path id="Trazado_160501" data-name="Trazado 160501" d="M12.771-8.011H5.459V-3.06h8.582V0H1.65V-18.484H14.016V-15.4H5.459v4.405h7.313ZM23.474-3.8a1.182,1.182,0,0,0-.667-1.06,7.571,7.571,0,0,0-2.139-.692q-4.9-1.028-4.9-4.164a3.774,3.774,0,0,1,1.517-3.053,6.12,6.12,0,0,1,3.967-1.225,6.587,6.587,0,0,1,4.183,1.231A3.881,3.881,0,0,1,27-9.56H23.334a1.775,1.775,0,0,0-.508-1.3,2.149,2.149,0,0,0-1.587-.514,2.2,2.2,0,0,0-1.435.419A1.323,1.323,0,0,0,19.3-9.89a1.131,1.131,0,0,0,.578.984,5.942,5.942,0,0,0,1.949.647,15.917,15.917,0,0,1,2.311.616q2.907,1.066,2.907,3.694A3.583,3.583,0,0,1,25.429-.908,6.955,6.955,0,0,1,21.265.254,7.264,7.264,0,0,1,18.2-.362,5.144,5.144,0,0,1,16.1-2.05a3.923,3.923,0,0,1-.762-2.317h3.479a1.915,1.915,0,0,0,.724,1.5,2.87,2.87,0,0,0,1.8.521,2.657,2.657,0,0,0,1.593-.4A1.244,1.244,0,0,0,23.474-3.8ZM33.795-17.113v3.377h2.349v2.691H33.795v6.855A1.637,1.637,0,0,0,34.087-3.1a1.467,1.467,0,0,0,1.117.33,5.851,5.851,0,0,0,1.079-.089v2.78a7.553,7.553,0,0,1-2.222.33q-3.859,0-3.936-3.9v-7.4H28.12v-2.691h2.006v-3.377ZM46.147,0a4.074,4.074,0,0,1-.368-1.231A4.439,4.439,0,0,1,42.313.254,4.877,4.877,0,0,1,38.968-.914a3.756,3.756,0,0,1-1.327-2.945A3.882,3.882,0,0,1,39.26-7.211a7.987,7.987,0,0,1,4.678-1.181h1.688v-.787a2.264,2.264,0,0,0-.489-1.523,1.923,1.923,0,0,0-1.542-.571,2.186,2.186,0,0,0-1.454.444,1.509,1.509,0,0,0-.527,1.219H37.946a3.685,3.685,0,0,1,.736-2.209,4.867,4.867,0,0,1,2.082-1.593,7.588,7.588,0,0,1,3.021-.578,6,6,0,0,1,4.031,1.276,4.463,4.463,0,0,1,1.492,3.586v5.954a6.567,6.567,0,0,0,.546,2.958V0ZM43.113-2.552a3.16,3.16,0,0,0,1.5-.362,2.376,2.376,0,0,0,1.016-.971V-6.246H44.256q-2.755,0-2.933,1.9l-.013.216A1.469,1.469,0,0,0,41.793-3,1.874,1.874,0,0,0,43.113-2.552ZM55.5-13.736l.114,1.587a4.8,4.8,0,0,1,3.948-1.841,3.986,3.986,0,0,1,3.25,1.282,5.983,5.983,0,0,1,1.092,3.834V0H60.239V-8.785a2.38,2.38,0,0,0-.508-1.695,2.273,2.273,0,0,0-1.688-.527,2.524,2.524,0,0,0-2.323,1.32V0H52.051V-13.736ZM66.117-7a8.211,8.211,0,0,1,1.441-5.116,4.711,4.711,0,0,1,3.955-1.879A4.218,4.218,0,0,1,75.029-12.3l.241-1.435H78.5V5.281H74.813V-1.181A4.229,4.229,0,0,1,71.487.254a4.676,4.676,0,0,1-3.91-1.9A8.613,8.613,0,0,1,66.117-7Zm3.669.26a5.386,5.386,0,0,0,.692,3A2.215,2.215,0,0,0,72.427-2.7a2.467,2.467,0,0,0,2.387-1.348V-9.735a2.447,2.447,0,0,0-2.361-1.3A2.242,2.242,0,0,0,70.484-10,5.949,5.949,0,0,0,69.786-6.735ZM89.6-1.4A4.6,4.6,0,0,1,85.846.254a4.339,4.339,0,0,1-3.371-1.27,5.419,5.419,0,0,1-1.187-3.72v-9h3.669v8.884q0,2.148,1.955,2.148A2.649,2.649,0,0,0,89.477-4v-9.736h3.682V0H89.705ZM102.248.254A6.743,6.743,0,0,1,97.329-1.6a6.588,6.588,0,0,1-1.9-4.938v-.355a8.3,8.3,0,0,1,.8-3.7A5.87,5.87,0,0,1,98.5-13.108a6.36,6.36,0,0,1,3.345-.882,5.7,5.7,0,0,1,4.437,1.777,7.222,7.222,0,0,1,1.619,5.04v1.5H99.15a3.408,3.408,0,0,0,1.073,2.158,3.243,3.243,0,0,0,2.266.813A3.96,3.96,0,0,0,105.8-4.24l1.8,2.019A5.508,5.508,0,0,1,105.371-.4,7.331,7.331,0,0,1,102.248.254Zm-.419-11.286a2.293,2.293,0,0,0-1.771.74,3.83,3.83,0,0,0-.87,2.117h5.1v-.293a2.731,2.731,0,0,0-.66-1.894A2.365,2.365,0,0,0,101.829-11.032Z" transform="translate(1024.832 5801.889)"/>
    <path id="Trazado_160500" data-name="Trazado 160500" d="M16.161-6.157a6.541,6.541,0,0,1-2.2,4.7A7.736,7.736,0,0,1,8.722.254,6.956,6.956,0,0,1,3.129-2.139a9.812,9.812,0,0,1-2.038-6.57v-1.13a11.08,11.08,0,0,1,.939-4.7,7.04,7.04,0,0,1,2.685-3.117,7.522,7.522,0,0,1,4.056-1.085,7.536,7.536,0,0,1,5.154,1.714,7.029,7.029,0,0,1,2.26,4.812H12.378a3.86,3.86,0,0,0-1-2.6,3.69,3.69,0,0,0-2.609-.806,3.236,3.236,0,0,0-2.85,1.365,7.648,7.648,0,0,0-.971,4.234v1.4a8.186,8.186,0,0,0,.908,4.38A3.176,3.176,0,0,0,8.722-2.856a3.76,3.76,0,0,0,2.634-.806,3.641,3.641,0,0,0,1-2.495ZM17.85-7a8.146,8.146,0,0,1,.787-3.644A5.762,5.762,0,0,1,20.9-13.114a6.611,6.611,0,0,1,3.434-.876,6.255,6.255,0,0,1,4.539,1.7,6.827,6.827,0,0,1,1.961,4.621l.025.939A7.18,7.18,0,0,1,29.1-1.657,6.134,6.134,0,0,1,24.362.254a6.164,6.164,0,0,1-4.742-1.9A7.306,7.306,0,0,1,17.85-6.83Zm3.669.26a5.135,5.135,0,0,0,.736,2.994A2.429,2.429,0,0,0,24.362-2.7a2.435,2.435,0,0,0,2.082-1.024A5.618,5.618,0,0,0,27.193-7a5.083,5.083,0,0,0-.749-2.975,2.435,2.435,0,0,0-2.107-1.055,2.4,2.4,0,0,0-2.082,1.049A5.713,5.713,0,0,0,21.519-6.735ZM40.841-10.3a9.968,9.968,0,0,0-1.32-.1,2.687,2.687,0,0,0-2.729,1.409V0H33.122V-13.736h3.466l.1,1.638a3.4,3.4,0,0,1,3.06-1.892,3.844,3.844,0,0,1,1.143.165Zm9.483,0A9.968,9.968,0,0,0,49-10.4a2.687,2.687,0,0,0-2.729,1.409V0H42.605V-13.736h3.466l.1,1.638a3.4,3.4,0,0,1,3.06-1.892,3.844,3.844,0,0,1,1.143.165ZM55.961,0H52.279V-13.736h3.682Zm-3.9-17.291a1.807,1.807,0,0,1,.552-1.358,2.075,2.075,0,0,1,1.5-.533,2.079,2.079,0,0,1,1.5.533,1.8,1.8,0,0,1,.559,1.358,1.8,1.8,0,0,1-.565,1.371,2.084,2.084,0,0,1-1.492.533,2.084,2.084,0,0,1-1.492-.533A1.8,1.8,0,0,1,52.063-17.291ZM65.3.254A6.743,6.743,0,0,1,60.385-1.6a6.588,6.588,0,0,1-1.9-4.938v-.355a8.3,8.3,0,0,1,.8-3.7,5.87,5.87,0,0,1,2.266-2.514A6.36,6.36,0,0,1,64.9-13.99a5.7,5.7,0,0,1,4.437,1.777,7.222,7.222,0,0,1,1.619,5.04v1.5H62.207A3.408,3.408,0,0,0,63.28-3.517a3.243,3.243,0,0,0,2.266.813A3.96,3.96,0,0,0,68.859-4.24l1.8,2.019A5.508,5.508,0,0,1,68.428-.4,7.331,7.331,0,0,1,65.3.254Zm-.419-11.286a2.293,2.293,0,0,0-1.771.74,3.83,3.83,0,0,0-.87,2.117h5.1v-.293a2.731,2.731,0,0,0-.66-1.894A2.365,2.365,0,0,0,64.886-11.032Zm11.527-2.7.114,1.587a4.8,4.8,0,0,1,3.948-1.841,3.986,3.986,0,0,1,3.25,1.282,5.983,5.983,0,0,1,1.092,3.834V0H81.148V-8.785a2.38,2.38,0,0,0-.508-1.695,2.273,2.273,0,0,0-1.688-.527,2.524,2.524,0,0,0-2.323,1.32V0H72.96V-13.736ZM91.99-17.113v3.377h2.349v2.691H91.99v6.855A1.637,1.637,0,0,0,92.282-3.1a1.467,1.467,0,0,0,1.117.33,5.851,5.851,0,0,0,1.079-.089v2.78a7.553,7.553,0,0,1-2.222.33q-3.859,0-3.936-3.9v-7.4H86.315v-2.691h2.006v-3.377ZM102.705.254A6.743,6.743,0,0,1,97.786-1.6a6.588,6.588,0,0,1-1.9-4.938v-.355a8.3,8.3,0,0,1,.8-3.7,5.87,5.87,0,0,1,2.266-2.514,6.36,6.36,0,0,1,3.345-.882,5.7,5.7,0,0,1,4.437,1.777,7.222,7.222,0,0,1,1.619,5.04v1.5H99.607a3.408,3.408,0,0,0,1.073,2.158,3.243,3.243,0,0,0,2.266.813A3.96,3.96,0,0,0,106.26-4.24l1.8,2.019A5.508,5.508,0,0,1,105.828-.4,7.331,7.331,0,0,1,102.705.254Zm-.419-11.286a2.293,2.293,0,0,0-1.771.74,3.83,3.83,0,0,0-.87,2.117h5.1v-.293a2.731,2.731,0,0,0-.66-1.894A2.365,2.365,0,0,0,102.286-11.032ZM116.34-6.97a8.278,8.278,0,0,1,1.441-5.116,4.675,4.675,0,0,1,3.942-1.9,4.207,4.207,0,0,1,3.313,1.5V-19.5h3.682V0H125.4l-.178-1.46A4.318,4.318,0,0,1,121.7.254a4.663,4.663,0,0,1-3.891-1.911A8.545,8.545,0,0,1,116.34-6.97Zm3.669.273a5.423,5.423,0,0,0,.673,2.963,2.192,2.192,0,0,0,1.955,1.03,2.455,2.455,0,0,0,2.4-1.437V-9.57a2.42,2.42,0,0,0-2.374-1.437Q120.009-11.007,120.009-6.7ZM137.884.254A6.743,6.743,0,0,1,132.964-1.6a6.588,6.588,0,0,1-1.9-4.938v-.355a8.3,8.3,0,0,1,.8-3.7,5.87,5.87,0,0,1,2.266-2.514,6.36,6.36,0,0,1,3.345-.882,5.7,5.7,0,0,1,4.437,1.777,7.222,7.222,0,0,1,1.619,5.04v1.5h-8.747a3.408,3.408,0,0,0,1.073,2.158,3.243,3.243,0,0,0,2.266.813,3.96,3.96,0,0,0,3.313-1.536l1.8,2.019A5.508,5.508,0,0,1,141.007-.4,7.331,7.331,0,0,1,137.884.254Zm-.419-11.286a2.293,2.293,0,0,0-1.771.74,3.83,3.83,0,0,0-.87,2.117h5.1v-.293a2.731,2.731,0,0,0-.66-1.894A2.365,2.365,0,0,0,137.465-11.032ZM160.05,0a4.074,4.074,0,0,1-.368-1.231A4.439,4.439,0,0,1,156.216.254a4.877,4.877,0,0,1-3.345-1.168,3.756,3.756,0,0,1-1.327-2.945,3.882,3.882,0,0,1,1.619-3.352,7.987,7.987,0,0,1,4.678-1.181h1.688v-.787a2.264,2.264,0,0,0-.489-1.523,1.923,1.923,0,0,0-1.542-.571,2.186,2.186,0,0,0-1.454.444,1.509,1.509,0,0,0-.527,1.219h-3.669a3.685,3.685,0,0,1,.736-2.209,4.867,4.867,0,0,1,2.082-1.593,7.588,7.588,0,0,1,3.021-.578,6,6,0,0,1,4.031,1.276,4.463,4.463,0,0,1,1.492,3.586v5.954a6.567,6.567,0,0,0,.546,2.958V0Zm-3.034-2.552a3.16,3.16,0,0,0,1.5-.362,2.376,2.376,0,0,0,1.016-.971V-6.246h-1.371q-2.755,0-2.933,1.9l-.013.216A1.469,1.469,0,0,0,155.7-3,1.874,1.874,0,0,0,157.016-2.552ZM165.5-6.97a8.05,8.05,0,0,1,1.5-5.091,4.875,4.875,0,0,1,4.056-1.93,4.275,4.275,0,0,1,3.517,1.549l.152-1.295h3.326V-.457a5.871,5.871,0,0,1-.819,3.136,5.259,5.259,0,0,1-2.3,2.031,8.1,8.1,0,0,1-3.479.7,7.532,7.532,0,0,1-2.945-.6,5.228,5.228,0,0,1-2.171-1.555l1.625-2.234a4.3,4.3,0,0,0,3.326,1.536,3.146,3.146,0,0,0,2.272-.781,2.928,2.928,0,0,0,.813-2.215v-.736A4.244,4.244,0,0,1,171.031.254a4.862,4.862,0,0,1-4.005-1.936,8.048,8.048,0,0,1-1.53-5.135Zm3.669.273a5.013,5.013,0,0,0,.749,2.931A2.383,2.383,0,0,0,171.971-2.7a2.548,2.548,0,0,0,2.4-1.259V-9.748A2.542,2.542,0,0,0,172-11.007a2.4,2.4,0,0,0-2.076,1.081A5.65,5.65,0,0,0,169.165-6.7ZM189.1-1.4a4.6,4.6,0,0,1-3.758,1.65,4.339,4.339,0,0,1-3.371-1.27,5.419,5.419,0,0,1-1.187-3.72v-9h3.669v8.884q0,2.148,1.955,2.148A2.649,2.649,0,0,0,188.97-4v-9.736h3.682V0H189.2ZM203.379,0a4.074,4.074,0,0,1-.368-1.231A4.439,4.439,0,0,1,199.545.254,4.877,4.877,0,0,1,196.2-.914a3.756,3.756,0,0,1-1.327-2.945,3.882,3.882,0,0,1,1.619-3.352,7.987,7.987,0,0,1,4.678-1.181h1.688v-.787a2.264,2.264,0,0,0-.489-1.523,1.923,1.923,0,0,0-1.542-.571,2.186,2.186,0,0,0-1.454.444,1.509,1.509,0,0,0-.527,1.219h-3.669a3.685,3.685,0,0,1,.736-2.209A4.867,4.867,0,0,1,198-13.413a7.588,7.588,0,0,1,3.021-.578,6,6,0,0,1,4.031,1.276,4.463,4.463,0,0,1,1.492,3.586v5.954a6.567,6.567,0,0,0,.546,2.958V0Zm-3.034-2.552a3.16,3.16,0,0,0,1.5-.362,2.376,2.376,0,0,0,1.016-.971V-6.246h-1.371q-2.755,0-2.933,1.9l-.013.216A1.469,1.469,0,0,0,199.024-3,1.874,1.874,0,0,0,200.345-2.552Z" transform="translate(1016.146 5862.472)"/>
    <path id="Trazado_160499" data-name="Trazado 160499" d="M11.235-4.85a1.954,1.954,0,0,0-.762-1.657A9.991,9.991,0,0,0,7.731-7.725,19.439,19.439,0,0,1,4.6-8.988q-3.148-1.7-3.148-4.583a4.464,4.464,0,0,1,.844-2.672,5.507,5.507,0,0,1,2.425-1.834,9.127,9.127,0,0,1,3.548-.66,8.307,8.307,0,0,1,3.529.717A5.62,5.62,0,0,1,14.2-16a5.3,5.3,0,0,1,.857,2.971H11.248a2.493,2.493,0,0,0-.8-1.974A3.288,3.288,0,0,0,8.2-15.7a3.513,3.513,0,0,0-2.171.59,1.862,1.862,0,0,0-.774,1.555,1.783,1.783,0,0,0,.908,1.511,10.255,10.255,0,0,0,2.672,1.143A11.547,11.547,0,0,1,13.571-8.48a4.829,4.829,0,0,1,1.485,3.605,4.448,4.448,0,0,1-1.815,3.764A7.948,7.948,0,0,1,8.354.254,9.438,9.438,0,0,1,4.469-.527,6.147,6.147,0,0,1,1.8-2.666a5.478,5.478,0,0,1-.92-3.148H4.7q0,3.06,3.656,3.06a3.557,3.557,0,0,0,2.12-.552A1.8,1.8,0,0,0,11.235-4.85ZM23.715.254A6.743,6.743,0,0,1,18.8-1.6a6.588,6.588,0,0,1-1.9-4.938v-.355a8.3,8.3,0,0,1,.8-3.7,5.87,5.87,0,0,1,2.266-2.514,6.36,6.36,0,0,1,3.345-.882,5.7,5.7,0,0,1,4.437,1.777,7.222,7.222,0,0,1,1.619,5.04v1.5H20.617A3.408,3.408,0,0,0,21.69-3.517a3.243,3.243,0,0,0,2.266.813A3.96,3.96,0,0,0,27.27-4.24l1.8,2.019A5.508,5.508,0,0,1,26.838-.4,7.331,7.331,0,0,1,23.715.254ZM23.3-11.032a2.293,2.293,0,0,0-1.771.74,3.83,3.83,0,0,0-.87,2.117h5.1v-.293a2.731,2.731,0,0,0-.66-1.894A2.365,2.365,0,0,0,23.3-11.032Zm11.527-2.7.114,1.587a4.8,4.8,0,0,1,3.948-1.841,3.986,3.986,0,0,1,3.25,1.282,5.983,5.983,0,0,1,1.092,3.834V0H39.559V-8.785a2.38,2.38,0,0,0-.508-1.695,2.273,2.273,0,0,0-1.688-.527,2.524,2.524,0,0,0-2.323,1.32V0H31.37V-13.736ZM45.437-6.97a8.278,8.278,0,0,1,1.441-5.116,4.675,4.675,0,0,1,3.942-1.9,4.207,4.207,0,0,1,3.313,1.5V-19.5h3.682V0H54.5l-.178-1.46A4.318,4.318,0,0,1,50.794.254,4.663,4.663,0,0,1,46.9-1.657,8.545,8.545,0,0,1,45.437-6.97Zm3.669.273a5.423,5.423,0,0,0,.673,2.963A2.192,2.192,0,0,0,51.733-2.7a2.455,2.455,0,0,0,2.4-1.437V-9.57a2.42,2.42,0,0,0-2.374-1.437Q49.105-11.007,49.105-6.7ZM68.618,0a4.074,4.074,0,0,1-.368-1.231A4.439,4.439,0,0,1,64.784.254,4.877,4.877,0,0,1,61.439-.914a3.756,3.756,0,0,1-1.327-2.945,3.882,3.882,0,0,1,1.619-3.352,7.987,7.987,0,0,1,4.678-1.181H68.1v-.787a2.264,2.264,0,0,0-.489-1.523,1.923,1.923,0,0,0-1.542-.571,2.186,2.186,0,0,0-1.454.444,1.509,1.509,0,0,0-.527,1.219H60.417a3.685,3.685,0,0,1,.736-2.209,4.867,4.867,0,0,1,2.082-1.593,7.588,7.588,0,0,1,3.021-.578,6,6,0,0,1,4.031,1.276,4.463,4.463,0,0,1,1.492,3.586v5.954a6.567,6.567,0,0,0,.546,2.958V0ZM65.584-2.552a3.16,3.16,0,0,0,1.5-.362A2.376,2.376,0,0,0,68.1-3.885V-6.246H66.727q-2.755,0-2.933,1.9l-.013.216A1.469,1.469,0,0,0,64.264-3,1.874,1.874,0,0,0,65.584-2.552Z" transform="translate(1025.16 5924.857)"/>
    <g id="Grupo_78531" data-name="Grupo 78531" transform="translate(315.075 5496.459)">
      <g id="Grupo_78530" data-name="Grupo 78530" clip-path="url(#clip-path)">
        <text id="Objetos_hechos_por_el" data-name="Objetos hechos por el" transform="translate(703.518 488.83)" font-size="26" font-family="Roboto-Bold, Roboto" font-weight="700"><tspan x="0" y="0">Objetos hechos por el</tspan></text>
        <text id="hombre" transform="translate(703.518 521.606)" font-size="26" font-family="Roboto-Bold, Roboto" font-weight="700"><tspan x="0" y="0">hombre</tspan></text>
        <text id="Terreno_abierto_semi_abierto_" data-name="Terreno abierto/ semi abierto  " transform="translate(699.042 96.117)" font-size="19" font-family="Roboto-Bold, Roboto" font-weight="700"><tspan x="0" y="0" letter-spacing="-0.051em">T</tspan><tspan y="0">erreno abie</tspan><tspan y="0" letter-spacing="0.013em">r</tspan><tspan y="0">to/ semi abie</tspan><tspan y="0" letter-spacing="0.013em">r</tspan><tspan y="0" xml:space="preserve">to  </tspan></text>
      </g>
    </g>
    <path id="Trazado_160509" data-name="Trazado 160509" d="M3.859,0H1.169V-10.038h2.69ZM1.011-12.636a1.32,1.32,0,0,1,.4-.993,1.516,1.516,0,0,1,1.1-.39,1.52,1.52,0,0,1,1.095.39,1.313,1.313,0,0,1,.408.993,1.316,1.316,0,0,1-.413,1,1.523,1.523,0,0,1-1.09.39,1.523,1.523,0,0,1-1.09-.39A1.316,1.316,0,0,1,1.011-12.636Zm10.7,5.112a7.284,7.284,0,0,0-.965-.074,1.964,1.964,0,0,0-1.995,1.03V0H6.067V-10.038H8.6l.074,1.2a2.484,2.484,0,0,1,2.236-1.382,2.809,2.809,0,0,1,.835.121Zm6.93,0a7.284,7.284,0,0,0-.965-.074,1.964,1.964,0,0,0-1.995,1.03V0H13V-10.038H15.53l.074,1.2a2.484,2.484,0,0,1,2.236-1.382,2.809,2.809,0,0,1,.835.121ZM24.548.186a4.928,4.928,0,0,1-3.595-1.354,4.815,4.815,0,0,1-1.387-3.609v-.26a6.064,6.064,0,0,1,.584-2.7,4.289,4.289,0,0,1,1.656-1.837,4.648,4.648,0,0,1,2.445-.645,4.166,4.166,0,0,1,3.242,1.3,5.278,5.278,0,0,1,1.183,3.683v1.095H22.284a2.491,2.491,0,0,0,.784,1.577,2.37,2.37,0,0,0,1.656.594A2.894,2.894,0,0,0,27.146-3.1l1.317,1.475A4.025,4.025,0,0,1,26.83-.292,5.357,5.357,0,0,1,24.548.186Zm-.306-8.248a1.675,1.675,0,0,0-1.294.54,2.8,2.8,0,0,0-.635,1.547h3.729v-.214a2,2,0,0,0-.482-1.384A1.729,1.729,0,0,0,24.242-8.062Zm5.566,2.969a5.883,5.883,0,0,1,1.1-3.72,3.562,3.562,0,0,1,2.964-1.41,3.124,3.124,0,0,1,2.57,1.132l.111-.946h2.431v9.7a4.29,4.29,0,0,1-.6,2.292A3.843,3.843,0,0,1,36.7,3.442a5.919,5.919,0,0,1-2.542.51,5.5,5.5,0,0,1-2.152-.441A3.82,3.82,0,0,1,30.42,2.375L31.608.742a3.141,3.141,0,0,0,2.431,1.123A2.3,2.3,0,0,0,35.7,1.294a2.14,2.14,0,0,0,.594-1.619V-.863A3.1,3.1,0,0,1,33.853.186a3.553,3.553,0,0,1-2.927-1.415,5.881,5.881,0,0,1-1.118-3.753Zm2.681.2a3.663,3.663,0,0,0,.547,2.142,1.741,1.741,0,0,0,1.5.776,1.862,1.862,0,0,0,1.753-.92V-7.124a1.857,1.857,0,0,0-1.735-.92,1.752,1.752,0,0,0-1.517.79A4.129,4.129,0,0,0,32.489-4.894ZM47.055-1.021A3.362,3.362,0,0,1,44.309.186a3.171,3.171,0,0,1-2.463-.928,3.96,3.96,0,0,1-.867-2.718v-6.578h2.681v6.492q0,1.57,1.429,1.57a1.936,1.936,0,0,0,1.874-.947v-7.115h2.69V0H47.129ZM54.5,0h-2.69V-14.25H54.5Zm8.025,0a2.977,2.977,0,0,1-.269-.9A3.244,3.244,0,0,1,59.728.186a3.564,3.564,0,0,1-2.445-.854,2.745,2.745,0,0,1-.969-2.152A2.837,2.837,0,0,1,57.5-5.27a5.837,5.837,0,0,1,3.419-.863h1.234v-.575a1.654,1.654,0,0,0-.357-1.113,1.405,1.405,0,0,0-1.127-.417,1.6,1.6,0,0,0-1.062.325,1.1,1.1,0,0,0-.385.891H56.536a2.693,2.693,0,0,1,.538-1.614A3.557,3.557,0,0,1,58.6-9.8a5.545,5.545,0,0,1,2.208-.422,4.381,4.381,0,0,1,2.946.932,3.262,3.262,0,0,1,1.09,2.621v4.351a4.8,4.8,0,0,0,.4,2.162V0ZM60.312-1.865a2.309,2.309,0,0,0,1.095-.264,1.737,1.737,0,0,0,.742-.71V-4.564h-1q-2.013,0-2.143,1.392l-.009.158a1.073,1.073,0,0,0,.353.826A1.369,1.369,0,0,0,60.312-1.865ZM72.54-7.524a7.284,7.284,0,0,0-.965-.074,1.964,1.964,0,0,0-1.995,1.03V0H66.9V-10.038h2.533l.074,1.2a2.484,2.484,0,0,1,2.236-1.382,2.809,2.809,0,0,1,.835.121Z" transform="translate(1014.116 5616.504)"/>
    <path id="Trazado_160510" data-name="Trazado 160510" d="M6.627-18.484,11.375-5.078,16.1-18.484h5V0H17.278V-5.053l.381-8.722L12.67,0H10.055L5.078-13.762l.381,8.709V0H1.65V-18.484ZM32.411-1.4A4.6,4.6,0,0,1,28.653.254a4.339,4.339,0,0,1-3.371-1.27A5.419,5.419,0,0,1,24.1-4.735v-9h3.669v8.884q0,2.148,1.955,2.148A2.649,2.649,0,0,0,32.284-4v-9.736h3.682V0H32.513Zm14.041-8.9a9.968,9.968,0,0,0-1.32-.1A2.687,2.687,0,0,0,42.4-8.988V0H38.733V-13.736H42.2l.1,1.638a3.4,3.4,0,0,1,3.06-1.892,3.844,3.844,0,0,1,1.143.165ZM47.188-7a8.146,8.146,0,0,1,.787-3.644,5.762,5.762,0,0,1,2.266-2.476,6.611,6.611,0,0,1,3.434-.876,6.255,6.255,0,0,1,4.539,1.7,6.827,6.827,0,0,1,1.961,4.621l.025.939a7.18,7.18,0,0,1-1.765,5.072A6.134,6.134,0,0,1,53.7.254a6.164,6.164,0,0,1-4.742-1.9,7.306,7.306,0,0,1-1.771-5.18Zm3.669.26a5.135,5.135,0,0,0,.736,2.994A2.429,2.429,0,0,0,53.7-2.7a2.435,2.435,0,0,0,2.082-1.024A5.618,5.618,0,0,0,56.532-7a5.083,5.083,0,0,0-.749-2.975,2.435,2.435,0,0,0-2.107-1.055,2.4,2.4,0,0,0-2.082,1.049A5.713,5.713,0,0,0,50.857-6.735Z" transform="translate(529.925 5606.631)"/>
    <path id="Trazado_160508" data-name="Trazado 160508" d="M8.48-4.583l4.189-13.9h4.24L10.474,0H6.5L.089-18.484H4.316ZM25.108,0a4.074,4.074,0,0,1-.368-1.231A4.439,4.439,0,0,1,21.274.254,4.877,4.877,0,0,1,17.929-.914,3.756,3.756,0,0,1,16.6-3.859a3.882,3.882,0,0,1,1.619-3.352A7.987,7.987,0,0,1,22.9-8.392h1.688v-.787A2.264,2.264,0,0,0,24.1-10.7a1.923,1.923,0,0,0-1.542-.571,2.186,2.186,0,0,0-1.454.444,1.509,1.509,0,0,0-.527,1.219H16.907a3.685,3.685,0,0,1,.736-2.209,4.867,4.867,0,0,1,2.082-1.593,7.588,7.588,0,0,1,3.021-.578,6,6,0,0,1,4.031,1.276,4.463,4.463,0,0,1,1.492,3.586v5.954a6.567,6.567,0,0,0,.546,2.958V0ZM22.074-2.552a3.16,3.16,0,0,0,1.5-.362,2.376,2.376,0,0,0,1.016-.971V-6.246H23.217q-2.755,0-2.933,1.9l-.013.216A1.469,1.469,0,0,0,20.754-3,1.874,1.874,0,0,0,22.074-2.552ZM34.96,0H31.278V-19.5H34.96Zm6.894,0H38.172V-19.5h3.682ZM52.835,0a4.074,4.074,0,0,1-.368-1.231A4.439,4.439,0,0,1,49,.254,4.877,4.877,0,0,1,45.656-.914a3.756,3.756,0,0,1-1.327-2.945,3.882,3.882,0,0,1,1.619-3.352,7.987,7.987,0,0,1,4.678-1.181h1.688v-.787a2.264,2.264,0,0,0-.489-1.523,1.923,1.923,0,0,0-1.542-.571,2.186,2.186,0,0,0-1.454.444A1.509,1.509,0,0,0,48.3-9.61H44.634a3.685,3.685,0,0,1,.736-2.209,4.867,4.867,0,0,1,2.082-1.593,7.588,7.588,0,0,1,3.021-.578A6,6,0,0,1,54.5-12.714,4.463,4.463,0,0,1,56-9.128v5.954a6.567,6.567,0,0,0,.546,2.958V0ZM49.8-2.552a3.16,3.16,0,0,0,1.5-.362,2.376,2.376,0,0,0,1.016-.971V-6.246H50.943q-2.755,0-2.933,1.9L48-4.126A1.469,1.469,0,0,0,48.48-3,1.874,1.874,0,0,0,49.8-2.552Z" transform="translate(531.755 5667.978)"/>
    <path id="Trazado_160507" data-name="Trazado 160507" d="M12.086-3.809H5.408L4.139,0H.089L6.97-18.484H10.5L17.418,0h-4.05ZM6.437-6.894h4.621L8.734-13.812ZM9.521-23.436h4L10-19.5H7.021Zm17.1,13.14a9.968,9.968,0,0,0-1.32-.1,2.687,2.687,0,0,0-2.729,1.409V0H18.9V-13.736h3.466l.1,1.638a3.4,3.4,0,0,1,3.06-1.892,3.844,3.844,0,0,1,1.143.165ZM40.765-6.741a8.318,8.318,0,0,1-1.409,5.148A4.668,4.668,0,0,1,35.42.254,4.289,4.289,0,0,1,31.853-1.46L31.688,0h-3.3V-19.5h3.669v7a4.178,4.178,0,0,1,3.339-1.485,4.706,4.706,0,0,1,3.942,1.847,8.33,8.33,0,0,1,1.428,5.2ZM37.1-7.008a5.464,5.464,0,0,0-.66-3.041,2.232,2.232,0,0,0-1.968-.958,2.42,2.42,0,0,0-2.412,1.435v5.421A2.453,2.453,0,0,0,34.493-2.7a2.265,2.265,0,0,0,2.336-1.752A9.038,9.038,0,0,0,37.1-7.008ZM42.453-7a8.146,8.146,0,0,1,.787-3.644,5.762,5.762,0,0,1,2.266-2.476,6.611,6.611,0,0,1,3.434-.876,6.255,6.255,0,0,1,4.539,1.7A6.827,6.827,0,0,1,55.44-7.668l.025.939A7.18,7.18,0,0,1,53.7-1.657,6.134,6.134,0,0,1,48.966.254a6.164,6.164,0,0,1-4.742-1.9,7.306,7.306,0,0,1-1.771-5.18Zm3.669.26a5.135,5.135,0,0,0,.736,2.994A2.429,2.429,0,0,0,48.966-2.7a2.435,2.435,0,0,0,2.082-1.024A5.618,5.618,0,0,0,51.8-7a5.083,5.083,0,0,0-.749-2.975,2.435,2.435,0,0,0-2.107-1.055,2.4,2.4,0,0,0-2.082,1.049A5.713,5.713,0,0,0,46.122-6.735ZM61.6,0H57.916V-19.5H61.6Z" transform="translate(529.461 5744.54)"/>
    <path id="Trazado_160502" data-name="Trazado 160502" d="M15.564-15.4H9.9V0H6.094V-15.4H.508v-3.085H15.564ZM13.112-7a8.146,8.146,0,0,1,.787-3.644,5.762,5.762,0,0,1,2.266-2.476A6.611,6.611,0,0,1,19.6-13.99a6.255,6.255,0,0,1,4.539,1.7A6.827,6.827,0,0,1,26.1-7.668l.025.939A7.18,7.18,0,0,1,24.36-1.657,6.134,6.134,0,0,1,19.625.254a6.164,6.164,0,0,1-4.742-1.9,7.306,7.306,0,0,1-1.771-5.18Zm3.669.26a5.135,5.135,0,0,0,.736,2.994A2.429,2.429,0,0,0,19.625-2.7a2.435,2.435,0,0,0,2.082-1.024A5.618,5.618,0,0,0,22.456-7a5.083,5.083,0,0,0-.749-2.975A2.435,2.435,0,0,0,19.6-11.032a2.4,2.4,0,0,0-2.082,1.049A5.713,5.713,0,0,0,16.781-6.735ZM34.1-2.7a2.406,2.406,0,0,0,1.65-.559,1.957,1.957,0,0,0,.66-1.485h3.44a4.706,4.706,0,0,1-.762,2.558,5.026,5.026,0,0,1-2.05,1.8,6.417,6.417,0,0,1-2.875.641,5.963,5.963,0,0,1-4.646-1.873,7.41,7.41,0,0,1-1.7-5.173v-.241A7.325,7.325,0,0,1,29.5-12.1a5.894,5.894,0,0,1,4.634-1.892,5.778,5.778,0,0,1,4.132,1.466,5.192,5.192,0,0,1,1.581,3.9h-3.44a2.521,2.521,0,0,0-.66-1.742,2.2,2.2,0,0,0-1.676-.67,2.21,2.21,0,0,0-1.936.934,5.416,5.416,0,0,0-.654,3.032v.381a5.485,5.485,0,0,0,.647,3.052A2.237,2.237,0,0,0,34.1-2.7ZM41.372-7a8.146,8.146,0,0,1,.787-3.644,5.762,5.762,0,0,1,2.266-2.476,6.611,6.611,0,0,1,3.434-.876,6.255,6.255,0,0,1,4.539,1.7,6.827,6.827,0,0,1,1.961,4.621l.025.939A7.18,7.18,0,0,1,52.62-1.657,6.134,6.134,0,0,1,47.885.254a6.164,6.164,0,0,1-4.742-1.9,7.306,7.306,0,0,1-1.771-5.18Zm3.669.26a5.135,5.135,0,0,0,.736,2.994A2.429,2.429,0,0,0,47.885-2.7a2.435,2.435,0,0,0,2.082-1.024A5.618,5.618,0,0,0,50.716-7a5.083,5.083,0,0,0-.749-2.975,2.435,2.435,0,0,0-2.107-1.055,2.4,2.4,0,0,0-2.082,1.049A5.713,5.713,0,0,0,45.041-6.735ZM48.583-19.5h4l-3.517,3.936H46.082Zm11.438,5.764.114,1.587a4.8,4.8,0,0,1,3.948-1.841,3.986,3.986,0,0,1,3.25,1.282,5.983,5.983,0,0,1,1.092,3.834V0H64.757V-8.785a2.38,2.38,0,0,0-.508-1.695,2.273,2.273,0,0,0-1.688-.527,2.524,2.524,0,0,0-2.323,1.32V0H56.568V-13.736ZM77.109-6.97a8.278,8.278,0,0,1,1.441-5.116,4.675,4.675,0,0,1,3.942-1.9,4.207,4.207,0,0,1,3.313,1.5V-19.5h3.682V0H86.174L86-1.46A4.318,4.318,0,0,1,82.467.254a4.663,4.663,0,0,1-3.891-1.911A8.545,8.545,0,0,1,77.109-6.97Zm3.669.273a5.423,5.423,0,0,0,.673,2.963A2.192,2.192,0,0,0,83.406-2.7a2.455,2.455,0,0,0,2.4-1.437V-9.57a2.42,2.42,0,0,0-2.374-1.437Q80.778-11.007,80.778-6.7ZM98.653.254A6.743,6.743,0,0,1,93.734-1.6a6.588,6.588,0,0,1-1.9-4.938v-.355a8.3,8.3,0,0,1,.8-3.7A5.87,5.87,0,0,1,94.9-13.108a6.36,6.36,0,0,1,3.345-.882,5.7,5.7,0,0,1,4.437,1.777,7.222,7.222,0,0,1,1.619,5.04v1.5H95.556a3.408,3.408,0,0,0,1.073,2.158,3.243,3.243,0,0,0,2.266.813,3.96,3.96,0,0,0,3.313-1.536l1.8,2.019A5.508,5.508,0,0,1,101.776-.4,7.331,7.331,0,0,1,98.653.254Zm-.419-11.286a2.293,2.293,0,0,0-1.771.74,3.83,3.83,0,0,0-.87,2.117h5.1v-.293a2.731,2.731,0,0,0-.66-1.894A2.365,2.365,0,0,0,98.234-11.032ZM120.819,0a4.074,4.074,0,0,1-.368-1.231A4.439,4.439,0,0,1,116.985.254,4.877,4.877,0,0,1,113.64-.914a3.756,3.756,0,0,1-1.327-2.945,3.882,3.882,0,0,1,1.619-3.352,7.987,7.987,0,0,1,4.678-1.181H120.3v-.787a2.264,2.264,0,0,0-.489-1.523,1.923,1.923,0,0,0-1.542-.571,2.186,2.186,0,0,0-1.454.444,1.509,1.509,0,0,0-.527,1.219h-3.669a3.686,3.686,0,0,1,.736-2.209,4.867,4.867,0,0,1,2.082-1.593,7.588,7.588,0,0,1,3.021-.578,6,6,0,0,1,4.031,1.276,4.463,4.463,0,0,1,1.492,3.586v5.954a6.567,6.567,0,0,0,.546,2.958V0Zm-3.034-2.552a3.16,3.16,0,0,0,1.5-.362,2.376,2.376,0,0,0,1.016-.971V-6.246h-1.371q-2.755,0-2.933,1.9l-.013.216A1.469,1.469,0,0,0,116.465-3,1.874,1.874,0,0,0,117.785-2.552Zm1.4-16.948h4l-3.517,3.936h-2.983Zm15.336,9.2a9.968,9.968,0,0,0-1.32-.1,2.687,2.687,0,0,0-2.729,1.409V0H126.8V-13.736h3.466l.1,1.638a3.4,3.4,0,0,1,3.06-1.892,3.844,3.844,0,0,1,1.143.165ZM148.66-6.741a8.318,8.318,0,0,1-1.409,5.148A4.668,4.668,0,0,1,143.315.254a4.289,4.289,0,0,1-3.567-1.714L139.583,0h-3.3V-19.5h3.669v7a4.178,4.178,0,0,1,3.339-1.485,4.706,4.706,0,0,1,3.942,1.847,8.33,8.33,0,0,1,1.428,5.2Zm-3.669-.267a5.464,5.464,0,0,0-.66-3.041,2.232,2.232,0,0,0-1.968-.958,2.42,2.42,0,0,0-2.412,1.435v5.421A2.453,2.453,0,0,0,142.389-2.7a2.265,2.265,0,0,0,2.336-1.752A9.038,9.038,0,0,0,144.991-7.008ZM150.349-7a8.147,8.147,0,0,1,.787-3.644,5.762,5.762,0,0,1,2.266-2.476,6.611,6.611,0,0,1,3.434-.876,6.255,6.255,0,0,1,4.539,1.7,6.828,6.828,0,0,1,1.961,4.621l.025.939A7.18,7.18,0,0,1,161.6-1.657,6.134,6.134,0,0,1,156.861.254a6.164,6.164,0,0,1-4.742-1.9,7.306,7.306,0,0,1-1.771-5.18Zm3.669.26a5.135,5.135,0,0,0,.736,2.994A2.429,2.429,0,0,0,156.861-2.7a2.435,2.435,0,0,0,2.082-1.024A5.618,5.618,0,0,0,159.692-7a5.083,5.083,0,0,0-.749-2.975,2.435,2.435,0,0,0-2.107-1.055,2.4,2.4,0,0,0-2.082,1.049A5.713,5.713,0,0,0,154.018-6.735ZM169.493,0h-3.682V-19.5h3.682Zm4.177,1.587H170.94l6.8-20.071h2.729ZM189.945-10.3a9.968,9.968,0,0,0-1.32-.1A2.687,2.687,0,0,0,185.9-8.988V0h-3.669V-13.736h3.466l.1,1.638a3.4,3.4,0,0,1,3.06-1.892,3.844,3.844,0,0,1,1.143.165ZM199.289,0a4.074,4.074,0,0,1-.368-1.231A4.439,4.439,0,0,1,195.455.254,4.877,4.877,0,0,1,192.11-.914a3.756,3.756,0,0,1-1.327-2.945A3.882,3.882,0,0,1,192.4-7.211a7.987,7.987,0,0,1,4.678-1.181h1.688v-.787a2.264,2.264,0,0,0-.489-1.523,1.923,1.923,0,0,0-1.542-.571,2.186,2.186,0,0,0-1.454.444,1.509,1.509,0,0,0-.527,1.219h-3.669a3.685,3.685,0,0,1,.736-2.209,4.867,4.867,0,0,1,2.082-1.593,7.588,7.588,0,0,1,3.021-.578,6,6,0,0,1,4.031,1.276,4.463,4.463,0,0,1,1.492,3.586v5.954A6.567,6.567,0,0,0,203-.216V0Zm-3.034-2.552a3.16,3.16,0,0,0,1.5-.362,2.376,2.376,0,0,0,1.016-.971V-6.246H197.4q-2.755,0-2.933,1.9l-.013.216A1.469,1.469,0,0,0,194.934-3,1.874,1.874,0,0,0,196.255-2.552ZM209.229,0H205.56V-13.736h3.669ZM208.15-19.31h4l-3.517,3.936h-2.983Zm8.455,16.352h6.716V0h-11.4V-2.234l6.462-8.544h-6.271v-2.958h11.007v2.162Z" transform="translate(516.35 5815.282)"/>
    <path id="Trazado_160503" data-name="Trazado 160503" d="M16.161-6.157a6.541,6.541,0,0,1-2.2,4.7A7.736,7.736,0,0,1,8.722.254,6.956,6.956,0,0,1,3.129-2.139a9.812,9.812,0,0,1-2.038-6.57v-1.13a11.08,11.08,0,0,1,.939-4.7,7.04,7.04,0,0,1,2.685-3.117,7.522,7.522,0,0,1,4.056-1.085,7.536,7.536,0,0,1,5.154,1.714,7.029,7.029,0,0,1,2.26,4.812H12.378a3.86,3.86,0,0,0-1-2.6,3.69,3.69,0,0,0-2.609-.806,3.236,3.236,0,0,0-2.85,1.365,7.648,7.648,0,0,0-.971,4.234v1.4a8.186,8.186,0,0,0,.908,4.38A3.176,3.176,0,0,0,8.722-2.856a3.76,3.76,0,0,0,2.634-.806,3.641,3.641,0,0,0,1-2.495ZM17.85-7a8.146,8.146,0,0,1,.787-3.644A5.762,5.762,0,0,1,20.9-13.114a6.611,6.611,0,0,1,3.434-.876,6.255,6.255,0,0,1,4.539,1.7,6.827,6.827,0,0,1,1.961,4.621l.025.939A7.18,7.18,0,0,1,29.1-1.657,6.134,6.134,0,0,1,24.362.254a6.164,6.164,0,0,1-4.742-1.9A7.306,7.306,0,0,1,17.85-6.83Zm3.669.26a5.135,5.135,0,0,0,.736,2.994A2.429,2.429,0,0,0,24.362-2.7a2.435,2.435,0,0,0,2.082-1.024A5.618,5.618,0,0,0,27.193-7a5.083,5.083,0,0,0-.749-2.975,2.435,2.435,0,0,0-2.107-1.055,2.4,2.4,0,0,0-2.082,1.049A5.713,5.713,0,0,0,21.519-6.735ZM40.841-10.3a9.968,9.968,0,0,0-1.32-.1,2.687,2.687,0,0,0-2.729,1.409V0H33.122V-13.736h3.466l.1,1.638a3.4,3.4,0,0,1,3.06-1.892,3.844,3.844,0,0,1,1.143.165Zm7.13-6.817v3.377h2.349v2.691H47.971v6.855A1.637,1.637,0,0,0,48.263-3.1a1.467,1.467,0,0,0,1.117.33,5.851,5.851,0,0,0,1.079-.089v2.78a7.553,7.553,0,0,1-2.222.33q-3.859,0-3.936-3.9v-7.4H42.3v-2.691H44.3v-3.377ZM60.323,0a4.074,4.074,0,0,1-.368-1.231A4.439,4.439,0,0,1,56.489.254,4.877,4.877,0,0,1,53.144-.914a3.756,3.756,0,0,1-1.327-2.945,3.882,3.882,0,0,1,1.619-3.352,7.987,7.987,0,0,1,4.678-1.181H59.8v-.787a2.264,2.264,0,0,0-.489-1.523,1.923,1.923,0,0,0-1.542-.571,2.186,2.186,0,0,0-1.454.444,1.509,1.509,0,0,0-.527,1.219H52.122a3.685,3.685,0,0,1,.736-2.209,4.867,4.867,0,0,1,2.082-1.593,7.588,7.588,0,0,1,3.021-.578,6,6,0,0,1,4.031,1.276,4.463,4.463,0,0,1,1.492,3.586v5.954A6.567,6.567,0,0,0,64.03-.216V0ZM57.289-2.552a3.16,3.16,0,0,0,1.5-.362A2.376,2.376,0,0,0,59.8-3.885V-6.246H58.432q-2.755,0-2.933,1.9l-.013.216A1.469,1.469,0,0,0,55.969-3,1.874,1.874,0,0,0,57.289-2.552ZM65.732-6.97a8.278,8.278,0,0,1,1.441-5.116,4.675,4.675,0,0,1,3.942-1.9,4.207,4.207,0,0,1,3.313,1.5V-19.5h3.682V0H74.8l-.178-1.46A4.318,4.318,0,0,1,71.089.254,4.663,4.663,0,0,1,67.2-1.657,8.545,8.545,0,0,1,65.732-6.97ZM69.4-6.7a5.423,5.423,0,0,0,.673,2.963A2.192,2.192,0,0,0,72.028-2.7a2.455,2.455,0,0,0,2.4-1.437V-9.57a2.42,2.42,0,0,0-2.374-1.437Q69.4-11.007,69.4-6.7ZM80.382-7a8.146,8.146,0,0,1,.787-3.644,5.762,5.762,0,0,1,2.266-2.476,6.611,6.611,0,0,1,3.434-.876,6.255,6.255,0,0,1,4.539,1.7,6.827,6.827,0,0,1,1.961,4.621l.025.939A7.18,7.18,0,0,1,91.63-1.657,6.134,6.134,0,0,1,86.895.254a6.164,6.164,0,0,1-4.742-1.9,7.306,7.306,0,0,1-1.771-5.18Zm3.669.26a5.135,5.135,0,0,0,.736,2.994A2.429,2.429,0,0,0,86.895-2.7a2.435,2.435,0,0,0,2.082-1.024A5.618,5.618,0,0,0,89.726-7a5.083,5.083,0,0,0-.749-2.975,2.435,2.435,0,0,0-2.107-1.055,2.4,2.4,0,0,0-2.082,1.049A5.713,5.713,0,0,0,84.051-6.735Zm17.507-.235A8.278,8.278,0,0,1,103-12.086a4.675,4.675,0,0,1,3.942-1.9,4.207,4.207,0,0,1,3.313,1.5V-19.5h3.682V0h-3.313l-.178-1.46A4.318,4.318,0,0,1,106.915.254a4.663,4.663,0,0,1-3.891-1.911A8.545,8.545,0,0,1,101.558-6.97Zm3.669.273a5.423,5.423,0,0,0,.673,2.963,2.192,2.192,0,0,0,1.955,1.03,2.455,2.455,0,0,0,2.4-1.437V-9.57a2.42,2.42,0,0,0-2.374-1.437Q105.227-11.007,105.227-6.7ZM123.1.254A6.743,6.743,0,0,1,118.182-1.6a6.588,6.588,0,0,1-1.9-4.938v-.355a8.3,8.3,0,0,1,.8-3.7,5.87,5.87,0,0,1,2.266-2.514,6.36,6.36,0,0,1,3.345-.882,5.7,5.7,0,0,1,4.437,1.777,7.222,7.222,0,0,1,1.619,5.04v1.5H120a3.408,3.408,0,0,0,1.073,2.158,3.243,3.243,0,0,0,2.266.813,3.96,3.96,0,0,0,3.313-1.536l1.8,2.019A5.508,5.508,0,0,1,126.225-.4,7.331,7.331,0,0,1,123.1.254Zm-.419-11.286a2.293,2.293,0,0,0-1.771.74,3.83,3.83,0,0,0-.87,2.117h5.1v-.293a2.731,2.731,0,0,0-.66-1.894A2.365,2.365,0,0,0,122.683-11.032Zm26.99,4.291a8.238,8.238,0,0,1-1.441,5.084A4.62,4.62,0,0,1,144.341.254a4.279,4.279,0,0,1-3.364-1.447V5.281h-3.669V-13.736h3.4l.127,1.346a4.312,4.312,0,0,1,3.479-1.6,4.651,4.651,0,0,1,3.948,1.879,8.461,8.461,0,0,1,1.409,5.18ZM146-7.008a5.406,5.406,0,0,0-.679-2.958,2.212,2.212,0,0,0-1.974-1.041,2.4,2.4,0,0,0-2.374,1.32v5.624a2.443,2.443,0,0,0,2.4,1.358Q146-2.7,146-7.008ZM155.817,0h-3.682V-13.736h3.682Zm-3.9-17.291a1.807,1.807,0,0,1,.552-1.358,2.075,2.075,0,0,1,1.5-.533,2.079,2.079,0,0,1,1.5.533,1.8,1.8,0,0,1,.559,1.358,1.8,1.8,0,0,1-.565,1.371,2.084,2.084,0,0,1-1.492.533,2.084,2.084,0,0,1-1.492-.533A1.8,1.8,0,0,1,151.92-17.291ZM165.161.254A6.743,6.743,0,0,1,160.242-1.6a6.588,6.588,0,0,1-1.9-4.938v-.355a8.3,8.3,0,0,1,.8-3.7,5.87,5.87,0,0,1,2.266-2.514,6.36,6.36,0,0,1,3.345-.882,5.7,5.7,0,0,1,4.437,1.777,7.222,7.222,0,0,1,1.619,5.04v1.5h-8.747a3.408,3.408,0,0,0,1.073,2.158A3.243,3.243,0,0,0,165.4-2.7a3.96,3.96,0,0,0,3.313-1.536l1.8,2.019A5.508,5.508,0,0,1,168.284-.4,7.331,7.331,0,0,1,165.161.254Zm-.419-11.286a2.293,2.293,0,0,0-1.771.74,3.83,3.83,0,0,0-.87,2.117h5.1v-.293a2.731,2.731,0,0,0-.66-1.894A2.365,2.365,0,0,0,164.742-11.032Zm7.579,4.063a8.278,8.278,0,0,1,1.441-5.116,4.675,4.675,0,0,1,3.942-1.9,4.207,4.207,0,0,1,3.313,1.5V-19.5H184.7V0h-3.313l-.178-1.46A4.318,4.318,0,0,1,177.679.254a4.663,4.663,0,0,1-3.891-1.911A8.545,8.545,0,0,1,172.321-6.97Zm3.669.273a5.423,5.423,0,0,0,.673,2.963,2.192,2.192,0,0,0,1.955,1.03,2.455,2.455,0,0,0,2.4-1.437V-9.57a2.42,2.42,0,0,0-2.374-1.437Q175.99-11.007,175.99-6.7Zm19.271-3.6a9.968,9.968,0,0,0-1.32-.1,2.687,2.687,0,0,0-2.729,1.409V0h-3.669V-13.736h3.466l.1,1.638a3.4,3.4,0,0,1,3.06-1.892,3.844,3.844,0,0,1,1.143.165ZM204.606,0a4.074,4.074,0,0,1-.368-1.231A4.439,4.439,0,0,1,200.772.254a4.877,4.877,0,0,1-3.345-1.168A3.756,3.756,0,0,1,196.1-3.859a3.882,3.882,0,0,1,1.619-3.352A7.987,7.987,0,0,1,202.4-8.392h1.688v-.787A2.264,2.264,0,0,0,203.6-10.7a1.923,1.923,0,0,0-1.542-.571,2.186,2.186,0,0,0-1.454.444,1.509,1.509,0,0,0-.527,1.219H196.4a3.685,3.685,0,0,1,.736-2.209,4.867,4.867,0,0,1,2.082-1.593,7.588,7.588,0,0,1,3.021-.578,6,6,0,0,1,4.031,1.276,4.463,4.463,0,0,1,1.492,3.586v5.954a6.567,6.567,0,0,0,.546,2.958V0Zm-3.034-2.552a3.16,3.16,0,0,0,1.5-.362,2.376,2.376,0,0,0,1.016-.971V-6.246h-1.371q-2.755,0-2.933,1.9l-.013.216A1.469,1.469,0,0,0,200.251-3,1.874,1.874,0,0,0,201.571-2.552Z" transform="translate(521.457 5901.131)"/>
    <path id="Trazado_160504" data-name="Trazado 160504" d="M16.161-6.157a6.541,6.541,0,0,1-2.2,4.7A7.736,7.736,0,0,1,8.722.254,6.956,6.956,0,0,1,3.129-2.139a9.812,9.812,0,0,1-2.038-6.57v-1.13a11.08,11.08,0,0,1,.939-4.7,7.04,7.04,0,0,1,2.685-3.117,7.522,7.522,0,0,1,4.056-1.085,7.536,7.536,0,0,1,5.154,1.714,7.029,7.029,0,0,1,2.26,4.812H12.378a3.86,3.86,0,0,0-1-2.6,3.69,3.69,0,0,0-2.609-.806,3.236,3.236,0,0,0-2.85,1.365,7.648,7.648,0,0,0-.971,4.234v1.4a8.186,8.186,0,0,0,.908,4.38A3.176,3.176,0,0,0,8.722-2.856a3.76,3.76,0,0,0,2.634-.806,3.641,3.641,0,0,0,1-2.495ZM17.85-7a8.146,8.146,0,0,1,.787-3.644A5.762,5.762,0,0,1,20.9-13.114a6.611,6.611,0,0,1,3.434-.876,6.255,6.255,0,0,1,4.539,1.7,6.827,6.827,0,0,1,1.961,4.621l.025.939A7.18,7.18,0,0,1,29.1-1.657,6.134,6.134,0,0,1,24.362.254a6.164,6.164,0,0,1-4.742-1.9A7.306,7.306,0,0,1,17.85-6.83Zm3.669.26a5.135,5.135,0,0,0,.736,2.994A2.429,2.429,0,0,0,24.362-2.7a2.435,2.435,0,0,0,2.082-1.024A5.618,5.618,0,0,0,27.193-7a5.083,5.083,0,0,0-.749-2.975,2.435,2.435,0,0,0-2.107-1.055,2.4,2.4,0,0,0-2.082,1.049A5.713,5.713,0,0,0,21.519-6.735ZM40.841-10.3a9.968,9.968,0,0,0-1.32-.1,2.687,2.687,0,0,0-2.729,1.409V0H33.122V-13.736h3.466l.1,1.638a3.4,3.4,0,0,1,3.06-1.892,3.844,3.844,0,0,1,1.143.165Zm7.13-6.817v3.377h2.349v2.691H47.971v6.855A1.637,1.637,0,0,0,48.263-3.1a1.467,1.467,0,0,0,1.117.33,5.851,5.851,0,0,0,1.079-.089v2.78a7.553,7.553,0,0,1-2.222.33q-3.859,0-3.936-3.9v-7.4H42.3v-2.691H44.3v-3.377ZM60.323,0a4.074,4.074,0,0,1-.368-1.231A4.439,4.439,0,0,1,56.489.254,4.877,4.877,0,0,1,53.144-.914a3.756,3.756,0,0,1-1.327-2.945,3.882,3.882,0,0,1,1.619-3.352,7.987,7.987,0,0,1,4.678-1.181H59.8v-.787a2.264,2.264,0,0,0-.489-1.523,1.923,1.923,0,0,0-1.542-.571,2.186,2.186,0,0,0-1.454.444,1.509,1.509,0,0,0-.527,1.219H52.122a3.685,3.685,0,0,1,.736-2.209,4.867,4.867,0,0,1,2.082-1.593,7.588,7.588,0,0,1,3.021-.578,6,6,0,0,1,4.031,1.276,4.463,4.463,0,0,1,1.492,3.586v5.954A6.567,6.567,0,0,0,64.03-.216V0ZM57.289-2.552a3.16,3.16,0,0,0,1.5-.362A2.376,2.376,0,0,0,59.8-3.885V-6.246H58.432q-2.755,0-2.933,1.9l-.013.216A1.469,1.469,0,0,0,55.969-3,1.874,1.874,0,0,0,57.289-2.552ZM65.732-6.97a8.278,8.278,0,0,1,1.441-5.116,4.675,4.675,0,0,1,3.942-1.9,4.207,4.207,0,0,1,3.313,1.5V-19.5h3.682V0H74.8l-.178-1.46A4.318,4.318,0,0,1,71.089.254,4.663,4.663,0,0,1,67.2-1.657,8.545,8.545,0,0,1,65.732-6.97ZM69.4-6.7a5.423,5.423,0,0,0,.673,2.963A2.192,2.192,0,0,0,72.028-2.7a2.455,2.455,0,0,0,2.4-1.437V-9.57a2.42,2.42,0,0,0-2.374-1.437Q69.4-11.007,69.4-6.7ZM80.382-7a8.146,8.146,0,0,1,.787-3.644,5.762,5.762,0,0,1,2.266-2.476,6.611,6.611,0,0,1,3.434-.876,6.255,6.255,0,0,1,4.539,1.7,6.827,6.827,0,0,1,1.961,4.621l.025.939A7.18,7.18,0,0,1,91.63-1.657,6.134,6.134,0,0,1,86.895.254a6.164,6.164,0,0,1-4.742-1.9,7.306,7.306,0,0,1-1.771-5.18Zm3.669.26a5.135,5.135,0,0,0,.736,2.994A2.429,2.429,0,0,0,86.895-2.7a2.435,2.435,0,0,0,2.082-1.024A5.618,5.618,0,0,0,89.726-7a5.083,5.083,0,0,0-.749-2.975,2.435,2.435,0,0,0-2.107-1.055,2.4,2.4,0,0,0-2.082,1.049A5.713,5.713,0,0,0,84.051-6.735Zm17.507-.235A8.278,8.278,0,0,1,103-12.086a4.675,4.675,0,0,1,3.942-1.9,4.207,4.207,0,0,1,3.313,1.5V-19.5h3.682V0h-3.313l-.178-1.46A4.318,4.318,0,0,1,106.915.254a4.663,4.663,0,0,1-3.891-1.911A8.545,8.545,0,0,1,101.558-6.97Zm3.669.273a5.423,5.423,0,0,0,.673,2.963,2.192,2.192,0,0,0,1.955,1.03,2.455,2.455,0,0,0,2.4-1.437V-9.57a2.42,2.42,0,0,0-2.374-1.437Q105.227-11.007,105.227-6.7ZM123.1.254A6.743,6.743,0,0,1,118.182-1.6a6.588,6.588,0,0,1-1.9-4.938v-.355a8.3,8.3,0,0,1,.8-3.7,5.87,5.87,0,0,1,2.266-2.514,6.36,6.36,0,0,1,3.345-.882,5.7,5.7,0,0,1,4.437,1.777,7.222,7.222,0,0,1,1.619,5.04v1.5H120a3.408,3.408,0,0,0,1.073,2.158,3.243,3.243,0,0,0,2.266.813,3.96,3.96,0,0,0,3.313-1.536l1.8,2.019A5.508,5.508,0,0,1,126.225-.4,7.331,7.331,0,0,1,123.1.254Zm-.419-11.286a2.293,2.293,0,0,0-1.771.74,3.83,3.83,0,0,0-.87,2.117h5.1v-.293a2.731,2.731,0,0,0-.66-1.894A2.365,2.365,0,0,0,122.683-11.032ZM141.7-17.113v3.377h2.349v2.691H141.7v6.855a1.637,1.637,0,0,0,.292,1.092,1.467,1.467,0,0,0,1.117.33,5.851,5.851,0,0,0,1.079-.089v2.78a7.553,7.553,0,0,1-2.222.33q-3.859,0-3.936-3.9v-7.4h-2.006v-2.691h2.006v-3.377ZM149.965,0h-3.682V-13.736h3.682Zm-3.9-17.291a1.807,1.807,0,0,1,.552-1.358,2.075,2.075,0,0,1,1.5-.533,2.079,2.079,0,0,1,1.5.533,1.8,1.8,0,0,1,.559,1.358,1.8,1.8,0,0,1-.565,1.371,2.084,2.084,0,0,1-1.492.533,2.084,2.084,0,0,1-1.492-.533A1.8,1.8,0,0,1,146.067-17.291ZM159.309.254A6.743,6.743,0,0,1,154.389-1.6a6.588,6.588,0,0,1-1.9-4.938v-.355a8.3,8.3,0,0,1,.8-3.7,5.87,5.87,0,0,1,2.266-2.514,6.36,6.36,0,0,1,3.345-.882,5.7,5.7,0,0,1,4.437,1.777,7.222,7.222,0,0,1,1.619,5.04v1.5h-8.747a3.408,3.408,0,0,0,1.073,2.158,3.243,3.243,0,0,0,2.266.813,3.96,3.96,0,0,0,3.313-1.536l1.8,2.019A5.508,5.508,0,0,1,162.432-.4,7.331,7.331,0,0,1,159.309.254Zm-.419-11.286a2.293,2.293,0,0,0-1.771.74,3.83,3.83,0,0,0-.87,2.117h5.1v-.293a2.731,2.731,0,0,0-.66-1.894A2.365,2.365,0,0,0,158.89-11.032Zm15.869.736a9.968,9.968,0,0,0-1.32-.1,2.687,2.687,0,0,0-2.729,1.409V0H167.04V-13.736h3.466l.1,1.638a3.4,3.4,0,0,1,3.06-1.892,3.844,3.844,0,0,1,1.143.165Zm9.483,0a9.968,9.968,0,0,0-1.32-.1,2.687,2.687,0,0,0-2.729,1.409V0h-3.669V-13.736h3.466l.1,1.638a3.4,3.4,0,0,1,3.06-1.892,3.844,3.844,0,0,1,1.143.165ZM193.586,0a4.074,4.074,0,0,1-.368-1.231A4.439,4.439,0,0,1,189.752.254a4.877,4.877,0,0,1-3.345-1.168,3.756,3.756,0,0,1-1.327-2.945A3.882,3.882,0,0,1,186.7-7.211a7.987,7.987,0,0,1,4.678-1.181h1.688v-.787a2.264,2.264,0,0,0-.489-1.523,1.923,1.923,0,0,0-1.542-.571,2.186,2.186,0,0,0-1.454.444,1.509,1.509,0,0,0-.527,1.219h-3.669a3.685,3.685,0,0,1,.736-2.209,4.867,4.867,0,0,1,2.082-1.593,7.588,7.588,0,0,1,3.021-.578,6,6,0,0,1,4.031,1.276,4.463,4.463,0,0,1,1.492,3.586v5.954a6.567,6.567,0,0,0,.546,2.958V0Zm-3.034-2.552a3.16,3.16,0,0,0,1.5-.362,2.376,2.376,0,0,0,1.016-.971V-6.246h-1.371q-2.755,0-2.933,1.9l-.013.216A1.469,1.469,0,0,0,189.232-3,1.874,1.874,0,0,0,190.552-2.552Z" transform="translate(520.638 5985.312)"/>
    <g id="Grupo_78533" data-name="Grupo 78533" transform="translate(315.075 5496.459)">
      <g id="Grupo_78532" data-name="Grupo 78532" clip-path="url(#clip-path)">
        <rect id="Rectángulo_5712" data-name="Rectángulo 5712" width="161.851" height="55.517" transform="translate(511.07 5.33)" fill="#feae45"/>
        <rect id="Rectángulo_5713" data-name="Rectángulo 5713" width="161.851" height="55.517" transform="translate(511.07 5.33)" fill="none" stroke="#000" stroke-miterlimit="10" stroke-width="1"/>
        <rect id="Rectángulo_5714" data-name="Rectángulo 5714" width="161.851" height="55.517" transform="translate(511.07 74.278)" fill="#eecbb8"/>
        <rect id="Rectángulo_5715" data-name="Rectángulo 5715" width="161.851" height="55.517" transform="translate(511.07 74.278)" fill="none" stroke="#000" stroke-miterlimit="10" stroke-width="1"/>
        <rect id="Rectángulo_5716" data-name="Rectángulo 5716" width="161.851" height="55.517" transform="translate(511.07 143.227)" fill="#fff"/>
        <rect id="Rectángulo_5717" data-name="Rectángulo 5717" width="161.851" height="55.517" transform="translate(511.07 143.227)" fill="none" stroke="#000" stroke-miterlimit="10" stroke-width="1"/>
        <path id="Trazado_160076" data-name="Trazado 160076" d="M493.522,192.258c0,5.9-15.368,10.689-34.325,10.689s-34.324-4.786-34.324-10.689,15.367-10.689,34.324-10.689,34.325,4.786,34.325,10.689" transform="translate(108.809 46.499)" fill="#51e070"/>
        <path id="Trazado_160077" data-name="Trazado 160077" d="M514.612,182.018c-3.286,6.316-2.021,13.478,2.824,16s11.434-.556,14.72-6.872,2.021-13.479-2.824-16-11.434.556-14.72,6.872" transform="translate(131.323 44.629)" fill="#51e070"/>
        <path id="Trazado_160078" data-name="Trazado 160078" d="M533.909,241.084c0,12.889-23.185,23.338-51.786,23.338s-51.785-10.449-51.785-23.338,23.185-23.337,51.785-23.337,51.786,10.449,51.786,23.337" transform="translate(110.208 55.764)" fill="#9dcdf1"/>
        <path id="Trazado_160079" data-name="Trazado 160079" d="M405.98,294.05s11.193,4.589,31.788-1.455,28.654-6.268,35.818-6.044,17.685,1.566,25.072,6.268,17.461,4.03,24.177,1.231,17.461-2.2,24.848,2.2,25.52,1.717,25.52,1.717" transform="translate(103.97 73.371)" fill="none" stroke="#1273af" stroke-miterlimit="10" stroke-width="3"/>
        <path id="Trazado_160080" data-name="Trazado 160080" d="M405.98,340.844s11.193,4.589,31.788-1.455,28.654-6.269,35.818-6.044,17.685,1.566,25.072,6.268,17.461,4.03,24.177,1.231,17.461-2.2,24.848,2.2,25.52,1.717,25.52,1.717" transform="translate(103.97 85.355)" fill="none" stroke="#000" stroke-miterlimit="10" stroke-width="3" stroke-dasharray="8 8"/>
      </g>
    </g>
  </g>
</svg>
