<svg id="Grupo_78534" data-name="Grupo 78534" xmlns="http://www.w3.org/2000/svg" xmlns:xlink="http://www.w3.org/1999/xlink" width="772.114" height="422.249" viewBox="0 0 772.114 422.249">
  <defs>
    <clipPath id="clip-path">
      <rect id="Rectángulo_5710" data-name="Rectángulo 5710" width="772.114" height="422.249" fill="none"/>
    </clipPath>
  </defs>
  <path id="Trazado_160068" data-name="Trazado 160068" d="M140.079.5H5.168V52.718H91.6V36.856h48.475Z" fill="#6a6865"/>
  <g id="Grupo_78529" data-name="Grupo 78529">
    <g id="Grupo_78528" data-name="Grupo 78528" clip-path="url(#clip-path)">
      <path id="Trazado_160069" data-name="Trazado 160069" d="M140.079.5H5.168V52.718H91.6V36.856h48.475Z" fill="none" stroke="#000" stroke-miterlimit="10" stroke-width="1"/>
      <line id="Línea_149" data-name="Línea 149" x2="140.079" transform="translate(0 81.054)" fill="none" stroke="#000" stroke-miterlimit="10" stroke-width="2"/>
      <line id="Línea_150" data-name="Línea 150" x2="140.079" transform="translate(0 131.668)" fill="none" stroke="#000" stroke-miterlimit="10" stroke-width="2"/>
      <path id="Trazado_160070" data-name="Trazado 160070" d="M20.555,81.054a2.911,2.911,0,1,1-2.912-2.911,2.911,2.911,0,0,1,2.912,2.911"/>
      <path id="Trazado_160071" data-name="Trazado 160071" d="M54.238,81.054a2.911,2.911,0,1,1-2.911-2.911,2.911,2.911,0,0,1,2.911,2.911"/>
      <path id="Trazado_160072" data-name="Trazado 160072" d="M89.257,81.054a2.911,2.911,0,1,1-2.911-2.911,2.911,2.911,0,0,1,2.911,2.911"/>
      <path id="Trazado_160073" data-name="Trazado 160073" d="M124.277,81.054a2.911,2.911,0,1,1-2.911-2.911,2.911,2.911,0,0,1,2.911,2.911"/>
      <line id="Línea_151" data-name="Línea 151" y1="6.535" x2="4.99" transform="translate(14.02 131.668)" fill="none" stroke="#000" stroke-miterlimit="10" stroke-width="2"/>
      <line id="Línea_152" data-name="Línea 152" y1="6.535" x2="4.99" transform="translate(48.475 131.668)" fill="none" stroke="#000" stroke-miterlimit="10" stroke-width="2"/>
      <line id="Línea_153" data-name="Línea 153" y1="6.535" x2="4.99" transform="translate(82.931 131.668)" fill="none" stroke="#000" stroke-miterlimit="10" stroke-width="2"/>
      <line id="Línea_154" data-name="Línea 154" y1="6.535" x2="4.99" transform="translate(117.386 131.668)" fill="none" stroke="#000" stroke-miterlimit="10" stroke-width="2"/>
      <path id="Trazado_160074" data-name="Trazado 160074" d="M57.386,187.51a6.653,6.653,0,1,0,6.653-6.653A6.653,6.653,0,0,0,57.386,187.51Z" fill="none" stroke="#51e070" stroke-miterlimit="10" stroke-width="3"/>
      <path id="Trazado_160075" data-name="Trazado 160075" d="M499.485,397.213a6.654,6.654,0,1,0,6.653-6.653A6.653,6.653,0,0,0,499.485,397.213Z" fill="none" stroke="#000" stroke-miterlimit="10" stroke-width="3"/>
      <line id="Línea_155" data-name="Línea 155" x2="14.436" y2="14.97" transform="translate(61.663 231.738)" fill="none" stroke="#51e070" stroke-linecap="round" stroke-miterlimit="10" stroke-width="3"/>
      <line id="Línea_156" data-name="Línea 156" x1="14.436" y2="14.97" transform="translate(61.663 231.738)" fill="none" stroke="#51e070" stroke-linecap="round" stroke-miterlimit="10" stroke-width="3"/>
      <line id="Línea_157" data-name="Línea 157" x2="14.436" y2="14.97" transform="translate(452.198 387.107)" fill="none" stroke="#000" stroke-linecap="round" stroke-miterlimit="10" stroke-width="3"/>
      <line id="Línea_158" data-name="Línea 158" x1="14.436" y2="14.97" transform="translate(452.198 387.107)" fill="none" stroke="#000" stroke-linecap="round" stroke-miterlimit="10" stroke-width="3"/>
      <rect id="Rectángulo_5686" data-name="Rectángulo 5686" width="118.099" height="4.396" transform="translate(5.109 314.639)"/>
      <rect id="Rectángulo_5687" data-name="Rectángulo 5687" width="4.515" height="9.624" transform="translate(118.693 318.44)"/>
      <rect id="Rectángulo_5688" data-name="Rectángulo 5688" width="4.515" height="9.624" transform="translate(105.267 318.44)"/>
      <rect id="Rectángulo_5689" data-name="Rectángulo 5689" width="4.515" height="9.624" transform="translate(89.841 318.44)"/>
      <rect id="Rectángulo_5690" data-name="Rectángulo 5690" width="4.515" height="9.624" transform="translate(74.158 318.44)"/>
      <rect id="Rectángulo_5691" data-name="Rectángulo 5691" width="4.515" height="9.624" transform="translate(62.99 318.44)"/>
      <rect id="Rectángulo_5692" data-name="Rectángulo 5692" width="4.515" height="9.624" transform="translate(44.931 318.44)"/>
      <rect id="Rectángulo_5693" data-name="Rectángulo 5693" width="4.515" height="9.624" transform="translate(33.881 318.44)"/>
      <rect id="Rectángulo_5694" data-name="Rectángulo 5694" width="4.515" height="9.624" transform="translate(18.198 318.44)"/>
      <rect id="Rectángulo_5695" data-name="Rectángulo 5695" width="4.515" height="9.624" transform="translate(5.109 318.44)"/>
      <line id="Línea_159" data-name="Línea 159" x2="4" transform="translate(5.109 307.391)" fill="none" stroke="#a67c52" stroke-miterlimit="10" stroke-width="1"/>
      <line id="Línea_160" data-name="Línea 160" x2="97.395" transform="translate(17.578 307.391)" fill="none" stroke="#a67c52" stroke-miterlimit="10" stroke-width="1" stroke-dasharray="8.469 8.469"/>
      <line id="Línea_161" data-name="Línea 161" x2="4" transform="translate(119.208 307.391)" fill="none" stroke="#a67c52" stroke-miterlimit="10" stroke-width="1"/>
      <rect id="Rectángulo_5696" data-name="Rectángulo 5696" width="136.871" height="4.277" transform="translate(2.674 383.847)" fill="#ba8d6e"/>
      <rect id="Rectángulo_5697" data-name="Rectángulo 5697" width="4.515" height="9.921" transform="translate(111.98 387.292)" fill="#ba8d6e"/>
      <rect id="Rectángulo_5698" data-name="Rectángulo 5698" width="4.515" height="9.921" transform="translate(100.931 387.292)" fill="#ba8d6e"/>
      <rect id="Rectángulo_5699" data-name="Rectángulo 5699" width="4.515" height="9.921" transform="translate(89.822 387.292)" fill="#ba8d6e"/>
      <rect id="Rectángulo_5700" data-name="Rectángulo 5700" width="4.515" height="9.921" transform="translate(80.97 387.292)" fill="#ba8d6e"/>
      <rect id="Rectángulo_5701" data-name="Rectángulo 5701" width="4.515" height="9.921" transform="translate(69.624 387.292)" fill="#ba8d6e"/>
      <rect id="Rectángulo_5702" data-name="Rectángulo 5702" width="4.515" height="9.921" transform="translate(58.396 387.292)" fill="#ba8d6e"/>
      <rect id="Rectángulo_5703" data-name="Rectángulo 5703" width="4.515" height="9.921" transform="translate(47.346 387.292)" fill="#ba8d6e"/>
      <rect id="Rectángulo_5704" data-name="Rectángulo 5704" width="4.515" height="9.921" transform="translate(38.376 387.292)" fill="#ba8d6e"/>
      <rect id="Rectángulo_5705" data-name="Rectángulo 5705" width="4.515" height="9.921" transform="translate(27.148 387.292)" fill="#ba8d6e"/>
      <rect id="Rectángulo_5706" data-name="Rectángulo 5706" width="4.515" height="9.921" transform="translate(15.98 387.292)" fill="#ba8d6e"/>
      <rect id="Rectángulo_5707" data-name="Rectángulo 5707" width="4.515" height="9.921" transform="translate(4.812 387.292)" fill="#ba8d6e"/>
      <rect id="Rectángulo_5708" data-name="Rectángulo 5708" width="4.515" height="9.921" transform="translate(123.148 387.292)" fill="#ba8d6e"/>
      <rect id="Rectángulo_5709" data-name="Rectángulo 5709" width="4.515" height="9.921" transform="translate(135.03 387.292)" fill="#ba8d6e"/>
    </g>
  </g>
  <text id="Edificio" transform="translate(170.811 26.608)" font-size="21.745" font-family="Roboto-Bold, Roboto" font-weight="700"><tspan x="0" y="0" letter-spacing="-0.006em">E</tspan><tspan y="0">dificio</tspan></text>
  <text id="Terreno_abierto" data-name="Terreno abierto" transform="translate(568.507 32.545)" font-size="21.745" font-family="Roboto-Bold, Roboto" font-weight="700"><tspan x="0" y="0" letter-spacing="-0.051em">T</tspan><tspan y="0">erreno abie</tspan><tspan y="0" letter-spacing="0.013em">r</tspan><tspan y="0">to</tspan></text>
  <text id="Bosque" transform="translate(569.682 139.705)" font-size="21.745" font-family="Roboto-Bold, Roboto" font-weight="700"><tspan x="0" y="0">Bosque</tspan></text>
  <text id="Matorrales_aislados" data-name="Matorrales aislados" transform="translate(564.897 184.848)" font-size="21.745" font-family="Roboto-Bold, Roboto" font-weight="700"><tspan x="0" y="0">Matorrales aislados</tspan></text>
  <text id="Estanque" transform="translate(565.05 244.255)" font-size="21.745" font-family="Roboto-Bold, Roboto" font-weight="700"><tspan x="0" y="0">Estanque</tspan></text>
  <text id="Corriente_de_agua" data-name="Corriente de agua" transform="translate(558.135 292.485)" font-size="21.745" font-family="Roboto-Bold, Roboto" font-weight="700"><tspan x="0" y="0">Corriente de agua</tspan></text>
  <text id="Senda" transform="translate(565.311 342.151)" font-size="21.745" font-family="Roboto-Bold, Roboto" font-weight="700"><tspan x="0" y="0">Senda</tspan></text>
  <g id="Grupo_78531" data-name="Grupo 78531">
    <g id="Grupo_78530" data-name="Grupo 78530" clip-path="url(#clip-path)">
      <text id="Objetos_hechos_por_el" data-name="Objetos hechos por el" transform="translate(560.082 390.263)" font-size="21.745" font-family="Roboto-Bold, Roboto" font-weight="700"><tspan x="0" y="0">Objetos hechos por el</tspan></text>
      <text id="hombre" transform="translate(560.082 416.356)" font-size="21.745" font-family="Roboto-Bold, Roboto" font-weight="700"><tspan x="0" y="0">hombre</tspan></text>
      <text id="Terreno_abierto_semi_abierto_" data-name="Terreno abierto/ semi abierto  " transform="translate(556.519 77.19)" font-size="15.874" font-family="Roboto-Bold, Roboto" font-weight="700"><tspan x="0" y="0" letter-spacing="-0.051em">T</tspan><tspan y="0">erreno abie</tspan><tspan y="0" letter-spacing="0.013em">r</tspan><tspan y="0">to/ semi abie</tspan><tspan y="0" letter-spacing="0.013em">r</tspan><tspan y="0" xml:space="preserve">to  </tspan></text>
    </g>
  </g>
  <text id="irregular" transform="translate(556.519 96.239)" font-size="15.874" font-family="Roboto-Bold, Roboto" font-weight="700"><tspan x="0" y="0">irregular</tspan></text>
  <text id="Muro" transform="translate(171.046 88.807)" font-size="21.745" font-family="Roboto-Bold, Roboto" font-weight="700"><tspan x="0" y="0">Muro</tspan></text>
  <text id="Valla" transform="translate(172.503 137.646)" font-size="21.745" font-family="Roboto-Bold, Roboto" font-weight="700"><tspan x="0" y="0" letter-spacing="-0.026em">V</tspan><tspan y="0">alla</tspan></text>
  <text id="Árbol" transform="translate(170.676 198.598)" font-size="21.745" font-family="Roboto-Bold, Roboto" font-weight="700"><tspan x="0" y="0">Árbol</tspan></text>
  <text id="Tocón_de_árbol_raiz" data-name="Tocón de árbol/raiz" transform="translate(160.239 254.917)" font-size="21.745" font-family="Roboto-Bold, Roboto" font-weight="700"><tspan x="0" y="0" letter-spacing="-0.045em">T</tspan><tspan y="0">ocón de árbol/raiz</tspan></text>
  <text id="Cortado_piedra" data-name="Cortado piedra" transform="translate(164.305 323.263)" font-size="21.745" font-family="Roboto-Bold, Roboto" font-weight="700"><tspan x="0" y="0">Co</tspan><tspan y="0" letter-spacing="0.013em">r</tspan><tspan y="0">tado piedra</tspan></text>
  <text id="Cortado_de_tierra" data-name="Cortado de tierra" transform="translate(163.652 390.28)" font-size="21.745" font-family="Roboto-Bold, Roboto" font-weight="700"><tspan x="0" y="0">Co</tspan><tspan y="0" letter-spacing="0.013em">r</tspan><tspan y="0">tado de tierra</tspan></text>
  <g id="Grupo_78533" data-name="Grupo 78533">
    <g id="Grupo_78532" data-name="Grupo 78532" clip-path="url(#clip-path)">
      <rect id="Rectángulo_5712" data-name="Rectángulo 5712" width="128.852" height="44.198" transform="translate(406.871 4.243)" fill="#feae45"/>
      <rect id="Rectángulo_5713" data-name="Rectángulo 5713" width="128.852" height="44.198" transform="translate(406.871 4.243)" fill="none" stroke="#000" stroke-miterlimit="10" stroke-width="1"/>
      <rect id="Rectángulo_5714" data-name="Rectángulo 5714" width="128.852" height="44.198" transform="translate(406.871 59.134)" fill="#eecbb8"/>
      <rect id="Rectángulo_5715" data-name="Rectángulo 5715" width="128.852" height="44.198" transform="translate(406.871 59.134)" fill="none" stroke="#000" stroke-miterlimit="10" stroke-width="1"/>
      <rect id="Rectángulo_5716" data-name="Rectángulo 5716" width="128.852" height="44.198" transform="translate(406.871 114.025)" fill="#fff"/>
      <rect id="Rectángulo_5717" data-name="Rectángulo 5717" width="128.852" height="44.198" transform="translate(406.871 114.025)" fill="none" stroke="#000" stroke-miterlimit="10" stroke-width="1"/>
      <path id="Trazado_160076" data-name="Trazado 160076" d="M479.525,190.079c0,4.7-12.235,8.51-27.327,8.51s-27.326-3.81-27.326-8.51,12.234-8.51,27.326-8.51,27.327,3.81,27.327,8.51" fill="#51e070"/>
      <path id="Trazado_160077" data-name="Trazado 160077" d="M514.239,180.437c-2.616,5.028-1.609,10.73,2.248,12.737s9.1-.443,11.719-5.471,1.609-10.731-2.248-12.737-9.1.443-11.719,5.471" fill="#51e070"/>
      <path id="Trazado_160078" data-name="Trazado 160078" d="M512.792,236.326c0,10.261-18.458,18.58-41.228,18.58s-41.227-8.319-41.227-18.58,18.458-18.579,41.227-18.579,41.228,8.319,41.228,18.579" fill="#9dcdf1"/>
      <path id="Trazado_160079" data-name="Trazado 160079" d="M405.98,292.51s8.911,3.653,25.307-1.158,22.812-4.99,28.515-4.812,14.079,1.247,19.96,4.99,13.9,3.208,19.248.98,13.9-1.754,19.782,1.752,20.317,1.367,20.317,1.367" fill="none" stroke="#1273af" stroke-miterlimit="10" stroke-width="3"/>
      <path id="Trazado_160080" data-name="Trazado 160080" d="M405.98,339.3s8.911,3.653,25.307-1.158,22.812-4.991,28.515-4.812,14.079,1.247,19.96,4.99,13.9,3.208,19.248.98,13.9-1.754,19.782,1.752,20.317,1.367,20.317,1.367" fill="none" stroke="#000" stroke-miterlimit="10" stroke-width="3" stroke-dasharray="8 8"/>
    </g>
  </g>
</svg>
