<svg id="Grupo_78557" data-name="Grupo 78557" xmlns="http://www.w3.org/2000/svg" xmlns:xlink="http://www.w3.org/1999/xlink" width="296.955" height="295.541" viewBox="0 0 296.955 295.541">
  <defs>
    <clipPath id="clip-path">
      <rect id="Rectángulo_5739" data-name="Rectángulo 5739" width="296.955" height="295.541" fill="none"/>
    </clipPath>
    <clipPath id="clip-path-3">
      <rect id="Rectángulo_5731" data-name="Rectángulo 5731" width="132.972" height="195.227" fill="none"/>
    </clipPath>
    <clipPath id="clip-path-4">
      <rect id="Rectángulo_5732" data-name="Rectángulo 5732" width="20.793" height="13.521" fill="none"/>
    </clipPath>
    <clipPath id="clip-path-5">
      <rect id="Rectángulo_5733" data-name="Rectángulo 5733" width="2.178" height="2.277" fill="none"/>
    </clipPath>
    <clipPath id="clip-path-6">
      <rect id="Rectángulo_5734" data-name="Rectángulo 5734" width="2.307" height="2.444" fill="none"/>
    </clipPath>
    <clipPath id="clip-path-7">
      <rect id="Rectángulo_5735" data-name="Rectángulo 5735" width="42.597" height="19.587" fill="none"/>
    </clipPath>
    <clipPath id="clip-path-8">
      <rect id="Rectángulo_5737" data-name="Rectángulo 5737" width="9.741" height="9.011" fill="none"/>
    </clipPath>
  </defs>
  <g id="Grupo_78556" data-name="Grupo 78556" clip-path="url(#clip-path)">
    <g id="Grupo_78555" data-name="Grupo 78555">
      <g id="Grupo_78554" data-name="Grupo 78554" clip-path="url(#clip-path)">
        <path id="Trazado_160086" data-name="Trazado 160086" d="M161.325,24.817l32.309-1.365A10.477,10.477,0,0,1,204.55,33.681l1.142,49.9a10.478,10.478,0,0,1-9.386,10.66,3.481,3.481,0,0,0-3.117,3.6l4.059,105.4a13.076,13.076,0,0,1-12.486,13.566L61.335,222.29a3.481,3.481,0,0,1-3.634-3.374L52.24,35.949a3.481,3.481,0,0,1,3.231-3.576Z" transform="translate(-17.16 -7.701)" fill="#a8bc8b"/>
        <g id="Grupo_78538" data-name="Grupo 78538" transform="translate(40.438 15.988)" opacity="0.3">
          <g id="Grupo_78537" data-name="Grupo 78537">
            <g id="Grupo_78536" data-name="Grupo 78536" clip-path="url(#clip-path-3)">
              <path id="Trazado_160087" data-name="Trazado 160087" d="M60.219,215.577l.1,3.459,132.869-12.217-2.54-183.01S158.4,28.7,157.812,28.7s-97.593,186.88-97.593,186.88" transform="translate(-60.219 -23.809)"/>
            </g>
          </g>
        </g>
        <path id="Trazado_160088" data-name="Trazado 160088" d="M134.282,9.711l38.559-2.352,3.981,189.686L41.108,210.809,21.121,22.119Z" transform="translate(-6.938 -2.417)" fill="#ebebeb"/>
        <path id="Trazado_160089" data-name="Trazado 160089" d="M134.212,9.669s-.677.087-2,.238l-5.866.662-22.541,2.507L21.065,22.207l.116-.144c5.367,50.556,12.338,116.228,20.03,188.686l-.191-.155,30.42-3.086,105.295-10.67-.149.169c-1.7-82.936-3.1-150.959-3.895-189.687l.085.079L144.081,9.11l-7.373.428c-1.655.094-2.5.131-2.5.131s.84-.066,2.493-.173l7.37-.47,28.692-1.788.083-.005,0,.084c.83,38.728,2.289,106.749,4.066,189.683l0,.153-.152.016L71.475,207.856l-30.42,3.084-.173.017-.018-.173C33.206,138.325,26.264,72.65,20.92,22.091l-.013-.13.13-.014,82.756-9.016,22.547-2.438,5.87-.625c1.323-.139,2-.2,2-.2" transform="translate(-6.868 -2.376)" fill="#263238"/>
        <path id="Trazado_160090" data-name="Trazado 160090" d="M11.078,13.477l18.372,190.9,142.135-13.389L151.089.231Z" transform="translate(-3.639 -0.076)" fill="#fff"/>
        <path id="Trazado_160091" data-name="Trazado 160091" d="M11.078,13.4l140-13.388.14-.013.015.14c5.764,53.551,12.862,119.51,20.53,190.756l.019.177-.176.016-1.008.1L29.465,204.461l-.157.015-.015-.157C18.508,91.284,11.211,14.793,11.078,13.4c.135,1.39,7.559,77.87,18.529,190.887l-.172-.142,141.127-13.311,1.007-.095-.158.193c-7.643-71.248-14.72-137.21-20.465-190.763L151.1.3,11.078,13.4" transform="translate(-3.639)" fill="#263238"/>
        <path id="Trazado_160092" data-name="Trazado 160092" d="M173.406,225.342a20.95,20.95,0,1,1,20.9,21,20.974,20.974,0,0,1-20.9-21m41.516.1a20.565,20.565,0,1,0-20.613,20.517,20.588,20.588,0,0,0,20.613-20.517" transform="translate(-56.961 -67.156)" fill="#e0e0e0"/>
        <path id="Trazado_160093" data-name="Trazado 160093" d="M176.964,226.657a18.272,18.272,0,1,1,18.229,18.314,18.293,18.293,0,0,1-18.229-18.314m33.848.079a15.576,15.576,0,1,0-15.613,15.54,15.595,15.595,0,0,0,15.613-15.54" transform="translate(-58.13 -68.465)" fill="#e0e0e0"/>
        <path id="Trazado_160094" data-name="Trazado 160094" d="M183.66,233.008a13.381,13.381,0,0,1,1.448-6.061l2.405,1.217a10.707,10.707,0,0,0-1.158,4.85,10.824,10.824,0,0,0,16.46,9.264l1.407,2.3a13.519,13.519,0,0,1-20.562-11.57" transform="translate(-60.33 -74.549)" fill="#e0e0e0"/>
        <path id="Trazado_160095" data-name="Trazado 160095" d="M194.5,217.414a13.52,13.52,0,0,1,17.679,19.2l-2.28-1.438A10.826,10.826,0,0,0,195.746,219.8Z" transform="translate(-63.89 -70.917)" fill="#e0e0e0"/>
        <path id="Trazado_160096" data-name="Trazado 160096" d="M155.942,73.365c.009.1-26.813,2.708-59.9,5.831S36.11,84.776,36.1,84.68s26.808-2.707,59.907-5.832,59.925-5.579,59.934-5.483" transform="translate(-11.859 -24.098)" fill="#263238"/>
        <path id="Trazado_160097" data-name="Trazado 160097" d="M90.664,71.128c.009.1-12.369,1.344-27.643,2.785s-27.67,2.534-27.68,2.438,12.367-1.343,27.646-2.785,27.666-2.534,27.676-2.438" transform="translate(-11.609 -23.363)" fill="#263238"/>
        <path id="Trazado_160098" data-name="Trazado 160098" d="M156.72,84.948c.009.1-26.813,2.707-59.9,5.832s-59.931,5.58-59.94,5.483,26.808-2.707,59.907-5.831,59.925-5.579,59.934-5.484" transform="translate(-12.114 -27.903)" fill="#263238"/>
        <path id="Trazado_160099" data-name="Trazado 160099" d="M157.5,96.532c.009.1-26.813,2.708-59.9,5.831s-59.931,5.58-59.94,5.484,26.808-2.707,59.907-5.832,59.925-5.579,59.934-5.483" transform="translate(-12.37 -31.708)" fill="#263238"/>
        <path id="Trazado_160100" data-name="Trazado 160100" d="M158.276,108.115c.009.1-26.813,2.708-59.9,5.831s-59.931,5.58-59.94,5.484,26.808-2.707,59.907-5.832,59.925-5.579,59.934-5.483" transform="translate(-12.625 -35.513)" fill="#263238"/>
        <path id="Trazado_160101" data-name="Trazado 160101" d="M159.054,119.7c.009.1-26.813,2.708-59.9,5.831s-59.931,5.58-59.94,5.484,26.808-2.707,59.907-5.832,59.925-5.579,59.934-5.483" transform="translate(-12.881 -39.318)" fill="#263238"/>
        <path id="Trazado_160102" data-name="Trazado 160102" d="M159.832,131.281c.009.1-26.813,2.708-59.9,5.831S40,142.692,39.991,142.6,66.8,139.889,99.9,136.764s59.925-5.579,59.934-5.483" transform="translate(-13.136 -43.123)" fill="#263238"/>
        <path id="Trazado_160103" data-name="Trazado 160103" d="M161.376,142.865c.009.1-26.463,2.674-59.119,5.758s-59.148,5.506-59.157,5.41,26.457-2.674,59.124-5.758,59.142-5.505,59.152-5.409" transform="translate(-14.158 -46.928)" fill="#263238"/>
        <path id="Trazado_160104" data-name="Trazado 160104" d="M115.533,165.144c.009.1-15.971,1.614-35.688,3.388s-35.714,3.137-35.723,3.041,15.968-1.613,35.692-3.388,35.71-3.137,35.719-3.041" transform="translate(-14.493 -54.246)" fill="#263238"/>
        <path id="Trazado_160105" data-name="Trazado 160105" d="M100.3,260.881c.008.1-9.717,1-21.719,2.02s-21.744,1.767-21.752,1.671,9.715-1,21.721-2.02,21.742-1.767,21.75-1.671" transform="translate(-18.669 -85.693)"/>
        <path id="Trazado_160106" data-name="Trazado 160106" d="M81.816,271.938c.008.1-5.448.638-12.185,1.21s-12.207.958-12.216.862,5.447-.638,12.186-1.21,12.207-.958,12.215-.862" transform="translate(-18.86 -89.323)"/>
        <path id="Trazado_160107" data-name="Trazado 160107" d="M77.478,190.417c.009.1-6.41.807-14.337,1.589s-14.363,1.336-14.372,1.24,6.409-.807,14.338-1.589,14.362-1.336,14.371-1.24" transform="translate(-16.02 -62.546)" fill="#ff725e"/>
        <g id="Grupo_78541" data-name="Grupo 78541" transform="translate(22.433 158.482)" opacity="0.3">
          <g id="Grupo_78540" data-name="Grupo 78540">
            <g id="Grupo_78539" data-name="Grupo 78539" clip-path="url(#clip-path-4)">
              <path id="Trazado_160108" data-name="Trazado 160108" d="M33.857,249.528,46.9,247.006l7.3-11-20.793,6.829Z" transform="translate(-33.407 -236.007)"/>
            </g>
          </g>
        </g>
        <path id="Trazado_160109" data-name="Trazado 160109" d="M0,233.594l34.838-3.3,8.388,3.835-6.7,7.531L1.142,245.478Z" transform="translate(0 -75.649)" fill="#ff725e"/>
        <path id="Trazado_160110" data-name="Trazado 160110" d="M129.952,189.141s.041.011.12.04a1.65,1.65,0,0,1,.339.16,4.809,4.809,0,0,1,1.121.948,16.028,16.028,0,0,1,2.823,4.868,20.374,20.374,0,0,1,1.464,8.765,13.209,13.209,0,0,1-.475,2.671,17.813,17.813,0,0,1-4.791,7.708,18.6,18.6,0,0,1-5.756,3.765,15.76,15.76,0,0,1-7.35,1.156A16.126,16.126,0,0,1,104.538,210a13.171,13.171,0,0,1-1.168-4.267,10.029,10.029,0,0,1,.47-4.5,7.239,7.239,0,0,1,2.682-3.758,5.193,5.193,0,0,1,2.235-.835,5.35,5.35,0,0,1,2.39.28,7.06,7.06,0,0,1,3.683,3.055,11.322,11.322,0,0,1,1.461,4.654,20.325,20.325,0,0,1-1.434,9.773,19.227,19.227,0,0,1-5.905,7.91,17.728,17.728,0,0,1-8.887,3.576A16.664,16.664,0,0,1,90.94,224.4a15.584,15.584,0,0,1-6.489-6.029,15.114,15.114,0,0,1-2.2-8.141,11.034,11.034,0,0,1,.783-4.007,7.945,7.945,0,0,1,2.3-3.223,4.748,4.748,0,0,1,3.642-1.077,5.454,5.454,0,0,1,3.211,1.788,6.84,6.84,0,0,1,1.611,3.151,8.87,8.87,0,0,1,0,3.388,17.593,17.593,0,0,1-2.39,5.778,27.775,27.775,0,0,1-3.354,4.46,30.322,30.322,0,0,1-3.571,3.29,30.794,30.794,0,0,1-3.4,2.26,26.168,26.168,0,0,1-5.157,2.276c-1.23.392-1.9.527-1.9.527s.16-.058.476-.153.793-.214,1.4-.441a27.125,27.125,0,0,0,5.112-2.327,31.108,31.108,0,0,0,3.364-2.273,30.474,30.474,0,0,0,3.529-3.291,27.7,27.7,0,0,0,3.309-4.443,17.4,17.4,0,0,0,2.336-5.708,8.624,8.624,0,0,0,0-3.29,6.59,6.59,0,0,0-1.557-3.023,5.184,5.184,0,0,0-3.049-1.692,4.465,4.465,0,0,0-3.423,1.026,7.661,7.661,0,0,0-2.2,3.11,10.733,10.733,0,0,0-.752,3.9,14.819,14.819,0,0,0,2.164,7.968,15.265,15.265,0,0,0,6.359,5.893,16.329,16.329,0,0,0,8.939,1.446,17.4,17.4,0,0,0,8.712-3.51,18.894,18.894,0,0,0,5.8-7.767,19.991,19.991,0,0,0,1.412-9.6,10.983,10.983,0,0,0-1.411-4.513,6.71,6.71,0,0,0-3.5-2.911,5.011,5.011,0,0,0-2.239-.265,4.864,4.864,0,0,0-2.085.778,6.91,6.91,0,0,0-2.554,3.585,9.689,9.689,0,0,0-.459,4.361,12.866,12.866,0,0,0,1.134,4.167,15.837,15.837,0,0,0,12.641,9.063,15.507,15.507,0,0,0,7.223-1.117,18.381,18.381,0,0,0,5.686-3.694,17.634,17.634,0,0,0,4.761-7.588,13.037,13.037,0,0,0,.481-2.627,20.363,20.363,0,0,0-1.4-8.7,16.322,16.322,0,0,0-2.749-4.87,5.037,5.037,0,0,0-1.087-.964c-.277-.179-.447-.214-.441-.23" transform="translate(-24.317 -62.13)"/>
        <path id="Trazado_160111" data-name="Trazado 160111" d="M136.751,39.981s-.019-.114-.045-.33-.063-.542-.111-.955c-.095-.848-.232-2.085-.412-3.691-.35-3.222-.86-7.915-1.506-13.851l.116.094L62.278,28.892h0l.156-.191c.674,6.463,1.331,12.77,1.964,18.837l-.187-.152,51.75-5.327L131.2,40.516l4.11-.407,1.069-.1c.242-.021.371-.028.371-.028s-.113.019-.347.048l-1.046.12-4.068.447-15.2,1.636L64.241,47.726l-.17.018-.018-.171c-.635-6.067-1.295-12.373-1.971-18.837l-.018-.174.174-.018h0l72.53-7.507.106-.011.01.105c.6,5.968,1.071,10.686,1.4,13.925.156,1.6.275,2.828.358,3.673.038.406.066.717.087.938s.022.312.022.312" transform="translate(-20.387 -6.907)" fill="#455a64"/>
        <path id="Trazado_160112" data-name="Trazado 160112" d="M294.233,86.613a1.738,1.738,0,0,1,.631-1.012,4.3,4.3,0,0,1,2.669-.661,11.332,11.332,0,0,0,1.093-3.542,2.261,2.261,0,0,1-1.258-.359,1.259,1.259,0,0,1-.207-.063,1.767,1.767,0,0,1-.42-2.558,5.118,5.118,0,0,1,2.452-1.575,8.543,8.543,0,0,0-1.9.689c-.646.2-1.556-.021-1.632-.694a1.466,1.466,0,0,1,.1-.606q.188-.6.379-1.193a1.33,1.33,0,0,1,.525-.832,3.122,3.122,0,0,1,.688-.165c.755-.2,1.146-1.121,1.9-1.332a3.466,3.466,0,0,1,1.688.25c.561.133,1.3.023,1.477-.526A5.377,5.377,0,0,1,300.5,70.81a1.845,1.845,0,0,1,.182-2.322,2.713,2.713,0,0,1,1.9-.389c.739.032,1.657.2,1.852.913a1.922,1.922,0,0,1,2.358,1.508l1.9-.193a19.478,19.478,0,0,1-1.745-1.551c-.459-.632-.374-1.769.389-1.932a5.263,5.263,0,0,0,.848-.075c.191-.076.349-.249.555-.257a.736.736,0,0,1,.411.161l4.018,2.622-1.087-2.526c-.334-.776-.594-1.847.1-2.327.672-.465,1.654.206,1.8,1.011a1.306,1.306,0,0,1,1.588,1.2,1.324,1.324,0,0,1,1.556,2.021,3.759,3.759,0,0,1,1.912.571,1.152,1.152,0,0,1,1.861-.793,2,2,0,0,1,.295-1.146.693.693,0,0,1,1.037-.116,1.346,1.346,0,0,1,2.179-1.318l.663-.8a1.771,1.771,0,0,1,1.708.886c.279.62-.188,1.514-.866,1.452.476-.008.368.752.09,1.14l-1.163,1.616a1.489,1.489,0,0,1,1.844-.163,1.152,1.152,0,0,1,1.666.013.933.933,0,0,1,1.676.283c.118-.311.545-.33.876-.294a2.172,2.172,0,0,1,1.328.457c.34.335.337,1.031-.111,1.2.407-.228.931.22.938.686a1.669,1.669,0,0,1-.668,1.181,3.9,3.9,0,0,0-.958,1.009,1.967,1.967,0,0,1,1.344-.283,5.1,5.1,0,0,1,2.432.485c.142-.328.6-.344.952-.272a5.692,5.692,0,0,1,2.9,1.577c.37.376.7.94.449,1.4a1.414,1.414,0,0,1-.533.473l-2.579,1.6a7.023,7.023,0,0,1,3.526,2.5c.516.3,1.17.331,1.637.7s.432,1.355-.165,1.354a1.094,1.094,0,0,1,.317,1.269,1.041,1.041,0,0,1-.4.444,1.466,1.466,0,0,1-.282.32,2.022,2.022,0,0,1-.693.363,1.35,1.35,0,0,1-1.153.532,5.487,5.487,0,0,1,1.226,1.452,2.3,2.3,0,0,1,0,2.366,1.273,1.273,0,0,1-.091.1,1.124,1.124,0,0,1-.494.715.95.95,0,0,1,.091.629,2.517,2.517,0,0,1,.566,4.412c-.594.419-1.694.342-1.749-.382a1.958,1.958,0,0,1-1.488,1.082,1.9,1.9,0,0,1-.993,2.614,2.023,2.023,0,0,1-.636,3.309,1.549,1.549,0,1,1-2.927,1.016,3.29,3.29,0,0,1-1.16,1.452,1.137,1.137,0,0,1-1.6-.419,2.127,2.127,0,0,1-3.127,1.012,1.376,1.376,0,0,1-2.736.242l-3.554-.034a12.713,12.713,0,0,1-2.349-.169,6.363,6.363,0,0,1-2.708-1.253,2.149,2.149,0,0,0-.821-.5,2.207,2.207,0,0,0-1.086.167,5.753,5.753,0,0,1-5.462-1.291,2.866,2.866,0,0,0-.72-.575,2.6,2.6,0,0,0-1.049-.145,10.4,10.4,0,0,1-2.583-.372,2.745,2.745,0,0,1-1.822-1.2c-.34-.667.059-1.7.808-1.684a1.608,1.608,0,0,0-.4-1.35A.967.967,0,0,0,301,98.146a.7.7,0,0,0,.32,1.135,1.435,1.435,0,0,1-2.072-1.2,1.921,1.921,0,0,1,1.926-1.793,4.42,4.42,0,0,1-.055-2.15,1.58,1.58,0,0,1-2.153.244,2.724,2.724,0,0,1-1.763,1.267,1.633,1.633,0,0,1-1.8-.984,1.176,1.176,0,0,1,1.117-1.513,1.4,1.4,0,0,1,1.248-2.031A2.184,2.184,0,0,1,299.1,88.8a1.15,1.15,0,0,1-1.635-.631c-.453.713-1.554.539-2.283.111a1.534,1.534,0,0,1-.952-1.669" transform="translate(-96.641 -21.119)" fill="#263238"/>
        <path id="Trazado_160113" data-name="Trazado 160113" d="M294.228,86.548a1.074,1.074,0,0,0-.041.29,1.258,1.258,0,0,0,.271.819,2.784,2.784,0,0,0,1.182.811,2.4,2.4,0,0,0,.921.156,1.148,1.148,0,0,0,.937-.495l-.077-.011a1.2,1.2,0,0,0,1.7.663l-.045-.091a2.246,2.246,0,0,0-1.375,2.376L297.77,91a1.355,1.355,0,0,0-1.221.656,1.382,1.382,0,0,0-.09,1.472l.066-.1a1.183,1.183,0,0,0-1.191.9,1.3,1.3,0,0,0,.6,1.473,1.876,1.876,0,0,0,1.712.158,3.034,3.034,0,0,0,1.388-1.183l-.124.019a1.671,1.671,0,0,0,2.276-.255l-.157-.075a4.527,4.527,0,0,0,.053,2.194l.089-.118a2.156,2.156,0,0,0-1.323.492,1.811,1.811,0,0,0-.7,1.28,1.51,1.51,0,0,0,.7,1.318,1.358,1.358,0,0,0,1.523.081l.227-.156-.271-.029a.563.563,0,0,1-.4-.667.617.617,0,0,1,.674-.491.954.954,0,0,1,.811.493,1.654,1.654,0,0,1,.179,1.023l.109-.095a.924.924,0,0,0-.707.328,1.429,1.429,0,0,0-.218,1.475,1.818,1.818,0,0,0,.476.61,3.687,3.687,0,0,0,1.368.665,10.452,10.452,0,0,0,1.5.309c1,.21,2.166-.2,2.822.734a5.79,5.79,0,0,0,2.867,1.475,5.914,5.914,0,0,0,1.663.1,8.446,8.446,0,0,0,1.633-.357,1,1,0,0,1,.729.081,6,6,0,0,1,.663.49,6.576,6.576,0,0,0,1.515.847,9.1,9.1,0,0,0,3.468.5l3.565.037-.131-.113a1.512,1.512,0,0,0,3.006-.266l-.218.114a2.267,2.267,0,0,0,3.341-1.08l-.265,0a1.034,1.034,0,0,0,.759.631,1.481,1.481,0,0,0,1-.115,3.322,3.322,0,0,0,1.26-1.531l-.26-.019a1.692,1.692,0,1,0,3.2-1.109l-.092.185a2.018,2.018,0,0,0,1.29-1.538,2.043,2.043,0,0,0-.605-2.021l-.045.251a2.048,2.048,0,0,0,1.074-2.825l-.109.219a2.113,2.113,0,0,0,1.6-1.166l-.281-.052a.769.769,0,0,0,.23.492,1.02,1.02,0,0,0,.465.242,1.683,1.683,0,0,0,.99-.083,2.512,2.512,0,0,0,1.273-1.478,2.581,2.581,0,0,0-.1-1.981,2.725,2.725,0,0,0-1.472-1.374l.094.171a1.107,1.107,0,0,0-.1-.727l-.057.2a1.278,1.278,0,0,0,.563-.81l-.034.065a2.24,2.24,0,0,0,.287-2.245,4.893,4.893,0,0,0-1.431-1.886l-.115.264a1.5,1.5,0,0,0,1.287-.592l-.075.054a1.9,1.9,0,0,0,1.056-.743l-.044.043a1.138,1.138,0,0,0,.556-.927,1.247,1.247,0,0,0-.459-1.033l-.094.273a.582.582,0,0,0,.481-.243.887.887,0,0,0,.154-.483,1.11,1.11,0,0,0-.378-.9,11.5,11.5,0,0,0-1.652-.714l.046.041a7.2,7.2,0,0,0-3.6-2.554l.036.277,1.181-.731.9-.555a7.442,7.442,0,0,0,.9-.6.91.91,0,0,0,.287-.544,1.14,1.14,0,0,0-.093-.59,2.578,2.578,0,0,0-.669-.876,5.866,5.866,0,0,0-1.8-1.136,5.756,5.756,0,0,0-1.022-.3,1.57,1.57,0,0,0-.572-.009.675.675,0,0,0-.515.377l.217-.071a4.343,4.343,0,0,0-1.955-.482c-.331-.015-.65-.035-.991-.025a1.648,1.648,0,0,0-1,.32l.232.187c.289-.571.991-.873,1.405-1.512a1.136,1.136,0,0,0,.136-1.134.988.988,0,0,0-.425-.43.677.677,0,0,0-.638,0l.126.274a.685.685,0,0,0,.406-.437,1,1,0,0,0,.01-.559.971.971,0,0,0-.285-.48,1.431,1.431,0,0,0-.453-.277,3.71,3.71,0,0,0-.975-.2,1.685,1.685,0,0,0-.522.024.625.625,0,0,0-.467.371l.29.036a1.081,1.081,0,0,0-1.961-.331l.248-.032a1.3,1.3,0,0,0-1.891-.014l.2-.021a1.636,1.636,0,0,0-2.035.174l.222.2.986-1.371a1.937,1.937,0,0,0,.411-.792,1.01,1.01,0,0,0,0-.487.471.471,0,0,0-.16-.249.465.465,0,0,0-.289-.091l-.011.295a1,1,0,0,0,.954-.586,1.245,1.245,0,0,0,.044-1.1,1.929,1.929,0,0,0-1.831-.941l-.065,0-.042.051-.662.8.206-.019a1.491,1.491,0,0,0-2.413,1.46l.254-.12a.7.7,0,0,0-.686-.226.953.953,0,0,0-.588.359,2.169,2.169,0,0,0-.313,1.21L321,68.29a1.292,1.292,0,0,0-2.1.9l.216-.123a3.891,3.891,0,0,0-1.984-.591l.109.224a1.463,1.463,0,0,0-1.72-2.233l.189.128a1.439,1.439,0,0,0-1.763-1.334l.172.107a1.613,1.613,0,0,0-.54-.91,1.376,1.376,0,0,0-.994-.361,1.055,1.055,0,0,0-.852.632,1.8,1.8,0,0,0-.081,1.021,8.5,8.5,0,0,0,.659,1.813q.373.867.741,1.721l.191-.161-2.483-1.616-1.214-.791a3.153,3.153,0,0,0-.655-.375.583.583,0,0,0-.433.068c-.116.064-.209.134-.3.173a1.909,1.909,0,0,1-.654.054.93.93,0,0,0-.7.341,1.539,1.539,0,0,0-.142,1.446,2.663,2.663,0,0,0,.921,1.076,8.659,8.659,0,0,1,1.025.845l.076-.2-1.9.195.128.1a2.034,2.034,0,0,0-2.507-1.6l.143.079a1.31,1.31,0,0,0-.968-.846,4.714,4.714,0,0,0-1.226-.156,3.468,3.468,0,0,0-1.213.135,1.494,1.494,0,0,0-.911.809,2.212,2.212,0,0,0,.395,2.237,6.387,6.387,0,0,0,1.748,1.36l-.044-.117a.783.783,0,0,1-.662.484,1.937,1.937,0,0,1-.9-.076,6.49,6.49,0,0,0-.922-.229,1.426,1.426,0,0,0-.944.182c-.549.334-.87.879-1.371,1.115a7.93,7.93,0,0,1-.829.214,1.105,1.105,0,0,0-.563.692q-.254.8-.5,1.568a.975.975,0,0,0,.062.833,1.11,1.11,0,0,0,.686.446,1.8,1.8,0,0,0,.788.011,3.584,3.584,0,0,0,.709-.267,3.78,3.78,0,0,1,1.315-.461l-.032-.144a8.945,8.945,0,0,0-1.559.747,2.9,2.9,0,0,0-1.093,1.166,2.134,2.134,0,0,0-.105,1.467,1.316,1.316,0,0,0,.945.941l-.015-.007a2.284,2.284,0,0,0,1.291.363l-.054-.06a11.344,11.344,0,0,1-1.074,3.533l.034-.021a6.708,6.708,0,0,0-1.783.216,2.5,2.5,0,0,0-1.079.633,1.715,1.715,0,0,0-.383.628,1.073,1.073,0,0,0-.054.234,1.781,1.781,0,0,1,.465-.835,2.485,2.485,0,0,1,1.068-.6,6.71,6.71,0,0,1,1.768-.2h.023l.011-.021a11.235,11.235,0,0,0,1.111-3.553l.009-.061h-.064a2.185,2.185,0,0,1-1.226-.354l-.009-.005h-.007a1.2,1.2,0,0,1-.856-.866,2,2,0,0,1,.108-1.375,2.764,2.764,0,0,1,1.048-1.1,8.913,8.913,0,0,1,1.538-.727l.439-.173-.471.029a3.9,3.9,0,0,0-1.372.468,3.5,3.5,0,0,1-.676.252,1.642,1.642,0,0,1-.716-.014.947.947,0,0,1-.584-.377.8.8,0,0,1-.04-.7q.245-.761.5-1.554a.933.933,0,0,1,.466-.588,6.717,6.717,0,0,0,.838-.215c.566-.275.891-.827,1.388-1.117a2.064,2.064,0,0,1,1.717.072,2.133,2.133,0,0,0,.986.083.982.982,0,0,0,.821-.619l.024-.076-.068-.042a6.2,6.2,0,0,1-1.69-1.318,2.006,2.006,0,0,1-.361-2.019,1.277,1.277,0,0,1,.786-.69,3.285,3.285,0,0,1,1.135-.12,4.535,4.535,0,0,1,1.166.15,1.087,1.087,0,0,1,.813.692l.03.113.113-.035a1.808,1.808,0,0,1,2.208,1.415l.017.111.111-.011,1.9-.191.24-.023-.165-.177a8.7,8.7,0,0,0-1.051-.874,2.449,2.449,0,0,1-.841-.971,1.3,1.3,0,0,1,.107-1.205.675.675,0,0,1,.52-.247,2,2,0,0,0,.743-.073c.249-.122.406-.283.569-.226a3.243,3.243,0,0,1,.58.343l1.213.792,2.479,1.621.362.236-.171-.4-.739-1.722a8.329,8.329,0,0,1-.637-1.753,1.543,1.543,0,0,1,.063-.868.787.787,0,0,1,.631-.473,1.3,1.3,0,0,1,1.24,1.049l.027.15.144-.043a1.171,1.171,0,0,1,1.412,1.07V66.8l.19-.077a1.185,1.185,0,0,1,1.392,1.809l-.165.218.274.006a3.622,3.622,0,0,1,1.839.55l.228.143-.011-.265a1.013,1.013,0,0,1,1.618-.69l.228.229.016-.322a1.913,1.913,0,0,1,.257-1.054c.179-.257.645-.36.819-.126l.4.535-.144-.655a1.2,1.2,0,0,1,1.945-1.175l.112.094.093-.113.663-.8-.107.053a1.643,1.643,0,0,1,1.556.776c.261.5-.138,1.323-.706,1.269l-.011.295c.093.005.129.03.16.127a.742.742,0,0,1-.007.342,1.638,1.638,0,0,1-.363.681l-.986,1.371.222.2a1.342,1.342,0,0,1,1.653-.152l.111.084.09-.1a1,1,0,0,1,1.44.011l.154.183.1-.216a.788.788,0,0,1,1.391.235l.067.752.224-.716c.059-.191.393-.232.68-.2a3.49,3.49,0,0,1,.892.176.834.834,0,0,1,.557.553c.071.259-.011.565-.228.637l.126.273c.206-.127.522.052.645.306a.839.839,0,0,1-.122.831c-.335.549-1.044.843-1.42,1.536l-.357.659.59-.472c.443-.355,1.15-.24,1.782-.226a4.055,4.055,0,0,1,1.819.442l.155.09.061-.162c.082-.214.45-.249.751-.188a5.459,5.459,0,0,1,.964.287,5.557,5.557,0,0,1,1.7,1.077,2.284,2.284,0,0,1,.595.77.661.661,0,0,1-.122.8,7.86,7.86,0,0,1-.849.56l-.9.554-1.181.731-.286.177.321.1A6.9,6.9,0,0,1,339.8,82.04l.02.026.027.015c.569.32,1.2.353,1.616.689a.813.813,0,0,1,.263.65c-.009.247-.133.446-.33.434l-.482-.028.389.3a.945.945,0,0,1,.342.778.829.829,0,0,1-.416.686l-.028.017-.017.027a1.594,1.594,0,0,1-.894.622l-.047.014-.029.039a1.2,1.2,0,0,1-1.019.473l-.457-.043.342.307a4.617,4.617,0,0,1,1.35,1.763,1.945,1.945,0,0,1-.229,1.943l-.026.028-.009.038a.98.98,0,0,1-.424.62l-.121.071.064.126a.809.809,0,0,1,.079.53l-.028.126.122.046a2.428,2.428,0,0,1,1.307,1.221,2.28,2.28,0,0,1,.092,1.755,2.236,2.236,0,0,1-1.1,1.3,1.39,1.39,0,0,1-.81.07.542.542,0,0,1-.47-.467l-.034-.58-.247.528a1.821,1.821,0,0,1-1.373,1L337,97.19l.109.193a1.759,1.759,0,0,1-.912,2.4l-.256.08.21.171a1.758,1.758,0,0,1,.507,1.735,1.732,1.732,0,0,1-1.095,1.324l-.142.044.05.141a1.406,1.406,0,1,1-2.656.923l-.106-.318-.154.3a3.085,3.085,0,0,1-1.138,1.412.994.994,0,0,1-1.369-.361l-.135-.4-.13.4a1.892,1.892,0,0,1-1.285,1.17,1.87,1.87,0,0,1-1.628-.225l-.226-.167.008.281a1.241,1.241,0,0,1-2.466.218l-.016-.113h-.116l-3.565-.032a8.857,8.857,0,0,1-3.376-.475,6.291,6.291,0,0,1-1.457-.811,6.012,6.012,0,0,0-.7-.509,1.257,1.257,0,0,0-.9-.1,8.342,8.342,0,0,1-1.6.356,5.674,5.674,0,0,1-1.594-.091,5.548,5.548,0,0,1-2.751-1.407,3.051,3.051,0,0,0-.631-.514,1.812,1.812,0,0,0-.8-.186,12.455,12.455,0,0,1-1.524-.091,10.1,10.1,0,0,1-1.463-.3,3.457,3.457,0,0,1-1.285-.617,1.255,1.255,0,0,1-.5-1.178.9.9,0,0,1,.8-.848l.1,0,.011-.1a1.867,1.867,0,0,0-.211-1.158,1.169,1.169,0,0,0-.99-.6.829.829,0,0,0-.884.67.766.766,0,0,0,.575.9l-.044-.186a1.158,1.158,0,0,1-1.3-.077,1.313,1.313,0,0,1-.617-1.142,1.852,1.852,0,0,1,1.824-1.6h.122l-.034-.118a4.345,4.345,0,0,1-.058-2.1l.086-.383-.243.308a1.5,1.5,0,0,1-2.029.234l-.071-.06-.052.079a2.872,2.872,0,0,1-1.3,1.125,1.718,1.718,0,0,1-1.571-.137,1.145,1.145,0,0,1-.544-1.3,1.044,1.044,0,0,1,1.035-.8l.138.017-.071-.122a1.341,1.341,0,0,1,1.183-1.933l.078.008-.012-.079a2.139,2.139,0,0,1,1.291-2.262l-.045-.091a1.107,1.107,0,0,1-1.567-.6l-.025-.1-.052.085a1.067,1.067,0,0,1-.869.465,2.339,2.339,0,0,1-.9-.142,2.761,2.761,0,0,1-1.169-.777,1.256,1.256,0,0,1-.284-.792c0-.193.027-.289.019-.29" transform="translate(-96.636 -21.053)" fill="#455a64"/>
        <path id="Trazado_160114" data-name="Trazado 160114" d="M331.145,96.045a11.328,11.328,0,0,0-11.112-11.937,11.663,11.663,0,0,0-11.817,10.658,115.541,115.541,0,0,0-.666,12.5c.448,5.77,4.033,7.8,5.472,8.381a7.718,7.718,0,0,0,1.572.278.039.039,0,0,1,.036.043l-.878,6.713c-.312,4.381-1.273,19.279,3.184,19.626s11.4-14.4,11.794-18.785Z" transform="translate(-101.014 -27.627)" fill="#ffc09d"/>
        <path id="Trazado_160115" data-name="Trazado 160115" d="M311.152,105.834a.921.921,0,0,0,.823,1,.9.9,0,0,0,1.031-.752.923.923,0,0,0-.823-1,.9.9,0,0,0-1.032.753" transform="translate(-102.207 -34.515)" fill="#263238"/>
        <path id="Trazado_160116" data-name="Trazado 160116" d="M310.724,101.777c.106.129.856-.33,1.86-.25s1.7.632,1.818.519c.058-.049-.042-.274-.344-.528a2.589,2.589,0,0,0-1.443-.564,2.509,2.509,0,0,0-1.493.349c-.328.209-.451.417-.4.475" transform="translate(-102.065 -33.16)" fill="#263238"/>
        <path id="Trazado_160117" data-name="Trazado 160117" d="M325.132,106.947a.921.921,0,0,0,.823,1,.9.9,0,0,0,1.031-.752.923.923,0,0,0-.823-1,.9.9,0,0,0-1.032.753" transform="translate(-106.799 -34.88)" fill="#263238"/>
        <path id="Trazado_160118" data-name="Trazado 160118" d="M325.407,103.2c.106.128.857-.33,1.861-.25s1.7.632,1.818.519c.058-.049-.041-.274-.344-.528a2.593,2.593,0,0,0-1.444-.564,2.508,2.508,0,0,0-1.493.349c-.328.209-.451.417-.4.475" transform="translate(-106.888 -33.626)" fill="#263238"/>
        <path id="Trazado_160119" data-name="Trazado 160119" d="M317.853,110.073a6.765,6.765,0,0,0-1.608-.416c-.255-.046-.494-.115-.522-.29a1.265,1.265,0,0,1,.233-.733l.918-1.86A32.726,32.726,0,0,0,319,101.887a33.135,33.135,0,0,0-2.516,4.709q-.464.98-.887,1.874a1.445,1.445,0,0,0-.216.978.638.638,0,0,0,.392.4,1.79,1.79,0,0,0,.43.093,6.684,6.684,0,0,0,1.654.131" transform="translate(-103.588 -33.468)" fill="#263238"/>
        <path id="Trazado_160120" data-name="Trazado 160120" d="M318,130.586a16.331,16.331,0,0,0,8.943-1.872c-.308.152-1.778,5.823-9.179,3.681Z" transform="translate(-104.381 -42.281)" fill="#ff9b6c"/>
        <path id="Trazado_160121" data-name="Trazado 160121" d="M319.359,117.392a1.837,1.837,0,0,1,1.677-.534,1.652,1.652,0,0,1,1.091.69,1.017,1.017,0,0,1-.017,1.183,1.239,1.239,0,0,1-1.344.225,3.8,3.8,0,0,1-1.221-.853,1.1,1.1,0,0,1-.263-.314.326.326,0,0,1,.032-.367" transform="translate(-104.866 -38.376)" fill="#ff9b6c"/>
        <path id="Trazado_160122" data-name="Trazado 160122" d="M321.723,115.437c-.163-.022-.254,1.049-1.25,1.737s-2.148.479-2.168.629c-.021.066.242.228.731.279a2.765,2.765,0,0,0,1.805-.464,2.332,2.332,0,0,0,.978-1.461c.079-.445-.021-.719-.1-.719" transform="translate(-104.558 -37.919)" fill="#263238"/>
        <path id="Trazado_160123" data-name="Trazado 160123" d="M325.46,98.552c.077.276,1.091.227,2.258.459,1.172.208,2.094.621,2.27.392.079-.109-.066-.375-.428-.665a3.855,3.855,0,0,0-1.648-.715,3.9,3.9,0,0,0-1.8.067c-.447.138-.682.331-.65.462" transform="translate(-106.908 -32.175)" fill="#263238"/>
        <path id="Trazado_160124" data-name="Trazado 160124" d="M311.487,97.889c.158.238.87.059,1.7.113.835.026,1.525.271,1.706.049.081-.109-.011-.342-.3-.578a2.507,2.507,0,0,0-2.746-.13c-.313.207-.429.43-.36.546" transform="translate(-102.312 -31.861)" fill="#263238"/>
        <path id="Trazado_160125" data-name="Trazado 160125" d="M306.038,86.346a7.181,7.181,0,0,1,.142-.958,2.9,2.9,0,0,1,.852-1.2,9.851,9.851,0,0,1,4.043-2.832c.939-.242,1.912-.152,2.853-.385a16.432,16.432,0,0,0,1.706-.619,13.962,13.962,0,0,1,7.242-.391,11.5,11.5,0,0,1,3.891,1.262,13.932,13.932,0,0,1,3.488,3.174,21.259,21.259,0,0,1,3.887,6.257,10.4,10.4,0,0,1,.559,5.909c-.463,1.969-1.855,3.735-3.559,4.008l-.594-.809-.948-1.2c.157.478,0,.443-.4.671a.815.815,0,0,1-1.127-.419c-.343.388-1.013-.093-.871-.625-.4.181-.856-.373-.692-.842-.457.133-.66-.6-.851-1.1a7.614,7.614,0,0,0-.392-.766,4.974,4.974,0,0,1-.5-2.721,4.863,4.863,0,0,1-.618-2.675l-.068-1.773-.293-.434a.957.957,0,0,1-.708.858,2.045,2.045,0,0,1-1.062-.1l-1.032-.291-.67.136a2.663,2.663,0,0,1-.334,1.693,1.654,1.654,0,0,1-.685.9.5.5,0,0,1-.647-.588.551.551,0,0,1-.839-.2,1.807,1.807,0,0,1-.148-1.1,4.627,4.627,0,0,1,1.05-2.475l-1.961,1.559a.857.857,0,0,1-.469.237.484.484,0,0,1-.557.49,1.256,1.256,0,0,1-.637-.512c-.406-.5-.811-1.334-.372-1.827a.4.4,0,0,1-.128-.592l-2.2,1.4c.216-.1.418.237.351.5a1.1,1.1,0,0,1-.481.578,1.621,1.621,0,0,1,.158,1c.4-.3.908.361.744.886a1.174,1.174,0,0,1-1.163.764.816.816,0,0,1-.872-.678c-.462.059-.849-.6-.645-1.1-.346.193-.586-.421-.568-.869a6.448,6.448,0,0,1,.519-2.275.12.12,0,0,1-.171.034.135.135,0,0,1-.037-.091l-1.309,2.567a6.655,6.655,0,0,0-.833,2.314c-.034.338-.111.8-.4.809a.429.429,0,0,1-.22-.078,4.269,4.269,0,0,1-1.687-2.321,3.224,3.224,0,0,1-.2-1.023,13.78,13.78,0,0,1,.469-2.136" transform="translate(-100.375 -26.172)" fill="#263238"/>
        <path id="Trazado_160126" data-name="Trazado 160126" d="M340.762,106.855c.1-.036,4.031-.922,3.658,3.008s-4.242,2.744-4.238,2.631.58-5.639.58-5.639" transform="translate(-111.745 -35.064)" fill="#ffc09d"/>
        <path id="Trazado_160127" data-name="Trazado 160127" d="M342.179,111.772c.018-.011.063.054.174.119a.694.694,0,0,0,.512.059,1.705,1.705,0,0,0,.927-1.446,2.246,2.246,0,0,0-.1-1,.793.793,0,0,0-.464-.574.35.35,0,0,0-.422.149c-.063.1-.046.186-.066.191s-.079-.074-.032-.234a.439.439,0,0,1,.179-.231.519.519,0,0,1,.388-.064.965.965,0,0,1,.657.678,2.342,2.342,0,0,1,.134,1.118,1.786,1.786,0,0,1-1.161,1.6.736.736,0,0,1-.616-.164c-.113-.108-.125-.2-.11-.2" transform="translate(-112.399 -35.716)" fill="#ff9b6c"/>
        <path id="Trazado_160128" data-name="Trazado 160128" d="M319.675,86.7a.983.983,0,0,1-.221-.529.7.7,0,0,1,.228-.577.746.746,0,0,1,.769-.129l.159.069-.057-.165a.779.779,0,0,1,.282-.853.764.764,0,0,1,.974.118l.14-.11a.343.343,0,0,1-.046-.1.441.441,0,0,1,.095-.365.5.5,0,0,1,.337-.175.848.848,0,0,1,.392.051,1.053,1.053,0,0,0,.432.136c.191-.017.287-.15.388-.2a1.473,1.473,0,0,1,.321-.163,1.7,1.7,0,0,1,.644-.091,1.734,1.734,0,0,1,.9.3c.187.131.269.233.282.222a.777.777,0,0,0-.24-.277,1.684,1.684,0,0,0-.931-.37,1.784,1.784,0,0,0-.7.077,1.61,1.61,0,0,0-.359.171c-.121.073-.215.173-.312.171a1.035,1.035,0,0,1-.362-.13,1,1,0,0,0-.475-.066.681.681,0,0,0-.454.237.613.613,0,0,0-.13.518.507.507,0,0,0,.073.165l.14-.11a.906.906,0,0,0-1.534.9l.1-.095a.87.87,0,0,0-.913.177.814.814,0,0,0-.05,1.1c.071.079.123.1.126.1" transform="translate(-104.905 -27.422)" fill="#455a64"/>
        <path id="Trazado_160129" data-name="Trazado 160129" d="M312.944,86.63a1.208,1.208,0,0,1-.293-.521.882.882,0,0,1,.1-.662.923.923,0,0,1,.735-.444l.128-.006-.077-.1a1.1,1.1,0,0,1-.218-.986.591.591,0,0,1,.387-.367.469.469,0,0,1,.516.113l.455.576-.311-.667a.913.913,0,0,1,.017-.772.842.842,0,0,1,.653-.469.893.893,0,0,1,.583.109l.2.118-.066-.22c-.094-.313.244-.638.553-.652a1.506,1.506,0,0,1,.912.313l.162.106-.038-.188a.652.652,0,0,1,.266-.61,1.214,1.214,0,0,1,.627-.217,3.061,3.061,0,0,1,1.127.124,4.954,4.954,0,0,1,.919.421.862.862,0,0,0-.208-.173,2.931,2.931,0,0,0-.682-.34,3.046,3.046,0,0,0-1.168-.165,1.337,1.337,0,0,0-.706.232.8.8,0,0,0-.334.759l.124-.083a1.651,1.651,0,0,0-1.016-.351.83.83,0,0,0-.542.265.635.635,0,0,0-.167.612l.131-.1a1.066,1.066,0,0,0-.7-.134,1.02,1.02,0,0,0-.786.568,1.085,1.085,0,0,0-.012.923l.144-.091a.636.636,0,0,0-.7-.163.751.751,0,0,0-.484.471,1.234,1.234,0,0,0,.259,1.122l.05-.109a1.032,1.032,0,0,0-.822.525.975.975,0,0,0,.158,1.141c.077.075.128.1.131.1" transform="translate(-102.664 -26.589)" fill="#455a64"/>
        <path id="Trazado_160130" data-name="Trazado 160130" d="M298.929,86.822a.667.667,0,0,1,.27-.464.85.85,0,0,1,.6-.16,2.518,2.518,0,0,1,.824.271l.095.044,0-.105a.765.765,0,0,1,.683-.689,2.222,2.222,0,0,1,1.234.308l.533.252-.441-.39a.628.628,0,0,1,.125-.9,1.425,1.425,0,0,1,1.121-.166l.053.009.344.062-.273-.22a.674.674,0,0,1,.166-1.055,1.02,1.02,0,0,1,1.121.206l.338.318-.208-.414a1.527,1.527,0,0,1,.138-1.547,1.424,1.424,0,0,1,1.1-.576,1.608,1.608,0,0,1,.822.179c.176.093.257.169.265.159s-.015-.024-.053-.062a1.031,1.031,0,0,0-.186-.143,1.572,1.572,0,0,0-.851-.232,1.522,1.522,0,0,0-1.208.594,1.664,1.664,0,0,0-.173,1.7l.13-.1a1.182,1.182,0,0,0-1.316-.242.856.856,0,0,0-.437.612.755.755,0,0,0,.242.739l.072-.158L304,84.651a1.579,1.579,0,0,0-1.262.2.912.912,0,0,0-.317.559.656.656,0,0,0,.189.6l.091-.138a2.334,2.334,0,0,0-1.33-.3.9.9,0,0,0-.785.843l.09-.061a2.549,2.549,0,0,0-.869-.256.916.916,0,0,0-.655.207.638.638,0,0,0-.229.368.271.271,0,0,0,0,.151" transform="translate(-98.19 -26.775)" fill="#455a64"/>
        <path id="Trazado_160131" data-name="Trazado 160131" d="M307.478,76.628a.526.526,0,0,0,.226.1,3.038,3.038,0,0,0,.685.1,2.05,2.05,0,0,1,.977.234.629.629,0,0,1,.309.46.458.458,0,0,1-.225.5l.114.1c.056-.224.35-.344.616-.472a2.95,2.95,0,0,1,.86-.286,1.074,1.074,0,0,1,.832.2.712.712,0,0,1,.308.686l-.046.215.178-.131a1.981,1.981,0,0,1,1.2-.377,2.227,2.227,0,0,1,.978.228,2.832,2.832,0,0,1,.719.551.708.708,0,0,0-.134-.206,1.89,1.89,0,0,0-.537-.435,2.235,2.235,0,0,0-1.023-.278,2.089,2.089,0,0,0-1.3.384l.132.084a.877.877,0,0,0-.364-.858,1.245,1.245,0,0,0-.962-.241,3.069,3.069,0,0,0-.913.3,3.741,3.741,0,0,0-.406.215.648.648,0,0,0-.3.377l-.039.165.153-.068a.615.615,0,0,0,.314-.68.778.778,0,0,0-.388-.557,2.073,2.073,0,0,0-1.048-.217,3.858,3.858,0,0,1-.676-.046,2.135,2.135,0,0,0-.239-.05" transform="translate(-101.002 -25.17)" fill="#455a64"/>
        <path id="Trazado_160132" data-name="Trazado 160132" d="M321,72.671a1.89,1.89,0,0,1,.459.1,1.124,1.124,0,0,1,.419.319.969.969,0,0,1,.232.62v.1l.093-.024a.587.587,0,0,1,.616.42,1.778,1.778,0,0,1-.05.981l-.084.343.24-.267.038-.042a.755.755,0,0,1,.631-.2.846.846,0,0,1,.558.3,1.346,1.346,0,0,1,.267,1.078,2.479,2.479,0,0,1-.265.749,1.4,1.4,0,0,0-.133.269c.009.007.085-.071.193-.233a2.2,2.2,0,0,0,.328-.762,1.449,1.449,0,0,0-.265-1.206.993.993,0,0,0-1.444-.12l-.048.054.156.077a1.9,1.9,0,0,0,.036-1.082.738.738,0,0,0-.813-.506l.094.073a1.088,1.088,0,0,0-.29-.7,1.154,1.154,0,0,0-.481-.32.942.942,0,0,0-.365-.053c-.085.009-.127.023-.126.03" transform="translate(-105.444 -23.861)" fill="#455a64"/>
        <path id="Trazado_160133" data-name="Trazado 160133" d="M331.848,79.438a.467.467,0,0,0,.238-.033,1.476,1.476,0,0,0,.567-.332,1.582,1.582,0,0,0,.482-.855.811.811,0,0,1,.158-.473c.111-.116.334-.176.486-.37a.893.893,0,0,0-.126-1.217l0,.13a2.866,2.866,0,0,0,.847-.988,1.138,1.138,0,0,0,.166-.474c-.019-.007-.087.163-.251.425a3.137,3.137,0,0,1-.857.9l-.09.063.087.068a.736.736,0,0,1,.087.978c-.1.144-.3.2-.469.357a.933.933,0,0,0-.2.569,1.518,1.518,0,0,1-.407.793,2.26,2.26,0,0,1-.717.455" transform="translate(-109.007 -24.579)" fill="#455a64"/>
        <path id="Trazado_160134" data-name="Trazado 160134" d="M335.047,83.178c0,.007.05.021.146.034a2.036,2.036,0,0,0,.424,0,2.377,2.377,0,0,0,1.374-.632l-.115-.012a1.534,1.534,0,0,0,1,.641,1.6,1.6,0,0,0,.669-.021.975.975,0,0,0,.6-.394,2.084,2.084,0,0,0,.092-.249.353.353,0,0,1,.125-.156,1.12,1.12,0,0,1,.425-.146,1.421,1.421,0,0,0,.473-.147.507.507,0,0,0,.289-.416l-.119.068a1.572,1.572,0,0,0,1.081.118,1.7,1.7,0,0,0,.749-.385,1.4,1.4,0,0,0,.332-.431.452.452,0,0,0,.06-.184,2.224,2.224,0,0,1-.455.541,1.676,1.676,0,0,1-.716.328,1.455,1.455,0,0,1-.976-.129l-.115-.06,0,.129a.346.346,0,0,1-.21.273,1.284,1.284,0,0,1-.423.124,1.248,1.248,0,0,0-.5.173.535.535,0,0,0-.187.232c-.037.092-.05.174-.083.231a.823.823,0,0,1-.492.31,1.43,1.43,0,0,1-.593.023,1.391,1.391,0,0,1-.9-.555l-.051-.075-.064.062a2.41,2.41,0,0,1-1.281.653c-.351.059-.557.032-.559.052" transform="translate(-110.058 -26.563)" fill="#455a64"/>
        <path id="Trazado_160135" data-name="Trazado 160135" d="M350.172,91.479s.013-.019.026-.059a1.087,1.087,0,0,0,.045-.182,1.891,1.891,0,0,0-.024-.713,4.237,4.237,0,0,0-.392-1.037,3.919,3.919,0,0,0-.346-.6,1.045,1.045,0,0,0-.289-.265.471.471,0,0,0-.435-.037l.105.083a1.185,1.185,0,0,0-1.837-1.193l.137.083a.817.817,0,0,0-.273-.694.786.786,0,0,0-.749-.158.807.807,0,0,0-.371.234l.155.074a.511.511,0,0,0-.151-.434.7.7,0,0,0-.387-.2,1.609,1.609,0,0,0-.776.129l.1.043a1.267,1.267,0,0,0-.723-.6,1.774,1.774,0,0,0-.87-.075,4.484,4.484,0,0,0-1.4.551l.087.088a.314.314,0,0,0-.009-.312.544.544,0,0,0-.205-.186.917.917,0,0,0-.467-.112,2.553,2.553,0,0,0-.725.153,2.367,2.367,0,0,0-.42.2.484.484,0,0,0-.13.1c.009.015.2-.111.573-.231a2.673,2.673,0,0,1,.706-.119.824.824,0,0,1,.406.111c.13.073.234.21.158.336l-.113.187.2-.1a4.5,4.5,0,0,1,1.358-.512,1.637,1.637,0,0,1,.792.076,1.108,1.108,0,0,1,.624.524l.034.068.071-.025a1.476,1.476,0,0,1,.691-.118c.211.03.426.231.391.432l-.054.31.21-.237a.638.638,0,0,1,.288-.181.608.608,0,0,1,.581.12.647.647,0,0,1,.216.541l-.023.192.16-.109a1.047,1.047,0,0,1,1.179.013,1.06,1.06,0,0,1,.41,1.007l-.026.146.131-.063c.2-.1.417.079.553.25a3.928,3.928,0,0,1,.345.567,4.376,4.376,0,0,1,.416,1,2.384,2.384,0,0,1,.038.935" transform="translate(-111.638 -28.202)" fill="#455a64"/>
        <path id="Trazado_160136" data-name="Trazado 160136" d="M349.022,98.269s.039-.032.1-.105a2.707,2.707,0,0,0,.239-.338,1.267,1.267,0,0,0,.2-.639.921.921,0,0,0-.1-.418.667.667,0,0,0-.364-.332l.029.1a.832.832,0,0,0-.776-1.348l.071.133a.671.671,0,0,0,.042-.793.993.993,0,0,0-.727-.418,3.781,3.781,0,0,1-.4-.036.341.341,0,0,1-.228-.234,1.452,1.452,0,0,0-.2-.4.764.764,0,0,0-.4-.267,4.4,4.4,0,0,0-.945-.1,1.032,1.032,0,0,1-.747-.288c-.081-.1-.132-.232-.214-.361a.885.885,0,0,0-.335-.308.94.94,0,0,0-.835-.027l.095.12a.708.708,0,0,0-.026-.827,1,1,0,0,0-.637-.386,3.16,3.16,0,0,0-1.174.045,3.857,3.857,0,0,0-.72.218.92.92,0,0,0-.237.121,9.217,9.217,0,0,1,.973-.249,3.216,3.216,0,0,1,1.13-.01.874.874,0,0,1,.547.342.563.563,0,0,1,.022.649l-.212.263.308-.144a.783.783,0,0,1,.689.032.728.728,0,0,1,.271.252,3.575,3.575,0,0,0,.223.378.932.932,0,0,0,.4.271,2.072,2.072,0,0,0,.465.086,4.422,4.422,0,0,1,.9.1.594.594,0,0,1,.313.206,1.356,1.356,0,0,1,.174.363.519.519,0,0,0,.345.334,3.285,3.285,0,0,0,.421.038.827.827,0,0,1,.606.335.51.51,0,0,1-.016.6l-.156.17.227-.037a.7.7,0,0,1,.73.375.72.72,0,0,1-.077.737l-.055.07.084.029a.678.678,0,0,1,.4.634,1.241,1.241,0,0,1-.158.6c-.168.311-.291.468-.277.477" transform="translate(-111.927 -29.876)" fill="#455a64"/>
        <path id="Trazado_160137" data-name="Trazado 160137" d="M352.83,112.087a.409.409,0,0,0,.177-.041,1.234,1.234,0,0,0,.433-.285,1.276,1.276,0,0,0,.363-.727,1.354,1.354,0,0,0-.279-1.023v.1a2.463,2.463,0,0,0,.538-.844,1,1,0,0,0,.007-.571.731.731,0,0,0-.383-.476l0,.158a1.034,1.034,0,0,0,.523-.889,1.156,1.156,0,0,0-.133-.595.977.977,0,0,0-.428-.406c-.163-.089-.234-.176-.225-.348a1.414,1.414,0,0,0-.075-.53,1.8,1.8,0,0,0-.6-.766c-.224-.193-.43-.375-.628-.536a2.978,2.978,0,0,0-1.041-.6,1.368,1.368,0,0,0-.324-.055c-.076,0-.115,0-.115.009s.158.016.418.112a3.18,3.18,0,0,1,.981.633l.611.55a1.681,1.681,0,0,1,.543.708,1.258,1.258,0,0,1,.06.477.511.511,0,0,0,.073.3.688.688,0,0,0,.233.2.923.923,0,0,1,.046,1.584l-.159.081.164.077a.709.709,0,0,1,.289.841,2.381,2.381,0,0,1-.494.8l-.039.048.039.047a1.242,1.242,0,0,1,.274.913,1.208,1.208,0,0,1-.306.682,1.769,1.769,0,0,1-.547.385" transform="translate(-115.181 -34.046)" fill="#455a64"/>
        <path id="Trazado_160138" data-name="Trazado 160138" d="M331.706,91.475a1.338,1.338,0,0,0,.544-.165,1.5,1.5,0,0,0,.513-.373.985.985,0,0,0,.24-.757.777.777,0,0,0-.057-.192l-.048.12a.85.85,0,0,0,.488-.549.776.776,0,0,0-.064-.586c-.17-.3-.4-.349-.4-.33-.017.024.171.111.288.382a.685.685,0,0,1,.021.488.715.715,0,0,1-.4.431l-.081.033.034.087a.577.577,0,0,1,.042.145.851.851,0,0,1-.191.626,1.552,1.552,0,0,1-.443.365,2.694,2.694,0,0,0-.486.277" transform="translate(-108.96 -29.116)" fill="#455a64"/>
        <path id="Trazado_160139" data-name="Trazado 160139" d="M325.706,88.3a1.046,1.046,0,0,1-.069-.66.738.738,0,0,1,.466-.52.8.8,0,0,1,.837.2l.1.114.042-.148a1.461,1.461,0,0,1,.247-.506.673.673,0,0,1,.471-.279c.287-.015.583.276.486.5l.165.048a1.357,1.357,0,0,1,.563-.843,1.331,1.331,0,0,1,.786-.227,2.06,2.06,0,0,1,.733.2c0-.007-.046-.062-.165-.132a1.36,1.36,0,0,0-.562-.175,1.4,1.4,0,0,0-.874.212,1.489,1.489,0,0,0-.651.933l.165.048a.5.5,0,0,0-.132-.53.71.71,0,0,0-.519-.216.837.837,0,0,0-.6.349,1.6,1.6,0,0,0-.271.571l.144-.034a.94.94,0,0,0-1.013-.227.842.842,0,0,0-.518.631.861.861,0,0,0,.058.53c.055.113.107.158.113.153" transform="translate(-106.928 -28.207)" fill="#455a64"/>
        <path id="Trazado_160140" data-name="Trazado 160140" d="M266.83,389.645l-2.26,11.137-7.447.7-3.136-3.693,2.87-13.3Z" transform="translate(-83.431 -126.3)" fill="#ffc09d"/>
        <path id="Trazado_160141" data-name="Trazado 160141" d="M244.682,402.451l-.027.87s-14.254,5.5-14.481,8.3l27.982.694-.16-9.762a15.357,15.357,0,0,1-13.315-.1" transform="translate(-75.609 -132.199)" fill="#ff725e"/>
        <g id="Grupo_78544" data-name="Grupo 78544" transform="translate(178.094 273.344)" opacity="0.6">
          <g id="Grupo_78543" data-name="Grupo 78543">
            <g id="Grupo_78542" data-name="Grupo 78542" clip-path="url(#clip-path-5)">
              <path id="Trazado_160142" data-name="Trazado 160142" d="M266.6,407.111a1.2,1.2,0,0,1,.759,1.385,1.094,1.094,0,0,1-1.3.8,1.273,1.273,0,0,1-.8-1.472,1.125,1.125,0,0,1,1.445-.675" transform="translate(-265.213 -407.055)" fill="#fff"/>
            </g>
          </g>
        </g>
        <path id="Trazado_160143" data-name="Trazado 160143" d="M258.04,415.989,258,413.641l-26.8.194a2.552,2.552,0,0,0-1.369,2.3Z" transform="translate(-75.492 -135.875)" fill="#263238"/>
        <path id="Trazado_160144" data-name="Trazado 160144" d="M251.589,403.806c0,.143.683.225,1.345.7.674.459,1.006,1.087,1.134,1.034.126-.025-.058-.886-.869-1.448s-1.636-.42-1.61-.287" transform="translate(-82.643 -132.604)" fill="#263238"/>
        <path id="Trazado_160145" data-name="Trazado 160145" d="M247.175,405.624c-.034.138.552.4,1,1.013.467.6.57,1.26.706,1.258.128.026.242-.811-.332-1.566s-1.37-.841-1.376-.7" transform="translate(-81.193 -133.224)" fill="#263238"/>
        <path id="Trazado_160146" data-name="Trazado 160146" d="M244.062,409.848c.124.034.33-.677,0-1.469s-.965-1.12-1.025-1c-.08.116.325.546.59,1.2s.3,1.252.439,1.27" transform="translate(-79.829 -133.809)" fill="#263238"/>
        <path id="Trazado_160147" data-name="Trazado 160147" d="M332.3,388.271c.106.364,0,14.25,0,14.25l-4.178,2.6-5.457-3.425-1.154-13.42Z" transform="translate(-105.612 -127.541)" fill="#ffc09d"/>
        <path id="Trazado_160148" data-name="Trazado 160148" d="M322.015,406.449s7.432,5.525,11.029.742l.94,2.317,4.226,16.51a2.247,2.247,0,0,1-1.189,2.65,1.972,1.972,0,0,1-2.162-.433c-3.057-3.046-14.249-14.308-14.14-15.836l.044-4.054a2.06,2.06,0,0,1,1.252-1.9" transform="translate(-105.351 -133.513)" fill="#ff725e"/>
        <path id="Trazado_160149" data-name="Trazado 160149" d="M336.651,431l-15.943-17.79,0,.886a2.361,2.361,0,0,0,.756,1.954,172.8,172.8,0,0,0,13.393,14.992c.492.495,1.426.061,1.79-.041" transform="translate(-105.345 -135.734)" fill="#263238"/>
        <g id="Grupo_78547" data-name="Grupo 78547" transform="translate(215.901 274.639)" opacity="0.6">
          <g id="Grupo_78546" data-name="Grupo 78546">
            <g id="Grupo_78545" data-name="Grupo 78545" clip-path="url(#clip-path-6)">
              <path id="Trazado_160150" data-name="Trazado 160150" d="M323.31,409.185a1.335,1.335,0,0,1,.345,1.69,1.157,1.157,0,0,1-1.6.373,1.409,1.409,0,0,1-.357-1.792,1.2,1.2,0,0,1,1.7-.2" transform="translate(-321.513 -408.984)" fill="#fff"/>
            </g>
          </g>
        </g>
        <path id="Trazado_160151" data-name="Trazado 160151" d="M337.6,424.959c.113.057.559-1.039,1.743-1.633a5.994,5.994,0,0,1,2.3-.47c.017-.051-.236-.213-.7-.279a3.061,3.061,0,0,0-1.787.338,3.252,3.252,0,0,0-1.337,1.288c-.231.43-.261.739-.212.756" transform="translate(-110.889 -138.802)" fill="#263238"/>
        <path id="Trazado_160152" data-name="Trazado 160152" d="M339.735,429.562c.1.09.733-.592,1.763-.906a16.027,16.027,0,0,1,1.948-.271,2.185,2.185,0,0,0-2.075-.168c-1.173.365-1.741,1.29-1.636,1.346" transform="translate(-111.594 -140.613)" fill="#263238"/>
        <path id="Trazado_160153" data-name="Trazado 160153" d="M333.645,419.6a20.22,20.22,0,0,1,2.632-1.591,19.533,19.533,0,0,1,2.957-.735,4.342,4.342,0,0,0-3.119.308,4.592,4.592,0,0,0-2.47,2.018" transform="translate(-109.595 -137.018)" fill="#263238"/>
        <path id="Trazado_160154" data-name="Trazado 160154" d="M333.12,412.892c.054.125,1.154-.362,2.588-.422,1.434-.081,2.573.3,2.615.166a4.878,4.878,0,0,0-5.2.257" transform="translate(-109.424 -135.337)" fill="#263238"/>
        <path id="Trazado_160155" data-name="Trazado 160155" d="M336.579,410.77a1.883,1.883,0,0,0-.112-.782,5.6,5.6,0,0,0-.954-1.919,2.347,2.347,0,0,0-1.185-.951.8.8,0,0,0-.876.367,1.458,1.458,0,0,0-.144.988,2.91,2.91,0,0,0,2.982,2.264,3.39,3.39,0,0,0,2.913-2.44,1.266,1.266,0,0,0-.124-1.007.783.783,0,0,0-.907-.277,2.889,2.889,0,0,0-1.166.957,6.2,6.2,0,0,0-1.053,1.859,1.957,1.957,0,0,0-.175.769,9.866,9.866,0,0,1,1.458-2.411,2.686,2.686,0,0,1,1.036-.808.419.419,0,0,1,.5.148.871.871,0,0,1,.044.667,3.021,3.021,0,0,1-2.549,2.084A2.522,2.522,0,0,1,333.7,408.4a1.056,1.056,0,0,1,.073-.694.437.437,0,0,1,.481-.21,2.114,2.114,0,0,1,1.017.786,8.265,8.265,0,0,1,1.3,2.493" transform="translate(-109.478 -133.682)" fill="#263238"/>
        <path id="Trazado_160156" data-name="Trazado 160156" d="M317.191,217.1a69.778,69.778,0,0,1,5.208,14.047c2.3,8.677,4.881,13.033,3.941,29.026-.479,8.16-7.229,30.311-8.783,38.107-1.28,6.416-5.281,36.565-7.31,44.533H298.625l-1.183-89.242s-18.471,52.079-20.838,58.1-10.56,29.871-10.56,29.871L251.589,337.7l11.027-53.316c2.2-10.624,8.169-40.621,10.705-49.651s4.941-18.554,4.941-18.554Z" transform="translate(-82.643 -71.011)" fill="#263238"/>
        <path id="Trazado_160157" data-name="Trazado 160157" d="M347.172,241.081c-.021.009.023.165.12.443a6.889,6.889,0,0,0,.523,1.125,9.614,9.614,0,0,0,2.691,3.006,9.089,9.089,0,0,0,3.634,1.582,6.076,6.076,0,0,0,1.19.117c.283,0,.437-.015.438-.038,0-.061-.619-.08-1.582-.312a10.164,10.164,0,0,1-3.5-1.626,10.654,10.654,0,0,1-2.682-2.856c-.547-.862-.782-1.465-.835-1.441" transform="translate(-114.039 -79.191)" fill="#455a64"/>
        <path id="Trazado_160158" data-name="Trazado 160158" d="M282.187,248.385c0,.023.147.067.425.126a6.372,6.372,0,0,0,1.2.13,7.473,7.473,0,0,0,1.783-.179,8.231,8.231,0,0,0,2.064-.787,10.141,10.141,0,0,0,3.035-2.662,5.829,5.829,0,0,0,.9-1.434c-.045-.032-.406.5-1.072,1.279a11.419,11.419,0,0,1-3.012,2.519,8.312,8.312,0,0,1-3.7,1.025c-.993.031-1.61-.078-1.619-.016" transform="translate(-92.694 -80.011)" fill="#455a64"/>
        <path id="Trazado_160159" data-name="Trazado 160159" d="M319.325,243.236a3.172,3.172,0,0,0-.126.72c-.062.466-.131,1.142-.2,1.98-.138,1.675-.25,4-.23,6.563s.174,4.887.34,6.559c.083.836.163,1.511.233,1.975a3.239,3.239,0,0,0,.138.718,3.2,3.2,0,0,0-.013-.732q-.053-.81-.13-1.981c-.108-1.673-.223-3.985-.246-6.542s.055-4.869.135-6.543q.057-1.171.1-1.984a3.179,3.179,0,0,0,0-.732" transform="translate(-104.711 -79.899)" fill="#455a64"/>
        <path id="Trazado_160160" data-name="Trazado 160160" d="M323.669,140.274l10.524,5.019-1.467,19.191s-1.24,1.454-3.258,11.737,4.725,30.3,4.725,30.3l-49.528,1.24s5.813-41.508,6.485-47l2.473-20.987,9.957-.544h2.871l2.475,17.89,12.463-17.349Z" transform="translate(-93.508 -45.733)" fill="#455a64"/>
        <path id="Trazado_160161" data-name="Trazado 160161" d="M273.376,192.793a2.847,2.847,0,0,0,.153-1.131,8.038,8.038,0,0,0-.458-2.717,7.8,7.8,0,0,0-1.337-2.379c-.448-.532-.793-.785-.817-.755a13.65,13.65,0,0,1,1.853,3.25,14.1,14.1,0,0,1,.606,3.732" transform="translate(-88.991 -61.035)" fill="#263238"/>
        <path id="Trazado_160162" data-name="Trazado 160162" d="M241.753,173l17.64-.154,6.672-19.7a76.81,76.81,0,0,1,3.489-6.948c3.535-6.5,8.025-6.158,8.025-6.158l5.415,8.422-5.749,12.9s-5.5,24.325-11.876,25.393c-10.585,1.775-29.529-5.541-29.529-5.541Z" transform="translate(-77.47 -45.998)" fill="#455a64"/>
        <g id="Grupo_78550" data-name="Grupo 78550" transform="translate(195.212 131.103)" opacity="0.2">
          <g id="Grupo_78549" data-name="Grupo 78549">
            <g id="Grupo_78548" data-name="Grupo 78548" clip-path="url(#clip-path-7)">
              <path id="Trazado_160163" data-name="Trazado 160163" d="M290.739,197.169c-.017-.671-.183-1.534.4-1.822a1.955,1.955,0,0,1,1.5.113c14.616,5.181,23.074-.833,37.69,4.349l2.977,15.012c-6.485.053-9.451-1.463-15.828-3.5-6.5-2.081-13.013-4.164-19.392-6.633a17.69,17.69,0,0,1-5.016-2.626,6.375,6.375,0,0,1-2.325-4.889" transform="translate(-290.704 -195.235)"/>
            </g>
          </g>
        </g>
        <path id="Trazado_160164" data-name="Trazado 160164" d="M295.275,161.139a5.038,5.038,0,0,1-.34,1,16.724,16.724,0,0,0-.611,2.436c-.345,1.94-.414,3.549-.513,3.547a10.307,10.307,0,0,1,.169-3.609,10.632,10.632,0,0,1,.725-2.464,2.409,2.409,0,0,1,.57-.9" transform="translate(-96.485 -52.931)" fill="#263238"/>
        <path id="Trazado_160165" data-name="Trazado 160165" d="M433.819,198.786l-4.043-.1L430,189.8l4.043.1a4.19,4.19,0,0,1,4.081,4.3l-.013.5a4.191,4.191,0,0,1-4.3,4.081" transform="translate(-141.175 -62.348)" fill="#a8bc8b"/>
        <path id="Trazado_160166" data-name="Trazado 160166" d="M166.477,182.339l36.115-3.645,135.7,3.491a2.393,2.393,0,0,1,2.33,2.454l-.328,12.737a2.392,2.392,0,0,1-2.453,2.33L201.626,196.2l-35.319-7.246Z" transform="translate(-54.629 -58.698)" fill="#a8bc8b"/>
        <path id="Trazado_160167" data-name="Trazado 160167" d="M163.4,186.853l-3.319-.085-2.82.956c-.233.175-.174.4-.016.638l2.837.924,3.253.084Z" transform="translate(-51.606 -61.351)" fill="#263238"/>
        <rect id="Rectángulo_5736" data-name="Rectángulo 5736" width="17.526" height="2.817" transform="matrix(0.026, -1, 1, 0.026, 147.512, 137.515)" fill="#263238"/>
        <path id="Trazado_160168" data-name="Trazado 160168" d="M390.4,182.63h0a3.12,3.12,0,0,1-3.2,3.039l-67.734-1.743a3.12,3.12,0,0,1,.16-6.238l67.734,1.743a3.12,3.12,0,0,1,3.039,3.2" transform="translate(-103.941 -58.367)" fill="#a8bc8b"/>
        <path id="Trazado_160169" data-name="Trazado 160169" d="M390.313,182.546a3.518,3.518,0,0,0-.383-1.5,3.091,3.091,0,0,0-1.325-1.3,3.031,3.031,0,0,0-1.144-.324c-.426-.028-.9-.023-1.384-.038l-16.617-.372-24.643-.6-14.552-.365-7.7-.2-1.961-.05a7.135,7.135,0,0,0-1.916.075,2.945,2.945,0,0,0-.151,5.639,7.125,7.125,0,0,0,1.91.175l1.962.051,7.7.2,14.554.385,24.644.672,16.613.483c.489.011.957.04,1.385.034a3.044,3.044,0,0,0,1.158-.265,3.1,3.1,0,0,0,1.389-1.228,3.513,3.513,0,0,0,.459-1.481,2.368,2.368,0,0,1-.021.4,2.986,2.986,0,0,1-.377,1.116,3.162,3.162,0,0,1-2.6,1.577c-.443.011-.9-.013-1.392-.018L369.3,185.25l-24.645-.6-14.555-.364-7.7-.2-1.961-.05-.986-.025a3.6,3.6,0,0,1-1.023-.167,3.294,3.294,0,0,1,.169-6.308,3.558,3.558,0,0,1,1.03-.112l.986.026,1.961.05,7.7.2,14.552.385,24.642.672,16.614.483c.492.019.95.019,1.391.053a3.156,3.156,0,0,1,2.52,1.709,2.991,2.991,0,0,1,.32,1.134,2.418,2.418,0,0,1,0,.4" transform="translate(-103.855 -58.283)" fill="#263238"/>
        <path id="Trazado_160170" data-name="Trazado 160170" d="M425.751,186.259l3.479,1.768-.259,10.066L425.4,200.1Z" transform="translate(-139.736 -61.183)" fill="#263238"/>
        <path id="Trazado_160171" data-name="Trazado 160171" d="M359.067,180.713l-7.687-11.846-.689-1.062h0l-1.035-1.6,4.514-18.389a17.232,17.232,0,0,1,5.977,4.726,70.229,70.229,0,0,1,4.711,8.392s7.52,17.2,8.757,19.773,3.233,7.322,0,9.985-24.872,2.752-24.872,2.752l-1.458-10.87Z" transform="translate(-114.078 -48.554)" fill="#455a64"/>
        <path id="Trazado_160172" data-name="Trazado 160172" d="M350.486,165.687c.057-.011-.111-.806-.182-2.1a16.723,16.723,0,0,1,2.469-9.673c.684-1.105,1.212-1.722,1.167-1.76-.016-.015-.16.128-.407.4a10.8,10.8,0,0,0-.952,1.236,15.2,15.2,0,0,0-2.5,9.812,10.79,10.79,0,0,0,.243,1.54,1.972,1.972,0,0,0,.165.548" transform="translate(-114.974 -49.979)" fill="#263238"/>
        <path id="Trazado_160173" data-name="Trazado 160173" d="M333.719,199.389a7.445,7.445,0,0,0-1.949-2.573c-1.418-1.231-4.527-2.184-4.931-3.363s-1.582-.264-1.306,1.205c.175.935,2.1,3.387,2.1,3.387a5.937,5.937,0,0,1-3.767-.3c-1.506-.868-6.778-2.426-7.34-1.69-.637.834.743,1.111,1.335,1.448.451.255,3.954,1.993,3.954,1.993s-6.972-.238-7.85.094c-.955.361.023,1.2.462,1.221a11.314,11.314,0,0,1,2.318,1.866,3.165,3.165,0,0,0,2.112.848l1.621.024-4.922.517s-.851.778.333,1.184c.528.181,14.17,1.414,15.328,1.375,2.625-.087,6.282-.269,6.282-.269l-.641-7.389Z" transform="translate(-103.001 -63.369)" fill="#ffc09d"/>
        <path id="Trazado_160174" data-name="Trazado 160174" d="M314.667,204.8a14.735,14.735,0,0,0,6.774,1.209c0-.1-1.538-.183-3.4-.52s-3.341-.778-3.372-.688" transform="translate(-103.363 -67.27)" fill="#ff9b6c"/>
        <g id="Grupo_78553" data-name="Grupo 78553" transform="translate(159.839 128.91)" opacity="0.3">
          <g id="Grupo_78552" data-name="Grupo 78552">
            <g id="Grupo_78551" data-name="Grupo 78551" clip-path="url(#clip-path-8)">
              <path id="Trazado_160175" data-name="Trazado 160175" d="M238.028,192.028c1.34-.293,2.634.563,3.739,1.376a16.818,16.818,0,0,1,1.978,1.615c1.7,1.7,2.594,4.03,4.024,5.961l-8.035-1.224Z" transform="translate(-238.028 -191.969)"/>
            </g>
          </g>
        </g>
        <path id="Trazado_160176" data-name="Trazado 160176" d="M248.1,200.961l-3.511-.731s-3.157-5.038-4.816-5.647l-.934-.416s-1.219-2.67-2.875-2.33c-.984-.645-1.867-.387-1.961.6,0,0-.488-2.236-2.317-1.315s2.529,8.663,2.529,8.663,1.528,3.966,3.429,2.641a5.2,5.2,0,0,0,3.168-.266s1.176,1.656,3.958.394Z" transform="translate(-75.956 -62.706)" fill="#ffc09d"/>
        <path id="Trazado_160177" data-name="Trazado 160177" d="M244.959,206.071c-.017,0-.057.131-.022.374a1.667,1.667,0,0,0,.487.9A2.294,2.294,0,0,0,246.8,208a4.726,4.726,0,0,0,1.833-.2,11.525,11.525,0,0,0,3.013-1.32,4,4,0,0,0,1.074-.836,20.928,20.928,0,0,1-4.173,1.845,4.776,4.776,0,0,1-1.714.214,2.153,2.153,0,0,1-1.255-.518,2.052,2.052,0,0,1-.62-1.111" transform="translate(-80.454 -67.549)" fill="#ff9b6c"/>
        <path id="Trazado_160178" data-name="Trazado 160178" d="M238.353,199.966c.081-.056-.972-1.575-1.875-3.65s-1.324-3.873-1.42-3.85a3.828,3.828,0,0,0,.183,1.2,16.9,16.9,0,0,0,2.35,5.35,3.823,3.823,0,0,0,.762.948" transform="translate(-77.209 -63.222)" fill="#ff9b6c"/>
        <path id="Trazado_160179" data-name="Trazado 160179" d="M241.421,199.741c.082-.048-.806-1.629-1.671-3.682s-1.391-3.787-1.483-3.762a19.472,19.472,0,0,0,3.154,7.444" transform="translate(-78.264 -63.167)" fill="#ff9b6c"/>
        <path id="Trazado_160180" data-name="Trazado 160180" d="M238.937,206.052c-.087,0-.011.644.562,1.12s1.212.445,1.2.359c.01-.093-.517-.195-.994-.605s-.68-.9-.769-.874" transform="translate(-78.477 -67.685)" fill="#ff9b6c"/>
        <path id="Trazado_160181" data-name="Trazado 160181" d="M245.067,199.842a54.642,54.642,0,0,0-2.354-3.866,9.448,9.448,0,0,0,2.354,3.866" transform="translate(-79.724 -64.375)" fill="#ff9b6c"/>
      </g>
    </g>
  </g>
</svg>
