<svg xmlns="http://www.w3.org/2000/svg" xmlns:xlink="http://www.w3.org/1999/xlink" width="295" height="293.733" viewBox="0 0 295 293.733">
  <defs>
    <clipPath id="clip-path">
      <rect id="Rect치ngulo_5182" data-name="Rect치ngulo 5182" width="295" height="255.375" fill="#f1f4ec"/>
    </clipPath>
    <clipPath id="clip-path-2">
      <rect id="Rect치ngulo_5759" data-name="Rect치ngulo 5759" width="86.153" height="86.157" transform="translate(0 0)" fill="none"/>
    </clipPath>
  </defs>
  <g id="Grupo_78633" data-name="Grupo 78633" transform="translate(-495 -3965)">
    <g id="Grupo_78577" data-name="Grupo 78577" transform="translate(495 4003.358)">
      <g id="Grupo_78308" data-name="Grupo 78308" clip-path="url(#clip-path)">
        <path id="Trazado_100631" data-name="Trazado 100631" d="M295,50.078V247.357c0,4.888-4.684,8.883-10.4,8.883H10.4c-5.72,0-10.4-3.994-10.4-8.883V50.078C0,45.192,4.676,41.2,10.4,41.2H284.6c5.72,0,10.4,4,10.4,8.882" transform="translate(0 -0.866)" fill="#f1f4ec"/>
      </g>
    </g>
    <g id="Grupo_78578" data-name="Grupo 78578" transform="translate(520.692 4033.591)">
      <path id="Trazado_100647" data-name="Trazado 100647" d="M246.06,62.034H68.12c-13.593,0-24.611-6.379-24.611-14.247V28.748H270.671V47.787c0,7.868-11.019,14.247-24.611,14.247" transform="translate(-35.282 -28.748)" fill="#a8bc8b"/>
      <path id="Trazado_100648" data-name="Trazado 100648" d="M275.285,28.748l8.227,7.06h-8.227Z" transform="translate(-39.895 -28.748)" fill="#537e39"/>
      <path id="Trazado_100649" data-name="Trazado 100649" d="M37.236,28.748l-8.227,7.06h8.227Z" transform="translate(-29.009 -28.748)" fill="#537e39"/>
    </g>
    <g id="Grupo_78579" data-name="Grupo 78579" transform="translate(3.863 2644.511)">
      <path id="Trazado_156676" data-name="Trazado 156676" d="M279.255,88.605A88.606,88.606,0,1,1,190.649,0a88.606,88.606,0,0,1,88.606,88.6" transform="translate(447.988 1320.488)" fill="#a8bc8b"/>
      <path id="Trazado_156677" data-name="Trazado 156677" d="M257.616,83.067A72.506,72.506,0,1,1,185.11,10.561a72.505,72.505,0,0,1,72.506,72.506" transform="translate(454.217 1326.025)" fill="#fff"/>
    </g>
    <path id="Trazado_160512" data-name="Trazado 160512" d="M7.594,11.977H2.82V17H1.32V5.625H8.367V6.852H2.82v3.9H7.594Zm1.8.719a4.993,4.993,0,0,1,.488-2.234A3.643,3.643,0,0,1,11.238,8.93a3.7,3.7,0,0,1,1.988-.539,3.565,3.565,0,0,1,2.793,1.2,4.6,4.6,0,0,1,1.066,3.18v.1a5.036,5.036,0,0,1-.473,2.215,3.589,3.589,0,0,1-1.352,1.527,3.743,3.743,0,0,1-2.02.547,3.556,3.556,0,0,1-2.785-1.2A4.575,4.575,0,0,1,9.391,12.8Zm1.453.172a3.616,3.616,0,0,0,.652,2.258,2.211,2.211,0,0,0,3.5-.012,3.955,3.955,0,0,0,.648-2.418,3.61,3.61,0,0,0-.66-2.254,2.1,2.1,0,0,0-1.754-.863,2.075,2.075,0,0,0-1.727.852A3.925,3.925,0,0,0,10.844,12.867ZM22.984,9.844a4.331,4.331,0,0,0-.711-.055A1.9,1.9,0,0,0,20.344,11v6H18.9V8.547H20.3l.023.977a2.251,2.251,0,0,1,2.016-1.133,1.477,1.477,0,0,1,.641.109Zm2.688-1.3.039.938a3.122,3.122,0,0,1,2.508-1.094A2.417,2.417,0,0,1,30.633,9.75a3.2,3.2,0,0,1,1.1-.984,3.242,3.242,0,0,1,1.6-.375q2.781,0,2.828,2.945V17H34.711V11.422a1.941,1.941,0,0,0-.414-1.355,1.823,1.823,0,0,0-1.391-.449,1.917,1.917,0,0,0-1.336.48,1.949,1.949,0,0,0-.617,1.293V17H29.5V11.461a1.613,1.613,0,0,0-1.8-1.844,1.934,1.934,0,0,0-1.945,1.211V17H24.3V8.547ZM43.555,17a3.036,3.036,0,0,1-.2-.891,3.225,3.225,0,0,1-2.406,1.047,2.984,2.984,0,0,1-2.051-.707,2.287,2.287,0,0,1-.8-1.793,2.39,2.39,0,0,1,1-2.051,4.733,4.733,0,0,1,2.824-.73h1.406v-.664A1.623,1.623,0,0,0,42.875,10a1.821,1.821,0,0,0-1.336-.449,2.107,2.107,0,0,0-1.3.391,1.151,1.151,0,0,0-.523.945H38.266a2,2,0,0,1,.449-1.223,3.066,3.066,0,0,1,1.219-.934,4.1,4.1,0,0,1,1.691-.344,3.342,3.342,0,0,1,2.289.73,2.635,2.635,0,0,1,.859,2.012v3.891a4.757,4.757,0,0,0,.3,1.852V17Zm-2.4-1.1a2.54,2.54,0,0,0,1.289-.352,2.127,2.127,0,0,0,.883-.914V12.9H42.2q-2.656,0-2.656,1.555a1.316,1.316,0,0,0,.453,1.063A1.742,1.742,0,0,0,41.156,15.9ZM49,6.5V8.547h1.578V9.664H49v5.249a1.173,1.173,0,0,0,.211.763.888.888,0,0,0,.719.254,3.5,3.5,0,0,0,.688-.094V17a4.215,4.215,0,0,1-1.109.155,1.8,1.8,0,0,1-1.461-.586,2.517,2.517,0,0,1-.492-1.664V9.664H46.016V8.547h1.539V6.5Zm2.727,6.2a4.993,4.993,0,0,1,.488-2.234A3.643,3.643,0,0,1,53.574,8.93a3.7,3.7,0,0,1,1.988-.539,3.565,3.565,0,0,1,2.793,1.2,4.6,4.6,0,0,1,1.066,3.18v.1a5.036,5.036,0,0,1-.473,2.215A3.589,3.589,0,0,1,57.6,16.609a3.743,3.743,0,0,1-2.02.547,3.556,3.556,0,0,1-2.785-1.2A4.575,4.575,0,0,1,51.727,12.8Zm1.453.172a3.616,3.616,0,0,0,.652,2.258,2.211,2.211,0,0,0,3.5-.012,3.955,3.955,0,0,0,.648-2.418,3.61,3.61,0,0,0-.66-2.254,2.1,2.1,0,0,0-1.754-.863,2.075,2.075,0,0,0-1.727.852A3.925,3.925,0,0,0,53.18,12.867ZM64.844,12.7a4.952,4.952,0,0,1,.922-3.129,3.137,3.137,0,0,1,4.766-.168V5h1.445V17H70.648l-.07-.906a2.943,2.943,0,0,1-2.414,1.063,2.887,2.887,0,0,1-2.395-1.2,5.008,5.008,0,0,1-.926-3.141Zm1.445.164a3.749,3.749,0,0,0,.594,2.25,1.92,1.92,0,0,0,1.641.813A2.108,2.108,0,0,0,70.531,14.7V10.813a2.125,2.125,0,0,0-1.992-1.2,1.929,1.929,0,0,0-1.656.82A4.128,4.128,0,0,0,66.289,12.867Zm11.438,4.289a3.693,3.693,0,0,1-2.8-1.129,4.19,4.19,0,0,1-1.078-3.02v-.266a5.073,5.073,0,0,1,.48-2.246,3.748,3.748,0,0,1,1.344-1.547,3.378,3.378,0,0,1,1.871-.559,3.166,3.166,0,0,1,2.563,1.086,4.7,4.7,0,0,1,.914,3.109v.6H75.3a3,3,0,0,0,.73,2.02,2.3,2.3,0,0,0,1.777.77,2.517,2.517,0,0,0,1.3-.312,3.259,3.259,0,0,0,.93-.828l.883.688A3.55,3.55,0,0,1,77.727,17.156Zm-.18-7.578a1.928,1.928,0,0,0-1.469.637A3.1,3.1,0,0,0,75.344,12h4.234v-.109a2.753,2.753,0,0,0-.594-1.707A1.815,1.815,0,0,0,77.547,9.578Zm11.9,5.461,2.094-6.492h1.477L89.984,17h-1.1L85.82,8.547H87.3Zm8.469,2.117a3.693,3.693,0,0,1-2.8-1.129,4.19,4.19,0,0,1-1.078-3.02v-.266a5.073,5.073,0,0,1,.48-2.246,3.748,3.748,0,0,1,1.344-1.547,3.378,3.378,0,0,1,1.871-.559A3.166,3.166,0,0,1,100.3,9.477a4.7,4.7,0,0,1,.914,3.109v.6H95.484a3,3,0,0,0,.73,2.02,2.3,2.3,0,0,0,1.777.77,2.517,2.517,0,0,0,1.3-.312,3.259,3.259,0,0,0,.93-.828l.883.688A3.55,3.55,0,0,1,97.914,17.156Zm-.18-7.578a1.928,1.928,0,0,0-1.469.637A3.1,3.1,0,0,0,95.531,12h4.234v-.109a2.753,2.753,0,0,0-.594-1.707A1.815,1.815,0,0,0,97.734,9.578Zm9.234.266a4.331,4.331,0,0,0-.711-.055A1.9,1.9,0,0,0,104.328,11v6h-1.445V8.547h1.406l.023.977a2.251,2.251,0,0,1,2.016-1.133,1.477,1.477,0,0,1,.641.109Zm2.9,7.156h-1.445V8.547h1.445ZM108.3,6.3a.863.863,0,0,1,.215-.594.807.807,0,0,1,.637-.242.819.819,0,0,1,.641.242.854.854,0,0,1,.219.594.826.826,0,0,1-.219.586.834.834,0,0,1-.641.234.821.821,0,0,1-.637-.234A.834.834,0,0,1,108.3,6.3ZM112.664,17V9.664h-1.336V8.547h1.336V7.828a2.937,2.937,0,0,1,.809-2.2,3.136,3.136,0,0,1,2.285-.789,6.881,6.881,0,0,1,2.211.477l-.242,1.219a5.008,5.008,0,0,0-1.859-.391,1.819,1.819,0,0,0-1.34.418,1.723,1.723,0,0,0-.41,1.254v.734h1.727V9.664h-1.727V17Zm6.023,0h-1.453V8.547h1.453Zm5.742-1.023a2.082,2.082,0,0,0,1.352-.469,1.649,1.649,0,0,0,.641-1.172h1.367a2.621,2.621,0,0,1-.5,1.383,3.293,3.293,0,0,1-1.23,1.047,3.55,3.55,0,0,1-1.629.391A3.482,3.482,0,0,1,121.684,16a4.59,4.59,0,0,1-1.02-3.152v-.242a5.089,5.089,0,0,1,.453-2.2,3.451,3.451,0,0,1,1.3-1.492,3.7,3.7,0,0,1,2-.531,3.39,3.39,0,0,1,2.363.852,3.043,3.043,0,0,1,1,2.211h-1.367a1.992,1.992,0,0,0-.621-1.348,1.932,1.932,0,0,0-1.379-.527,2.023,2.023,0,0,0-1.707.793,3.724,3.724,0,0,0-.605,2.293v.273a3.65,3.65,0,0,0,.6,2.25A2.033,2.033,0,0,0,124.43,15.977ZM134.633,17a3.036,3.036,0,0,1-.2-.891,3.225,3.225,0,0,1-2.406,1.047,2.984,2.984,0,0,1-2.051-.707,2.287,2.287,0,0,1-.8-1.793,2.39,2.39,0,0,1,1-2.051,4.733,4.733,0,0,1,2.824-.73h1.406v-.664A1.623,1.623,0,0,0,133.953,10a1.821,1.821,0,0,0-1.336-.449,2.107,2.107,0,0,0-1.3.391,1.151,1.151,0,0,0-.523.945h-1.453a2,2,0,0,1,.449-1.223,3.066,3.066,0,0,1,1.219-.934,4.1,4.1,0,0,1,1.691-.344,3.342,3.342,0,0,1,2.289.73,2.635,2.635,0,0,1,.859,2.012v3.891a4.757,4.757,0,0,0,.3,1.852V17Zm-2.4-1.1a2.54,2.54,0,0,0,1.289-.352,2.127,2.127,0,0,0,.883-.914V12.9h-1.133q-2.656,0-2.656,1.555a1.316,1.316,0,0,0,.453,1.063A1.742,1.742,0,0,0,132.234,15.9Zm9.273.078a2.082,2.082,0,0,0,1.352-.469,1.649,1.649,0,0,0,.641-1.172h1.367a2.621,2.621,0,0,1-.5,1.383,3.293,3.293,0,0,1-1.23,1.047,3.55,3.55,0,0,1-1.629.391A3.482,3.482,0,0,1,138.762,16a4.59,4.59,0,0,1-1.02-3.152v-.242a5.089,5.089,0,0,1,.453-2.2,3.451,3.451,0,0,1,1.3-1.492,3.7,3.7,0,0,1,2-.531,3.39,3.39,0,0,1,2.363.852,3.043,3.043,0,0,1,1,2.211H143.5a1.992,1.992,0,0,0-.621-1.348,1.932,1.932,0,0,0-1.379-.527,2.023,2.023,0,0,0-1.707.793,3.724,3.724,0,0,0-.605,2.293v.273a3.65,3.65,0,0,0,.6,2.25A2.033,2.033,0,0,0,141.508,15.977ZM148.063,17h-1.445V8.547h1.445ZM146.5,6.3a.863.863,0,0,1,.215-.594.807.807,0,0,1,.637-.242.819.819,0,0,1,.641.242.854.854,0,0,1,.219.594.826.826,0,0,1-.219.586.834.834,0,0,1-.641.234.821.821,0,0,1-.637-.234A.834.834,0,0,1,146.5,6.3Zm3.492,6.391a4.993,4.993,0,0,1,.488-2.234A3.642,3.642,0,0,1,151.84,8.93a3.7,3.7,0,0,1,1.988-.539,3.565,3.565,0,0,1,2.793,1.2,4.6,4.6,0,0,1,1.066,3.18v.1a5.036,5.036,0,0,1-.473,2.215,3.589,3.589,0,0,1-1.352,1.527,3.743,3.743,0,0,1-2.02.547,3.556,3.556,0,0,1-2.785-1.2,4.575,4.575,0,0,1-1.066-3.164Zm1.453.172a3.616,3.616,0,0,0,.652,2.258,2.211,2.211,0,0,0,3.5-.012,3.954,3.954,0,0,0,.648-2.418,3.61,3.61,0,0,0-.66-2.254,2.1,2.1,0,0,0-1.754-.863,2.075,2.075,0,0,0-1.727.852A3.925,3.925,0,0,0,151.445,12.867ZM154.484,5h1.75l-2.094,2.3-1.164,0Zm6.383,3.547.047,1.063a3.08,3.08,0,0,1,2.531-1.219q2.68,0,2.7,3.023V17H164.7V11.406a1.946,1.946,0,0,0-.418-1.352,1.675,1.675,0,0,0-1.277-.437,2.086,2.086,0,0,0-1.234.375,2.546,2.546,0,0,0-.828.984V17H159.5V8.547Zm18.563,4.32a5.062,5.062,0,0,1-.883,3.109,2.829,2.829,0,0,1-2.391,1.18,3.1,3.1,0,0,1-2.422-.977v4.07h-1.445V8.547h1.32l.07.938a2.977,2.977,0,0,1,2.453-1.094,2.882,2.882,0,0,1,2.41,1.148,5.117,5.117,0,0,1,.887,3.2Zm-1.445-.164a3.735,3.735,0,0,0-.609-2.258,1.963,1.963,0,0,0-1.672-.828,2.125,2.125,0,0,0-1.969,1.164V14.82a2.129,2.129,0,0,0,1.984,1.156,1.954,1.954,0,0,0,1.652-.824A4.077,4.077,0,0,0,177.984,12.7Zm7.367-2.859a4.331,4.331,0,0,0-.711-.055A1.9,1.9,0,0,0,182.711,11v6h-1.445V8.547h1.406l.023.977a2.251,2.251,0,0,1,2.016-1.133,1.477,1.477,0,0,1,.641.109Zm4.836,7.313a3.693,3.693,0,0,1-2.8-1.129,4.19,4.19,0,0,1-1.078-3.02v-.266a5.073,5.073,0,0,1,.48-2.246,3.748,3.748,0,0,1,1.344-1.547,3.378,3.378,0,0,1,1.871-.559,3.166,3.166,0,0,1,2.563,1.086,4.7,4.7,0,0,1,.914,3.109v.6h-5.727a3,3,0,0,0,.73,2.02,2.3,2.3,0,0,0,1.777.77,2.517,2.517,0,0,0,1.3-.312,3.258,3.258,0,0,0,.93-.828l.883.688A3.55,3.55,0,0,1,190.188,17.156Zm-.18-7.578a1.928,1.928,0,0,0-1.469.637A3.1,3.1,0,0,0,187.8,12h4.234v-.109a2.753,2.753,0,0,0-.594-1.707A1.815,1.815,0,0,0,190.008,9.578ZM196.727,17h-1.445V5h1.445Zm3.883,0h-1.445V8.547h1.445ZM199.047,6.3a.863.863,0,0,1,.215-.594.807.807,0,0,1,.637-.242.819.819,0,0,1,.641.242.854.854,0,0,1,.219.594.826.826,0,0,1-.219.586.834.834,0,0,1-.641.234.821.821,0,0,1-.637-.234A.834.834,0,0,1,199.047,6.3Zm5.242,2.242.047,1.063a3.08,3.08,0,0,1,2.531-1.219q2.68,0,2.7,3.023V17h-1.445V11.406a1.946,1.946,0,0,0-.418-1.352,1.675,1.675,0,0,0-1.277-.437,2.086,2.086,0,0,0-1.234.375,2.546,2.546,0,0,0-.828.984V17h-1.445V8.547ZM213.32,17h-1.445V8.547h1.445ZM211.758,6.3a.863.863,0,0,1,.215-.594.807.807,0,0,1,.637-.242.819.819,0,0,1,.641.242.854.854,0,0,1,.219.594.826.826,0,0,1-.219.586.834.834,0,0,1-.641.234.821.821,0,0,1-.637-.234A.834.834,0,0,1,211.758,6.3Zm5.234,2.242.039.938a3.122,3.122,0,0,1,2.508-1.094,2.417,2.417,0,0,1,2.414,1.359,3.2,3.2,0,0,1,1.1-.984,3.242,3.242,0,0,1,1.6-.375q2.781,0,2.828,2.945V17h-1.445V11.422a1.941,1.941,0,0,0-.414-1.355,1.823,1.823,0,0,0-1.391-.449,1.917,1.917,0,0,0-1.336.48,1.949,1.949,0,0,0-.617,1.293V17H220.82V11.461a1.613,1.613,0,0,0-1.8-1.844,1.934,1.934,0,0,0-1.945,1.211V17h-1.445V8.547ZM234.875,17a3.036,3.036,0,0,1-.2-.891,3.225,3.225,0,0,1-2.406,1.047,2.984,2.984,0,0,1-2.051-.707,2.287,2.287,0,0,1-.8-1.793,2.39,2.39,0,0,1,1-2.051,4.733,4.733,0,0,1,2.824-.73h1.406v-.664A1.623,1.623,0,0,0,234.2,10a1.821,1.821,0,0,0-1.336-.449,2.107,2.107,0,0,0-1.3.391,1.151,1.151,0,0,0-.523.945h-1.453a2,2,0,0,1,.449-1.223,3.066,3.066,0,0,1,1.219-.934,4.1,4.1,0,0,1,1.691-.344,3.342,3.342,0,0,1,2.289.73,2.635,2.635,0,0,1,.859,2.012v3.891a4.757,4.757,0,0,0,.3,1.852V17Zm-2.4-1.1a2.54,2.54,0,0,0,1.289-.352,2.127,2.127,0,0,0,.883-.914V12.9h-1.133q-2.656,0-2.656,1.555a1.316,1.316,0,0,0,.453,1.063A1.742,1.742,0,0,0,232.477,15.9Zm9.969-6.055a4.331,4.331,0,0,0-.711-.055A1.9,1.9,0,0,0,239.8,11v6h-1.445V8.547h1.406l.023.977A2.251,2.251,0,0,1,241.8,8.391a1.477,1.477,0,0,1,.641.109ZM.742,36.7a4.952,4.952,0,0,1,.922-3.129,2.915,2.915,0,0,1,2.414-1.184A2.932,2.932,0,0,1,6.43,33.406V29H7.875V41H6.547l-.07-.906a2.943,2.943,0,0,1-2.414,1.063,2.887,2.887,0,0,1-2.395-1.2,5.008,5.008,0,0,1-.926-3.141Zm1.445.164a3.749,3.749,0,0,0,.594,2.25,1.92,1.92,0,0,0,1.641.813A2.108,2.108,0,0,0,6.43,38.7V34.813a2.125,2.125,0,0,0-1.992-1.2,1.929,1.929,0,0,0-1.656.82A4.128,4.128,0,0,0,2.188,36.867Zm11.438,4.289a3.693,3.693,0,0,1-2.8-1.129,4.19,4.19,0,0,1-1.078-3.02v-.266a5.073,5.073,0,0,1,.48-2.246,3.748,3.748,0,0,1,1.344-1.547,3.378,3.378,0,0,1,1.871-.559,3.166,3.166,0,0,1,2.563,1.086,4.7,4.7,0,0,1,.914,3.109v.6H11.2a3,3,0,0,0,.73,2.02,2.3,2.3,0,0,0,1.777.77,2.517,2.517,0,0,0,1.3-.312,3.258,3.258,0,0,0,.93-.828l.883.688A3.55,3.55,0,0,1,13.625,41.156Zm-.18-7.578a1.928,1.928,0,0,0-1.469.637A3.1,3.1,0,0,0,11.242,36h4.234v-.109a2.753,2.753,0,0,0-.594-1.707A1.815,1.815,0,0,0,13.445,33.578ZM24.125,41H22.68V29h1.445Zm7.531,0a3.036,3.036,0,0,1-.2-.891,3.225,3.225,0,0,1-2.406,1.047A2.984,2.984,0,0,1,27,40.449a2.287,2.287,0,0,1-.8-1.793,2.39,2.39,0,0,1,1-2.051,4.733,4.733,0,0,1,2.824-.73H31.43v-.664A1.623,1.623,0,0,0,30.977,34a1.821,1.821,0,0,0-1.336-.449,2.107,2.107,0,0,0-1.3.391,1.151,1.151,0,0,0-.523.945H26.367a2,2,0,0,1,.449-1.223,3.066,3.066,0,0,1,1.219-.934,4.1,4.1,0,0,1,1.691-.344,3.342,3.342,0,0,1,2.289.73,2.635,2.635,0,0,1,.859,2.012v3.891a4.757,4.757,0,0,0,.3,1.852V41Zm-2.4-1.1a2.54,2.54,0,0,0,1.289-.352,2.127,2.127,0,0,0,.883-.914V36.9H30.3q-2.656,0-2.656,1.555a1.316,1.316,0,0,0,.453,1.063A1.742,1.742,0,0,0,29.258,39.9Zm9.492-3.2a4.952,4.952,0,0,1,.922-3.129,3.137,3.137,0,0,1,4.766-.168V29h1.445V41H44.555l-.07-.906a2.943,2.943,0,0,1-2.414,1.063,2.887,2.887,0,0,1-2.395-1.2,5.008,5.008,0,0,1-.926-3.141Zm1.445.164a3.749,3.749,0,0,0,.594,2.25,1.919,1.919,0,0,0,1.641.813A2.108,2.108,0,0,0,44.438,38.7V34.813a2.125,2.125,0,0,0-1.992-1.2,1.929,1.929,0,0,0-1.656.82A4.128,4.128,0,0,0,40.2,36.867Zm7.547-.172a4.993,4.993,0,0,1,.488-2.234A3.643,3.643,0,0,1,49.59,32.93a3.7,3.7,0,0,1,1.988-.539,3.565,3.565,0,0,1,2.793,1.2,4.6,4.6,0,0,1,1.066,3.18v.1a5.036,5.036,0,0,1-.473,2.215,3.589,3.589,0,0,1-1.352,1.527,3.743,3.743,0,0,1-2.02.547,3.556,3.556,0,0,1-2.785-1.2A4.575,4.575,0,0,1,47.742,36.8Zm1.453.172a3.616,3.616,0,0,0,.652,2.258,2.211,2.211,0,0,0,3.5-.012,3.955,3.955,0,0,0,.648-2.418,3.61,3.61,0,0,0-.66-2.254,2.1,2.1,0,0,0-1.754-.863,2.075,2.075,0,0,0-1.727.852A3.925,3.925,0,0,0,49.2,36.867Zm11.445,3.109a2.082,2.082,0,0,0,1.352-.469,1.649,1.649,0,0,0,.641-1.172H64a2.621,2.621,0,0,1-.5,1.383,3.293,3.293,0,0,1-1.23,1.047,3.55,3.55,0,0,1-1.629.391A3.482,3.482,0,0,1,57.895,40a4.59,4.59,0,0,1-1.02-3.152v-.242a5.089,5.089,0,0,1,.453-2.2,3.451,3.451,0,0,1,1.3-1.492,3.7,3.7,0,0,1,2-.531A3.39,3.39,0,0,1,63,33.242a3.043,3.043,0,0,1,1,2.211H62.633a1.992,1.992,0,0,0-.621-1.348,1.932,1.932,0,0,0-1.379-.527,2.023,2.023,0,0,0-1.707.793,3.724,3.724,0,0,0-.605,2.293v.273a3.65,3.65,0,0,0,.6,2.25A2.033,2.033,0,0,0,60.641,39.977Zm10.2.188a3.07,3.07,0,0,1-2.477.992,2.628,2.628,0,0,1-2.059-.785,3.4,3.4,0,0,1-.715-2.324v-5.5h1.445v5.461q0,1.922,1.563,1.922A2.163,2.163,0,0,0,70.8,38.7V32.547H72.25V41H70.875ZM75.8,32.547l.039.938a3.122,3.122,0,0,1,2.508-1.094,2.417,2.417,0,0,1,2.414,1.359,3.2,3.2,0,0,1,1.1-.984,3.242,3.242,0,0,1,1.6-.375q2.781,0,2.828,2.945V41H84.844V35.422a1.941,1.941,0,0,0-.414-1.355,1.823,1.823,0,0,0-1.391-.449,1.916,1.916,0,0,0-1.336.48,1.949,1.949,0,0,0-.617,1.293V41H79.633V35.461a1.613,1.613,0,0,0-1.8-1.844,1.934,1.934,0,0,0-1.945,1.211V41H74.438V32.547Zm16.172,8.609a3.693,3.693,0,0,1-2.8-1.129,4.19,4.19,0,0,1-1.078-3.02v-.266a5.073,5.073,0,0,1,.48-2.246,3.748,3.748,0,0,1,1.344-1.547,3.378,3.378,0,0,1,1.871-.559,3.166,3.166,0,0,1,2.563,1.086,4.7,4.7,0,0,1,.914,3.109v.6H89.547a3,3,0,0,0,.73,2.02,2.3,2.3,0,0,0,1.777.77,2.517,2.517,0,0,0,1.3-.312,3.259,3.259,0,0,0,.93-.828l.883.688A3.55,3.55,0,0,1,91.977,41.156Zm-.18-7.578a1.928,1.928,0,0,0-1.469.637A3.1,3.1,0,0,0,89.594,36h4.234v-.109a2.753,2.753,0,0,0-.594-1.707A1.815,1.815,0,0,0,91.8,33.578Zm6.516-1.031.047,1.063a3.08,3.08,0,0,1,2.531-1.219q2.68,0,2.7,3.023V41h-1.445V35.406a1.946,1.946,0,0,0-.418-1.352,1.675,1.675,0,0,0-1.277-.437,2.086,2.086,0,0,0-1.234.375,2.546,2.546,0,0,0-.828.984V41H96.945V32.547Zm9.422-2.047v2.047h1.578v1.117h-1.578v5.249a1.173,1.173,0,0,0,.211.763.888.888,0,0,0,.719.254,3.5,3.5,0,0,0,.688-.094V41a4.215,4.215,0,0,1-1.109.155,1.8,1.8,0,0,1-1.461-.586,2.517,2.517,0,0,1-.492-1.664V33.664H104.75V32.547h1.539V30.5ZM116.219,41a3.036,3.036,0,0,1-.2-.891,3.225,3.225,0,0,1-2.406,1.047,2.984,2.984,0,0,1-2.051-.707,2.288,2.288,0,0,1-.8-1.793,2.39,2.39,0,0,1,1-2.051,4.733,4.733,0,0,1,2.824-.73h1.406v-.664A1.623,1.623,0,0,0,115.539,34a1.821,1.821,0,0,0-1.336-.449,2.107,2.107,0,0,0-1.3.391,1.151,1.151,0,0,0-.523.945H110.93a2,2,0,0,1,.449-1.223,3.066,3.066,0,0,1,1.219-.934,4.1,4.1,0,0,1,1.691-.344,3.342,3.342,0,0,1,2.289.73,2.635,2.635,0,0,1,.859,2.012v3.891a4.757,4.757,0,0,0,.3,1.852V41Zm-2.4-1.1a2.54,2.54,0,0,0,1.289-.352,2.127,2.127,0,0,0,.883-.914V36.9h-1.133q-2.656,0-2.656,1.555a1.316,1.316,0,0,0,.453,1.063A1.742,1.742,0,0,0,113.82,39.9Zm9.273.078a2.082,2.082,0,0,0,1.352-.469,1.649,1.649,0,0,0,.641-1.172h1.367a2.621,2.621,0,0,1-.5,1.383,3.293,3.293,0,0,1-1.23,1.047,3.55,3.55,0,0,1-1.629.391A3.482,3.482,0,0,1,120.348,40a4.59,4.59,0,0,1-1.02-3.152v-.242a5.089,5.089,0,0,1,.453-2.2,3.451,3.451,0,0,1,1.3-1.492,3.7,3.7,0,0,1,2-.531,3.39,3.39,0,0,1,2.363.852,3.043,3.043,0,0,1,1,2.211h-1.367a1.992,1.992,0,0,0-.621-1.348,1.932,1.932,0,0,0-1.379-.527,2.023,2.023,0,0,0-1.707.793,3.724,3.724,0,0,0-.605,2.293v.273a3.65,3.65,0,0,0,.6,2.25A2.033,2.033,0,0,0,123.094,39.977ZM129.648,41H128.2V32.547h1.445Zm-1.562-10.7a.863.863,0,0,1,.215-.594.807.807,0,0,1,.637-.242.819.819,0,0,1,.641.242.854.854,0,0,1,.219.594.826.826,0,0,1-.219.586.834.834,0,0,1-.641.234.821.821,0,0,1-.637-.234A.834.834,0,0,1,128.086,30.3Zm3.492,6.391a4.993,4.993,0,0,1,.488-2.234,3.642,3.642,0,0,1,1.359-1.531,3.7,3.7,0,0,1,1.988-.539,3.565,3.565,0,0,1,2.793,1.2,4.6,4.6,0,0,1,1.066,3.18v.1a5.036,5.036,0,0,1-.473,2.215,3.589,3.589,0,0,1-1.352,1.527,3.743,3.743,0,0,1-2.02.547,3.556,3.556,0,0,1-2.785-1.2,4.575,4.575,0,0,1-1.066-3.164Zm1.453.172a3.616,3.616,0,0,0,.652,2.258,2.211,2.211,0,0,0,3.5-.012,3.954,3.954,0,0,0,.648-2.418,3.61,3.61,0,0,0-.66-2.254,2.1,2.1,0,0,0-1.754-.863,2.075,2.075,0,0,0-1.727.852A3.925,3.925,0,0,0,133.031,36.867ZM136.07,29h1.75l-2.094,2.3-1.164,0Zm6.383,3.547.047,1.063a3.08,3.08,0,0,1,2.531-1.219q2.68,0,2.7,3.023V41h-1.445V35.406a1.946,1.946,0,0,0-.418-1.352,1.675,1.675,0,0,0-1.277-.437,2.086,2.086,0,0,0-1.234.375,2.546,2.546,0,0,0-.828.984V41h-1.445V32.547ZM154.1,41V29.625h3.211a5.169,5.169,0,0,1,2.625.656,4.438,4.438,0,0,1,1.762,1.867,6.077,6.077,0,0,1,.629,2.781v.727a6.1,6.1,0,0,1-.621,2.82,4.369,4.369,0,0,1-1.773,1.859A5.5,5.5,0,0,1,157.25,41Zm1.5-10.148v8.922h1.578a3.434,3.434,0,0,0,2.7-1.079,4.458,4.458,0,0,0,.965-3.073v-.665a4.529,4.529,0,0,0-.91-3.014,3.239,3.239,0,0,0-2.582-1.091Zm15.273,7.172h-4.766L165.039,41h-1.547l4.344-11.375h1.313L173.5,41h-1.539ZM166.563,36.8h3.867l-1.937-5.32Zm14.75,1.227h-4.766L175.477,41H173.93l4.344-11.375h1.313L183.938,41H182.4ZM177,36.8h3.867l-1.937-5.32Zm8.273,3.445a.905.905,0,0,1,.223-.625.848.848,0,0,1,.668-.25.874.874,0,0,1,.676.25.887.887,0,0,1,.23.625.839.839,0,0,1-.23.6.89.89,0,0,1-.676.242.8.8,0,0,1-.891-.844Z" transform="translate(519 4161)" fill="#12263f"/>
    <g id="Grupo_78589" data-name="Grupo 78589" transform="translate(606.553 4010.155)">
      <g id="Grupo_78588" data-name="Grupo 78588" clip-path="url(#clip-path-2)">
        <path id="Trazado_160459" data-name="Trazado 160459" d="M36.347,54.858a1.683,1.683,0,1,1-1.683,1.683,1.683,1.683,0,0,1,1.683-1.683" fill="#456c3a"/>
        <path id="Trazado_160460" data-name="Trazado 160460" d="M6.731,22.885v6.731A1.682,1.682,0,0,0,8.414,31.3H57.045a1.682,1.682,0,0,0,1.683-1.683V22.885A1.682,1.682,0,0,0,57.045,21.2H8.414a1.682,1.682,0,0,0-1.683,1.682m17.837,1.683H55.362v3.366H24.568Zm-14.471,0H21.2v3.366H10.1Z" fill="#456c3a"/>
        <path id="Trazado_160461" data-name="Trazado 160461" d="M8.414,38.03H57.046a1.683,1.683,0,0,0,0-3.366H8.414a1.683,1.683,0,1,0,0,3.366" fill="#456c3a"/>
        <path id="Trazado_160462" data-name="Trazado 160462" d="M8.414,44.761H57.046a1.683,1.683,0,0,0,0-3.366H8.414a1.683,1.683,0,0,0,0,3.366" fill="#456c3a"/>
        <path id="Trazado_160463" data-name="Trazado 160463" d="M8.414,51.492H36.348a1.683,1.683,0,0,0,0-3.366H8.414a1.683,1.683,0,0,0,0,3.366" fill="#456c3a"/>
        <path id="Trazado_160464" data-name="Trazado 160464" d="M8.414,58.223h21.2a1.683,1.683,0,0,0,0-3.366H8.414a1.683,1.683,0,0,0,0,3.366" fill="#456c3a"/>
        <path id="Trazado_160465" data-name="Trazado 160465" d="M22.885,71.686h8.584a8.414,8.414,0,1,0,0-3.366H22.885a1.683,1.683,0,0,0,0,3.366M39.713,68.32H34.954a5.048,5.048,0,1,1,0,3.366h4.759a1.683,1.683,0,1,0,0-3.366" fill="#456c3a"/>
        <path id="Trazado_160466" data-name="Trazado 160466" d="M57.045,13.462a1.683,1.683,0,1,0,0-3.366H53.679a1.683,1.683,0,0,0,0,3.366Z" fill="#456c3a"/>
        <path id="Trazado_160467" data-name="Trazado 160467" d="M46.949,13.462a1.683,1.683,0,0,0,0-3.366H43.583a1.683,1.683,0,0,0,0,3.366Z" fill="#456c3a"/>
        <path id="Trazado_160468" data-name="Trazado 160468" d="M36.852,13.462a1.683,1.683,0,0,0,0-3.366H33.486a1.683,1.683,0,0,0,0,3.366Z" fill="#456c3a"/>
        <path id="Trazado_160469" data-name="Trazado 160469" d="M32.982,82.792A1.683,1.683,0,1,1,31.3,84.475a1.683,1.683,0,0,1,1.683-1.683" fill="#456c3a"/>
        <path id="Trazado_160470" data-name="Trazado 160470" d="M1.683,86.157H25.41a1.683,1.683,0,0,0,0-3.366H3.365V16.827h11.78a1.683,1.683,0,0,0,1.683-1.682V3.365H62.094V50.929c-.764.9-1.476,1.7-2.093,2.328L56.433,49.69a8.406,8.406,0,0,0-11.9,0l-2.38,2.379a1.683,1.683,0,0,0,0,2.38L62.093,74.388v8.4H40.554a1.683,1.683,0,1,0,0,3.366H63.776a1.684,1.684,0,0,0,1.683-1.683V77.753l.493.493a1.683,1.683,0,0,0,2.38,0l2.379-2.379a8.409,8.409,0,0,0,0-11.9L67.144,60.4c3.192-3.11,10.214-8.277,13.9-9.883A8.434,8.434,0,1,0,69.985,39.394a45,45,0,0,1-4.526,7.247V1.682A1.682,1.682,0,0,0,63.776,0H15.145a1.7,1.7,0,0,0-1.19.493L.493,13.955A1.687,1.687,0,0,0,0,15.145V84.474A1.683,1.683,0,0,0,1.683,86.157ZM68.331,66.348a5.045,5.045,0,0,1,0,7.139l-1.189,1.19L45.724,53.259l1.19-1.19a5.044,5.044,0,0,1,7.139,0ZM65.1,52.586c2.917-3.517,6.511-8.539,7.968-11.831a5.068,5.068,0,1,1,6.64,6.677c-4.187,1.824-11.475,7.2-14.939,10.589l-2.383-2.384C63.179,54.821,64.111,53.774,65.1,52.586ZM13.462,5.745v7.717H5.745Z" fill="#456c3a"/>
      </g>
    </g>
  </g>
</svg>
