<svg xmlns="http://www.w3.org/2000/svg" xmlns:xlink="http://www.w3.org/1999/xlink" width="12.054" height="12.063" viewBox="0 0 12.054 12.063">
  <defs>
    <clipPath id="clip-path">
      <rect id="Rectángulo_5159" data-name="Rectángulo 5159" width="12.054" height="12.063" fill="none"/>
    </clipPath>
  </defs>
  <g id="Grupo_78394" data-name="Grupo 78394" transform="translate(0 0)">
    <g id="Grupo_60876" data-name="Grupo 60876" transform="translate(0 0)" clip-path="url(#clip-path)">
      <path id="Trazado_103893" data-name="Trazado 103893" d="M11.873,1.406a4.9,4.9,0,0,0-.421-.958.18.18,0,0,0-.191-.08,4.839,4.839,0,0,0-.979.365,2.814,2.814,0,0,0-1.4,1.339A2.6,2.6,0,0,0,8.8,3.647a5.013,5.013,0,0,0-.942-.82,7.306,7.306,0,0,0-.819-1.256.177.177,0,0,0-.274.223,7.043,7.043,0,0,1,.652.959L5.8,2.44,4.275.353A2.551,2.551,0,0,1,4.721.4,3.052,3.052,0,0,1,6.1,1.11.177.177,0,0,0,6.331.841,3.4,3.4,0,0,0,4.789.052a4.055,4.055,0,0,0-2.731.6,7.072,7.072,0,0,0-1.236.882A.188.188,0,0,0,.8,1.779a7.19,7.19,0,0,0,.793,1.244,5.485,5.485,0,0,0,.835.858c-.083.069-.163.142-.24.218A4.086,4.086,0,0,0,3.511,10.8a.177.177,0,0,0,.133-.327,3.751,3.751,0,0,1-.764-.421,1.991,1.991,0,0,0-.3-1.394c-.056-.087.111-.43.211-.634a3.339,3.339,0,0,0,.26-.634.483.483,0,0,0-.172-.53,1.3,1.3,0,0,0-.42-.186.9.9,0,0,1-.231-.09,2.34,2.34,0,0,1-.3-.487,3.023,3.023,0,0,0-.323-.531A3.76,3.76,0,0,1,2.721,4.1a3.094,3.094,0,0,0,1.489.553,1.332,1.332,0,0,0-.538,1.7c.337.693,1.031.582,1.644.485.106-.017.215-.035.32-.047.039-.005.051.006.059.013.134.119.13.689.127,1.1a2.574,2.574,0,0,0,.207,1.4.54.54,0,0,0,.444.215.885.885,0,0,0,.349-.08,1.645,1.645,0,0,0,1-1.458,1.921,1.921,0,0,1-.007-1.043,1.868,1.868,0,0,1,.871-.727,3.731,3.731,0,0,1-4.055,4.517.177.177,0,0,0-.039.352A4.109,4.109,0,0,0,7.9,9.938,4.083,4.083,0,0,0,7.274,3.6c.234-.166.407-.31.5-.394A4.717,4.717,0,0,1,8.859,4.286a4.691,4.691,0,0,1-4.578,7.36A4.69,4.69,0,0,1,.418,6.254.177.177,0,0,0,.069,6.2,5.044,5.044,0,0,0,4.224,12a5.125,5.125,0,0,0,.833.069A5.047,5.047,0,0,0,9.672,5.005a5.1,5.1,0,0,0,.815-.321,2.813,2.813,0,0,0,1.4-1.339,2.811,2.811,0,0,0-.018-1.939M1.616,6.266A2.2,2.2,0,0,0,2,6.858a1.019,1.019,0,0,0,.354.157c.345.106.386.158.352.295a3.075,3.075,0,0,1-.234.563c-.182.373-.355.726-.191.98a1.681,1.681,0,0,1,.267.937A3.766,3.766,0,0,1,1.46,5.98c.052.089.107.193.156.285m8.55-3.473-.5-1.218a3.334,3.334,0,0,1,.769-.521,4.722,4.722,0,0,1,.558-.235ZM11.317.956a4.738,4.738,0,0,1,.221.565,3.372,3.372,0,0,1,.16.852l-1.177.486ZM9.2,2.211a1.667,1.667,0,0,1,.2-.343l.572,1.386L9.46,4.48A4.7,4.7,0,0,1,9.231,3.9,2.529,2.529,0,0,1,9.2,2.211m1.132,2.154a4.656,4.656,0,0,1-.54.229l.532-1.273,1.355-.559a1.709,1.709,0,0,1-.118.446,2.526,2.526,0,0,1-1.229,1.157m-6.372-.1c-.062-.012-.124-.027-.185-.044L5.735,2.786,7.346,3.1A4.645,4.645,0,0,1,3.964,4.264M2.177,3.158a6.874,6.874,0,0,1-.9-1.241l2.049.4ZM2.539.8,3.4,1.97l-2.063-.4A6.973,6.973,0,0,1,2.539.8M3.907,2.069,2.868.652A3.977,3.977,0,0,1,3.856.379L5.293,2.34Zm-.11.339,1.466.286L3.382,4.073a3.673,3.673,0,0,1-.953-.661Zm4.8,3.451a2.233,2.233,0,0,0-1.1.931,2.152,2.152,0,0,0-.02,1.243,1.312,1.312,0,0,1-.792,1.079c-.177.076-.3.067-.374-.026a2.707,2.707,0,0,1-.133-1.18c0-.615.008-1.146-.246-1.372a.417.417,0,0,0-.338-.1c-.111.014-.224.032-.333.049-.649.1-1.058.145-1.27-.29-.343-.705.352-1.228.666-1.419a1.125,1.125,0,0,0,.178-.136,5.138,5.138,0,0,0,2.119-.826A3.753,3.753,0,0,1,8.593,5.859" transform="translate(0 0)" fill="#456c3a"/>
    </g>
  </g>
</svg>
