<svg id="Grupo_78426" data-name="Grupo 78426" xmlns="http://www.w3.org/2000/svg" xmlns:xlink="http://www.w3.org/1999/xlink" width="71.635" height="86.394" viewBox="0 0 71.635 86.394">
  <defs>
    <clipPath id="clip-path">
      <rect id="Rectángulo_5569" data-name="Rectángulo 5569" width="71.635" height="86.394" fill="none"/>
    </clipPath>
  </defs>
  <g id="Grupo_78425" data-name="Grupo 78425" clip-path="url(#clip-path)">
    <path id="Trazado_156564" data-name="Trazado 156564" d="M48.956,23.31H3.6A3.61,3.61,0,0,0,0,26.91V97.825a3.61,3.61,0,0,0,3.6,3.6H59.936a3.61,3.61,0,0,0,3.6-3.6V37.889Z" transform="translate(0 -15.03)" fill="#f6d4b9"/>
    <path id="Trazado_156565" data-name="Trazado 156565" d="M86.338,74.516V15.48L70.859,0H26.4a3.61,3.61,0,0,0-3.6,3.6V74.516a3.61,3.61,0,0,0,3.6,3.6H82.739a3.61,3.61,0,0,0,3.6-3.6" transform="translate(-14.703 -0.001)" fill="#f2f2f2"/>
    <path id="Trazado_156566" data-name="Trazado 156566" d="M158.1,12.779a2.843,2.843,0,0,0,2.88,2.88h12.6L158.1,0Z" transform="translate(-101.94)" fill="#cdd6e0"/>
    <rect id="Rectángulo_5563" data-name="Rectángulo 5563" width="21.598" height="4.5" transform="translate(43.736 26.998)" fill="#a8bc8b"/>
    <rect id="Rectángulo_5564" data-name="Rectángulo 5564" width="50.937" height="4.5" transform="translate(14.4 37.077)" fill="#cdd6e0"/>
    <rect id="Rectángulo_5565" data-name="Rectángulo 5565" width="50.937" height="4.5" transform="translate(14.4 47.157)" fill="#cdd6e0"/>
    <rect id="Rectángulo_5566" data-name="Rectángulo 5566" width="50.937" height="4.5" transform="translate(14.4 57.236)" fill="#acb3ba"/>
    <rect id="Rectángulo_5567" data-name="Rectángulo 5567" width="23.399" height="4.5" transform="translate(14.4 67.315)" fill="#acb3ba"/>
    <rect id="Rectángulo_5568" data-name="Rectángulo 5568" width="23.218" height="25.019" transform="translate(14.579 6.48)" fill="#a8bc8b"/>
  </g>
</svg>
