<svg xmlns="http://www.w3.org/2000/svg" xmlns:xlink="http://www.w3.org/1999/xlink" width="1021" height="405" viewBox="0 0 1021 405">
  <defs>
    <clipPath id="clip-path">
      <rect id="Rectángulo_5298" data-name="Rectángulo 5298" width="86.9" height="88.398" fill="none"/>
    </clipPath>
    <clipPath id="clip-path-2">
      <rect id="Rectángulo_5299" data-name="Rectángulo 5299" width="70.833" height="92.391" fill="none"/>
    </clipPath>
    <clipPath id="clip-path-3">
      <rect id="Rectángulo_5322" data-name="Rectángulo 5322" width="77.306" height="83.033" fill="none"/>
    </clipPath>
  </defs>
  <g id="Grupo_78631" data-name="Grupo 78631" transform="translate(-290 -5895)">
    <path id="Trazado_160499" data-name="Trazado 160499" d="M10,0H1011a10,10,0,0,1,10,10V395a10,10,0,0,1-10,10H10A10,10,0,0,1,0,395V10A10,10,0,0,1,10,0Z" transform="translate(290 5895)" fill="#f1f4ec"/>
    <path id="Trazado_160508" data-name="Trazado 160508" d="M64,0A64,64,0,1,1,0,64,64,64,0,0,1,64,0Z" transform="translate(390 6061.175)" fill="#537e39"/>
    <path id="Trazado_160500" data-name="Trazado 160500" d="M63.83,0A63.83,63.83,0,1,1,0,63.83,63.83,63.83,0,0,1,63.83,0Z" transform="translate(1020 6069.175)" fill="#537e39"/>
    <path id="Trazado_160507" data-name="Trazado 160507" d="M8.164,21h-3.3V10.492l-3.242.947v-2.5l6.24-2.158h.3Zm6.377-3.193a1.874,1.874,0,0,1,1.3.464,1.619,1.619,0,0,1,0,2.373,2.049,2.049,0,0,1-2.6,0,1.618,1.618,0,0,1,0-2.363A1.858,1.858,0,0,1,14.541,17.807Zm14.424-1.836H27.109V21H23.682V6.781h5.6A6.246,6.246,0,0,1,33.232,7.9a3.8,3.8,0,0,1,1.426,3.17,4.616,4.616,0,0,1-.6,2.458,4.263,4.263,0,0,1-1.88,1.58l2.969,5.741V21H31.475Zm-1.855-2.637h2.168a1.946,1.946,0,0,0,1.47-.514,1.987,1.987,0,0,0,.493-1.434,2.01,2.01,0,0,0-.5-1.444,1.928,1.928,0,0,0-1.465-.524H27.109ZM41.689,21.2a5.432,5.432,0,0,1-3.936-1.45,5.008,5.008,0,0,1-1.5-3.774V15.7a6.489,6.489,0,0,1,.6-2.861A4.395,4.395,0,0,1,38.6,10.917a5.292,5.292,0,0,1,2.734-.679,4.574,4.574,0,0,1,3.516,1.382,5.43,5.43,0,0,1,1.289,3.853v1.279H39.6a2.372,2.372,0,0,0,.771,1.4,2.3,2.3,0,0,0,1.543.508,2.958,2.958,0,0,0,2.441-1.094l1.5,1.777a4.2,4.2,0,0,1-1.743,1.353A5.891,5.891,0,0,1,41.689,21.2Zm-.371-8.418q-1.445,0-1.719,1.914h3.32v-.254a1.63,1.63,0,0,0-.4-1.226A1.593,1.593,0,0,0,41.318,12.777Zm10.615,5.879a1.464,1.464,0,0,0,1.074-.376,1.379,1.379,0,0,0,.371-1.05h3.086a3.653,3.653,0,0,1-1.245,2.852A4.631,4.631,0,0,1,52.012,21.2a4.689,4.689,0,0,1-3.633-1.445,5.7,5.7,0,0,1-1.328-4v-.137a6.436,6.436,0,0,1,.591-2.827,4.3,4.3,0,0,1,1.7-1.885,5.081,5.081,0,0,1,2.637-.659,4.573,4.573,0,0,1,3.271,1.143,4.053,4.053,0,0,1,1.211,3.1H53.379a1.807,1.807,0,0,0-.4-1.26,1.382,1.382,0,0,0-1.074-.439q-1.279,0-1.494,1.631a11.507,11.507,0,0,0-.068,1.426,4.52,4.52,0,0,0,.381,2.207A1.319,1.319,0,0,0,51.934,18.656Zm5.508-3.037a6.236,6.236,0,0,1,.615-2.817,4.4,4.4,0,0,1,1.768-1.9,5.323,5.323,0,0,1,2.705-.664,4.858,4.858,0,0,1,3.74,1.47,5.64,5.64,0,0,1,1.367,4v.117a5.472,5.472,0,0,1-1.372,3.921,4.871,4.871,0,0,1-3.716,1.45,4.927,4.927,0,0,1-3.623-1.353,5.29,5.29,0,0,1-1.475-3.667Zm3.291.205a3.932,3.932,0,0,0,.459,2.148,1.529,1.529,0,0,0,1.357.684q1.758,0,1.8-2.705v-.332q0-2.842-1.816-2.842-1.65,0-1.787,2.451ZM72.559,21h-3.3V6h3.3Zm7.139.2a5.432,5.432,0,0,1-3.936-1.45,5.008,5.008,0,0,1-1.5-3.774V15.7a6.489,6.489,0,0,1,.6-2.861,4.395,4.395,0,0,1,1.753-1.919,5.292,5.292,0,0,1,2.734-.679,4.574,4.574,0,0,1,3.516,1.382,5.43,5.43,0,0,1,1.289,3.853v1.279H77.607a2.372,2.372,0,0,0,.771,1.4,2.3,2.3,0,0,0,1.543.508,2.958,2.958,0,0,0,2.441-1.094l1.5,1.777a4.2,4.2,0,0,1-1.743,1.353A5.891,5.891,0,0,1,79.7,21.2Zm-.371-8.418q-1.445,0-1.719,1.914h3.32v-.254a1.63,1.63,0,0,0-.4-1.226A1.593,1.593,0,0,0,79.326,12.777Zm10.615,5.879a1.464,1.464,0,0,0,1.074-.376,1.379,1.379,0,0,0,.371-1.05h3.086a3.653,3.653,0,0,1-1.245,2.852A4.631,4.631,0,0,1,90.02,21.2a4.689,4.689,0,0,1-3.633-1.445,5.7,5.7,0,0,1-1.328-4v-.137a6.436,6.436,0,0,1,.591-2.827,4.3,4.3,0,0,1,1.7-1.885,5.081,5.081,0,0,1,2.637-.659,4.573,4.573,0,0,1,3.271,1.143,4.053,4.053,0,0,1,1.211,3.1H91.387a1.806,1.806,0,0,0-.4-1.26,1.382,1.382,0,0,0-1.074-.439q-1.279,0-1.494,1.631a11.508,11.508,0,0,0-.068,1.426,4.52,4.52,0,0,0,.381,2.207A1.319,1.319,0,0,0,89.941,18.656Zm10.391,0a1.464,1.464,0,0,0,1.074-.376,1.379,1.379,0,0,0,.371-1.05h3.086a3.653,3.653,0,0,1-1.245,2.852A4.631,4.631,0,0,1,100.41,21.2a4.689,4.689,0,0,1-3.633-1.445,5.7,5.7,0,0,1-1.328-4v-.137a6.436,6.436,0,0,1,.591-2.827,4.3,4.3,0,0,1,1.7-1.885,5.081,5.081,0,0,1,2.637-.659,4.573,4.573,0,0,1,3.271,1.143,4.053,4.053,0,0,1,1.211,3.1h-3.086a1.806,1.806,0,0,0-.4-1.26,1.382,1.382,0,0,0-1.074-.439q-1.279,0-1.494,1.631a11.508,11.508,0,0,0-.068,1.426,4.52,4.52,0,0,0,.381,2.207A1.319,1.319,0,0,0,100.332,18.656ZM109.727,21h-3.3V10.434h3.3Zm-3.5-13.291a1.469,1.469,0,0,1,.508-1.152,2.159,2.159,0,0,1,2.637,0,1.469,1.469,0,0,1,.508,1.152,1.469,1.469,0,0,1-.508,1.152,2.159,2.159,0,0,1-2.637,0A1.469,1.469,0,0,1,106.23,7.709Zm5.107,7.91a6.236,6.236,0,0,1,.615-2.817,4.4,4.4,0,0,1,1.768-1.9,5.323,5.323,0,0,1,2.705-.664,4.858,4.858,0,0,1,3.74,1.47,5.64,5.64,0,0,1,1.367,4v.117a5.472,5.472,0,0,1-1.372,3.921,4.871,4.871,0,0,1-3.716,1.45,4.927,4.927,0,0,1-3.623-1.353,5.29,5.29,0,0,1-1.475-3.667Zm3.291.205a3.932,3.932,0,0,0,.459,2.148,1.529,1.529,0,0,0,1.357.684q1.758,0,1.8-2.705v-.332q0-2.842-1.816-2.842-1.65,0-1.787,2.451ZM116.875,6h3.477l-2.715,3.066-2.686,0Zm9.131,4.434.107,1.24a3.583,3.583,0,0,1,3.018-1.436,3.015,3.015,0,0,1,2.466.986,4.7,4.7,0,0,1,.845,2.969V21h-3.3V14.33a1.783,1.783,0,0,0-.322-1.177,1.491,1.491,0,0,0-1.172-.376,1.569,1.569,0,0,0-1.436.762V21H122.92V10.434Z" transform="translate(390 5996.175)" fill="#537e39"/>
    <path id="Trazado_160505" data-name="Trazado 160505" d="M3.877,12.514H5.43a1.614,1.614,0,0,0,1.846-1.807A1.562,1.562,0,0,0,6.836,9.56,1.666,1.666,0,0,0,5.6,9.115,1.784,1.784,0,0,0,4.458,9.5a1.162,1.162,0,0,0-.483.947H.684a3.369,3.369,0,0,1,.625-2A4.127,4.127,0,0,1,3.042,7.069a5.926,5.926,0,0,1,2.437-.493A5.823,5.823,0,0,1,9.209,7.66a3.6,3.6,0,0,1,1.357,2.979A3,3,0,0,1,10,12.372,4,4,0,0,1,8.369,13.7a3.823,3.823,0,0,1,1.777,1.245,3.279,3.279,0,0,1,.645,2.065,3.669,3.669,0,0,1-1.465,3.047A6.08,6.08,0,0,1,5.479,21.2a6.306,6.306,0,0,1-2.593-.532,4.062,4.062,0,0,1-1.812-1.475,3.834,3.834,0,0,1-.615-2.144H3.77A1.482,1.482,0,0,0,4.3,18.178a1.862,1.862,0,0,0,1.3.479,1.95,1.95,0,0,0,1.387-.483A1.616,1.616,0,0,0,7.5,16.938a1.889,1.889,0,0,0-.537-1.523,2.245,2.245,0,0,0-1.484-.449h-1.6Zm10.664,5.293a1.874,1.874,0,0,1,1.3.464,1.619,1.619,0,0,1,0,2.373,2.049,2.049,0,0,1-2.6,0,1.618,1.618,0,0,1,0-2.363A1.858,1.858,0,0,1,14.541,17.807Zm17.217.537h-4.7L26.24,21H22.578L27.793,6.781h3.223L36.27,21H32.588ZM27.881,15.7h3.057L29.4,10.766Zm11.826-5.264.107,1.24a3.583,3.583,0,0,1,3.018-1.436,3.015,3.015,0,0,1,2.466.986,4.7,4.7,0,0,1,.845,2.969V21h-3.3V14.33a1.783,1.783,0,0,0-.322-1.177,1.491,1.491,0,0,0-1.172-.376,1.569,1.569,0,0,0-1.436.762V21H36.621V10.434ZM53.916,21a3.716,3.716,0,0,1-.312-.947A3.06,3.06,0,0,1,51.064,21.2a3.749,3.749,0,0,1-2.539-.9,2.875,2.875,0,0,1-1.045-2.271,2.955,2.955,0,0,1,1.27-2.6,6.468,6.468,0,0,1,3.691-.879h1.016v-.559q0-1.462-1.26-1.462a1.03,1.03,0,0,0-1.172,1.158H47.734a2.95,2.95,0,0,1,1.3-2.487,5.479,5.479,0,0,1,3.325-.956,4.8,4.8,0,0,1,3.193.986,3.429,3.429,0,0,1,1.2,2.705v4.678a4.79,4.79,0,0,0,.449,2.227V21Zm-2.061-2.148a1.836,1.836,0,0,0,1.021-.264,1.653,1.653,0,0,0,.581-.6V16.3H52.5q-1.719,0-1.719,1.543a.942.942,0,0,0,.3.728A1.1,1.1,0,0,0,51.855,18.852ZM52.676,6h3.477L53.438,9.066l-2.686,0Zm9.375,15h-3.3V6h3.3Zm5.5,0h-3.3V10.434h3.3Zm-3.5-13.291a1.469,1.469,0,0,1,.508-1.152,2.159,2.159,0,0,1,2.637,0,1.469,1.469,0,0,1,.508,1.152A1.469,1.469,0,0,1,67.2,8.861a2.159,2.159,0,0,1-2.637,0A1.469,1.469,0,0,1,64.053,7.709ZM75.107,18.031a.76.76,0,0,0-.439-.674A6.684,6.684,0,0,0,73,16.83a7.615,7.615,0,0,1-2.031-.718,3.4,3.4,0,0,1-1.221-1.079,2.577,2.577,0,0,1-.42-1.455,2.92,2.92,0,0,1,1.2-2.4,4.948,4.948,0,0,1,3.145-.942,5.482,5.482,0,0,1,3.359.947,2.962,2.962,0,0,1,1.27,2.49H75q0-1.27-1.338-1.27a1.326,1.326,0,0,0-.869.288.892.892,0,0,0-.352.718.819.819,0,0,0,.43.713,4.06,4.06,0,0,0,1.372.449,11.857,11.857,0,0,1,1.655.42,3.007,3.007,0,0,1,2.383,2.939A2.767,2.767,0,0,1,77,20.287a5.631,5.631,0,0,1-3.325.908,5.747,5.747,0,0,1-2.422-.488,4.05,4.05,0,0,1-1.66-1.328,3.007,3.007,0,0,1-.6-1.768H72.07a1.272,1.272,0,0,0,.488,1.069,2.009,2.009,0,0,0,1.2.337,1.58,1.58,0,0,0,1.011-.273A.875.875,0,0,0,75.107,18.031ZM83.291,21h-3.3V10.434h3.3Zm-3.5-13.291A1.469,1.469,0,0,1,80.3,6.557a2.159,2.159,0,0,1,2.637,0,1.469,1.469,0,0,1,.508,1.152,1.469,1.469,0,0,1-.508,1.152,2.159,2.159,0,0,1-2.637,0A1.469,1.469,0,0,1,79.795,7.709ZM90.85,18.031a.76.76,0,0,0-.439-.674,6.684,6.684,0,0,0-1.67-.527,7.615,7.615,0,0,1-2.031-.718,3.4,3.4,0,0,1-1.221-1.079,2.577,2.577,0,0,1-.42-1.455,2.92,2.92,0,0,1,1.2-2.4,4.948,4.948,0,0,1,3.145-.942,5.482,5.482,0,0,1,3.359.947,2.962,2.962,0,0,1,1.27,2.49h-3.3q0-1.27-1.338-1.27a1.326,1.326,0,0,0-.869.288.892.892,0,0,0-.352.718.819.819,0,0,0,.43.713,4.06,4.06,0,0,0,1.372.449,11.857,11.857,0,0,1,1.655.42,3.007,3.007,0,0,1,2.383,2.939,2.767,2.767,0,0,1-1.284,2.354,5.631,5.631,0,0,1-3.325.908,5.747,5.747,0,0,1-2.422-.488,4.05,4.05,0,0,1-1.66-1.328,3.007,3.007,0,0,1-.6-1.768h3.076a1.272,1.272,0,0,0,.488,1.069,2.009,2.009,0,0,0,1.2.337,1.58,1.58,0,0,0,1.011-.273A.875.875,0,0,0,90.85,18.031Zm9.277-2.393a6.455,6.455,0,0,1,1.084-3.955,3.568,3.568,0,0,1,3.027-1.445,3.035,3.035,0,0,1,2.383,1.113V6h3.3V21h-2.959l-.166-1.133a3.116,3.116,0,0,1-2.578,1.328,3.562,3.562,0,0,1-2.988-1.445A6.659,6.659,0,0,1,100.127,15.639Zm3.291.205q0,2.813,1.641,2.813a1.62,1.62,0,0,0,1.563-.918V13.715a1.576,1.576,0,0,0-1.543-.937q-1.523,0-1.65,2.461ZM116.9,21.2a5.432,5.432,0,0,1-3.936-1.45,5.008,5.008,0,0,1-1.5-3.774V15.7a6.489,6.489,0,0,1,.6-2.861,4.395,4.395,0,0,1,1.753-1.919,5.292,5.292,0,0,1,2.734-.679,4.574,4.574,0,0,1,3.516,1.382,5.43,5.43,0,0,1,1.289,3.853v1.279h-6.543a2.372,2.372,0,0,0,.771,1.4,2.3,2.3,0,0,0,1.543.508,2.958,2.958,0,0,0,2.441-1.094l1.5,1.777a4.2,4.2,0,0,1-1.743,1.353A5.891,5.891,0,0,1,116.9,21.2Zm-.371-8.418q-1.445,0-1.719,1.914h3.32v-.254a1.63,1.63,0,0,0-.4-1.226A1.593,1.593,0,0,0,116.533,12.777ZM131.133,21h-3.3V6h3.3Zm7.979,0a3.716,3.716,0,0,1-.312-.947A3.06,3.06,0,0,1,136.26,21.2a3.749,3.749,0,0,1-2.539-.9,2.875,2.875,0,0,1-1.045-2.271,2.955,2.955,0,0,1,1.27-2.6,6.468,6.468,0,0,1,3.691-.879h1.016v-.559q0-1.462-1.26-1.462a1.03,1.03,0,0,0-1.172,1.158H132.93a2.95,2.95,0,0,1,1.3-2.487,5.479,5.479,0,0,1,3.325-.956,4.8,4.8,0,0,1,3.193.986,3.429,3.429,0,0,1,1.2,2.705v4.678a4.79,4.79,0,0,0,.449,2.227V21Zm-2.061-2.148a1.836,1.836,0,0,0,1.021-.264,1.653,1.653,0,0,0,.581-.6V16.3H137.7q-1.719,0-1.719,1.543a.942.942,0,0,0,.3.728A1.1,1.1,0,0,0,137.051,18.852ZM152.227,21h-3.3V10.434h3.3Zm-3.5-13.291a1.469,1.469,0,0,1,.508-1.152,2.159,2.159,0,0,1,2.637,0,1.469,1.469,0,0,1,.508,1.152,1.469,1.469,0,0,1-.508,1.152,2.159,2.159,0,0,1-2.637,0A1.469,1.469,0,0,1,148.73,7.709Zm8.545,2.725.107,1.24a3.583,3.583,0,0,1,3.018-1.436,3.015,3.015,0,0,1,2.466.986,4.7,4.7,0,0,1,.845,2.969V21h-3.3V14.33a1.783,1.783,0,0,0-.322-1.177,1.491,1.491,0,0,0-1.172-.376,1.569,1.569,0,0,0-1.436.762V21h-3.291V10.434ZM166.26,21V12.719h-1.533V10.434h1.533v-.84a3.651,3.651,0,0,1,1.064-2.8,4.206,4.206,0,0,1,2.988-1A6.544,6.544,0,0,1,171.855,6l.01,2.422a3.007,3.007,0,0,0-.811-.088q-1.494,0-1.494,1.289v.811h2.061v2.285h-2.061V21Zm6.1-5.381a6.236,6.236,0,0,1,.615-2.817,4.4,4.4,0,0,1,1.768-1.9,5.323,5.323,0,0,1,2.705-.664,4.858,4.858,0,0,1,3.74,1.47,5.64,5.64,0,0,1,1.367,4v.117a5.472,5.472,0,0,1-1.372,3.921,4.871,4.871,0,0,1-3.716,1.45,4.927,4.927,0,0,1-3.623-1.353,5.29,5.29,0,0,1-1.475-3.667Zm3.291.205a3.932,3.932,0,0,0,.459,2.148,1.529,1.529,0,0,0,1.357.684q1.758,0,1.8-2.705v-.332q0-2.842-1.816-2.842-1.65,0-1.787,2.451ZM190.4,13.412l-1.084-.078a1.947,1.947,0,0,0-1.992.977V21h-3.291V10.434h3.086l.107,1.357a2.548,2.548,0,0,1,2.314-1.553,3.209,3.209,0,0,1,.918.117Zm4.3-2.979.107,1.24a3.633,3.633,0,0,1,3.018-1.436,2.675,2.675,0,0,1,2.705,1.592,3.516,3.516,0,0,1,3.105-1.592q3.213,0,3.3,3.887V21h-3.3V14.33a2.014,2.014,0,0,0-.273-1.182,1.164,1.164,0,0,0-1-.371,1.559,1.559,0,0,0-1.455.869l.01.137V21h-3.3V14.35a2.117,2.117,0,0,0-.264-1.2,1.161,1.161,0,0,0-1.006-.371,1.578,1.578,0,0,0-1.445.869V21h-3.291V10.434ZM214.766,21a3.716,3.716,0,0,1-.312-.947,3.06,3.06,0,0,1-2.539,1.143,3.749,3.749,0,0,1-2.539-.9,2.875,2.875,0,0,1-1.045-2.271,2.955,2.955,0,0,1,1.27-2.6,6.468,6.468,0,0,1,3.691-.879h1.016v-.559q0-1.462-1.26-1.462a1.03,1.03,0,0,0-1.172,1.158h-3.291a2.95,2.95,0,0,1,1.3-2.487,5.479,5.479,0,0,1,3.325-.956,4.8,4.8,0,0,1,3.193.986,3.429,3.429,0,0,1,1.2,2.705v4.678a4.79,4.79,0,0,0,.449,2.227V21Zm-2.061-2.148a1.836,1.836,0,0,0,1.021-.264,1.653,1.653,0,0,0,.581-.6V16.3h-.957q-1.719,0-1.719,1.543a.942.942,0,0,0,.3.728A1.1,1.1,0,0,0,212.705,18.852Zm11.191-.2a1.464,1.464,0,0,0,1.074-.376,1.379,1.379,0,0,0,.371-1.05h3.086a3.653,3.653,0,0,1-1.245,2.852,4.631,4.631,0,0,1-3.208,1.113,4.689,4.689,0,0,1-3.633-1.445,5.7,5.7,0,0,1-1.328-4v-.137a6.436,6.436,0,0,1,.591-2.827,4.3,4.3,0,0,1,1.7-1.885,5.081,5.081,0,0,1,2.637-.659,4.573,4.573,0,0,1,3.271,1.143,4.053,4.053,0,0,1,1.211,3.1h-3.086a1.807,1.807,0,0,0-.4-1.26,1.382,1.382,0,0,0-1.074-.439q-1.279,0-1.494,1.631a11.507,11.507,0,0,0-.068,1.426,4.52,4.52,0,0,0,.381,2.207A1.319,1.319,0,0,0,223.9,18.656ZM233.291,21h-3.3V10.434h3.3Zm-3.5-13.291a1.469,1.469,0,0,1,.508-1.152,2.159,2.159,0,0,1,2.637,0,1.469,1.469,0,0,1,.508,1.152,1.469,1.469,0,0,1-.508,1.152,2.159,2.159,0,0,1-2.637,0A1.469,1.469,0,0,1,229.795,7.709Zm5.107,7.91a6.236,6.236,0,0,1,.615-2.817,4.4,4.4,0,0,1,1.768-1.9,5.323,5.323,0,0,1,2.705-.664,4.858,4.858,0,0,1,3.74,1.47,5.64,5.64,0,0,1,1.367,4v.117a5.472,5.472,0,0,1-1.372,3.921,4.871,4.871,0,0,1-3.716,1.45,4.927,4.927,0,0,1-3.623-1.353,5.29,5.29,0,0,1-1.475-3.667Zm3.291.205a3.932,3.932,0,0,0,.459,2.148,1.529,1.529,0,0,0,1.357.684q1.758,0,1.8-2.705v-.332q0-2.842-1.816-2.842-1.65,0-1.787,2.451ZM240.439,6h3.477L241.2,9.066l-2.686,0Zm9.131,4.434.107,1.24a3.583,3.583,0,0,1,3.018-1.436,3.015,3.015,0,0,1,2.466.986,4.7,4.7,0,0,1,.845,2.969V21h-3.3V14.33a1.783,1.783,0,0,0-.322-1.177,1.491,1.491,0,0,0-1.172-.376,1.569,1.569,0,0,0-1.436.762V21h-3.291V10.434Z" transform="translate(958.889 5996.175)" fill="#537e39"/>
    <path id="Trazado_160506" data-name="Trazado 160506" d="M18.875,21H8.953V18.852l4.57-4.8q1.689-1.924,1.689-3.057a2.126,2.126,0,0,0-.4-1.4,1.43,1.43,0,0,0-1.162-.479,1.447,1.447,0,0,0-1.221.64,2.629,2.629,0,0,0-.469,1.6H8.66a4.67,4.67,0,0,1,.654-2.417A4.588,4.588,0,0,1,11.131,7.2a5.4,5.4,0,0,1,2.6-.625,5.308,5.308,0,0,1,3.55,1.064A3.8,3.8,0,0,1,18.523,10.7a4.439,4.439,0,0,1-.312,1.636A7.173,7.173,0,0,1,17.239,14a24.476,24.476,0,0,1-2.124,2.339l-1.836,2.119h5.6Zm3.75-3.193a1.874,1.874,0,0,1,1.3.464,1.619,1.619,0,0,1,0,2.373,2.049,2.049,0,0,1-2.6,0,1.618,1.618,0,0,1,0-2.363A1.858,1.858,0,0,1,22.625,17.807Zm12.568-1.631V21H31.766V6.781h5.674a6.608,6.608,0,0,1,2.886.6,4.526,4.526,0,0,1,1.943,1.709,4.667,4.667,0,0,1,.688,2.515,4.114,4.114,0,0,1-1.489,3.325,6.179,6.179,0,0,1-4.087,1.245Zm0-2.646h2.246a2.118,2.118,0,0,0,1.519-.5,1.85,1.85,0,0,0,.522-1.406,2.287,2.287,0,0,0-.537-1.592,1.9,1.9,0,0,0-1.465-.605H35.193Zm15.83-.117-1.084-.078a1.947,1.947,0,0,0-1.992.977V21H44.656V10.434h3.086l.107,1.357a2.548,2.548,0,0,1,2.314-1.553,3.209,3.209,0,0,1,.918.117Zm.42,2.207a6.236,6.236,0,0,1,.615-2.817,4.4,4.4,0,0,1,1.768-1.9,5.323,5.323,0,0,1,2.705-.664,4.858,4.858,0,0,1,3.74,1.47,5.64,5.64,0,0,1,1.367,4v.117a5.472,5.472,0,0,1-1.372,3.921,4.871,4.871,0,0,1-3.716,1.45,4.927,4.927,0,0,1-3.623-1.353,5.29,5.29,0,0,1-1.475-3.667Zm3.291.205a3.932,3.932,0,0,0,.459,2.148,1.529,1.529,0,0,0,1.357.684q1.758,0,1.8-2.705v-.332q0-2.842-1.816-2.842-1.65,0-1.787,2.451Zm12.822,2.832a1.464,1.464,0,0,0,1.074-.376A1.379,1.379,0,0,0,69,17.23h3.086a3.653,3.653,0,0,1-1.245,2.852A4.631,4.631,0,0,1,67.635,21.2,4.689,4.689,0,0,1,64,19.75a5.7,5.7,0,0,1-1.328-4v-.137a6.436,6.436,0,0,1,.591-2.827,4.3,4.3,0,0,1,1.7-1.885,5.081,5.081,0,0,1,2.637-.659,4.573,4.573,0,0,1,3.271,1.143,4.053,4.053,0,0,1,1.211,3.1H69a1.806,1.806,0,0,0-.4-1.26,1.382,1.382,0,0,0-1.074-.439q-1.279,0-1.494,1.631a11.508,11.508,0,0,0-.068,1.426,4.52,4.52,0,0,0,.381,2.207A1.319,1.319,0,0,0,67.557,18.656ZM78.592,21.2a5.432,5.432,0,0,1-3.936-1.45,5.008,5.008,0,0,1-1.5-3.774V15.7a6.489,6.489,0,0,1,.6-2.861,4.395,4.395,0,0,1,1.753-1.919,5.292,5.292,0,0,1,2.734-.679,4.574,4.574,0,0,1,3.516,1.382,5.43,5.43,0,0,1,1.289,3.853v1.279H76.5a2.372,2.372,0,0,0,.771,1.4,2.3,2.3,0,0,0,1.543.508,2.958,2.958,0,0,0,2.441-1.094l1.5,1.777a4.2,4.2,0,0,1-1.743,1.353A5.891,5.891,0,0,1,78.592,21.2Zm-.371-8.418q-1.445,0-1.719,1.914h3.32v-.254a1.63,1.63,0,0,0-.4-1.226A1.593,1.593,0,0,0,78.221,12.777ZM89.9,18.031a.76.76,0,0,0-.439-.674,6.684,6.684,0,0,0-1.67-.527,7.615,7.615,0,0,1-2.031-.718,3.4,3.4,0,0,1-1.221-1.079,2.577,2.577,0,0,1-.42-1.455,2.92,2.92,0,0,1,1.2-2.4,4.948,4.948,0,0,1,3.145-.942,5.482,5.482,0,0,1,3.359.947,2.962,2.962,0,0,1,1.27,2.49h-3.3q0-1.27-1.338-1.27a1.326,1.326,0,0,0-.869.288.892.892,0,0,0-.352.718.819.819,0,0,0,.43.713,4.06,4.06,0,0,0,1.372.449,11.857,11.857,0,0,1,1.655.42,3.007,3.007,0,0,1,2.383,2.939,2.767,2.767,0,0,1-1.284,2.354,5.631,5.631,0,0,1-3.325.908,5.747,5.747,0,0,1-2.422-.488,4.05,4.05,0,0,1-1.66-1.328,3.007,3.007,0,0,1-.6-1.768h3.076a1.272,1.272,0,0,0,.488,1.069,2.009,2.009,0,0,0,1.2.337,1.58,1.58,0,0,0,1.011-.273A.875.875,0,0,0,89.9,18.031ZM100.564,21a3.716,3.716,0,0,1-.312-.947A3.06,3.06,0,0,1,97.713,21.2a3.749,3.749,0,0,1-2.539-.9,2.875,2.875,0,0,1-1.045-2.271,2.955,2.955,0,0,1,1.27-2.6,6.468,6.468,0,0,1,3.691-.879h1.016v-.559q0-1.462-1.26-1.462a1.03,1.03,0,0,0-1.172,1.158H94.383a2.95,2.95,0,0,1,1.3-2.487,5.479,5.479,0,0,1,3.325-.956,4.8,4.8,0,0,1,3.193.986,3.429,3.429,0,0,1,1.2,2.705v4.678a4.79,4.79,0,0,0,.449,2.227V21ZM98.5,18.852a1.836,1.836,0,0,0,1.021-.264,1.653,1.653,0,0,0,.581-.6V16.3h-.957q-1.719,0-1.719,1.543a.942.942,0,0,0,.3.728A1.1,1.1,0,0,0,98.5,18.852Zm9.834-8.418.107,1.24a3.633,3.633,0,0,1,3.018-1.436,2.675,2.675,0,0,1,2.705,1.592,3.517,3.517,0,0,1,3.105-1.592q3.213,0,3.3,3.887V21h-3.3V14.33A2.014,2.014,0,0,0,117,13.148a1.164,1.164,0,0,0-1-.371,1.559,1.559,0,0,0-1.455.869l.01.137V21h-3.3V14.35a2.117,2.117,0,0,0-.264-1.2,1.161,1.161,0,0,0-1.006-.371,1.578,1.578,0,0,0-1.445.869V21h-3.291V10.434ZM125.926,21h-3.3V10.434h3.3Zm-3.5-13.291a1.469,1.469,0,0,1,.508-1.152,2.159,2.159,0,0,1,2.637,0,1.469,1.469,0,0,1,.508,1.152,1.469,1.469,0,0,1-.508,1.152,2.159,2.159,0,0,1-2.637,0A1.469,1.469,0,0,1,122.43,7.709ZM133.064,21.2a5.432,5.432,0,0,1-3.936-1.45,5.008,5.008,0,0,1-1.5-3.774V15.7a6.489,6.489,0,0,1,.6-2.861,4.395,4.395,0,0,1,1.753-1.919,5.292,5.292,0,0,1,2.734-.679,4.574,4.574,0,0,1,3.516,1.382,5.43,5.43,0,0,1,1.289,3.853v1.279h-6.543a2.372,2.372,0,0,0,.771,1.4,2.3,2.3,0,0,0,1.543.508,2.958,2.958,0,0,0,2.441-1.094l1.5,1.777a4.2,4.2,0,0,1-1.743,1.353A5.891,5.891,0,0,1,133.064,21.2Zm-.371-8.418q-1.445,0-1.719,1.914h3.32v-.254a1.63,1.63,0,0,0-.4-1.226A1.593,1.593,0,0,0,132.693,12.777Zm9.17-2.344.107,1.24a3.583,3.583,0,0,1,3.018-1.436,3.015,3.015,0,0,1,2.466.986,4.7,4.7,0,0,1,.845,2.969V21H145V14.33a1.783,1.783,0,0,0-.322-1.177,1.491,1.491,0,0,0-1.172-.376,1.569,1.569,0,0,0-1.436.762V21h-3.291V10.434Zm12.09-2.627v2.627h1.738v2.285h-1.738v4.834a1.234,1.234,0,0,0,.215.83,1.152,1.152,0,0,0,.85.234,4.828,4.828,0,0,0,.82-.059v2.354a6.074,6.074,0,0,1-1.855.283,3.448,3.448,0,0,1-2.51-.8,3.282,3.282,0,0,1-.811-2.432V12.719h-1.348V10.434h1.348V7.807Zm2.324,7.813a6.236,6.236,0,0,1,.615-2.817,4.4,4.4,0,0,1,1.768-1.9,5.323,5.323,0,0,1,2.705-.664,4.858,4.858,0,0,1,3.74,1.47,5.64,5.64,0,0,1,1.367,4v.117a5.472,5.472,0,0,1-1.372,3.921,4.871,4.871,0,0,1-3.716,1.45,4.927,4.927,0,0,1-3.623-1.353,5.29,5.29,0,0,1-1.475-3.667Zm3.291.205a3.932,3.932,0,0,0,.459,2.148,1.529,1.529,0,0,0,1.357.684q1.758,0,1.8-2.705v-.332q0-2.842-1.816-2.842-1.65,0-1.787,2.451Z" transform="translate(705 5996.175)" fill="#537e39"/>
    <path id="Trazado_160509" data-name="Trazado 160509" d="M0,31V0" transform="translate(454.5 6038.5)" fill="none" stroke="#537e39" stroke-linecap="round" stroke-width="2"/>
    <path id="Trazado_160504" data-name="Trazado 160504" d="M0,31V0" transform="translate(790 6038.5)" fill="none" stroke="#537e39" stroke-linecap="round" stroke-width="2"/>
    <path id="Trazado_160502" data-name="Trazado 160502" d="M0,31V0" transform="translate(1086.236 6038.5)" fill="none" stroke="#537e39" stroke-linecap="round" stroke-width="2"/>
    <path id="Trazado_160501" data-name="Trazado 160501" d="M619,2,0,0" transform="translate(495.5 6131.5)" fill="none" stroke="#537e39" stroke-linecap="round" stroke-width="3" stroke-dasharray="0 9"/>
    <path id="Trazado_160503" data-name="Trazado 160503" d="M64,0c35.346,0,64,28.43,64,63.5S99.346,127,64,127,0,98.57,0,63.5,28.654,0,64,0Z" transform="translate(724 6069.175)" fill="#537e39"/>
    <g id="Grupo_60983" data-name="Grupo 60983" transform="translate(410.55 6086.976)">
      <path id="Trazado_104182" data-name="Trazado 104182" d="M9.387,94.59l35.959,10.488V93.092L9.387,82.6Z" transform="translate(-1.895 -16.68)" fill="#f9d7c5"/>
      <path id="Trazado_104183" data-name="Trazado 104183" d="M54.444,93.091v11.986L90.4,94.589V82.6Z" transform="translate(-10.994 -16.68)" fill="#e9cab1"/>
      <path id="Trazado_104184" data-name="Trazado 104184" d="M45.345,69.462,81.3,79.95,45.345,90.438,9.387,79.95Z" transform="translate(-1.895 -14.026)" fill="#f1a67e"/>
      <rect id="Rectángulo_5283" data-name="Rectángulo 5283" width="2.997" height="37.457" transform="translate(41.952 29.965)" fill="#68607c"/>
      <path id="Trazado_104185" data-name="Trazado 104185" d="M52.659,84.815l-7.053-7.053,2.119-2.118,4.934,4.934,4.934-4.934,2.119,2.118Z" transform="translate(-9.209 -15.275)" fill="#68607c"/>
      <path id="Trazado_104186" data-name="Trazado 104186" d="M71.433,66.042,64.38,58.989,66.5,56.871,71.433,61.8l4.934-4.934,2.119,2.118Z" transform="translate(-13 -11.484)" fill="#fff"/>
      <g id="Grupo_60982" data-name="Grupo 60982" transform="translate(0 0)">
        <g id="Grupo_60981" data-name="Grupo 60981" clip-path="url(#clip-path)">
          <path id="Trazado_104187" data-name="Trazado 104187" d="M74.336,60.021h-3V54.028a7.5,7.5,0,0,1,7.492-7.492h4.495a4.5,4.5,0,0,0,4.495-4.495V37.547h3v4.495a7.5,7.5,0,0,1-7.492,7.491H78.831a4.5,4.5,0,0,0-4.495,4.5Z" transform="translate(-14.405 -7.582)" fill="#fff"/>
          <path id="Trazado_104188" data-name="Trazado 104188" d="M33.885,66.042l-7.053-7.053,2.119-2.118L33.885,61.8l4.934-4.934,2.119,2.118Z" transform="translate(-5.418 -11.484)" fill="#fff"/>
          <path id="Trazado_104189" data-name="Trazado 104189" d="M32.619,60.021h-3V54.028a4.5,4.5,0,0,0-4.495-4.5H20.633a7.5,7.5,0,0,1-7.492-7.491V37.547h3v4.495a4.5,4.5,0,0,0,4.495,4.495h4.495a7.5,7.5,0,0,1,7.492,7.492Z" transform="translate(-2.654 -7.582)" fill="#fff"/>
          <path id="Trazado_104190" data-name="Trazado 104190" d="M78.849,32.962V0H93.832l8.99,8.99V32.962Z" transform="translate(-15.922 0)" fill="#f6d4b9"/>
          <path id="Trazado_104191" data-name="Trazado 104191" d="M106.613,8.989h-8.99V0Z" transform="translate(-19.713 0)" fill="#b97c54"/>
          <path id="Trazado_104192" data-name="Trazado 104192" d="M39.425,32.962V0H54.408l8.99,8.99V32.962Z" transform="translate(-7.961 0)" fill="#f6d4b9"/>
          <path id="Trazado_104193" data-name="Trazado 104193" d="M0,32.962V0H14.983l8.99,8.99V32.962Z" transform="translate(0 0)" fill="#f6d4b9"/>
          <path id="Trazado_104194" data-name="Trazado 104194" d="M67.188,8.989H58.2V0Z" transform="translate(-11.752 0)" fill="#b97c54"/>
          <path id="Trazado_104195" data-name="Trazado 104195" d="M27.763,8.989h-8.99V0Z" transform="translate(-3.791 0)" fill="#b97c54"/>
          <rect id="Rectángulo_5284" data-name="Rectángulo 5284" width="14.983" height="2.997" transform="translate(35.959 13.484)" fill="#68607c"/>
          <rect id="Rectángulo_5285" data-name="Rectángulo 5285" width="14.983" height="2.997" transform="translate(35.959 19.477)" fill="#68607c"/>
          <rect id="Rectángulo_5286" data-name="Rectángulo 5286" width="5.993" height="2.997" transform="translate(35.959 7.491)" fill="#68607c"/>
          <rect id="Rectángulo_5287" data-name="Rectángulo 5287" width="14.983" height="2.997" transform="translate(4.495 13.484)" fill="#68607c"/>
          <rect id="Rectángulo_5288" data-name="Rectángulo 5288" width="14.983" height="2.997" transform="translate(4.495 19.477)" fill="#68607c"/>
          <rect id="Rectángulo_5289" data-name="Rectángulo 5289" width="14.983" height="2.997" transform="translate(4.495 25.471)" fill="#68607c"/>
          <rect id="Rectángulo_5290" data-name="Rectángulo 5290" width="5.993" height="2.997" transform="translate(4.495 7.491)" fill="#68607c"/>
          <rect id="Rectángulo_5291" data-name="Rectángulo 5291" width="14.983" height="2.997" transform="translate(67.422 13.484)" fill="#68607c"/>
          <rect id="Rectángulo_5292" data-name="Rectángulo 5292" width="14.983" height="2.997" transform="translate(67.422 19.477)" fill="#68607c"/>
          <rect id="Rectángulo_5293" data-name="Rectángulo 5293" width="14.983" height="2.997" transform="translate(67.422 25.471)" fill="#68607c"/>
          <rect id="Rectángulo_5294" data-name="Rectángulo 5294" width="5.993" height="2.997" transform="translate(67.422 7.491)" fill="#68607c"/>
          <rect id="Rectángulo_5295" data-name="Rectángulo 5295" width="2.997" height="2.997" transform="translate(35.959 25.471)" fill="#68607c"/>
          <rect id="Rectángulo_5296" data-name="Rectángulo 5296" width="2.997" height="2.997" transform="translate(41.952 25.471)" fill="#68607c"/>
          <rect id="Rectángulo_5297" data-name="Rectángulo 5297" width="2.997" height="2.997" transform="translate(47.945 25.471)" fill="#68607c"/>
        </g>
      </g>
    </g>
    <g id="Grupo_60985" data-name="Grupo 60985" transform="translate(751.583 6086.304)">
      <g id="Grupo_60984" data-name="Grupo 60984" clip-path="url(#clip-path-2)">
        <path id="Trazado_104196" data-name="Trazado 104196" d="M39.874,104.872H73.75a6.16,6.16,0,0,0,6.16-6.16v-46.2a6.16,6.16,0,0,0-6.16-6.16H49.113l-15.4,13.859v38.5a6.16,6.16,0,0,0,6.16,6.16" transform="translate(-9.077 -12.48)" fill="#f0f0f0"/>
        <path id="Trazado_104197" data-name="Trazado 104197" d="M76.506,65.16H64.187a3.08,3.08,0,1,1,0-6.16H76.506a3.08,3.08,0,0,1,0,6.16" transform="translate(-16.451 -15.884)" fill="#dccabf"/>
        <path id="Trazado_104198" data-name="Trazado 104198" d="M71.968,82.017H47.33a3.08,3.08,0,1,1,0-6.16H71.968a3.08,3.08,0,0,1,0,6.16" transform="translate(-11.913 -20.422)" fill="#dccabf"/>
        <path id="Trazado_104199" data-name="Trazado 104199" d="M71.968,98.874H47.33a3.08,3.08,0,1,1,0-6.16H71.968a3.08,3.08,0,0,1,0,6.16" transform="translate(-11.913 -24.961)" fill="#dccabf"/>
        <path id="Trazado_104200" data-name="Trazado 104200" d="M71.968,115.731H47.33a3.08,3.08,0,1,1,0-6.16H71.968a3.08,3.08,0,0,1,0,6.16" transform="translate(-11.913 -29.499)" fill="#dccabf"/>
        <path id="Trazado_104201" data-name="Trazado 104201" d="M23.017,79.586H56.893a6.16,6.16,0,0,0,6.16-6.16v-46.2a6.16,6.16,0,0,0-6.16-6.16H32.256L16.857,34.93v38.5a6.16,6.16,0,0,0,6.16,6.16" transform="translate(-4.538 -5.673)" fill="#ffa681"/>
        <path id="Trazado_104202" data-name="Trazado 104202" d="M59.649,35.659H47.33a3.079,3.079,0,1,1,0-6.159H59.649a3.079,3.079,0,0,1,0,6.159" transform="translate(-11.913 -7.942)" fill="#c36e41"/>
        <path id="Trazado_104203" data-name="Trazado 104203" d="M55.111,52.517H30.473a3.08,3.08,0,1,1,0-6.16H55.111a3.08,3.08,0,0,1,0,6.16" transform="translate(-7.375 -12.48)" fill="#c36e41"/>
        <path id="Trazado_104204" data-name="Trazado 104204" d="M55.111,69.374H30.473a3.08,3.08,0,1,1,0-6.16H55.111a3.08,3.08,0,0,1,0,6.16" transform="translate(-7.375 -17.019)" fill="#c36e41"/>
        <path id="Trazado_104205" data-name="Trazado 104205" d="M55.111,86.231H30.473a3.08,3.08,0,1,1,0-6.16H55.111a3.08,3.08,0,0,1,0,6.16" transform="translate(-7.375 -21.557)" fill="#c36e41"/>
        <path id="Trazado_104206" data-name="Trazado 104206" d="M6.16,58.515H40.036a6.16,6.16,0,0,0,6.16-6.16V6.16A6.16,6.16,0,0,0,40.036,0H15.4L0,13.859v38.5a6.16,6.16,0,0,0,6.16,6.16" fill="#f0f0f0"/>
        <path id="Trazado_104207" data-name="Trazado 104207" d="M15.4,0V7.7a6.159,6.159,0,0,1-6.16,6.159H0Z" fill="#dccabf"/>
        <path id="Trazado_104208" data-name="Trazado 104208" d="M24.8,14.75A18.478,18.478,0,1,1,6.321,33.228,18.478,18.478,0,0,1,24.8,14.75" transform="translate(-1.702 -3.971)" fill="#c36e41"/>
        <path id="Trazado_104209" data-name="Trazado 104209" d="M38.549,34.93a11.668,11.668,0,0,0-.06-1.181,1.579,1.579,0,0,1,.786-1.524h0a1.588,1.588,0,0,0,.582-2.17l-2.371-4.107a1.588,1.588,0,0,0-2.17-.582h0a1.58,1.58,0,0,1-1.712-.081A11.833,11.833,0,0,0,31.552,24.1a1.577,1.577,0,0,1-.923-1.44,1.589,1.589,0,0,0-1.589-1.589H24.3a1.589,1.589,0,0,0-1.588,1.589,1.578,1.578,0,0,1-.923,1.44,11.833,11.833,0,0,0-2.049,1.186,1.581,1.581,0,0,1-1.713.081h0a1.589,1.589,0,0,0-2.17.582l-2.371,4.107a1.588,1.588,0,0,0,.582,2.17h0a1.58,1.58,0,0,1,.786,1.524,11.667,11.667,0,0,0,0,2.362,1.58,1.58,0,0,1-.786,1.524h0a1.588,1.588,0,0,0-.582,2.17l2.371,4.107a1.589,1.589,0,0,0,2.17.582h0a1.581,1.581,0,0,1,1.713.081,11.782,11.782,0,0,0,2.049,1.185,1.579,1.579,0,0,1,.923,1.441A1.588,1.588,0,0,0,24.3,48.789h4.742A1.588,1.588,0,0,0,30.629,47.2a1.578,1.578,0,0,1,.923-1.441A11.829,11.829,0,0,0,33.6,44.574a1.58,1.58,0,0,1,1.712-.081h0a1.588,1.588,0,0,0,2.17-.582l2.371-4.107a1.588,1.588,0,0,0-.582-2.17h0a1.58,1.58,0,0,1-.786-1.524A11.668,11.668,0,0,0,38.549,34.93Z" transform="translate(-3.572 -5.673)" fill="#ffa681"/>
        <path id="Trazado_104210" data-name="Trazado 104210" d="M29.905,33.714a4.62,4.62,0,1,1-4.619,4.619,4.619,4.619,0,0,1,4.619-4.619" transform="translate(-6.808 -9.077)" fill="#c36e41"/>
      </g>
    </g>
    <g id="Grupo_60988" data-name="Grupo 60988" transform="translate(1047.583 6091.613)">
      <rect id="Rectángulo_5300" data-name="Rectángulo 5300" width="54.401" height="17.179" transform="translate(0 0.001)" fill="#e7d2c7"/>
      <rect id="Rectángulo_5301" data-name="Rectángulo 5301" width="54.401" height="17.179" transform="translate(0 22.906)" fill="#e7d2c7"/>
      <rect id="Rectángulo_5302" data-name="Rectángulo 5302" width="54.401" height="17.179" transform="translate(0 45.812)" fill="#e7d2c7"/>
      <rect id="Rectángulo_5303" data-name="Rectángulo 5303" width="5.727" height="5.727" transform="translate(4.295 40.085)" fill="#5a4237"/>
      <rect id="Rectángulo_5304" data-name="Rectángulo 5304" width="5.727" height="5.727" transform="translate(44.38 40.085)" fill="#5a4237"/>
      <rect id="Rectángulo_5305" data-name="Rectángulo 5305" width="5.727" height="5.727" transform="translate(4.295 17.179)" fill="#5a4237"/>
      <rect id="Rectángulo_5306" data-name="Rectángulo 5306" width="5.727" height="5.727" transform="translate(44.38 17.179)" fill="#5a4237"/>
      <rect id="Rectángulo_5307" data-name="Rectángulo 5307" width="11.453" height="5.727" transform="translate(5.727 28.632)" fill="#456c3a"/>
      <g id="Grupo_60987" data-name="Grupo 60987">
        <g id="Grupo_60986" data-name="Grupo 60986" clip-path="url(#clip-path-3)">
          <path id="Trazado_104211" data-name="Trazado 104211" d="M33.754,41.189a2.863,2.863,0,1,1-2.863,2.863,2.863,2.863,0,0,1,2.863-2.863" transform="translate(-9.417 -12.557)" fill="#a8bc8b"/>
          <path id="Trazado_104212" data-name="Trazado 104212" d="M48.17,41.189a2.863,2.863,0,1,1-2.863,2.863,2.863,2.863,0,0,1,2.863-2.863" transform="translate(-13.812 -12.557)" fill="#a8bc8b"/>
          <rect id="Rectángulo_5308" data-name="Rectángulo 5308" width="11.453" height="5.727" transform="translate(5.727 51.538)" fill="#456c3a"/>
          <path id="Trazado_104213" data-name="Trazado 104213" d="M33.754,74.139A2.863,2.863,0,1,1,30.891,77a2.863,2.863,0,0,1,2.863-2.863" transform="translate(-9.417 -22.601)" fill="#a8bc8b"/>
          <path id="Trazado_104214" data-name="Trazado 104214" d="M48.17,74.139A2.863,2.863,0,1,1,45.307,77a2.863,2.863,0,0,1,2.863-2.863" transform="translate(-13.812 -22.601)" fill="#a8bc8b"/>
          <rect id="Rectángulo_5309" data-name="Rectángulo 5309" width="11.453" height="5.727" transform="translate(5.727 5.727)" fill="#456c3a"/>
          <path id="Trazado_104215" data-name="Trazado 104215" d="M33.754,8.238A2.863,2.863,0,1,1,30.891,11.1a2.863,2.863,0,0,1,2.863-2.863" transform="translate(-9.417 -2.511)" fill="#a8bc8b"/>
          <path id="Trazado_104216" data-name="Trazado 104216" d="M48.17,8.238A2.863,2.863,0,1,1,45.307,11.1,2.863,2.863,0,0,1,48.17,8.238" transform="translate(-13.812 -2.511)" fill="#a8bc8b"/>
          <path id="Trazado_104217" data-name="Trazado 104217" d="M84.688,60.075V85.844H61.782V51.486H76.1Z" transform="translate(-18.834 -15.696)" fill="#eea88d"/>
          <rect id="Rectángulo_5310" data-name="Rectángulo 5310" width="14.316" height="24.337" transform="translate(51.538 45.811)" fill="#e88a67"/>
          <path id="Trazado_104218" data-name="Trazado 104218" d="M82.376,51.486v8.589h8.589Z" transform="translate(-25.112 -15.695)" fill="#ca5c34"/>
          <rect id="Rectángulo_5311" data-name="Rectángulo 5311" width="5.727" height="2.863" transform="translate(47.242 42.948)" fill="#ca5c34"/>
          <rect id="Rectángulo_5312" data-name="Rectángulo 5312" width="2.863" height="2.863" transform="translate(47.242 60.127)" fill="#ca5c34"/>
          <rect id="Rectángulo_5313" data-name="Rectángulo 5313" width="5.727" height="2.863" transform="translate(47.242 48.674)" fill="#ca5c34"/>
          <rect id="Rectángulo_5314" data-name="Rectángulo 5314" width="8.589" height="2.863" transform="translate(47.242 54.401)" fill="#ca5c34"/>
          <path id="Trazado_104219" data-name="Trazado 104219" d="M101.163,104.378H78.257V70.02H92.573l8.589,8.59Z" transform="translate(-23.857 -21.346)" fill="#eea88d"/>
          <path id="Trazado_104220" data-name="Trazado 104220" d="M98.852,70.02v8.589h8.589Z" transform="translate(-30.135 -21.346)" fill="#ca5c34"/>
          <rect id="Rectángulo_5315" data-name="Rectángulo 5315" width="5.727" height="2.863" transform="translate(58.696 55.832)" fill="#ca5c34"/>
          <rect id="Rectángulo_5316" data-name="Rectángulo 5316" width="5.727" height="2.863" transform="translate(58.696 61.559)" fill="#ca5c34"/>
          <rect id="Rectángulo_5317" data-name="Rectángulo 5317" width="5.727" height="2.863" transform="translate(67.285 61.559)" fill="#ca5c34"/>
          <rect id="Rectángulo_5318" data-name="Rectángulo 5318" width="8.589" height="2.863" transform="translate(58.696 67.286)" fill="#ca5c34"/>
          <rect id="Rectángulo_5319" data-name="Rectángulo 5319" width="2.863" height="2.863" transform="translate(70.148 67.286)" fill="#ca5c34"/>
          <rect id="Rectángulo_5320" data-name="Rectángulo 5320" width="2.863" height="2.863" transform="translate(58.696 73.012)" fill="#ca5c34"/>
          <rect id="Rectángulo_5321" data-name="Rectángulo 5321" width="8.589" height="2.863" transform="translate(64.422 73.012)" fill="#ca5c34"/>
        </g>
      </g>
    </g>
  </g>
</svg>
