<svg xmlns="http://www.w3.org/2000/svg" xmlns:xlink="http://www.w3.org/1999/xlink" width="123.04" height="168.154" viewBox="0 0 123.04 168.154">
  <defs>
    <clipPath id="clip-path">
      <rect id="Rectángulo_5406" data-name="Rectángulo 5406" width="123.04" height="168.154" fill="none"/>
    </clipPath>
  </defs>
  <g id="Grupo_61031" data-name="Grupo 61031" transform="translate(0 0)">
    <g id="Grupo_61030" data-name="Grupo 61030" transform="translate(0 0)" clip-path="url(#clip-path)">
      <path id="Trazado_104397" data-name="Trazado 104397" d="M119.657,168.154H3.385A3.385,3.385,0,0,1,0,164.771V3.383A3.383,3.383,0,0,1,3.385,0H119.657a3.382,3.382,0,0,1,3.383,3.383V164.771a3.383,3.383,0,0,1-3.383,3.383" transform="translate(0 -0.001)" fill="#fbecdf"/>
      <path id="Trazado_104398" data-name="Trazado 104398" d="M2.429,122.083H118.7a3.384,3.384,0,0,0,3.383-3.383V51.642A220.573,220.573,0,0,1,77.919,89.893c-25.483,16.87-52.275,27.559-76.85,31.9A3.363,3.363,0,0,0,2.429,122.083Z" transform="translate(0.954 46.07)" fill="#f6d4b9"/>
      <path id="Trazado_104399" data-name="Trazado 104399" d="M22.869,31.227V17.521a17.089,17.089,0,1,0,17.09,17.09H26.252A3.384,3.384,0,0,1,22.869,31.227Z" transform="translate(5.157 15.63)" fill="#f1a67e"/>
      <path id="Trazado_104400" data-name="Trazado 104400" d="M14.812,17.521V31.227A3.384,3.384,0,0,0,18.2,34.611H31.9a17.09,17.09,0,0,0-17.09-17.09" transform="translate(13.214 15.63)" fill="#c38c71"/>
      <rect id="Rectángulo_5404" data-name="Rectángulo 5404" width="54.684" height="10.936" rx="1.788" transform="translate(34.178 10.937)" fill="#f1a67e"/>
      <path id="Trazado_104401" data-name="Trazado 104401" d="M6.5,79.341v6.878a2.029,2.029,0,0,0,2.03,2.028H20.877a2.029,2.029,0,0,0,2.03-2.028V79.341a2.029,2.029,0,0,0-2.03-2.03H8.533a2.03,2.03,0,0,0-2.03,2.03" transform="translate(5.801 68.969)" fill="#f1a67e"/>
      <path id="Trazado_104402" data-name="Trazado 104402" d="M20.953,70.67V93.953a2.03,2.03,0,0,0,2.03,2.03H35.327a2.03,2.03,0,0,0,2.03-2.03V70.67a2.029,2.029,0,0,0-2.03-2.03H22.983a2.03,2.03,0,0,0-2.03,2.03" transform="translate(18.692 61.234)" fill="#f1a67e"/>
      <path id="Trazado_104403" data-name="Trazado 104403" d="M22.725,86.833H35.071A2.029,2.029,0,0,0,37.1,84.8V78.9q-7.927,4.033-15.856,7.29A2.027,2.027,0,0,0,22.725,86.833Z" transform="translate(18.951 70.384)" fill="#f1a67e"/>
      <rect id="Rectángulo_5405" data-name="Rectángulo 5405" width="16.405" height="47.85" rx="1.073" transform="translate(66.988 109.368)" fill="#f1a67e"/>
      <path id="Trazado_104404" data-name="Trazado 104404" d="M51.809,70.232c-1.491,1.037-2.993,2.066-4.52,3.077q-5.9,3.908-11.884,7.37V92.534a2.029,2.029,0,0,0,2.03,2.028H49.778a2.029,2.029,0,0,0,2.03-2.028Z" transform="translate(31.584 62.654)" fill="#f1a67e"/>
      <path id="Trazado_104405" data-name="Trazado 104405" d="M49.854,52.607v57.46a2.029,2.029,0,0,0,2.03,2.03H64.228a2.029,2.029,0,0,0,2.03-2.03V52.607a2.029,2.029,0,0,0-2.03-2.03H51.884a2.029,2.029,0,0,0-2.03,2.03" transform="translate(44.475 45.12)" fill="#f1a67e"/>
      <path id="Trazado_104406" data-name="Trazado 104406" d="M66.26,58.437c-5.107,4.9-10.583,9.659-16.4,14.236v30.382a2.029,2.029,0,0,0,2.03,2.03H64.229a2.029,2.029,0,0,0,2.03-2.03Z" transform="translate(44.476 52.132)" fill="#f1a67e"/>
      <path id="Trazado_104407" data-name="Trazado 104407" d="M84.294,21.256H33.71a2.537,2.537,0,0,1,0-5.075H84.294a2.537,2.537,0,0,1,0,5.075" transform="translate(27.81 14.435)" fill="#c38c71"/>
      <path id="Trazado_104408" data-name="Trazado 104408" d="M84.294,27.277H33.71a2.537,2.537,0,0,1,0-5.075H84.294a2.537,2.537,0,0,1,0,5.075" transform="translate(27.81 19.806)" fill="#c38c71"/>
      <path id="Trazado_104409" data-name="Trazado 104409" d="M84.294,33.3H33.71a2.537,2.537,0,0,1,0-5.075H84.294a2.537,2.537,0,0,1,0,5.075" transform="translate(27.81 25.177)" fill="#c38c71"/>
      <path id="Trazado_104410" data-name="Trazado 104410" d="M63.787,39.319H33.71a2.537,2.537,0,1,1,0-5.075H63.787a2.537,2.537,0,0,1,0,5.075" transform="translate(27.81 30.549)" fill="#c38c71"/>
      <path id="Trazado_104411" data-name="Trazado 104411" d="M55.465,48.17H9.326a2.537,2.537,0,1,1,0-5.075H55.465a2.537,2.537,0,1,1,0,5.075" transform="translate(6.055 38.445)" fill="#c38c71"/>
      <path id="Trazado_104412" data-name="Trazado 104412" d="M55.465,54.191H9.326a2.537,2.537,0,1,1,0-5.075H55.465a2.537,2.537,0,1,1,0,5.075" transform="translate(6.055 43.816)" fill="#c38c71"/>
      <path id="Trazado_104413" data-name="Trazado 104413" d="M34.959,60.212H9.324a2.537,2.537,0,1,1,0-5.075H34.959a2.537,2.537,0,1,1,0,5.075" transform="translate(6.055 49.188)" fill="#c38c71"/>
    </g>
  </g>
</svg>
