<svg id="Grupo_61069" data-name="Grupo 61069" xmlns="http://www.w3.org/2000/svg" xmlns:xlink="http://www.w3.org/1999/xlink" width="1030" height="635.77" viewBox="0 0 1030 635.77">
  <defs>
    <clipPath id="clip-path">
      <rect id="Rectángulo_5495" data-name="Rectángulo 5495" width="1030" height="635.77" fill="none"/>
    </clipPath>
    <clipPath id="clip-path-3">
      <rect id="Rectángulo_5470" data-name="Rectángulo 5470" width="224.487" height="255.125" fill="none"/>
    </clipPath>
    <clipPath id="clip-path-4">
      <rect id="Rectángulo_5483" data-name="Rectángulo 5483" width="253.076" height="290.089" fill="none"/>
    </clipPath>
    <clipPath id="clip-path-5">
      <rect id="Rectángulo_5486" data-name="Rectángulo 5486" width="351.645" height="281.298" fill="none"/>
    </clipPath>
    <clipPath id="clip-path-6">
      <rect id="Rectángulo_5487" data-name="Rectángulo 5487" width="228.186" height="335.018" fill="none"/>
    </clipPath>
    <clipPath id="clip-path-7">
      <rect id="Rectángulo_5488" data-name="Rectángulo 5488" width="35.681" height="23.203" fill="none"/>
    </clipPath>
    <clipPath id="clip-path-8">
      <rect id="Rectángulo_5489" data-name="Rectángulo 5489" width="3.738" height="3.908" fill="none"/>
    </clipPath>
    <clipPath id="clip-path-9">
      <rect id="Rectángulo_5490" data-name="Rectángulo 5490" width="3.959" height="4.193" fill="none"/>
    </clipPath>
    <clipPath id="clip-path-10">
      <rect id="Rectángulo_5491" data-name="Rectángulo 5491" width="73.099" height="33.612" fill="none"/>
    </clipPath>
    <clipPath id="clip-path-11">
      <rect id="Rectángulo_5493" data-name="Rectángulo 5493" width="16.716" height="15.463" fill="none"/>
    </clipPath>
  </defs>
  <g id="Grupo_61068" data-name="Grupo 61068" clip-path="url(#clip-path)">
    <g id="Grupo_61067" data-name="Grupo 61067">
      <g id="Grupo_61066" data-name="Grupo 61066" clip-path="url(#clip-path)">
        <path id="Trazado_104446" data-name="Trazado 104446" d="M240.859,184.321s-42.281-45.552-41.376-86.8C180.042,45.031,216.218,33.425,214.864,2.4c0,0,50.377,62.659-4.472,95.807,0,0-13.6,28.017,35.362,83.778Z" transform="translate(29.514 0.366)" fill="#a8bc8b"/>
        <path id="Trazado_104447" data-name="Trazado 104447" d="M215.38,112.667S190.525,52.4,119.24,90.725c27.742,9.722,39.161,45.283,83.069,10.383,0,0,14.8,16.628,23.151,34.1Z" transform="translate(18.166 11.879)" fill="#537e39"/>
        <path id="Trazado_104448" data-name="Trazado 104448" d="M710.883,181.894s32.942-28.463,49.217-63.634c0,0,30.15-10.02,32.29-45.2s22.224-56.813,22.224-56.813S726.287,29.372,751.56,116.4c0,0,2.557,18.3-44.976,61.255Z" transform="translate(107.647 2.475)" fill="#537e39"/>
        <path id="Trazado_104449" data-name="Trazado 104449" d="M701.007,172s30.722-23.668,43.774-28.813c30.256-44.569,72.059-9.14,95.958-8.819,0,0-37.588,34.974-90.464,14.628,0,0-24.922,8.741-57.917,36.918Z" transform="translate(105.48 18.391)" fill="#a8bc8b"/>
        <path id="Trazado_104450" data-name="Trazado 104450" d="M654.147,221.5s50.869-25.864,61.881-67.9c0,0-21.613-23.871-10.1-72.26,0,0,45.159,35.7,19.978,78.493,0,0-29.227,43.884-72.337,66.576Z" transform="translate(99.571 12.391)" fill="#537e39"/>
        <rect id="Rectángulo_5426" data-name="Rectángulo 5426" width="153.315" height="285.143" transform="translate(16.376 208.505)" fill="#e0ecd8"/>
        <rect id="Rectángulo_5427" data-name="Rectángulo 5427" width="168.17" height="7.873" transform="translate(8.949 200.632)" fill="#d1dcc9"/>
        <rect id="Rectángulo_5428" data-name="Rectángulo 5428" width="52.889" height="7.873" transform="translate(177.119 200.632)" fill="#e0ecd8"/>
        <rect id="Rectángulo_5429" data-name="Rectángulo 5429" width="51.943" height="285.143" transform="translate(169.692 208.505)" fill="#d1dcc9"/>
        <rect id="Rectángulo_5430" data-name="Rectángulo 5430" width="119.919" height="67.611" transform="translate(33.075 238.9)" fill="none" stroke="#bec8b7" stroke-miterlimit="10" stroke-width="0.25"/>
        <rect id="Rectángulo_5431" data-name="Rectángulo 5431" width="23.42" height="13.461" transform="translate(76.245 258.583)" fill="#bec8b7"/>
        <rect id="Rectángulo_5432" data-name="Rectángulo 5432" width="23.42" height="11.43" transform="translate(83.168 259.599)" fill="none" stroke="#bec8b7" stroke-miterlimit="10" stroke-width="0.25"/>
        <rect id="Rectángulo_5433" data-name="Rectángulo 5433" width="119.919" height="67.611" transform="translate(33.075 324.317)" fill="none" stroke="#bec8b7" stroke-miterlimit="10" stroke-width="0.25"/>
        <rect id="Rectángulo_5434" data-name="Rectángulo 5434" width="23.42" height="13.461" transform="translate(76.245 344)" fill="#bec8b7"/>
        <rect id="Rectángulo_5435" data-name="Rectángulo 5435" width="23.42" height="11.43" transform="translate(83.168 345.015)" fill="none" stroke="#bec8b7" stroke-miterlimit="10" stroke-width="0.25"/>
        <rect id="Rectángulo_5436" data-name="Rectángulo 5436" width="119.919" height="67.611" transform="translate(33.075 409.735)" fill="none" stroke="#bec8b7" stroke-miterlimit="10" stroke-width="0.25"/>
        <rect id="Rectángulo_5437" data-name="Rectángulo 5437" width="23.42" height="13.461" transform="translate(76.245 429.417)" fill="#bec8b7"/>
        <rect id="Rectángulo_5438" data-name="Rectángulo 5438" width="23.42" height="11.43" transform="translate(83.168 430.432)" fill="none" stroke="#bec8b7" stroke-miterlimit="10" stroke-width="0.25"/>
        <rect id="Rectángulo_5439" data-name="Rectángulo 5439" width="153.315" height="202.047" transform="translate(799.544 291.601)" fill="#e0ecd8"/>
        <rect id="Rectángulo_5440" data-name="Rectángulo 5440" width="168.17" height="7.873" transform="translate(792.117 283.728)" fill="#d1dcc9"/>
        <rect id="Rectángulo_5441" data-name="Rectángulo 5441" width="52.889" height="7.873" transform="translate(960.288 283.728)" fill="#e0ecd8"/>
        <rect id="Rectángulo_5442" data-name="Rectángulo 5442" width="51.943" height="202.047" transform="translate(952.861 291.601)" fill="#d1dcc9"/>
        <rect id="Rectángulo_5443" data-name="Rectángulo 5443" width="119.919" height="67.611" transform="translate(816.244 321.996)" fill="#a0a89a"/>
        <rect id="Rectángulo_5444" data-name="Rectángulo 5444" width="91.289" height="66.174" transform="translate(833.194 304.683)" fill="#bec8b7"/>
        <path id="Trazado_104451" data-name="Trazado 104451" d="M755.295,258.455H723.039v6.853h34.108Z" transform="translate(110.154 39.375)" fill="#bec8b7"/>
        <path id="Trazado_104452" data-name="Trazado 104452" d="M815.052,329.85H723.763l-7.041-60.683h91.289Z" transform="translate(109.191 41.007)" fill="#a0a89a"/>
        <path id="Trazado_104453" data-name="Trazado 104453" d="M748.344,263.713H716.089l.729,6.285h34.108Z" transform="translate(109.095 40.176)" fill="#a0a89a"/>
        <rect id="Rectángulo_5445" data-name="Rectángulo 5445" width="119.919" height="67.611" transform="translate(758.471 321.996)" fill="#e0ecd8"/>
        <rect id="Rectángulo_5446" data-name="Rectángulo 5446" width="119.919" height="67.611" transform="translate(758.471 321.996)" fill="none" stroke="#bec8b7" stroke-miterlimit="10" stroke-width="0.25"/>
        <rect id="Rectángulo_5447" data-name="Rectángulo 5447" width="23.42" height="13.461" transform="translate(801.641 341.679)" fill="#bec8b7"/>
        <rect id="Rectángulo_5448" data-name="Rectángulo 5448" width="23.42" height="11.43" transform="translate(808.565 342.695)" fill="none" stroke="#bec8b7" stroke-miterlimit="10" stroke-width="0.25"/>
        <rect id="Rectángulo_5449" data-name="Rectángulo 5449" width="57.478" height="57.478" transform="translate(878.685 332.129)" fill="#d1dcc9"/>
        <rect id="Rectángulo_5450" data-name="Rectángulo 5450" width="119.919" height="67.611" transform="translate(816.244 407.413)" fill="none" stroke="#bec8b7" stroke-miterlimit="10" stroke-width="0.25"/>
        <rect id="Rectángulo_5451" data-name="Rectángulo 5451" width="23.42" height="13.461" transform="translate(859.413 427.096)" fill="#bec8b7"/>
        <rect id="Rectángulo_5452" data-name="Rectángulo 5452" width="23.42" height="11.43" transform="translate(866.337 428.111)" fill="none" stroke="#bec8b7" stroke-miterlimit="10" stroke-width="0.25"/>
        <path id="Trazado_104454" data-name="Trazado 104454" d="M0,428.454c327.421-.705,694.706-.711,1022.126,0-327.421.711-694.707.705-1022.126,0" transform="translate(0 65.193)" fill="#1a2e35"/>
        <path id="Trazado_104455" data-name="Trazado 104455" d="M952.5,515.481c0,27.206-201.278,49.262-449.567,49.262S53.365,542.687,53.365,515.481s201.278-49.262,449.568-49.262S952.5,488.275,952.5,515.481" transform="translate(8.13 71.028)" fill="#ececec"/>
        <path id="Trazado_104456" data-name="Trazado 104456" d="M857.341,347.105c-1.281,5.448-2.635,10.809-2.9,16.4.149.274.12,1.288-.044,1.013-.033.9-1.4.736-1.4-.152.014-.58.028-1.159.056-1.722-3.2-3.978-7.857-6.5-11.618-9.956a21.742,21.742,0,0,1-6.367-10.133c-3.119-10.75-.2-22.141-3.948-32.864-3.234-9.245-9.034-17.283-13.945-25.659-5.18-8.859-9-18.168-9.387-28.542-.305-7.945.643-18.532,6.694-24.484,6.413-6.316,14.364-1.583,19.279,4.049C848,251.4,854.586,272.048,857.249,293.165c1.468,11.687,2.994,23.445,2.641,35.242a94.963,94.963,0,0,1-2.549,18.7" transform="translate(123.057 34.735)" fill="#b1c5a5"/>
        <path id="Trazado_104457" data-name="Trazado 104457" d="M852.516,364.005a201.4,201.4,0,0,0-.391-33.109c.018-.04.053-.067.054-.121.18-8.949.891-17.864.539-26.823a159.363,159.363,0,0,0-3.941-28.773c-.024-.109-.195-.084-.173.028a187.735,187.735,0,0,1,3.114,28.138q.273,7.583-.121,15.168c-.088,1.644-.239,3.3-.348,4.959l0-.015a177.08,177.08,0,0,0-26.627-70.465c-.187-.29-.7.021-.521.318a184.021,184.021,0,0,1,21.673,52.248c-6.847-12.686-17.19-23.12-24.862-35.309-.043-.067-.152,0-.117.071,6.893,13.57,18.281,24.273,25.541,37.644q1.889,8.174,3.058,16.486a184.688,184.688,0,0,1,1.65,22.9c-4.169-7.8-8.5-15.254-11.912-23.5-.091-.22-.406-.069-.332.149,2.9,8.565,6.8,17.792,12.267,25.1.03,5.421-.13,10.844-.449,16.258-.853,14.456-3.321,28.718-4.462,43.126a.332.332,0,0,0,.66.071,331.267,331.267,0,0,0,5.7-44.545" transform="translate(125.045 38.525)" fill="#263238"/>
        <path id="Trazado_104458" data-name="Trazado 104458" d="M835.022,252.582c-.044-.1-.2-.033-.16.071,2.64,7.3,4.131,14.7,6.039,22.183a.276.276,0,0,0,.545-.089c-.777-7.593-3.487-15.167-6.424-22.165" transform="translate(127.189 38.473)" fill="#263238"/>
        <path id="Trazado_104459" data-name="Trazado 104459" d="M900.073,280.214A110.212,110.212,0,0,1,894,292.689c-4.753,8.633-9.713,16.544-10.611,26.6-.4,4.488-.544,9-1.911,13.323a39.963,39.963,0,0,1-5.311,10.429c-5.152,7.506-11.593,13.975-16.368,21.764a91.626,91.626,0,0,0-10.876,26.224c-.119.5-.914.37-.8-.135a.454.454,0,0,0,.031-.115.167.167,0,0,1-.048-.106c-.756-21.556.965-43.281,7.54-63.931A220.832,220.832,0,0,1,866.1,300.147c3.522-7.488,7.912-14.687,14.094-20.28,4.011-3.614,12.714-10.463,18.425-6.839,2.741,1.743,2.537,4.5,1.458,7.186" transform="translate(129.183 41.439)" fill="#b1c5a5"/>
        <path id="Trazado_104460" data-name="Trazado 104460" d="M879.127,326.648A176.418,176.418,0,0,1,866.6,344.655c-2.087,2.725-4.2,5.428-6.286,8.155-.985,1.289-2.088,2.573-2.991,3.957.569-2.267,1.125-4.537,1.7-6.8,2.781-10.891,5.455-21.877,9.6-32.35,4.049-10.236,9.434-19.849,14.967-29.341.146-.25-.257-.43-.4-.189-4.554,7.491-9.177,14.972-13.007,22.869a120.4,120.4,0,0,0-5.521,13.569,209.1,209.1,0,0,1,7.35-28.993c.029-.084-.093-.146-.13-.06a99.157,99.157,0,0,0-7.626,30.157.082.082,0,0,0,.014.048q-1.4,4.2-2.594,8.474c-3.4,12.059-6.377,24.245-9.142,36.474a130.483,130.483,0,0,1,2.08-23.971c.035-.182-.24-.225-.282-.048a76.015,76.015,0,0,0-2.082,25.27q-1.568,6.975-3.055,13.963c-2.119,9.937-4.722,20.05-5.961,30.138a.2.2,0,0,0,.4.068c1.479-5.439,2.37-11.076,3.58-16.582q1.82-8.285,3.747-16.545c1.873-8.019,3.834-16.019,5.831-24.008,1.336-2.93,3.917-5.53,5.85-7.988,2.123-2.7,4.245-5.393,6.31-8.133a121.29,121.29,0,0,0,10.372-16.051c.063-.121-.123-.2-.191-.089" transform="translate(128.464 43.872)" fill="#263238"/>
        <path id="Trazado_104461" data-name="Trazado 104461" d="M876.8,313.54a112.338,112.338,0,0,0-12.259,19.479c-.043.088.093.18.149.093,4.125-6.466,8.183-12.98,12.3-19.452.069-.109-.112-.221-.19-.121" transform="translate(131.71 47.761)" fill="#263238"/>
        <path id="Trazado_104462" data-name="Trazado 104462" d="M796.375,300.069c2.793,4.812,5.982,10.589,4.782,16.366-.76,3.656-3.436,6.626-3.919,10.355-1.082,8.235,7.123,13.675,13.061,17.565,14.8,9.712,35.1,18.371,37.792,38.2.1.7,1.316.527,1.229-.161a.448.448,0,0,0-.029-.131c.029-.044.073-.059.073-.116a75.973,75.973,0,0,0-.278-30.291c-2.209-10.222-6.67-19.408-11.935-28.388-8.907-15.2-18.341-30.757-31.811-42.4-3.729-3.217-11.364-9.009-14.333-1.74-2.881,7.064,1.945,14.874,5.368,20.739" transform="translate(120.375 42.022)" fill="#b1c5a5"/>
        <path id="Trazado_104463" data-name="Trazado 104463" d="M807.331,327.607c9.813,10.625,25.415,16.579,33.863,28.479-5.007-18.238-13.29-34.64-26.026-48.886a.383.383,0,0,1,.542-.54,96.355,96.355,0,0,1,21.267,30.8,137.711,137.711,0,0,0-9.158-23.422.252.252,0,0,1,.435-.253,89.287,89.287,0,0,1,9.871,26.327c11.129,26.945,12.162,58.549,9.83,86.949-.033.4-.652.417-.641,0,.64-22.382.278-45.155-5.086-67.014-.112-.456-.236-.906-.351-1.361-9.19-12.81-24.725-18.746-34.713-30.912-.1-.118.062-.285.169-.169" transform="translate(122.965 46.702)" fill="#263238"/>
        <path id="Trazado_104464" data-name="Trazado 104464" d="M805.379,316.913c5.152,4.726,10.223,9.56,15.384,14.283.052.047-.017.139-.076.1a75.367,75.367,0,0,1-15.615-14.075.218.218,0,0,1,.308-.308" transform="translate(122.643 48.272)" fill="#263238"/>
        <path id="Trazado_104465" data-name="Trazado 104465" d="M804.664,299.145a161.784,161.784,0,0,0,15.413,21.2.092.092,0,0,1-.129.13,74.683,74.683,0,0,1-15.56-21.17.16.16,0,0,1,.277-.161" transform="translate(122.544 45.562)" fill="#263238"/>
        <path id="Trazado_104466" data-name="Trazado 104466" d="M824.752,436.539h45.125l-6.082-60.711H831.7Z" transform="translate(125.65 57.257)" fill="#455a64"/>
        <path id="Trazado_104467" data-name="Trazado 104467" d="M829.8,385.7h34.219l-.99-9.869h-32.1Z" transform="translate(126.419 57.257)" fill="#263238"/>
        <rect id="Rectángulo_5453" data-name="Rectángulo 5453" width="42.298" height="9.694" transform="translate(951.814 426.358)" fill="#455a64"/>
        <rect id="Rectángulo_5454" data-name="Rectángulo 5454" width="181.342" height="232.787" transform="translate(291.768 135.039)" fill="#ececec"/>
        <path id="Trazado_104468" data-name="Trazado 104468" d="M434.61,350.048l-181.7.364c-.2-.017-.061-233.016-.2-233.151V116.7h.566l181.775.131c.322.179-.664,232.946-.433,233.22m0,0-.434-232.787c2.763,1.034-181.535.3-180.907.565l.565-.565-.2,232.787c-2.3-.773,181.491.156,180.979,0" transform="translate(38.499 17.778)" fill="#dcdcdc"/>
        <path id="Trazado_104469" data-name="Trazado 104469" d="M270.408,160.384l70.835-.179,70.835.179-70.835.18Z" transform="translate(41.196 24.407)" fill="#c8c8c8"/>
        <path id="Trazado_104470" data-name="Trazado 104470" d="M270.408,165.4l70.835-.179,70.835.179-70.835.179Z" transform="translate(41.196 25.171)" fill="#c8c8c8"/>
        <path id="Trazado_104471" data-name="Trazado 104471" d="M270.408,170.411l70.835-.179,70.835.179-70.835.179Z" transform="translate(41.196 25.935)" fill="#c8c8c8"/>
        <path id="Trazado_104472" data-name="Trazado 104472" d="M270.408,175.424l70.835-.179,70.835.179-70.835.179Z" transform="translate(41.196 26.698)" fill="#c8c8c8"/>
        <path id="Trazado_104473" data-name="Trazado 104473" d="M270.408,180.437l70.835-.179,70.835.179-70.835.179Z" transform="translate(41.196 27.462)" fill="#c8c8c8"/>
        <path id="Trazado_104474" data-name="Trazado 104474" d="M270.408,185.451l70.835-.179,70.835.179-70.835.179Z" transform="translate(41.196 28.226)" fill="#c8c8c8"/>
        <path id="Trazado_104475" data-name="Trazado 104475" d="M270.408,190.464l70.835-.179,70.835.179-70.835.179Z" transform="translate(41.196 28.99)" fill="#c8c8c8"/>
        <path id="Trazado_104476" data-name="Trazado 104476" d="M270.408,195.477l70.835-.18,70.835.18-70.835.179Z" transform="translate(41.196 29.753)" fill="#c8c8c8"/>
        <path id="Trazado_104477" data-name="Trazado 104477" d="M270.408,200.491l70.835-.18,70.835.18-70.835.179Z" transform="translate(41.196 30.517)" fill="#c8c8c8"/>
        <path id="Trazado_104478" data-name="Trazado 104478" d="M270.408,205.5l70.835-.179,70.835.179-70.835.179Z" transform="translate(41.196 31.281)" fill="#c8c8c8"/>
        <path id="Trazado_104479" data-name="Trazado 104479" d="M270.408,210.517l70.835-.179,70.835.179-70.835.179Z" transform="translate(41.196 32.045)" fill="#c8c8c8"/>
        <path id="Trazado_104480" data-name="Trazado 104480" d="M270.408,215.53l70.835-.18,70.835.18-70.835.179Z" transform="translate(41.196 32.808)" fill="#c8c8c8"/>
        <path id="Trazado_104481" data-name="Trazado 104481" d="M270.408,220.543l70.835-.179,70.835.179-70.835.179Z" transform="translate(41.196 33.572)" fill="#c8c8c8"/>
        <path id="Trazado_104482" data-name="Trazado 104482" d="M270.408,225.557l70.835-.179,70.835.179-70.835.179Z" transform="translate(41.196 34.336)" fill="#c8c8c8"/>
        <path id="Trazado_104483" data-name="Trazado 104483" d="M270.408,230.57l70.835-.179,70.835.179-70.835.179Z" transform="translate(41.196 35.1)" fill="#c8c8c8"/>
        <rect id="Rectángulo_5455" data-name="Rectángulo 5455" width="10.743" height="24.245" transform="translate(326.585 248.159)" fill="#ffc800"/>
        <rect id="Rectángulo_5456" data-name="Rectángulo 5456" width="10.743" height="37.178" transform="translate(346.515 235.227)" fill="#ffc800"/>
        <rect id="Rectángulo_5457" data-name="Rectángulo 5457" width="10.743" height="51.653" transform="translate(366.443 220.752)" fill="#ffc800"/>
        <rect id="Rectángulo_5458" data-name="Rectángulo 5458" width="10.743" height="57.873" transform="translate(386.373 214.531)" fill="#ffc800"/>
        <rect id="Rectángulo_5459" data-name="Rectángulo 5459" width="10.743" height="68.954" transform="translate(406.303 203.451)" fill="#ffc800"/>
        <rect id="Rectángulo_5460" data-name="Rectángulo 5460" width="10.743" height="79.904" transform="translate(426.233 192.501)" fill="#ffc800"/>
        <path id="Trazado_104484" data-name="Trazado 104484" d="M273.832,156.843l.279,22.917.191,22.917c.131,15.278.171,30.556.195,45.834l-.665-.665,34.456-.028,34.456.078,34.456.22,34.456.394L377.2,248.9l-34.456.22-34.456.078-34.456-.028h-.666v-.664c.024-15.278.063-30.556.195-45.834l.191-22.917Z" transform="translate(41.616 23.895)" fill="#c8c8c8"/>
        <rect id="Rectángulo_5461" data-name="Rectángulo 5461" width="10.743" height="0.971" transform="translate(326.585 277.248)" fill="#c8c8c8"/>
        <rect id="Rectángulo_5462" data-name="Rectángulo 5462" width="10.743" height="0.971" transform="translate(346.515 277.248)" fill="#c8c8c8"/>
        <rect id="Rectángulo_5463" data-name="Rectángulo 5463" width="10.743" height="0.971" transform="translate(366.443 277.248)" fill="#c8c8c8"/>
        <rect id="Rectángulo_5464" data-name="Rectángulo 5464" width="10.743" height="0.971" transform="translate(386.373 277.248)" fill="#c8c8c8"/>
        <rect id="Rectángulo_5465" data-name="Rectángulo 5465" width="10.743" height="0.971" transform="translate(406.303 277.248)" fill="#c8c8c8"/>
        <rect id="Rectángulo_5466" data-name="Rectángulo 5466" width="10.743" height="0.971" transform="translate(426.233 277.248)" fill="#c8c8c8"/>
        <path id="Trazado_104485" data-name="Trazado 104485" d="M284.459,225.472a130.275,130.275,0,0,0,15.691-1.192,152.413,152.413,0,0,0,15.46-2.786,133.722,133.722,0,0,0,29.515-10.4,105.166,105.166,0,0,0,25.792-17.562l1.452-1.316,1.376-1.394,2.739-2.8c1.693-1.988,3.509-3.883,5.05-6a107.732,107.732,0,0,0,8.8-13.024l.084.045a94.134,94.134,0,0,1-30.947,35.393,104.675,104.675,0,0,1-13.67,8.031,128.072,128.072,0,0,1-29.936,10.164,129.4,129.4,0,0,1-31.4,2.843" transform="translate(43.337 25.746)" fill="#263238"/>
        <path id="Trazado_104486" data-name="Trazado 104486" d="M380.424,176.665l-1.488.372-1.826-7.332-7.18,2.358-.477-1.458,8.745-2.869Z" transform="translate(56.285 25.554)" fill="#263238"/>
        <rect id="Rectángulo_5467" data-name="Rectángulo 5467" width="147.725" height="5.977" transform="translate(308.576 308.447)" fill="#dcdcdc"/>
        <rect id="Rectángulo_5468" data-name="Rectángulo 5468" width="83.17" height="5.978" transform="translate(308.576 323.533)" fill="#dcdcdc"/>
        <rect id="Rectángulo_5469" data-name="Rectángulo 5469" width="83.17" height="5.978" transform="translate(340.854 160.763)" fill="#dcdcdc"/>
        <path id="Trazado_104487" data-name="Trazado 104487" d="M410.49,397.355l-177.631,36.5L186,205.833l131.891-27.1,54.669,34.05Z" transform="translate(28.337 27.229)" fill="#f1a67e"/>
        <g id="Grupo_61041" data-name="Grupo 61041" transform="translate(214.341 205.96)" opacity="0.8">
          <g id="Grupo_61040" data-name="Grupo 61040">
            <g id="Grupo_61039" data-name="Grupo 61039" clip-path="url(#clip-path-3)">
              <path id="Trazado_104488" data-name="Trazado 104488" d="M410.49,397.355l-177.631,36.5L186,205.833l131.891-27.1,54.669,34.05Z" transform="translate(-186.004 -178.731)" fill="#fff"/>
            </g>
          </g>
        </g>
        <path id="Trazado_104489" data-name="Trazado 104489" d="M300.458,178.731l54.669,34.05-45.74,9.4Z" transform="translate(45.774 27.229)" fill="#ffc800"/>
        <rect id="Rectángulo_5471" data-name="Rectángulo 5471" width="100.824" height="5.977" transform="translate(239.532 267.761) rotate(-11.612)" fill="#dcdcdc"/>
        <rect id="Rectángulo_5472" data-name="Rectángulo 5472" width="100.824" height="5.977" transform="translate(242.569 282.54) rotate(-11.612)" fill="#dcdcdc"/>
        <rect id="Rectángulo_5473" data-name="Rectángulo 5473" width="100.824" height="5.978" transform="translate(245.606 297.319) rotate(-11.612)" fill="#dcdcdc"/>
        <rect id="Rectángulo_5474" data-name="Rectángulo 5474" width="147.725" height="5.977" transform="translate(248.643 312.098) rotate(-11.612)" fill="#dcdcdc"/>
        <rect id="Rectángulo_5475" data-name="Rectángulo 5475" width="147.725" height="5.978" transform="translate(251.68 326.877) rotate(-11.612)" fill="#dcdcdc"/>
        <rect id="Rectángulo_5476" data-name="Rectángulo 5476" width="147.725" height="5.977" transform="translate(254.717 341.656) rotate(-11.612)" fill="#dcdcdc"/>
        <rect id="Rectángulo_5477" data-name="Rectángulo 5477" width="147.725" height="5.977" transform="translate(257.754 356.434) rotate(-11.612)" fill="#dcdcdc"/>
        <rect id="Rectángulo_5478" data-name="Rectángulo 5478" width="147.725" height="5.977" transform="translate(260.791 371.213) rotate(-11.612)" fill="#dcdcdc"/>
        <rect id="Rectángulo_5479" data-name="Rectángulo 5479" width="147.725" height="5.977" transform="translate(263.827 385.992) rotate(-11.612)" fill="#dcdcdc"/>
        <rect id="Rectángulo_5480" data-name="Rectángulo 5480" width="147.725" height="5.977" transform="translate(266.865 400.771) rotate(-11.612)" fill="#dcdcdc"/>
        <rect id="Rectángulo_5481" data-name="Rectángulo 5481" width="147.725" height="5.977" transform="translate(269.901 415.55) rotate(-11.612)" fill="#dcdcdc"/>
        <rect id="Rectángulo_5482" data-name="Rectángulo 5482" width="147.725" height="5.977" transform="translate(272.938 430.329) rotate(-11.612)" fill="#dcdcdc"/>
        <path id="Trazado_104490" data-name="Trazado 104490" d="M725.344,258.8q-99.684,7.241-198.961,14.483C503.671,187.138,528,101,510.295,14.86Q609.981,7.619,709.258.378c22.694,86.137-1.633,172.277,16.086,258.418" transform="translate(77.743 0.058)" fill="#daecce"/>
        <path id="Trazado_104491" data-name="Trazado 104491" d="M725.435,258.853c-.482.022-199.023,14.846-199.216,14.866.581,0-5.183-16.162-7.738-40.413-3.069-24.249-2.926-56.584-2.391-88.921.508-32.34,1.419-64.682-.621-88.946-1.571-24.265-6.088-40.452-5.651-40.48,0,0-.113-.58-.119-.574l.569-.041C510.79,14.314,709.4.022,709.642,0c-.536.033,5.2,16.214,7.688,40.468,3,24.257,2.767,56.586,2.141,88.921-.6,32.333-1.6,64.669.375,88.937,1.51,24.268,5.995,40.468,5.589,40.527m0,0c-17.854-86.13,6.331-172.26-16.487-258.39,2.958.746-198.983,14.842-198.444,15.03l.449-.618c17.646,86.145-6.761,172.29,15.872,258.435-2.555-.566,199.038-14.365,198.608-14.457" transform="translate(77.652)" fill="#cbdcc0"/>
        <path id="Trazado_104492" data-name="Trazado 104492" d="M531.148,46.046q55.9-4.026,111.713-8.054.363,3.319.665,6.636-55.885,4.026-111.857,8.053-.235-3.317-.521-6.635" transform="translate(80.919 5.788)" fill="#cbdcc0"/>
        <path id="Trazado_104493" data-name="Trazado 104493" d="M532.116,60.58q56.061-4.027,112.051-8.054.216,3.319.385,6.638Q588.5,63.189,532.386,67.215q-.114-3.317-.27-6.635" transform="translate(81.067 8.002)" fill="#cbdcc0"/>
        <path id="Trazado_104494" data-name="Trazado 104494" d="M532.569,75.114q56.186-4.027,112.318-8.053.1,3.319.161,6.636-56.179,4.027-112.406,8.051-.021-3.317-.074-6.635" transform="translate(81.136 10.217)" fill="#cbdcc0"/>
        <path id="Trazado_104495" data-name="Trazado 104495" d="M532.642,90.144q82.456-5.9,164.827-11.8.031,3.319.029,6.636-82.421,5.9-164.918,11.8.042-3.317.062-6.635" transform="translate(81.138 11.936)" fill="#cbdcc0"/>
        <path id="Trazado_104496" data-name="Trazado 104496" d="M532.456,104.678q82.537-5.9,165.024-11.8-.036,3.319-.091,6.636l-165.074,11.8q.073-3.319.141-6.636" transform="translate(81.097 14.15)" fill="#cbdcc0"/>
        <path id="Trazado_104497" data-name="Trazado 104497" d="M532.126,119.213q82.565-5.9,165.119-11.8-.071,3.317-.153,6.635-82.563,5.9-165.13,11.8.081-3.319.165-6.636" transform="translate(81.043 16.364)" fill="#cbdcc0"/>
        <path id="Trazado_104498" data-name="Trazado 104498" d="M531.778,133.748q82.542-5.9,165.113-11.8-.081,3.317-.159,6.636l-165.082,11.8q.057-3.319.128-6.635" transform="translate(80.996 18.579)" fill="#cbdcc0"/>
        <path id="Trazado_104499" data-name="Trazado 104499" d="M531.539,148.282q82.471-5.9,165-11.8-.061,3.317-.1,6.636-82.5,5.9-164.931,11.8,0-3.319.033-6.636" transform="translate(80.974 20.793)" fill="#cbdcc0"/>
        <path id="Trazado_104500" data-name="Trazado 104500" d="M531.551,162.817q82.347-5.9,164.79-11.8-.01,3.317,0,6.635-82.39,5.9-164.677,11.8-.076-3.319-.117-6.636" transform="translate(80.981 23.007)" fill="#cbdcc0"/>
        <path id="Trazado_104501" data-name="Trazado 104501" d="M531.937,177.352q82.169-5.9,164.475-11.8.067,3.317.174,6.636-82.231,5.9-164.324,11.8-.185-3.317-.325-6.635" transform="translate(81.04 25.222)" fill="#cbdcc0"/>
        <path id="Trazado_104502" data-name="Trazado 104502" d="M532.818,191.886q81.946-5.9,164.059-11.8.176,3.319.4,6.638-82.02,5.9-163.864,11.8-.327-3.317-.593-6.635" transform="translate(81.174 27.436)" fill="#cbdcc0"/>
        <path id="Trazado_104503" data-name="Trazado 104503" d="M534.321,206.42q81.666-5.9,163.539-11.8.311,3.319.682,6.638-81.759,5.9-163.3,11.8-.494-3.317-.916-6.638" transform="translate(81.403 29.65)" fill="#cbdcc0"/>
        <path id="Trazado_104504" data-name="Trazado 104504" d="M699.248,342.992q-102.9-17.453-203.479-34.907c8.66-85.061,51.439-170.121,49.766-255.182q102.8,17.451,203.31,34.906c-9.019,85.061-51.74,170.122-49.6,255.183" transform="translate(75.53 8.06)" fill="#f1a67e"/>
        <g id="Grupo_61044" data-name="Grupo 61044" transform="translate(571.439 59.612)" opacity="0.8">
          <g id="Grupo_61043" data-name="Grupo 61043">
            <g id="Grupo_61042" data-name="Grupo 61042" clip-path="url(#clip-path-4)">
              <path id="Trazado_104505" data-name="Trazado 104505" d="M699.2,341.82q-102.8-17.453-203.309-34.907c9.018-85.061,51.739-170.121,49.6-255.182q102.9,17.451,203.48,34.906C740.306,171.7,697.529,256.759,699.2,341.82" transform="translate(-495.891 -51.731)" fill="#fff"/>
            </g>
          </g>
        </g>
        <path id="Trazado_104506" data-name="Trazado 104506" d="M553.548,88.494q55.759,9.7,111,19.407-.577,3.277-1.2,6.553-55.112-9.7-110.672-19.407.468-3.277.877-6.553" transform="translate(84.198 13.482)" fill="#dcdcdc"/>
        <path id="Trazado_104507" data-name="Trazado 104507" d="M551.469,102.846q55.325,9.7,110.221,19.407-.693,3.279-1.425,6.553-54.8-9.7-109.955-19.407.6-3.276,1.159-6.553" transform="translate(83.839 15.668)" fill="#dcdcdc"/>
        <path id="Trazado_104508" data-name="Trazado 104508" d="M548.8,117.2q54.967,9.7,109.594,19.407-.783,3.277-1.6,6.553-54.559-9.7-109.388-19.407.717-3.277,1.392-6.553" transform="translate(83.397 17.855)" fill="#dcdcdc"/>
        <path id="Trazado_104509" data-name="Trazado 104509" d="M545.65,131.551q80.122,14.217,159.74,28.435-.876,3.277-1.764,6.553-79.61-14.217-159.547-28.435.8-3.276,1.572-6.553" transform="translate(82.889 20.042)" fill="#dcdcdc"/>
        <path id="Trazado_104510" data-name="Trazado 104510" d="M542.132,145.9q79.82,14.219,159.323,28.435-.9,3.277-1.806,6.553-79.543-14.217-159.218-28.435.859-3.277,1.7-6.553" transform="translate(82.334 22.228)" fill="#dcdcdc"/>
        <path id="Trazado_104511" data-name="Trazado 104511" d="M538.355,160.257q79.628,14.217,159.125,28.434-.9,3.277-1.8,6.553Q616.1,181.029,536.575,166.809q.9-3.276,1.78-6.552" transform="translate(81.746 24.415)" fill="#dcdcdc"/>
        <path id="Trazado_104512" data-name="Trazado 104512" d="M534.434,174.609q79.545,14.217,159.151,28.435-.878,3.277-1.738,6.553-79.733-14.219-159.221-28.435l1.808-6.553" transform="translate(81.145 26.601)" fill="#dcdcdc"/>
        <path id="Trazado_104513" data-name="Trazado 104513" d="M530.477,188.962q79.572,14.219,159.4,28.436-.826,3.277-1.627,6.551-79.994-14.217-159.554-28.433.887-3.277,1.785-6.555" transform="translate(80.545 28.788)" fill="#dcdcdc"/>
        <path id="Trazado_104514" data-name="Trazado 104514" d="M526.6,203.315q79.709,14.217,159.862,28.434-.754,3.277-1.466,6.553-80.366-14.217-160.107-28.434.843-3.276,1.711-6.553" transform="translate(79.966 30.975)" fill="#dcdcdc"/>
        <path id="Trazado_104515" data-name="Trazado 104515" d="M522.908,217.668q79.958,14.217,160.547,28.434-.648,3.277-1.254,6.553-80.848-14.219-160.88-28.434.778-3.277,1.587-6.553" transform="translate(79.422 33.161)" fill="#dcdcdc"/>
        <path id="Trazado_104516" data-name="Trazado 104516" d="M519.517,232.02q80.318,14.217,161.456,28.434-.526,3.277-.992,6.553Q598.539,252.789,518.1,238.573q.686-3.276,1.412-6.553" transform="translate(78.932 35.348)" fill="#dcdcdc"/>
        <path id="Trazado_104517" data-name="Trazado 104517" d="M516.537,246.373q80.786,14.217,162.583,28.434-.373,3.277-.678,6.553Q596.3,267.142,515.351,252.926q.567-3.277,1.186-6.553" transform="translate(78.513 37.535)" fill="#dcdcdc"/>
        <rect id="Rectángulo_5484" data-name="Rectángulo 5484" width="351.645" height="254.901" transform="translate(340.121 316.18)" fill="#456c3a"/>
        <path id="Trazado_104518" data-name="Trazado 104518" d="M419.4,251.472H295.155v26.4H426.54Z" transform="translate(44.966 38.311)" fill="#456c3a"/>
        <g id="Grupo_61047" data-name="Grupo 61047" transform="translate(340.121 289.783)" opacity="0.1">
          <g id="Grupo_61046" data-name="Grupo 61046">
            <g id="Grupo_61045" data-name="Grupo 61045" clip-path="url(#clip-path-5)">
              <rect id="Rectángulo_5485" data-name="Rectángulo 5485" width="351.645" height="254.901" transform="translate(0 26.397)" fill="#456c3a"/>
              <path id="Trazado_104519" data-name="Trazado 104519" d="M419.4,251.472H295.155v26.4H426.54Z" transform="translate(-295.155 -251.472)" fill="#456c3a"/>
            </g>
          </g>
        </g>
        <path id="Trazado_104520" data-name="Trazado 104520" d="M624.928,451.277c-68.657-19.642-135.786-39.06-201.864-58.29,16.632-77.677,63.2-153.775,66.295-232.622,68.612,18.5,135.7,37.042,201.749,55.639-16.8,78.948-63.327,155.8-66.179,235.274" transform="translate(64.453 24.431)" fill="#ececec"/>
        <path id="Trazado_104521" data-name="Trazado 104521" d="M624.984,451.367c-1.567-.187-203.016-58.048-202.283-58.07a354.175,354.175,0,0,1,9.6-36.332c6.7-21.748,18.11-50.62,28.471-79.6,10.417-29.01,19.8-58.119,23.818-80.149,4.49-22.014,3.621-36.917,4.233-36.92.006,0,.016-.527.02-.525l.586.158c1.64.176,202.908,55.858,202.21,55.9a349.808,349.808,0,0,1-9.739,37.017c-6.791,22.091-18.292,51.348-28.722,80.636-10.488,29.249-19.914,58.531-23.96,80.7-4.511,22.121-3.645,37.156-4.238,37.185m0,0c2.713-79.509,49.14-156.4,65.779-235.387,3.471,1.65-200.732-55.314-201.371-55l.607-.366c-3.213,78.825-49.845,154.906-66.527,232.566-3.2-1.378,200.759,58.37,201.511,58.188" transform="translate(64.397 24.341)" fill="#dcdcdc"/>
        <path id="Trazado_104522" data-name="Trazado 104522" d="M602.973,296.415c-10.2,27.26-41.138,42.451-70,33.925-29.01-8.511-43.992-37.325-34.03-64.443,9.865-27.155,39.7-42.532,68.94-34.167,29.348,8.395,45.43,37.4,35.091,64.685" transform="translate(75.544 34.956)" fill="#455a64"/>
        <path id="Trazado_104523" data-name="Trazado 104523" d="M550.983,281.116c-11.837,13.516-23.81,27-35.492,40.49a48.193,48.193,0,0,1-16.556-55.714c9.809-26.974,39.9-42.473,68.942-34.167,29.152,8.338,45.36,37.584,35.09,64.685q-25.985-7.659-51.984-15.294" transform="translate(75.55 34.961)" fill="#dcdcdc"/>
        <path id="Trazado_104524" data-name="Trazado 104524" d="M550.983,281.116c10.322,13.874,20.527,27.758,30.956,41.67a58.48,58.48,0,0,1-48.974,7.549c-28.817-8.458-43.93-37.507-34.03-64.443,9.809-26.974,39.9-42.473,68.942-34.167,29.152,8.338,45.36,37.584,35.09,64.685q-25.985-7.659-51.984-15.294" transform="translate(75.55 34.961)" fill="#dcdcdc"/>
        <path id="Trazado_104525" data-name="Trazado 104525" d="M550.984,281.116q-27.262,4.558-54.549,9.091a49.627,49.627,0,0,1,2.5-24.315c9.809-26.974,39.9-42.473,68.942-34.167,29.152,8.338,45.36,37.584,35.09,64.685q-25.985-7.659-51.984-15.294" transform="translate(75.549 34.961)" fill="#a8bc8b"/>
        <path id="Trazado_104526" data-name="Trazado 104526" d="M494.247,190.044q41.8,11.612,83.022,23.257-.717,3.021-1.487,6.038Q534.7,207.69,493.114,196.074q.6-3.013,1.133-6.03" transform="translate(75.125 28.953)" fill="#dcdcdc"/>
        <path id="Trazado_104527" data-name="Trazado 104527" d="M488.92,324.829Q544,341.063,599.677,357.448q-.835,3.008-1.626,6.022-55.921-16.418-111.085-32.677.961-2.982,1.954-5.965" transform="translate(74.188 49.487)" fill="#dcdcdc"/>
        <path id="Trazado_104528" data-name="Trazado 104528" d="M484.73,337.9q55.437,16.305,111.643,32.77-.71,3.018-1.366,6.039Q538.525,360.2,482.96,343.872q.864-2.989,1.77-5.974" transform="translate(73.578 51.478)" fill="#dcdcdc"/>
        <path id="Trazado_104529" data-name="Trazado 104529" d="M480.968,350.989q55.9,16.383,112.725,32.939-.562,3.025-1.057,6.056-57.147-16.6-113.209-33.009.743-2.994,1.541-5.985" transform="translate(73.04 53.473)" fill="#dcdcdc"/>
        <path id="Trazado_104530" data-name="Trazado 104530" d="M471.592,326.271l-13.363-3.927q1-2.975,2.028-5.95l13.334,3.921q-1.015,2.977-2,5.955" transform="translate(69.81 48.202)" fill="#ffc800"/>
        <path id="Trazado_104531" data-name="Trazado 104531" d="M467.476,339.329l-13.449-3.943q.914-2.98,1.866-5.957,6.7,1.969,13.412,3.936-.932,2.982-1.829,5.963" transform="translate(69.17 50.188)" fill="#455a64"/>
        <path id="Trazado_104532" data-name="Trazado 104532" d="M463.808,352.41l-13.561-3.963q.805-2.985,1.659-5.967l13.515,3.955q-.83,2.987-1.613,5.975" transform="translate(68.594 52.176)" fill="#dcdcdc"/>
        <path id="Trazado_104533" data-name="Trazado 104533" d="M649.585,526.484H297.94L270.818,292.732H622.463Z" transform="translate(41.259 44.597)" fill="#537e39"/>
        <path id="Trazado_104534" data-name="Trazado 104534" d="M392.627,271.725H268.381l2.808,24.209H402.574Z" transform="translate(40.887 41.397)" fill="#537e39"/>
        <path id="Trazado_104535" data-name="Trazado 104535" d="M479.573,139.121a33.323,33.323,0,0,1,0-12.525,33.3,33.3,0,0,1,0,12.525" transform="translate(72.972 19.287)" fill="#263238"/>
        <path id="Trazado_104536" data-name="Trazado 104536" d="M469.257,142.1a33.312,33.312,0,0,1-6.263-10.847,33.322,33.322,0,0,1,6.263,10.847" transform="translate(70.536 19.996)" fill="#263238"/>
        <path id="Trazado_104537" data-name="Trazado 104537" d="M461.879,149.8a33.341,33.341,0,0,1-10.847-6.262,33.268,33.268,0,0,1,10.847,6.262" transform="translate(68.714 21.868)" fill="#263238"/>
        <path id="Trazado_104538" data-name="Trazado 104538" d="M459.339,160.234a33.323,33.323,0,0,1-12.525,0,33.3,33.3,0,0,1,12.525,0" transform="translate(68.071 24.321)" fill="#263238"/>
        <path id="Trazado_104539" data-name="Trazado 104539" d="M462.318,171.221a33.324,33.324,0,0,1-10.847,6.263,33.291,33.291,0,0,1,10.847-6.263" transform="translate(68.781 26.085)" fill="#263238"/>
        <path id="Trazado_104540" data-name="Trazado 104540" d="M470.017,179.2a33.324,33.324,0,0,1-6.263,10.847,33.292,33.292,0,0,1,6.263-10.847" transform="translate(70.652 27.302)" fill="#263238"/>
        <path id="Trazado_104541" data-name="Trazado 104541" d="M480.451,181.966a33.3,33.3,0,0,1,0,12.526,33.33,33.33,0,0,1,0-12.526" transform="translate(73.106 27.722)" fill="#263238"/>
        <path id="Trazado_104542" data-name="Trazado 104542" d="M491.44,178.766a33.322,33.322,0,0,1,6.262,10.847,33.265,33.265,0,0,1-6.262-10.847" transform="translate(74.87 27.235)" fill="#263238"/>
        <path id="Trazado_104543" data-name="Trazado 104543" d="M499.423,170.462a33.288,33.288,0,0,1,10.847,6.262,33.3,33.3,0,0,1-10.847-6.262" transform="translate(76.086 25.97)" fill="#263238"/>
        <path id="Trazado_104544" data-name="Trazado 104544" d="M502.185,159.356a33.3,33.3,0,0,1,12.525,0,33.322,33.322,0,0,1-12.525,0" transform="translate(76.507 24.187)" fill="#263238"/>
        <path id="Trazado_104545" data-name="Trazado 104545" d="M498.984,149.039a33.288,33.288,0,0,1,10.847-6.262,33.288,33.288,0,0,1-10.847,6.262" transform="translate(76.019 21.752)" fill="#263238"/>
        <path id="Trazado_104546" data-name="Trazado 104546" d="M490.68,141.661a33.287,33.287,0,0,1,6.262-10.847,33.3,33.3,0,0,1-6.262,10.847" transform="translate(74.754 19.929)" fill="#263238"/>
        <path id="Trazado_104547" data-name="Trazado 104547" d="M485.052,395.742H565.62s3.993-8.229,3.993-16.034V315.174H489.045v65.368c0,6.536-3.993,15.2-3.993,15.2" transform="translate(73.897 48.016)" fill="#455a64"/>
        <path id="Trazado_104548" data-name="Trazado 104548" d="M497.076,331.828c9.475-.777,18.949-.958,28.424-1,9.475.036,18.948.216,28.424,1-9.476.782-18.949.962-28.424,1-9.475-.039-18.949-.22-28.424-1" transform="translate(75.729 50.401)" fill="#fff"/>
        <path id="Trazado_104549" data-name="Trazado 104549" d="M497.076,341.046c8.522-.777,17.043-.958,25.565-1,8.523.035,17.044.214,25.566,1-8.522.782-17.043.962-25.566,1-8.522-.04-17.043-.22-25.565-1" transform="translate(75.729 51.806)" fill="#fff"/>
        <path id="Trazado_104550" data-name="Trazado 104550" d="M497.076,350.264c7.453-.778,14.908-.958,22.361-1,7.455.036,14.908.216,22.362,1-7.455.782-14.908.962-22.362,1-7.453-.04-14.908-.221-22.361-1" transform="translate(75.729 53.21)" fill="#fff"/>
        <path id="Trazado_104551" data-name="Trazado 104551" d="M497.076,359.481c9.475-.777,18.949-.958,28.424-1,9.475.036,18.948.217,28.424,1-9.476.783-18.949.962-28.424,1-9.475-.039-18.949-.22-28.424-1" transform="translate(75.729 54.614)" fill="#fff"/>
        <path id="Trazado_104552" data-name="Trazado 104552" d="M428.889,117.521l55.443-2.342a17.979,17.979,0,0,1,18.733,17.553l1.959,85.638a17.979,17.979,0,0,1-16.108,18.292,5.973,5.973,0,0,0-5.348,6.171l6.965,180.877a22.439,22.439,0,0,1-21.427,23.28l-211.805,9.4a5.974,5.974,0,0,1-6.235-5.789l-9.371-313.98a5.974,5.974,0,0,1,5.545-6.137Z" transform="translate(36.821 17.545)" fill="#a8bc8b"/>
        <g id="Grupo_61050" data-name="Grupo 61050" transform="translate(287.709 133.13)" opacity="0.3">
          <g id="Grupo_61049" data-name="Grupo 61049">
            <g id="Grupo_61048" data-name="Grupo 61048" clip-path="url(#clip-path-6)">
              <path id="Trazado_104553" data-name="Trazado 104553" d="M249.672,444.611l.177,5.936,228.008-20.965L473.5,115.529s-55.347,8.388-56.353,8.388S249.672,444.611,249.672,444.611" transform="translate(-249.672 -115.529)"/>
            </g>
          </g>
        </g>
        <path id="Trazado_104554" data-name="Trazado 104554" d="M404.763,103.114l66.169-4.035,6.831,325.51-232.891,23.62-34.3-323.8Z" transform="translate(32.081 15.094)" fill="#ebebeb"/>
        <path id="Trazado_104555" data-name="Trazado 104555" d="M404.8,103.134s-1.162.15-3.429.409L391.3,104.679l-38.681,4.3-141.988,15.67.2-.247C220.04,211.16,232,323.857,245.2,448.2l-.327-.266,52.2-5.3,180.691-18.311-.256.289c-2.922-142.322-5.319-259.052-6.684-325.512l.145.135-49.241,2.937-12.652.735c-2.839.161-4.284.225-4.284.225s1.442-.113,4.278-.3l12.647-.807,49.236-3.069.143-.009,0,.144c1.424,66.458,3.927,183.186,6.977,325.5l.006.263-.262.028L297.136,443.232l-52.2,5.293-.3.03-.031-.3c-13.143-124.345-25.054-237.047-34.225-323.808l-.023-.224.222-.024L352.6,108.732l38.692-4.183,10.073-1.072c2.27-.239,3.435-.343,3.435-.343" transform="translate(32.048 15.075)" fill="#263238"/>
        <path id="Trazado_104556" data-name="Trazado 104556" d="M200.531,114.682l31.527,327.6L475.969,419.3,440.795,91.951Z" transform="translate(30.551 14.009)" fill="#fff"/>
        <path id="Trazado_104557" data-name="Trazado 104557" d="M200.531,114.717l240.24-22.974.241-.023.025.241c9.891,91.9,22.072,205.085,35.23,327.345l.033.3-.3.028-1.73.164L232.083,442.585l-.27.025-.025-.27c-18.507-193.972-31.029-325.235-31.257-327.623.232,2.385,12.972,133.629,31.8,327.571l-.3-.244L474.213,419.2l1.729-.162-.271.331c-13.116-122.265-25.259-235.458-35.119-327.358l.266.218L200.531,114.717" transform="translate(30.551 13.973)" fill="#263238"/>
        <path id="Trazado_104558" data-name="Trazado 104558" d="M362.859,332.028a35.951,35.951,0,1,1,35.867,36.035,35.992,35.992,0,0,1-35.867-36.035m71.242.167A35.291,35.291,0,1,0,398.727,367.4,35.33,35.33,0,0,0,434.1,332.195" transform="translate(55.281 45.12)" fill="#e0e0e0"/>
        <path id="Trazado_104559" data-name="Trazado 104559" d="M366.417,331.43A31.355,31.355,0,1,1,397.7,362.858a31.389,31.389,0,0,1-31.282-31.428m58.085.136a26.73,26.73,0,1,0-26.792,26.667A26.762,26.762,0,0,0,424.5,331.566" transform="translate(55.823 45.727)" fill="#e0e0e0"/>
        <path id="Trazado_104560" data-name="Trazado 104560" d="M373.113,329.068a22.962,22.962,0,0,1,2.484-10.4l4.128,2.088a18.374,18.374,0,0,0-1.987,8.323,18.574,18.574,0,0,0,28.246,15.9l2.414,3.946a23.2,23.2,0,0,1-35.286-19.854" transform="translate(56.843 48.548)" fill="#e0e0e0"/>
        <path id="Trazado_104561" data-name="Trazado 104561" d="M383.952,310.224a23.2,23.2,0,0,1,30.338,32.942l-3.912-2.467a18.577,18.577,0,0,0-24.288-26.374Z" transform="translate(58.494 46.864)" fill="#e0e0e0"/>
        <path id="Trazado_104562" data-name="Trazado 104562" d="M431.207,165.087c.015.165-46.012,4.646-102.793,10.007-56.8,5.363-102.844,9.575-102.86,9.41s46-4.645,102.8-10.008c56.781-5.361,102.833-9.574,102.849-9.409" transform="translate(34.363 25.15)" fill="#263238"/>
        <path id="Trazado_104563" data-name="Trazado 104563" d="M319.729,162.852c.016.165-21.225,2.306-47.436,4.78s-47.483,4.349-47.5,4.183,21.222-2.3,47.442-4.78,47.477-4.348,47.493-4.183" transform="translate(34.247 24.809)" fill="#263238"/>
        <path id="Trazado_104564" data-name="Trazado 104564" d="M431.985,176.67c.016.166-46.012,4.646-102.793,10.008-56.8,5.363-102.844,9.575-102.86,9.41s46-4.646,102.8-10.008c56.781-5.362,102.834-9.574,102.849-9.41" transform="translate(34.481 26.915)" fill="#263238"/>
        <path id="Trazado_104565" data-name="Trazado 104565" d="M432.763,188.254c.016.165-46.012,4.646-102.793,10.007-56.8,5.363-102.844,9.575-102.86,9.41s46-4.645,102.8-10.008c56.781-5.361,102.833-9.574,102.849-9.409" transform="translate(34.6 28.679)" fill="#263238"/>
        <path id="Trazado_104566" data-name="Trazado 104566" d="M433.541,199.837c.015.165-46.012,4.646-102.793,10.007-56.8,5.363-102.844,9.575-102.86,9.41s46-4.645,102.8-10.008c56.781-5.361,102.834-9.574,102.849-9.409" transform="translate(34.718 30.444)" fill="#263238"/>
        <path id="Trazado_104567" data-name="Trazado 104567" d="M434.318,211.42c.016.165-46.012,4.646-102.793,10.007-56.8,5.363-102.844,9.575-102.86,9.41s46-4.645,102.8-10.008c56.781-5.361,102.834-9.574,102.849-9.409" transform="translate(34.837 32.209)" fill="#263238"/>
        <path id="Trazado_104568" data-name="Trazado 104568" d="M435.1,223c.014.165-46.013,4.646-102.794,10.007-56.8,5.363-102.842,9.575-102.86,9.41s46-4.645,102.8-10.008C389.027,227.051,435.08,222.838,435.1,223" transform="translate(34.955 33.973)" fill="#263238"/>
        <path id="Trazado_104569" data-name="Trazado 104569" d="M435.518,234.587c.016.165-45.412,4.589-101.45,9.88-56.058,5.293-101.5,9.448-101.516,9.283s45.4-4.589,101.46-9.881c56.04-5.29,101.491-9.447,101.507-9.282" transform="translate(35.429 35.738)" fill="#263238"/>
        <path id="Trazado_104570" data-name="Trazado 104570" d="M356.119,256.867c.015.165-27.407,2.769-61.243,5.815s-61.287,5.384-61.3,5.218,27.4-2.768,61.248-5.815,61.281-5.383,61.3-5.218" transform="translate(35.585 39.132)" fill="#263238"/>
        <path id="Trazado_104571" data-name="Trazado 104571" d="M320.884,352.607c.014.165-16.676,1.717-37.272,3.466s-37.313,3.033-37.327,2.868,16.672-1.717,37.276-3.466,37.308-3.033,37.322-2.868" transform="translate(37.521 53.717)"/>
        <path id="Trazado_104572" data-name="Trazado 104572" d="M288.74,363.668c.014.165-9.349,1.095-20.91,2.077s-20.949,1.644-20.962,1.478,9.347-1.095,20.912-2.077,20.947-1.643,20.961-1.478" transform="translate(37.61 55.4)"/>
        <path id="Trazado_104573" data-name="Trazado 104573" d="M287.488,282.144c.016.165-11,1.385-24.6,2.725s-24.648,2.294-24.664,2.13,11-1.385,24.6-2.726,24.645-2.293,24.661-2.128" transform="translate(36.293 42.981)" fill="#ff725e"/>
        <g id="Grupo_61053" data-name="Grupo 61053" transform="translate(256.812 377.656)" opacity="0.3">
          <g id="Grupo_61052" data-name="Grupo 61052">
            <g id="Grupo_61051" data-name="Grupo 61051" clip-path="url(#clip-path-7)">
              <path id="Trazado_104574" data-name="Trazado 104574" d="M223.631,350.93l22.39-4.328,12.52-18.874L222.86,339.445Z" transform="translate(-222.86 -327.727)"/>
            </g>
          </g>
        </g>
        <path id="Trazado_104575" data-name="Trazado 104575" d="M189.453,327.676l59.784-5.659,14.394,6.581-11.489,12.924-60.729,6.548Z" transform="translate(28.863 49.059)" fill="#ff725e"/>
        <path id="Trazado_104576" data-name="Trazado 104576" d="M359.45,280.861s.07.018.205.068a2.831,2.831,0,0,1,.582.274,8.281,8.281,0,0,1,1.923,1.627A27.519,27.519,0,0,1,367,291.184a34.964,34.964,0,0,1,2.512,15.042,22.667,22.667,0,0,1-.816,4.583,30.567,30.567,0,0,1-8.222,13.227A31.922,31.922,0,0,1,350.6,330.5a27.051,27.051,0,0,1-12.615,1.984,27.674,27.674,0,0,1-22.15-15.819,22.6,22.6,0,0,1-2.005-7.322,17.21,17.21,0,0,1,.807-7.727,12.423,12.423,0,0,1,4.6-6.448,8.926,8.926,0,0,1,3.835-1.434,9.181,9.181,0,0,1,4.1.481,12.106,12.106,0,0,1,6.321,5.243,19.428,19.428,0,0,1,2.506,7.987,34.879,34.879,0,0,1-2.46,16.771,33,33,0,0,1-10.134,13.574,30.423,30.423,0,0,1-15.251,6.136,28.6,28.6,0,0,1-15.656-2.549,26.743,26.743,0,0,1-11.135-10.346,25.935,25.935,0,0,1-3.768-13.971,18.934,18.934,0,0,1,1.344-6.876,13.633,13.633,0,0,1,3.939-5.531,8.148,8.148,0,0,1,6.249-1.848,9.359,9.359,0,0,1,5.511,3.068,11.728,11.728,0,0,1,2.764,5.408,15.221,15.221,0,0,1-.008,5.814,30.191,30.191,0,0,1-4.1,9.916,47.661,47.661,0,0,1-5.756,7.654,52.031,52.031,0,0,1-6.128,5.647,52.847,52.847,0,0,1-5.832,3.878,44.9,44.9,0,0,1-8.85,3.905c-2.11.673-3.252.9-3.252.9s.275-.1.817-.263,1.361-.368,2.4-.756a46.543,46.543,0,0,0,8.772-3.994,53.366,53.366,0,0,0,5.773-3.9,52.3,52.3,0,0,0,6.056-5.648,47.543,47.543,0,0,0,5.678-7.624,29.853,29.853,0,0,0,4.009-9.795,14.8,14.8,0,0,0-.008-5.647,11.308,11.308,0,0,0-2.672-5.188,8.9,8.9,0,0,0-5.233-2.9,7.662,7.662,0,0,0-5.874,1.761,13.146,13.146,0,0,0-3.775,5.336,18.419,18.419,0,0,0-1.291,6.7,25.43,25.43,0,0,0,3.714,13.674,26.2,26.2,0,0,0,10.912,10.113,28.02,28.02,0,0,0,15.34,2.481,29.853,29.853,0,0,0,14.951-6.023,32.413,32.413,0,0,0,9.945-13.329,34.306,34.306,0,0,0,2.422-16.479,18.863,18.863,0,0,0-2.42-7.745,11.515,11.515,0,0,0-6.006-4.994,8.583,8.583,0,0,0-3.842-.456,8.347,8.347,0,0,0-3.578,1.336,11.858,11.858,0,0,0-4.384,6.151,16.627,16.627,0,0,0-.788,7.483,22.052,22.052,0,0,0,1.947,7.15,27.174,27.174,0,0,0,21.691,15.553,26.612,26.612,0,0,0,12.4-1.918,31.543,31.543,0,0,0,9.758-6.339,30.261,30.261,0,0,0,8.17-13.022,22.37,22.37,0,0,0,.826-4.508,34.945,34.945,0,0,0-2.4-14.931,28.009,28.009,0,0,0-4.717-8.357,8.644,8.644,0,0,0-1.865-1.655c-.475-.307-.767-.366-.756-.4" transform="translate(40.141 42.789)"/>
        <path id="Trazado_104577" data-name="Trazado 104577" d="M379.682,145.272s-.032-.2-.077-.566c-.045-.387-.108-.93-.19-1.639-.162-1.455-.4-3.578-.706-6.333-.6-5.529-1.476-13.583-2.584-23.77l.2.161-124.44,13.118h-.007l.267-.328c1.156,11.091,2.284,21.914,3.369,32.326l-.322-.262,88.8-9.142,26.161-2.648,7.052-.7,1.835-.173c.415-.037.637-.047.637-.047s-.195.033-.6.082l-1.8.206-6.981.767-26.075,2.808-88.981,9.429-.293.031-.031-.293c-1.089-10.411-2.222-21.233-3.382-32.325l-.031-.3.3-.031h.007l124.464-12.882.182-.018.017.181c1.027,10.241,1.838,18.337,2.4,23.9.267,2.743.472,4.854.614,6.3.065.7.114,1.231.149,1.61.032.36.038.535.038.535" transform="translate(38.318 17.177)" fill="#455a64"/>
        <path id="Trazado_104578" data-name="Trazado 104578" d="M483.708,194.317a2.974,2.974,0,0,1,1.082-1.737c1.3-1.029,2.98-1.092,4.579-1.134a19.478,19.478,0,0,0,1.876-6.079,3.879,3.879,0,0,1-2.159-.615,2.158,2.158,0,0,1-.355-.108c-1.538-.705-1.69-3-.72-4.39a8.776,8.776,0,0,1,4.207-2.7c-1.159.071-2.149.838-3.258,1.182s-2.67-.037-2.8-1.19a2.533,2.533,0,0,1,.175-1.039q.325-1.023.65-2.047a2.283,2.283,0,0,1,.9-1.428,5.357,5.357,0,0,1,1.181-.283c1.3-.349,1.967-1.923,3.26-2.286a5.948,5.948,0,0,1,2.9.429c.962.228,2.236.039,2.534-.9a9.226,9.226,0,0,1-3.3-2.786,3.165,3.165,0,0,1,.312-3.985,4.656,4.656,0,0,1,3.259-.667c1.268.055,2.843.343,3.178,1.567a3.3,3.3,0,0,1,4.047,2.587l3.265-.331c-.913-.981-2.208-1.578-2.995-2.661s-.641-3.035.67-3.315a9.028,9.028,0,0,0,1.455-.128c.328-.13.6-.428.952-.44a1.263,1.263,0,0,1,.705.277l6.9,4.5q-.932-2.168-1.865-4.334c-.573-1.332-1.019-3.169.175-3.994,1.155-.8,2.838.354,3.083,1.735a2.241,2.241,0,0,1,2.725,2.063,2.272,2.272,0,0,1,2.67,3.469,6.45,6.45,0,0,1,3.281.979,1.976,1.976,0,0,1,3.194-1.361,3.432,3.432,0,0,1,.507-1.966,1.187,1.187,0,0,1,1.777-.2,2.311,2.311,0,0,1,3.741-2.261l1.137-1.376a3.039,3.039,0,0,1,2.93,1.521c.479,1.065-.323,2.6-1.485,2.493.817-.014.632,1.291.154,1.956q-1,1.386-2,2.774a2.555,2.555,0,0,1,3.164-.28,1.978,1.978,0,0,1,2.859.022,1.6,1.6,0,0,1,2.876.485c.2-.534.936-.566,1.5-.5a3.727,3.727,0,0,1,2.279.784c.583.575.578,1.77-.19,2.055.7-.392,1.6.378,1.61,1.178a2.864,2.864,0,0,1-1.147,2.026,6.691,6.691,0,0,0-1.643,1.731,3.377,3.377,0,0,1,2.307-.486,8.751,8.751,0,0,1,4.172.832c.244-.564,1.03-.59,1.633-.467a9.772,9.772,0,0,1,4.974,2.706c.635.645,1.2,1.613.771,2.407a2.426,2.426,0,0,1-.914.812l-4.426,2.739a12.052,12.052,0,0,1,6.051,4.288c.885.513,2.007.568,2.808,1.206s.742,2.325-.282,2.324a1.878,1.878,0,0,1,.544,2.178,1.787,1.787,0,0,1-.691.762,2.515,2.515,0,0,1-.484.549,3.469,3.469,0,0,1-1.189.623,2.317,2.317,0,0,1-1.979.913,9.4,9.4,0,0,1,2.1,2.493,3.949,3.949,0,0,1,0,4.061,2.186,2.186,0,0,1-.157.172,1.93,1.93,0,0,1-.847,1.227,1.631,1.631,0,0,1,.157,1.079,4.319,4.319,0,0,1,.971,7.571c-1.019.719-2.906.587-3-.656a3.36,3.36,0,0,1-2.554,1.858,3.258,3.258,0,0,1-1.7,4.486,3.471,3.471,0,0,1-1.093,5.679,2.658,2.658,0,1,1-5.022,1.743,5.654,5.654,0,0,1-1.99,2.491,1.952,1.952,0,0,1-2.752-.719,3.65,3.65,0,0,1-5.366,1.737,2.361,2.361,0,0,1-4.695.416q-3.047-.031-6.1-.059a21.8,21.8,0,0,1-4.03-.29,10.916,10.916,0,0,1-4.647-2.15,3.687,3.687,0,0,0-1.408-.856,3.786,3.786,0,0,0-1.864.287,9.872,9.872,0,0,1-9.373-2.216,4.94,4.94,0,0,0-1.235-.986,4.454,4.454,0,0,0-1.8-.249A17.855,17.855,0,0,1,500,221.46a4.716,4.716,0,0,1-3.126-2.051c-.583-1.144.1-2.911,1.387-2.89a2.76,2.76,0,0,0-.681-2.316,1.66,1.66,0,0,0-2.252-.094,1.2,1.2,0,0,0,.549,1.947c-1.379.951-3.522-.384-3.556-2.059a3.3,3.3,0,0,1,3.3-3.077,7.585,7.585,0,0,1-.094-3.689,2.712,2.712,0,0,1-3.694.419,4.675,4.675,0,0,1-3.025,2.174,2.8,2.8,0,0,1-3.092-1.688,2.017,2.017,0,0,1,1.916-2.6,2.41,2.41,0,0,1,2.141-3.486,3.748,3.748,0,0,1,2.287-3.979,1.973,1.973,0,0,1-2.806-1.083c-.777,1.224-2.667.924-3.918.19-.981-.575-1.92-1.4-1.632-2.865" transform="translate(73.684 23.768)" fill="#263238"/>
        <path id="Trazado_104579" data-name="Trazado 104579" d="M483.71,194.348a1.839,1.839,0,0,0-.07.5,2.154,2.154,0,0,0,.467,1.4,4.765,4.765,0,0,0,2.027,1.392,4.127,4.127,0,0,0,1.581.268,1.971,1.971,0,0,0,1.609-.849l-.133-.02a2.055,2.055,0,0,0,2.924,1.139l-.078-.157a3.855,3.855,0,0,0-2.36,4.078l.113-.121a2.325,2.325,0,0,0-2.1,1.126,2.372,2.372,0,0,0-.154,2.526l.114-.18a2.031,2.031,0,0,0-2.043,1.536,2.224,2.224,0,0,0,1.03,2.528,3.219,3.219,0,0,0,2.938.272,5.206,5.206,0,0,0,2.382-2.029l-.212.033a2.868,2.868,0,0,0,3.905-.438l-.27-.128a7.77,7.77,0,0,0,.091,3.765l.152-.2a3.7,3.7,0,0,0-2.27.844,3.109,3.109,0,0,0-1.194,2.2,2.589,2.589,0,0,0,1.2,2.262,2.329,2.329,0,0,0,2.612.138l.389-.268-.466-.05a.966.966,0,0,1-.68-1.145,1.058,1.058,0,0,1,1.156-.842,1.637,1.637,0,0,1,1.392.846,2.838,2.838,0,0,1,.308,1.756l.188-.162a1.586,1.586,0,0,0-1.213.564,2.451,2.451,0,0,0-.375,2.532,3.119,3.119,0,0,0,.817,1.047,6.326,6.326,0,0,0,2.347,1.142,17.936,17.936,0,0,0,2.566.53c1.722.361,3.716-.34,4.843,1.259a9.936,9.936,0,0,0,4.921,2.532,10.149,10.149,0,0,0,2.854.168,14.5,14.5,0,0,0,2.8-.613,1.723,1.723,0,0,1,1.253.139,10.387,10.387,0,0,1,1.137.84,11.286,11.286,0,0,0,2.6,1.453,15.613,15.613,0,0,0,5.952.857l6.118.063-.225-.195a2.594,2.594,0,0,0,5.158-.456l-.373.2a3.891,3.891,0,0,0,5.733-1.853l-.454.007a1.773,1.773,0,0,0,1.3,1.083,2.541,2.541,0,0,0,1.718-.2,5.7,5.7,0,0,0,2.163-2.627l-.445-.033a2.9,2.9,0,1,0,5.485-1.9l-.158.317a3.467,3.467,0,0,0,2.215-2.639,3.51,3.51,0,0,0-1.038-3.469l-.078.431a3.514,3.514,0,0,0,1.843-4.848l-.187.376a3.627,3.627,0,0,0,2.75-2l-.483-.09a1.32,1.32,0,0,0,.4.845,1.75,1.75,0,0,0,.8.415,2.888,2.888,0,0,0,1.7-.142,4.311,4.311,0,0,0,2.184-2.536,4.424,4.424,0,0,0-.178-3.4,4.676,4.676,0,0,0-2.526-2.358l.161.294a1.9,1.9,0,0,0-.179-1.247l-.1.338a2.193,2.193,0,0,0,.967-1.39l-.059.112a3.844,3.844,0,0,0,.494-3.852,8.409,8.409,0,0,0-2.457-3.237l-.2.453a2.576,2.576,0,0,0,2.208-1.015l-.129.092a3.265,3.265,0,0,0,1.813-1.276l-.076.074a1.953,1.953,0,0,0,.954-1.591,2.141,2.141,0,0,0-.787-1.773l-.161.468a1,1,0,0,0,.825-.417,1.523,1.523,0,0,0,.264-.83,1.9,1.9,0,0,0-.649-1.548c-.9-.7-2.021-.741-2.835-1.225l.078.07a12.352,12.352,0,0,0-6.184-4.382l.061.475,2.027-1.255,1.537-.952a12.862,12.862,0,0,0,1.543-1.028,1.562,1.562,0,0,0,.492-.933,1.946,1.946,0,0,0-.16-1.013,4.425,4.425,0,0,0-1.149-1.5,10.064,10.064,0,0,0-3.087-1.95,9.877,9.877,0,0,0-1.754-.522,2.694,2.694,0,0,0-.982-.016,1.158,1.158,0,0,0-.884.646l.372-.122a7.452,7.452,0,0,0-3.354-.827c-.568-.027-1.115-.06-1.7-.043a2.829,2.829,0,0,0-1.722.55l.4.32c.5-.981,1.7-1.5,2.412-2.594a1.95,1.95,0,0,0,.234-1.945,1.692,1.692,0,0,0-.728-.738,1.164,1.164,0,0,0-1.1,0l.217.47a1.176,1.176,0,0,0,.7-.75,1.723,1.723,0,0,0,.017-.96,1.657,1.657,0,0,0-.489-.824,2.463,2.463,0,0,0-.777-.475,6.382,6.382,0,0,0-1.674-.336,2.892,2.892,0,0,0-.9.04,1.072,1.072,0,0,0-.8.637l.5.062a1.856,1.856,0,0,0-3.365-.568l.426-.055a2.227,2.227,0,0,0-3.245-.024l.345-.036a2.808,2.808,0,0,0-3.492.3l.381.335q.85-1.181,1.692-2.353a3.324,3.324,0,0,0,.705-1.359,1.733,1.733,0,0,0,0-.835.809.809,0,0,0-.274-.428.8.8,0,0,0-.5-.157l-.018.506a1.725,1.725,0,0,0,1.636-1,2.137,2.137,0,0,0,.075-1.9,3.31,3.31,0,0,0-3.142-1.616l-.112,0-.073.088L535.3,158.6l.353-.032a2.559,2.559,0,0,0-4.142,2.505l.436-.205a1.2,1.2,0,0,0-1.178-.388,1.639,1.639,0,0,0-1.01.616,3.722,3.722,0,0,0-.537,2.077l.418-.16a2.218,2.218,0,0,0-3.609,1.54l.371-.211A6.677,6.677,0,0,0,523,163.33l.188.384a2.511,2.511,0,0,0-2.951-3.832l.326.22a2.471,2.471,0,0,0-3.027-2.289l.3.184a2.768,2.768,0,0,0-.927-1.561,2.362,2.362,0,0,0-1.705-.619,1.812,1.812,0,0,0-1.461,1.084,3.1,3.1,0,0,0-.139,1.753,14.58,14.58,0,0,0,1.13,3.111q.639,1.488,1.272,2.953l.328-.277-4.26-2.774-2.083-1.357a5.413,5.413,0,0,0-1.125-.643,1,1,0,0,0-.743.116c-.2.109-.358.23-.512.3a3.277,3.277,0,0,1-1.122.092,1.6,1.6,0,0,0-1.206.585,2.64,2.64,0,0,0-.243,2.482,4.569,4.569,0,0,0,1.581,1.846,14.871,14.871,0,0,1,1.76,1.451l.129-.343-3.265.334.22.173a3.491,3.491,0,0,0-4.3-2.746l.245.135a2.248,2.248,0,0,0-1.662-1.452,8.089,8.089,0,0,0-2.1-.268,5.951,5.951,0,0,0-2.081.232,2.564,2.564,0,0,0-1.564,1.387,3.8,3.8,0,0,0,.678,3.838,10.963,10.963,0,0,0,3,2.335l-.075-.2a1.343,1.343,0,0,1-1.136.831,3.324,3.324,0,0,1-1.543-.13,11.139,11.139,0,0,0-1.582-.393,2.448,2.448,0,0,0-1.62.312c-.943.574-1.492,1.508-2.352,1.914a13.6,13.6,0,0,1-1.422.368,1.9,1.9,0,0,0-.966,1.188q-.436,1.374-.855,2.691a1.673,1.673,0,0,0,.107,1.43,1.9,1.9,0,0,0,1.178.765,3.094,3.094,0,0,0,1.352.02,6.146,6.146,0,0,0,1.217-.457,6.486,6.486,0,0,1,2.256-.79l-.055-.248a15.35,15.35,0,0,0-2.676,1.283,4.964,4.964,0,0,0-1.875,2,3.657,3.657,0,0,0-.182,2.518,2.258,2.258,0,0,0,1.621,1.614l-.026-.012a3.919,3.919,0,0,0,2.215.622l-.093-.1a19.466,19.466,0,0,1-1.844,6.063l.058-.037a11.51,11.51,0,0,0-3.06.371,4.283,4.283,0,0,0-1.852,1.086,2.943,2.943,0,0,0-.657,1.077,1.838,1.838,0,0,0-.093.4,3.055,3.055,0,0,1,.8-1.432,4.266,4.266,0,0,1,1.832-1.036,11.515,11.515,0,0,1,3.034-.335h.039l.018-.036a19.281,19.281,0,0,0,1.907-6.1l.015-.1h-.109a3.751,3.751,0,0,1-2.1-.607l-.015-.009-.012,0a2.05,2.05,0,0,1-1.469-1.485,3.44,3.44,0,0,1,.186-2.36,4.744,4.744,0,0,1,1.8-1.893,15.3,15.3,0,0,1,2.639-1.248l.755-.3-.81.05a6.694,6.694,0,0,0-2.354.8,6.005,6.005,0,0,1-1.159.433,2.817,2.817,0,0,1-1.228-.024,1.624,1.624,0,0,1-1-.646,1.373,1.373,0,0,1-.068-1.194q.418-1.3.859-2.667a1.6,1.6,0,0,1,.8-1.008,11.53,11.53,0,0,0,1.438-.369c.971-.472,1.529-1.419,2.382-1.918.857-.555,1.923-.184,2.947.123a3.661,3.661,0,0,0,1.693.143,1.684,1.684,0,0,0,1.408-1.062l.04-.13-.116-.071a10.639,10.639,0,0,1-2.9-2.261,3.442,3.442,0,0,1-.62-3.464,2.192,2.192,0,0,1,1.349-1.185,5.637,5.637,0,0,1,1.949-.205,7.784,7.784,0,0,1,2,.257,1.865,1.865,0,0,1,1.4,1.187l.052.195.195-.06a3.1,3.1,0,0,1,3.789,2.428l.03.191.19-.018,3.266-.327.413-.04-.284-.3a14.934,14.934,0,0,0-1.8-1.5,4.2,4.2,0,0,1-1.443-1.666,2.235,2.235,0,0,1,.182-2.068,1.154,1.154,0,0,1,.893-.424,3.428,3.428,0,0,0,1.275-.126c.427-.209.7-.485.976-.388a5.566,5.566,0,0,1,.994.589l2.081,1.36,4.254,2.782.621.406-.293-.682q-.629-1.468-1.268-2.955a14.3,14.3,0,0,1-1.094-3.008,2.647,2.647,0,0,1,.108-1.49,1.35,1.35,0,0,1,1.082-.811,2.235,2.235,0,0,1,2.128,1.8l.047.258.248-.074a2.009,2.009,0,0,1,2.423,1.837v.354l.326-.132a2.034,2.034,0,0,1,2.389,3.1l-.282.375.47.01a6.215,6.215,0,0,1,3.156.944l.391.245-.018-.455a1.738,1.738,0,0,1,2.777-1.183l.391.393.028-.553a3.283,3.283,0,0,1,.441-1.808c.308-.441,1.106-.618,1.4-.217l.682.918L532,160.971a2.062,2.062,0,0,1,3.338-2.017l.192.161.16-.195,1.137-1.374-.183.091a2.82,2.82,0,0,1,2.67,1.332c.448.859-.236,2.27-1.212,2.178l-.018.506c.159.009.221.051.275.218a1.277,1.277,0,0,1-.012.588,2.808,2.808,0,0,1-.622,1.168q-.843,1.172-1.693,2.353l.381.335a2.3,2.3,0,0,1,2.836-.262l.191.144.154-.18a1.724,1.724,0,0,1,2.471.02l.264.315.164-.37a1.353,1.353,0,0,1,2.388.4l.115,1.291.384-1.228c.1-.327.674-.4,1.167-.346a5.989,5.989,0,0,1,1.53.3,1.431,1.431,0,0,1,.955.948c.121.444-.018.969-.392,1.094l.217.469c.354-.218.9.089,1.107.525a1.44,1.44,0,0,1-.209,1.427c-.575.943-1.792,1.446-2.437,2.637l-.613,1.132,1.012-.81c.76-.61,1.973-.411,3.058-.388a6.966,6.966,0,0,1,3.121.759l.267.154.1-.278c.141-.368.772-.428,1.289-.323a9.368,9.368,0,0,1,1.655.493,9.538,9.538,0,0,1,2.926,1.848,3.919,3.919,0,0,1,1.021,1.321,1.135,1.135,0,0,1-.21,1.364,13.5,13.5,0,0,1-1.458.961l-1.537.951-2.027,1.255-.491.3.551.169a11.832,11.832,0,0,1,5.918,4.193l.033.045.046.025c.976.55,2.061.6,2.773,1.182a1.4,1.4,0,0,1,.451,1.115c-.015.424-.228.765-.565.746l-.829-.048.667.516a1.621,1.621,0,0,1,.587,1.336,1.422,1.422,0,0,1-.715,1.178l-.047.029-.029.046a2.736,2.736,0,0,1-1.534,1.068l-.081.024-.049.067a2.064,2.064,0,0,1-1.749.811l-.785-.074.588.527a7.9,7.9,0,0,1,2.317,3.026,3.338,3.338,0,0,1-.393,3.334l-.044.047-.015.066a1.683,1.683,0,0,1-.728,1.065l-.208.122.111.215a1.387,1.387,0,0,1,.135.909l-.047.215.209.078a4.167,4.167,0,0,1,2.244,2.1,3.912,3.912,0,0,1,.158,3.011,3.838,3.838,0,0,1-1.89,2.23,2.384,2.384,0,0,1-1.39.12.93.93,0,0,1-.807-.8l-.059-1-.424.906a3.125,3.125,0,0,1-2.357,1.717l-.374.045.187.331a3.018,3.018,0,0,1-1.565,4.123l-.439.137.361.294a3.016,3.016,0,0,1,.87,2.977,2.973,2.973,0,0,1-1.878,2.272l-.244.075.086.242a2.413,2.413,0,1,1-4.559,1.583l-.182-.545-.264.512a5.294,5.294,0,0,1-1.952,2.422,1.706,1.706,0,0,1-2.349-.619l-.232-.687-.222.695a3.247,3.247,0,0,1-2.206,2.007,3.21,3.21,0,0,1-2.793-.386l-.388-.287.014.483a2.129,2.129,0,0,1-4.233.375l-.028-.195h-.2l-6.118-.055a15.2,15.2,0,0,1-5.794-.816,10.794,10.794,0,0,1-2.5-1.392,10.326,10.326,0,0,0-1.2-.873,2.157,2.157,0,0,0-1.543-.179,14.316,14.316,0,0,1-2.752.611,9.738,9.738,0,0,1-2.734-.157,9.52,9.52,0,0,1-4.721-2.415,5.235,5.235,0,0,0-1.082-.882,3.11,3.11,0,0,0-1.378-.319,21.337,21.337,0,0,1-2.614-.157,17.312,17.312,0,0,1-2.511-.513,5.934,5.934,0,0,1-2.206-1.059,2.153,2.153,0,0,1-.86-2.022,1.542,1.542,0,0,1,1.376-1.455l.168,0,.02-.168a3.205,3.205,0,0,0-.362-1.987,2.006,2.006,0,0,0-1.7-1.022,1.423,1.423,0,0,0-1.516,1.15,1.314,1.314,0,0,0,.986,1.548l-.076-.319a1.988,1.988,0,0,1-2.223-.133,2.253,2.253,0,0,1-1.059-1.96,3.178,3.178,0,0,1,3.131-2.739h.21l-.058-.2a7.457,7.457,0,0,1-.1-3.61l.147-.657-.417.529a2.574,2.574,0,0,1-3.482.4l-.122-.1-.09.136a4.928,4.928,0,0,1-2.239,1.93,2.948,2.948,0,0,1-2.7-.235,1.964,1.964,0,0,1-.933-2.236,1.791,1.791,0,0,1,1.776-1.372l.236.029-.122-.21a2.3,2.3,0,0,1,2.03-3.318l.134.014-.021-.135a3.671,3.671,0,0,1,2.216-3.881l-.077-.157a1.9,1.9,0,0,1-2.69-1.029l-.043-.166-.09.146a1.831,1.831,0,0,1-1.491.8,4.015,4.015,0,0,1-1.536-.243,4.745,4.745,0,0,1-2.006-1.333,2.156,2.156,0,0,1-.487-1.359c0-.331.047-.5.032-.5" transform="translate(73.681 23.738)" fill="#455a64"/>
        <path id="Trazado_104580" data-name="Trazado 104580" d="M537.518,196.315a19.439,19.439,0,0,0-19.069-20.484,20.014,20.014,0,0,0-20.278,18.289c-.8,9.052-1.4,18.176-1.143,21.459.769,9.9,6.921,13.378,9.389,14.381a13.245,13.245,0,0,0,2.7.477.067.067,0,0,1,.061.074l-1.506,11.52c-.535,7.518-2.184,33.084,5.463,33.679,7.672.6,19.561-24.7,20.24-32.236Z" transform="translate(75.712 26.786)" fill="#ffc09d"/>
        <path id="Trazado_104581" data-name="Trazado 104581" d="M500.609,198.1a1.581,1.581,0,0,0,1.413,1.708,1.538,1.538,0,0,0,1.77-1.291,1.584,1.584,0,0,0-1.412-1.709,1.539,1.539,0,0,0-1.771,1.292" transform="translate(76.265 29.981)" fill="#263238"/>
        <path id="Trazado_104582" data-name="Trazado 104582" d="M500.186,194.091c.182.221,1.469-.567,3.192-.429,1.724.114,2.917,1.084,3.121.891.1-.084-.071-.47-.59-.907a4.443,4.443,0,0,0-2.476-.968,4.306,4.306,0,0,0-2.563.6c-.563.358-.773.716-.683.815" transform="translate(76.199 29.352)" fill="#263238"/>
        <path id="Trazado_104583" data-name="Trazado 104583" d="M514.589,199.212A1.581,1.581,0,0,0,516,200.919a1.537,1.537,0,0,0,1.769-1.291,1.582,1.582,0,0,0-1.41-1.709,1.539,1.539,0,0,0-1.771,1.292" transform="translate(78.395 30.151)" fill="#263238"/>
        <path id="Trazado_104584" data-name="Trazado 104584" d="M514.869,195.51c.182.22,1.47-.567,3.193-.429,1.723.114,2.917,1.084,3.12.891.1-.084-.07-.47-.591-.907a4.443,4.443,0,0,0-2.476-.968,4.3,4.3,0,0,0-2.562.6c-.562.358-.774.716-.684.815" transform="translate(78.436 29.569)" fill="#263238"/>
        <path id="Trazado_104585" data-name="Trazado 104585" d="M509.1,207.655a11.61,11.61,0,0,0-2.759-.714c-.437-.078-.847-.2-.9-.5a2.172,2.172,0,0,1,.4-1.258q.75-1.523,1.575-3.192c2.2-4.547,3.827-8.3,3.639-8.386s-2.119,3.532-4.317,8.08q-.8,1.682-1.522,3.215a2.48,2.48,0,0,0-.37,1.679,1.1,1.1,0,0,0,.672.689,3.072,3.072,0,0,0,.739.16,11.471,11.471,0,0,0,2.838.225" transform="translate(76.906 29.495)" fill="#263238"/>
        <path id="Trazado_104586" data-name="Trazado 104586" d="M507.624,223.647s6.612,1.054,15.346-3.213c-.528.26-3.051,9.992-15.752,6.317Z" transform="translate(77.274 33.583)" fill="#ff9b6c"/>
        <path id="Trazado_104587" data-name="Trazado 104587" d="M508.9,209.517a3.156,3.156,0,0,1,2.879-.916,2.837,2.837,0,0,1,1.872,1.183,1.745,1.745,0,0,1-.03,2.029,2.126,2.126,0,0,1-2.307.386,6.526,6.526,0,0,1-2.1-1.463,1.876,1.876,0,0,1-.451-.539.56.56,0,0,1,.054-.63" transform="translate(77.499 31.772)" fill="#ff9b6c"/>
        <path id="Trazado_104588" data-name="Trazado 104588" d="M513.625,207.157c-.279-.038-.436,1.8-2.146,2.98s-3.685.823-3.721,1.079c-.036.113.415.392,1.255.479a4.744,4.744,0,0,0,3.1-.8,4,4,0,0,0,1.679-2.508c.135-.763-.036-1.234-.165-1.234" transform="translate(77.356 31.56)" fill="#263238"/>
        <path id="Trazado_104589" data-name="Trazado 104589" d="M514.915,190.7c.131.474,1.871.39,3.874.787,2.011.357,3.593,1.066,3.9.673.136-.188-.113-.643-.734-1.141a6.975,6.975,0,0,0-5.921-1.112c-.766.236-1.171.568-1.116.793" transform="translate(78.446 28.896)" fill="#263238"/>
        <path id="Trazado_104590" data-name="Trazado 104590" d="M500.952,190.249c.272.408,1.492.1,2.921.195,1.434.043,2.617.463,2.928.083.138-.187-.02-.587-.519-.992a4.3,4.3,0,0,0-4.713-.222c-.537.356-.736.739-.618.937" transform="translate(76.314 28.75)" fill="#263238"/>
        <path id="Trazado_104591" data-name="Trazado 104591" d="M495.826,182.844a12.315,12.315,0,0,1,.244-1.644,4.979,4.979,0,0,1,1.461-2.052c2.094-2.056,4.3-4.18,6.938-4.861,1.611-.415,3.282-.26,4.9-.66a28.2,28.2,0,0,0,2.927-1.062,23.96,23.96,0,0,1,12.428-.671,19.738,19.738,0,0,1,6.677,2.166,23.906,23.906,0,0,1,5.985,5.446,36.481,36.481,0,0,1,6.67,10.738,17.856,17.856,0,0,1,.96,10.139c-.794,3.379-3.183,6.409-6.107,6.877q-.508-.695-1.019-1.389l-1.627-2.057c.27.82,0,.761-.686,1.151a1.4,1.4,0,0,1-1.934-.719c-.589.666-1.74-.16-1.495-1.073-.684.311-1.468-.641-1.188-1.445-.785.228-1.133-1.037-1.461-1.892a13.079,13.079,0,0,0-.673-1.315,8.536,8.536,0,0,1-.864-4.669c-.894-1.208-1-2.964-1.061-4.59q-.059-1.521-.117-3.043c-.168-.248-.335-.5-.5-.746a1.642,1.642,0,0,1-1.215,1.473,3.509,3.509,0,0,1-1.823-.18l-1.771-.5-1.149.234a4.569,4.569,0,0,1-.574,2.905,2.84,2.84,0,0,1-1.175,1.551.853.853,0,0,1-1.111-1.008.946.946,0,0,1-1.44-.35,3.109,3.109,0,0,1-.255-1.889,7.951,7.951,0,0,1,1.8-4.248q-1.682,1.338-3.366,2.675a1.471,1.471,0,0,1-.8.407.83.83,0,0,1-.955.84,2.152,2.152,0,0,1-1.094-.879c-.7-.863-1.391-2.289-.638-3.134a.68.68,0,0,1-.22-1.016l-3.771,2.41c.371-.176.718.407.6.859a1.886,1.886,0,0,1-.825.992,2.783,2.783,0,0,1,.271,1.716c.684-.521,1.558.62,1.277,1.521a2.014,2.014,0,0,1-2,1.311,1.4,1.4,0,0,1-1.5-1.164c-.793.1-1.457-1.033-1.106-1.889-.594.331-1.006-.723-.975-1.491a11.067,11.067,0,0,1,.891-3.9.206.206,0,0,1-.294.059.233.233,0,0,1-.063-.156q-1.124,2.2-2.246,4.405a11.421,11.421,0,0,0-1.429,3.971c-.059.581-.191,1.375-.683,1.387a.736.736,0,0,1-.377-.134,7.319,7.319,0,0,1-2.895-3.984,5.5,5.5,0,0,1-.349-1.755c-.008-1.258.612-2.421.8-3.666" transform="translate(75.416 26.112)" fill="#263238"/>
        <path id="Trazado_104592" data-name="Trazado 104592" d="M530.631,198.654c.173-.062,6.918-1.582,6.277,5.163s-7.279,4.71-7.272,4.515,1-9.677,1-9.677" transform="translate(80.689 30.236)" fill="#ffc09d"/>
        <path id="Trazado_104593" data-name="Trazado 104593" d="M531.634,205.67c.032-.018.11.093.3.2a1.188,1.188,0,0,0,.877.1,2.925,2.925,0,0,0,1.593-2.481,3.889,3.889,0,0,0-.169-1.714,1.363,1.363,0,0,0-.8-.985.6.6,0,0,0-.724.256c-.108.18-.078.319-.115.327-.021.015-.135-.127-.054-.4a.756.756,0,0,1,.307-.4.89.89,0,0,1,.666-.111,1.657,1.657,0,0,1,1.127,1.163,4,4,0,0,1,.229,1.919,3.064,3.064,0,0,1-1.991,2.749,1.264,1.264,0,0,1-1.057-.281c-.194-.186-.214-.34-.19-.35" transform="translate(80.992 30.538)" fill="#ff9b6c"/>
        <path id="Trazado_104594" data-name="Trazado 104594" d="M509.354,180.729a1.686,1.686,0,0,1-.379-.908,1.2,1.2,0,0,1,.391-.99,1.28,1.28,0,0,1,1.32-.221l.273.119-.1-.282a1.337,1.337,0,0,1,.484-1.465,1.311,1.311,0,0,1,1.672.2l.241-.189a.589.589,0,0,1-.078-.177.756.756,0,0,1,.162-.626.864.864,0,0,1,.578-.3,1.456,1.456,0,0,1,.673.088,1.807,1.807,0,0,0,.742.233c.328-.03.492-.257.666-.35a2.529,2.529,0,0,1,.551-.279,2.915,2.915,0,0,1,1.105-.156,2.975,2.975,0,0,1,1.54.513c.321.225.462.4.484.38a1.334,1.334,0,0,0-.411-.475,2.889,2.889,0,0,0-1.6-.635,3.061,3.061,0,0,0-1.2.131,2.738,2.738,0,0,0-.616.294c-.207.124-.369.3-.535.294a1.776,1.776,0,0,1-.621-.224,1.723,1.723,0,0,0-.815-.113,1.169,1.169,0,0,0-.779.407,1.056,1.056,0,0,0-.224.888.873.873,0,0,0,.126.282l.241-.189a1.555,1.555,0,0,0-2.632,1.551l.174-.162a1.492,1.492,0,0,0-1.566.3,1.4,1.4,0,0,0-.085,1.883c.122.136.211.18.217.172" transform="translate(77.516 26.691)" fill="#455a64"/>
        <path id="Trazado_104595" data-name="Trazado 104595" d="M502.688,182.422a2.088,2.088,0,0,1-.5-.894,1.513,1.513,0,0,1,.167-1.136,1.584,1.584,0,0,1,1.261-.762l.219-.01-.133-.177a1.892,1.892,0,0,1-.375-1.693,1.014,1.014,0,0,1,.665-.629.805.805,0,0,1,.885.195l.781.989-.534-1.144a1.568,1.568,0,0,1,.029-1.324,1.445,1.445,0,0,1,1.12-.8,1.532,1.532,0,0,1,1,.188l.339.2-.114-.378c-.161-.537.418-1.095.95-1.119a2.585,2.585,0,0,1,1.565.537l.278.182-.065-.323a1.119,1.119,0,0,1,.456-1.047,2.082,2.082,0,0,1,1.075-.372,5.253,5.253,0,0,1,1.935.213,8.5,8.5,0,0,1,1.578.723,1.481,1.481,0,0,0-.357-.3,5.026,5.026,0,0,0-1.17-.584,5.223,5.223,0,0,0-2-.283,2.294,2.294,0,0,0-1.211.4,1.374,1.374,0,0,0-.574,1.3l.213-.142a2.833,2.833,0,0,0-1.744-.6,1.425,1.425,0,0,0-.93.454,1.089,1.089,0,0,0-.287,1.05l.225-.176a1.828,1.828,0,0,0-1.2-.229,1.751,1.751,0,0,0-1.349.975,1.862,1.862,0,0,0-.021,1.583l.248-.156a1.091,1.091,0,0,0-1.2-.28,1.289,1.289,0,0,0-.831.809,2.118,2.118,0,0,0,.445,1.926l.086-.188a1.771,1.771,0,0,0-1.41.9,1.674,1.674,0,0,0,.272,1.958c.131.129.22.173.225.166" transform="translate(76.477 26.305)" fill="#455a64"/>
        <path id="Trazado_104596" data-name="Trazado 104596" d="M488.389,182.346a1.145,1.145,0,0,1,.463-.8,1.459,1.459,0,0,1,1.036-.275,4.32,4.32,0,0,1,1.414.466l.162.076-.008-.181a1.313,1.313,0,0,1,1.172-1.182,3.813,3.813,0,0,1,2.118.529l.914.432-.757-.67a1.079,1.079,0,0,1,.214-1.537,2.445,2.445,0,0,1,1.924-.285l.091.016.591.106-.468-.378a1.156,1.156,0,0,1,.285-1.81,1.75,1.75,0,0,1,1.924.354l.58.545-.357-.711a2.62,2.62,0,0,1,.236-2.655,2.443,2.443,0,0,1,1.888-.989,2.759,2.759,0,0,1,1.41.307c.3.16.441.289.455.273s-.025-.041-.091-.106a1.771,1.771,0,0,0-.319-.245,2.7,2.7,0,0,0-1.46-.4,2.612,2.612,0,0,0-2.073,1.019,2.855,2.855,0,0,0-.3,2.924l.222-.166a2.029,2.029,0,0,0-2.259-.416,1.47,1.47,0,0,0-.75,1.05,1.3,1.3,0,0,0,.415,1.269l.123-.272-.095-.016a2.71,2.71,0,0,0-2.166.351,1.565,1.565,0,0,0-.544.96,1.126,1.126,0,0,0,.325,1.026l.157-.237a4,4,0,0,0-2.283-.523,1.541,1.541,0,0,0-1.347,1.447l.156-.1a4.388,4.388,0,0,0-1.492-.439,1.572,1.572,0,0,0-1.124.355,1.1,1.1,0,0,0-.393.631.464.464,0,0,0,.006.259" transform="translate(74.403 26.391)" fill="#455a64"/>
        <path id="Trazado_104597" data-name="Trazado 104597" d="M496.931,168.349a.9.9,0,0,0,.388.177,5.214,5.214,0,0,0,1.175.164,3.522,3.522,0,0,1,1.677.4,1.08,1.08,0,0,1,.53.789.786.786,0,0,1-.386.864l.2.165c.1-.385.6-.59,1.058-.81a5.061,5.061,0,0,1,1.476-.491,1.844,1.844,0,0,1,1.428.347,1.225,1.225,0,0,1,.529,1.177l-.08.369.305-.225a3.4,3.4,0,0,1,2.055-.648,3.823,3.823,0,0,1,1.679.392,4.889,4.889,0,0,1,1.233.945,1.215,1.215,0,0,0-.23-.354,3.242,3.242,0,0,0-.921-.747,3.835,3.835,0,0,0-1.756-.477,3.585,3.585,0,0,0-2.231.659l.226.144a1.5,1.5,0,0,0-.625-1.473,2.137,2.137,0,0,0-1.651-.414,5.268,5.268,0,0,0-1.566.522,6.422,6.422,0,0,0-.7.369,1.112,1.112,0,0,0-.512.648l-.067.283.262-.118a1.055,1.055,0,0,0,.539-1.167,1.334,1.334,0,0,0-.666-.955,3.558,3.558,0,0,0-1.8-.372,6.624,6.624,0,0,1-1.16-.078,3.657,3.657,0,0,0-.41-.086" transform="translate(75.707 25.647)" fill="#455a64"/>
        <path id="Trazado_104598" data-name="Trazado 104598" d="M510.453,164.413a3.242,3.242,0,0,1,.788.18,1.929,1.929,0,0,1,.719.547,1.669,1.669,0,0,1,.4,1.065v.166l.16-.04a1.008,1.008,0,0,1,1.058.72,3.052,3.052,0,0,1-.085,1.684l-.144.589.413-.458.065-.071a1.3,1.3,0,0,1,1.083-.343,1.453,1.453,0,0,1,.958.519,2.305,2.305,0,0,1,.456,1.849,4.227,4.227,0,0,1-.453,1.285,2.406,2.406,0,0,0-.228.461c.016.012.145-.122.332-.4a3.778,3.778,0,0,0,.564-1.308,2.487,2.487,0,0,0-.454-2.07,1.7,1.7,0,0,0-2.478-.206c-.029.032-.058.063-.083.093l.268.131a3.252,3.252,0,0,0,.062-1.858,1.267,1.267,0,0,0-1.4-.869l.161.126a1.867,1.867,0,0,0-.5-1.2,1.979,1.979,0,0,0-.825-.549,1.617,1.617,0,0,0-.626-.091c-.145.016-.218.039-.217.051" transform="translate(77.767 25.04)" fill="#455a64"/>
        <path id="Trazado_104599" data-name="Trazado 104599" d="M521.3,174.46a.8.8,0,0,0,.408-.056,2.533,2.533,0,0,0,.974-.569,2.715,2.715,0,0,0,.826-1.467,1.392,1.392,0,0,1,.272-.812c.191-.2.574-.3.833-.635a1.532,1.532,0,0,0-.216-2.088l-.006.224a4.92,4.92,0,0,0,1.454-1.7,1.951,1.951,0,0,0,.285-.814c-.033-.013-.15.28-.431.729a5.386,5.386,0,0,1-1.47,1.551l-.154.108.149.116a1.263,1.263,0,0,1,.15,1.678c-.177.248-.52.339-.806.612a1.6,1.6,0,0,0-.339.976,2.6,2.6,0,0,1-.7,1.361,3.879,3.879,0,0,1-1.231.781" transform="translate(79.419 25.373)" fill="#455a64"/>
        <path id="Trazado_104600" data-name="Trazado 104600" d="M524.5,176.554c0,.013.085.036.251.058a3.492,3.492,0,0,0,.728,0,4.08,4.08,0,0,0,2.358-1.084l-.2-.021a2.632,2.632,0,0,0,1.709,1.1,2.747,2.747,0,0,0,1.148-.037,1.674,1.674,0,0,0,1.035-.676,3.566,3.566,0,0,0,.158-.428.606.606,0,0,1,.214-.267,1.922,1.922,0,0,1,.729-.251,2.438,2.438,0,0,0,.811-.252.87.87,0,0,0,.5-.713l-.2.118a2.7,2.7,0,0,0,1.855.2,2.926,2.926,0,0,0,1.286-.66,2.4,2.4,0,0,0,.57-.74.779.779,0,0,0,.1-.316,3.817,3.817,0,0,1-.78.928,2.875,2.875,0,0,1-1.228.562,2.5,2.5,0,0,1-1.674-.221l-.2-.1-.008.221a.594.594,0,0,1-.359.469,2.2,2.2,0,0,1-.726.212,2.142,2.142,0,0,0-.85.3.919.919,0,0,0-.322.4c-.063.158-.086.3-.143.4a1.412,1.412,0,0,1-.845.531,2.453,2.453,0,0,1-1.018.04,2.387,2.387,0,0,1-1.547-.953l-.088-.128-.109.107a4.135,4.135,0,0,1-2.2,1.121c-.6.1-.956.055-.959.09" transform="translate(79.907 26.293)" fill="#455a64"/>
        <path id="Trazado_104601" data-name="Trazado 104601" d="M547.011,187.226c.007,0,.022-.032.045-.1a1.881,1.881,0,0,0,.077-.312,3.244,3.244,0,0,0-.041-1.224,7.24,7.24,0,0,0-.673-1.78,6.626,6.626,0,0,0-.593-1.022,1.8,1.8,0,0,0-.5-.454.808.808,0,0,0-.747-.063l.181.142a2.034,2.034,0,0,0-3.152-2.048l.235.142a1.4,1.4,0,0,0-.468-1.19,1.348,1.348,0,0,0-1.286-.271,1.384,1.384,0,0,0-.637.4l.266.127a.876.876,0,0,0-.259-.744,1.2,1.2,0,0,0-.664-.346,2.76,2.76,0,0,0-1.331.221l.18.074a2.175,2.175,0,0,0-1.24-1.034,3.044,3.044,0,0,0-1.493-.128,7.7,7.7,0,0,0-2.395.946l.149.151a.539.539,0,0,0-.015-.535.933.933,0,0,0-.353-.319,1.573,1.573,0,0,0-.8-.192,4.381,4.381,0,0,0-1.245.263,4.062,4.062,0,0,0-.721.346.831.831,0,0,0-.224.167c.015.027.335-.191.984-.4a4.588,4.588,0,0,1,1.211-.2,1.413,1.413,0,0,1,.7.19c.222.124.4.36.271.576l-.194.322.343-.171a7.729,7.729,0,0,1,2.331-.879,2.808,2.808,0,0,1,1.359.13,1.9,1.9,0,0,1,1.07.9l.059.116.122-.043a2.533,2.533,0,0,1,1.186-.2c.362.052.731.4.671.741l-.093.532.359-.407a1.1,1.1,0,0,1,.494-.31,1.043,1.043,0,0,1,1,.205,1.111,1.111,0,0,1,.371.928l-.039.33.274-.188a1.8,1.8,0,0,1,2.022.023,1.819,1.819,0,0,1,.7,1.729l-.044.25.225-.108c.342-.165.716.135.95.429a6.729,6.729,0,0,1,.592.973,7.507,7.507,0,0,1,.713,1.716,4.092,4.092,0,0,1,.066,1.6" transform="translate(80.639 27.053)" fill="#455a64"/>
        <path id="Trazado_104602" data-name="Trazado 104602" d="M544.408,195.228c.008.006.067-.055.169-.181a4.646,4.646,0,0,0,.41-.581,2.174,2.174,0,0,0,.339-1.1,1.581,1.581,0,0,0-.171-.717,1.144,1.144,0,0,0-.624-.57l.049.169a1.428,1.428,0,0,0-1.332-2.313l.122.228a1.151,1.151,0,0,0,.071-1.361,1.7,1.7,0,0,0-1.248-.717,6.493,6.493,0,0,1-.681-.061.586.586,0,0,1-.391-.4,2.492,2.492,0,0,0-.338-.691,1.311,1.311,0,0,0-.683-.458,7.546,7.546,0,0,0-1.621-.179,1.767,1.767,0,0,1-1.281-.494,6.92,6.92,0,0,1-.369-.619,1.521,1.521,0,0,0-.575-.528,1.613,1.613,0,0,0-1.434-.046l.163.205a1.214,1.214,0,0,0-.045-1.419,1.715,1.715,0,0,0-1.092-.663,5.423,5.423,0,0,0-2.014.077,6.615,6.615,0,0,0-1.235.375,1.579,1.579,0,0,0-.407.207,15.842,15.842,0,0,1,1.67-.428,5.52,5.52,0,0,1,1.938-.017,1.5,1.5,0,0,1,.938.587.966.966,0,0,1,.038,1.113l-.364.451.528-.247a1.343,1.343,0,0,1,1.182.054,1.25,1.25,0,0,1,.464.433,6.142,6.142,0,0,0,.383.649,1.6,1.6,0,0,0,.69.464,3.555,3.555,0,0,0,.8.148,7.59,7.59,0,0,1,1.551.167,1.02,1.02,0,0,1,.537.354,2.292,2.292,0,0,1,.3.623.89.89,0,0,0,.592.573,5.644,5.644,0,0,0,.723.065,1.419,1.419,0,0,1,1.041.575.876.876,0,0,1-.028,1.022l-.267.292.39-.063a1.207,1.207,0,0,1,1.253.643,1.235,1.235,0,0,1-.133,1.264l-.094.12.144.05a1.163,1.163,0,0,1,.694,1.088,2.126,2.126,0,0,1-.272,1.034c-.288.534-.5.8-.476.819" transform="translate(80.774 27.83)" fill="#455a64"/>
        <path id="Trazado_104603" data-name="Trazado 104603" d="M543.848,209.851a.7.7,0,0,0,.3-.07,2.117,2.117,0,0,0,.743-.489,2.189,2.189,0,0,0,.623-1.247,2.324,2.324,0,0,0-.479-1.755v.164a4.227,4.227,0,0,0,.923-1.449,1.719,1.719,0,0,0,.013-.981,1.254,1.254,0,0,0-.657-.817l.007.271a1.774,1.774,0,0,0,.9-1.526,1.984,1.984,0,0,0-.228-1.021,1.677,1.677,0,0,0-.735-.7c-.28-.153-.4-.3-.386-.6a2.426,2.426,0,0,0-.128-.91,3.085,3.085,0,0,0-1.031-1.314c-.385-.332-.739-.644-1.078-.92a5.11,5.11,0,0,0-1.786-1.035,2.344,2.344,0,0,0-.557-.094c-.13,0-.2,0-.2.016,0,.03.271.028.717.192a5.455,5.455,0,0,1,1.684,1.087l1.049.944a2.884,2.884,0,0,1,.932,1.216,2.159,2.159,0,0,1,.1.819.877.877,0,0,0,.126.516,1.181,1.181,0,0,0,.4.338,1.584,1.584,0,0,1,.08,2.718l-.273.139.28.131a1.215,1.215,0,0,1,.5,1.443,4.087,4.087,0,0,1-.847,1.364l-.067.083.067.081a2.131,2.131,0,0,1,.47,1.567,2.073,2.073,0,0,1-.525,1.171,3.034,3.034,0,0,1-.939.66" transform="translate(82.283 29.764)" fill="#455a64"/>
        <path id="Trazado_104604" data-name="Trazado 104604" d="M521.159,185.227a2.3,2.3,0,0,0,.933-.283,2.581,2.581,0,0,0,.88-.641,1.69,1.69,0,0,0,.411-1.3,1.334,1.334,0,0,0-.1-.33l-.082.205a1.459,1.459,0,0,0,.837-.943,1.332,1.332,0,0,0-.111-1.006c-.292-.516-.681-.6-.681-.567-.029.04.295.19.494.656a1.176,1.176,0,0,1,.036.837,1.229,1.229,0,0,1-.688.74l-.141.056.058.149a.991.991,0,0,1,.071.249,1.461,1.461,0,0,1-.327,1.074,2.664,2.664,0,0,1-.76.627,4.631,4.631,0,0,0-.833.476" transform="translate(79.398 27.477)" fill="#455a64"/>
        <path id="Trazado_104605" data-name="Trazado 104605" d="M515.293,181.755a1.794,1.794,0,0,1-.119-1.133,1.266,1.266,0,0,1,.8-.893,1.37,1.37,0,0,1,1.437.351l.175.2.073-.255a2.509,2.509,0,0,1,.424-.869,1.155,1.155,0,0,1,.808-.478c.493-.025,1,.474.833.865l.282.083a2.329,2.329,0,0,1,.966-1.447,2.284,2.284,0,0,1,1.349-.39,3.535,3.535,0,0,1,1.258.34c.008-.012-.079-.106-.282-.227a2.333,2.333,0,0,0-.964-.3,2.4,2.4,0,0,0-1.5.363,2.555,2.555,0,0,0-1.117,1.6l.283.083a.857.857,0,0,0-.227-.91,1.219,1.219,0,0,0-.891-.37,1.436,1.436,0,0,0-1.036.6,2.737,2.737,0,0,0-.466.98l.247-.058a1.612,1.612,0,0,0-1.738-.389,1.445,1.445,0,0,0-.888,1.083,1.478,1.478,0,0,0,.1.91c.095.194.184.271.194.263" transform="translate(78.455 27.055)" fill="#455a64"/>
        <path id="Trazado_104606" data-name="Trazado 104606" d="M465.479,485.055,461.6,504.167l-12.78,1.2-5.381-6.338,4.925-22.819Z" transform="translate(67.557 72.55)" fill="#ffc09d"/>
        <path id="Trazado_104607" data-name="Trazado 104607" d="M444.523,494.171l-.048,1.494s-24.459,9.442-24.847,14.24l48.017,1.19-.274-16.752c-7.217,3.285-14.7,3.49-22.848-.172" transform="translate(63.93 75.286)" fill="#ff725e"/>
        <g id="Grupo_61056" data-name="Grupo 61056" transform="translate(523.934 574.763)" opacity="0.6">
          <g id="Grupo_61055" data-name="Grupo 61055">
            <g id="Grupo_61054" data-name="Grupo 61054" clip-path="url(#clip-path-8)">
              <path id="Trazado_104608" data-name="Trazado 104608" d="M457.05,498.871a2.067,2.067,0,0,1,1.3,2.377,1.878,1.878,0,0,1-2.238,1.374,2.186,2.186,0,0,1-1.368-2.526,1.93,1.93,0,0,1,2.48-1.158" transform="translate(-454.666 -498.775)" fill="#fff"/>
            </g>
          </g>
        </g>
        <path id="Trazado_104609" data-name="Trazado 104609" d="M467.7,509.39l-.066-4.029-46,.333s-2.593,1.341-2.348,3.95Z" transform="translate(63.875 76.991)" fill="#263238"/>
        <path id="Trazado_104610" data-name="Trazado 104610" d="M441.042,495.614c0,.245,1.172.386,2.308,1.2,1.156.787,1.726,1.866,1.945,1.775.217-.043-.1-1.52-1.491-2.486s-2.808-.72-2.762-.493" transform="translate(67.192 75.474)" fill="#263238"/>
        <path id="Trazado_104611" data-name="Trazado 104611" d="M436.629,497.383c-.059.236.947.68,1.72,1.738.8,1.035.978,2.163,1.211,2.158.22.044.415-1.391-.57-2.687s-2.351-1.443-2.361-1.209" transform="translate(66.519 75.761)" fill="#263238"/>
        <path id="Trazado_104612" data-name="Trazado 104612" d="M434.259,503.354c.212.058.566-1.162-.006-2.521s-1.656-1.922-1.761-1.719c-.136.2.559.937,1.013,2.061.477,1.112.521,2.149.754,2.179" transform="translate(65.887 76.033)" fill="#263238"/>
        <path id="Trazado_104613" data-name="Trazado 104613" d="M529.479,479.991c.182.625,0,24.454,0,24.454L522.31,508.9l-9.364-5.878-1.98-23.03Z" transform="translate(77.845 73.126)" fill="#ffc09d"/>
        <path id="Trazado_104614" data-name="Trazado 104614" d="M512.4,498.169s12.753,9.48,18.926,1.273l1.613,3.977,7.252,28.332a3.856,3.856,0,0,1-2.04,4.548,3.385,3.385,0,0,1-3.711-.743c-5.247-5.227-24.452-24.553-24.265-27.175l.075-6.957a3.534,3.534,0,0,1,2.149-3.255" transform="translate(77.724 75.895)" fill="#ff725e"/>
        <path id="Trazado_104615" data-name="Trazado 104615" d="M537.525,535.46l-27.359-30.529.006,1.52a4.052,4.052,0,0,0,1.3,3.353,296.463,296.463,0,0,0,22.984,25.726c.845.849,2.448.1,3.072-.07" transform="translate(77.721 76.925)" fill="#263238"/>
        <g id="Grupo_61059" data-name="Grupo 61059" transform="translate(588.811 576.986)" opacity="0.6">
          <g id="Grupo_61058" data-name="Grupo 61058">
            <g id="Grupo_61057" data-name="Grupo 61057" clip-path="url(#clip-path-9)">
              <path id="Trazado_104616" data-name="Trazado 104616" d="M514.05,501.048a2.292,2.292,0,0,1,.592,2.9,1.985,1.985,0,0,1-2.74.641,2.417,2.417,0,0,1-.612-3.076,2.052,2.052,0,0,1,2.921-.335" transform="translate(-510.966 -500.704)" fill="#fff"/>
            </g>
          </g>
        </g>
        <path id="Trazado_104617" data-name="Trazado 104617" d="M527.066,518.4c.194.1.959-1.784,2.992-2.8,2-1.082,3.9-.584,3.939-.807.03-.088-.4-.365-1.206-.479a5.252,5.252,0,0,0-3.066.581,5.581,5.581,0,0,0-2.294,2.21c-.4.739-.448,1.269-.363,1.3" transform="translate(80.292 78.348)" fill="#263238"/>
        <path id="Trazado_104618" data-name="Trazado 104618" d="M529.2,522.353c.164.154,1.257-1.016,3.026-1.556,1.759-.58,3.289-.242,3.343-.466.1-.183-1.553-.937-3.561-.288-2.013.627-2.987,2.214-2.808,2.309" transform="translate(80.619 79.188)" fill="#263238"/>
        <path id="Trazado_104619" data-name="Trazado 104619" d="M523.1,513.093c.161.169,1.836-1.64,4.516-2.73,2.665-1.135,5.068-1.023,5.075-1.262.054-.191-2.491-.679-5.353.529-2.872,1.178-4.4,3.363-4.238,3.463" transform="translate(79.692 77.521)" fill="#263238"/>
        <path id="Trazado_104620" data-name="Trazado 104620" d="M522.575,505.249c.092.214,1.981-.621,4.441-.725,2.46-.139,4.415.507,4.487.285.094-.176-1.878-1.215-4.522-1.072-2.645.119-4.516,1.346-4.407,1.512" transform="translate(79.613 76.741)" fill="#263238"/>
        <path id="Trazado_104621" data-name="Trazado 104621" d="M528.392,505.213a3.23,3.23,0,0,0-.192-1.343,9.606,9.606,0,0,0-1.636-3.293,4.027,4.027,0,0,0-2.033-1.632,1.381,1.381,0,0,0-1.5.63,2.5,2.5,0,0,0-.248,1.7,4.993,4.993,0,0,0,5.116,3.886,5.817,5.817,0,0,0,5-4.186,2.174,2.174,0,0,0-.213-1.727,1.344,1.344,0,0,0-1.557-.475,4.958,4.958,0,0,0-2,1.642,10.632,10.632,0,0,0-1.807,3.19,3.357,3.357,0,0,0-.3,1.319,16.932,16.932,0,0,1,2.5-4.137A4.609,4.609,0,0,1,531.3,499.4a.718.718,0,0,1,.85.254,1.492,1.492,0,0,1,.076,1.143,5.185,5.185,0,0,1-4.374,3.578,4.328,4.328,0,0,1-4.388-3.232,1.819,1.819,0,0,1,.124-1.192.752.752,0,0,1,.826-.361,3.626,3.626,0,0,1,1.745,1.348,14.181,14.181,0,0,1,2.237,4.279" transform="translate(79.638 75.974)" fill="#263238"/>
        <path id="Trazado_104622" data-name="Trazado 104622" d="M553.617,309.484a119.743,119.743,0,0,1,8.938,24.1c3.945,14.89,8.375,22.366,6.763,49.81-.823,14-12.405,52.016-15.073,65.393-2.2,11.01-9.063,62.746-12.544,76.42H521.757l-2.03-153.144s-31.7,89.37-35.76,99.7-18.122,51.26-18.122,51.26l-24.8-6.6s15.152-73.261,18.923-91.492,14.018-69.707,18.37-85.2,8.48-31.839,8.48-31.839Z" transform="translate(67.192 46.908)" fill="#263238"/>
        <path id="Trazado_104623" data-name="Trazado 104623" d="M536.628,332.8a2.175,2.175,0,0,0,.205.759,11.824,11.824,0,0,0,.9,1.931,16.5,16.5,0,0,0,4.619,5.159,15.6,15.6,0,0,0,6.235,2.715,10.429,10.429,0,0,0,2.042.2c.485,0,.75-.025.751-.065,0-.1-1.062-.137-2.715-.536a17.443,17.443,0,0,1-6-2.791,18.283,18.283,0,0,1-4.6-4.9c-.938-1.48-1.341-2.513-1.434-2.473" transform="translate(81.753 50.701)" fill="#455a64"/>
        <path id="Trazado_104624" data-name="Trazado 104624" d="M471.64,343.548c-.007.039.252.114.729.216a10.855,10.855,0,0,0,2.052.221,12.817,12.817,0,0,0,3.06-.306,14.129,14.129,0,0,0,3.542-1.351,17.405,17.405,0,0,0,5.208-4.568,10,10,0,0,0,1.543-2.46,28.467,28.467,0,0,0-1.839,2.194,19.6,19.6,0,0,1-5.168,4.322,14.278,14.278,0,0,1-6.348,1.76c-1.7.053-2.763-.134-2.778-.028" transform="translate(71.854 51.082)" fill="#455a64"/>
        <path id="Trazado_104625" data-name="Trazado 104625" d="M509.178,334.956a5.32,5.32,0,0,0-.217,1.235c-.106.8-.225,1.96-.342,3.4-.236,2.874-.43,6.859-.394,11.262s.3,8.386.585,11.255c.142,1.435.279,2.593.4,3.389a5.648,5.648,0,0,0,.236,1.232,5.494,5.494,0,0,0-.023-1.256q-.092-1.39-.224-3.4c-.186-2.87-.383-6.838-.422-11.226s.094-8.356.232-11.228q.1-2.01.166-3.4a5.6,5.6,0,0,0,0-1.256" transform="translate(77.426 51.03)" fill="#455a64"/>
        <path id="Trazado_104626" data-name="Trazado 104626" d="M541.051,232.745l18.06,8.613-2.518,32.932s-2.128,2.495-5.59,20.142,8.108,51.991,8.108,51.991l-84.993,2.127s9.976-71.23,11.129-80.657l4.243-36.014,17.086-.933H511.5l4.246,30.7,21.388-29.771Z" transform="translate(72.231 35.184)" fill="#455a64"/>
        <path id="Trazado_104627" data-name="Trazado 104627" d="M464.593,289.513a4.883,4.883,0,0,0,.263-1.941,13.792,13.792,0,0,0-.786-4.662,13.375,13.375,0,0,0-2.294-4.082c-.77-.913-1.361-1.347-1.4-1.3a23.427,23.427,0,0,1,3.179,5.577,24.242,24.242,0,0,1,1.041,6.4" transform="translate(70.136 42.281)" fill="#263238"/>
        <path id="Trazado_104628" data-name="Trazado 104628" d="M435.438,288.321l30.271-.264,11.45-33.811a131.815,131.815,0,0,1,5.988-11.923c6.066-11.152,13.771-10.567,13.771-10.567l9.293,14.452-9.865,22.137s-9.441,41.743-20.379,43.576c-18.164,3.046-50.672-9.509-50.672-9.509Z" transform="translate(64.793 35.307)" fill="#455a64"/>
        <g id="Grupo_61062" data-name="Grupo 61062" transform="translate(553.307 330.672)" opacity="0.2">
          <g id="Grupo_61061" data-name="Grupo 61061">
            <g id="Grupo_61060" data-name="Grupo 61060" clip-path="url(#clip-path-10)">
              <path id="Trazado_104629" data-name="Trazado 104629" d="M480.216,290.274c-.029-1.151-.315-2.633.679-3.126a3.354,3.354,0,0,1,2.573.194c25.082,8.892,39.6-1.43,64.678,7.463l5.108,25.761c-11.128.091-16.218-2.51-27.162-6.012-11.162-3.572-22.33-7.147-33.278-11.383a30.343,30.343,0,0,1-8.608-4.507,10.936,10.936,0,0,1-3.991-8.389" transform="translate(-480.156 -286.955)"/>
            </g>
          </g>
        </g>
        <path id="Trazado_104630" data-name="Trazado 104630" d="M485.837,252.859a8.685,8.685,0,0,1-.584,1.708,28.736,28.736,0,0,0-1.049,4.18c-.592,3.329-.711,6.09-.88,6.087s-.313-2.8.29-6.194a18.3,18.3,0,0,1,1.245-4.229,4.108,4.108,0,0,1,.978-1.551" transform="translate(73.612 38.522)" fill="#263238"/>
        <path id="Trazado_104631" data-name="Trazado 104631" d="M626.167,296.938l-6.938-.179.393-15.234,6.937.179a7.189,7.189,0,0,1,7,7.373l-.022.857a7.191,7.191,0,0,1-7.374,7" transform="translate(94.339 42.89)" fill="#a8bc8b"/>
        <path id="Trazado_104632" data-name="Trazado 104632" d="M356.052,276.669l61.976-6.255,232.866,5.991a4.106,4.106,0,0,1,4,4.211l-.562,21.857a4.105,4.105,0,0,1-4.21,4l-233.752-6.015-60.61-12.435Z" transform="translate(54.199 41.197)" fill="#a8bc8b"/>
        <path id="Trazado_104633" data-name="Trazado 104633" d="M357.356,278.634l-5.7-.146-4.839,1.64c-.4.3-.3.683-.028,1.095l4.869,1.586,5.583.144Z" transform="translate(52.797 42.427)" fill="#263238"/>
        <rect id="Rectángulo_5492" data-name="Rectángulo 5492" width="30.075" height="4.834" transform="matrix(0.026, -1, 1, 0.026, 471.452, 341.676)" fill="#263238"/>
        <path id="Trazado_104634" data-name="Trazado 104634" d="M632.819,277.89h0a5.354,5.354,0,0,1-5.49,5.214L511.1,280.114a5.354,5.354,0,0,1,.275-10.705L627.6,272.4a5.354,5.354,0,0,1,5.214,5.49" transform="translate(77.07 41.044)" fill="#a8bc8b"/>
        <path id="Trazado_104635" data-name="Trazado 104635" d="M632.859,277.928a6.032,6.032,0,0,0-.657-2.579,5.3,5.3,0,0,0-2.273-2.228,5.2,5.2,0,0,0-1.963-.555c-.732-.047-1.537-.039-2.375-.065l-28.516-.638-42.289-1.023-24.973-.626-13.208-.335-3.366-.085a12.253,12.253,0,0,0-3.289.129,5.053,5.053,0,0,0-.258,9.677,12.222,12.222,0,0,0,3.277.3l3.367.088,13.212.345,24.976.66,42.29,1.152,28.508.829c.839.018,1.642.068,2.376.059a5.224,5.224,0,0,0,1.988-.455,5.317,5.317,0,0,0,2.384-2.108,6.026,6.026,0,0,0,.788-2.541,4.06,4.06,0,0,1-.036.688,5.124,5.124,0,0,1-.648,1.915,5.427,5.427,0,0,1-4.47,2.707c-.759.018-1.544-.022-2.389-.031l-28.514-.638-42.292-1.024-24.977-.625-13.213-.335-3.366-.086-1.693-.043a6.173,6.173,0,0,1-1.756-.286,5.652,5.652,0,0,1,.289-10.825,6.106,6.106,0,0,1,1.768-.192l1.692.044,3.366.086,13.208.345,24.971.66,42.287,1.152,28.51.83c.844.033,1.631.033,2.388.091a5.416,5.416,0,0,1,4.325,2.933,5.151,5.151,0,0,1,.55,1.946,4.131,4.131,0,0,1,0,.689" transform="translate(77.03 41.005)" fill="#263238"/>
        <path id="Trazado_104636" data-name="Trazado 104636" d="M615.459,277.979l5.97,3.034-.445,17.274-6.136,3.443Z" transform="translate(93.671 42.35)" fill="#263238"/>
        <path id="Trazado_104637" data-name="Trazado 104637" d="M556.956,295.991l-13.192-20.327h0l-1.182-1.822,0,0-1.778-2.75,7.747-31.556s6.621,3.039,10.257,8.11c3.663,5.107,8.084,14.4,8.084,14.4s12.905,29.524,15.027,33.931,5.549,12.565,0,17.134-42.682,4.722-42.682,4.722l-2.5-18.654Z" transform="translate(81.771 36.492)" fill="#455a64"/>
        <path id="Trazado_104638" data-name="Trazado 104638" d="M540.277,267.1c.1-.02-.19-1.384-.312-3.611a28.7,28.7,0,0,1,4.236-16.6c1.173-1.9,2.08-2.956,2-3.02-.028-.025-.275.22-.7.689a18.534,18.534,0,0,0-1.633,2.12,26.06,26.06,0,0,0-4.3,16.838,18.487,18.487,0,0,0,.417,2.643,3.383,3.383,0,0,0,.283.94" transform="translate(82.187 37.153)" fill="#263238"/>
        <path id="Trazado_104639" data-name="Trazado 104639" d="M537.6,295.745a12.775,12.775,0,0,0-3.344-4.415c-2.433-2.112-7.769-3.747-8.462-5.771s-2.715-.453-2.241,2.068c.3,1.605,3.607,5.812,3.607,5.812s-3.881.973-6.464-.516-11.631-4.163-12.6-2.9c-1.094,1.431,1.275,1.907,2.291,2.484.774.438,6.785,3.42,6.785,3.42s-11.965-.408-13.471.161c-1.639.619.039,2.066.793,2.1.475.02,2.525,1.85,3.978,3.2a5.431,5.431,0,0,0,3.624,1.455l2.782.04-8.447.887s-1.46,1.336.572,2.032c.906.31,24.316,2.427,26.3,2.36,4.5-.15,10.78-.461,10.78-.461L543,295.023Z" transform="translate(76.634 43.364)" fill="#ffc09d"/>
        <path id="Trazado_104640" data-name="Trazado 104640" d="M504.12,296.528a25.286,25.286,0,0,0,11.624,2.074c0-.164-2.639-.315-5.838-.893-3.2-.563-5.734-1.336-5.786-1.181" transform="translate(76.802 45.172)" fill="#ff9b6c"/>
        <g id="Grupo_61065" data-name="Grupo 61065" transform="translate(492.607 326.908)" opacity="0.3">
          <g id="Grupo_61064" data-name="Grupo 61064">
            <g id="Grupo_61063" data-name="Grupo 61063" clip-path="url(#clip-path-11)">
              <path id="Trazado_104641" data-name="Trazado 104641" d="M427.481,283.79c2.3-.5,4.521.967,6.416,2.361a28.869,28.869,0,0,1,3.395,2.771c2.915,2.915,4.452,6.915,6.9,10.229l-13.788-2.1Z" transform="translate(-427.481 -283.689)"/>
            </g>
          </g>
        </g>
        <path id="Trazado_104642" data-name="Trazado 104642" d="M449.623,299.889l-6.026-1.255s-5.417-8.646-8.265-9.69l-1.6-.714s-2.092-4.582-4.933-4c-1.689-1.106-3.2-.664-3.366,1.023,0,0-.837-3.838-3.976-2.257s4.339,14.865,4.339,14.865,2.622,6.806,5.885,4.532c0,0,3.257.761,5.437-.456,0,0,2.019,2.842,6.792.675Z" transform="translate(64.091 43.056)" fill="#ffc09d"/>
        <path id="Trazado_104643" data-name="Trazado 104643" d="M434.438,298.1c-.029,0-.1.225-.038.642a2.861,2.861,0,0,0,.835,1.549A3.936,3.936,0,0,0,437.6,301.4a8.108,8.108,0,0,0,3.144-.341,19.78,19.78,0,0,0,5.171-2.264,6.862,6.862,0,0,0,1.844-1.435,35.912,35.912,0,0,1-7.162,3.167,8.2,8.2,0,0,1-2.941.368,3.694,3.694,0,0,1-2.154-.89,3.521,3.521,0,0,1-1.065-1.906" transform="translate(66.177 45.302)" fill="#ff9b6c"/>
        <path id="Trazado_104644" data-name="Trazado 104644" d="M430.175,297.057c.139-.1-1.667-2.7-3.217-6.263-1.574-3.552-2.271-6.646-2.437-6.608a6.571,6.571,0,0,0,.315,2.063,28.964,28.964,0,0,0,4.033,9.181,6.562,6.562,0,0,0,1.307,1.627" transform="translate(64.671 43.295)" fill="#ff9b6c"/>
        <path id="Trazado_104645" data-name="Trazado 104645" d="M433.14,296.792c.141-.083-1.384-2.8-2.868-6.318s-2.387-6.5-2.544-6.457a33.413,33.413,0,0,0,5.413,12.775" transform="translate(65.161 43.269)" fill="#ff9b6c"/>
        <path id="Trazado_104646" data-name="Trazado 104646" d="M428.412,297.772c-.15.007-.018,1.105.965,1.922s2.08.763,2.06.615c.017-.159-.887-.334-1.706-1.038-.835-.683-1.166-1.543-1.319-1.5" transform="translate(65.26 45.365)" fill="#ff9b6c"/>
        <path id="Trazado_104647" data-name="Trazado 104647" d="M436.213,294.331a93.763,93.763,0,0,0-4.039-6.634,16.181,16.181,0,0,0,4.039,6.634" transform="translate(65.838 43.83)" fill="#ff9b6c"/>
      </g>
    </g>
  </g>
</svg>
