<svg xmlns="http://www.w3.org/2000/svg" xmlns:xlink="http://www.w3.org/1999/xlink" width="400.132" height="292.205" viewBox="0 0 400.132 292.205">
  <defs>
    <clipPath id="clip-path">
      <rect id="Rectángulo_5182" data-name="Rectángulo 5182" width="400.132" height="292.205" fill="#f1f4ec"/>
    </clipPath>
  </defs>
  <g id="Grupo_78635" data-name="Grupo 78635" transform="translate(-599.934 -5125.397)">
    <g id="Grupo_78420" data-name="Grupo 78420" transform="translate(599.934 5125.397)">
      <g id="Grupo_78308" data-name="Grupo 78308" clip-path="url(#clip-path)">
        <path id="Trazado_100631" data-name="Trazado 100631" d="M400.132,51.36V277.09c0,5.593-6.354,10.164-14.112,10.164H14.1c-7.758,0-14.1-4.57-14.1-10.164V51.36C0,45.768,6.343,41.2,14.1,41.2H386.02c7.758,0,14.112,4.572,14.112,10.164" transform="translate(0 4.951)" fill="#f1f4ec"/>
      </g>
    </g>
    <path id="Trazado_160515" data-name="Trazado 160515" transform="translate(766.317 5369.329)" fill="#231f20"/>
    <g id="Grupo_78421" data-name="Grupo 78421" transform="translate(667.026 5169.633)">
      <path id="Trazado_100647" data-name="Trazado 100647" d="M258.591,77.452H69.643c-14.434,0-26.134-9.334-26.134-20.846V28.748H284.725V56.605c0,11.513-11.7,20.846-26.134,20.846" transform="translate(-31.471 -28.748)" fill="#a8bc8b"/>
      <path id="Trazado_100648" data-name="Trazado 100648" d="M275.284,28.748l12.038,10.331H275.284Z" transform="translate(-22.031 -28.748)" fill="#537e39"/>
      <path id="Trazado_100649" data-name="Trazado 100649" d="M41.047,28.748,29.009,39.079H41.047Z" transform="translate(-29.009 -28.748)" fill="#537e39"/>
    </g>
    <path id="Trazado_156537" data-name="Trazado 156537" d="M249.084,73.521A73.52,73.52,0,1,1,175.564,0a73.52,73.52,0,0,1,73.521,73.52" transform="translate(627.204 5125.398)" fill="#9aad7f"/>
    <path id="Trazado_156538" data-name="Trazado 156538" d="M232.927,70.723a60.162,60.162,0,1,1-60.162-60.162,60.161,60.161,0,0,1,60.162,60.162" transform="translate(630.001 5128.194)" fill="#fff"/>
    <path id="Trazado_160513" data-name="Trazado 160513" d="M16,0H209.132a16,16,0,0,1,16,16V59.521a16,16,0,0,1-16,16H16a16,16,0,0,1-16-16V16A16,16,0,0,1,16,0Z" transform="translate(689.868 5296.713)" fill="#a8bc8b"/>
    <path id="Trazado_160514" data-name="Trazado 160514" d="M34.255,18h-2.49V5.914h2.49Zm4.358-8.981.075,1.038a3.136,3.136,0,0,1,2.582-1.2,2.606,2.606,0,0,1,2.125.838,3.912,3.912,0,0,1,.714,2.507V18h-2.4V12.256a1.556,1.556,0,0,0-.332-1.108,1.486,1.486,0,0,0-1.1-.344,1.65,1.65,0,0,0-1.519.863V18h-2.4V9.019ZM46.582,18V10.778H45.245V9.019h1.336V8.255a3.1,3.1,0,0,1,.867-2.345,3.359,3.359,0,0,1,2.428-.834,5.608,5.608,0,0,1,1.22.166L51.072,7.1a3.058,3.058,0,0,0-.73-.075q-1.353,0-1.353,1.27v.722h1.785v1.76H48.989V18Zm10.484-6.732A6.517,6.517,0,0,0,56.2,11.2a1.757,1.757,0,0,0-1.785.921V18h-2.4V9.019h2.266l.066,1.071a2.223,2.223,0,0,1,2-1.237,2.514,2.514,0,0,1,.747.108ZM63.175,18a2.664,2.664,0,0,1-.241-.805,2.9,2.9,0,0,1-2.266.971,3.189,3.189,0,0,1-2.187-.764,2.456,2.456,0,0,1-.867-1.926,2.538,2.538,0,0,1,1.058-2.191,5.222,5.222,0,0,1,3.059-.772h1.1V12a1.48,1.48,0,0,0-.32-1,1.257,1.257,0,0,0-1.009-.374,1.429,1.429,0,0,0-.95.291.987.987,0,0,0-.344.8h-2.4a2.41,2.41,0,0,1,.481-1.444A3.182,3.182,0,0,1,59.655,9.23a4.961,4.961,0,0,1,1.976-.378,3.92,3.92,0,0,1,2.635.834,2.918,2.918,0,0,1,.975,2.345v3.893a4.294,4.294,0,0,0,.357,1.934V18Zm-1.984-1.668a2.066,2.066,0,0,0,.979-.237,1.554,1.554,0,0,0,.664-.635V13.916h-.9q-1.8,0-1.917,1.245l-.008.141a.96.96,0,0,0,.315.739A1.225,1.225,0,0,0,61.191,16.332Zm10.027,1.834A4.409,4.409,0,0,1,68,16.954a4.308,4.308,0,0,1-1.241-3.229v-.232a5.426,5.426,0,0,1,.523-2.42,3.838,3.838,0,0,1,1.482-1.644,4.159,4.159,0,0,1,2.187-.577,3.727,3.727,0,0,1,2.9,1.162,4.722,4.722,0,0,1,1.058,3.3v.979H69.193a2.229,2.229,0,0,0,.7,1.411,2.12,2.12,0,0,0,1.482.531,2.589,2.589,0,0,0,2.167-1l1.179,1.32a3.6,3.6,0,0,1-1.461,1.191A4.793,4.793,0,0,1,71.218,18.166Zm-.274-7.379a1.5,1.5,0,0,0-1.158.484,2.5,2.5,0,0,0-.569,1.384h3.337v-.192a1.786,1.786,0,0,0-.432-1.238A1.547,1.547,0,0,0,70.944,10.787Zm10.193,4.731a.773.773,0,0,0-.436-.693,4.95,4.95,0,0,0-1.4-.452q-3.2-.672-3.2-2.723a2.468,2.468,0,0,1,.992-2,4,4,0,0,1,2.594-.8,4.307,4.307,0,0,1,2.735.805,2.538,2.538,0,0,1,1.025,2.092h-2.4a1.161,1.161,0,0,0-.332-.851,1.405,1.405,0,0,0-1.038-.336,1.436,1.436,0,0,0-.938.274.865.865,0,0,0-.332.7.739.739,0,0,0,.378.643,3.885,3.885,0,0,0,1.274.423,10.407,10.407,0,0,1,1.511.4,2.482,2.482,0,0,1,1.9,2.416,2.343,2.343,0,0,1-1.054,1.988,4.548,4.548,0,0,1-2.723.76,4.75,4.75,0,0,1-2-.4,3.363,3.363,0,0,1-1.374-1.1,2.565,2.565,0,0,1-.5-1.515h2.274a1.252,1.252,0,0,0,.473.979,1.877,1.877,0,0,0,1.179.34,1.737,1.737,0,0,0,1.042-.261A.814.814,0,0,0,81.138,15.518Zm6.749-8.708V9.019h1.536v1.76H87.886v4.482a1.07,1.07,0,0,0,.191.714.959.959,0,0,0,.73.216,3.826,3.826,0,0,0,.706-.058V17.95a4.938,4.938,0,0,1-1.453.216,2.29,2.29,0,0,1-2.573-2.548V10.778H84.176V9.019h1.312V6.811Zm7.919,4.458a6.517,6.517,0,0,0-.863-.066,1.757,1.757,0,0,0-1.785.921V18h-2.4V9.019h2.266l.066,1.071a2.223,2.223,0,0,1,2-1.237,2.514,2.514,0,0,1,.747.108Zm6.533,5.819a3.008,3.008,0,0,1-2.457,1.079,2.837,2.837,0,0,1-2.2-.83A3.543,3.543,0,0,1,96.9,14.9V9.019h2.4v5.809q0,1.4,1.278,1.4a1.732,1.732,0,0,0,1.677-.848V9.019h2.407V18H102.4Zm7.869-.855a1.573,1.573,0,0,0,1.079-.365,1.28,1.28,0,0,0,.432-.971h2.25a3.077,3.077,0,0,1-.5,1.673,3.286,3.286,0,0,1-1.341,1.179,4.2,4.2,0,0,1-1.88.419,3.9,3.9,0,0,1-3.038-1.224,4.845,4.845,0,0,1-1.112-3.383V13.4a4.79,4.79,0,0,1,1.1-3.312,3.854,3.854,0,0,1,3.03-1.237,3.778,3.778,0,0,1,2.7.959,3.4,3.4,0,0,1,1.033,2.552h-2.25a1.648,1.648,0,0,0-.432-1.139,1.6,1.6,0,0,0-2.362.173,3.541,3.541,0,0,0-.427,1.983v.249a3.586,3.586,0,0,0,.423,2A1.463,1.463,0,0,0,110.207,16.232Zm8-9.421V9.019h1.536v1.76h-1.536v4.482a1.07,1.07,0,0,0,.191.714.959.959,0,0,0,.73.216,3.826,3.826,0,0,0,.706-.058V17.95a4.938,4.938,0,0,1-1.453.216,2.29,2.29,0,0,1-2.573-2.548V10.778H114.5V9.019h1.312V6.811Zm8.251,10.276A3.008,3.008,0,0,1,124,18.166a2.837,2.837,0,0,1-2.2-.83,3.543,3.543,0,0,1-.776-2.432V9.019h2.4v5.809q0,1.4,1.278,1.4a1.732,1.732,0,0,0,1.677-.848V9.019h2.407V18h-2.258Zm9.181-5.819a6.517,6.517,0,0,0-.863-.066,1.757,1.757,0,0,0-1.785.921V18h-2.4V9.019h2.266l.066,1.071a2.223,2.223,0,0,1,2-1.237,2.514,2.514,0,0,1,.747.108ZM141.75,18a2.664,2.664,0,0,1-.241-.805,2.9,2.9,0,0,1-2.266.971,3.189,3.189,0,0,1-2.187-.764,2.456,2.456,0,0,1-.867-1.926,2.538,2.538,0,0,1,1.058-2.191,5.222,5.222,0,0,1,3.059-.772h1.1V12a1.48,1.48,0,0,0-.32-1,1.257,1.257,0,0,0-1.009-.374,1.429,1.429,0,0,0-.95.291.987.987,0,0,0-.344.8h-2.4a2.41,2.41,0,0,1,.481-1.444A3.182,3.182,0,0,1,138.23,9.23a4.961,4.961,0,0,1,1.976-.378,3.92,3.92,0,0,1,2.635.834,2.918,2.918,0,0,1,.975,2.345v3.893a4.294,4.294,0,0,0,.357,1.934V18Zm-1.984-1.668a2.066,2.066,0,0,0,.979-.237,1.554,1.554,0,0,0,.664-.635V13.916h-.9q-1.8,0-1.917,1.245l-.008.141a.96.96,0,0,0,.315.739A1.225,1.225,0,0,0,139.766,16.332Z" transform="translate(714.557 5321.921)" fill="#fff"/>
    <g id="casa-de-madera" transform="translate(762.602 5153.682)">
      <path id="Trazado_156550" data-name="Trazado 156550" d="M78.913,25.12V21H2v4.12H78.91Z" transform="translate(0 7.276)"/>
      <path id="Trazado_156551" data-name="Trazado 156551" d="M3,26H7.12V69.949H3Z" transform="translate(0.373 9.143)"/>
      <path id="Trazado_156552" data-name="Trazado 156552" d="M68.082,25.528V22.781a1.373,1.373,0,0,0-.709-1.2L31,1.517V5.5L67.064,25.528Z" transform="translate(10.828 0.001)"/>
      <path id="Trazado_156553" data-name="Trazado 156553" d="M45.747,21.1v-6.21L43,13.367V21.1Z" transform="translate(15.309 4.426)"/>
      <path id="Trazado_156554" data-name="Trazado 156554" d="M39.082,5.5V1.514L2.706,21.583A1.373,1.373,0,0,0,2,22.782v2.747H3.018Z" transform="translate(0 0)"/>
      <path id="Trazado_156555" data-name="Trazado 156555" d="M17.747,21.1V13.367L15,14.893V21.1Z" transform="translate(4.854 4.426)"/>
      <path id="Trazado_156556" data-name="Trazado 156556" d="M34,55H58.721v4.12H34Z" transform="translate(11.949 19.971)"/>
      <path id="Trazado_156557" data-name="Trazado 156557" d="M58.721,26.04,34,59.757v4.628L58.721,30.668Z" transform="translate(11.949 9.158)"/>
      <path id="Trazado_156558" data-name="Trazado 156558" d="M8,55H32.721v4.12H8Z" transform="translate(2.24 19.971)"/>
      <path id="Trazado_156559" data-name="Trazado 156559" d="M32.721,59.757,8,26.04v4.628L32.721,64.385Z" transform="translate(2.24 9.158)"/>
      <path id="Trazado_156560" data-name="Trazado 156560" d="M28,26h5.494V69.949H28Z" transform="translate(9.708 9.143)"/>
      <path id="Trazado_156561" data-name="Trazado 156561" d="M19,13H49.215v4.12H19Z" transform="translate(6.348 4.289)"/>
      <path id="Trazado_156562" data-name="Trazado 156562" d="M54,26h4.12V69.949H54Z" transform="translate(19.416 9.143)"/>
    </g>
  </g>
</svg>
