<svg id="Grupo_78417" data-name="Grupo 78417" xmlns="http://www.w3.org/2000/svg" xmlns:xlink="http://www.w3.org/1999/xlink" width="399.337" height="271.848" viewBox="0 0 399.337 271.848">
  <defs>
    <clipPath id="clip-path">
      <rect id="Rectángulo_5551" data-name="Rectángulo 5551" width="399.337" height="271.848" fill="none"/>
    </clipPath>
    <clipPath id="clip-path-3">
      <rect id="Rectángulo_5544" data-name="Rectángulo 5544" width="39.709" height="41.435" fill="none"/>
    </clipPath>
    <clipPath id="clip-path-4">
      <rect id="Rectángulo_5545" data-name="Rectángulo 5545" width="9.448" height="170.404" fill="none"/>
    </clipPath>
    <clipPath id="clip-path-5">
      <rect id="Rectángulo_5547" data-name="Rectángulo 5547" width="10.836" height="4.184" fill="none"/>
    </clipPath>
    <clipPath id="clip-path-6">
      <rect id="Rectángulo_5548" data-name="Rectángulo 5548" width="10.949" height="11.285" fill="none"/>
    </clipPath>
    <clipPath id="clip-path-7">
      <rect id="Rectángulo_5549" data-name="Rectángulo 5549" width="16.819" height="8.58" fill="none"/>
    </clipPath>
  </defs>
  <g id="Grupo_78416" data-name="Grupo 78416" clip-path="url(#clip-path)">
    <g id="Grupo_78415" data-name="Grupo 78415">
      <g id="Grupo_78414" data-name="Grupo 78414" clip-path="url(#clip-path)">
        <path id="Trazado_156404" data-name="Trazado 156404" d="M398.031,140.4s28.485-30.69,27.876-58.481C439,46.561,414.632,38.741,415.544,17.84c0,0-33.94,42.215,3.013,64.548,0,0,9.162,18.876-23.824,56.443Z" transform="translate(-88.277 -3.99)" fill="#a8bc8b"/>
        <path id="Trazado_156405" data-name="Trazado 156405" d="M428.983,116.787s16.745-40.6,64.772-14.783c-18.69,6.55-26.384,30.508-55.966,7,0,0-9.974,11.2-15.6,22.976Z" transform="translate(-94.418 -20.89)" fill="#537e39"/>
        <path id="Trazado_156406" data-name="Trazado 156406" d="M90.676,256.56s-22.194-19.176-33.158-42.872a34.221,34.221,0,0,1-21.754-30.452C34.32,159.535,20.79,144.96,20.79,144.96S80.3,153.8,63.271,212.434c0,0-1.724,12.332,30.3,41.269Z" transform="translate(-4.649 -32.419)" fill="#537e39"/>
        <path id="Trazado_156407" data-name="Trazado 156407" d="M94.141,283.981s-20.7-15.946-29.492-19.412C44.265,234.54,16.1,258.41,0,258.626c0,0,25.324,23.563,60.948,9.855,0,0,16.79,5.889,39.02,24.872Z" transform="translate(0 -55.781)" fill="#a8bc8b"/>
        <path id="Trazado_156408" data-name="Trazado 156408" d="M151.643,304.481s-34.272-17.425-41.691-45.749c0,0,14.561-16.082,6.8-48.683,0,0-30.425,24.055-13.46,52.883,0,0,19.691,29.565,48.735,44.854Z" transform="translate(-21.95 -46.975)" fill="#537e39"/>
        <path id="Trazado_156409" data-name="Trazado 156409" d="M70.132,10.344a12.429,12.429,0,0,1,9.579,1.743A21.954,21.954,0,0,1,86.5,19.321c3.4,5.489,4.548,12.832,4.64,19.289-7.162-.359-13.232-6.049-16.129-9.128-4.58-4.868-9.9-16.447-4.883-19.138" transform="translate(-15.231 -2.238)" fill="#ddf5ce"/>
        <path id="Trazado_156410" data-name="Trazado 156410" d="M111.509,46.677a10.607,10.607,0,0,1-3.552-10.041,14.088,14.088,0,0,1,6.15-8.982c1.432-.961,3.2-1.717,4.849-1.215a4.535,4.535,0,0,1,2.9,3.567,9.206,9.206,0,0,1-.6,4.74c-1.858,5.206-4.611,9.9-9.752,11.931" transform="translate(-24.106 -5.877)" fill="#ddf5ce"/>
        <path id="Trazado_156411" data-name="Trazado 156411" d="M116.675,64.72a20.868,20.868,0,0,1-2.032-3.754,19.88,19.88,0,0,1-1.429-4.442,43.51,43.51,0,0,1-.887-5.624,21.223,21.223,0,0,1,1.615-10.191,15.3,15.3,0,0,1,1.591-2.715c.463-.582.746-.878.783-.849.106.076-.934,1.352-1.9,3.763a22.774,22.774,0,0,0-1.365,9.941,50.95,50.95,0,0,0,.819,5.542,21.75,21.75,0,0,0,1.247,4.374,30.742,30.742,0,0,1,1.56,3.956" transform="translate(-25.105 -8.307)" fill="#cae0bc"/>
        <path id="Trazado_156412" data-name="Trazado 156412" d="M76.937,21.338a12.345,12.345,0,0,1,1.5,1.555c.93,1.032,2.255,2.543,3.875,4.423,3.239,3.762,7.657,9.01,12.394,14.924s8.874,11.395,11.783,15.419c1.455,2.012,2.613,3.654,3.39,4.806a12.224,12.224,0,0,1,1.151,1.828,12.41,12.41,0,0,1-1.379-1.662l-3.572-4.665c-3.012-3.943-7.206-9.362-11.937-15.273L81.919,27.645l-3.7-4.57a12.375,12.375,0,0,1-1.284-1.737" transform="translate(-17.206 -4.772)" fill="#cae0bc"/>
        <path id="Trazado_156413" data-name="Trazado 156413" d="M98.672,60.3a24.815,24.815,0,0,0-22.5-2.821c-1.873.7-3.914,2.012-3.974,4.012s1.912,3.437,3.763,4.206a21.2,21.2,0,0,0,23-4.94" transform="translate(-16.147 -12.519)" fill="#ddf5ce"/>
        <path id="Trazado_156414" data-name="Trazado 156414" d="M83.775,61.387a3.465,3.465,0,0,1,1.076-.368c.7-.2,1.733-.422,3.016-.662a27.982,27.982,0,0,1,10.2-.085,17.549,17.549,0,0,1,5.3,2.023,17.1,17.1,0,0,1,5.525,5.336c.4.616.594.967.552.994-.118.085-1-1.274-2.834-3.071a18.317,18.317,0,0,0-3.577-2.682,18.042,18.042,0,0,0-5.11-1.892,31.491,31.491,0,0,0-9.982-.116,36.111,36.111,0,0,1-4.168.524" transform="translate(-18.735 -13.381)" fill="#cae0bc"/>
        <path id="Trazado_156415" data-name="Trazado 156415" d="M361.095,349.838c0,.112-73.5.2-164.138.2-90.673,0-164.153-.09-164.153-.2s73.48-.2,164.153-.2c90.641,0,164.138.09,164.138.2" transform="translate(-7.336 -78.192)" fill="#263238"/>
        <path id="Trazado_156416" data-name="Trazado 156416" d="M392.02,152.924l-25.981,25.3L342.1,223.914,315.168,275.58l-33.081-15.506-35.758-18.31L269.2,198.072l14.214-48.926c-10.042,6.664-28.685,15.738-51,11.006-24.177-5.127-12.572-96.309-12.572-96.309l26.567-.684,2.647,64.291,30.034-13.262.047.109c1.807-.807,3.389-1.525,4.229-1.983,16.607-9.059,27.507-10.157,45.323-3.8l25.707,8.538c6.606,3.116,30.961,15.106,37.627,35.868" transform="translate(-48.542 -14.125)" fill="#f1a67e"/>
        <path id="Trazado_156417" data-name="Trazado 156417" d="M320.008,119.128c.019.035-.6.341-1.611,1.061a17.8,17.8,0,0,0-3.722,3.661,26.529,26.529,0,0,0-3.669,6.821c-1.05,2.737-1.857,5.87-2.737,9.152L303.7,156.613c-.593,2.107-1.078,3.829-1.429,5.077l-.408,1.375a2.314,2.314,0,0,1-.169.472,2.4,2.4,0,0,1,.091-.494l.335-1.394c.321-1.255.764-2.989,1.305-5.11,1.151-4.348,2.72-10.274,4.455-16.821a89.524,89.524,0,0,1,2.781-9.181,26.062,26.062,0,0,1,3.79-6.863,16.889,16.889,0,0,1,3.858-3.615,11.41,11.41,0,0,1,1.241-.728,2.341,2.341,0,0,1,.46-.2" transform="translate(-67.469 -26.641)" fill="#263238"/>
        <g id="Grupo_78401" data-name="Grupo 78401" transform="translate(203.147 105.367)" opacity="0.3">
          <g id="Grupo_78400" data-name="Grupo 78400">
            <g id="Grupo_78399" data-name="Grupo 78399" clip-path="url(#clip-path-3)">
              <path id="Trazado_156418" data-name="Trazado 156418" d="M301.374,135.719c-7.428,20.11-20.788,31.358-39.709,41.434a69.669,69.669,0,0,0,31.2-11.433" transform="translate(-261.665 -135.719)"/>
            </g>
          </g>
        </g>
        <g id="Grupo_78404" data-name="Grupo 78404" transform="translate(266.517 91.052)" opacity="0.3">
          <g id="Grupo_78403" data-name="Grupo 78403">
            <g id="Grupo_78402" data-name="Grupo 78402" clip-path="url(#clip-path-4)">
              <path id="Trazado_156419" data-name="Trazado 156419" d="M343.289,117.28q4.723,75.6,9.448,151.2L343.4,287.684Z" transform="translate(-343.289 -117.28)"/>
            </g>
          </g>
        </g>
        <path id="Trazado_156420" data-name="Trazado 156420" d="M379.6,181.638c-.11.04-1.061-2.338-2.385-5.2s-2.511-5.133-2.408-5.191a6.524,6.524,0,0,1,.925,1.409c.517.9,1.186,2.172,1.851,3.612s1.2,2.775,1.547,3.753a6.5,6.5,0,0,1,.471,1.618" transform="translate(-83.82 -38.297)" fill="#fafafa"/>
        <path id="Trazado_156421" data-name="Trazado 156421" d="M405.256,170.939a45.8,45.8,0,0,1-5.047,3.384,45.877,45.877,0,0,1-5.261,3.041,91.46,91.46,0,0,1,10.309-6.425" transform="translate(-88.325 -38.227)" fill="#fafafa"/>
        <path id="Trazado_156422" data-name="Trazado 156422" d="M396.256,158.7a21.4,21.4,0,0,1-.418-4.129,21.354,21.354,0,0,1-.014-4.15,21.494,21.494,0,0,1,.418,4.129,21.4,21.4,0,0,1,.015,4.15" transform="translate(-88.503 -33.639)" fill="#fafafa"/>
        <path id="Trazado_156423" data-name="Trazado 156423" d="M421.464,157.857a46.929,46.929,0,0,1-7.407-4.574,47.077,47.077,0,0,1,7.407,4.574" transform="translate(-92.598 -34.278)" fill="#fafafa"/>
        <path id="Trazado_156424" data-name="Trazado 156424" d="M382.023,210.065a41.237,41.237,0,0,1,2.1-5.369,41.182,41.182,0,0,1,2.469-5.209,41.291,41.291,0,0,1-2.1,5.369,41.186,41.186,0,0,1-2.469,5.209" transform="translate(-85.433 -44.612)" fill="#fafafa"/>
        <path id="Trazado_156425" data-name="Trazado 156425" d="M368.925,223.4a36.457,36.457,0,0,1-3.432-6.863,36.53,36.53,0,0,1,3.432,6.863" transform="translate(-81.736 -48.426)" fill="#fafafa"/>
        <path id="Trazado_156426" data-name="Trazado 156426" d="M377.706,241.871a18.743,18.743,0,0,1-8.106,1.143c0-.118,1.83-.206,4.06-.524s4.015-.732,4.046-.619" transform="translate(-82.657 -54.087)" fill="#fafafa"/>
        <path id="Trazado_156427" data-name="Trazado 156427" d="M393.035,221.7a39.776,39.776,0,0,1,3.124-7.379,39.775,39.775,0,0,1-3.124,7.379" transform="translate(-87.895 -47.931)" fill="#fafafa"/>
        <path id="Trazado_156428" data-name="Trazado 156428" d="M359.8,260.07c-.1.066-1.239-1.512-2.809-3.319s-2.963-3.168-2.883-3.255a21.095,21.095,0,0,1,5.692,6.574" transform="translate(-79.191 -56.69)" fill="#fafafa"/>
        <path id="Trazado_156429" data-name="Trazado 156429" d="M354.443,220.961a47.76,47.76,0,0,1-4.411,7.6,47.922,47.922,0,0,1,4.411-7.6" transform="translate(-78.279 -49.415)" fill="#fafafa"/>
        <path id="Trazado_156430" data-name="Trazado 156430" d="M357.321,206.189a48.661,48.661,0,0,1-8.576-2.214,48.619,48.619,0,0,1,8.576,2.214" transform="translate(-77.992 -45.613)" fill="#fafafa"/>
        <path id="Trazado_156431" data-name="Trazado 156431" d="M359.555,177.859a26.581,26.581,0,0,1,2.3,3.164,26.587,26.587,0,0,1,2.159,3.261,24.112,24.112,0,0,1-4.457-6.424" transform="translate(-80.408 -39.776)" fill="#fafafa"/>
        <path id="Trazado_156432" data-name="Trazado 156432" d="M348.717,176.44a34.59,34.59,0,0,1-5.637,4.9,34.586,34.586,0,0,1,5.637-4.9" transform="translate(-76.725 -39.457)" fill="#fafafa"/>
        <path id="Trazado_156433" data-name="Trazado 156433" d="M355.764,159.094a25.431,25.431,0,0,1-6.431-7.554c.1-.066,1.376,1.753,3.152,3.831s3.36,3.635,3.279,3.723" transform="translate(-78.123 -33.89)" fill="#fafafa"/>
        <path id="Trazado_156434" data-name="Trazado 156434" d="M380.648,156.6a52.652,52.652,0,0,1-8.824,2.695,52.652,52.652,0,0,1,8.824-2.695" transform="translate(-83.154 -35.017)" fill="#fafafa"/>
        <path id="Trazado_156435" data-name="Trazado 156435" d="M346.9,129.982c-.121-.007-.068-1.782-.343-3.94s-.753-3.867-.637-3.9a14.406,14.406,0,0,1,.981,7.844" transform="translate(-77.356 -27.315)" fill="#fafafa"/>
        <path id="Trazado_156436" data-name="Trazado 156436" d="M320.92,204.749a15,15,0,0,1-1.829,1.349c-1.146.8-2.714,1.934-4.395,3.25s-3.151,2.571-4.206,3.491a14.966,14.966,0,0,1-1.746,1.454,11,11,0,0,1,1.553-1.665,55.39,55.39,0,0,1,8.636-6.769,11.011,11.011,0,0,1,1.987-1.11" transform="translate(-69.046 -45.789)" fill="#fafafa"/>
        <path id="Trazado_156437" data-name="Trazado 156437" d="M321.231,194.247c-.1.061-1.408-1.972-3.213-4.336s-3.408-4.173-3.322-4.254a5.636,5.636,0,0,1,1.169,1.079,37.677,37.677,0,0,1,4.637,6.1,5.683,5.683,0,0,1,.728,1.415" transform="translate(-70.377 -41.519)" fill="#fafafa"/>
        <path id="Trazado_156438" data-name="Trazado 156438" d="M327.015,165.115a46.851,46.851,0,0,1-7.611,4.2,46.936,46.936,0,0,1,7.611-4.2" transform="translate(-71.431 -36.924)" fill="#fafafa"/>
        <path id="Trazado_156439" data-name="Trazado 156439" d="M321.081,148.765a6.081,6.081,0,0,1-1.331-1.048,29.3,29.3,0,0,1-5.17-6.3,6.084,6.084,0,0,1-.768-1.51c.106-.063,1.433,2.145,3.445,4.586s3.906,4.183,3.824,4.275" transform="translate(-70.179 -31.288)" fill="#fafafa"/>
        <path id="Trazado_156440" data-name="Trazado 156440" d="M333.554,149.121a16.955,16.955,0,0,1,1.428-3.4,16.893,16.893,0,0,1,1.793-3.22,16.934,16.934,0,0,1-1.429,3.4,16.917,16.917,0,0,1-1.792,3.22" transform="translate(-74.593 -31.869)" fill="#fafafa"/>
        <path id="Trazado_156441" data-name="Trazado 156441" d="M330.309,132.2c-.126-.005.015-2.413-.45-5.324-.446-2.914-1.313-5.164-1.195-5.207a5.086,5.086,0,0,1,.658,1.439,20.723,20.723,0,0,1,1.175,7.519,5.088,5.088,0,0,1-.188,1.572" transform="translate(-73.499 -27.21)" fill="#fafafa"/>
        <path id="Trazado_156442" data-name="Trazado 156442" d="M333.231,210.471a15.349,15.349,0,0,1,.03-2.272c.048-1.4.089-3.331.036-5.465s-.19-4.063-.308-5.458a15.257,15.257,0,0,1-.144-2.268,10.9,10.9,0,0,1,.428,2.237,51.7,51.7,0,0,1,.273,10.971,10.8,10.8,0,0,1-.315,2.255" transform="translate(-74.433 -43.611)" fill="#fafafa"/>
        <path id="Trazado_156443" data-name="Trazado 156443" d="M329.693,238.406a20.27,20.27,0,0,0-7.413-4.728,11.336,11.336,0,0,1,7.413,4.728" transform="translate(-72.074 -52.256)" fill="#fafafa"/>
        <path id="Trazado_156444" data-name="Trazado 156444" d="M341.217,255.177a92.332,92.332,0,0,1-10.85,5.615,92.486,92.486,0,0,1,10.85-5.615" transform="translate(-73.883 -57.066)" fill="#fafafa"/>
        <path id="Trazado_156445" data-name="Trazado 156445" d="M306.953,259.061a50.026,50.026,0,0,1-3.926-5,50.018,50.018,0,0,1-3.6-5.236,100.016,100.016,0,0,1,7.527,10.232" transform="translate(-66.962 -55.647)" fill="#fafafa"/>
        <path id="Trazado_156446" data-name="Trazado 156446" d="M298.189,230.442a5.876,5.876,0,0,1-.172-1.593c-.045-.987-.054-2.353.015-3.859s.206-2.866.342-3.844a5.833,5.833,0,0,1,.319-1.571c.116.015-.122,2.438-.257,5.433s-.129,5.43-.246,5.434" transform="translate(-66.64 -49.105)" fill="#fafafa"/>
        <path id="Trazado_156447" data-name="Trazado 156447" d="M283.983,280a81.254,81.254,0,0,1-8.812-7.328A81.5,81.5,0,0,1,283.983,280" transform="translate(-61.538 -60.979)" fill="#fafafa"/>
        <path id="Trazado_156448" data-name="Trazado 156448" d="M293.449,277.117a46.02,46.02,0,0,1-.344-6.084,45.96,45.96,0,0,1,.061-6.094,46.182,46.182,0,0,1,.344,6.084,46.127,46.127,0,0,1-.061,6.093" transform="translate(-65.539 -59.251)" fill="#fafafa"/>
        <path id="Trazado_156449" data-name="Trazado 156449" d="M302.343,309.9c-.026.061-.969-.324-2.529-.821a36.412,36.412,0,0,0-12.6-1.721c-1.636.061-2.647.179-2.656.113a2.465,2.465,0,0,1,.7-.165c.454-.084,1.117-.167,1.94-.234a30.456,30.456,0,0,1,12.705,1.736c.775.286,1.392.543,1.807.746a2.473,2.473,0,0,1,.63.346" transform="translate(-63.639 -68.652)" fill="#fafafa"/>
        <path id="Trazado_156450" data-name="Trazado 156450" d="M318.917,316.232a9.409,9.409,0,0,1,1.748,1.21,43.671,43.671,0,0,1,7.243,7.243,9.472,9.472,0,0,1,1.21,1.748,13.281,13.281,0,0,1-1.431-1.566c-.859-.984-2.067-2.322-3.474-3.731s-2.747-2.615-3.731-3.474a13.493,13.493,0,0,1-1.566-1.43" transform="translate(-71.321 -70.721)" fill="#fafafa"/>
        <path id="Trazado_156451" data-name="Trazado 156451" d="M322.85,261.484a60.676,60.676,0,0,1-3.647-9.2,60.756,60.756,0,0,1,3.647,9.2" transform="translate(-71.383 -56.419)" fill="#fafafa"/>
        <path id="Trazado_156452" data-name="Trazado 156452" d="M280.891,162.784a6.265,6.265,0,0,1-1.188,1.295,26.329,26.329,0,0,1-7.033,4.688,6.285,6.285,0,0,1-1.652.6c-.05-.115,2.411-1.168,5.134-3,2.734-1.81,4.652-3.678,4.739-3.587" transform="translate(-60.61 -36.404)" fill="#fafafa"/>
        <path id="Trazado_156453" data-name="Trazado 156453" d="M286.262,150.2a14.933,14.933,0,0,1-.038-3.465,15.008,15.008,0,0,1,.365-3.446,14.964,14.964,0,0,1,.039,3.466,14.987,14.987,0,0,1-.366,3.445" transform="translate(-63.997 -32.044)" fill="#fafafa"/>
        <path id="Trazado_156454" data-name="Trazado 156454" d="M264.08,160.044a46.647,46.647,0,0,1-7.9-3.62,46.806,46.806,0,0,1,7.9,3.62" transform="translate(-57.292 -34.98)" fill="#fafafa"/>
        <path id="Trazado_156455" data-name="Trazado 156455" d="M301.932,145.059a22.962,22.962,0,0,1,.126-4.293,23,23,0,0,1,.529-4.263,22.879,22.879,0,0,1-.126,4.293,23.008,23.008,0,0,1-.529,4.263" transform="translate(-67.511 -30.527)" fill="#fafafa"/>
        <path id="Trazado_156456" data-name="Trazado 156456" d="M253.387,180.861a18.889,18.889,0,0,1-8.227-4.936c.08-.092,1.73,1.3,4,2.652s4.268,2.17,4.224,2.284" transform="translate(-54.827 -39.342)" fill="#fafafa"/>
        <path id="Trazado_156457" data-name="Trazado 156457" d="M238.93,161.937a32.736,32.736,0,0,1-3.306,3.921,32.694,32.694,0,0,1-3.605,3.649,32.668,32.668,0,0,1,3.307-3.921,32.676,32.676,0,0,1,3.6-3.648" transform="translate(-51.888 -36.215)" fill="#fafafa"/>
        <path id="Trazado_156458" data-name="Trazado 156458" d="M237.753,142.287a15.715,15.715,0,0,1-6.582-4.936c.088-.083,1.389,1.228,3.2,2.583s3.432,2.246,3.377,2.353" transform="translate(-51.698 -30.716)" fill="#fafafa"/>
        <path id="Trazado_156459" data-name="Trazado 156459" d="M229.28,147.524a19.517,19.517,0,0,1-3.62,4.279,19.525,19.525,0,0,1,3.62-4.279" transform="translate(-50.465 -32.991)" fill="#fafafa"/>
        <path id="Trazado_156460" data-name="Trazado 156460" d="M248.5,113.685a31.574,31.574,0,0,1-3.033,4.025,31.566,31.566,0,0,1-3.347,3.769,31.577,31.577,0,0,1,3.034-4.025,31.627,31.627,0,0,1,3.346-3.768" transform="translate(-54.145 -25.424)" fill="#fafafa"/>
        <path id="Trazado_156461" data-name="Trazado 156461" d="M231.354,115.461a28.394,28.394,0,0,1-3.3-3.466,28.378,28.378,0,0,1-3-3.733,28.509,28.509,0,0,1,3.3,3.467,28.5,28.5,0,0,1,3,3.732" transform="translate(-50.33 -24.211)" fill="#fafafa"/>
        <path id="Trazado_156462" data-name="Trazado 156462" d="M240.518,93.64a23.523,23.523,0,0,1-2.314-3.685,23.519,23.519,0,0,1-1.963-3.885,23.5,23.5,0,0,1,2.314,3.686,23.525,23.525,0,0,1,1.962,3.884" transform="translate(-52.831 -19.248)" fill="#fafafa"/>
        <path id="Trazado_156463" data-name="Trazado 156463" d="M241.326,79.635c-.1-.076,1.064-1.549,1.988-3.639.941-2.082,1.264-3.93,1.387-3.907a9.53,9.53,0,0,1-1.018,4.073,9.529,9.529,0,0,1-2.357,3.473" transform="translate(-53.968 -16.122)" fill="#fafafa"/>
        <path id="Trazado_156464" data-name="Trazado 156464" d="M224.8,78.5a9.026,9.026,0,0,1,.956-4.751,11.392,11.392,0,0,1,1.9-2.887,3.731,3.731,0,0,1,1.078-.939,22.652,22.652,0,0,0-2.607,4A22.715,22.715,0,0,0,224.8,78.5" transform="translate(-50.261 -15.637)" fill="#fafafa"/>
        <path id="Trazado_156465" data-name="Trazado 156465" d="M368.9,49.995a49.252,49.252,0,0,1-.117-9.691,16.512,16.512,0,0,1,3.573-8.873,10.014,10.014,0,0,1,8.588-3.614c1.982.257,3.862,1.236,5.86,1.177,2.311-.068,4.322-1.494,6.425-2.455a16.847,16.847,0,0,1,10.59-1.1,10.043,10.043,0,0,1,5.009,2.528,5.625,5.625,0,0,1,1.623,5.19,26.753,26.753,0,0,1,6.952.61,9,9,0,0,1,5.583,3.916,5.5,5.5,0,0,1-.581,6.483,4.466,4.466,0,0,1,4.936,3.365,5.755,5.755,0,0,1-2.328,5.778,10.754,10.754,0,0,1-7.257,1.46,15.611,15.611,0,0,1-6.389-2.348" transform="translate(-82.43 -5.599)" fill="#263238"/>
        <path id="Trazado_156466" data-name="Trazado 156466" d="M363.194,127.2h0a16.753,16.753,0,0,0,20.368-11.941c1.313-4.972,2.38-9.139,2.38-9.139s12.977,2.223,17.268-10.057S414.867,54.75,414.867,54.75a45.206,45.206,0,0,0-44.878-9.042l-2.3.793-16.483,60.033A16.755,16.755,0,0,0,363.194,127.2" transform="translate(-78.408 -9.669)" fill="#b78876"/>
        <path id="Trazado_156467" data-name="Trazado 156467" d="M392.035,121.141a30.247,30.247,0,0,1-14.542-9.965s.821,10.149,13.5,13.169Z" transform="translate(-84.422 -24.863)" fill="#aa6550"/>
        <path id="Trazado_156468" data-name="Trazado 156468" d="M365.98,64.057c-.179-.161-7.631-5.35-10.191,3.171s6.521,9.333,6.61,9.094,3.581-12.264,3.581-12.264" transform="translate(-79.466 -13.943)" fill="#b78876"/>
        <path id="Trazado_156469" data-name="Trazado 156469" d="M361.444,73.083c-.03-.039-.18.059-.465.1a1.549,1.549,0,0,1-1.116-.311c-.8-.6-1.13-2.258-.709-3.806a5.114,5.114,0,0,1,1.053-2,1.792,1.792,0,0,1,1.459-.8.79.79,0,0,1,.754.671c.043.272-.063.426-.022.454.017.029.226-.088.263-.46a.987.987,0,0,0-.175-.634,1.17,1.17,0,0,0-.755-.464,2.178,2.178,0,0,0-1.947.856,5.251,5.251,0,0,0-1.228,2.22c-.462,1.733-.065,3.6,1.059,4.33a1.662,1.662,0,0,0,1.425.182c.327-.131.429-.308.4-.332" transform="translate(-80.144 -14.715)" fill="#aa6550"/>
        <path id="Trazado_156470" data-name="Trazado 156470" d="M418.858,80.278a1.857,1.857,0,0,1-2.294,1.206,1.777,1.777,0,0,1-1.283-2.2,1.859,1.859,0,0,1,2.293-1.208,1.778,1.778,0,0,1,1.283,2.2" transform="translate(-92.857 -17.446)" fill="#263238"/>
        <path id="Trazado_156471" data-name="Trazado 156471" d="M420.877,78.456c-.295.156-1.3-1.279-3.195-1.91-1.886-.658-3.6-.149-3.731-.45-.066-.137.3-.477,1.049-.714a5.094,5.094,0,0,1,3.082.077,4.891,4.891,0,0,1,2.446,1.807c.432.643.491,1.124.349,1.191" transform="translate(-92.573 -16.813)" fill="#263238"/>
        <path id="Trazado_156472" data-name="Trazado 156472" d="M394.867,72.225a1.858,1.858,0,0,1-2.294,1.206,1.777,1.777,0,0,1-1.283-2.2,1.858,1.858,0,0,1,2.293-1.208,1.777,1.777,0,0,1,1.283,2.2" transform="translate(-87.492 -15.645)" fill="#263238"/>
        <path id="Trazado_156473" data-name="Trazado 156473" d="M396.733,70.858c-.3.156-1.3-1.279-3.2-1.91-1.885-.658-3.6-.15-3.731-.451-.066-.136.293-.477,1.05-.713a5.1,5.1,0,0,1,3.081.076,4.9,4.9,0,0,1,2.447,1.807c.431.642.49,1.124.349,1.191" transform="translate(-87.174 -15.114)" fill="#263238"/>
        <path id="Trazado_156474" data-name="Trazado 156474" d="M401.512,88.244a13.222,13.222,0,0,1,3.263.478c.5.112.991.17,1.184-.134a2.6,2.6,0,0,0,.158-1.542q-.091-1.986-.194-4.165c-.226-5.913-.217-10.709.022-10.716s.615,4.78.842,10.693q.065,2.181.126,4.167a2.952,2.952,0,0,1-.386,1.983,1.283,1.283,0,0,1-1.033.441,3.537,3.537,0,0,1-.86-.161,12.975,12.975,0,0,1-3.12-1.043" transform="translate(-89.793 -16.139)" fill="#263238"/>
        <path id="Trazado_156475" data-name="Trazado 156475" d="M393.516,92.151c.314.085-.373,2.144.9,4.195s3.536,2.56,3.455,2.852c-.014.139-.622.235-1.556-.05a5.4,5.4,0,0,1-2.924-2.265,4.707,4.707,0,0,1-.621-3.473c.21-.886.611-1.318.748-1.259" transform="translate(-87.814 -20.607)" fill="#263238"/>
        <path id="Trazado_156476" data-name="Trazado 156476" d="M421.588,73.842c-.478.318-1.633-.566-3.2-1.114-1.543-.6-3-.684-3.15-1.237-.061-.264.293-.625,1.011-.837a4.9,4.9,0,0,1,5.114,1.894c.406.628.439,1.133.222,1.293" transform="translate(-92.862 -15.768)" fill="#263238"/>
        <path id="Trazado_156477" data-name="Trazado 156477" d="M396.417,60.746c-.29.16-.745-.1-1.333-.432a12.493,12.493,0,0,0-4.644-1.731c-.665-.131-1.175-.234-1.29-.546-.11-.286.254-.767,1.1-1.087a5.248,5.248,0,0,1,6.053,2.255c.428.793.388,1.4.118,1.54" transform="translate(-87.024 -12.679)" fill="#263238"/>
        <path id="Trazado_156478" data-name="Trazado 156478" d="M417.74,57.937a30.539,30.539,0,0,1-17.68-6.952c-5.575-4.565-12.556-7.761-14.459-6.864s-3.713,7.3-10.371,7.775c0,0-2.377,12.458-7.205,10.9s2.6-20,2.6-20l13.392-3.151,13.721.5,12.326,2.8,10.66,6.123Z" transform="translate(-81.939 -8.865)" fill="#263238"/>
        <rect id="Rectángulo_5546" data-name="Rectángulo 5546" width="174.315" height="271.443" transform="translate(92.316 0.203)" fill="#fafafa"/>
        <path id="Trazado_156479" data-name="Trazado 156479" d="M293.166,271.646c0-1.671-.077-111.909-.186-271.443l.186.186L118.872.4h-.021l.2-.2c-.016,102.69-.03,197.259-.042,271.443l-.16-.16,174.315.16-174.315.16h-.16v-.16c-.012-74.185-.026-168.753-.043-271.443V0h.224L293.166.016h.186V.2c-.109,159.535-.186,269.773-.186,271.443" transform="translate(-26.534)" fill="#263238"/>
        <path id="Trazado_156480" data-name="Trazado 156480" d="M171.852,67.617h-22.3a2.79,2.79,0,0,1-2.79-2.791V33.955a2.79,2.79,0,0,1,2.79-2.791h14.145l10.95,11.285V64.826a2.791,2.791,0,0,1-2.791,2.791" transform="translate(-32.821 -6.969)" fill="#f1a67e"/>
        <path id="Trazado_156481" data-name="Trazado 156481" d="M168.573,31.164v8.688a2.6,2.6,0,0,0,2.6,2.6h8.354Z" transform="translate(-37.699 -6.969)" fill="#ff4f5b"/>
        <g id="Grupo_78407" data-name="Grupo 78407" transform="translate(130.987 33.645)" opacity="0.2">
          <g id="Grupo_78406" data-name="Grupo 78406">
            <g id="Grupo_78405" data-name="Grupo 78405" clip-path="url(#clip-path-5)">
              <path id="Trazado_156482" data-name="Trazado 156482" d="M168.719,43.337a2.886,2.886,0,0,0,2.289,2.8,2.756,2.756,0,0,0,.275.061c1.091.195,8.272,1.473,8.272,1.307V45.172H171.2s-2.086-.071-2.481-1.835" transform="translate(-168.719 -43.337)"/>
            </g>
          </g>
        </g>
        <g id="Grupo_78410" data-name="Grupo 78410" transform="translate(130.874 24.195)" opacity="0.3">
          <g id="Grupo_78409" data-name="Grupo 78409">
            <g id="Grupo_78408" data-name="Grupo 78408" clip-path="url(#clip-path-6)">
              <path id="Trazado_156483" data-name="Trazado 156483" d="M168.573,31.164v8.688a2.6,2.6,0,0,0,2.6,2.6h8.354Z" transform="translate(-168.573 -31.164)" fill="#c38c71"/>
            </g>
          </g>
        </g>
        <path id="Trazado_156484" data-name="Trazado 156484" d="M163.192,41.84a33.092,33.092,0,0,1-5.159.2,33.1,33.1,0,0,1-5.16-.2,33.1,33.1,0,0,1,5.16-.2,33.093,33.093,0,0,1,5.159.2" transform="translate(-34.188 -9.312)" fill="#fafafa"/>
        <path id="Trazado_156485" data-name="Trazado 156485" d="M169.855,48.167c0,.112-3.8.2-8.491.2s-8.492-.09-8.492-.2,3.8-.2,8.492-.2,8.491.09,8.491.2" transform="translate(-34.188 -10.727)" fill="#fafafa"/>
        <path id="Trazado_156486" data-name="Trazado 156486" d="M171.384,53.451c0,.112-4.144.2-9.256.2s-9.257-.09-9.257-.2,4.143-.2,9.257-.2,9.256.09,9.256.2" transform="translate(-34.188 -11.908)" fill="#fafafa"/>
        <path id="Trazado_156487" data-name="Trazado 156487" d="M171.384,58.436c0,.112-4.144.2-9.256.2s-9.257-.09-9.257-.2,4.143-.2,9.257-.2,9.256.09,9.256.2" transform="translate(-34.188 -13.023)" fill="#fafafa"/>
        <path id="Trazado_156488" data-name="Trazado 156488" d="M171.384,63.421c0,.112-4.144.2-9.256.2s-9.257-.09-9.257-.2,4.143-.2,9.257-.2,9.256.09,9.256.2" transform="translate(-34.188 -14.138)" fill="#fafafa"/>
        <path id="Trazado_156489" data-name="Trazado 156489" d="M171.384,68.406c0,.112-4.144.2-9.256.2s-9.257-.09-9.257-.2,4.143-.2,9.257-.2,9.256.09,9.256.2" transform="translate(-34.188 -15.253)" fill="#fafafa"/>
        <path id="Trazado_156490" data-name="Trazado 156490" d="M328.465,249.7h-.914a1.033,1.033,0,0,1-1.033-1.033V22.815a1.033,1.033,0,0,1,1.033-1.033h.914a1.033,1.033,0,0,1,1.033,1.033V248.663a1.033,1.033,0,0,1-1.033,1.033" transform="translate(-73.022 -4.871)" fill="#e0e0e0"/>
        <path id="Trazado_156491" data-name="Trazado 156491" d="M328.465,139.281h-.914a1.033,1.033,0,0,1-1.033-1.033V22.815a1.033,1.033,0,0,1,1.033-1.033h.914a1.033,1.033,0,0,1,1.033,1.033V138.248a1.033,1.033,0,0,1-1.033,1.033" transform="translate(-73.022 -4.871)" fill="#f1a67e"/>
        <path id="Trazado_156492" data-name="Trazado 156492" d="M271.063,132.221c0,.112-26.792.2-59.834.2s-59.84-.09-59.84-.2,26.786-.2,59.84-.2,59.834.09,59.834.2" transform="translate(-33.856 -29.524)" fill="#263238"/>
        <path id="Trazado_156493" data-name="Trazado 156493" d="M271.063,143.886c0,.112-26.792.2-59.834.2s-59.84-.09-59.84-.2,26.786-.2,59.84-.2,59.834.09,59.834.2" transform="translate(-33.856 -32.133)" fill="#263238"/>
        <path id="Trazado_156494" data-name="Trazado 156494" d="M271.063,155.551c0,.112-26.792.2-59.834.2s-59.84-.09-59.84-.2,26.786-.2,59.84-.2,59.834.09,59.834.2" transform="translate(-33.856 -34.742)" fill="#263238"/>
        <path id="Trazado_156495" data-name="Trazado 156495" d="M271.063,167.217c0,.112-26.792.2-59.834.2s-59.84-.09-59.84-.2,26.786-.2,59.84-.2,59.834.09,59.834.2" transform="translate(-33.856 -37.351)" fill="#263238"/>
        <path id="Trazado_156496" data-name="Trazado 156496" d="M271.063,178.882c0,.112-26.792.2-59.834.2s-59.84-.09-59.84-.2,26.786-.2,59.84-.2,59.834.09,59.834.2" transform="translate(-33.856 -39.96)" fill="#263238"/>
        <path id="Trazado_156497" data-name="Trazado 156497" d="M271.063,190.547c0,.112-26.792.2-59.834.2s-59.84-.09-59.84-.2,26.786-.2,59.84-.2,59.834.09,59.834.2" transform="translate(-33.856 -42.568)" fill="#263238"/>
        <path id="Trazado_156498" data-name="Trazado 156498" d="M272.935,199.173c0,.112-26.793.2-59.835.2s-59.84-.09-59.84-.2,26.785-.2,59.84-.2,59.835.09,59.835.2" transform="translate(-34.275 -44.497)" fill="#263238"/>
        <path id="Trazado_156499" data-name="Trazado 156499" d="M272.935,210.838c0,.112-26.793.2-59.835.2s-59.84-.09-59.84-.2,26.785-.2,59.84-.2,59.835.09,59.835.2" transform="translate(-34.275 -47.106)" fill="#263238"/>
        <path id="Trazado_156500" data-name="Trazado 156500" d="M272.935,222.5c0,.112-26.793.2-59.835.2s-59.84-.09-59.84-.2,26.785-.2,59.84-.2,59.835.09,59.835.2" transform="translate(-34.275 -49.715)" fill="#263238"/>
        <path id="Trazado_156501" data-name="Trazado 156501" d="M272.935,99.453c0,.112-26.793.2-59.835.2s-59.84-.09-59.84-.2,26.785-.2,59.84-.2,59.835.09,59.835.2" transform="translate(-34.275 -22.196)" fill="#263238"/>
        <path id="Trazado_156502" data-name="Trazado 156502" d="M272.935,111.118c0,.112-26.793.2-59.835.2s-59.84-.09-59.84-.2,26.785-.2,59.84-.2,59.835.09,59.835.2" transform="translate(-34.275 -24.805)" fill="#263238"/>
        <path id="Trazado_156503" data-name="Trazado 156503" d="M272.935,122.784c0,.112-26.793.2-59.835.2s-59.84-.09-59.84-.2,26.785-.2,59.84-.2,59.835.09,59.835.2" transform="translate(-34.275 -27.414)" fill="#263238"/>
        <path id="Trazado_156504" data-name="Trazado 156504" d="M271.063,234.857c0,.112-26.792.2-59.834.2s-59.84-.09-59.84-.2,26.786-.2,59.84-.2,59.834.09,59.834.2" transform="translate(-33.856 -52.478)" fill="#263238"/>
        <path id="Trazado_156505" data-name="Trazado 156505" d="M271.063,244.833c0,.112-26.792.2-59.834.2s-59.84-.09-59.84-.2,26.786-.2,59.84-.2,59.834.09,59.834.2" transform="translate(-33.856 -54.709)" fill="#e0e0e0"/>
        <path id="Trazado_156506" data-name="Trazado 156506" d="M271.063,254.809c0,.112-26.792.2-59.834.2s-59.84-.09-59.84-.2,26.786-.2,59.84-.2,59.834.09,59.834.2" transform="translate(-33.856 -56.94)" fill="#ebebeb"/>
        <path id="Trazado_156507" data-name="Trazado 156507" d="M261.073,300.211h-3.116l-.644,1.466h-.863l2.655-5.863h.828l2.664,5.863h-.88Zm-.293-.67-1.265-2.873-1.265,2.873Z" transform="translate(-57.352 -66.155)" fill="#fff"/>
        <path id="Trazado_156508" data-name="Trazado 156508" d="M264.752,299.856a2.218,2.218,0,0,1,2.345-2.262,1.981,1.981,0,0,1,1.809.946l-.612.394a1.383,1.383,0,0,0-1.206-.637,1.563,1.563,0,0,0,0,3.124,1.383,1.383,0,0,0,1.206-.637l.612.385a1.987,1.987,0,0,1-1.809.955,2.224,2.224,0,0,1-2.345-2.269" transform="translate(-59.209 -66.553)" fill="#fff"/>
        <path id="Trazado_156509" data-name="Trazado 156509" d="M270.823,299.856a2.218,2.218,0,0,1,2.345-2.262,1.981,1.981,0,0,1,1.809.946l-.611.394a1.385,1.385,0,0,0-1.206-.637,1.563,1.563,0,0,0,0,3.124,1.385,1.385,0,0,0,1.206-.637l.611.385a1.987,1.987,0,0,1-1.809.955,2.224,2.224,0,0,1-2.345-2.269" transform="translate(-60.566 -66.553)" fill="#fff"/>
        <path id="Trazado_156510" data-name="Trazado 156510" d="M281.3,300.123h-3.6a1.5,1.5,0,0,0,1.608,1.3,1.662,1.662,0,0,0,1.283-.536l.443.519a2.42,2.42,0,0,1-4.137-1.55,2.174,2.174,0,0,1,2.227-2.262,2.141,2.141,0,0,1,2.195,2.287c0,.067-.009.168-.016.242m-3.6-.578h2.848a1.433,1.433,0,0,0-2.848,0" transform="translate(-61.924 -66.553)" fill="#fff"/>
        <path id="Trazado_156511" data-name="Trazado 156511" d="M288.619,299.856a2.157,2.157,0,0,1-2.245,2.269,1.9,1.9,0,0,1-1.549-.72V303.7h-.8v-6.063h.771v.7a1.889,1.889,0,0,1,1.582-.745,2.155,2.155,0,0,1,2.245,2.262m-.813,0a1.5,1.5,0,1,0-1.5,1.566,1.467,1.467,0,0,0,1.5-1.566" transform="translate(-63.518 -66.553)" fill="#fff"/>
        <path id="Trazado_156512" data-name="Trazado 156512" d="M293.687,301.548a1.512,1.512,0,0,1-.971.309,1.266,1.266,0,0,1-1.407-1.39V298.03h-.754v-.662h.754V296.4h.8v.971h1.273v.662h-1.273v2.4a.654.654,0,0,0,.695.746,1.012,1.012,0,0,0,.629-.21Z" transform="translate(-64.979 -66.286)" fill="#fff"/>
        <path id="Trazado_156513" data-name="Trazado 156513" d="M335.585,299.438l9.038-4.352L339.659,280.4l-10.917-2.529c-1.019-.226-2.148-.5-3.414-.851a13.807,13.807,0,0,1-4.133-1.945,21.066,21.066,0,0,1-4.334-3.673c-1.03-1.406-3.223-.882-3.217.679s2.752,5.5,7.648,8.285-3.758,4.132-6.9,4.68-12.778,2.695-13.35,3.789c-.838,1.6.765,2.831,3.89,2.211,3.163-.627,12.642-1.821,12.894-.157l-.029.046a6.805,6.805,0,0,0,.414,7.913c1.749,2.2,4.382,4.954,6.32,4.536,3.651-.789,11.058-3.949,11.058-3.949" transform="translate(-67.275 -60.514)" fill="#b78876"/>
        <path id="Trazado_156514" data-name="Trazado 156514" d="M344.891,252.863,353.36,281.5l65.766-19.984A26.36,26.36,0,0,0,436.5,228.062l-16.126-50.171-35.019,8.694L404.578,233Z" transform="translate(-77.131 -39.783)" fill="#f1a67e"/>
        <path id="Trazado_156515" data-name="Trazado 156515" d="M420.535,266.264s-.106.043-.318.113l-.946.3-3.678,1.143-13.808,4.225-47.87,14.521-.178.054-.06-.177c-2.931-8.752-5.77-18.383-9.053-28.27l-.064-.192.192-.064,1.654-.55L404.453,238.1l-.1.214c-4.632-11.261-8.426-20.487-11.069-26.911l-3.024-7.418-.78-1.944c-.173-.439-.252-.67-.252-.67s.108.218.3.651.465,1.09.823,1.927l3.1,7.384,11.2,26.858.066.159-.164.054-58.019,19.354-1.654.55.128-.256c3.286,9.9,6.118,19.529,9.034,28.276l-.238-.123,47.912-14.383,13.839-4.119,3.7-1.083.955-.271c.216-.059.328-.082.328-.082" transform="translate(-77.057 -45.033)" fill="#263238"/>
        <path id="Trazado_156516" data-name="Trazado 156516" d="M433.819,257.231c-.062.036-.5-.724-1.38-1.817a17.815,17.815,0,0,0-8.966-5.948c-1.349-.385-2.219-.494-2.21-.564a1.867,1.867,0,0,1,.62.01,11.132,11.132,0,0,1,1.663.278,15.986,15.986,0,0,1,9.121,6.05,11.147,11.147,0,0,1,.9,1.424,1.83,1.83,0,0,1,.25.567" transform="translate(-94.21 -55.66)" fill="#263238"/>
        <path id="Trazado_156517" data-name="Trazado 156517" d="M416.843,189.781a22.5,22.5,0,0,1-.2-4.248,22.5,22.5,0,0,1,.2-4.248,22.5,22.5,0,0,1,.2,4.248,22.5,22.5,0,0,1-.2,4.248" transform="translate(-93.177 -40.542)" fill="#fafafa"/>
        <path id="Trazado_156518" data-name="Trazado 156518" d="M433.2,190.722a23.1,23.1,0,0,1-1.428-4.07,23.236,23.236,0,0,1-1.041-4.186,23.091,23.091,0,0,1,1.429,4.07,23.141,23.141,0,0,1,1.041,4.186" transform="translate(-96.324 -40.806)" fill="#fafafa"/>
        <path id="Trazado_156519" data-name="Trazado 156519" d="M421.149,207.8a14.691,14.691,0,0,1-7.679-2.254c.054-.108,1.681.658,3.8,1.272s3.894.862,3.882.981" transform="translate(-92.467 -45.965)" fill="#fafafa"/>
        <path id="Trazado_156520" data-name="Trazado 156520" d="M442.593,214.584a41.269,41.269,0,0,1,1.391-8.046,41.407,41.407,0,0,1-1.391,8.046" transform="translate(-98.974 -46.19)" fill="#fafafa"/>
        <path id="Trazado_156521" data-name="Trazado 156521" d="M434.712,228.467a43.517,43.517,0,0,1-3.486-7.625,43.522,43.522,0,0,1,3.486,7.625" transform="translate(-96.436 -49.389)" fill="#fafafa"/>
        <path id="Trazado_156522" data-name="Trazado 156522" d="M430.828,241.724a39.518,39.518,0,0,1-7.189-3.485,39.515,39.515,0,0,1,7.189,3.485" transform="translate(-94.741 -53.277)" fill="#fafafa"/>
        <path id="Trazado_156523" data-name="Trazado 156523" d="M453.661,239.522a30.51,30.51,0,0,1-1.477,3.56,30.456,30.456,0,0,1-1.554,3.528,20.666,20.666,0,0,1,3.032-7.087" transform="translate(-100.775 -53.566)" fill="#fafafa"/>
        <path id="Trazado_156524" data-name="Trazado 156524" d="M448.259,266.052a47.45,47.45,0,0,1-.861-8.715,47.653,47.653,0,0,1,.861,8.715" transform="translate(-100.045 -57.55)" fill="#fafafa"/>
        <path id="Trazado_156525" data-name="Trazado 156525" d="M431.545,276.175a39.772,39.772,0,0,1-5.9-5.424,39.772,39.772,0,0,1,5.9,5.424" transform="translate(-95.189 -60.549)" fill="#fafafa"/>
        <path id="Trazado_156526" data-name="Trazado 156526" d="M405.376,280.37a45.613,45.613,0,0,1-5.079,6.921,45.755,45.755,0,0,1,5.079-6.921" transform="translate(-89.52 -62.701)" fill="#fafafa"/>
        <path id="Trazado_156527" data-name="Trazado 156527" d="M413.584,266.235a20.34,20.34,0,0,1-5.664-6.1c.095-.069,1.251,1.391,2.814,3.067s2.927,2.943,2.851,3.033" transform="translate(-91.225 -58.176)" fill="#fafafa"/>
        <path id="Trazado_156528" data-name="Trazado 156528" d="M393.538,270.672a8.033,8.033,0,0,1-6.1-.444c.04-.114,1.356.307,3.036.422s3.042-.1,3.064.022" transform="translate(-86.645 -60.429)" fill="#fafafa"/>
        <path id="Trazado_156529" data-name="Trazado 156529" d="M382.348,290.74A29,29,0,0,1,381.191,284a28.991,28.991,0,0,1,1.157,6.742" transform="translate(-85.241 -63.513)" fill="#fafafa"/>
        <path id="Trazado_156530" data-name="Trazado 156530" d="M365.621,298.843A50.284,50.284,0,0,1,358,294.036a50.291,50.291,0,0,1,7.616,4.807" transform="translate(-80.063 -65.756)" fill="#fafafa"/>
        <path id="Trazado_156531" data-name="Trazado 156531" d="M371.806,273.6c.086.079-1.04,1.413-2.3,3.153s-2.177,3.222-2.279,3.165a18.585,18.585,0,0,1,4.575-6.318" transform="translate(-82.125 -61.188)" fill="#fafafa"/>
        <path id="Trazado_156532" data-name="Trazado 156532" d="M360.365,278.024a14.781,14.781,0,0,1-4.357-2.178,14.754,14.754,0,0,1,4.357,2.178" transform="translate(-79.617 -61.686)" fill="#fafafa"/>
        <g id="Grupo_78413" data-name="Grupo 78413" transform="translate(326.895 191.536)" opacity="0.2">
          <g id="Grupo_78412" data-name="Grupo 78412">
            <g id="Grupo_78411" data-name="Grupo 78411" clip-path="url(#clip-path-7)">
              <path id="Trazado_156533" data-name="Trazado 156533" d="M421.06,247.211c3.514.362,7.028.724,10.533,1.165a12.932,12.932,0,0,1,3.567.807,4.533,4.533,0,0,1,2.55,2.494,2.791,2.791,0,0,1-.974,3.251,3.245,3.245,0,0,1-3.184-.137,17.018,17.018,0,0,1-2.62-2.059,14.562,14.562,0,0,0-5.39-2.818,9.282,9.282,0,0,1-2.575-.9,2.223,2.223,0,0,1-1.117-2.3" transform="translate(-421.06 -246.709)"/>
            </g>
          </g>
        </g>
      </g>
    </g>
  </g>
</svg>
