<svg xmlns="http://www.w3.org/2000/svg" xmlns:xlink="http://www.w3.org/1999/xlink" width="400.132" height="292.205" viewBox="0 0 400.132 292.205">
  <defs>
    <clipPath id="clip-path">
      <rect id="Rectángulo_5182" data-name="Rectángulo 5182" width="400.132" height="292.205" fill="none"/>
    </clipPath>
  </defs>
  <g id="Grupo_78634" data-name="Grupo 78634" transform="translate(-180 -5125.397)">
    <g id="Grupo_78418" data-name="Grupo 78418" transform="translate(180 5125.397)">
      <g id="Grupo_78308" data-name="Grupo 78308" clip-path="url(#clip-path)">
        <path id="Trazado_100631" data-name="Trazado 100631" d="M400.132,51.36V277.09c0,5.593-6.354,10.164-14.112,10.164H14.1c-7.758,0-14.1-4.57-14.1-10.164V51.36C0,45.768,6.343,41.2,14.1,41.2H386.02c7.758,0,14.112,4.572,14.112,10.164" transform="translate(0 4.951)" fill="#fdf2ec"/>
      </g>
    </g>
    <path id="Trazado_160512" data-name="Trazado 160512" transform="translate(346.151 5369.329)" fill="#231f20"/>
    <g id="Grupo_78419" data-name="Grupo 78419" transform="translate(250.623 5169.633)">
      <path id="Trazado_100647" data-name="Trazado 100647" d="M258.591,77.452H69.643c-14.434,0-26.134-9.334-26.134-20.846V28.748H284.725V56.605c0,11.513-11.7,20.846-26.134,20.846" transform="translate(-31.471 -28.748)" fill="#a8bc8b"/>
      <path id="Trazado_100648" data-name="Trazado 100648" d="M275.284,28.748l12.038,10.331H275.284Z" transform="translate(-22.031 -28.748)" fill="#537e39"/>
      <path id="Trazado_100649" data-name="Trazado 100649" d="M41.047,28.748,29.009,39.079H41.047Z" transform="translate(-29.009 -28.748)" fill="#537e39"/>
    </g>
    <path id="Trazado_156534" data-name="Trazado 156534" d="M249.084,73.521A73.52,73.52,0,1,1,175.564,0a73.52,73.52,0,0,1,73.521,73.52" transform="translate(207.037 5125.398)" fill="#a8bc8b"/>
    <path id="Trazado_156535" data-name="Trazado 156535" d="M232.927,70.723a60.162,60.162,0,1,1-60.162-60.162,60.161,60.161,0,0,1,60.162,60.162" transform="translate(210.408 5128.194)" fill="#fff"/>
    <path id="Trazado_160510" data-name="Trazado 160510" d="M16,0H213a16,16,0,0,1,16,16V55a16,16,0,0,1-16,16H16A16,16,0,0,1,0,55V16A16,16,0,0,1,16,0Z" transform="translate(265 5296.713)" fill="#a8bc8b"/>
    <path id="Trazado_160511" data-name="Trazado 160511" d="M63.926,5.914l3.1,8.766,3.088-8.766h3.271V18h-2.5V14.7l.249-5.7L67.877,18h-1.71L62.913,9l.249,5.694V18h-2.49V5.914ZM77.938,18H75.53V9.019h2.407ZM75.389,6.694a1.181,1.181,0,0,1,.361-.888,1.556,1.556,0,0,1,1.963,0,1.175,1.175,0,0,1,.365.888,1.178,1.178,0,0,1-.369.9,1.539,1.539,0,0,1-1.951,0A1.178,1.178,0,0,1,75.389,6.694Zm6.732,2.324.075,1.038a3.136,3.136,0,0,1,2.582-1.2,2.606,2.606,0,0,1,2.125.838,3.912,3.912,0,0,1,.714,2.507V18h-2.4V12.256a1.556,1.556,0,0,0-.332-1.108,1.486,1.486,0,0,0-1.1-.344,1.65,1.65,0,0,0-1.519.863V18h-2.4V9.019Zm11.447,9.147a4.409,4.409,0,0,1-3.217-1.212,4.308,4.308,0,0,1-1.241-3.229v-.232a5.426,5.426,0,0,1,.523-2.42,3.838,3.838,0,0,1,1.482-1.644A4.159,4.159,0,0,1,93.3,8.853a3.727,3.727,0,0,1,2.9,1.162,4.722,4.722,0,0,1,1.058,3.3v.979H91.542a2.229,2.229,0,0,0,.7,1.411,2.12,2.12,0,0,0,1.482.531,2.589,2.589,0,0,0,2.167-1l1.179,1.32a3.6,3.6,0,0,1-1.461,1.191A4.793,4.793,0,0,1,93.568,18.166Zm-.274-7.379a1.5,1.5,0,0,0-1.158.484,2.5,2.5,0,0,0-.569,1.384H94.9v-.192a1.786,1.786,0,0,0-.432-1.238A1.547,1.547,0,0,0,93.294,10.787Zm10.376.481a6.517,6.517,0,0,0-.863-.066,1.757,1.757,0,0,0-1.785.921V18h-2.4V9.019h2.266l.066,1.071a2.223,2.223,0,0,1,2-1.237,2.514,2.514,0,0,1,.747.108ZM107.414,18h-2.4V9.019h2.4Zm-.706-12.625h2.615l-2.3,2.573h-1.951ZM114.685,18a2.664,2.664,0,0,1-.241-.805,2.9,2.9,0,0,1-2.266.971,3.189,3.189,0,0,1-2.187-.764,2.456,2.456,0,0,1-.867-1.926,2.538,2.538,0,0,1,1.058-2.191,5.222,5.222,0,0,1,3.059-.772h1.1V12a1.48,1.48,0,0,0-.32-1,1.257,1.257,0,0,0-1.009-.374,1.429,1.429,0,0,0-.95.291.987.987,0,0,0-.344.8h-2.4a2.41,2.41,0,0,1,.481-1.444,3.182,3.182,0,0,1,1.361-1.042,4.961,4.961,0,0,1,1.976-.378,3.92,3.92,0,0,1,2.635.834,2.918,2.918,0,0,1,.975,2.345v3.893a4.294,4.294,0,0,0,.357,1.934V18ZM112.7,16.332a2.066,2.066,0,0,0,.979-.237,1.554,1.554,0,0,0,.664-.635V13.916h-.9q-1.8,0-1.917,1.245l-.008.141a.96.96,0,0,0,.315.739A1.225,1.225,0,0,0,112.7,16.332Z" transform="translate(290.623 5318.854)" fill="#fff"/>
    <g id="mineria" transform="translate(340.778 5156.461)">
      <path id="Trazado_156542" data-name="Trazado 156542" d="M52.077,206.144a4.669,4.669,0,0,0-4.312-2.862H43.027a4.707,4.707,0,0,0-3.321,1.383l-.507.511a1.361,1.361,0,0,1-2.216-.42l-5.362-12.45a4.675,4.675,0,0,0-4.3-2.828H18.848l-7.634-17.3a4.679,4.679,0,0,0-4.28-2.789H2.158a1.659,1.659,0,1,0,0,3.317H6.933a1.361,1.361,0,0,1,1.245.812l7.07,16.018a6.912,6.912,0,0,0-5.491,4.209l-2.875,6.9a1.659,1.659,0,0,0,3.062,1.275l2.875-6.9a3.608,3.608,0,0,1,3.34-2.227H27.324a1.36,1.36,0,0,1,1.25.823l5.362,12.45a4.678,4.678,0,0,0,7.618,1.445l.507-.511a1.372,1.372,0,0,1,.967-.4h4.738a1.358,1.358,0,0,1,1.254.833L56.5,225.2a1.658,1.658,0,1,0,3.057-1.288Zm0,0" transform="translate(0 -141.297)"/>
      <path id="Trazado_156543" data-name="Trazado 156543" d="M181.145,50.717l-2.332-2.331c-.029-.029-.058-.056-.089-.083l-.163-.141a1.658,1.658,0,1,0-2.167,2.511l.117.1,2.288,2.288a2.046,2.046,0,0,1,0,2.891l-4.732,4.732a2.046,2.046,0,0,1-2.892,0l-1.164-1.162,3.495-3.512a1.659,1.659,0,1,0-2.351-2.34l-3.4,3.417L140.373,25.3l3.038-3.037,21.684,18.68a1.658,1.658,0,0,0,2.165-2.513l-21.5-18.519L162.8,2.872a1.659,1.659,0,0,0-1-2.823,27.119,27.119,0,0,0-8.612.919,38.785,38.785,0,0,0-16.845,9.4l-.672-.672a1.66,1.66,0,0,0-2.346,0l-5.364,5.365a1.658,1.658,0,0,0,0,2.345l.672.672a38.779,38.779,0,0,0-9.4,16.845,27.165,27.165,0,0,0-.919,8.612,1.659,1.659,0,0,0,2.823,1l16.885-16.885,28.39,32.961c.027.031.055.062.085.091l2.335,2.33a5.369,5.369,0,0,0,7.582,0l4.732-4.733a5.368,5.368,0,0,0,0-7.583ZM153.84,4.223a29.69,29.69,0,0,1,3.614-.7L143.476,17.5l-4.793-4.792A35.483,35.483,0,0,1,153.84,4.223Zm-19.348,8.987.648.648,0,0,5.988,5.988-3.018,3.019-5.989-5.988-.65-.65Zm-3.519,7.211,4.793,4.793L121.789,39.19a34.207,34.207,0,0,1,9.184-18.77Zm0,0" transform="translate(-98.232)"/>
      <path id="Trazado_156544" data-name="Trazado 156544" d="M40.346,92.311a1.658,1.658,0,0,0,2.985-.952l.332-13.049a1.658,1.658,0,0,0-2.145-1.627L33.3,79.209a1.658,1.658,0,0,0-.84,2.58ZM40.288,80.53,40.136,86.5l-3.611-4.816Zm0,0" transform="translate(-26.38 -63.904)"/>
      <path id="Trazado_156545" data-name="Trazado 156545" d="M203.122,217.851a1.658,1.658,0,0,0-2.57-.779l-9.266,7.033a1.658,1.658,0,0,0,1,2.98h11.7a1.658,1.658,0,0,0,1.567-2.2Zm-5.905,5.917,3.519-2.671.923,2.671Zm0,0" transform="translate(-158.597 -180.789)"/>
      <path id="Trazado_156546" data-name="Trazado 156546" d="M29.325,397.307a1.659,1.659,0,1,0-.658,2.043,1.675,1.675,0,0,0,.658-2.043Zm0,0" transform="translate(-21.385 -330.559)"/>
      <path id="Trazado_156547" data-name="Trazado 156547" d="M431.975,261.459a1.658,1.658,0,1,0,.658-2.043A1.676,1.676,0,0,0,431.975,261.459Zm0,0" transform="translate(-359.811 -216.187)"/>
      <path id="Trazado_156548" data-name="Trazado 156548" d="M217.206,303.153a1.659,1.659,0,0,0,.977,2.132l8.49,3.156a1.659,1.659,0,1,0,1.156-3.109l-8.49-3.155A1.658,1.658,0,0,0,217.206,303.153Zm0,0" transform="translate(-180.678 -251.973)"/>
      <path id="Trazado_156549" data-name="Trazado 156549" d="M124.2,65.116a1.656,1.656,0,0,0,1.97-1.273l1.5-7a1.659,1.659,0,0,0-3.243-.7l-1.5,7A1.658,1.658,0,0,0,124.2,65.116Zm0,0" transform="translate(-102.093 -45.744)"/>
    </g>
  </g>
</svg>
