<svg id="Grupo_78465" data-name="Grupo 78465" xmlns="http://www.w3.org/2000/svg" xmlns:xlink="http://www.w3.org/1999/xlink" width="276.279" height="195.038" viewBox="0 0 276.279 195.038">
  <defs>
    <clipPath id="clip-path">
      <rect id="Rectángulo_5649" data-name="Rectángulo 5649" width="276.279" height="195.038" fill="none"/>
    </clipPath>
  </defs>
  <g id="Grupo_78464" data-name="Grupo 78464" transform="translate(0 0)" clip-path="url(#clip-path)">
    <path id="Trazado_159843" data-name="Trazado 159843" d="M276.277,176.253v.043c-.074,6.049-5.564,8.818-15.68,8.818H15.569c-10.241,0-15.324-3.3-15.56-8.939h0v-.039c-.01-.251-.01-.507,0-.768v-8.16h0a14.384,14.384,0,0,1,1.047-5.573L55.435,16.248c1.2-3.208.935-5.727,5.935-5.727H214.8c5,0,5.525,4.532,6.294,6.588l54.018,144.527a15.92,15.92,0,0,1,1.166,5.727Z" transform="translate(0 9.924)" fill="#666" fill-rule="evenodd"/>
    <path id="Trazado_159844" data-name="Trazado 159844" d="M61.369,10.521H214.8c5,0,5.527,4.534,6.294,6.59l54.018,144.525c3.749,10.027-1.636,14.514-14.514,14.514H15.571c-13.261,0-17.876-5.525-14.514-14.514L55.435,16.248c1.2-3.208.937-5.727,5.935-5.727" transform="translate(0 9.924)" fill="#848484" fill-rule="evenodd"/>
    <path id="Trazado_159845" data-name="Trazado 159845" d="M55.43,10.521H195.462L6.3,131.743,49.5,16.248c1.2-3.208.937-5.727,5.935-5.727" transform="translate(5.94 9.924)" fill="#a5a5a5" fill-rule="evenodd"/>
    <path id="Trazado_159846" data-name="Trazado 159846" d="M56.577,13.145H194.925l42.654,136.744H13.406Z" transform="translate(12.645 12.399)" fill="#fff" fill-rule="evenodd"/>
    <path id="Trazado_159847" data-name="Trazado 159847" d="M56.631,13.533H193.87L236.054,148.77H13.935Z" transform="translate(13.145 12.765)" fill="#848484" fill-rule="evenodd"/>
    <path id="Trazado_159848" data-name="Trazado 159848" d="M56.631,13.533H193.87L236.054,148.77H13.935Z" transform="translate(13.145 12.765)" fill="#fff" fill-rule="evenodd"/>
    <path id="Trazado_159849" data-name="Trazado 159849" d="M56.631,13.533H193.87L236.054,148.77H13.935Z" transform="translate(13.145 12.765)" fill="#e4ddd7" fill-rule="evenodd"/>
    <path id="Trazado_159850" data-name="Trazado 159850" d="M115.73,20.513c-1.113,5.76-2.38,11.514-3.918,17.237-2.859,10.639-6.555,21.191-10.548,31.78,2.26.624,4.483,1.246,6.743,1.867a324.682,324.682,0,0,0,10.247-32.722q.705-2.9,1.327-5.816Z" transform="translate(95.517 19.349)" fill="#fff" fill-rule="evenodd"/>
    <path id="Trazado_159851" data-name="Trazado 159851" d="M110.829,44.144c3.531,6.937,10.515,19.4,27.027,32.753l2.907,9.32c-3.086-2.031-5.923-4.056-8.537-6.053C114.558,65.8,107.4,52.49,103.822,45.1q3.448-.475,7.007-.954" transform="translate(97.93 41.639)" fill="#fff"/>
    <path id="Trazado_159852" data-name="Trazado 159852" d="M201.81,35.285a447.753,447.753,0,0,1-46.362,30.221c-39.007,22.1-85.035,41.85-135.952,62.746H33.381c47.761-19.87,91.1-38.69,128.132-59.665a453.25,453.25,0,0,0,42.219-27.141Z" transform="translate(18.39 33.282)" fill="#fff" fill-rule="evenodd"/>
    <path id="Trazado_159853" data-name="Trazado 159853" d="M128.56,148.769Q121.6,114.835,114.608,80.9q-6.9-33.667-13.774-67.369h-5.41C99.5,36,103.5,58.459,107.563,80.9q6.145,33.947,12.307,67.868Z" transform="translate(90.009 12.765)" fill="#fff" fill-rule="evenodd"/>
    <path id="Trazado_159854" data-name="Trazado 159854" d="M200.853,43.37H27.224l-1.518,4.8H202.351Z" transform="translate(24.247 40.909)" fill="#fff" fill-rule="evenodd"/>
    <path id="Trazado_159855" data-name="Trazado 159855" d="M109.956,37.333c10.624,0,20.927,6.337,22.981,14.133S127.21,65.6,115.457,65.6,93.324,59.263,92.4,51.466s6.932-14.133,17.555-14.133" transform="translate(87.087 35.214)" fill="#fff" fill-rule="evenodd"/>
    <path id="Trazado_159856" data-name="Trazado 159856" d="M107.642,39.708c7.289,0,14.221,4.26,15.484,9.518s-3.993,9.518-11.792,9.518-14.749-4.26-15.521-9.518,4.539-9.518,11.829-9.518" transform="translate(90.305 37.454)" fill="#8ec63f" fill-rule="evenodd"/>
    <path id="Trazado_159857" data-name="Trazado 159857" d="M121.013,72.127c1.319-1.318,2.674-2.633,3.993-3.964C110.654,64.113,96.622,60.1,83.077,56c-13.2-4-25.995-8.131-38.426-12.2-1.545,1.331-3.166,2.649-4.784,3.964,12.544,4.065,25.488,8.2,38.84,12.194,13.7,4.1,27.841,8.117,42.306,12.167" transform="translate(37.604 41.316)" fill="#fff" fill-rule="evenodd"/>
    <path id="Trazado_159858" data-name="Trazado 159858" d="M20.46,69.871c14.481-3.579,28.647-7.223,42.5-10.826-.641-1.477-1.207-2.952-1.809-4.442C48.379,57.955,35.369,61.346,22.1,64.681Z" transform="translate(19.299 51.504)" fill="#fff" fill-rule="evenodd"/>
    <path id="Trazado_159859" data-name="Trazado 159859" d="M55.732,89.558c1.883-1.316,3.729-2.633,5.575-3.964Q39.618,76.936,19.5,68.277l-1.805,5.715q18.346,7.783,38.037,15.565" transform="translate(16.691 64.402)" fill="#fff" fill-rule="evenodd"/>
    <path id="Trazado_159860" data-name="Trazado 159860" d="M19.182,75.736c.49,1.49,1.055,2.965,1.658,4.44q25.712-6.9,50.217-13.8c-.754-1.477-1.432-2.952-2.11-4.442q-24.24,6.9-49.765,13.8" transform="translate(18.093 58.42)" fill="#fff" fill-rule="evenodd"/>
    <path id="Trazado_159861" data-name="Trazado 159861" d="M23.93,54.907q8.611-1.154,17.143-2.311c.187-1.592.375-3.183.6-4.775q-8.063,1.113-16.211,2.223Z" transform="translate(22.572 45.108)" fill="#fff" fill-rule="evenodd"/>
    <path id="Trazado_159862" data-name="Trazado 159862" d="M26.955,61.506c.34,1.49.754,2.965,1.092,4.44C38.181,59.64,47.932,53.4,57.244,47c9.036-6.215,17.592-12.645,25.843-18.966-.529-1.475-1.018-2.95-1.508-4.44-8.175,6.321-16.7,12.744-25.655,18.964-9.2,6.393-18.949,12.643-28.97,18.951" transform="translate(25.425 22.252)" fill="#fff" fill-rule="evenodd"/>
    <path id="Trazado_159863" data-name="Trazado 159863" d="M53.478,39.693c1.846-1.4,3.729-2.822,5.612-4.238q-14.128-2.3-27.891-4.6L29.63,35.822c7.849,1.292,15.779,2.579,23.848,3.871" transform="translate(27.948 29.108)" fill="#fff" fill-rule="evenodd"/>
    <path id="Trazado_159864" data-name="Trazado 159864" d="M33.581,27.844c5.826-4.769,11.461-9.557,16.943-14.31H44.811q-4.5,3.821-9.133,7.668Z" transform="translate(31.675 12.766)" fill="#fff" fill-rule="evenodd"/>
    <path id="Trazado_159865" data-name="Trazado 159865" d="M37.42,44.59c1.959-1.419,3.956-2.835,5.952-4.254q-7.235-1.227-14.38-2.46L27.4,42.909q4.984.842,10.016,1.681" transform="translate(25.849 35.726)" fill="#fff" fill-rule="evenodd"/>
    <path id="Trazado_159866" data-name="Trazado 159866" d="M64.061,38.127c1.621.752,3.239,1.5,4.86,2.243C79.31,31.428,88.929,22.487,97.877,13.533H91.109q-12.618,12.3-27.048,24.594" transform="translate(60.425 12.765)" fill="#fff" fill-rule="evenodd"/>
    <path id="Trazado_159867" data-name="Trazado 159867" d="M91.811,37.594c-.076-1.78-.152-3.558-.152-5.338H47.093c-2.674,1.78-5.424,3.558-8.1,5.338Z" transform="translate(36.781 30.425)" fill="#fff" fill-rule="evenodd"/>
    <path id="Trazado_159868" data-name="Trazado 159868" d="M137.793,39.075c-.113-1.807-.188-3.616-.3-5.424q-18.253-.35-36.391-.709c-12.093-.231-24.149-.478-36.242-.723-.377,1.807-.828,3.616-1.2,5.424,12.318.247,24.6.492,36.957.723,12.394.231,24.751.478,37.182.709" transform="translate(60.042 30.39)" fill="#fff" fill-rule="evenodd"/>
    <path id="Trazado_159869" data-name="Trazado 159869" d="M71.97,55.322c2.485-.319,5.049-.637,7.534-.954-.15-6.685-.225-13.381-.338-20.08-2.375.521-4.71,1.028-7.083,1.533-.037,6.51-.113,13.006-.113,19.5" transform="translate(67.886 32.342)" fill="#fff" fill-rule="evenodd"/>
    <path id="Trazado_159870" data-name="Trazado 159870" d="M85.283,55.039c2.485-.319,4.973-.635,7.5-.954-.754-6.683-1.432-13.381-2.11-20.08-2.3.521-4.633,1.028-6.932,1.533.49,6.51.979,13.006,1.545,19.5" transform="translate(78.986 32.075)" fill="#fff" fill-rule="evenodd"/>
    <path id="Trazado_159871" data-name="Trazado 159871" d="M105.411,27.553c1.432-1.4,2.789-2.822,4.106-4.238Q92.395,20.863,75.8,18.4c-10.738-1.6-21.292-3.241-31.7-4.862h-.649c-1.7,1.389-3.4,2.779-5.132,4.153,10.775,1.65,21.735,3.327,32.814,4.948q16.892,2.472,34.281,4.918" transform="translate(36.142 12.766)" fill="#fff" fill-rule="evenodd"/>
    <path id="Trazado_159872" data-name="Trazado 159872" d="M60.746,20.725c1.846.608,3.766,1.215,5.651,1.807,2.274-2.995,4.454-5.991,6.626-9h-6.84c-1.788,2.4-3.583,4.8-5.437,7.192" transform="translate(57.299 12.765)" fill="#fff" fill-rule="evenodd"/>
    <path id="Trazado_159873" data-name="Trazado 159873" d="M148.128,75.5c-.451-1.592-.9-3.183-1.319-4.788-27.124-2.3-53.758-4.6-80.052-6.9.037,1.605.037,3.2.074,4.788q40.065,3.451,81.3,6.9" transform="translate(62.967 60.191)" fill="#fff" fill-rule="evenodd"/>
    <path id="Trazado_159874" data-name="Trazado 159874" d="M168.957,85.589c-.414-1.592-.867-3.183-1.281-4.788q-30.233-2.256-59.825-4.541C88.337,74.764,68.9,73.221,49.723,71.7c-.113,1.605-.262,3.21-.377,4.8q29.216,2.279,59.034,4.557c19.965,1.508,40.233,3.024,60.577,4.528" transform="translate(46.546 67.634)" fill="#fff" fill-rule="evenodd"/>
    <path id="Trazado_159875" data-name="Trazado 159875" d="M60.552,82.5c3.428.593,6.932,1.185,10.435,1.78q16.556-8.529,32.1-17.056c-3.391-.579-6.706-1.172-9.982-1.764C82.59,71.141,71.778,76.827,60.552,82.5" transform="translate(57.116 61.742)" fill="#fff" fill-rule="evenodd"/>
    <path id="Trazado_159876" data-name="Trazado 159876" d="M45.644,70.522c.715,1.49,1.432,2.965,2.147,4.44,15.445-6.234,30.251-12.483,44.53-18.733-.867-1.475-1.733-2.95-2.563-4.44Q68.567,61.163,45.644,70.522" transform="translate(43.054 48.85)" fill="#fff" fill-rule="evenodd"/>
    <path id="Trazado_159877" data-name="Trazado 159877" d="M120.417,64.69c1.106.3,2.229.6,3.362.9L122.5,61.484q-1.038,1.6-2.081,3.206" transform="translate(113.583 57.995)" fill="#fff" fill-rule="evenodd"/>
    <path id="Trazado_159878" data-name="Trazado 159878" d="M124.646,62.523l-5.838.363c2.6,6.7,5.258,13.416,7.95,20.093,2.629,6.527,5.365,13.059,8.121,19.58h2.256Z" transform="translate(112.065 58.975)" fill="#fff" fill-rule="evenodd"/>
    <path id="Trazado_159879" data-name="Trazado 159879" d="M142.154,76.415c-10.987.241-22,.482-32.981.709.414,1.605.83,3.2,1.281,4.788q16.612-.341,33.2-.7Z" transform="translate(102.977 72.078)" fill="#fff" fill-rule="evenodd"/>
    <path id="Trazado_159880" data-name="Trazado 159880" d="M135.886,61.49q-14.5,4.728-29.66,9.46.79,3.34,1.582,6.654,15.4-4.678,30.177-9.386Z" transform="translate(100.197 58)" fill="#fff" fill-rule="evenodd"/>
    <path id="Trazado_159881" data-name="Trazado 159881" d="M66.7,91.886q4.658-7.981,9.174-15.979c-2.75-.68-5.462-1.374-8.1-2.068q-5.285,9.022-10.888,18.047Z" transform="translate(53.66 69.648)" fill="#fff" fill-rule="evenodd"/>
    <path id="Trazado_159882" data-name="Trazado 159882" d="M131.57,61.111c.3-1.751.6-3.515.9-5.28q-26.164,0-52.25-.016-.455,2.65-.906,5.3Z" transform="translate(74.817 52.648)" fill="#fff" fill-rule="evenodd"/>
    <path id="Trazado_159883" data-name="Trazado 159883" d="M107.273,30.1c.565,1.794,1.168,3.574,1.733,5.352l8.445-.3-1.566-5.021q-4.3-.015-8.612-.033" transform="translate(101.185 28.396)" fill="#fff" fill-rule="evenodd"/>
    <path id="Trazado_159884" data-name="Trazado 159884" d="M79.576,66.276c5.01.433,10.058.869,15.107,1.3-7.083,3.789-14.353,7.581-21.7,11.37-6.592-.505-13.185-1.026-19.74-1.547q13.449-5.556,26.333-11.125" transform="translate(50.221 62.515)" fill="#8ec63f" fill-rule="evenodd"/>
    <path id="Trazado_159885" data-name="Trazado 159885" d="M55.43,35c-7.95,5.426-16.2,10.849-24.675,16.259h80.091q0-7.963.115-15.927-27.8-.152-55.53-.332" transform="translate(29.01 33.017)" fill="#8ec63f" fill-rule="evenodd"/>
    <path id="Trazado_159886" data-name="Trazado 159886" d="M22.744,59.891q3.993,3.174,8.146,6.343c7.5-2,14.879-3.991,22.227-5.989-3.768-3.311-7.384-6.64-10.925-9.967q-8.564,1.166-17.145,2.316Z" transform="translate(21.453 47.425)" fill="#8ec63f" fill-rule="evenodd"/>
    <path id="Trazado_159887" data-name="Trazado 159887" d="M75.693,35.241c.037,5.266.188,10.53.264,15.8h16.65c-.375-5.165-.791-10.328-1.2-15.494l-15.709-.3" transform="translate(71.397 33.241)" fill="#d4cbba" fill-rule="evenodd"/>
    <path id="Trazado_159888" data-name="Trazado 159888" d="M71.771,28.764c-2.977,2.272-5.989,4.541-9.079,6.813-10.435-1.72-20.756-3.441-30.888-5.169l2.522-7.991Q52.7,25.6,71.771,28.764" transform="translate(29.999 21.145)" fill="#d4cbba" fill-rule="evenodd"/>
    <path id="Trazado_159889" data-name="Trazado 159889" d="M18.258,71.3q2.005.86,4.032,1.72-2.612,1.058-5.245,2.12Z" transform="translate(16.078 67.255)" fill="#d4cbba" fill-rule="evenodd"/>
    <path id="Trazado_159890" data-name="Trazado 159890" d="M68.442,31.579q6.952-5.99,13.412-11.978,20.795,3.387,42.343,6.77,1.355,7.139,2.6,14.277Q96.9,36.116,68.442,31.579" transform="translate(64.558 18.489)" fill="#d4cbba" fill-rule="evenodd"/>
    <path id="Trazado_159891" data-name="Trazado 159891" d="M33.359,31.845c-.857-.14-1.72-.284-2.583-.426l-1.063,3.368q1.833-1.469,3.646-2.942" transform="translate(28.027 29.636)" fill="#fff" fill-rule="evenodd"/>
    <path id="Trazado_159892" data-name="Trazado 159892" d="M140.626,37.5q-21.588-.3-43.134-.622c-14.316-.2-28.632-.42-42.872-.637q12.149-4.1,23.921-8.216,30.233,4.751,62.085,9.475" transform="translate(51.52 26.437)" fill="#d4cbba" fill-rule="evenodd"/>
    <path id="Trazado_159893" data-name="Trazado 159893" d="M40.57,64.4q3.142-3.579,6.578-7.009a140.261,140.261,0,0,1,30.89-23.55c10.142-6.02,24.271-13.387,38.305-20.311h47.952c-7.361,4.046-12.019,6.716-19.011,9.839a166.926,166.926,0,0,0-43.776,28.28C88.277,63.663,77.925,77.386,74.762,93.371a110.183,110.183,0,0,1-10.925,30.536,135.434,135.434,0,0,1-17.423,24.862H13.936Z" transform="translate(13.145 12.765)" fill="#fff" fill-rule="evenodd"/>
    <path id="Trazado_159894" data-name="Trazado 159894" d="M37.053,148.769a138.88,138.88,0,0,0,17.779-23.834A111.712,111.712,0,0,0,67.3,93.342c4.918-22.085,20.157-38.329,37.748-51.6,15.83-11.943,33.7-21.168,50.13-28.21H123.57A269.452,269.452,0,0,0,74.95,41.265C59.628,52.355,45.527,65.289,35.209,81.387l-16.043,50.82A148.231,148.231,0,0,0,35.619,112.9a100.416,100.416,0,0,1-10.585,21.481,107.738,107.738,0,0,1-10.989,14.044l-.109.344Z" transform="translate(13.145 12.765)" fill="#68a5d4" fill-rule="evenodd"/>
    <path id="Trazado_159895" data-name="Trazado 159895" d="M27.326,43.545c6.446,2.627,16.547,7.186,25.468,15.4A67.562,67.562,0,0,1,67.108,76.331a63.692,63.692,0,0,1,8.327,25.835c-2.977.247-5.952.478-8.853.709A58.851,58.851,0,0,0,59.31,78.632,59.721,59.721,0,0,0,46.2,62.4,74.36,74.36,0,0,0,25.482,49.388Z" transform="translate(24.036 41.074)" fill="#fff"/>
    <path id="Trazado_159896" data-name="Trazado 159896" d="M164.235,45.631c-.225-1.592-.49-3.183-.715-4.788-30.062-4.557-59.086-9.03-86.912-13.671Q55.161,23.6,34.634,19.916L33.1,24.761q20.853,3.649,42.6,7.215c28.428,4.631,57.979,9.114,88.531,13.655" transform="translate(31.226 18.786)" fill="#fff" fill-rule="evenodd"/>
    <path id="Trazado_159897" data-name="Trazado 159897" d="M75.07,94.776c4.52,0,8.206-2.18,8.206-4.852s-3.686-4.85-8.206-4.85-8.206,2.178-8.206,4.85,3.686,4.852,8.206,4.852" transform="translate(63.069 80.245)" fill="#f6f6f6" fill-rule="evenodd"/>
    <path id="Trazado_159898" data-name="Trazado 159898" d="M84.67,0A27.983,27.983,0,0,0,56.687,27.983,30.766,30.766,0,0,0,58.817,38.7L84.67,98.676l25.972-60.258a30.653,30.653,0,0,0,2.009-10.435A27.981,27.981,0,0,0,84.67,0" transform="translate(53.47 0)" fill="#a8bc8b" fill-rule="evenodd"/>
    <path id="Trazado_159899" data-name="Trazado 159899" d="M112.627,28.838c.01-.2.012-.4.016-.595,0-.039.006-.084.006-.122,0-.08,0-.161,0-.241,0-.225,0-.451-.008-.674,0-.064-.01-.124-.012-.187,0-.136,0-.274-.01-.408,0-.06-.008-.12-.01-.181l-.012-.194,0-.1c-.006-.089-.016-.177-.021-.264l-.023-.305c0-.052-.006-.1-.01-.157l0-.01v0l-.008-.087c-.01-.1-.023-.21-.033-.315-.014-.124-.025-.251-.041-.375,0-.037-.006-.076-.01-.113v0l0-.01,0-.01c0-.027-.008-.056-.01-.084-.012-.089-.025-.177-.037-.264-.017-.132-.037-.262-.056-.393-.006-.047-.01-.093-.016-.14l0-.008v-.006l-.01-.045c-.006-.047-.016-.091-.023-.138-.021-.13-.045-.26-.068-.389-.019-.107-.033-.214-.052-.319v0l0-.012,0-.012c-.031-.169-.072-.334-.107-.5-.025-.124-.045-.251-.072-.375l0-.008v-.006h0c-.033-.148-.074-.293-.109-.439s-.064-.311-.1-.464l-.012-.039-.012-.043c-.025-.1-.058-.192-.085-.29-.01-.039-.023-.078-.033-.117-.037-.132-.066-.27-.1-.4l0-.008,0-.006,0-.012-.016-.054c-.045-.155-.1-.3-.15-.457-.039-.12-.068-.247-.109-.367v0l0-.012-.008-.019c-.051-.15-.109-.3-.161-.445s-.091-.286-.142-.426l0,0,0-.008h0l-.006-.016-.033-.093c-.016-.039-.033-.074-.047-.113-.041-.1-.087-.206-.128-.311s-.085-.241-.134-.358h0l0-.006,0-.008h0l-.014-.031-.023-.062,0-.01c-.051-.12-.109-.235-.159-.354-.062-.144-.115-.291-.179-.433l0,0,0-.012h0l-.017-.037c-.014-.027-.025-.056-.039-.086-.039-.086-.086-.167-.126-.253-.023-.051-.051-.1-.076-.152-.056-.119-.1-.245-.165-.363h0l-.006-.008,0-.006a.229.229,0,0,0-.021-.037l-.033-.072-.012-.023c-.056-.113-.122-.22-.181-.332-.074-.14-.138-.286-.214-.426l-.006-.014h0l-.023-.041c-.014-.023-.025-.049-.037-.072L109.2,14.4c-.06-.109-.13-.212-.19-.319-.008-.016-.017-.029-.027-.045-.07-.122-.13-.249-.2-.371h0l0,0-.006-.01-.027-.041c-.017-.029-.033-.06-.051-.089l-.014-.023c-.07-.117-.15-.225-.222-.342s-.152-.266-.235-.394h0l0-.006-.006-.006c-.014-.021-.029-.039-.043-.06s-.029-.051-.047-.076l-.023-.037c-.082-.126-.175-.245-.26-.369s-.146-.235-.225-.348l0,0-.006-.01-.031-.041c-.031-.043-.06-.087-.089-.13l-.017-.023c-.08-.113-.173-.22-.255-.332s-.167-.245-.257-.363l-.006-.008,0-.006-.058-.072c-.027-.035-.052-.07-.078-.1-.014-.016-.025-.033-.037-.049-.051-.064-.1-.122-.155-.185-.078-.1-.154-.192-.231-.288-.051-.062-.1-.13-.146-.192l-.008-.01,0,0c-.025-.029-.052-.058-.078-.089s-.037-.047-.056-.068l-.012-.016-.031-.035-.035-.043c-.029-.035-.064-.068-.093-.1-.068-.08-.138-.155-.208-.233l-.111-.13c-.051-.054-.1-.117-.146-.173l-.012-.014c-.021-.021-.043-.043-.064-.066-.056-.06-.111-.122-.167-.183l-.014-.017c-.025-.027-.051-.052-.076-.078-.12-.13-.249-.257-.373-.385-.051-.051-.1-.109-.146-.159l-.01-.01,0,0c-.031-.033-.066-.062-.1-.093s-.049-.052-.074-.078l-.035-.037-.064-.062c-.126-.124-.258-.245-.387-.367-.039-.037-.08-.072-.119-.109s-.093-.1-.144-.144h0l-.01-.008-.006-.006c-.041-.037-.084-.07-.122-.1-.058-.052-.111-.107-.169-.159-.029-.025-.056-.051-.085-.078l-.058-.052-.017-.017c-.138-.12-.28-.233-.418-.352-.054-.045-.1-.1-.154-.14h-.014l-.181-.154c-.06-.049-.117-.1-.175-.148s-.087-.07-.132-.107c-.029-.023-.058-.047-.087-.072l-.017-.012-.006-.006L101.98,5.9c-.033-.027-.068-.049-.1-.076-.062-.049-.128-.093-.19-.14l-.023-.017c-.056-.045-.109-.093-.165-.138h-.014c-.163-.122-.323-.247-.488-.365l-.2-.14c-.058-.043-.117-.084-.177-.124l-.214-.146c-.047-.031-.091-.066-.138-.1l-.041-.031h-.01l-.039-.023c-.122-.082-.243-.163-.365-.241-.1-.062-.192-.124-.29-.185s-.212-.132-.317-.2l-.274-.167c-.051-.029-.1-.06-.148-.089h-.016c-.068-.041-.134-.084-.2-.122-.041-.023-.078-.049-.119-.072-.08-.047-.163-.087-.245-.132-.155-.086-.311-.169-.468-.253-.138-.072-.276-.146-.414-.216-.07-.035-.136-.074-.2-.109H97.1l0,0c-.177-.087-.348-.183-.527-.266-.035-.016-.072-.029-.107-.047-.082-.039-.169-.072-.251-.109-.225-.1-.453-.2-.68-.3-.14-.058-.276-.126-.418-.183h-.039c-.035-.014-.07-.027-.1-.043-.189-.074-.375-.155-.565-.225-.626-.231-1.257-.447-1.9-.635H92.5a27.941,27.941,0,0,0-4.4-.9H81.244a27.851,27.851,0,0,0-4.4.9h-.006c-.643.188-1.275.4-1.9.633-.194.074-.387.155-.581.233l-.091.037h-.039c-.146.058-.286.126-.429.188-.222.091-.441.188-.659.286-.089.041-.181.078-.27.119-.031.016-.066.027-.1.043-.179.084-.354.179-.53.268h-.023c-.068.033-.134.072-.2.107-.138.07-.274.142-.41.214-.161.087-.325.173-.484.26-.076.043-.155.082-.231.126-.049.027-.1.058-.146.086l-.181.111h-.017c-.051.029-.1.064-.152.093-.089.052-.177.107-.264.161-.111.066-.22.134-.328.2-.091.056-.183.115-.274.173-.126.082-.251.165-.375.249l-.039.023h-.008l-.041.031c-.049.031-.093.066-.142.1-.07.047-.14.093-.21.142l-.183.128c-.062.045-.124.087-.185.132-.167.12-.33.247-.5.371h-.014c-.058.043-.109.093-.165.138-.08.058-.159.115-.237.175l-.076.056-.047.039-.025.017c-.027.021-.052.045-.08.066-.047.037-.091.076-.138.113s-.113.1-.171.144-.122.1-.185.155H66.7c-.054.045-.1.1-.157.144-.136.117-.278.227-.412.346l-.019.019c-.021.017-.039.035-.058.052s-.06.054-.089.08c-.056.051-.109.1-.163.155s-.086.07-.124.107h0l-.008.006-.006.008c-.051.047-.1.1-.144.146s-.086.078-.126.117c-.126.119-.255.235-.377.358l-.064.062c-.014.012-.023.025-.037.039s-.047.051-.072.076-.066.06-.1.093l-.006.006-.008.006h0c-.052.054-.1.113-.152.167l-.027.029c-.115.117-.231.231-.342.352l-.074.074-.012.016c-.058.062-.113.124-.171.187-.019.023-.043.045-.062.066h0l-.006.01-.006,0c-.045.052-.087.109-.132.161s-.1.115-.152.173-.119.132-.177.2c-.031.037-.066.07-.1.107l-.033.041-.017.019-.029.033-.049.06c-.027.033-.056.064-.084.1l0,0-.01.012h0c-.054.064-.1.136-.154.2-.076.093-.15.187-.223.28-.051.062-.107.12-.155.185-.014.016-.025.033-.037.049-.027.035-.052.072-.08.107s-.039.047-.056.07l-.006.006-.006.008h0c-.089.117-.169.243-.257.361s-.175.22-.257.334l-.014.021c-.031.043-.062.089-.093.134l-.029.039h0l-.006.01,0,0h0c-.08.113-.15.233-.227.348s-.177.243-.258.367l-.025.041c-.016.023-.029.049-.045.072l-.043.062h0l0,0-.006.01c-.082.126-.152.26-.229.389s-.155.231-.229.352l-.008.016c-.019.033-.037.066-.056.1l-.023.037h0l0,.01,0,0c-.07.122-.132.249-.2.371l-.01.019c-.035.058-.072.115-.107.175s-.086.142-.126.216a.62.62,0,0,0-.031.062l-.029.047-.006.01,0,0c-.074.138-.138.284-.21.422-.06.115-.126.223-.185.338l-.01.019c-.014.027-.025.054-.037.08l-.017.031,0,.008,0,.006c-.058.119-.107.241-.163.361-.027.056-.058.113-.086.171-.037.08-.08.154-.117.233l-.008.017-.029.064-.021.043,0,.008,0,.006c-.064.14-.115.288-.177.429-.052.12-.113.237-.163.358l-.006.016-.019.052-.016.035,0,0,0,.012c-.047.113-.084.231-.128.344-.054.138-.117.272-.169.412l-.008.021c-.014.031-.023.064-.035.1l-.008.016,0,.008,0,.006h0c-.051.138-.091.282-.14.42s-.113.3-.163.451l-.008.019h0l0,.008,0,.006c-.039.12-.068.245-.107.365-.054.171-.115.338-.165.511l0,.014h0v.006l0,.008h0c-.041.134-.068.27-.1.4-.021.074-.045.144-.064.218s-.039.122-.054.185l-.012.043-.012.041h0l0,.008V20.9c-.037.144-.064.293-.1.439s-.08.3-.113.451l0,.006,0,.008h0c-.029.124-.049.253-.074.379-.035.165-.074.33-.1.5l0,.014,0,.008,0,.006h0c-.019.1-.033.208-.051.309-.023.132-.049.262-.07.394-.008.049-.017.1-.025.142l-.008.045h0V23.6l0,.008h0c-.008.049-.01.1-.017.146-.019.128-.037.257-.054.387-.012.087-.027.177-.037.266,0,.025-.008.051-.01.078l0,.014h0v.014c-.006.037-.006.074-.01.111-.016.124-.027.251-.041.377-.012.1-.025.208-.035.313,0,.029,0,.06-.008.089v.014c-.006.051-.006.1-.012.155-.008.1-.016.206-.021.307s-.017.177-.021.266l-.006.093c0,.064-.006.13-.01.2s-.008.122-.01.183c-.008.134-.006.268-.012.4,0,.064-.008.126-.01.19l0,.012c0,.222-.008.441-.008.663,0,.08,0,.161,0,.241,0,.037.006.078.006.115,0,.2.008.394.016.6l.006.1,0,.072h0l0,.006v.008l0,.012c0,.025,0,.051,0,.074,0,.051.006.1.01.15l.006.1c0,.054.01.109.014.161.006.091.012.179.019.27l.006.068,0,.051,0,.006v.008c0,.029.008.058.012.087.01.122.023.247.037.371l.006.072c.008.066.012.132.019.2l.012.107.006.041v.012l0,.01v0c.006.049.014.1.019.148l.029.22c.016.113.029.223.045.334l.006.041c.006.035.008.068.014.1l.006.045v0l0,.008,0,.008v.006c.01.068.023.138.033.206.014.1.031.19.047.286.019.126.039.251.06.377l0,.008h0l0,.006v.006l.008.043.012.058.012.068c.016.082.033.163.049.247.025.142.051.286.08.428l.008.043,0,.006v.006l0,.008v0l.012.054.006.027c.025.122.052.241.08.363l.023.113.047.212c.006.029.012.058.019.086l.006.031v0l0,.01,0,0,.006.023v.006l.018.068c.017.08.039.157.058.237s.043.181.066.272.045.183.068.272l0,.008h0l0,.01v0l0,.006.017.066.014.045c.006.025.012.051.019.076.014.052.029.1.043.154l0,.016c.019.072.041.14.06.212l.008.027c.025.089.049.183.076.27l0,.017v0l0,0c.008.031.017.06.027.091l.064.208c.027.089.056.179.086.268l.017.052c.021.068.041.14.064.206.006.021.014.041.021.062l0,.012,0,.008,0,.006.016.047c.01.023.016.049.025.072l.01.027c.01.029.019.056.031.084.019.058.041.115.06.173s.045.126.068.19c.016.037.027.08.043.117l.01.025c.012.029.023.056.033.086l.027.07,0,.006,0,.008c.074.188.148.371.223.546l.155.358,2.336,5.42.771,1.792,1.1,2.553.851,1.978.779,1.805.773,1.794L66.747,57l.082.19,1.487,3.443L70.453,65.6l1.366,3.169.779,1.805.777,1.807.076.173,1.094,2.536L76.1,78.7l.773,1.792.087.2,1.077,2.5,0,.01.119.276.667,1.543.383.89L80.5,88.9l1.047,2.433.482,1.115,1.082,2.511,1.557,3.613h0l.389-.9.389-.9.391-.9,1.718-3.986,1.007-2.338,2.724-6.321L92.9,79.471l.332-.768,2.219-5.148.511-1.189.779-1.807.773-1.792.272-.632.505-1.176.391-.9,1.9-4.419,1.605-3.723.964-2.237.2-.459,2.483-5.766.247-.571.389-.9.391-.9.383-.888,1.557-3.614.163-.379.622-1.44,1.049-2.437c.037-.086.074-.171.109-.26l0,0,0-.01c.016-.039.029-.082.047-.12.031-.08.062-.155.091-.235l.016-.039c.014-.035.025-.074.039-.109s.033-.093.051-.142l.029-.076.01-.031.017-.047.008-.029.023-.06.008-.027c.016-.041.029-.086.043-.126s.019-.054.027-.084c.021-.06.039-.124.058-.185l.035-.113c.012-.037.025-.072.037-.109l.016-.052.023-.076c.01-.035.019-.07.031-.1l.008-.027,0,0,0-.01h0l.006-.019c.008-.027.018-.054.025-.084v0l.012-.041c.014-.043.023-.087.037-.13.029-.1.058-.2.085-.309.01-.031.017-.064.027-.1.012-.051.025-.1.039-.15,0-.019.01-.039.016-.058v0l0-.01v-.006c.016-.056.029-.113.043-.169.021-.087.045-.175.066-.262.008-.039.018-.076.025-.113s.023-.089.033-.134.017-.078.027-.115l.01-.047,0-.008.01-.037v0l0-.01c.008-.033.016-.068.021-.1.031-.138.06-.276.089-.414.014-.068.031-.134.045-.2l.023-.119.006-.033.006-.021v0l0-.012.008-.043c.035-.175.066-.352.1-.529v0c.012-.058.023-.117.033-.173l0-.006,0-.014.012-.07,0-.023,0-.016,0-.012v-.006l0,0v-.006c.021-.126.041-.255.06-.383.016-.087.029-.175.043-.262s.025-.15.035-.225l0-.017v-.008l0-.006,0-.019.01-.068c0-.031.006-.062.012-.091.016-.113.029-.222.043-.334.01-.066.019-.132.027-.2s.018-.128.025-.19l0-.023,0-.016.012-.115c.008-.06.012-.117.017-.177l.006-.056,0-.045c.012-.1.023-.206.033-.309,0-.054.012-.111.016-.165l0-.033.006-.072c.008-.093.014-.183.021-.274l.012-.159.008-.111c0-.051,0-.1.008-.146,0-.025,0-.052.006-.076v-.019h0v-.014c0-.023,0-.045,0-.068l.006-.1" transform="translate(53.47 0.101)" fill="#a8bc8b" fill-rule="evenodd"/>
    <path id="Trazado_159900" data-name="Trazado 159900" d="M107.792,26.13c0-.039,0-.078,0-.117,0-.111,0-.223,0-.334h0l0-.052v-.006c0-.093-.006-.187-.008-.28,0-.039,0-.08,0-.119h0l-.006-.1,0-.039c0-.056-.006-.115-.008-.171l-.006-.1v-.045c0-.068-.01-.136-.014-.2l0-.035,0-.037-.012-.183V24.3l0-.014v0c0-.062-.01-.124-.016-.187l-.006-.068c-.006-.058-.01-.119-.016-.177h0l0-.01-.008-.064-.006-.049-.008-.082-.008-.084c-.008-.058-.01-.119-.017-.177l-.006-.041c-.006-.056-.014-.113-.019-.169,0-.019-.006-.041-.008-.06-.006-.054-.014-.107-.019-.161l0-.019v-.006h0l0-.035-.023-.169-.012-.074c-.008-.06-.016-.12-.025-.179l0-.012,0-.021c-.01-.054-.018-.111-.027-.165l-.014-.091-.023-.14c-.006-.041-.016-.08-.021-.119l-.019-.111-.016-.084c0-.023-.008-.049-.014-.072s-.01-.064-.016-.1l-.01-.047c-.01-.054-.021-.109-.031-.163-.006-.025-.012-.052-.016-.078-.01-.051-.019-.1-.031-.152l0-.017,0-.006,0-.008,0-.012-.041-.185-.017-.08c-.012-.052-.021-.107-.035-.159V20.65l0,0v-.006l0-.008-.01-.037c-.012-.052-.025-.1-.037-.155-.008-.029-.014-.058-.021-.086-.012-.052-.023-.107-.037-.159v0l0-.016c-.008-.029-.017-.056-.023-.084l-.017-.066c-.014-.051-.025-.1-.039-.152l-.017-.066-.017-.076,0-.006c-.012-.043-.025-.084-.035-.124l-.014-.043c-.012-.045-.023-.089-.037-.136l-.027-.1-.014-.049c-.023-.084-.049-.165-.074-.249l0-.014-.058-.194-.082-.251,0-.012c-.021-.068-.043-.136-.064-.2l-.006-.012,0-.01-.012-.029c-.014-.045-.029-.089-.045-.132l-.017-.056-.023-.06-.023-.068-.027-.084-.008-.021c-.008-.023-.018-.047-.027-.07l-.018-.049c-.017-.047-.033-.1-.051-.142l-.021-.054-.021-.06-.021-.06,0-.008,0-.008-.018-.043-.01-.025c-.014-.037-.029-.076-.045-.115l-.01-.029-.033-.08-.047-.122-.01-.027c-.033-.084-.068-.163-.1-.245l0,0v0l-.008-.021c-.027-.062-.051-.124-.078-.187l-.1-.241,0-.012c-.031-.068-.06-.136-.089-.2l0,0,0-.006-.014-.027-.076-.163c-.01-.021-.018-.043-.029-.064v0l-.016-.031-.041-.089-.035-.08h0l-.006-.012-.012-.025-.006-.012-.012-.021-.029-.062c-.033-.07-.068-.138-.1-.206l-.029-.06-.023-.052,0,0,0,0,0,0-.049-.093c-.012-.025-.025-.049-.039-.074l-.019-.043c-.019-.039-.039-.076-.06-.115l-.041-.08c-.008-.016-.014-.033-.023-.051l0-.008-.01-.017c-.014-.023-.027-.045-.039-.068l-.035-.066-.045-.087c-.014-.025-.029-.049-.043-.074l-.031-.06c-.014-.023-.023-.047-.037-.068v0l0,0h0l-.006-.01-.018-.033-.006-.008-.016-.025c-.016-.031-.033-.062-.051-.093s-.033-.058-.049-.087l-.018-.031-.014-.021c-.021-.037-.043-.074-.062-.111l-.021-.037-.014-.023,0-.006-.111-.185-.029-.051,0-.006,0,0c-.037-.062-.072-.124-.109-.185h0c-.047-.078-.1-.155-.142-.231l-.01-.016-.01-.014-.008-.014-.111-.177,0,0,0,0,0,0c-.045-.07-.089-.138-.134-.206l-.037-.056-.006-.008,0-.006c-.031-.049-.064-.1-.1-.148l-.014-.021,0,0,0-.006-.014-.019-.006-.006-.006-.012-.008-.01-.014-.019c-.027-.041-.056-.082-.085-.122s-.033-.054-.052-.08l-.012-.017-.012-.016c-.029-.041-.058-.084-.087-.126l-.016-.023h0l0,0,0,0-.01-.014-.029-.041-.014-.017-.084-.117c-.019-.025-.035-.052-.054-.078l-.031-.041c-.033-.045-.064-.091-.1-.136l0-.008,0,0,0-.006-.012-.016-.025-.033-.033-.041c-.023-.035-.049-.068-.074-.1l-.052-.072-.045-.054c-.027-.037-.056-.076-.086-.113l-.014-.019,0-.006,0,0-.008-.008-.008-.014-.023-.029-.035-.043c-.029-.035-.056-.072-.085-.107l-.039-.052-.01-.012-.043-.051-.093-.119-.014-.017h0l-.006,0,0,0,0,0-.012-.012v0l-.031-.039c-.014-.014-.025-.029-.037-.043L102.1,10.4l-.064-.082-.047-.052c-.033-.039-.064-.08-.1-.119l-.008-.01h0l0,0,0,0h0l-.012-.014v0h0a.426.426,0,0,0-.039-.045c-.012-.016-.027-.031-.041-.047l-.072-.084c-.025-.027-.047-.056-.07-.084s-.033-.033-.049-.052l-.087-.1-.021-.025,0,0,0-.006-.012-.012-.006-.006-.043-.047-.041-.045c-.025-.029-.052-.056-.078-.086l-.076-.084c-.014-.016-.029-.029-.045-.045-.035-.041-.07-.08-.107-.119l-.008-.01,0,0,0,0h0l-.01-.012-.016-.016L101,9.144l-.01-.01-.023-.023c-.035-.037-.068-.072-.1-.107s-.049-.052-.074-.078l-.031-.031c-.043-.043-.084-.087-.126-.13l0,0-.006-.006h0c-.016-.017-.033-.033-.049-.049l-.006-.006-.012-.01-.025-.027-.01-.008,0,0c-.041-.041-.082-.082-.124-.122l-.064-.064-.025-.025-.14-.136h0l-.008-.008L100.1,8.25l-.017-.017-.012-.012-.017-.016-.033-.031c-.041-.039-.082-.076-.122-.113a.668.668,0,0,0-.054-.051l-.041-.039-.134-.124c-.031-.031-.066-.058-.1-.087l-.021-.019L99.5,7.692c-.033-.029-.066-.058-.1-.087s-.041-.039-.064-.058l-.047-.041c-.025-.023-.051-.047-.078-.068l-.023-.021-.031-.027-.008-.006-.016-.014-.041-.035L99.046,7.3l-.1-.086L98.9,7.177c-.041-.033-.082-.068-.122-.1l-.049-.039L98.71,7.02l-.093-.078-.012-.01-.006,0,0,0h0l-.017-.014-.054-.043-.01-.008-.01-.008-.033-.027c-.043-.033-.087-.064-.13-.1l-.014-.01c-.041-.033-.08-.066-.12-.1s-.064-.049-.1-.074-.054-.045-.084-.066l0,0,0,0,0,0h0l-.043-.031-.006-.006-.033-.023-.043-.033-.027-.019-.033-.025-.074-.052-.039-.029-.142-.1L97.5,6.091l-.1-.074h0l-.01-.006h0l-.051-.037-.008,0-.052-.037-.021-.016-.047-.031c-.029-.019-.056-.041-.086-.06s-.066-.043-.1-.066l-.006,0c-.023-.016-.043-.033-.066-.047l-.037-.025-.093-.064-.087-.06,0,0-.006,0h0l-.008-.006-.012-.008-.012-.006-.01-.008L96.634,5.5c-.049-.033-.1-.064-.148-.1-.033-.021-.066-.045-.1-.066l-.1-.066-.035-.021c-.029-.019-.058-.037-.087-.054s-.043-.027-.064-.039l-.025-.017L96.022,5.1l0,0L96.013,5.1h0l-.025-.014-.045-.029c-.025-.016-.051-.029-.076-.043s-.072-.045-.109-.066l-.045-.029L95.69,4.9l-.045-.029-.037-.019-.068-.041L95.5,4.787l-.033-.017-.016-.008-.074-.043c-.021-.012-.043-.025-.066-.037l-.068-.043h-.01l0,0c-.033-.017-.064-.039-.1-.058l-.074-.039-.138-.076-.08-.045L94.8,4.4l-.08-.043-.054-.031-.014-.006L94.606,4.3l-.035-.019c-.027-.016-.056-.029-.086-.045s-.049-.027-.074-.039l-.017-.01h0c-.021-.012-.045-.021-.066-.031-.047-.025-.1-.049-.144-.074l-.091-.049c-.039-.019-.078-.035-.115-.054s-.091-.047-.138-.068L93.821,3.9l-.078-.041-.052-.023c-.018-.01-.035-.016-.054-.025l-.066-.031c-.023-.012-.047-.023-.072-.033l-.01-.006-.029-.016h-.006l-.214-.093c-.066-.031-.128-.062-.194-.091-.043-.019-.084-.037-.126-.054l-.177-.076-.157-.066c-.035-.016-.066-.031-.1-.045l-.037-.016-.035-.016h-.006L92.225,3.2c-.091-.037-.183-.072-.274-.107l-.251-.1c-.047-.016-.089-.035-.136-.052s-.068-.023-.1-.037l-.1-.035c-.023-.01-.049-.016-.074-.025l-.07-.025L91.2,2.811h-.014c-.365-.126-.733-.247-1.106-.358l-.115-.035-.138-.039c-.027-.008-.054-.017-.084-.025h-.023c-.035-.012-.074-.019-.111-.029q-.519-.143-1.047-.262c-.167-.039-.334-.076-.5-.111-.06-.014-.122-.029-.185-.041L87.818,1.9h-.066a24.981,24.981,0,0,0-4.67-.457h-.041a24.945,24.945,0,0,0-4.668.457h-.066l-.054.014c-.066.014-.128.029-.192.043-.167.035-.332.072-.5.109-.354.082-.705.169-1.055.266-.035.01-.072.016-.107.027h-.023l-.085.025-.134.039c-.039.01-.076.023-.115.035q-.56.166-1.108.358h-.014l-.039.014-.051.019c-.025.01-.051.017-.074.025l-.1.035c-.033.014-.068.025-.1.037L74.423,3c-.084.031-.167.064-.251.1s-.183.07-.272.107l-.183.068h0l-.035.016L73.64,3.3c-.033.014-.068.031-.1.045-.052.021-.1.043-.154.066l-.183.076-.122.052c-.066.029-.13.062-.194.093s-.144.06-.216.093h-.006l-.023.014-.023.01-.058.029c-.025.012-.049.023-.074.033l-.052.025-.052.025c-.025.012-.047.025-.072.037l-.021.01c-.047.023-.091.047-.138.068s-.074.035-.111.052l-.1.051c-.049.025-.1.049-.144.074-.021.01-.045.019-.066.031h0l-.017.01-.072.039c-.029.016-.058.029-.085.045l-.041.021-.037.019-.016.008-.054.031c-.029.014-.056.029-.084.043l-.037.021c-.027.014-.054.029-.082.045-.045.025-.091.049-.136.074l-.078.043c-.031.017-.06.039-.091.056l0,0h-.01c-.025.014-.049.029-.072.043l-.064.037c-.023.016-.049.027-.074.043l-.012.006-.037.021-.047.027c-.021.014-.043.025-.064.037l-.037.021-.047.029-.019.012a.367.367,0,0,1-.047.027l-.109.068c-.025.016-.051.027-.076.043l-.045.029-.025.014-.006,0-.006,0-.041.027-.035.021-.056.035-.093.058-.037.023-.1.062-.1.07-.144.093-.052.035-.01.006-.012.008h0l-.018.012-.01.006h0c-.031.021-.062.045-.1.066s-.056.039-.084.056l-.039.027c-.019.014-.039.029-.06.043l-.017.012c-.031.021-.064.041-.093.062s-.056.041-.085.06l-.043.029-.027.019-.054.039h0l-.052.037-.01.006-.1.076-.074.052c-.045.031-.087.066-.132.1a.48.48,0,0,1-.051.037c-.021.017-.047.033-.068.051s-.023.019-.037.027l0,0-.014.01-.051.037c-.027.021-.056.041-.084.062l0,0-.008.006h0l-.006,0-.082.064-.1.076c-.043.033-.082.066-.124.1l-.008.008h0c-.041.033-.086.064-.126.1l-.039.029,0,0L67.6,6.87l-.052.041-.017.014,0,0-.006,0h0l-.01.008c-.035.027-.066.056-.1.084l-.014.012-.052.043c-.037.029-.074.062-.111.091a.534.534,0,0,1-.051.043c-.035.031-.072.058-.109.089l-.006,0-.033.029L67,7.368l-.019.016-.006.006h0l-.029.027-.029.025-.076.066-.043.039-.068.058c-.031.029-.066.058-.1.087l-.058.049-.021.019c-.029.027-.06.052-.089.08l-.008.008h0c-.047.041-.089.082-.134.124l-.043.039-.054.051c-.041.039-.084.078-.124.115l-.027.027-.021.019-.016.014-.01.01L65.97,8.3l-.008.008c-.047.045-.093.091-.14.138l-.027.025-.025.023-.023.025,0,0c-.047.045-.093.089-.138.136l-.01.01-.021.021-.016.014-.006.006c-.016.016-.033.031-.049.049l0,0,0,0h0l-.006.006-.122.128-.033.031c-.025.025-.051.052-.076.08l-.1.1-.021.023-.014.012-.033.035-.017.019-.012.012h0l0,.006,0,0-.014.016c-.033.035-.068.074-.1.111l-.045.045c-.025.027-.049.056-.074.084l-.082.087A.408.408,0,0,1,64.7,9.6l-.039.043-.008.01-.01.01,0,0,0,0-.006.006h0l-.008.01c-.035.037-.068.076-.1.115l-.051.054c-.023.025-.045.054-.068.08s-.049.056-.074.086l-.043.047-.035.041,0,.006-.01.01,0,0,0,0,0,0-.021.027c-.029.033-.054.066-.084.1s-.033.037-.049.054-.043.056-.064.082l-.072.086-.039.047-.008.008-.025.033-.014.016,0,0,0,0-.016.019c-.031.037-.06.076-.089.113l-.043.051c-.017.023-.035.049-.054.072l-.082.1a.358.358,0,0,1-.033.043l-.014.016-.012.017,0,0-.014.016,0,0,0,.006-.008.014c-.031.039-.062.082-.093.12-.014.017-.027.033-.039.051l-.056.076c-.025.035-.052.068-.078.1l-.027.035-.027.039-.012.014,0,0,0,0h0l-.006.008-.01.014c-.029.039-.054.078-.084.115l-.037.051-.058.084c-.025.035-.052.07-.076.1l-.017.023-.027.037-.012.016v0l0,0-.016.023-.087.128-.008.01-.016.021c-.017.025-.033.052-.051.076-.031.047-.064.091-.093.136l0,0-.016.023,0,0-.016.021,0,.006,0,0,0,0-.111.169-.012.017-.027.043-.15.227c-.037.058-.074.119-.111.179l0,.006,0,0-.019.033c-.047.076-.1.152-.142.229l0,.006c-.037.058-.07.119-.1.177l0,.006,0,0-.029.052c-.039.064-.076.126-.113.19l-.014.021,0,0,0,0-.016.029-.064.111c-.025.047-.052.091-.078.138l-.058.1-.035.06,0,.008,0,0,0,0-.035.068-.033.06c-.014.025-.029.049-.041.074s-.031.058-.047.089L61.2,14.6l-.037.068-.008.014-.008.014,0,.006h0l-.01.017-.017.037-.035.068-.06.117L61,14.983c-.012.025-.025.051-.039.076s-.031.058-.045.087l-.006.01,0,.006-.027.062-.025.051c-.033.068-.066.136-.1.206l-.031.064-.01.019-.008.014-.01.017-.008.017,0,.006v0c-.012.023-.021.049-.033.074l-.041.087-.045.1c-.025.052-.051.107-.074.161l-.014.027h0v0l0,0c-.068.152-.134.305-.2.457l-.076.188-.008.019c-.035.084-.07.165-.1.251h0l-.01.027c-.017.041-.033.084-.049.124l-.025.062-.017.049c-.016.037-.029.074-.045.113l-.01.025-.017.041,0,.01,0,.006c-.006.019-.012.039-.019.058l-.021.056c-.021.062-.045.124-.068.187l0,.01-.025.064-.023.064,0,.012h0v0l0,0-.027.084-.025.076-.019.051-.017.056-.047.132-.01.029-.008.023h0l0,.008c-.021.064-.041.128-.062.192l0,.008,0,.008c-.027.08-.052.161-.078.241s-.041.134-.06.2l-.006.021c-.025.078-.049.157-.072.237l0,0v0l-.012.049-.035.122-.019.068-.029.1c-.01.035-.021.07-.031.107v.006h0c0,.021-.008.043-.014.064l-.006.023-.016.058-.037.142-.021.084c-.006.025-.014.049-.021.074v.006h0v.008l0,0c-.014.054-.025.107-.037.161-.008.027-.014.052-.019.08l-.041.169-.006.021,0,.014-.041.181-.014.066c-.014.064-.029.128-.041.19l0,.016,0,.006v0l0,0h0l0,.017c-.012.054-.021.109-.033.163l-.01.054c-.014.066-.027.132-.039.2l0,.017,0,.006v0l0,.017-.016.1-.01.052-.014.082-.017.091-.008.049c0,.021-.01.041-.012.06h0v.008c-.01.054-.017.109-.025.163l-.016.091c-.008.052-.017.1-.025.157l0,.031,0,.008,0,.006h0l0,.01c-.008.052-.016.1-.021.157,0,.027-.008.056-.014.086-.006.054-.016.111-.023.165l0,.033,0,.006,0,.019c-.006.056-.012.113-.019.169l-.006.045-.023.2,0,.017v.008l-.012.124-.006.054-.006.064c0,.033-.008.064-.01.1s-.008.056-.01.084l0,.023,0,0v.008c-.006.064-.012.128-.016.19l0,.041c-.006.072-.014.142-.017.212l0,.008v.006l-.012.179,0,.039,0,.049c0,.056-.008.113-.01.171l0,.012v.012c0,.021,0,.043,0,.064l0,.072c0,.06-.006.122-.008.183l0,.051c0,.027,0,.052,0,.08,0,.049,0,.1,0,.15l0,.082c0,.049,0,.1,0,.148l0,.054,0,.023c0,.126,0,.253,0,.379l0,.078v.039c0,.142,0,.284,0,.426,0,.029,0,.058,0,.089l.006.185c0,.06,0,.122,0,.183h0v.017l.017.4,0,.035v.014l.006.072c0,.041,0,.08.008.12l.006.115c0,.035.006.072.008.109v.035h0v0l0,.025,0,.035v.01c0,.039.008.078.01.115l.008.1c0,.041.006.08.01.119l0,.025,0,.027c0,.035.008.068.012.1s.006.078.012.115l0,.045.012.117.006.072v.006c.008.074.017.146.025.218l.006.047.023.187v.008l0,.014,0,.01c.008.064.017.126.025.19l.008.054c.008.06.016.12.025.181v.008h0l.012.076c.006.043.014.087.021.13,0,.023.006.047.01.07l.012.078c.006.027.008.052.012.08l0,.017v.006c.008.049.019.1.027.142l.012.072.012.06c.006.037.012.074.019.111l0,.023.006.043v.008h0c.014.072.027.146.043.22l.008.045c.012.062.023.124.037.185v.008c.016.076.033.15.049.223l.01.039c.014.062.025.126.039.188l0,0v0l0,.017.008.025c.012.056.025.111.039.167.006.023.012.047.016.07l.025.1.016.07v0l0,0,0,.016c.006.029.016.056.021.086l.012.041c.014.058.029.119.045.179.01.033.017.066.025.1l.008.029,0,.012.006.021c.016.062.033.122.051.185.006.023.012.047.019.07l.047.171,0,.006.006.021,0,.012c.017.06.037.122.054.183l.017.06c.017.06.035.12.054.181v0l0,.012v0l0,.008,0,.012.052.163.012.041.017.047.052.165,0,.014.019.054c.01.033.021.064.033.1.017.056.037.111.056.167l.023.07c.008.019.012.039.019.058h0l0,0,0,0,.029.078c.012.031.023.064.033.1s.033.087.049.13.027.08.043.119l.01.029v0l0,0c.029.078.058.154.087.229l.006.014.01.023c.023.062.047.124.07.185l0,.006c.029.078.062.154.093.231l.006.016.008.017.076.187,0,.008c.029.072.06.142.091.214l.017.039.006.014c.021.051.043.1.066.154l.014.031v0l0,0,.008.016.01.019,0,.008.008.016.041.091.047.107,0,0,.031.068.025.052.017.041.014.031,0,.006,0,.008.014.025.017.035.006.014.041.082.039.086c.01.021.021.043.033.064v0a.736.736,0,0,1,.033.068c.012.021.021.045.031.066v0l0,.006,0,0,.014.029.021.041c.014.029.029.058.045.087l.045.093.016.029.017.033c.017.033.035.068.051.1l0,0,.016.029h0l0,.006.01.016.012.021.008.016c.023.045.047.089.072.134l.058.111c.025.047.049.093.074.138l.008.016c.043.078.086.155.13.231l.019.037,0,0,.1.187c.047.082.1.163.142.243l.012.017c.039.066.076.132.115.2l.006.008,0,0,.122.2.052.087c.029.045.056.091.086.136l.016.027,0,.006h0l.01.016,0,0,.017.027v0l.01.014c.025.039.051.076.074.115l.058.093,0,.006.027.039.076.115.008.014.006.01,0,0,0,0,.008.012.025.037.017.025c.025.035.049.07.072.1l.052.082.039.052c.025.037.051.076.078.115l.016.021,0,.006v0l.012.014.019.029.031.043.08.111.043.062.037.051.091.128.014.019h0l0,.006.006.008.025.035.031.041c.025.033.052.068.078.1l.052.074.035.043c.033.043.064.087.1.13l.01.012h0l0,0,0,0,0,0,.016.021.025.031.023.029c.031.041.062.08.093.119.012.016.025.035.039.051l.012.016.035.041c.035.047.072.093.109.14l0,0,0,0,0,.006h0l0,0,.014.017.027.033.031.037c.029.037.058.072.089.107s.035.047.054.07.029.031.043.049l.1.128,0,.006.006,0v0l0,0,.017.019.029.035.035.041.085.1.064.078.045.047c.033.037.064.076.1.115l.014.016,0,0,0,0,.012.014.012.012.035.039.037.041.091.1.06.07.052.052.1.117.008.008h0l0,0,.006.006.006.006.017.017.037.039.008.01.045.045c.025.027.051.054.078.082s.049.054.074.08l.052.052c.031.031.062.066.093.1l.021.021,0,0,0,.006,0,0,.017.017.008.006.045.047.012.012.031.029c.029.027.056.056.086.084l.093.1c.012.012.025.021.037.035.037.035.074.074.111.111l.014.014.006.006,0,0,.051.049.01.01.016.014.021.019.027.025c.039.039.08.076.119.113l.064.06.033.029c.045.045.091.087.138.13h0c.023.021.049.043.072.062l.006.006.027.025.014.012.033.031.136.119a.406.406,0,0,0,.043.039l.01.008.035.033c.047.041.091.082.14.122h0l.008.008.076.062,0,0,.014.012,0,0,.01.01.027.023.047.039c.035.029.072.058.107.089s.049.041.074.06.029.025.045.039c.031.025.062.054.1.08l.012.01.027.023,0,0,.006,0,.021.016.047.039.029.023.025.019c.027.023.058.045.085.068l.016.012c.019.014.039.029.058.045s.062.052.1.078.068.052.1.08l0,0c.027.021.054.045.082.064l.006.006,0,0,.006,0,.019.016c.021.016.045.031.066.049l.012.008.01.008.039.029.041.033c.033.025.07.049.1.072l.01.01c.039.027.076.058.115.085s.072.052.107.078c.017.012.033.025.051.039l.035.025,0,0,.006,0,.041.027.039.027.014.01.049.035.033.023.049.035.014.01c.041.027.082.054.122.084.025.017.047.035.072.051l.045.031.08.052c.031.021.06.045.091.064l0,0,0,0,.006,0h0l.033.021c.025.017.051.035.078.051s.08.052.119.08l.016.01.035.023.062.041c.035.023.07.045.1.066l.021.016.066.041.08.051.066.043.014.01.066.039,0,0,.016.01.014.01.051.029.06.039.019.01.1.064.031.019.006,0,.021.012c.035.021.07.041.1.062a.367.367,0,0,1,.047.027l.091.052.014.01.041.023c.025.016.049.031.074.045l.012.008h0l.07.039.039.021c.021.014.045.023.068.037l.068.041.039.019.019.01.072.041.06.035.017.008.027.016,0,0,0,0,.074.041.012.006c.019.01.041.019.06.031s.049.025.074.039l.126.07H71.6c.014.008.029.012.041.019.049.025.1.051.144.074l.087.049.037.019.078.039.084.041.01.006.049.025.06.027.027.014.058.029.019.01.1.047.087.043.031.016h.006l.027.014c.025.014.052.023.078.035.064.031.13.058.194.087l.017.008c.035.016.068.035.1.051l.08.033.084.041.008,0c.047.021.093.041.14.06l.062.029.082.035c.021.01.045.017.068.027l.039.017.041.017h0c.058.025.119.047.177.07l.124.052c.064.025.132.049.2.076.039.014.076.031.115.047l.124.047a.591.591,0,0,0,.062.025l.14.052c.045.017.089.031.134.049s.068.027.1.039l0,0c.058.019.119.037.179.056.093.033.187.068.282.1s.173.056.258.084.144.051.216.072c.051.017.1.031.152.047s.084.023.124.035.1.035.157.051l.041.014h.012c.047.014.1.023.142.035l0,0c.122.035.243.074.367.107.035.01.068.019.1.027s.091.023.138.035c.19.049.383.091.575.136.134.031.266.066.4.093.027.006.054.016.084.021h.025c.062.014.122.031.183.043.033.008.068.012.1.017.332.066.667.119,1,.169.148.023.291.052.439.072l.033.006.023,0q.7.093,1.409.148h.068c.6.043,1.211.07,1.827.07s1.222-.027,1.827-.07h.066c.474-.037.942-.085,1.409-.148l.045-.008.012,0c.152-.019.3-.051.451-.074.33-.051.661-.1.987-.167.035-.006.07-.01.1-.017.062-.012.122-.029.183-.043h.027l.078-.019c.144-.031.284-.068.428-.1.183-.043.367-.082.548-.128.049-.014.1-.023.148-.037.033-.008.066-.017.1-.027.124-.033.245-.072.369-.107l0,0c.047-.014.1-.021.14-.035H90l.041-.014c.054-.016.1-.033.157-.051s.087-.023.13-.037.1-.027.144-.043c.074-.023.146-.051.22-.074s.171-.054.255-.084.192-.066.288-.1l.175-.056.006,0c.033-.014.066-.027.1-.039s.066-.023.1-.035h0l.037-.016.132-.049c.023-.01.047-.017.068-.027l.122-.047.117-.049.194-.074.124-.052c.058-.023.119-.045.177-.07h0l.043-.019.037-.016.07-.029c.027-.01.052-.021.08-.033l.066-.029.134-.058.029-.014.062-.029.082-.035c.037-.016.07-.035.1-.051l.016-.008c.066-.031.13-.058.2-.087.031-.016.064-.029.1-.045l.006,0h.006l.031-.016.087-.043.1-.047.019-.01.058-.029.029-.014c.019-.01.041-.017.06-.029l.045-.021.014-.008.082-.041.078-.039.039-.021c.029-.014.058-.031.086-.045l.144-.076.041-.019h.008l.126-.07.072-.039.062-.031.008-.006.082-.043.029-.017.018-.01.058-.031.074-.043.019-.01.037-.019c.023-.014.047-.029.07-.041s.045-.023.066-.037l.039-.021.072-.039.012-.008c.025-.014.049-.029.074-.045l.043-.025.012-.006.091-.054c.016-.008.029-.017.045-.027l.109-.064.018-.01.012-.006.025-.017.107-.064.019-.012c.021-.012.043-.027.064-.041l.027-.016.041-.023.014-.01.052-.031,0,0,.008,0,.014-.01c.023-.014.047-.029.07-.045l.076-.049.064-.041L96.386,47l.1-.066.06-.041.039-.025.01-.008c.041-.027.084-.052.122-.08s.052-.033.078-.051l.031-.021h0l.006,0,.006,0h0c.031-.019.06-.041.091-.062s.054-.037.08-.054l.047-.031c.023-.016.047-.035.07-.051l.12-.082.017-.012c.017-.012.033-.025.049-.037l.019-.014.062-.043.021-.016.027-.019.045-.029,0,0,.006-.006.041-.029.039-.031c.039-.027.078-.054.117-.084s.072-.056.109-.084l.01-.006c.035-.027.072-.051.107-.076l.041-.033L98,45.877l.01-.008.012-.008.064-.051.019-.014.006,0,0,0,0-.006c.025-.017.049-.037.072-.056l.017-.014c.033-.025.066-.051.1-.076s.062-.051.1-.076l.06-.049c.035-.027.07-.052.1-.08l.021-.017.031-.025.045-.035.021-.017h0c.051-.041.1-.084.148-.124l.031-.025.01-.008.068-.058c.039-.031.078-.064.117-.1l.039-.033.025-.021c.039-.033.078-.064.115-.1l.037-.033,0,0,.1-.089.033-.029.012-.01.041-.037.134-.12a.3.3,0,0,0,.037-.033l.012-.01.025-.021.012-.012c.019-.017.041-.035.06-.054h0l.006-.006c.047-.043.091-.086.136-.128l.035-.033.027-.023.037-.037.111-.1.035-.033.023-.023.006-.006.019-.017.039-.037.012-.01,0,0,.006,0h0l.014-.014c.039-.037.076-.076.113-.113l.035-.031c.033-.033.064-.068.1-.1s.052-.051.078-.076l.006,0,.029-.029.012-.012a.572.572,0,0,1,.049-.049l.023-.023h0l.006-.006v0l.019-.019c.031-.035.064-.068.1-.1l.049-.051c.023-.025.047-.051.072-.076s.058-.06.086-.091l.041-.039.006-.008.035-.037.023-.025,0,0,0-.006,0,0,.019-.023c.031-.033.062-.066.093-.1l.035-.035.016-.017.064-.072.087-.1.039-.041.033-.039.018-.019.006-.006.006,0v0l.008-.01c.037-.041.072-.082.107-.124l.041-.043c.021-.025.041-.051.062-.074s.06-.07.091-.1l.029-.035.033-.037.008-.01.012-.014h0l0,0,0,0,.014-.017c.033-.039.066-.08.1-.12l.037-.043c.021-.023.039-.049.06-.074s.058-.07.087-.107l.029-.035.027-.031.019-.023.006-.008c.035-.045.072-.091.107-.138l.037-.045c.019-.023.037-.049.056-.074l.084-.1.029-.035.029-.039.012-.016.014-.017c.033-.043.064-.086.1-.128l.039-.047.051-.07.082-.111.025-.033L103,40.8l.01-.014,0-.006.008-.01,0-.006.01-.016c.031-.041.062-.086.091-.126.012-.017.025-.033.037-.049s.029-.045.045-.064l.076-.109.031-.043.027-.037.006-.008,0,0,0,0,.01-.016c.029-.041.056-.082.086-.124l.035-.051c.018-.023.031-.049.049-.072.027-.039.054-.08.082-.12l.012-.017.023-.033.017-.023h0l.006-.01c.029-.043.056-.087.085-.132l.023-.031.006-.012c.021-.029.039-.06.058-.091s.051-.076.074-.115l.01-.016.018-.023.017-.027.016-.027.087-.142,0,0,.01-.014.035-.058c.041-.066.082-.13.12-.2l.008-.01c.041-.068.082-.138.122-.208l.006-.01c.049-.082.1-.163.146-.247.035-.062.07-.126.107-.19l.017-.033.128-.227v0l0,0,0-.008c.029-.052.058-.107.086-.161l0,0,.012-.021.029-.056c.027-.052.056-.1.082-.154l0-.008L105,37.6l.019-.035.021-.043c.014-.027.029-.056.043-.086l.027-.049.008-.016c.017-.033.031-.066.047-.1s.029-.058.045-.086.016-.029.021-.043l.012-.023,0-.008,0,0,0-.006a.721.721,0,0,0,.031-.068c.012-.021.021-.043.031-.064l.006-.012.027-.049,0-.01c.014-.029.025-.06.041-.089l.035-.076.012-.019.014-.029.014-.025.006-.016c.012-.023.019-.047.031-.07l.027-.058.021-.045.012-.025c.016-.031.027-.064.041-.1l.047-.1,0,0,.01-.021.01-.023.006-.01.016-.037c.023-.051.043-.1.064-.148l.01-.023.016-.037.093-.212,0-.008c.027-.062.051-.126.078-.188l.006-.014.008-.021.093-.227c.025-.062.049-.124.072-.188l.012-.025.006-.019c.025-.068.052-.134.078-.2l0-.008,0-.014.012-.035c.016-.039.029-.078.043-.117l.019-.051,0,0,.029-.084.031-.087.019-.052.006-.016.006-.012,0-.008.012-.035v-.006l.029-.082c.021-.062.041-.122.062-.185l.023-.066.025-.076h0l0-.008v0l.052-.161.016-.045.014-.047c.016-.052.033-.1.049-.155l.006-.019.008-.019.052-.181c.006-.019.012-.041.019-.06.017-.062.035-.122.054-.183l0-.012.006-.021h0v-.008c.016-.052.031-.109.047-.163l.023-.084c.014-.054.029-.109.045-.161l.01-.037v0h0v0l0-.006h0l.01-.041L107,32.4c.016-.056.029-.113.045-.169l.023-.1.014-.045,0-.008.021-.1c.008-.027.014-.054.019-.08l.016-.066c.012-.052.025-.1.037-.157l.01-.039.006-.021c.014-.062.027-.124.039-.185l.01-.045c.018-.074.033-.148.049-.222l0-.008.035-.185.01-.045c.014-.074.029-.146.043-.222l.01-.068c.008-.041.016-.08.021-.12l.01-.051c0-.025.008-.051.014-.076.008-.049.019-.1.027-.148,0-.033.008-.066.014-.1l.012-.078L107.5,30l.019-.13.014-.072v-.008l0,0,.023-.181.008-.056c.01-.064.019-.126.027-.19v-.008l0-.014,0-.008c.008-.058.014-.119.021-.179l.006-.064.023-.187,0-.019v0c0-.025,0-.051.006-.078s.008-.076.012-.115l.006-.049.006-.068c.006-.052.014-.1.017-.154s0-.078.008-.117l0-.041.008-.111.01-.1v-.01l0-.045,0-.025v-.035c0-.037.006-.074.008-.109s.006-.078.008-.117.006-.086.008-.128l0-.064v-.01l0,0V27.48c.008-.136.014-.274.018-.412l0-.017c0-.058,0-.117,0-.175l.006-.22,0-.062c0-.142,0-.284,0-.426Z" transform="translate(55.021 1.357)" fill="#899d7b" fill-rule="evenodd"/>
    <path id="Trazado_159901" data-name="Trazado 159901" d="M81.709,46.9A21.883,21.883,0,1,0,59.826,25.022,21.926,21.926,0,0,0,81.709,46.9" transform="translate(56.431 2.961)" fill="#f7f7f7" fill-rule="evenodd"/>
  </g>
</svg>
